<?xml version="1.0" encoding="UTF-8"?>
<svg width="63.793mm" height="63.793mm" version="1.1" viewBox="0 0 63.793 63.793" xmlns="http://www.w3.org/2000/svg" xmlns:cc="http://creativecommons.org/ns#" xmlns:dc="http://purl.org/dc/elements/1.1/" xmlns:rdf="http://www.w3.org/1999/02/22-rdf-syntax-ns#" xmlns:xlink="http://www.w3.org/1999/xlink">
 <defs>
  <radialGradient id="radialGradient2063" cx="379.27" cy="106.5" r="2.8503" gradientTransform="matrix(1.889 0 -3.4467e-8 2.3923 -337.17 -148.28)" gradientUnits="userSpaceOnUse">
   <stop stop-color="#ffa14c" stop-opacity=".99608" offset="0"/>
   <stop stop-color="#fea04c" offset=".10626"/>
   <stop stop-color="#fef399" offset=".19075"/>
   <stop stop-color="#fdf09c" offset=".28138"/>
   <stop stop-color="#fff6c6" stop-opacity=".48627" offset=".51607"/>
   <stop stop-color="#4d4d4d" stop-opacity=".0068578" offset="1"/>
  </radialGradient>
  <mask id="mask2596" maskUnits="userSpaceOnUse">
   <rect x="216.85" y="88.178" width="216.77" height="270.57" fill="url(#linearGradient2600)" stop-color="#000000" style="paint-order:stroke markers fill"/>
  </mask>
  <linearGradient id="linearGradient2600" x1="353.65" x2="353.74" y1="1.6914" y2="8.0672" gradientTransform="matrix(1.4431 0 0 .98757 -170.88 88.089)" gradientUnits="userSpaceOnUse">
   <stop offset="0"/>
   <stop stop-color="#fcffff" offset="1"/>
  </linearGradient>
 </defs>
 <metadata>
  <rdf:RDF>
   <cc:Work rdf:about="">
    <dc:format>image/svg+xml</dc:format>
    <dc:type rdf:resource="http://purl.org/dc/dcmitype/StillImage"/>
    <dc:title/>
   </cc:Work>
  </rdf:RDF>
 </metadata>
 <g transform="translate(88.275 -11.063)">
  <rect x="-4.4708" y="19.058" width="174.12" height="44.484" fill="#4d4d4d" stop-color="#000000" stroke-linecap="round" stroke-opacity=".14421" stroke-width="4.6257" style="paint-order:stroke markers fill"/>
  <g>
   <path d="m-81.411 20.052v36.954c14.405-9.9637 38.025-0.17383 42.689 1.6796l-0.0577 1.0523c-12.723-2.7675-31.36-7.1773-42.632 3.6897v5.3282h49.762v-48.704z" fill="#4d4d4d"/>
   <g>
    <g transform="matrix(.75569 0 0 .75569 -349.64 -69.519)" stroke-width=".82348" aria-label="VC">
     <path d="m381.41 130.81-7.9465 22.971h-4.4076l-7.9465-22.971h4.2145l4.6328 14.059q0.19303 0.5791 0.4504 1.5121 0.25738 0.90081 0.48258 1.866 0.25738 0.96516 0.38606 1.6729 0.0965-0.70778 0.32172-1.6729 0.22521-0.96516 0.48258-1.866 0.25738-0.93298 0.48258-1.5121l4.6328-14.059z" fill="#f2f2f2"/>
     <path d="m391.31 133.96q-3.1528 0-4.8901 2.252-1.7051 2.252-1.7051 6.1127 0 3.8928 1.6086 6.1127 1.6086 2.1877 4.9545 2.1877 1.4477 0 2.8311-0.28955 1.3834-0.32171 2.8955-0.83646v3.5067q-1.4156 0.5791-2.8633 0.83647-1.4156 0.25738-3.2815 0.25738-3.5389 0-5.8553-1.4477-2.3164-1.4799-3.4424-4.118-1.126-2.6703-1.126-6.2414 0-3.4746 1.2547-6.1127 1.2547-2.6703 3.6676-4.1824 2.4451-1.5121 5.9518-1.5121 1.7373 0 3.4102 0.41824 1.7051 0.38606 3.185 1.0938l-1.4156 3.378q-1.2225-0.54692-2.5416-0.96516-1.2869-0.4504-2.6381-0.4504z" fill="#fcb857"/>
    </g>
    <text x="48.240891" y="47.980755" fill="#f2f2f2" font-family="sans-serif" font-size="32.939px" letter-spacing="0px" stroke-width=".82348" word-spacing="0px" style="line-height:1.25" xml:space="preserve"><tspan x="48.240891" y="47.980755" dx="0 -2.868335" fill="#f2f2f2" font-family="'Noto Sans'" font-size="32.172px" font-weight="600" stroke-width=".82348">V<tspan fill="#fcb857" stroke-width=".82348">C</tspan></tspan></text>
    <text x="-10.11272" y="4.9917417" fill="#000000" font-family="sans-serif" font-size="10.583px" letter-spacing="0px" stroke-width=".26458" word-spacing="0px" style="line-height:1.25" xml:space="preserve"><tspan x="-10.11272" y="4.9917417" stroke-width=".26458">Original font: Noto Sans Semibold</tspan></text>
   </g>
  </g>
  <g transform="matrix(.35004 0 0 .35004 -165.21 -19.792)" mask="url(#mask2596)">
   <path d="m354.09-10.174c-3.9502 0.03522-7.1052 1.9077-7.0518 4.1852v230.18h14.325v-230.18c0.0546-2.3274-3.2362-4.2211-7.2731-4.1852z" color="#000000" color-rendering="auto" dominant-baseline="auto" fill="#fff" fill-opacity=".25189" image-rendering="auto" shape-rendering="auto" solid-color="#000000" style="font-feature-settings:normal;font-variant-alternates:normal;font-variant-caps:normal;font-variant-ligatures:normal;font-variant-numeric:normal;font-variant-position:normal;isolation:auto;mix-blend-mode:normal;shape-padding:0;text-decoration-color:#000000;text-decoration-line:none;text-decoration-style:solid;text-indent:0;text-orientation:mixed;text-transform:none;white-space:normal"/>
   <path d="m352.76 229.58" fill="#fea" stroke="#000" stroke-width="1.3923px"/>
   <path d="m354.13-10.174c-2.7548 0.03523-4.9551 1.9077-4.9178 4.1852v230.18h9.99v-230.18c0.0381-2.3274-2.2569-4.2211-5.0721-4.1852z" color="#000000" color-rendering="auto" dominant-baseline="auto" fill="#fff49a" image-rendering="auto" shape-rendering="auto" solid-color="#000000" style="font-feature-settings:normal;font-variant-alternates:normal;font-variant-caps:normal;font-variant-ligatures:normal;font-variant-numeric:normal;font-variant-position:normal;isolation:auto;mix-blend-mode:normal;shape-padding:0;text-decoration-color:#000000;text-decoration-line:none;text-decoration-style:solid;text-indent:0;text-orientation:mixed;text-transform:none;white-space:normal"/>
   <g transform="matrix(5.085 0 4.3206 5.2497 -1532.4 -180.92)">
    <ellipse transform="matrix(1 0 -.69158 .7223 0 0)" cx="379.27" cy="106.5" rx="5.3841" ry="6.8187" fill="url(#radialGradient2063)" stop-color="#000000" style="font-variation-settings:normal"/>
   </g>
   <path d="m354.16-10.174c-1.4251 0.03498-2.5634 1.8954-2.5441 4.1583v228.7h5.168v-228.7c0.0197-2.3125-1.1675-4.1939-2.6239-4.1583z" color="#000000" color-rendering="auto" dominant-baseline="auto" fill="#ffa14c" image-rendering="auto" shape-rendering="auto" solid-color="#000000" style="font-feature-settings:normal;font-variant-alternates:normal;font-variant-caps:normal;font-variant-ligatures:normal;font-variant-numeric:normal;font-variant-position:normal;isolation:auto;mix-blend-mode:normal;shape-padding:0;text-decoration-color:#000000;text-decoration-line:none;text-decoration-style:solid;text-indent:0;text-orientation:mixed;text-transform:none;white-space:normal"/>
  </g>
 </g>
</svg>
