<?xml version="1.0" encoding="iso-8859-1"?>
<!-- Generator: Adobe Illustrator 13.0.2, SVG Export Plug-In . SVG Version: 6.00 Build 14948)  -->
<!DOCTYPE svg PUBLIC "-//W3C//DTD SVG 1.1//EN" "http://www.w3.org/Graphics/SVG/1.1/DTD/svg11.dtd">
<svg version="1.1" id="Ebene_1" xmlns="http://www.w3.org/2000/svg" xmlns:xlink="http://www.w3.org/1999/xlink" x="0px" y="0px"
	 width="437.587px" height="194px" viewBox="-63.016 10.467 437.587 194"
	 style="enable-background:new -63.016 10.467 437.587 194;" xml:space="preserve">
<rect x="-63.016" y="10.467" style="fill:none;stroke:#000000;stroke-width:0.25;" width="437.587" height="194"/>
<g>
	<g>
		<g>
			<g>
				<line style="fill:none;stroke:#F18E2A;stroke-width:0.25;" x1="228.056" y1="186.836" x2="228.056" y2="215.184"/>
			</g>
			<g>
				<line style="fill:none;stroke:#F18E2A;stroke-width:0.25;" x1="222.387" y1="186.836" x2="222.387" y2="215.184"/>
			</g>
			<g>
				<line style="fill:none;stroke:#F18E2A;stroke-width:0.25;" x1="216.719" y1="186.836" x2="216.719" y2="215.184"/>
			</g>
			<g>
				<line style="fill:none;stroke:#F18E2A;stroke-width:0.25;" x1="211.05" y1="186.836" x2="211.05" y2="215.184"/>
			</g>
			<g>
				<line style="fill:none;stroke:#F18E2A;stroke-width:0.25;" x1="205.381" y1="186.836" x2="205.381" y2="215.184"/>
			</g>
			<g>
				<line style="fill:none;stroke:#F18E2A;stroke-width:0.25;" x1="199.712" y1="186.836" x2="199.712" y2="215.184"/>
			</g>
			<g>
				<line style="fill:none;stroke:#F18E2A;stroke-width:0.25;" x1="194.043" y1="186.836" x2="194.043" y2="215.184"/>
			</g>
			<g>
				<line style="fill:none;stroke:#F18E2A;stroke-width:0.25;" x1="188.374" y1="186.836" x2="188.374" y2="215.184"/>
			</g>
			<g>
				<line style="fill:none;stroke:#F18E2A;stroke-width:0.25;" x1="182.705" y1="186.836" x2="182.705" y2="215.184"/>
			</g>
			<g>
				<line style="fill:none;stroke:#F18E2A;stroke-width:0.25;" x1="177.036" y1="186.836" x2="177.036" y2="215.184"/>
			</g>
			<g>
				<line style="fill:none;stroke:#F18E2A;stroke-width:0.25;" x1="171.367" y1="186.836" x2="171.367" y2="215.184"/>
			</g>
			<g>
				<line style="fill:none;stroke:#F18E2A;stroke-width:0.25;" x1="165.698" y1="186.836" x2="165.698" y2="215.184"/>
			</g>
			<g>
				<line style="fill:none;stroke:#F18E2A;stroke-width:0.25;" x1="160.029" y1="186.836" x2="160.029" y2="215.184"/>
			</g>
			<g>
				<line style="fill:none;stroke:#F18E2A;stroke-width:0.25;" x1="154.359" y1="186.836" x2="154.359" y2="215.184"/>
			</g>
			<g>
				<line style="fill:none;stroke:#F18E2A;stroke-width:0.25;" x1="148.69" y1="186.836" x2="148.69" y2="215.184"/>
			</g>
			<g>
				<line style="fill:none;stroke:#F18E2A;stroke-width:0.25;" x1="143.021" y1="186.836" x2="143.021" y2="215.184"/>
			</g>
			<g>
				<line style="fill:none;stroke:#F18E2A;stroke-width:0.25;" x1="137.352" y1="186.836" x2="137.352" y2="215.184"/>
			</g>
			<g>
				<line style="fill:none;stroke:#F18E2A;stroke-width:0.25;" x1="131.684" y1="186.836" x2="131.684" y2="215.184"/>
			</g>
			<g>
				<line style="fill:none;stroke:#F18E2A;stroke-width:0.25;" x1="126.015" y1="186.836" x2="126.015" y2="215.184"/>
			</g>
			<g>
				<line style="fill:none;stroke:#F18E2A;stroke-width:0.25;" x1="120.346" y1="186.836" x2="120.346" y2="215.184"/>
			</g>
			<g>
				<line style="fill:none;stroke:#F18E2A;stroke-width:0.25;" x1="114.677" y1="186.836" x2="114.677" y2="215.184"/>
			</g>
			<g>
				<line style="fill:none;stroke:#F18E2A;stroke-width:0.25;" x1="109.009" y1="186.836" x2="109.009" y2="215.184"/>
			</g>
			<g>
				<line style="fill:none;stroke:#F18E2A;stroke-width:0.25;" x1="103.34" y1="186.836" x2="103.34" y2="215.184"/>
			</g>
			<g>
				<line style="fill:none;stroke:#F18E2A;stroke-width:0.25;" x1="97.671" y1="186.836" x2="97.671" y2="215.184"/>
			</g>
			<g>
				<line style="fill:none;stroke:#F18E2A;stroke-width:0.25;" x1="92.002" y1="186.836" x2="92.002" y2="215.184"/>
			</g>
			<g>
				<line style="fill:none;stroke:#F18E2A;stroke-width:0.25;" x1="86.333" y1="186.836" x2="86.333" y2="215.184"/>
			</g>
		</g>
		<g>
			<g>
				<line style="fill:none;stroke:#F18E2A;stroke-width:0.25;" x1="225.221" y1="169.828" x2="225.221" y2="198.176"/>
			</g>
			<g>
				<line style="fill:none;stroke:#F18E2A;stroke-width:0.25;" x1="219.552" y1="169.828" x2="219.552" y2="198.176"/>
			</g>
			<g>
				<line style="fill:none;stroke:#F18E2A;stroke-width:0.25;" x1="213.884" y1="169.828" x2="213.884" y2="198.176"/>
			</g>
			<g>
				<line style="fill:none;stroke:#F18E2A;stroke-width:0.25;" x1="208.215" y1="169.828" x2="208.215" y2="198.176"/>
			</g>
			<g>
				<line style="fill:none;stroke:#F18E2A;stroke-width:0.25;" x1="202.546" y1="169.828" x2="202.546" y2="198.176"/>
			</g>
			<g>
				<line style="fill:none;stroke:#F18E2A;stroke-width:0.25;" x1="196.877" y1="169.828" x2="196.877" y2="198.176"/>
			</g>
			<g>
				<line style="fill:none;stroke:#F18E2A;stroke-width:0.25;" x1="191.208" y1="169.828" x2="191.208" y2="198.176"/>
			</g>
			<g>
				<line style="fill:none;stroke:#F18E2A;stroke-width:0.25;" x1="185.539" y1="169.828" x2="185.539" y2="198.176"/>
			</g>
			<g>
				<line style="fill:none;stroke:#F18E2A;stroke-width:0.25;" x1="179.87" y1="169.828" x2="179.87" y2="198.176"/>
			</g>
			<g>
				<line style="fill:none;stroke:#F18E2A;stroke-width:0.25;" x1="174.201" y1="169.828" x2="174.201" y2="198.176"/>
			</g>
			<g>
				<line style="fill:none;stroke:#F18E2A;stroke-width:0.25;" x1="168.532" y1="169.828" x2="168.532" y2="198.176"/>
			</g>
			<g>
				<line style="fill:none;stroke:#F18E2A;stroke-width:0.25;" x1="162.863" y1="169.828" x2="162.863" y2="198.176"/>
			</g>
			<g>
				<line style="fill:none;stroke:#F18E2A;stroke-width:0.25;" x1="157.193" y1="169.828" x2="157.193" y2="198.176"/>
			</g>
			<g>
				<line style="fill:none;stroke:#F18E2A;stroke-width:0.25;" x1="151.524" y1="169.828" x2="151.524" y2="198.176"/>
			</g>
			<g>
				<line style="fill:none;stroke:#F18E2A;stroke-width:0.25;" x1="145.855" y1="169.828" x2="145.855" y2="198.176"/>
			</g>
			<g>
				<line style="fill:none;stroke:#F18E2A;stroke-width:0.25;" x1="140.186" y1="169.828" x2="140.186" y2="198.176"/>
			</g>
			<g>
				<line style="fill:none;stroke:#F18E2A;stroke-width:0.25;" x1="134.517" y1="169.828" x2="134.517" y2="198.176"/>
			</g>
			<g>
				<line style="fill:none;stroke:#F18E2A;stroke-width:0.25;" x1="128.849" y1="169.828" x2="128.849" y2="198.176"/>
			</g>
			<g>
				<line style="fill:none;stroke:#F18E2A;stroke-width:0.25;" x1="123.18" y1="169.828" x2="123.18" y2="198.176"/>
			</g>
			<g>
				<line style="fill:none;stroke:#F18E2A;stroke-width:0.25;" x1="117.511" y1="169.828" x2="117.511" y2="198.176"/>
			</g>
			<g>
				<line style="fill:none;stroke:#F18E2A;stroke-width:0.25;" x1="111.843" y1="169.828" x2="111.843" y2="198.176"/>
			</g>
			<g>
				<line style="fill:none;stroke:#F18E2A;stroke-width:0.25;" x1="106.174" y1="169.828" x2="106.174" y2="198.176"/>
			</g>
			<g>
				<line style="fill:none;stroke:#F18E2A;stroke-width:0.25;" x1="100.505" y1="169.828" x2="100.505" y2="198.176"/>
			</g>
			<g>
				<line style="fill:none;stroke:#F18E2A;stroke-width:0.25;" x1="94.836" y1="169.828" x2="94.836" y2="198.176"/>
			</g>
			<g>
				<line style="fill:none;stroke:#F18E2A;stroke-width:0.25;" x1="89.167" y1="169.828" x2="89.167" y2="198.176"/>
			</g>
			<g>
				<line style="fill:none;stroke:#F18E2A;stroke-width:0.25;" x1="83.498" y1="169.828" x2="83.498" y2="198.176"/>
			</g>
		</g>
	</g>
	<g>
		<g>
			<g>
				<line style="fill:none;stroke:#F18E2A;stroke-width:0.25;" x1="228.056" y1="152.82" x2="228.056" y2="181.168"/>
			</g>
			<g>
				<line style="fill:none;stroke:#F18E2A;stroke-width:0.25;" x1="222.387" y1="152.82" x2="222.387" y2="181.168"/>
			</g>
			<g>
				<line style="fill:none;stroke:#F18E2A;stroke-width:0.25;" x1="216.719" y1="152.82" x2="216.719" y2="181.168"/>
			</g>
			<g>
				<line style="fill:none;stroke:#F18E2A;stroke-width:0.25;" x1="211.05" y1="152.82" x2="211.05" y2="181.168"/>
			</g>
			<g>
				<line style="fill:none;stroke:#F18E2A;stroke-width:0.25;" x1="205.381" y1="152.82" x2="205.381" y2="181.168"/>
			</g>
			<g>
				<line style="fill:none;stroke:#F18E2A;stroke-width:0.25;" x1="199.712" y1="152.82" x2="199.712" y2="181.168"/>
			</g>
			<g>
				<line style="fill:none;stroke:#F18E2A;stroke-width:0.25;" x1="194.043" y1="152.82" x2="194.043" y2="181.168"/>
			</g>
			<g>
				<line style="fill:none;stroke:#F18E2A;stroke-width:0.25;" x1="188.374" y1="152.82" x2="188.374" y2="181.168"/>
			</g>
			<g>
				<line style="fill:none;stroke:#F18E2A;stroke-width:0.25;" x1="182.705" y1="152.82" x2="182.705" y2="181.168"/>
			</g>
			<g>
				<line style="fill:none;stroke:#F18E2A;stroke-width:0.25;" x1="177.036" y1="152.82" x2="177.036" y2="181.168"/>
			</g>
			<g>
				<line style="fill:none;stroke:#F18E2A;stroke-width:0.25;" x1="171.367" y1="152.82" x2="171.367" y2="181.168"/>
			</g>
			<g>
				<line style="fill:none;stroke:#F18E2A;stroke-width:0.25;" x1="165.698" y1="152.82" x2="165.698" y2="181.168"/>
			</g>
			<g>
				<line style="fill:none;stroke:#F18E2A;stroke-width:0.25;" x1="160.029" y1="152.82" x2="160.029" y2="181.168"/>
			</g>
			<g>
				<line style="fill:none;stroke:#F18E2A;stroke-width:0.25;" x1="154.359" y1="152.82" x2="154.359" y2="181.168"/>
			</g>
			<g>
				<line style="fill:none;stroke:#F18E2A;stroke-width:0.25;" x1="148.69" y1="152.82" x2="148.69" y2="181.168"/>
			</g>
			<g>
				<line style="fill:none;stroke:#F18E2A;stroke-width:0.25;" x1="143.021" y1="152.82" x2="143.021" y2="181.168"/>
			</g>
			<g>
				<line style="fill:none;stroke:#F18E2A;stroke-width:0.25;" x1="137.352" y1="152.82" x2="137.352" y2="181.168"/>
			</g>
			<g>
				<line style="fill:none;stroke:#F18E2A;stroke-width:0.25;" x1="131.684" y1="152.82" x2="131.684" y2="181.168"/>
			</g>
			<g>
				<line style="fill:none;stroke:#F18E2A;stroke-width:0.25;" x1="126.015" y1="152.82" x2="126.015" y2="181.168"/>
			</g>
			<g>
				<line style="fill:none;stroke:#F18E2A;stroke-width:0.25;" x1="120.346" y1="152.82" x2="120.346" y2="181.168"/>
			</g>
			<g>
				<line style="fill:none;stroke:#F18E2A;stroke-width:0.25;" x1="114.677" y1="152.82" x2="114.677" y2="181.168"/>
			</g>
			<g>
				<line style="fill:none;stroke:#F18E2A;stroke-width:0.25;" x1="109.009" y1="152.82" x2="109.009" y2="181.168"/>
			</g>
			<g>
				<line style="fill:none;stroke:#F18E2A;stroke-width:0.25;" x1="103.34" y1="152.82" x2="103.34" y2="181.168"/>
			</g>
			<g>
				<line style="fill:none;stroke:#F18E2A;stroke-width:0.25;" x1="97.671" y1="152.82" x2="97.671" y2="181.168"/>
			</g>
			<g>
				<line style="fill:none;stroke:#F18E2A;stroke-width:0.25;" x1="92.002" y1="152.82" x2="92.002" y2="181.168"/>
			</g>
			<g>
				<line style="fill:none;stroke:#F18E2A;stroke-width:0.25;" x1="86.333" y1="152.82" x2="86.333" y2="181.168"/>
			</g>
		</g>
		<g>
			<g>
				<line style="fill:none;stroke:#F18E2A;stroke-width:0.25;" x1="225.221" y1="135.812" x2="225.221" y2="164.16"/>
			</g>
			<g>
				<line style="fill:none;stroke:#F18E2A;stroke-width:0.25;" x1="219.552" y1="135.812" x2="219.552" y2="164.16"/>
			</g>
			<g>
				<line style="fill:none;stroke:#F18E2A;stroke-width:0.25;" x1="213.884" y1="135.812" x2="213.884" y2="164.16"/>
			</g>
			<g>
				<line style="fill:none;stroke:#F18E2A;stroke-width:0.25;" x1="208.215" y1="135.812" x2="208.215" y2="164.16"/>
			</g>
			<g>
				<line style="fill:none;stroke:#F18E2A;stroke-width:0.25;" x1="202.546" y1="135.812" x2="202.546" y2="164.16"/>
			</g>
			<g>
				<line style="fill:none;stroke:#F18E2A;stroke-width:0.25;" x1="196.877" y1="135.812" x2="196.877" y2="164.16"/>
			</g>
			<g>
				<line style="fill:none;stroke:#F18E2A;stroke-width:0.25;" x1="191.208" y1="135.812" x2="191.208" y2="164.16"/>
			</g>
			<g>
				<line style="fill:none;stroke:#F18E2A;stroke-width:0.25;" x1="185.539" y1="135.812" x2="185.539" y2="164.16"/>
			</g>
			<g>
				<line style="fill:none;stroke:#F18E2A;stroke-width:0.25;" x1="179.87" y1="135.812" x2="179.87" y2="164.16"/>
			</g>
			<g>
				<line style="fill:none;stroke:#F18E2A;stroke-width:0.25;" x1="174.201" y1="135.812" x2="174.201" y2="164.16"/>
			</g>
			<g>
				<line style="fill:none;stroke:#F18E2A;stroke-width:0.25;" x1="168.532" y1="135.812" x2="168.532" y2="164.16"/>
			</g>
			<g>
				<line style="fill:none;stroke:#F18E2A;stroke-width:0.25;" x1="162.863" y1="135.812" x2="162.863" y2="164.16"/>
			</g>
			<g>
				<line style="fill:none;stroke:#F18E2A;stroke-width:0.25;" x1="157.193" y1="135.812" x2="157.193" y2="164.16"/>
			</g>
			<g>
				<line style="fill:none;stroke:#F18E2A;stroke-width:0.25;" x1="151.524" y1="135.812" x2="151.524" y2="164.16"/>
			</g>
			<g>
				<line style="fill:none;stroke:#F18E2A;stroke-width:0.25;" x1="145.855" y1="135.812" x2="145.855" y2="164.16"/>
			</g>
			<g>
				<line style="fill:none;stroke:#F18E2A;stroke-width:0.25;" x1="140.186" y1="135.812" x2="140.186" y2="164.16"/>
			</g>
			<g>
				<line style="fill:none;stroke:#F18E2A;stroke-width:0.25;" x1="134.517" y1="135.812" x2="134.517" y2="164.16"/>
			</g>
			<g>
				<line style="fill:none;stroke:#F18E2A;stroke-width:0.25;" x1="128.849" y1="135.812" x2="128.849" y2="164.16"/>
			</g>
			<g>
				<line style="fill:none;stroke:#F18E2A;stroke-width:0.25;" x1="123.18" y1="135.812" x2="123.18" y2="164.16"/>
			</g>
			<g>
				<line style="fill:none;stroke:#F18E2A;stroke-width:0.25;" x1="117.511" y1="135.812" x2="117.511" y2="164.16"/>
			</g>
			<g>
				<line style="fill:none;stroke:#F18E2A;stroke-width:0.25;" x1="111.843" y1="135.812" x2="111.843" y2="164.16"/>
			</g>
			<g>
				<line style="fill:none;stroke:#F18E2A;stroke-width:0.25;" x1="106.174" y1="135.812" x2="106.174" y2="164.16"/>
			</g>
			<g>
				<line style="fill:none;stroke:#F18E2A;stroke-width:0.25;" x1="100.505" y1="135.812" x2="100.505" y2="164.16"/>
			</g>
			<g>
				<line style="fill:none;stroke:#F18E2A;stroke-width:0.25;" x1="94.836" y1="135.812" x2="94.836" y2="164.16"/>
			</g>
			<g>
				<line style="fill:none;stroke:#F18E2A;stroke-width:0.25;" x1="89.167" y1="135.812" x2="89.167" y2="164.16"/>
			</g>
			<g>
				<line style="fill:none;stroke:#F18E2A;stroke-width:0.25;" x1="83.498" y1="135.812" x2="83.498" y2="164.16"/>
			</g>
		</g>
	</g>
	<g>
		<g>
			<g>
				<line style="fill:none;stroke:#F18E2A;stroke-width:0.25;" x1="228.056" y1="118.805" x2="228.056" y2="147.152"/>
			</g>
			<g>
				<line style="fill:none;stroke:#F18E2A;stroke-width:0.25;" x1="222.387" y1="118.805" x2="222.387" y2="147.152"/>
			</g>
			<g>
				<line style="fill:none;stroke:#F18E2A;stroke-width:0.25;" x1="216.719" y1="118.805" x2="216.719" y2="147.152"/>
			</g>
			<g>
				<line style="fill:none;stroke:#F18E2A;stroke-width:0.25;" x1="211.05" y1="118.805" x2="211.05" y2="147.152"/>
			</g>
			<g>
				<line style="fill:none;stroke:#F18E2A;stroke-width:0.25;" x1="205.381" y1="118.805" x2="205.381" y2="147.152"/>
			</g>
			<g>
				<line style="fill:none;stroke:#F18E2A;stroke-width:0.25;" x1="199.712" y1="118.805" x2="199.712" y2="147.152"/>
			</g>
			<g>
				<line style="fill:none;stroke:#F18E2A;stroke-width:0.25;" x1="194.043" y1="118.805" x2="194.043" y2="147.152"/>
			</g>
			<g>
				<line style="fill:none;stroke:#F18E2A;stroke-width:0.25;" x1="188.374" y1="118.805" x2="188.374" y2="147.152"/>
			</g>
			<g>
				<line style="fill:none;stroke:#F18E2A;stroke-width:0.25;" x1="182.705" y1="118.805" x2="182.705" y2="147.152"/>
			</g>
			<g>
				<line style="fill:none;stroke:#F18E2A;stroke-width:0.25;" x1="177.036" y1="118.805" x2="177.036" y2="147.152"/>
			</g>
			<g>
				<line style="fill:none;stroke:#F18E2A;stroke-width:0.25;" x1="171.367" y1="118.805" x2="171.367" y2="147.152"/>
			</g>
			<g>
				<line style="fill:none;stroke:#F18E2A;stroke-width:0.25;" x1="165.698" y1="118.805" x2="165.698" y2="147.152"/>
			</g>
			<g>
				<line style="fill:none;stroke:#F18E2A;stroke-width:0.25;" x1="160.029" y1="118.805" x2="160.029" y2="147.152"/>
			</g>
			<g>
				<line style="fill:none;stroke:#F18E2A;stroke-width:0.25;" x1="154.359" y1="118.805" x2="154.359" y2="147.152"/>
			</g>
			<g>
				<line style="fill:none;stroke:#F18E2A;stroke-width:0.25;" x1="148.69" y1="118.805" x2="148.69" y2="147.152"/>
			</g>
			<g>
				<line style="fill:none;stroke:#F18E2A;stroke-width:0.25;" x1="143.021" y1="118.805" x2="143.021" y2="147.152"/>
			</g>
			<g>
				<line style="fill:none;stroke:#F18E2A;stroke-width:0.25;" x1="137.352" y1="118.805" x2="137.352" y2="147.152"/>
			</g>
			<g>
				<line style="fill:none;stroke:#F18E2A;stroke-width:0.25;" x1="131.684" y1="118.805" x2="131.684" y2="147.152"/>
			</g>
			<g>
				<line style="fill:none;stroke:#F18E2A;stroke-width:0.25;" x1="126.015" y1="118.805" x2="126.015" y2="147.152"/>
			</g>
			<g>
				<line style="fill:none;stroke:#F18E2A;stroke-width:0.25;" x1="120.346" y1="118.805" x2="120.346" y2="147.152"/>
			</g>
			<g>
				<line style="fill:none;stroke:#F18E2A;stroke-width:0.25;" x1="114.677" y1="118.805" x2="114.677" y2="147.152"/>
			</g>
			<g>
				<line style="fill:none;stroke:#F18E2A;stroke-width:0.25;" x1="109.009" y1="118.805" x2="109.009" y2="147.152"/>
			</g>
			<g>
				<line style="fill:none;stroke:#F18E2A;stroke-width:0.25;" x1="103.34" y1="118.805" x2="103.34" y2="147.152"/>
			</g>
			<g>
				<line style="fill:none;stroke:#F18E2A;stroke-width:0.25;" x1="97.671" y1="118.805" x2="97.671" y2="147.152"/>
			</g>
			<g>
				<line style="fill:none;stroke:#F18E2A;stroke-width:0.25;" x1="92.002" y1="118.805" x2="92.002" y2="147.152"/>
			</g>
			<g>
				<line style="fill:none;stroke:#F18E2A;stroke-width:0.25;" x1="86.333" y1="118.805" x2="86.333" y2="147.152"/>
			</g>
		</g>
		<g>
			<g>
				<line style="fill:none;stroke:#F18E2A;stroke-width:0.25;" x1="225.221" y1="101.797" x2="225.221" y2="130.145"/>
			</g>
			<g>
				<line style="fill:none;stroke:#F18E2A;stroke-width:0.25;" x1="219.552" y1="101.797" x2="219.552" y2="130.145"/>
			</g>
			<g>
				<line style="fill:none;stroke:#F18E2A;stroke-width:0.25;" x1="213.884" y1="101.797" x2="213.884" y2="130.145"/>
			</g>
			<g>
				<line style="fill:none;stroke:#F18E2A;stroke-width:0.25;" x1="208.215" y1="101.797" x2="208.215" y2="130.145"/>
			</g>
			<g>
				<line style="fill:none;stroke:#F18E2A;stroke-width:0.25;" x1="202.546" y1="101.797" x2="202.546" y2="130.145"/>
			</g>
			<g>
				<line style="fill:none;stroke:#F18E2A;stroke-width:0.25;" x1="196.877" y1="101.797" x2="196.877" y2="130.145"/>
			</g>
			<g>
				<line style="fill:none;stroke:#F18E2A;stroke-width:0.25;" x1="191.208" y1="101.797" x2="191.208" y2="130.145"/>
			</g>
			<g>
				<line style="fill:none;stroke:#F18E2A;stroke-width:0.25;" x1="185.539" y1="101.797" x2="185.539" y2="130.145"/>
			</g>
			<g>
				<line style="fill:none;stroke:#F18E2A;stroke-width:0.25;" x1="179.87" y1="101.797" x2="179.87" y2="130.145"/>
			</g>
			<g>
				<line style="fill:none;stroke:#F18E2A;stroke-width:0.25;" x1="174.201" y1="101.797" x2="174.201" y2="130.145"/>
			</g>
			<g>
				<line style="fill:none;stroke:#F18E2A;stroke-width:0.25;" x1="168.532" y1="101.797" x2="168.532" y2="130.145"/>
			</g>
			<g>
				<line style="fill:none;stroke:#F18E2A;stroke-width:0.25;" x1="162.863" y1="101.797" x2="162.863" y2="130.145"/>
			</g>
			<g>
				<line style="fill:none;stroke:#F18E2A;stroke-width:0.25;" x1="157.193" y1="101.797" x2="157.193" y2="130.145"/>
			</g>
			<g>
				<line style="fill:none;stroke:#F18E2A;stroke-width:0.25;" x1="151.524" y1="101.797" x2="151.524" y2="130.145"/>
			</g>
			<g>
				<line style="fill:none;stroke:#F18E2A;stroke-width:0.25;" x1="145.855" y1="101.797" x2="145.855" y2="130.145"/>
			</g>
			<g>
				<line style="fill:none;stroke:#F18E2A;stroke-width:0.25;" x1="140.186" y1="101.797" x2="140.186" y2="130.145"/>
			</g>
			<g>
				<line style="fill:none;stroke:#F18E2A;stroke-width:0.25;" x1="134.517" y1="101.797" x2="134.517" y2="130.145"/>
			</g>
			<g>
				<line style="fill:none;stroke:#F18E2A;stroke-width:0.25;" x1="128.849" y1="101.797" x2="128.849" y2="130.145"/>
			</g>
			<g>
				<line style="fill:none;stroke:#F18E2A;stroke-width:0.25;" x1="123.18" y1="101.797" x2="123.18" y2="130.145"/>
			</g>
			<g>
				<line style="fill:none;stroke:#F18E2A;stroke-width:0.25;" x1="117.511" y1="101.797" x2="117.511" y2="130.145"/>
			</g>
			<g>
				<line style="fill:none;stroke:#F18E2A;stroke-width:0.25;" x1="111.843" y1="101.797" x2="111.843" y2="130.145"/>
			</g>
			<g>
				<line style="fill:none;stroke:#F18E2A;stroke-width:0.25;" x1="106.174" y1="101.797" x2="106.174" y2="130.145"/>
			</g>
			<g>
				<line style="fill:none;stroke:#F18E2A;stroke-width:0.25;" x1="100.505" y1="101.797" x2="100.505" y2="130.145"/>
			</g>
			<g>
				<line style="fill:none;stroke:#F18E2A;stroke-width:0.25;" x1="94.836" y1="101.797" x2="94.836" y2="130.145"/>
			</g>
			<g>
				<line style="fill:none;stroke:#F18E2A;stroke-width:0.25;" x1="89.167" y1="101.797" x2="89.167" y2="130.145"/>
			</g>
			<g>
				<line style="fill:none;stroke:#F18E2A;stroke-width:0.25;" x1="83.498" y1="101.797" x2="83.498" y2="130.145"/>
			</g>
		</g>
	</g>
	<g>
		<g>
			<g>
				<line style="fill:none;stroke:#F18E2A;stroke-width:0.25;" x1="228.056" y1="84.789" x2="228.056" y2="113.137"/>
			</g>
			<g>
				<line style="fill:none;stroke:#F18E2A;stroke-width:0.25;" x1="222.387" y1="84.789" x2="222.387" y2="113.137"/>
			</g>
			<g>
				<line style="fill:none;stroke:#F18E2A;stroke-width:0.25;" x1="216.719" y1="84.789" x2="216.719" y2="113.137"/>
			</g>
			<g>
				<line style="fill:none;stroke:#F18E2A;stroke-width:0.25;" x1="211.05" y1="84.789" x2="211.05" y2="113.137"/>
			</g>
			<g>
				<line style="fill:none;stroke:#F18E2A;stroke-width:0.25;" x1="205.381" y1="84.789" x2="205.381" y2="113.137"/>
			</g>
			<g>
				<line style="fill:none;stroke:#F18E2A;stroke-width:0.25;" x1="199.712" y1="84.789" x2="199.712" y2="113.137"/>
			</g>
			<g>
				<line style="fill:none;stroke:#F18E2A;stroke-width:0.25;" x1="194.043" y1="84.789" x2="194.043" y2="113.137"/>
			</g>
			<g>
				<line style="fill:none;stroke:#F18E2A;stroke-width:0.25;" x1="188.374" y1="84.789" x2="188.374" y2="113.137"/>
			</g>
			<g>
				<line style="fill:none;stroke:#F18E2A;stroke-width:0.25;" x1="182.705" y1="84.789" x2="182.705" y2="113.137"/>
			</g>
			<g>
				<line style="fill:none;stroke:#F18E2A;stroke-width:0.25;" x1="177.036" y1="84.789" x2="177.036" y2="113.137"/>
			</g>
			<g>
				<line style="fill:none;stroke:#F18E2A;stroke-width:0.25;" x1="171.367" y1="84.789" x2="171.367" y2="113.137"/>
			</g>
			<g>
				<line style="fill:none;stroke:#F18E2A;stroke-width:0.25;" x1="165.698" y1="84.789" x2="165.698" y2="113.137"/>
			</g>
			<g>
				<line style="fill:none;stroke:#F18E2A;stroke-width:0.25;" x1="160.029" y1="84.789" x2="160.029" y2="113.137"/>
			</g>
			<g>
				<line style="fill:none;stroke:#F18E2A;stroke-width:0.25;" x1="154.359" y1="84.789" x2="154.359" y2="113.137"/>
			</g>
			<g>
				<line style="fill:none;stroke:#F18E2A;stroke-width:0.25;" x1="148.69" y1="84.789" x2="148.69" y2="113.137"/>
			</g>
			<g>
				<line style="fill:none;stroke:#F18E2A;stroke-width:0.25;" x1="143.021" y1="84.789" x2="143.021" y2="113.137"/>
			</g>
			<g>
				<line style="fill:none;stroke:#F18E2A;stroke-width:0.25;" x1="137.352" y1="84.789" x2="137.352" y2="113.137"/>
			</g>
			<g>
				<line style="fill:none;stroke:#F18E2A;stroke-width:0.25;" x1="131.684" y1="84.789" x2="131.684" y2="113.137"/>
			</g>
			<g>
				<line style="fill:none;stroke:#F18E2A;stroke-width:0.25;" x1="126.015" y1="84.789" x2="126.015" y2="113.137"/>
			</g>
			<g>
				<line style="fill:none;stroke:#F18E2A;stroke-width:0.25;" x1="120.346" y1="84.789" x2="120.346" y2="113.137"/>
			</g>
			<g>
				<line style="fill:none;stroke:#F18E2A;stroke-width:0.25;" x1="114.677" y1="84.789" x2="114.677" y2="113.137"/>
			</g>
			<g>
				<line style="fill:none;stroke:#F18E2A;stroke-width:0.25;" x1="109.009" y1="84.789" x2="109.009" y2="113.137"/>
			</g>
			<g>
				<line style="fill:none;stroke:#F18E2A;stroke-width:0.25;" x1="103.34" y1="84.789" x2="103.34" y2="113.137"/>
			</g>
			<g>
				<line style="fill:none;stroke:#F18E2A;stroke-width:0.25;" x1="97.671" y1="84.789" x2="97.671" y2="113.137"/>
			</g>
			<g>
				<line style="fill:none;stroke:#F18E2A;stroke-width:0.25;" x1="92.002" y1="84.789" x2="92.002" y2="113.137"/>
			</g>
			<g>
				<line style="fill:none;stroke:#F18E2A;stroke-width:0.25;" x1="86.333" y1="84.789" x2="86.333" y2="113.137"/>
			</g>
		</g>
		<g>
			<g>
				<line style="fill:none;stroke:#F18E2A;stroke-width:0.25;" x1="225.221" y1="67.781" x2="225.221" y2="96.129"/>
			</g>
			<g>
				<line style="fill:none;stroke:#F18E2A;stroke-width:0.25;" x1="219.552" y1="67.781" x2="219.552" y2="96.129"/>
			</g>
			<g>
				<line style="fill:none;stroke:#F18E2A;stroke-width:0.25;" x1="213.884" y1="67.781" x2="213.884" y2="96.129"/>
			</g>
			<g>
				<line style="fill:none;stroke:#F18E2A;stroke-width:0.25;" x1="208.215" y1="67.781" x2="208.215" y2="96.129"/>
			</g>
			<g>
				<line style="fill:none;stroke:#F18E2A;stroke-width:0.25;" x1="202.546" y1="67.781" x2="202.546" y2="96.129"/>
			</g>
			<g>
				<line style="fill:none;stroke:#F18E2A;stroke-width:0.25;" x1="196.877" y1="67.781" x2="196.877" y2="96.129"/>
			</g>
			<g>
				<line style="fill:none;stroke:#F18E2A;stroke-width:0.25;" x1="191.208" y1="67.781" x2="191.208" y2="96.129"/>
			</g>
			<g>
				<line style="fill:none;stroke:#F18E2A;stroke-width:0.25;" x1="185.539" y1="67.781" x2="185.539" y2="96.129"/>
			</g>
			<g>
				<line style="fill:none;stroke:#F18E2A;stroke-width:0.25;" x1="179.87" y1="67.781" x2="179.87" y2="96.129"/>
			</g>
			<g>
				<line style="fill:none;stroke:#F18E2A;stroke-width:0.25;" x1="174.201" y1="67.781" x2="174.201" y2="96.129"/>
			</g>
			<g>
				<line style="fill:none;stroke:#F18E2A;stroke-width:0.25;" x1="168.532" y1="67.781" x2="168.532" y2="96.129"/>
			</g>
			<g>
				<line style="fill:none;stroke:#F18E2A;stroke-width:0.25;" x1="162.863" y1="67.781" x2="162.863" y2="96.129"/>
			</g>
			<g>
				<line style="fill:none;stroke:#F18E2A;stroke-width:0.25;" x1="157.193" y1="67.781" x2="157.193" y2="96.129"/>
			</g>
			<g>
				<line style="fill:none;stroke:#F18E2A;stroke-width:0.25;" x1="151.524" y1="67.781" x2="151.524" y2="96.129"/>
			</g>
			<g>
				<line style="fill:none;stroke:#F18E2A;stroke-width:0.25;" x1="145.855" y1="67.781" x2="145.855" y2="96.129"/>
			</g>
			<g>
				<line style="fill:none;stroke:#F18E2A;stroke-width:0.25;" x1="140.186" y1="67.781" x2="140.186" y2="96.129"/>
			</g>
			<g>
				<line style="fill:none;stroke:#F18E2A;stroke-width:0.25;" x1="134.517" y1="67.781" x2="134.517" y2="96.129"/>
			</g>
			<g>
				<line style="fill:none;stroke:#F18E2A;stroke-width:0.25;" x1="128.849" y1="67.781" x2="128.849" y2="96.129"/>
			</g>
			<g>
				<line style="fill:none;stroke:#F18E2A;stroke-width:0.25;" x1="123.18" y1="67.781" x2="123.18" y2="96.129"/>
			</g>
			<g>
				<line style="fill:none;stroke:#F18E2A;stroke-width:0.25;" x1="117.511" y1="67.781" x2="117.511" y2="96.129"/>
			</g>
			<g>
				<line style="fill:none;stroke:#F18E2A;stroke-width:0.25;" x1="111.843" y1="67.781" x2="111.843" y2="96.129"/>
			</g>
			<g>
				<line style="fill:none;stroke:#F18E2A;stroke-width:0.25;" x1="106.174" y1="67.781" x2="106.174" y2="96.129"/>
			</g>
			<g>
				<line style="fill:none;stroke:#F18E2A;stroke-width:0.25;" x1="100.505" y1="67.781" x2="100.505" y2="96.129"/>
			</g>
			<g>
				<line style="fill:none;stroke:#F18E2A;stroke-width:0.25;" x1="94.836" y1="67.781" x2="94.836" y2="96.129"/>
			</g>
			<g>
				<line style="fill:none;stroke:#F18E2A;stroke-width:0.25;" x1="89.167" y1="67.781" x2="89.167" y2="96.129"/>
			</g>
			<g>
				<line style="fill:none;stroke:#F18E2A;stroke-width:0.25;" x1="83.498" y1="67.781" x2="83.498" y2="96.129"/>
			</g>
		</g>
	</g>
	<g>
		<g>
			<g>
				<line style="fill:none;stroke:#F18E2A;stroke-width:0.25;" x1="228.056" y1="50.773" x2="228.056" y2="79.121"/>
			</g>
			<g>
				<line style="fill:none;stroke:#F18E2A;stroke-width:0.25;" x1="222.387" y1="50.773" x2="222.387" y2="79.121"/>
			</g>
			<g>
				<line style="fill:none;stroke:#F18E2A;stroke-width:0.25;" x1="216.719" y1="50.773" x2="216.719" y2="79.121"/>
			</g>
			<g>
				<line style="fill:none;stroke:#F18E2A;stroke-width:0.25;" x1="211.05" y1="50.773" x2="211.05" y2="79.121"/>
			</g>
			<g>
				<line style="fill:none;stroke:#F18E2A;stroke-width:0.25;" x1="205.381" y1="50.773" x2="205.381" y2="79.121"/>
			</g>
			<g>
				<line style="fill:none;stroke:#F18E2A;stroke-width:0.25;" x1="199.712" y1="50.773" x2="199.712" y2="79.121"/>
			</g>
			<g>
				<line style="fill:none;stroke:#F18E2A;stroke-width:0.25;" x1="194.043" y1="50.773" x2="194.043" y2="79.121"/>
			</g>
			<g>
				<line style="fill:none;stroke:#F18E2A;stroke-width:0.25;" x1="188.374" y1="50.773" x2="188.374" y2="79.121"/>
			</g>
			<g>
				<line style="fill:none;stroke:#F18E2A;stroke-width:0.25;" x1="182.705" y1="50.773" x2="182.705" y2="79.121"/>
			</g>
			<g>
				<line style="fill:none;stroke:#F18E2A;stroke-width:0.25;" x1="177.036" y1="50.773" x2="177.036" y2="79.121"/>
			</g>
			<g>
				<line style="fill:none;stroke:#F18E2A;stroke-width:0.25;" x1="171.367" y1="50.773" x2="171.367" y2="79.121"/>
			</g>
			<g>
				<line style="fill:none;stroke:#F18E2A;stroke-width:0.25;" x1="165.698" y1="50.773" x2="165.698" y2="79.121"/>
			</g>
			<g>
				<line style="fill:none;stroke:#F18E2A;stroke-width:0.25;" x1="160.029" y1="50.773" x2="160.029" y2="79.121"/>
			</g>
			<g>
				<line style="fill:none;stroke:#F18E2A;stroke-width:0.25;" x1="154.359" y1="50.773" x2="154.359" y2="79.121"/>
			</g>
			<g>
				<line style="fill:none;stroke:#F18E2A;stroke-width:0.25;" x1="148.69" y1="50.773" x2="148.69" y2="79.121"/>
			</g>
			<g>
				<line style="fill:none;stroke:#F18E2A;stroke-width:0.25;" x1="143.021" y1="50.773" x2="143.021" y2="79.121"/>
			</g>
			<g>
				<line style="fill:none;stroke:#F18E2A;stroke-width:0.25;" x1="137.352" y1="50.773" x2="137.352" y2="79.121"/>
			</g>
			<g>
				<line style="fill:none;stroke:#F18E2A;stroke-width:0.25;" x1="131.684" y1="50.773" x2="131.684" y2="79.121"/>
			</g>
			<g>
				<line style="fill:none;stroke:#F18E2A;stroke-width:0.25;" x1="126.015" y1="50.773" x2="126.015" y2="79.121"/>
			</g>
			<g>
				<line style="fill:none;stroke:#F18E2A;stroke-width:0.25;" x1="120.346" y1="50.773" x2="120.346" y2="79.121"/>
			</g>
			<g>
				<line style="fill:none;stroke:#F18E2A;stroke-width:0.25;" x1="114.677" y1="50.773" x2="114.677" y2="79.121"/>
			</g>
			<g>
				<line style="fill:none;stroke:#F18E2A;stroke-width:0.25;" x1="109.009" y1="50.773" x2="109.009" y2="79.121"/>
			</g>
			<g>
				<line style="fill:none;stroke:#F18E2A;stroke-width:0.25;" x1="103.34" y1="50.773" x2="103.34" y2="79.121"/>
			</g>
			<g>
				<line style="fill:none;stroke:#F18E2A;stroke-width:0.25;" x1="97.671" y1="50.773" x2="97.671" y2="79.121"/>
			</g>
			<g>
				<line style="fill:none;stroke:#F18E2A;stroke-width:0.25;" x1="92.002" y1="50.773" x2="92.002" y2="79.121"/>
			</g>
			<g>
				<line style="fill:none;stroke:#F18E2A;stroke-width:0.25;" x1="86.333" y1="50.773" x2="86.333" y2="79.121"/>
			</g>
		</g>
		<g>
			<g>
				<line style="fill:none;stroke:#F18E2A;stroke-width:0.25;" x1="225.221" y1="33.766" x2="225.221" y2="62.113"/>
			</g>
			<g>
				<line style="fill:none;stroke:#F18E2A;stroke-width:0.25;" x1="219.552" y1="33.766" x2="219.552" y2="62.113"/>
			</g>
			<g>
				<line style="fill:none;stroke:#F18E2A;stroke-width:0.25;" x1="213.884" y1="33.766" x2="213.884" y2="62.113"/>
			</g>
			<g>
				<line style="fill:none;stroke:#F18E2A;stroke-width:0.25;" x1="208.215" y1="33.766" x2="208.215" y2="62.113"/>
			</g>
			<g>
				<line style="fill:none;stroke:#F18E2A;stroke-width:0.25;" x1="202.546" y1="33.766" x2="202.546" y2="62.113"/>
			</g>
			<g>
				<line style="fill:none;stroke:#F18E2A;stroke-width:0.25;" x1="196.877" y1="33.766" x2="196.877" y2="62.113"/>
			</g>
			<g>
				<line style="fill:none;stroke:#F18E2A;stroke-width:0.25;" x1="191.208" y1="33.766" x2="191.208" y2="62.113"/>
			</g>
			<g>
				<line style="fill:none;stroke:#F18E2A;stroke-width:0.25;" x1="185.539" y1="33.766" x2="185.539" y2="62.113"/>
			</g>
			<g>
				<line style="fill:none;stroke:#F18E2A;stroke-width:0.25;" x1="179.87" y1="33.766" x2="179.87" y2="62.113"/>
			</g>
			<g>
				<line style="fill:none;stroke:#F18E2A;stroke-width:0.25;" x1="174.201" y1="33.766" x2="174.201" y2="62.113"/>
			</g>
			<g>
				<line style="fill:none;stroke:#F18E2A;stroke-width:0.25;" x1="168.532" y1="33.766" x2="168.532" y2="62.113"/>
			</g>
			<g>
				<line style="fill:none;stroke:#F18E2A;stroke-width:0.25;" x1="162.863" y1="33.766" x2="162.863" y2="62.113"/>
			</g>
			<g>
				<line style="fill:none;stroke:#F18E2A;stroke-width:0.25;" x1="157.193" y1="33.766" x2="157.193" y2="62.113"/>
			</g>
			<g>
				<line style="fill:none;stroke:#F18E2A;stroke-width:0.25;" x1="151.524" y1="33.766" x2="151.524" y2="62.113"/>
			</g>
			<g>
				<line style="fill:none;stroke:#F18E2A;stroke-width:0.25;" x1="145.855" y1="33.766" x2="145.855" y2="62.113"/>
			</g>
			<g>
				<line style="fill:none;stroke:#F18E2A;stroke-width:0.25;" x1="140.186" y1="33.766" x2="140.186" y2="62.113"/>
			</g>
			<g>
				<line style="fill:none;stroke:#F18E2A;stroke-width:0.25;" x1="134.517" y1="33.766" x2="134.517" y2="62.113"/>
			</g>
			<g>
				<line style="fill:none;stroke:#F18E2A;stroke-width:0.25;" x1="128.849" y1="33.766" x2="128.849" y2="62.113"/>
			</g>
			<g>
				<line style="fill:none;stroke:#F18E2A;stroke-width:0.25;" x1="123.18" y1="33.766" x2="123.18" y2="62.113"/>
			</g>
			<g>
				<line style="fill:none;stroke:#F18E2A;stroke-width:0.25;" x1="117.511" y1="33.766" x2="117.511" y2="62.113"/>
			</g>
			<g>
				<line style="fill:none;stroke:#F18E2A;stroke-width:0.25;" x1="111.843" y1="33.766" x2="111.843" y2="62.113"/>
			</g>
			<g>
				<line style="fill:none;stroke:#F18E2A;stroke-width:0.25;" x1="106.174" y1="33.766" x2="106.174" y2="62.113"/>
			</g>
			<g>
				<line style="fill:none;stroke:#F18E2A;stroke-width:0.25;" x1="100.505" y1="33.766" x2="100.505" y2="62.113"/>
			</g>
			<g>
				<line style="fill:none;stroke:#F18E2A;stroke-width:0.25;" x1="94.836" y1="33.766" x2="94.836" y2="62.113"/>
			</g>
			<g>
				<line style="fill:none;stroke:#F18E2A;stroke-width:0.25;" x1="89.167" y1="33.766" x2="89.167" y2="62.113"/>
			</g>
			<g>
				<line style="fill:none;stroke:#F18E2A;stroke-width:0.25;" x1="83.498" y1="33.766" x2="83.498" y2="62.113"/>
			</g>
		</g>
	</g>
	<g>
		<g>
			<g>
				<line style="fill:none;stroke:#F18E2A;stroke-width:0.25;" x1="228.056" y1="16.758" x2="228.056" y2="45.105"/>
			</g>
			<g>
				<line style="fill:none;stroke:#F18E2A;stroke-width:0.25;" x1="222.387" y1="16.758" x2="222.387" y2="45.105"/>
			</g>
			<g>
				<line style="fill:none;stroke:#F18E2A;stroke-width:0.25;" x1="216.719" y1="16.758" x2="216.719" y2="45.105"/>
			</g>
			<g>
				<line style="fill:none;stroke:#F18E2A;stroke-width:0.25;" x1="211.05" y1="16.758" x2="211.05" y2="45.105"/>
			</g>
			<g>
				<line style="fill:none;stroke:#F18E2A;stroke-width:0.25;" x1="205.381" y1="16.758" x2="205.381" y2="45.105"/>
			</g>
			<g>
				<line style="fill:none;stroke:#F18E2A;stroke-width:0.25;" x1="199.712" y1="16.758" x2="199.712" y2="45.105"/>
			</g>
			<g>
				<line style="fill:none;stroke:#F18E2A;stroke-width:0.25;" x1="194.043" y1="16.758" x2="194.043" y2="45.105"/>
			</g>
			<g>
				<line style="fill:none;stroke:#F18E2A;stroke-width:0.25;" x1="188.374" y1="16.758" x2="188.374" y2="45.105"/>
			</g>
			<g>
				<line style="fill:none;stroke:#F18E2A;stroke-width:0.25;" x1="182.705" y1="16.758" x2="182.705" y2="45.105"/>
			</g>
			<g>
				<line style="fill:none;stroke:#F18E2A;stroke-width:0.25;" x1="177.036" y1="16.758" x2="177.036" y2="45.105"/>
			</g>
			<g>
				<line style="fill:none;stroke:#F18E2A;stroke-width:0.25;" x1="171.367" y1="16.758" x2="171.367" y2="45.105"/>
			</g>
			<g>
				<line style="fill:none;stroke:#F18E2A;stroke-width:0.25;" x1="165.698" y1="16.758" x2="165.698" y2="45.105"/>
			</g>
			<g>
				<line style="fill:none;stroke:#F18E2A;stroke-width:0.25;" x1="160.029" y1="16.758" x2="160.029" y2="45.105"/>
			</g>
			<g>
				<line style="fill:none;stroke:#F18E2A;stroke-width:0.25;" x1="154.359" y1="16.758" x2="154.359" y2="45.105"/>
			</g>
			<g>
				<line style="fill:none;stroke:#F18E2A;stroke-width:0.25;" x1="148.69" y1="16.758" x2="148.69" y2="45.105"/>
			</g>
			<g>
				<line style="fill:none;stroke:#F18E2A;stroke-width:0.25;" x1="143.021" y1="16.758" x2="143.021" y2="45.105"/>
			</g>
			<g>
				<line style="fill:none;stroke:#F18E2A;stroke-width:0.25;" x1="137.352" y1="16.758" x2="137.352" y2="45.105"/>
			</g>
			<g>
				<line style="fill:none;stroke:#F18E2A;stroke-width:0.25;" x1="131.684" y1="16.758" x2="131.684" y2="45.105"/>
			</g>
			<g>
				<line style="fill:none;stroke:#F18E2A;stroke-width:0.25;" x1="126.015" y1="16.758" x2="126.015" y2="45.105"/>
			</g>
			<g>
				<line style="fill:none;stroke:#F18E2A;stroke-width:0.25;" x1="120.346" y1="16.758" x2="120.346" y2="45.105"/>
			</g>
			<g>
				<line style="fill:none;stroke:#F18E2A;stroke-width:0.25;" x1="114.677" y1="16.758" x2="114.677" y2="45.105"/>
			</g>
			<g>
				<line style="fill:none;stroke:#F18E2A;stroke-width:0.25;" x1="109.009" y1="16.758" x2="109.009" y2="45.105"/>
			</g>
			<g>
				<line style="fill:none;stroke:#F18E2A;stroke-width:0.25;" x1="103.34" y1="16.758" x2="103.34" y2="45.105"/>
			</g>
			<g>
				<line style="fill:none;stroke:#F18E2A;stroke-width:0.25;" x1="97.671" y1="16.758" x2="97.671" y2="45.105"/>
			</g>
			<g>
				<line style="fill:none;stroke:#F18E2A;stroke-width:0.25;" x1="92.002" y1="16.758" x2="92.002" y2="45.105"/>
			</g>
			<g>
				<line style="fill:none;stroke:#F18E2A;stroke-width:0.25;" x1="86.333" y1="16.758" x2="86.333" y2="45.105"/>
			</g>
		</g>
		<g>
			<g>
				<line style="fill:none;stroke:#F18E2A;stroke-width:0.25;" x1="225.221" y1="-0.25" x2="225.221" y2="28.098"/>
			</g>
			<g>
				<line style="fill:none;stroke:#F18E2A;stroke-width:0.25;" x1="219.552" y1="-0.25" x2="219.552" y2="28.098"/>
			</g>
			<g>
				<line style="fill:none;stroke:#F18E2A;stroke-width:0.25;" x1="213.884" y1="-0.25" x2="213.884" y2="28.098"/>
			</g>
			<g>
				<line style="fill:none;stroke:#F18E2A;stroke-width:0.25;" x1="208.215" y1="-0.25" x2="208.215" y2="28.098"/>
			</g>
			<g>
				<line style="fill:none;stroke:#F18E2A;stroke-width:0.25;" x1="202.546" y1="-0.25" x2="202.546" y2="28.098"/>
			</g>
			<g>
				<line style="fill:none;stroke:#F18E2A;stroke-width:0.25;" x1="196.877" y1="-0.25" x2="196.877" y2="28.098"/>
			</g>
			<g>
				<line style="fill:none;stroke:#F18E2A;stroke-width:0.25;" x1="191.208" y1="-0.25" x2="191.208" y2="28.098"/>
			</g>
			<g>
				<line style="fill:none;stroke:#F18E2A;stroke-width:0.25;" x1="185.539" y1="-0.25" x2="185.539" y2="28.098"/>
			</g>
			<g>
				<line style="fill:none;stroke:#F18E2A;stroke-width:0.25;" x1="179.87" y1="-0.25" x2="179.87" y2="28.098"/>
			</g>
			<g>
				<line style="fill:none;stroke:#F18E2A;stroke-width:0.25;" x1="174.201" y1="-0.25" x2="174.201" y2="28.098"/>
			</g>
			<g>
				<line style="fill:none;stroke:#F18E2A;stroke-width:0.25;" x1="168.532" y1="-0.25" x2="168.532" y2="28.098"/>
			</g>
			<g>
				<line style="fill:none;stroke:#F18E2A;stroke-width:0.25;" x1="162.863" y1="-0.25" x2="162.863" y2="28.098"/>
			</g>
			<g>
				<line style="fill:none;stroke:#F18E2A;stroke-width:0.25;" x1="157.193" y1="-0.25" x2="157.193" y2="28.098"/>
			</g>
			<g>
				<line style="fill:none;stroke:#F18E2A;stroke-width:0.25;" x1="151.524" y1="-0.25" x2="151.524" y2="28.098"/>
			</g>
			<g>
				<line style="fill:none;stroke:#F18E2A;stroke-width:0.25;" x1="145.855" y1="-0.25" x2="145.855" y2="28.098"/>
			</g>
			<g>
				<line style="fill:none;stroke:#F18E2A;stroke-width:0.25;" x1="140.186" y1="-0.25" x2="140.186" y2="28.098"/>
			</g>
			<g>
				<line style="fill:none;stroke:#F18E2A;stroke-width:0.25;" x1="134.517" y1="-0.25" x2="134.517" y2="28.098"/>
			</g>
			<g>
				<line style="fill:none;stroke:#F18E2A;stroke-width:0.25;" x1="128.849" y1="-0.25" x2="128.849" y2="28.098"/>
			</g>
			<g>
				<line style="fill:none;stroke:#F18E2A;stroke-width:0.25;" x1="123.18" y1="-0.25" x2="123.18" y2="28.098"/>
			</g>
			<g>
				<line style="fill:none;stroke:#F18E2A;stroke-width:0.25;" x1="117.511" y1="-0.25" x2="117.511" y2="28.098"/>
			</g>
			<g>
				<line style="fill:none;stroke:#F18E2A;stroke-width:0.25;" x1="111.843" y1="-0.25" x2="111.843" y2="28.098"/>
			</g>
			<g>
				<line style="fill:none;stroke:#F18E2A;stroke-width:0.25;" x1="106.174" y1="-0.25" x2="106.174" y2="28.098"/>
			</g>
			<g>
				<line style="fill:none;stroke:#F18E2A;stroke-width:0.25;" x1="100.505" y1="-0.25" x2="100.505" y2="28.098"/>
			</g>
			<g>
				<line style="fill:none;stroke:#F18E2A;stroke-width:0.25;" x1="94.836" y1="-0.25" x2="94.836" y2="28.098"/>
			</g>
			<g>
				<line style="fill:none;stroke:#F18E2A;stroke-width:0.25;" x1="89.167" y1="-0.25" x2="89.167" y2="28.098"/>
			</g>
			<g>
				<line style="fill:none;stroke:#F18E2A;stroke-width:0.25;" x1="83.498" y1="-0.25" x2="83.498" y2="28.098"/>
			</g>
		</g>
	</g>
</g>
</svg>
