<?xml version="1.0" encoding="iso-8859-1"?>
<!-- Generator: Adobe Illustrator 13.0.2, SVG Export Plug-In . SVG Version: 6.00 Build 14948)  -->
<!DOCTYPE svg PUBLIC "-//W3C//DTD SVG 1.1//EN" "http://www.w3.org/Graphics/SVG/1.1/DTD/svg11.dtd">
<svg version="1.1" id="Ebene_1" xmlns="http://www.w3.org/2000/svg" xmlns:xlink="http://www.w3.org/1999/xlink" x="0px" y="0px"
	 width="354.327px" height="283.463px" viewBox="169.765 61.119 354.327 283.463"
	 style="enable-background:new 169.765 61.119 354.327 283.463;" xml:space="preserve">
<g>
	<rect x="182.242" y="74.5" style="fill:none;stroke:#000000;stroke-width:0.5;" width="195.087" height="85.039"/>
	<rect x="185.927" y="129.777" style="fill:none;stroke:#000000;stroke-width:0.5;" width="8.504" height="14.173"/>
	<rect x="185.927" y="90.092" style="fill:none;stroke:#000000;stroke-width:0.5;" width="8.504" height="14.173"/>
	<rect x="365.254" y="129.777" style="fill:none;stroke:#000000;stroke-width:0.5;" width="8.506" height="14.173"/>
	<rect x="365.254" y="90.092" style="fill:none;stroke:#000000;stroke-width:0.5;" width="8.506" height="14.173"/>
</g>
<g>
	<polyline style="fill:none;stroke:#000000;stroke-width:0.5;" points="377.329,244.579 182.242,244.579 182.242,159.54 	"/>
	<rect x="185.927" y="214.816" style="fill:none;stroke:#000000;stroke-width:0.5;" width="8.504" height="14.173"/>
	<rect x="186.494" y="175.132" style="fill:none;stroke:#000000;stroke-width:0.5;" width="8.504" height="14.173"/>
	<rect x="365.254" y="214.816" style="fill:none;stroke:#000000;stroke-width:0.5;" width="8.506" height="14.173"/>
	<rect x="365.254" y="175.132" style="fill:none;stroke:#000000;stroke-width:0.5;" width="8.506" height="14.173"/>
</g>
<g>
	<line style="fill:none;stroke:#000000;stroke-width:0.5;" x1="426.354" y1="258.74" x2="396.23" y2="258.74"/>
	<line style="fill:none;stroke:#000000;stroke-width:0.5;" x1="377.332" y1="88.664" x2="384.079" y2="88.664"/>
	<line style="fill:none;stroke:#000000;stroke-width:0.5;" x1="445.362" y1="258.74" x2="438.508" y2="258.74"/>
	<path style="fill:none;stroke:#000000;stroke-width:0.5;" d="M438.508,88.664c4.149,0,6.854,0,6.854,0"/>
	<path style="fill:none;stroke:#000000;stroke-width:0.5;" d="M396.23,88.664c5.643,0,23.818,0,30.122,0"/>
	<path style="fill:none;stroke:#000000;stroke-width:0.5;" d="M438.572,108.725V79.869l3.092,0.004
		c-0.677-2.505-1.418-4.289-2.921-4.319h-3.854v33.19c0,1.32-1.07,2.413-2.396,2.413c-1.321,0-2.396-1.093-2.396-2.413l-0.002-33.19
		h-3.854c-1.502,0.03-2.244,1.814-2.921,4.319l3.093-0.004v28.856"/>
	<path style="fill:none;stroke:#000000;stroke-width:0.5;" d="M384.078,108.725V79.869l-3.092,0.004
		c0.677-2.505,1.418-4.289,2.921-4.319h3.854v33.19c0,1.32,1.07,2.413,2.396,2.413c1.321,0,2.396-1.093,2.396-2.413l0.002-33.19
		h3.854c1.502,0.03,2.244,1.814,2.921,4.319l-3.093-0.004v28.856"/>
	<path style="fill:none;stroke:#000000;stroke-width:0.5;" d="M438.572,238.68v28.855l3.092-0.004
		c-0.677,2.506-1.418,4.289-2.921,4.318h-3.854v-33.186c0-1.322-1.07-2.413-2.396-2.413c-1.321,0-2.396,1.091-2.396,2.413
		l-0.002,33.186h-3.854c-1.502-0.029-2.244-1.812-2.921-4.318l3.093,0.004V238.68"/>
	<path style="fill:none;stroke:#000000;stroke-width:0.5;" d="M384.078,238.68v28.855l-3.092-0.004
		c0.677,2.506,1.418,4.289,2.921,4.318h3.854v-33.186c0-1.322,1.07-2.413,2.396-2.413c1.321,0,2.396,1.091,2.396,2.413l0.002,33.186
		h3.854c1.502-0.029,2.244-1.812,2.921-4.318l-3.093,0.004V238.68"/>
</g>
<g>
	<line style="fill:none;stroke:#000000;stroke-width:0.5;" x1="494.384" y1="258.74" x2="464.262" y2="258.74"/>
	<polyline style="fill:none;stroke:#000000;stroke-width:0.5;" points="452.108,258.74 445.362,258.74 445.362,88.664 
		452.109,88.664 	"/>
	<path style="fill:none;stroke:#000000;stroke-width:0.5;" d="M506.537,88.664c4.15,0,6.854,0,6.854,0V258.74h-6.854"/>
	<path style="fill:none;stroke:#000000;stroke-width:0.5;" d="M464.262,88.664c5.644,0,23.82,0,30.122,0"/>
	<path style="fill:none;stroke:#000000;stroke-width:0.5;" d="M506.604,108.725V79.869l3.092,0.004
		c-0.678-2.505-1.418-4.289-2.92-4.319h-3.855v33.19c0,1.32-1.071,2.413-2.395,2.413c-1.322,0-2.396-1.093-2.396-2.413l-0.001-33.19
		h-3.854c-1.502,0.03-2.244,1.814-2.922,4.319l3.094-0.004v28.856"/>
	<path style="fill:none;stroke:#000000;stroke-width:0.5;" d="M452.109,108.725V79.869l-3.091,0.004
		c0.676-2.505,1.418-4.289,2.92-4.319h3.854v33.19c0,1.32,1.07,2.413,2.396,2.413c1.321,0,2.396-1.093,2.396-2.413v-33.19h3.855
		c1.502,0.03,2.245,1.814,2.921,4.319l-3.092-0.004v28.856"/>
	<path style="fill:none;stroke:#000000;stroke-width:0.5;" d="M506.604,238.68v28.855l3.092-0.004
		c-0.678,2.506-1.418,4.289-2.92,4.318h-3.855v-33.186c0-1.322-1.071-2.413-2.395-2.413c-1.322,0-2.396,1.091-2.396,2.413
		l-0.001,33.186h-3.854c-1.502-0.029-2.244-1.812-2.922-4.318l3.094,0.004V238.68"/>
	<path style="fill:none;stroke:#000000;stroke-width:0.5;" d="M452.109,238.68v28.855l-3.091-0.004
		c0.676,2.506,1.418,4.289,2.92,4.318h3.854v-33.186c0-1.322,1.07-2.413,2.396-2.413c1.321,0,2.396,1.091,2.396,2.413v33.186h3.855
		c1.502-0.029,2.245-1.812,2.921-4.318l-3.092,0.004V238.68"/>
</g>
<g>
	<g>
		<line style="fill:none;stroke:#000000;stroke-width:0.5;" x1="196.584" y1="300.499" x2="196.584" y2="273.009"/>
		<polyline style="fill:none;stroke:#000000;stroke-width:0.5;" points="264.616,312.634 264.616,329.617 196.584,329.617 
			196.584,312.634 		"/>
		<line style="fill:none;stroke:#000000;stroke-width:0.5;" x1="264.616" y1="273.043" x2="264.616" y2="300.499"/>
		<line style="fill:none;stroke:#000000;stroke-width:0.5;" x1="264.616" y1="244.578" x2="264.616" y2="260.817"/>
		<line style="fill:none;stroke:#000000;stroke-width:0.5;" x1="196.584" y1="260.849" x2="196.584" y2="244.578"/>
	</g>
	<path style="fill:none;stroke:#000000;stroke-width:0.5;" d="M216.607,260.849h-28.859l0.004-3.091
		c-2.505,0.676-4.289,1.419-4.319,2.921v3.855l33.19-0.002c1.322,0,2.413,1.07,2.413,2.396s-1.091,2.396-2.413,2.396h-33.19v3.855
		c0.03,1.502,1.814,2.245,4.319,2.921l-0.004-3.091h28.858"/>
	<path style="fill:none;stroke:#000000;stroke-width:0.5;" d="M244.248,260.849h28.857l-0.004-3.091
		c2.506,0.676,4.289,1.419,4.319,2.921v3.855l-33.19-0.002c-1.321,0-2.412,1.07-2.412,2.396s1.091,2.396,2.412,2.396h33.19v3.855
		c-0.03,1.502-1.813,2.245-4.319,2.921l0.004-3.091h-28.857"/>
	<path style="fill:none;stroke:#000000;stroke-width:0.5;" d="M216.607,312.663h-28.859l0.004,3.092
		c-2.505-0.676-4.289-1.418-4.319-2.92v-3.855h33.19c1.322,0,2.413-1.07,2.413-2.395s-1.091-2.396-2.413-2.396l-33.19-0.001v-3.854
		c0.03-1.502,1.814-2.244,4.319-2.92l-0.004,3.092h28.858"/>
	<path style="fill:none;stroke:#000000;stroke-width:0.5;" d="M244.248,312.663h28.857l-0.004,3.092
		c2.506-0.676,4.289-1.418,4.319-2.92v-3.855h-33.19c-1.321,0-2.412-1.07-2.412-2.395s1.091-2.396,2.412-2.396l33.19-0.001v-3.854
		c-0.03-1.502-1.813-2.244-4.319-2.92l0.004,3.092h-28.857"/>
	<rect x="202.253" y="316.813" style="fill:none;stroke:#000000;stroke-width:0.5;" width="14.173" height="8.504"/>
	<rect x="244.774" y="316.813" style="fill:none;stroke:#000000;stroke-width:0.5;" width="14.173" height="8.504"/>
	<rect x="202.253" y="248.83" style="fill:none;stroke:#000000;stroke-width:0.5;" width="14.173" height="8.504"/>
	<rect x="244.774" y="248.83" style="fill:none;stroke:#000000;stroke-width:0.5;" width="14.173" height="8.504"/>
</g>
<g>
	<g>
		<line style="fill:none;stroke:#000000;stroke-width:0.5;" x1="293.294" y1="300.499" x2="293.294" y2="273.009"/>
		<polyline style="fill:none;stroke:#000000;stroke-width:0.5;" points="361.317,312.634 361.317,329.617 293.294,329.617 
			293.294,312.634 		"/>
		<line style="fill:none;stroke:#000000;stroke-width:0.5;" x1="361.317" y1="273.043" x2="361.317" y2="300.499"/>
		<line style="fill:none;stroke:#000000;stroke-width:0.5;" x1="361.317" y1="244.578" x2="361.317" y2="260.817"/>
		<line style="fill:none;stroke:#000000;stroke-width:0.5;" x1="293.294" y1="260.849" x2="293.294" y2="244.578"/>
	</g>
	<path style="fill:none;stroke:#000000;stroke-width:0.5;" d="M313.309,260.849h-28.842l0.005-3.091
		c-2.506,0.676-4.289,1.419-4.319,2.921v3.855l33.175-0.002c1.322,0,2.412,1.07,2.412,2.396s-1.09,2.396-2.412,2.396h-33.177v3.855
		c0.03,1.502,1.813,2.245,4.319,2.921l-0.005-3.091h28.843"/>
	<path style="fill:none;stroke:#000000;stroke-width:0.5;" d="M340.949,260.849h28.859l-0.006-3.091
		c2.506,0.676,4.289,1.419,4.318,2.921v3.855l-33.188-0.002c-1.322,0-2.414,1.07-2.414,2.396s1.092,2.396,2.414,2.396h33.188v3.855
		c-0.029,1.502-1.812,2.245-4.318,2.921l0.006-3.091h-28.859"/>
	<path style="fill:none;stroke:#000000;stroke-width:0.5;" d="M313.309,312.663h-28.842l0.005,3.092
		c-2.506-0.676-4.289-1.418-4.319-2.92v-3.855h33.175c1.322,0,2.412-1.07,2.412-2.395s-1.09-2.396-2.412-2.396l-33.175-0.001v-3.854
		c0.03-1.502,1.813-2.244,4.319-2.92l-0.005,3.092h28.843"/>
	<path style="fill:none;stroke:#000000;stroke-width:0.5;" d="M340.949,312.663h28.859l-0.006,3.092
		c2.506-0.676,4.289-1.418,4.318-2.92v-3.855h-33.188c-1.322,0-2.414-1.07-2.414-2.395s1.092-2.396,2.414-2.396l33.188-0.001v-3.854
		c-0.029-1.502-1.812-2.244-4.318-2.92l0.006,3.092h-28.859"/>
	<rect x="298.955" y="316.813" style="fill:none;stroke:#000000;stroke-width:0.5;" width="14.174" height="8.504"/>
	<rect x="341.476" y="316.813" style="fill:none;stroke:#000000;stroke-width:0.5;" width="14.174" height="8.504"/>
	<rect x="298.955" y="248.83" style="fill:none;stroke:#000000;stroke-width:0.5;" width="14.174" height="8.504"/>
	<rect x="341.476" y="248.83" style="fill:none;stroke:#000000;stroke-width:0.5;" width="14.174" height="8.504"/>
</g>
<polyline style="fill:none;stroke:#000000;stroke-width:0.5;" points="377.329,159.54 377.329,244.579 377.332,258.74 
	384.077,258.74 "/>
</svg>
