  0
SECTION
  2
HEADER
  9
$ACADVER
  1
AC1014
  9
$ACADMAINTVER
 70
     0
  9
$DWGCODEPAGE
  3
ANSI_1252
  9
$INSBASE
 10
0.0
 20
0.0
 30
0.0
  9
$EXTMIN
 10
-0.012816
 20
-0.009063
 30
-0.001526
  9
$EXTMAX
 10
460.003053
 20
260.006425
 30
0.0
  9
$LIMMIN
 10
0.0
 20
0.0
  9
$LIMMAX
 10
420.0
 20
297.0
  9
$ORTHOMODE
 70
     0
  9
$REGENMODE
 70
     1
  9
$FILLMODE
 70
     1
  9
$QTEXTMODE
 70
     0
  9
$MIRRTEXT
 70
     1
  9
$DRAGMODE
 70
     2
  9
$LTSCALE
 40
1.0
  9
$OSMODE
 70
     0
  9
$ATTMODE
 70
     1
  9
$TEXTSIZE
 40
2.5
  9
$TRACEWID
 40
1.0
  9
$TEXTSTYLE
  7
STANDARD
  9
$CLAYER
  8
0
  9
$CELTYPE
  6
BYLAYER
  9
$CECOLOR
 62
   256
  9
$CELTSCALE
 40
1.0
  9
$DELOBJ
 70
     1
  9
$DISPSILH
 70
     0
  9
$DIMSCALE
 40
1.0
  9
$DIMASZ
 40
2.5
  9
$DIMEXO
 40
0.625
  9
$DIMDLI
 40
3.75
  9
$DIMRND
 40
0.0
  9
$DIMDLE
 40
0.0
  9
$DIMEXE
 40
1.25
  9
$DIMTP
 40
0.0
  9
$DIMTM
 40
0.0
  9
$DIMTXT
 40
2.5
  9
$DIMCEN
 40
2.5
  9
$DIMTSZ
 40
0.0
  9
$DIMTOL
 70
     0
  9
$DIMLIM
 70
     0
  9
$DIMTIH
 70
     0
  9
$DIMTOH
 70
     0
  9
$DIMSE1
 70
     0
  9
$DIMSE2
 70
     0
  9
$DIMTAD
 70
     1
  9
$DIMZIN
 70
     8
  9
$DIMBLK
  1

  9
$DIMASO
 70
     1
  9
$DIMSHO
 70
     1
  9
$DIMPOST
  1

  9
$DIMAPOST
  1

  9
$DIMALT
 70
     0
  9
$DIMALTD
 70
     4
  9
$DIMALTF
 40
0.0394
  9
$DIMLFAC
 40
1.0
  9
$DIMTOFL
 70
     1
  9
$DIMTVP
 40
0.0
  9
$DIMTIX
 70
     0
  9
$DIMSOXD
 70
     0
  9
$DIMSAH
 70
     0
  9
$DIMBLK1
  1

  9
$DIMBLK2
  1

  9
$DIMSTYLE
  2
STANDARD
  9
$DIMCLRD
 70
     0
  9
$DIMCLRE
 70
     0
  9
$DIMCLRT
 70
     0
  9
$DIMTFAC
 40
1.0
  9
$DIMGAP
 40
0.625
  9
$DIMJUST
 70
     0
  9
$DIMSD1
 70
     0
  9
$DIMSD2
 70
     0
  9
$DIMTOLJ
 70
     1
  9
$DIMTZIN
 70
     0
  9
$DIMALTZ
 70
     0
  9
$DIMALTTZ
 70
     0
  9
$DIMFIT
 70
     3
  9
$DIMUPT
 70
     0
  9
$DIMUNIT
 70
     8
  9
$DIMDEC
 70
     4
  9
$DIMTDEC
 70
     4
  9
$DIMALTU
 70
     8
  9
$DIMALTTD
 70
     4
  9
$DIMTXSTY
  7
STANDARD
  9
$DIMAUNIT
 70
     0
  9
$LUNITS
 70
     2
  9
$LUPREC
 70
     4
  9
$SKETCHINC
 40
1.0
  9
$FILLETRAD
 40
10.0
  9
$AUNITS
 70
     0
  9
$AUPREC
 70
     0
  9
$MENU
  1
.
  9
$ELEVATION
 40
0.0
  9
$PELEVATION
 40
0.0
  9
$THICKNESS
 40
0.0
  9
$LIMCHECK
 70
     0
  9
$BLIPMODE
 70
     0
  9
$CHAMFERA
 40
10.0
  9
$CHAMFERB
 40
10.0
  9
$CHAMFERC
 40
20.0
  9
$CHAMFERD
 40
0.0
  9
$SKPOLY
 70
     0
  9
$TDCREATE
 40
2453993.462424306
  9
$TDUPDATE
 40
2453993.471010185
  9
$TDINDWG
 40
0.0085858796
  9
$TDUSRTIMER
 40
0.0085858796
  9
$USRTIMER
 70
     1
  9
$ANGBASE
 50
0.0
  9
$ANGDIR
 70
     0
  9
$PDMODE
 70
     0
  9
$PDSIZE
 40
0.0
  9
$PLINEWID
 40
0.0
  9
$COORDS
 70
     1
  9
$SPLFRAME
 70
     0
  9
$SPLINETYPE
 70
     6
  9
$SPLINESEGS
 70
     8
  9
$ATTDIA
 70
     0
  9
$ATTREQ
 70
     1
  9
$HANDLING
 70
     1
  9
$HANDSEED
  5
74
  9
$SURFTAB1
 70
     6
  9
$SURFTAB2
 70
     6
  9
$SURFTYPE
 70
     6
  9
$SURFU
 70
     6
  9
$SURFV
 70
     6
  9
$UCSNAME
  2

  9
$UCSORG
 10
0.0
 20
0.0
 30
0.0
  9
$UCSXDIR
 10
1.0
 20
0.0
 30
0.0
  9
$UCSYDIR
 10
0.0
 20
1.0
 30
0.0
  9
$PUCSNAME
  2

  9
$PUCSORG
 10
0.0
 20
0.0
 30
0.0
  9
$PUCSXDIR
 10
1.0
 20
0.0
 30
0.0
  9
$PUCSYDIR
 10
0.0
 20
1.0
 30
0.0
  9
$USERI1
 70
     0
  9
$USERI2
 70
     0
  9
$USERI3
 70
     0
  9
$USERI4
 70
     0
  9
$USERI5
 70
     0
  9
$USERR1
 40
0.0
  9
$USERR2
 40
0.0
  9
$USERR3
 40
0.0
  9
$USERR4
 40
0.0
  9
$USERR5
 40
0.0
  9
$WORLDVIEW
 70
     1
  9
$SHADEDGE
 70
     3
  9
$SHADEDIF
 70
    70
  9
$TILEMODE
 70
     1
  9
$MAXACTVP
 70
    48
  9
$PINSBASE
 10
0.0
 20
0.0
 30
0.0
  9
$PLIMCHECK
 70
     0
  9
$PEXTMIN
 10
1.000000E+20
 20
1.000000E+20
 30
1.000000E+20
  9
$PEXTMAX
 10
-1.000000E+20
 20
-1.000000E+20
 30
-1.000000E+20
  9
$PLIMMIN
 10
0.0
 20
0.0
  9
$PLIMMAX
 10
420.0
 20
297.0
  9
$UNITMODE
 70
     0
  9
$VISRETAIN
 70
     1
  9
$PLINEGEN
 70
     0
  9
$PSLTSCALE
 70
     1
  9
$TREEDEPTH
 70
  3020
  9
$PICKSTYLE
 70
     1
  9
$CMLSTYLE
  2
STANDARD
  9
$CMLJUST
 70
     0
  9
$CMLSCALE
 40
20.0
  9
$PROXYGRAPHICS
 70
     1
  9
$MEASUREMENT
 70
     1
  0
ENDSEC
  0
SECTION
  2
CLASSES
  0
CLASS
  1
LWPOLYLINE
  2
AcDbPolyline
  3
"AutoCAD"
 90
        0
280
     0
281
     1
  0
CLASS
  1
DICTIONARYVAR
  2
AcDbDictionaryVar
  3
"AutoCAD"
 90
        0
280
     0
281
     0
  0
CLASS
  1
HATCH
  2
AcDbHatch
  3
"ACAD_SEDONA"
 90
        0
280
     0
281
     1
  0
ENDSEC
  0
SECTION
  2
TABLES
  0
TABLE
  2
VPORT
  5
8
100
AcDbSymbolTable
 70
     4
  0
VPORT
  5
73
100
AcDbSymbolTableRecord
100
AcDbViewportTableRecord
  2
*ACTIVE
 70
     0
 10
0.0
 20
0.0
 11
1.0
 21
1.0
 12
229.995118
 22
178.148646
 13
0.0
 23
0.0
 14
10.0
 24
10.0
 15
10.0
 25
10.0
 16
0.0
 26
0.0
 36
1.0
 17
0.0
 27
0.0
 37
0.0
 40
299.676809
 41
1.578711
 42
50.0
 43
0.0
 44
0.0
 50
0.0
 51
0.0
 71
     0
 72
   100
 73
     1
 74
     1
 75
     0
 76
     0
 77
     0
 78
     0
  0
ENDTAB
  0
TABLE
  2
LTYPE
  5
5
100
AcDbSymbolTable
 70
     1
  0
LTYPE
  5
12
100
AcDbSymbolTableRecord
100
AcDbLinetypeTableRecord
  2
BYBLOCK
 70
     0
  3

 72
    65
 73
     0
 40
0.0
  0
LTYPE
  5
13
100
AcDbSymbolTableRecord
100
AcDbLinetypeTableRecord
  2
BYLAYER
 70
     0
  3

 72
    65
 73
     0
 40
0.0
  0
LTYPE
  5
14
100
AcDbSymbolTableRecord
100
AcDbLinetypeTableRecord
  2
CONTINUOUS
 70
     0
  3
Solid line
 72
    65
 73
     0
 40
0.0
  0
ENDTAB
  0
TABLE
  2
LAYER
  5
2
100
AcDbSymbolTable
 70
     1
  0
LAYER
  5
E
100
AcDbSymbolTableRecord
100
AcDbLayerTableRecord
  2
0
 70
     0
 62
     7
  6
CONTINUOUS
  0
ENDTAB
  0
TABLE
  2
STYLE
  5
3
100
AcDbSymbolTable
 70
     1
  0
STYLE
  5
F
100
AcDbSymbolTableRecord
100
AcDbTextStyleTableRecord
  2
STANDARD
 70
     0
 40
0.0
 41
1.0
 50
0.0
 71
     0
 42
2.5
  3
txt
  4

  0
ENDTAB
  0
TABLE
  2
VIEW
  5
6
100
AcDbSymbolTable
 70
     0
  0
ENDTAB
  0
TABLE
  2
UCS
  5
7
100
AcDbSymbolTable
 70
     0
  0
ENDTAB
  0
TABLE
  2
APPID
  5
9
100
AcDbSymbolTable
 70
     1
  0
APPID
  5
10
100
AcDbSymbolTableRecord
100
AcDbRegAppTableRecord
  2
ACAD
 70
     0
  0
ENDTAB
  0
TABLE
  2
DIMSTYLE
  5
A
100
AcDbSymbolTable
 70
     1
  0
DIMSTYLE
105
1D
100
AcDbSymbolTableRecord
100
AcDbDimStyleTableRecord
  2
STANDARD
 70
     0
  3

  4

  5

  6

  7

 40
1.0
 41
0.18
 42
0.0625
 43
0.38
 44
0.18
 45
0.0
 46
0.0
 47
0.0
 48
0.0
140
0.18
141
0.09
142
0.0
143
25.4
144
1.0
145
0.0
146
1.0
147
0.09
 71
     0
 72
     0
 73
     1
 74
     1
 75
     0
 76
     0
 77
     0
 78
     0
170
     0
171
     2
172
     0
173
     0
174
     0
175
     0
176
     0
177
     0
178
     0
270
     2
271
     4
272
     4
273
     2
274
     2
340
F
275
     0
280
     0
281
     0
282
     0
283
     1
284
     0
285
     0
286
     0
287
     3
288
     0
  0
ENDTAB
  0
TABLE
  2
BLOCK_RECORD
  5
1
100
AcDbSymbolTable
 70
     0
  0
BLOCK_RECORD
  5
18
100
AcDbSymbolTableRecord
100
AcDbBlockTableRecord
  2
*MODEL_SPACE
  0
BLOCK_RECORD
  5
15
100
AcDbSymbolTableRecord
100
AcDbBlockTableRecord
  2
*PAPER_SPACE
  0
ENDTAB
  0
ENDSEC
  0
SECTION
  2
BLOCKS
  0
BLOCK
  5
19
100
AcDbEntity
  8
0
100
AcDbBlockBegin
  2
*MODEL_SPACE
 70
     0
 10
0.0
 20
0.0
 30
0.0
  3
*MODEL_SPACE
  1

  0
ENDBLK
  5
1A
100
AcDbEntity
  8
0
100
AcDbBlockEnd
  0
BLOCK
  5
16
100
AcDbEntity
 67
     1
  8
0
100
AcDbBlockBegin
  2
*PAPER_SPACE
 70
     0
 10
0.0
 20
0.0
 30
0.0
  3
*PAPER_SPACE
  1

  0
ENDBLK
  5
17
100
AcDbEntity
 67
     1
  8
0
100
AcDbBlockEnd
  0
ENDSEC
  0
SECTION
  2
ENTITIES
  0
LWPOLYLINE
  5
31
102
{ACAD_REACTORS
330
6D
102
}
100
AcDbEntity
  8
0
100
AcDbPolyline
 90
        4
 70
     1
 43
0.0
 10
0.0
 20
0.0
 10
100.0
 20
0.0
 10
100.0
 20
50.0
 10
0.0
 20
50.0
  0
LWPOLYLINE
  5
41
102
{ACAD_REACTORS
330
62
102
}
100
AcDbEntity
  8
0
100
AcDbPolyline
 90
        4
 70
     1
 43
0.0
 10
0.0
 20
70.0
 10
100.0
 20
70.0
 10
100.0
 20
120.0
 10
0.0
 20
120.0
  0
LWPOLYLINE
  5
42
102
{ACAD_REACTORS
330
5B
102
}
100
AcDbEntity
  8
0
100
AcDbPolyline
 90
        4
 70
     1
 43
0.0
 10
0.0
 20
140.0
 10
100.0
 20
140.0
 10
100.0
 20
190.0
 10
0.0
 20
190.0
  0
LWPOLYLINE
  5
43
102
{ACAD_REACTORS
330
52
102
}
100
AcDbEntity
  8
0
100
AcDbPolyline
 90
        4
 70
     1
 43
0.0
 10
0.0
 20
210.0
 10
100.0
 20
210.0
 10
100.0
 20
260.0
 10
0.0
 20
260.0
  0
LWPOLYLINE
  5
44
102
{ACAD_REACTORS
330
6E
102
}
100
AcDbEntity
  8
0
100
AcDbPolyline
 90
        4
 70
     1
 43
0.0
 10
120.0
 20
0.0
 10
220.0
 20
0.0
 10
220.0
 20
50.0
 10
120.0
 20
50.0
  0
LWPOLYLINE
  5
45
102
{ACAD_REACTORS
330
66
102
}
100
AcDbEntity
  8
0
100
AcDbPolyline
 90
        4
 70
     1
 43
0.0
 10
120.0
 20
70.0
 10
220.0
 20
70.0
 10
220.0
 20
120.0
 10
120.0
 20
120.0
  0
LWPOLYLINE
  5
46
102
{ACAD_REACTORS
330
5C
102
}
100
AcDbEntity
  8
0
100
AcDbPolyline
 90
        4
 70
     1
 43
0.0
 10
120.0
 20
140.0
 10
220.0
 20
140.0
 10
220.0
 20
190.0
 10
120.0
 20
190.0
  0
LWPOLYLINE
  5
47
102
{ACAD_REACTORS
330
53
102
}
100
AcDbEntity
  8
0
100
AcDbPolyline
 90
        4
 70
     1
 43
0.0
 10
120.0
 20
210.0
 10
220.0
 20
210.0
 10
220.0
 20
260.0
 10
120.0
 20
260.0
  0
LWPOLYLINE
  5
48
102
{ACAD_REACTORS
330
70
102
}
100
AcDbEntity
  8
0
100
AcDbPolyline
 90
        4
 70
     1
 43
0.0
 10
240.0
 20
0.0
 10
340.0
 20
0.0
 10
340.0
 20
50.0
 10
240.0
 20
50.0
  0
LWPOLYLINE
  5
49
102
{ACAD_REACTORS
330
68
102
}
100
AcDbEntity
  8
0
100
AcDbPolyline
 90
        4
 70
     1
 43
0.0
 10
240.0
 20
70.0
 10
340.0
 20
70.0
 10
340.0
 20
120.0
 10
240.0
 20
120.0
  0
LWPOLYLINE
  5
4A
102
{ACAD_REACTORS
330
5D
102
}
100
AcDbEntity
  8
0
100
AcDbPolyline
 90
        4
 70
     1
 43
0.0
 10
240.0
 20
140.0
 10
340.0
 20
140.0
 10
340.0
 20
190.0
 10
240.0
 20
190.0
  0
LWPOLYLINE
  5
4B
102
{ACAD_REACTORS
330
54
102
}
100
AcDbEntity
  8
0
100
AcDbPolyline
 90
        4
 70
     1
 43
0.0
 10
240.0
 20
210.0
 10
340.0
 20
210.0
 10
340.0
 20
260.0
 10
240.0
 20
260.0
  0
LWPOLYLINE
  5
4C
102
{ACAD_REACTORS
330
71
102
}
100
AcDbEntity
  8
0
100
AcDbPolyline
 90
        4
 70
     1
 43
0.0
 10
360.0
 20
0.0
 10
460.0
 20
0.0
 10
460.0
 20
50.0
 10
360.0
 20
50.0
  0
LWPOLYLINE
  5
4D
102
{ACAD_REACTORS
330
6B
102
}
100
AcDbEntity
  8
0
100
AcDbPolyline
 90
        4
 70
     1
 43
0.0
 10
360.0
 20
70.0
 10
460.0
 20
70.0
 10
460.0
 20
120.0
 10
360.0
 20
120.0
  0
LWPOLYLINE
  5
4E
102
{ACAD_REACTORS
330
60
102
}
100
AcDbEntity
  8
0
100
AcDbPolyline
 90
        4
 70
     1
 43
0.0
 10
360.0
 20
140.0
 10
460.0
 20
140.0
 10
460.0
 20
190.0
 10
360.0
 20
190.0
  0
LWPOLYLINE
  5
4F
102
{ACAD_REACTORS
330
57
102
}
100
AcDbEntity
  8
0
100
AcDbPolyline
 90
        4
 70
     1
 43
0.0
 10
360.0
 20
210.0
 10
460.0
 20
210.0
 10
460.0
 20
260.0
 10
360.0
 20
260.0
  0
HATCH
  5
52
100
AcDbEntity
  8
0
100
AcDbHatch
 10
0.0
 20
0.0
 30
0.0
210
0.0
220
0.0
230
1.0
  2
ANGLE
 70
     0
 71
     1
 91
        1
 92
        1
 93
        4
 72
     1
 10
0.0
 20
210.0
 11
100.0
 21
210.0
 72
     1
 10
100.0
 20
210.0
 11
100.0
 21
260.0
 72
     1
 10
100.0
 20
260.0
 11
0.0
 21
260.0
 72
     1
 10
0.0
 20
260.0
 11
0.0
 21
210.0
 97
        1
330
43
 75
     0
 76
     1
 52
0.0
 41
1.0
 77
     0
 78
     2
 53
0.0
 43
0.0
 44
0.0
 45
0.0
 46
6.985
 79
     2
 49
5.08
 49
-1.905
 53
90.0
 43
0.0
 44
0.0
 45
-6.985
 46
0.0000000000000004
 79
     2
 49
5.08
 49
-1.905
 98
        1
 10
0.0
 20
0.0
  0
HATCH
  5
53
100
AcDbEntity
  8
0
100
AcDbHatch
 10
0.0
 20
0.0
 30
0.0
210
0.0
220
0.0
230
1.0
  2
ANSI31
 70
     0
 71
     1
 91
        1
 92
        1
 93
        4
 72
     1
 10
120.0
 20
210.0
 11
220.0
 21
210.0
 72
     1
 10
220.0
 20
210.0
 11
220.0
 21
260.0
 72
     1
 10
220.0
 20
260.0
 11
120.0
 21
260.0
 72
     1
 10
120.0
 20
260.0
 11
120.0
 21
210.0
 97
        1
330
47
 75
     0
 76
     1
 52
0.0
 41
1.0
 77
     0
 78
     1
 53
45.0
 43
0.0
 44
0.0
 45
-2.245064030267287
 46
2.245064030267288
 79
     0
 98
        1
 10
0.0
 20
0.0
  0
HATCH
  5
54
100
AcDbEntity
  8
0
100
AcDbHatch
 10
0.0
 20
0.0
 30
0.0
210
0.0
220
0.0
230
1.0
  2
ANSI32
 70
     0
 71
     1
 91
        1
 92
        1
 93
        4
 72
     1
 10
240.0
 20
210.0
 11
340.0
 21
210.0
 72
     1
 10
340.0
 20
210.0
 11
340.0
 21
260.0
 72
     1
 10
340.0
 20
260.0
 11
240.0
 21
260.0
 72
     1
 10
240.0
 20
260.0
 11
240.0
 21
210.0
 97
        1
330
4B
 75
     0
 76
     1
 52
0.0
 41
1.0
 77
     0
 78
     2
 53
45.0
 43
0.0
 44
0.0
 45
-6.735192090801865
 46
6.735192090801866
 79
     0
 53
45.0
 43
4.49013
 44
0.0
 45
-6.735192090801865
 46
6.735192090801866
 79
     0
 98
        1
 10
0.0
 20
0.0
  0
HATCH
  5
57
100
AcDbEntity
  8
0
100
AcDbHatch
 10
0.0
 20
0.0
 30
0.0
210
0.0
220
0.0
230
1.0
  2
ANSI33
 70
     0
 71
     1
 91
        1
 92
        1
 93
        4
 72
     1
 10
360.0
 20
210.0
 11
460.0
 21
210.0
 72
     1
 10
460.0
 20
210.0
 11
460.0
 21
260.0
 72
     1
 10
460.0
 20
260.0
 11
360.0
 21
260.0
 72
     1
 10
360.0
 20
260.0
 11
360.0
 21
210.0
 97
        1
330
4F
 75
     0
 76
     1
 52
0.0
 41
1.0
 77
     0
 78
     2
 53
45.0
 43
0.0
 44
0.0
 45
-4.490128060534575
 46
4.490128060534576
 79
     0
 53
45.0
 43
4.49013
 44
0.0
 45
-4.490128060534575
 46
4.490128060534576
 79
     2
 49
3.175
 49
-1.5875
 98
        1
 10
0.0
 20
0.0
  0
HATCH
  5
5B
100
AcDbEntity
  8
0
100
AcDbHatch
 10
0.0
 20
0.0
 30
0.0
210
0.0
220
0.0
230
1.0
  2
AR-CONC
 70
     0
 71
     1
 91
        1
 92
        1
 93
        4
 72
     1
 10
0.0
 20
140.0
 11
100.0
 21
140.0
 72
     1
 10
100.0
 20
140.0
 11
100.0
 21
190.0
 72
     1
 10
100.0
 20
190.0
 11
0.0
 21
190.0
 72
     1
 10
0.0
 20
190.0
 11
0.0
 21
140.0
 97
        1
330
42
 75
     0
 76
     1
 52
0.0
 41
0.1
 77
     0
 78
    13
 53
50.0
 43
0.0
 44
0.0
 45
18.2184668996004
 46
-1.593908553890308
 79
     2
 49
1.905
 49
-20.955
 53
355.0
 43
0.0
 44
0.0
 45
-3.524282597566699
 46
19.10566428821799
 79
     2
 49
1.524
 49
-16.764
 53
100.451
 43
1.5182
 44
-0.132825
 45
14.69425016659592
 46
17.51166878202918
 79
     2
 49
1.619
 49
-17.809
 53
46.1842
 43
0.0
 44
5.08
 45
27.10790408921299
 46
-4.204232793272715
 79
     2
 49
2.8575
 49
-31.4325
 53
96.6356
 43
2.25899
 44
4.72965
 45
23.74042344662371
 46
24.74255558900492
 79
     2
 49
2.4285
 49
-26.7135
 53
351.184
 43
0.0
 44
5.08
 45
23.74046058139339
 46
24.74251178605976
 79
     2
 49
2.286
 49
-25.146
 53
21.0
 43
2.54
 44
3.81
 45
15.16148798353833
 46
-10.22655185167625
 79
     2
 49
1.905
 49
-20.955
 53
326.0
 43
2.54
 44
3.81
 45
6.180202834764707
 46
18.41879661223192
 79
     2
 49
1.524
 49
-16.764
 53
71.4514
 43
3.80345
 44
2.95779
 45
21.34164907701245
 46
8.192285771605744
 79
     2
 49
1.619
 49
-17.809
 53
37.5
 43
0.0
 44
0.0
 45
0.3088603250591817
 46
8.455503887315311
 79
     6
 49
0.0
 49
-16.5608
 49
0.0
 49
-17.018
 49
0.0
 49
-16.8275
 53
7.5
 43
0.0
 44
0.0
 45
6.681966251030575
 46
10.01805748181195
 79
     6
 49
0.0
 49
-9.7028
 49
0.0
 49
-16.1798
 49
0.0
 49
-6.4135
 53
327.5
 43
-5.6642
 44
0.0
 45
13.55905951668714
 46
-0.5728743992673459
 79
     6
 49
0.0
 49
-6.35
 49
0.0
 49
-19.812
 49
0.0
 49
-26.289
 53
317.5
 43
-8.2042
 44
0.0
 45
14.8129181386018
 46
2.542649103333301
 79
     6
 49
0.0
 49
-8.255
 49
0.0
 49
-13.1572
 49
0.0
 49
-18.669
 98
        1
 10
0.0
 20
0.0
  0
HATCH
  5
5C
100
AcDbEntity
  8
0
100
AcDbHatch
 10
0.0
 20
0.0
 30
0.0
210
0.0
220
0.0
230
1.0
  2
AR-B816
 70
     0
 71
     1
 91
        1
 92
        1
 93
        4
 72
     1
 10
120.0
 20
140.0
 11
220.0
 21
140.0
 72
     1
 10
220.0
 20
140.0
 11
220.0
 21
190.0
 72
     1
 10
220.0
 20
190.0
 11
120.0
 21
190.0
 72
     1
 10
120.0
 20
190.0
 11
120.0
 21
140.0
 97
        1
330
46
 75
     0
 76
     1
 52
0.0
 41
0.1
 77
     0
 78
     2
 53
0.0
 43
0.0
 44
0.0
 45
0.0
 46
20.32
 79
     0
 53
90.0
 43
0.0
 44
0.0
 45
-20.32
 46
20.32
 79
     2
 49
20.32
 49
-20.32
 98
        1
 10
0.0
 20
0.0
  0
HATCH
  5
5D
100
AcDbEntity
  8
0
100
AcDbHatch
 10
0.0
 20
0.0
 30
0.0
210
0.0
220
0.0
230
1.0
  2
AR-PARQ1
 70
     0
 71
     1
 91
        1
 92
        1
 93
        4
 72
     1
 10
240.0
 20
140.0
 11
340.0
 21
140.0
 72
     1
 10
340.0
 20
140.0
 11
340.0
 21
190.0
 72
     1
 10
340.0
 20
190.0
 11
240.0
 21
190.0
 72
     1
 10
240.0
 20
190.0
 11
240.0
 21
140.0
 97
        1
330
4A
 75
     0
 76
     1
 52
0.0
 41
0.1
 77
     0
 78
    14
 53
90.0
 43
0.0
 44
0.0
 45
-30.48
 46
30.48
 79
     2
 49
30.48
 49
-30.48
 53
90.0
 43
5.08
 44
0.0
 45
-30.48
 46
30.48
 79
     2
 49
30.48
 49
-30.48
 53
90.0
 43
10.16
 44
0.0
 45
-30.48
 46
30.48
 79
     2
 49
30.48
 49
-30.48
 53
90.0
 43
15.24
 44
0.0
 45
-30.48
 46
30.48
 79
     2
 49
30.48
 49
-30.48
 53
90.0
 43
20.32
 44
0.0
 45
-30.48
 46
30.48
 79
     2
 49
30.48
 49
-30.48
 53
90.0
 43
25.4
 44
0.0
 45
-30.48
 46
30.48
 79
     2
 49
30.48
 49
-30.48
 53
90.0
 43
30.48
 44
0.0
 45
-30.48
 46
30.48
 79
     2
 49
30.48
 49
-30.48
 53
0.0
 43
0.0
 44
30.48
 45
30.48
 46
-30.48
 79
     2
 49
30.48
 49
-30.48
 53
0.0
 43
0.0
 44
35.56
 45
30.48
 46
-30.48
 79
     2
 49
30.48
 49
-30.48
 53
0.0
 43
0.0
 44
40.64
 45
30.48
 46
-30.48
 79
     2
 49
30.48
 49
-30.48
 53
0.0
 43
0.0
 44
45.72
 45
30.48
 46
-30.48
 79
     2
 49
30.48
 49
-30.48
 53
0.0
 43
0.0
 44
50.8
 45
30.48
 46
-30.48
 79
     2
 49
30.48
 49
-30.48
 53
0.0
 43
0.0
 44
55.88
 45
30.48
 46
-30.48
 79
     2
 49
30.48
 49
-30.48
 53
0.0
 43
0.0
 44
60.96
 45
30.48
 46
-30.48
 79
     2
 49
30.48
 49
-30.48
 98
        1
 10
0.0
 20
0.0
  0
HATCH
  5
60
100
AcDbEntity
  8
0
100
AcDbHatch
 10
0.0
 20
0.0
 30
0.0
210
0.0
220
0.0
230
1.0
  2
AR-RROOF
 70
     0
 71
     1
 91
        1
 92
        1
 93
        4
 72
     1
 10
360.0
 20
140.0
 11
460.0
 21
140.0
 72
     1
 10
460.0
 20
140.0
 11
460.0
 21
190.0
 72
     1
 10
460.0
 20
190.0
 11
360.0
 21
190.0
 72
     1
 10
360.0
 20
190.0
 11
360.0
 21
140.0
 97
        1
330
4E
 75
     0
 76
     1
 52
0.0
 41
0.5
 77
     0
 78
     3
 53
0.0
 43
0.0
 44
0.0
 45
27.94
 46
12.7
 79
     4
 49
190.5
 49
-25.4
 49
63.5
 49
-12.7
 53
0.0
 43
16.891
 44
6.35
 45
-12.7
 46
16.89099999999999
 79
     4
 49
38.1
 49
-4.191
 49
76.2
 49
-9.525
 53
0.0
 43
6.35
 44
10.795
 45
66.04
 46
8.509
 79
     4
 49
101.6
 49
-17.78
 49
50.8
 49
-12.7
 98
        1
 10
0.0
 20
0.0
  0
HATCH
  5
62
100
AcDbEntity
  8
0
100
AcDbHatch
 10
0.0
 20
0.0
 30
0.0
210
0.0
220
0.0
230
1.0
  2
ANSI38
 70
     0
 71
     1
 91
        1
 92
        1
 93
        4
 72
     1
 10
0.0
 20
70.0
 11
100.0
 21
70.0
 72
     1
 10
100.0
 20
70.0
 11
100.0
 21
120.0
 72
     1
 10
100.0
 20
120.0
 11
0.0
 21
120.0
 72
     1
 10
0.0
 20
120.0
 11
0.0
 21
70.0
 97
        1
330
41
 75
     0
 76
     1
 52
0.0
 41
1.0
 77
     0
 78
     2
 53
45.0
 43
0.0
 44
0.0
 45
-2.245064030267287
 46
2.245064030267288
 79
     0
 53
135.0
 43
0.0
 44
0.0
 45
-6.735192090801864
 46
2.245064030267288
 79
     2
 49
7.9375
 49
-4.7625
 98
        1
 10
0.0
 20
0.0
  0
HATCH
  5
66
100
AcDbEntity
  8
0
100
AcDbHatch
 10
0.0
 20
0.0
 30
0.0
210
0.0
220
0.0
230
1.0
  2
AR-RSHKE
 70
     0
 71
     1
 91
        1
 92
        1
 93
        4
 72
     1
 10
120.0
 20
70.0
 11
220.0
 21
70.0
 72
     1
 10
220.0
 20
70.0
 11
220.0
 21
120.0
 72
     1
 10
220.0
 20
120.0
 11
120.0
 21
120.0
 72
     1
 10
120.0
 20
120.0
 11
120.0
 21
70.0
 97
        1
330
45
 75
     0
 76
     1
 52
0.0
 41
0.02
 77
     0
 78
     9
 53
0.0
 43
0.0
 44
0.0
 45
12.954
 46
6.096
 79
     6
 49
3.048
 49
-2.54
 49
3.556
 49
-1.524
 49
4.572
 49
-2.032
 53
0.0
 43
3.048
 44
0.254
 45
12.954
 46
6.096
 79
     4
 49
2.54
 49
-9.652
 49
2.032
 49
-3.048
 53
0.0
 43
9.144
 44
-0.381
 45
12.954
 46
6.096
 79
     2
 49
1.524
 49
-15.748
 53
90.0
 43
0.0
 44
0.0
 45
-4.317999999999999
 46
6.096
 79
     2
 49
5.842
 49
-18.542
 53
90.0
 43
3.048
 44
0.0
 45
-4.317999999999999
 46
6.096
 79
     2
 49
5.715
 49
-18.669
 53
90.0
 43
5.588
 44
0.0
 45
-4.317999999999999
 46
6.096
 79
     2
 49
5.334
 49
-19.05
 53
90.0
 43
9.144
 44
-0.381
 45
-4.317999999999999
 46
6.096
 79
     2
 49
5.842
 49
-18.542
 53
90.0
 43
10.668
 44
-0.381
 45
-4.317999999999999
 46
6.096
 79
     2
 49
5.842
 49
-18.542
 53
90.0
 43
15.24
 44
0.0
 45
-4.317999999999999
 46
6.096
 79
     2
 49
5.588
 49
-18.796
 98
        1
 10
0.0
 20
0.0
  0
HATCH
  5
68
100
AcDbEntity
  8
0
100
AcDbHatch
 10
0.0
 20
0.0
 30
0.0
210
0.0
220
0.0
230
1.0
  2
ESCHER
 70
     0
 71
     1
 91
        1
 92
        1
 93
        4
 72
     1
 10
240.0
 20
70.0
 11
340.0
 21
70.0
 72
     1
 10
340.0
 20
70.0
 11
340.0
 21
120.0
 72
     1
 10
340.0
 20
120.0
 11
240.0
 21
120.0
 72
     1
 10
240.0
 20
120.0
 11
240.0
 21
70.0
 97
        1
330
49
 75
     0
 76
     1
 52
0.0
 41
1.0
 77
     0
 78
    21
 53
60.0
 43
0.0
 44
0.0
 45
-30.48003957099593
 46
0.0000228463251588
 79
     2
 49
27.94
 49
-2.54
 53
180.0
 43
0.0
 44
0.0
 45
15.23999999999999
 46
-26.3965
 79
     2
 49
27.94
 49
-2.54
 53
300.0
 43
0.0
 44
0.0
 45
30.48003957099593
 46
0.0000228463251588
 79
     2
 49
27.94
 49
-2.54
 53
60.0
 43
2.54
 44
0.0
 45
-30.48003957099593
 46
0.0000228463251588
 79
     2
 49
5.08
 49
-25.4
 53
300.0
 43
2.54
 44
0.0
 45
30.48003957099593
 46
0.0000228463251588
 79
     2
 49
5.08
 49
-25.4
 53
60.0
 43
-1.27
 44
2.1997
 45
-30.48003957099593
 46
0.0000228463251588
 79
     2
 49
5.08
 49
-25.4
 53
180.0
 43
-1.27
 44
2.1997
 45
15.23999999999999
 46
-26.3965
 79
     2
 49
5.08
 49
-25.4
 53
300.0
 43
-1.27
 44
-2.1997
 45
30.48003957099593
 46
0.0000228463251588
 79
     2
 49
5.08
 49
-25.4
 53
180.0
 43
-1.27
 44
-2.1997
 45
15.23999999999999
 46
-26.3965
 79
     2
 49
5.08
 49
-25.4
 53
60.0
 43
-10.16
 44
0.0
 45
-30.48003957099593
 46
0.0000228463251588
 79
     2
 49
5.08
 49
-25.4
 53
300.0
 43
-10.16
 44
0.0
 45
30.48003957099593
 46
0.0000228463251588
 79
     2
 49
5.08
 49
-25.4
 53
60.0
 43
5.08
 44
-8.79882
 45
-30.48003957099593
 46
0.0000228463251588
 79
     2
 49
5.08
 49
-25.4
 53
180.0
 43
5.08
 44
-8.79882
 45
15.23999999999999
 46
-26.3965
 79
     2
 49
5.08
 49
-25.4
 53
300.0
 43
5.08
 44
8.79882
 45
30.48003957099593
 46
0.0000228463251588
 79
     2
 49
5.08
 49
-25.4
 53
180.0
 43
5.08
 44
8.79882
 45
15.23999999999999
 46
-26.3965
 79
     2
 49
5.08
 49
-25.4
 53
0.0
 43
5.08
 44
4.39941
 45
-15.24
 46
26.3965
 79
     2
 49
17.78
 49
-12.7
 53
0.0
 43
5.08
 44
-4.39941
 45
-15.24
 46
26.3965
 79
     2
 49
17.78
 49
-12.7
 53
120.0
 43
1.27
 44
6.59911
 45
-30.48003957099593
 46
-0.0000228463251482
 79
     2
 49
17.78
 49
-12.7
 53
120.0
 43
-6.35
 44
2.1997
 45
-30.48003957099593
 46
-0.0000228463251482
 79
     2
 49
17.78
 49
-12.7
 53
240.0
 43
-6.35
 44
-2.1997
 45
15.24003957099592
 46
-26.39647715367485
 79
     2
 49
17.78
 49
-12.7
 53
240.0
 43
1.27
 44
-6.59911
 45
15.24003957099592
 46
-26.39647715367485
 79
     2
 49
17.78
 49
-12.7
 98
        1
 10
0.0
 20
0.0
  0
HATCH
  5
6B
100
AcDbEntity
  8
0
100
AcDbHatch
 10
0.0
 20
0.0
 30
0.0
210
0.0
220
0.0
230
1.0
  2
HONEY
 70
     0
 71
     1
 91
        1
 92
        1
 93
        4
 72
     1
 10
360.0
 20
70.0
 11
460.0
 21
70.0
 72
     1
 10
460.0
 20
70.0
 11
460.0
 21
120.0
 72
     1
 10
460.0
 20
120.0
 11
360.0
 21
120.0
 72
     1
 10
360.0
 20
120.0
 11
360.0
 21
70.0
 97
        1
330
4D
 75
     0
 76
     1
 52
0.0
 41
3.0
 77
     0
 78
     3
 53
0.0
 43
0.0
 44
0.0
 45
14.2875
 46
8.248889999999999
 79
     2
 49
9.525
 49
-19.05
 53
120.0
 43
0.0
 44
0.0
 45
-14.28749829302341
 46
8.248892956570172
 79
     2
 49
9.525
 49
-19.05
 53
60.0
 43
0.0
 44
0.0
 45
0.0000017069765841
 46
16.49778295657016
 79
     2
 49
-19.05
 49
9.525
 98
        1
 10
0.0
 20
0.0
  0
HATCH
  5
6D
100
AcDbEntity
  8
0
100
AcDbHatch
 10
0.0
 20
0.0
 30
0.0
210
0.0
220
0.0
230
1.0
  2
STARS
 70
     0
 71
     1
 91
        1
 92
        1
 93
        4
 72
     1
 10
0.0
 20
0.0
 11
100.0
 21
0.0
 72
     1
 10
100.0
 20
0.0
 11
100.0
 21
50.0
 72
     1
 10
100.0
 20
50.0
 11
0.0
 21
50.0
 72
     1
 10
0.0
 20
50.0
 11
0.0
 21
0.0
 97
        1
330
31
 75
     0
 76
     1
 52
0.0
 41
1.0
 77
     0
 78
     3
 53
0.0
 43
0.0
 44
0.0
 45
0.0
 46
5.499259999999999
 79
     2
 49
3.175
 49
-3.175
 53
60.0
 43
0.0
 44
0.0
 45
-4.762498862015611
 46
2.74963
 79
     2
 49
3.175
 49
-3.175
 53
120.0
 43
1.5875
 44
2.74963
 45
-4.762498862015611
 46
-2.749629999999998
 79
     2
 49
3.175
 49
-3.175
 98
        1
 10
0.0
 20
0.0
  0
HATCH
  5
6E
100
AcDbEntity
  8
0
100
AcDbHatch
 10
0.0
 20
0.0
 30
0.0
210
0.0
220
0.0
230
1.0
  2
ZIGZAG
 70
     0
 71
     1
 91
        1
 92
        1
 93
        4
 72
     1
 10
120.0
 20
0.0
 11
220.0
 21
0.0
 72
     1
 10
220.0
 20
0.0
 11
220.0
 21
50.0
 72
     1
 10
220.0
 20
50.0
 11
120.0
 21
50.0
 72
     1
 10
120.0
 20
50.0
 11
120.0
 21
0.0
 97
        1
330
44
 75
     0
 76
     1
 52
0.0
 41
1.0
 77
     0
 78
     2
 53
0.0
 43
0.0
 44
0.0
 45
3.174999999999999
 46
3.174999999999999
 79
     2
 49
3.175
 49
-3.175
 53
90.0
 43
3.175
 44
0.0
 45
-3.174999999999999
 46
3.174999999999999
 79
     2
 49
3.175
 49
-3.175
 98
        1
 10
0.0
 20
0.0
  0
HATCH
  5
70
100
AcDbEntity
  8
0
100
AcDbHatch
 10
0.0
 20
0.0
 30
0.0
210
0.0
220
0.0
230
1.0
  2
HOUND
 70
     0
 71
     1
 91
        1
 92
        1
 93
        4
 72
     1
 10
240.0
 20
0.0
 11
340.0
 21
0.0
 72
     1
 10
340.0
 20
0.0
 11
340.0
 21
50.0
 72
     1
 10
340.0
 20
50.0
 11
240.0
 21
50.0
 72
     1
 10
240.0
 20
50.0
 11
240.0
 21
0.0
 97
        1
330
48
 75
     0
 76
     1
 52
0.0
 41
2.0
 77
     0
 78
     2
 53
0.0
 43
0.0
 44
0.0
 45
12.7
 46
3.174999999999999
 79
     2
 49
50.8
 49
-25.4
 53
90.0
 43
0.0
 44
0.0
 45
-3.175
 46
-12.7
 79
     2
 49
50.8
 49
-25.4
 98
        1
 10
0.0
 20
0.0
  0
HATCH
  5
71
100
AcDbEntity
  8
0
100
AcDbHatch
 10
0.0
 20
0.0
 30
0.0
210
0.0
220
0.0
230
1.0
  2
NET3
 70
     0
 71
     1
 91
        1
 92
        1
 93
        4
 72
     1
 10
360.0
 20
0.0
 11
460.0
 21
0.0
 72
     1
 10
460.0
 20
0.0
 11
460.0
 21
50.0
 72
     1
 10
460.0
 20
50.0
 11
360.0
 21
50.0
 72
     1
 10
360.0
 20
50.0
 11
360.0
 21
0.0
 97
        1
330
4C
 75
     0
 76
     1
 52
0.0
 41
2.0
 77
     0
 78
     3
 53
0.0
 43
0.0
 44
0.0
 45
0.0
 46
6.349999999999999
 79
     0
 53
60.0
 43
0.0
 44
0.0
 45
-5.499261314031184
 46
3.175
 79
     0
 53
120.0
 43
0.0
 44
0.0
 45
-5.499261314031185
 46
-3.174999999999998
 79
     0
 98
        1
 10
0.0
 20
0.0
  0
ENDSEC
  0
SECTION
  2
OBJECTS
  0
DICTIONARY
  5
C
100
AcDbDictionary
  3
ACAD_GROUP
350
D
  3
ACAD_MLINESTYLE
350
1B
  3
ACDBVARIABLEDICTIONARY
350
50
  0
DICTIONARY
  5
D
102
{ACAD_REACTORS
330
C
102
}
100
AcDbDictionary
  0
DICTIONARY
  5
1B
102
{ACAD_REACTORS
330
C
102
}
100
AcDbDictionary
  3
STANDARD
350
1C
  0
DICTIONARY
  5
50
102
{ACAD_REACTORS
330
C
102
}
100
AcDbDictionary
  3
SORTENTS
350
51
  0
MLINESTYLE
  5
1C
102
{ACAD_REACTORS
330
1B
102
}
100
AcDbMlineStyle
  2
STANDARD
 70
     0
  3

 62
   256
 51
90.0
 52
90.0
 71
     2
 49
0.5
 62
   256
  6
BYLAYER
 49
-0.5
 62
   256
  6
BYLAYER
  0
DICTIONARYVAR
  5
51
102
{ACAD_REACTORS
330
50
102
}
100
DictionaryVariables
280
     0
  1
96
  0
ENDSEC
  0
EOF
