0
SECTION
2
HEADER
9
$ANGBASE
50
0.0
9
$ANGDIR
70
0
9
$AUNITS
70
0
9
$AUPREC
70
4
9
$ATTMODE
70
1
9
$EXTMIN
10
4.5000
20
13.5002
30
0.0000
9
$EXTMAX
10
220.0755
20
296.0007
30
0.0000
9
$ENDCAPS
280
1
9
$FILLMODE
70
1
9
$INSBASE
10
0.0000
20
0.0000
30
0.0000
9
$LIMMIN
10
0.0000
20
0.0000
9
$LIMMAX
10
220.0755
20
296.0007
9
$JOINSTYLE
280
1
9
$LUPREC
70
4
9
$MEASUREMENT
70
0
9
$SPLFRAME
70
1
0
ENDSEC
0
SECTION
2
TABLES
0
TABLE
2
LTYPE
70
1
0
LTYPE
2
CONTINUOUS
70
64
3
CONTINUOUS
72
65
73
0
40
0.0000
0
ENDTAB
0
TABLE
2
LAYER
70
1
0
LAYER
2
OHNE_NAMEN
70
64
62
5
6
CONTINUOUS
0
ENDTAB
0
ENDSEC
0
SECTION
2
BLOCKS
0
ENDSEC
0
SECTION
2
ENTITIES
0
LINE
8
OHNE_NAMEN
6
CONTINUOUS
62
5
39
0.0000
10
4.5670
20
260.9998
11
44.5671
21
261.0002
0
LINE
8
OHNE_NAMEN
6
CONTINUOUS
62
5
39
0.0000
10
50.5661
20
66.5000
11
6.5000
21
66.5000
0
LINE
8
OHNE_NAMEN
6
CONTINUOUS
62
5
39
0.0000
10
4.5670
20
101.9997
11
22.5692
21
101.9993
0
LINE
8
OHNE_NAMEN
6
CONTINUOUS
62
5
39
0.0000
10
22.5692
20
103.9996
11
6.5672
21
103.9996
0
LINE
8
OHNE_NAMEN
6
CONTINUOUS
62
5
39
0.0000
10
6.5672
20
103.9996
11
6.5672
21
128.9999
0
LINE
8
OHNE_NAMEN
6
CONTINUOUS
62
5
39
0.0000
10
6.5672
20
178.9994
11
22.5692
21
178.9994
0
LINE
8
OHNE_NAMEN
6
CONTINUOUS
62
5
39
0.0000
10
22.5692
20
180.9997
11
6.5672
21
180.9997
0
LINE
8
OHNE_NAMEN
6
CONTINUOUS
62
5
39
0.0000
10
6.5672
20
180.9997
11
6.5672
21
205.9996
0
LINE
8
OHNE_NAMEN
6
CONTINUOUS
62
5
39
0.0000
10
6.5672
20
254.9994
11
22.5692
21
254.9994
0
LINE
8
OHNE_NAMEN
6
CONTINUOUS
62
5
39
0.0000
10
22.5000
20
257.0000
11
4.5670
21
256.9997
0
LINE
8
OHNE_NAMEN
6
CONTINUOUS
62
5
39
0.0000
10
22.5657
20
256.9997
11
22.5657
21
254.9998
0
LINE
8
OHNE_NAMEN
6
CONTINUOUS
62
5
39
0.0000
10
22.5657
20
180.9997
11
22.5657
21
178.9998
0
LINE
8
OHNE_NAMEN
6
CONTINUOUS
62
5
39
0.0000
10
22.5657
20
103.9996
11
22.5657
21
101.9997
0
LINE
8
OHNE_NAMEN
6
CONTINUOUS
62
5
39
0.0000
10
6.5672
20
229.9995
11
6.5672
21
254.9994
0
LINE
8
OHNE_NAMEN
6
CONTINUOUS
62
5
39
0.0000
10
6.5672
20
229.9998
11
4.5670
21
229.9998
0
LINE
8
OHNE_NAMEN
6
CONTINUOUS
62
5
39
0.0000
10
6.5672
20
205.9996
11
4.5670
21
205.9996
0
LINE
8
OHNE_NAMEN
6
CONTINUOUS
62
5
39
0.0000
10
6.5672
20
178.9998
11
6.5672
21
153.9999
0
LINE
8
OHNE_NAMEN
6
CONTINUOUS
62
5
39
0.0000
10
6.5672
20
153.9999
11
4.5670
21
153.9999
0
LINE
8
OHNE_NAMEN
6
CONTINUOUS
62
5
39
0.0000
10
6.5672
20
128.9999
11
4.5670
21
128.9999
0
LINE
8
OHNE_NAMEN
6
CONTINUOUS
62
5
39
0.0000
10
4.5000
20
230.0002
11
4.5000
21
206.0000
0
LINE
8
OHNE_NAMEN
6
CONTINUOUS
62
5
39
0.0000
10
4.5000
20
153.9999
11
4.5000
21
128.9999
0
LINE
8
OHNE_NAMEN
6
CONTINUOUS
62
5
39
0.0000
10
44.5001
20
261.0002
11
44.5001
21
291.4999
0
LINE
8
OHNE_NAMEN
6
CONTINUOUS
62
5
39
0.0000
10
44.5001
20
291.4999
11
50.5001
21
291.4999
0
LINE
8
OHNE_NAMEN
6
CONTINUOUS
62
5
39
0.0000
10
50.5001
20
291.4999
11
50.5001
21
293.5002
0
LINE
8
OHNE_NAMEN
6
CONTINUOUS
62
5
39
0.0000
10
50.5001
20
293.5002
11
54.4999
21
293.5002
0
LINE
8
OHNE_NAMEN
6
CONTINUOUS
62
5
39
0.0000
10
4.5000
20
261.0002
11
4.5000
21
257.0000
0
LINE
8
OHNE_NAMEN
6
CONTINUOUS
62
5
39
0.0000
10
4.5000
20
102.0000
11
4.5000
21
97.9999
0
LINE
8
OHNE_NAMEN
6
CONTINUOUS
62
5
39
0.0000
10
50.5001
20
66.5000
11
50.5001
21
64.5001
0
LINE
8
OHNE_NAMEN
6
CONTINUOUS
62
5
39
0.0000
10
50.5001
20
64.5001
11
54.4999
21
64.5001
0
LINE
8
OHNE_NAMEN
6
CONTINUOUS
62
5
39
0.0000
10
54.4999
20
293.5002
11
54.4999
21
288.4999
0
LINE
8
OHNE_NAMEN
6
CONTINUOUS
62
5
39
0.0000
10
54.4999
20
288.4999
11
52.5000
21
288.4999
0
LINE
8
OHNE_NAMEN
6
CONTINUOUS
62
5
39
0.0000
10
52.5000
20
288.4999
11
52.5000
21
286.5000
0
LINE
8
OHNE_NAMEN
6
CONTINUOUS
62
5
39
0.0000
10
52.5000
20
286.5000
11
54.4999
21
286.5000
0
LINE
8
OHNE_NAMEN
6
CONTINUOUS
62
5
39
0.0000
10
54.4999
20
286.5000
11
54.4999
21
282.4998
0
LINE
8
OHNE_NAMEN
6
CONTINUOUS
62
5
39
0.0000
10
54.4999
20
282.4998
11
52.5000
21
282.4998
0
LINE
8
OHNE_NAMEN
6
CONTINUOUS
62
5
39
0.0000
10
52.5000
20
282.4998
11
52.5000
21
280.4999
0
LINE
8
OHNE_NAMEN
6
CONTINUOUS
62
5
39
0.0000
10
52.5000
20
280.4999
11
54.4999
21
280.4999
0
LINE
8
OHNE_NAMEN
6
CONTINUOUS
62
5
39
0.0000
10
54.4999
20
280.4999
11
54.4999
21
276.5002
0
LINE
8
OHNE_NAMEN
6
CONTINUOUS
62
5
39
0.0000
10
54.4999
20
276.5002
11
52.5000
21
276.5002
0
LINE
8
OHNE_NAMEN
6
CONTINUOUS
62
5
39
0.0000
10
52.5000
20
276.5002
11
52.5000
21
274.4999
0
LINE
8
OHNE_NAMEN
6
CONTINUOUS
62
5
39
0.0000
10
52.5000
20
274.4999
11
54.4999
21
274.4999
0
LINE
8
OHNE_NAMEN
6
CONTINUOUS
62
5
39
0.0000
10
54.4999
20
274.4999
11
54.4999
21
270.5001
0
LINE
8
OHNE_NAMEN
6
CONTINUOUS
62
5
39
0.0000
10
54.4999
20
270.5001
11
52.5000
21
270.5001
0
LINE
8
OHNE_NAMEN
6
CONTINUOUS
62
5
39
0.0000
10
52.5000
20
270.5001
11
52.5000
21
268.5002
0
LINE
8
OHNE_NAMEN
6
CONTINUOUS
62
5
39
0.0000
10
52.5000
20
268.5002
11
54.4999
21
268.5002
0
LINE
8
OHNE_NAMEN
6
CONTINUOUS
62
5
39
0.0000
10
54.4999
20
268.5002
11
54.4999
21
264.5001
0
LINE
8
OHNE_NAMEN
6
CONTINUOUS
62
5
39
0.0000
10
54.4999
20
264.5001
11
52.5000
21
264.5001
0
LINE
8
OHNE_NAMEN
6
CONTINUOUS
62
5
39
0.0000
10
52.5000
20
264.5001
11
52.5000
21
262.5002
0
LINE
8
OHNE_NAMEN
6
CONTINUOUS
62
5
39
0.0000
10
52.5000
20
262.5002
11
54.4999
21
262.5002
0
LINE
8
OHNE_NAMEN
6
CONTINUOUS
62
5
39
0.0000
10
54.4999
20
262.5002
11
54.4999
21
258.5000
0
LINE
8
OHNE_NAMEN
6
CONTINUOUS
62
5
39
0.0000
10
54.4999
20
258.5000
11
52.5000
21
258.5000
0
LINE
8
OHNE_NAMEN
6
CONTINUOUS
62
5
39
0.0000
10
52.5000
20
258.5000
11
52.5000
21
256.5001
0
LINE
8
OHNE_NAMEN
6
CONTINUOUS
62
5
39
0.0000
10
52.5000
20
256.5001
11
54.4999
21
256.5001
0
LINE
8
OHNE_NAMEN
6
CONTINUOUS
62
5
39
0.0000
10
54.4999
20
256.5001
11
54.4999
21
252.5000
0
LINE
8
OHNE_NAMEN
6
CONTINUOUS
62
5
39
0.0000
10
54.4999
20
252.5000
11
52.5000
21
252.5000
0
LINE
8
OHNE_NAMEN
6
CONTINUOUS
62
5
39
0.0000
10
52.5000
20
252.5000
11
52.5000
21
250.5001
0
LINE
8
OHNE_NAMEN
6
CONTINUOUS
62
5
39
0.0000
10
52.5000
20
250.5001
11
54.4999
21
250.5001
0
LINE
8
OHNE_NAMEN
6
CONTINUOUS
62
5
39
0.0000
10
54.4999
20
250.5001
11
54.4999
21
246.5003
0
LINE
8
OHNE_NAMEN
6
CONTINUOUS
62
5
39
0.0000
10
54.4999
20
246.5003
11
52.5000
21
246.5003
0
LINE
8
OHNE_NAMEN
6
CONTINUOUS
62
5
39
0.0000
10
52.5000
20
246.5003
11
52.5000
21
244.5000
0
LINE
8
OHNE_NAMEN
6
CONTINUOUS
62
5
39
0.0000
10
52.5000
20
244.5000
11
54.4999
21
244.5000
0
LINE
8
OHNE_NAMEN
6
CONTINUOUS
62
5
39
0.0000
10
54.4999
20
244.5000
11
54.4999
21
240.5002
0
LINE
8
OHNE_NAMEN
6
CONTINUOUS
62
5
39
0.0000
10
54.4999
20
240.5002
11
52.5000
21
240.5002
0
LINE
8
OHNE_NAMEN
6
CONTINUOUS
62
5
39
0.0000
10
52.5000
20
240.5002
11
52.5000
21
238.5000
0
LINE
8
OHNE_NAMEN
6
CONTINUOUS
62
5
39
0.0000
10
52.5000
20
238.5000
11
54.4999
21
238.5000
0
LINE
8
OHNE_NAMEN
6
CONTINUOUS
62
5
39
0.0000
10
54.4999
20
238.5000
11
54.4999
21
234.5002
0
LINE
8
OHNE_NAMEN
6
CONTINUOUS
62
5
39
0.0000
10
54.4999
20
234.5002
11
52.5000
21
234.5002
0
LINE
8
OHNE_NAMEN
6
CONTINUOUS
62
5
39
0.0000
10
52.5000
20
234.5002
11
52.5000
21
232.5003
0
LINE
8
OHNE_NAMEN
6
CONTINUOUS
62
5
39
0.0000
10
52.5000
20
232.5003
11
54.4999
21
232.5003
0
LINE
8
OHNE_NAMEN
6
CONTINUOUS
62
5
39
0.0000
10
54.4999
20
232.5003
11
54.4999
21
228.5002
0
LINE
8
OHNE_NAMEN
6
CONTINUOUS
62
5
39
0.0000
10
54.4999
20
228.5002
11
52.5000
21
228.5002
0
LINE
8
OHNE_NAMEN
6
CONTINUOUS
62
5
39
0.0000
10
52.5000
20
228.5002
11
52.5000
21
226.5003
0
LINE
8
OHNE_NAMEN
6
CONTINUOUS
62
5
39
0.0000
10
52.5000
20
226.5003
11
54.4999
21
226.5003
0
LINE
8
OHNE_NAMEN
6
CONTINUOUS
62
5
39
0.0000
10
54.4999
20
226.5003
11
54.4999
21
222.5001
0
LINE
8
OHNE_NAMEN
6
CONTINUOUS
62
5
39
0.0000
10
54.4999
20
222.5001
11
52.5000
21
222.5001
0
LINE
8
OHNE_NAMEN
6
CONTINUOUS
62
5
39
0.0000
10
52.5000
20
222.5001
11
52.5000
21
220.5002
0
LINE
8
OHNE_NAMEN
6
CONTINUOUS
62
5
39
0.0000
10
52.5000
20
220.5002
11
54.4999
21
220.5002
0
LINE
8
OHNE_NAMEN
6
CONTINUOUS
62
5
39
0.0000
10
54.4999
20
220.5002
11
54.4999
21
216.5001
0
LINE
8
OHNE_NAMEN
6
CONTINUOUS
62
5
39
0.0000
10
54.4999
20
216.5004
11
52.5000
21
216.5004
0
LINE
8
OHNE_NAMEN
6
CONTINUOUS
62
5
39
0.0000
10
52.5000
20
216.5004
11
52.5000
21
214.5002
0
LINE
8
OHNE_NAMEN
6
CONTINUOUS
62
5
39
0.0000
10
52.5000
20
214.5002
11
54.4999
21
214.5002
0
LINE
8
OHNE_NAMEN
6
CONTINUOUS
62
5
39
0.0000
10
54.4999
20
214.5002
11
54.4999
21
210.5004
0
LINE
8
OHNE_NAMEN
6
CONTINUOUS
62
5
39
0.0000
10
54.4999
20
210.5004
11
52.5000
21
210.5004
0
LINE
8
OHNE_NAMEN
6
CONTINUOUS
62
5
39
0.0000
10
52.5000
20
210.5004
11
52.5000
21
208.5001
0
LINE
8
OHNE_NAMEN
6
CONTINUOUS
62
5
39
0.0000
10
52.5000
20
208.5001
11
54.4999
21
208.5001
0
LINE
8
OHNE_NAMEN
6
CONTINUOUS
62
5
39
0.0000
10
54.4999
20
208.5001
11
54.4999
21
204.5003
0
LINE
8
OHNE_NAMEN
6
CONTINUOUS
62
5
39
0.0000
10
54.4999
20
204.5003
11
52.5000
21
204.5003
0
LINE
8
OHNE_NAMEN
6
CONTINUOUS
62
5
39
0.0000
10
52.5000
20
204.5003
11
52.5000
21
202.5004
0
LINE
8
OHNE_NAMEN
6
CONTINUOUS
62
5
39
0.0000
10
52.5000
20
202.5004
11
54.4999
21
202.5004
0
LINE
8
OHNE_NAMEN
6
CONTINUOUS
62
5
39
0.0000
10
54.4999
20
202.5004
11
54.4999
21
198.5003
0
LINE
8
OHNE_NAMEN
6
CONTINUOUS
62
5
39
0.0000
10
54.4999
20
198.5003
11
52.5000
21
198.5003
0
LINE
8
OHNE_NAMEN
6
CONTINUOUS
62
5
39
0.0000
10
52.5000
20
198.5003
11
52.5000
21
196.5004
0
LINE
8
OHNE_NAMEN
6
CONTINUOUS
62
5
39
0.0000
10
52.5000
20
196.5004
11
54.4999
21
196.5004
0
LINE
8
OHNE_NAMEN
6
CONTINUOUS
62
5
39
0.0000
10
54.4999
20
196.5004
11
54.4999
21
192.5002
0
LINE
8
OHNE_NAMEN
6
CONTINUOUS
62
5
39
0.0000
10
54.4999
20
192.5002
11
52.5000
21
192.5002
0
LINE
8
OHNE_NAMEN
6
CONTINUOUS
62
5
39
0.0000
10
52.5000
20
192.5002
11
52.5000
21
190.5003
0
LINE
8
OHNE_NAMEN
6
CONTINUOUS
62
5
39
0.0000
10
52.5000
20
190.5003
11
54.4999
21
190.5003
0
LINE
8
OHNE_NAMEN
6
CONTINUOUS
62
5
39
0.0000
10
54.4999
20
190.5003
11
54.4999
21
186.5002
0
LINE
8
OHNE_NAMEN
6
CONTINUOUS
62
5
39
0.0000
10
54.4999
20
186.5002
11
52.5000
21
186.5002
0
LINE
8
OHNE_NAMEN
6
CONTINUOUS
62
5
39
0.0000
10
52.5000
20
186.5002
11
52.5000
21
184.5003
0
LINE
8
OHNE_NAMEN
6
CONTINUOUS
62
5
39
0.0000
10
52.5000
20
184.5003
11
54.4999
21
184.5003
0
LINE
8
OHNE_NAMEN
6
CONTINUOUS
62
5
39
0.0000
10
54.4999
20
184.5003
11
54.4999
21
180.5005
0
LINE
8
OHNE_NAMEN
6
CONTINUOUS
62
5
39
0.0000
10
54.4999
20
180.5005
11
52.5000
21
180.5005
0
LINE
8
OHNE_NAMEN
6
CONTINUOUS
62
5
39
0.0000
10
52.5000
20
180.5005
11
52.5000
21
178.5003
0
LINE
8
OHNE_NAMEN
6
CONTINUOUS
62
5
39
0.0000
10
52.5000
20
178.5003
11
54.4999
21
178.5003
0
LINE
8
OHNE_NAMEN
6
CONTINUOUS
62
5
39
0.0000
10
54.4999
20
178.5003
11
54.4999
21
174.5005
0
LINE
8
OHNE_NAMEN
6
CONTINUOUS
62
5
39
0.0000
10
54.4999
20
174.5005
11
52.5000
21
174.5005
0
LINE
8
OHNE_NAMEN
6
CONTINUOUS
62
5
39
0.0000
10
52.5000
20
174.5005
11
52.5000
21
172.5006
0
LINE
8
OHNE_NAMEN
6
CONTINUOUS
62
5
39
0.0000
10
52.5000
20
172.5006
11
54.4999
21
172.5006
0
LINE
8
OHNE_NAMEN
6
CONTINUOUS
62
5
39
0.0000
10
54.4999
20
172.5006
11
54.4999
21
168.5004
0
LINE
8
OHNE_NAMEN
6
CONTINUOUS
62
5
39
0.0000
10
54.4999
20
168.5004
11
52.5000
21
168.5004
0
LINE
8
OHNE_NAMEN
6
CONTINUOUS
62
5
39
0.0000
10
52.5000
20
168.5004
11
52.5000
21
166.5005
0
LINE
8
OHNE_NAMEN
6
CONTINUOUS
62
5
39
0.0000
10
52.5000
20
166.5005
11
54.4999
21
166.5005
0
LINE
8
OHNE_NAMEN
6
CONTINUOUS
62
5
39
0.0000
10
54.4999
20
166.5005
11
54.4999
21
162.5004
0
LINE
8
OHNE_NAMEN
6
CONTINUOUS
62
5
39
0.0000
10
54.4999
20
162.5004
11
52.5000
21
162.5004
0
LINE
8
OHNE_NAMEN
6
CONTINUOUS
62
5
39
0.0000
10
52.5000
20
162.5004
11
52.5000
21
160.5005
0
LINE
8
OHNE_NAMEN
6
CONTINUOUS
62
5
39
0.0000
10
52.5000
20
160.5005
11
54.4999
21
160.5005
0
LINE
8
OHNE_NAMEN
6
CONTINUOUS
62
5
39
0.0000
10
54.4999
20
160.5005
11
54.4999
21
156.5003
0
LINE
8
OHNE_NAMEN
6
CONTINUOUS
62
5
39
0.0000
10
54.4999
20
156.5003
11
52.5000
21
156.5003
0
LINE
8
OHNE_NAMEN
6
CONTINUOUS
62
5
39
0.0000
10
52.5000
20
156.5003
11
52.5000
21
154.5004
0
LINE
8
OHNE_NAMEN
6
CONTINUOUS
62
5
39
0.0000
10
52.5000
20
154.5004
11
54.4999
21
154.5004
0
LINE
8
OHNE_NAMEN
6
CONTINUOUS
62
5
39
0.0000
10
54.4999
20
154.5004
11
54.4999
21
150.5006
0
LINE
8
OHNE_NAMEN
6
CONTINUOUS
62
5
39
0.0000
10
54.4999
20
150.5006
11
52.5000
21
150.5006
0
LINE
8
OHNE_NAMEN
6
CONTINUOUS
62
5
39
0.0000
10
52.5000
20
150.5006
11
52.5000
21
148.5004
0
LINE
8
OHNE_NAMEN
6
CONTINUOUS
62
5
39
0.0000
10
52.5000
20
148.5004
11
54.4999
21
148.5004
0
LINE
8
OHNE_NAMEN
6
CONTINUOUS
62
5
39
0.0000
10
54.4999
20
148.5004
11
54.4999
21
144.5006
0
LINE
8
OHNE_NAMEN
6
CONTINUOUS
62
5
39
0.0000
10
54.4999
20
144.5006
11
52.5000
21
144.5006
0
LINE
8
OHNE_NAMEN
6
CONTINUOUS
62
5
39
0.0000
10
52.5000
20
144.5006
11
52.5000
21
142.5003
0
LINE
8
OHNE_NAMEN
6
CONTINUOUS
62
5
39
0.0000
10
52.5000
20
142.5003
11
54.4999
21
142.5003
0
LINE
8
OHNE_NAMEN
6
CONTINUOUS
62
5
39
0.0000
10
54.4999
20
142.5003
11
54.4999
21
138.5006
0
LINE
8
OHNE_NAMEN
6
CONTINUOUS
62
5
39
0.0000
10
54.4999
20
138.5006
11
52.5000
21
138.5006
0
LINE
8
OHNE_NAMEN
6
CONTINUOUS
62
5
39
0.0000
10
52.5000
20
138.5006
11
52.5000
21
136.5007
0
LINE
8
OHNE_NAMEN
6
CONTINUOUS
62
5
39
0.0000
10
52.5000
20
136.5007
11
54.4999
21
136.5007
0
LINE
8
OHNE_NAMEN
6
CONTINUOUS
62
5
39
0.0000
10
54.4999
20
136.5007
11
54.4999
21
132.5005
0
LINE
8
OHNE_NAMEN
6
CONTINUOUS
62
5
39
0.0000
10
54.4999
20
132.5005
11
52.5000
21
132.5005
0
LINE
8
OHNE_NAMEN
6
CONTINUOUS
62
5
39
0.0000
10
52.5000
20
132.5005
11
52.5000
21
130.5006
0
LINE
8
OHNE_NAMEN
6
CONTINUOUS
62
5
39
0.0000
10
52.5000
20
130.5006
11
54.4999
21
130.5006
0
LINE
8
OHNE_NAMEN
6
CONTINUOUS
62
5
39
0.0000
10
54.4999
20
130.5006
11
54.4999
21
126.5005
0
LINE
8
OHNE_NAMEN
6
CONTINUOUS
62
5
39
0.0000
10
54.4999
20
126.5005
11
52.5000
21
126.5005
0
LINE
8
OHNE_NAMEN
6
CONTINUOUS
62
5
39
0.0000
10
52.5000
20
126.5005
11
52.5000
21
124.5006
0
LINE
8
OHNE_NAMEN
6
CONTINUOUS
62
5
39
0.0000
10
52.5000
20
124.5006
11
54.4999
21
124.5006
0
LINE
8
OHNE_NAMEN
6
CONTINUOUS
62
5
39
0.0000
10
54.4999
20
124.5006
11
54.4999
21
120.5004
0
LINE
8
OHNE_NAMEN
6
CONTINUOUS
62
5
39
0.0000
10
54.4999
20
120.5008
11
52.5000
21
120.5008
0
LINE
8
OHNE_NAMEN
6
CONTINUOUS
62
5
39
0.0000
10
52.5000
20
120.5008
11
52.5000
21
118.5005
0
LINE
8
OHNE_NAMEN
6
CONTINUOUS
62
5
39
0.0000
10
52.5000
20
118.5005
11
54.4999
21
118.5005
0
LINE
8
OHNE_NAMEN
6
CONTINUOUS
62
5
39
0.0000
10
54.4999
20
118.5005
11
54.4999
21
114.5007
0
LINE
8
OHNE_NAMEN
6
CONTINUOUS
62
5
39
0.0000
10
54.4999
20
114.5007
11
52.5000
21
114.5007
0
LINE
8
OHNE_NAMEN
6
CONTINUOUS
62
5
39
0.0000
10
52.5000
20
114.5007
11
52.5000
21
112.5005
0
LINE
8
OHNE_NAMEN
6
CONTINUOUS
62
5
39
0.0000
10
52.5000
20
112.5005
11
54.4999
21
112.5005
0
LINE
8
OHNE_NAMEN
6
CONTINUOUS
62
5
39
0.0000
10
54.4999
20
112.5005
11
54.4999
21
108.5007
0
LINE
8
OHNE_NAMEN
6
CONTINUOUS
62
5
39
0.0000
10
54.4999
20
108.5007
11
52.5000
21
108.5007
0
LINE
8
OHNE_NAMEN
6
CONTINUOUS
62
5
39
0.0000
10
52.5000
20
108.5007
11
52.5000
21
106.5008
0
LINE
8
OHNE_NAMEN
6
CONTINUOUS
62
5
39
0.0000
10
52.5000
20
106.5008
11
54.4999
21
106.5008
0
LINE
8
OHNE_NAMEN
6
CONTINUOUS
62
5
39
0.0000
10
54.4999
20
106.5008
11
54.4999
21
102.5006
0
LINE
8
OHNE_NAMEN
6
CONTINUOUS
62
5
39
0.0000
10
54.4999
20
102.5006
11
52.5000
21
102.5006
0
LINE
8
OHNE_NAMEN
6
CONTINUOUS
62
5
39
0.0000
10
52.5000
20
102.5006
11
52.5000
21
100.5007
0
LINE
8
OHNE_NAMEN
6
CONTINUOUS
62
5
39
0.0000
10
52.5000
20
100.5007
11
54.4999
21
100.5007
0
LINE
8
OHNE_NAMEN
6
CONTINUOUS
62
5
39
0.0000
10
54.4999
20
100.5007
11
54.4999
21
96.5006
0
LINE
8
OHNE_NAMEN
6
CONTINUOUS
62
5
39
0.0000
10
54.4999
20
96.5006
11
52.5000
21
96.5006
0
LINE
8
OHNE_NAMEN
6
CONTINUOUS
62
5
39
0.0000
10
52.5000
20
96.5006
11
52.5000
21
94.5007
0
LINE
8
OHNE_NAMEN
6
CONTINUOUS
62
5
39
0.0000
10
52.5000
20
94.5007
11
54.4999
21
94.5007
0
LINE
8
OHNE_NAMEN
6
CONTINUOUS
62
5
39
0.0000
10
54.4999
20
94.5007
11
54.4999
21
90.5005
0
LINE
8
OHNE_NAMEN
6
CONTINUOUS
62
5
39
0.0000
10
54.4999
20
90.5005
11
52.5000
21
90.5005
0
LINE
8
OHNE_NAMEN
6
CONTINUOUS
62
5
39
0.0000
10
52.5000
20
90.5005
11
52.5000
21
88.5007
0
LINE
8
OHNE_NAMEN
6
CONTINUOUS
62
5
39
0.0000
10
52.5000
20
88.5007
11
54.4999
21
88.5007
0
LINE
8
OHNE_NAMEN
6
CONTINUOUS
62
5
39
0.0000
10
54.4999
20
88.5007
11
54.4999
21
84.5009
0
LINE
8
OHNE_NAMEN
6
CONTINUOUS
62
5
39
0.0000
10
54.4999
20
84.5009
11
52.5000
21
84.5009
0
LINE
8
OHNE_NAMEN
6
CONTINUOUS
62
5
39
0.0000
10
52.5000
20
84.5009
11
52.5000
21
82.5006
0
LINE
8
OHNE_NAMEN
6
CONTINUOUS
62
5
39
0.0000
10
52.5000
20
82.5006
11
54.4999
21
82.5006
0
LINE
8
OHNE_NAMEN
6
CONTINUOUS
62
5
39
0.0000
10
54.4999
20
82.5006
11
54.4999
21
78.5008
0
LINE
8
OHNE_NAMEN
6
CONTINUOUS
62
5
39
0.0000
10
54.4999
20
78.5008
11
52.5000
21
78.5008
0
LINE
8
OHNE_NAMEN
6
CONTINUOUS
62
5
39
0.0000
10
52.5000
20
78.5008
11
52.5000
21
76.5009
0
LINE
8
OHNE_NAMEN
6
CONTINUOUS
62
5
39
0.0000
10
52.5000
20
76.5009
11
54.4999
21
76.5009
0
LINE
8
OHNE_NAMEN
6
CONTINUOUS
62
5
39
0.0000
10
54.4999
20
76.5009
11
54.4999
21
72.5008
0
LINE
8
OHNE_NAMEN
6
CONTINUOUS
62
5
39
0.0000
10
54.4999
20
72.5008
11
52.5000
21
72.5008
0
LINE
8
OHNE_NAMEN
6
CONTINUOUS
62
5
39
0.0000
10
52.5000
20
72.5008
11
52.5000
21
70.5009
0
LINE
8
OHNE_NAMEN
6
CONTINUOUS
62
5
39
0.0000
10
52.5000
20
70.5009
11
54.4999
21
70.5009
0
LINE
8
OHNE_NAMEN
6
CONTINUOUS
62
5
39
0.0000
10
54.4999
20
70.5009
11
54.4999
21
64.5001
0
LINE
8
OHNE_NAMEN
6
CONTINUOUS
62
5
39
0.0000
10
55.9999
20
246.0001
11
96.5754
21
295.9389
0
LINE
8
OHNE_NAMEN
6
CONTINUOUS
62
5
39
0.0000
10
96.4999
20
295.9999
11
137.0753
21
246.0611
0
LINE
8
OHNE_NAMEN
6
CONTINUOUS
62
5
39
0.0000
10
55.9999
20
244.0002
11
96.5754
21
293.9390
0
LINE
8
OHNE_NAMEN
6
CONTINUOUS
62
5
39
0.0000
10
96.4999
20
294.0001
11
137.0753
21
244.0612
0
LINE
8
OHNE_NAMEN
6
CONTINUOUS
62
5
39
0.0000
10
55.9999
20
242.0002
11
96.5754
21
291.9391
0
LINE
8
OHNE_NAMEN
6
CONTINUOUS
62
5
39
0.0000
10
96.4999
20
292.0002
11
137.0753
21
242.0613
0
LINE
8
OHNE_NAMEN
6
CONTINUOUS
62
5
39
0.0000
10
55.9999
20
240.0000
11
96.5754
21
289.9389
0
LINE
8
OHNE_NAMEN
6
CONTINUOUS
62
5
39
0.0000
10
96.4999
20
290.0002
11
137.0753
21
240.0614
0
LINE
8
OHNE_NAMEN
6
CONTINUOUS
62
5
39
0.0000
10
55.9999
20
238.0001
11
96.5754
21
287.9390
0
LINE
8
OHNE_NAMEN
6
CONTINUOUS
62
5
39
0.0000
10
96.4999
20
288.0000
11
137.0753
21
238.0611
0
LINE
8
OHNE_NAMEN
6
CONTINUOUS
62
5
39
0.0000
10
55.9999
20
236.0002
11
96.5754
21
285.9391
0
LINE
8
OHNE_NAMEN
6
CONTINUOUS
62
5
39
0.0000
10
96.4999
20
286.0001
11
137.0753
21
236.0613
0
LINE
8
OHNE_NAMEN
6
CONTINUOUS
62
5
39
0.0000
10
55.9999
20
234.0003
11
96.5754
21
283.9392
0
LINE
8
OHNE_NAMEN
6
CONTINUOUS
62
5
39
0.0000
10
96.4999
20
284.0002
11
137.0753
21
234.0614
0
LINE
8
OHNE_NAMEN
6
CONTINUOUS
62
5
39
0.0000
10
55.9999
20
232.0001
11
96.5754
21
281.9389
0
LINE
8
OHNE_NAMEN
6
CONTINUOUS
62
5
39
0.0000
10
96.4999
20
282.0003
11
137.0753
21
232.0615
0
LINE
8
OHNE_NAMEN
6
CONTINUOUS
62
5
39
0.0000
10
55.9999
20
230.0002
11
96.5754
21
279.9390
0
LINE
8
OHNE_NAMEN
6
CONTINUOUS
62
5
39
0.0000
10
96.4999
20
280.0001
11
137.0753
21
230.0612
0
LINE
8
OHNE_NAMEN
6
CONTINUOUS
62
5
39
0.0000
10
55.9999
20
228.0003
11
96.5754
21
277.9392
0
LINE
8
OHNE_NAMEN
6
CONTINUOUS
62
5
39
0.0000
10
96.4999
20
278.0002
11
137.0753
21
228.0613
0
LINE
8
OHNE_NAMEN
6
CONTINUOUS
62
5
39
0.0000
10
55.9999
20
226.0004
11
96.5754
21
275.9392
0
LINE
8
OHNE_NAMEN
6
CONTINUOUS
62
5
39
0.0000
10
96.4999
20
276.0003
11
137.0753
21
226.0614
0
LINE
8
OHNE_NAMEN
6
CONTINUOUS
62
5
39
0.0000
10
55.9999
20
224.0001
11
96.5754
21
273.9390
0
LINE
8
OHNE_NAMEN
6
CONTINUOUS
62
5
39
0.0000
10
96.4999
20
274.0004
11
137.0753
21
224.0615
0
LINE
8
OHNE_NAMEN
6
CONTINUOUS
62
5
39
0.0000
10
55.9999
20
222.0002
11
96.5754
21
271.9391
0
LINE
8
OHNE_NAMEN
6
CONTINUOUS
62
5
39
0.0000
10
96.4999
20
272.0001
11
137.0753
21
222.0613
0
LINE
8
OHNE_NAMEN
6
CONTINUOUS
62
5
39
0.0000
10
55.9999
20
220.0003
11
96.5754
21
269.9392
0
LINE
8
OHNE_NAMEN
6
CONTINUOUS
62
5
39
0.0000
10
96.4999
20
270.0002
11
137.0753
21
220.0614
0
LINE
8
OHNE_NAMEN
6
CONTINUOUS
62
5
39
0.0000
10
55.9999
20
218.0004
11
96.5754
21
267.9393
0
LINE
8
OHNE_NAMEN
6
CONTINUOUS
62
5
39
0.0000
10
96.4999
20
268.0003
11
137.0753
21
218.0615
0
LINE
8
OHNE_NAMEN
6
CONTINUOUS
62
5
39
0.0000
10
55.9999
20
216.0002
11
96.5754
21
265.9391
0
LINE
8
OHNE_NAMEN
6
CONTINUOUS
62
5
39
0.0000
10
96.4999
20
266.0005
11
137.0753
21
216.0616
0
LINE
8
OHNE_NAMEN
6
CONTINUOUS
62
5
39
0.0000
10
55.9999
20
214.0003
11
96.5754
21
263.9392
0
LINE
8
OHNE_NAMEN
6
CONTINUOUS
62
5
39
0.0000
10
96.4999
20
264.0002
11
137.0753
21
214.0613
0
LINE
8
OHNE_NAMEN
6
CONTINUOUS
62
5
39
0.0000
10
55.9999
20
212.0004
11
96.5754
21
261.9393
0
LINE
8
OHNE_NAMEN
6
CONTINUOUS
62
5
39
0.0000
10
96.4999
20
262.0003
11
137.0753
21
212.0614
0
LINE
8
OHNE_NAMEN
6
CONTINUOUS
62
5
39
0.0000
10
55.9999
20
210.0005
11
96.5754
21
259.9394
0
LINE
8
OHNE_NAMEN
6
CONTINUOUS
62
5
39
0.0000
10
96.4999
20
260.0004
11
137.0753
21
210.0615
0
LINE
8
OHNE_NAMEN
6
CONTINUOUS
62
5
39
0.0000
10
55.9999
20
208.0002
11
96.5754
21
257.9391
0
LINE
8
OHNE_NAMEN
6
CONTINUOUS
62
5
39
0.0000
10
96.4999
20
258.0005
11
137.0753
21
208.0616
0
LINE
8
OHNE_NAMEN
6
CONTINUOUS
62
5
39
0.0000
10
55.9999
20
206.0003
11
96.5754
21
255.9392
0
LINE
8
OHNE_NAMEN
6
CONTINUOUS
62
5
39
0.0000
10
96.4999
20
256.0002
11
137.0753
21
206.0614
0
LINE
8
OHNE_NAMEN
6
CONTINUOUS
62
5
39
0.0000
10
55.9999
20
204.0004
11
96.5754
21
253.9393
0
LINE
8
OHNE_NAMEN
6
CONTINUOUS
62
5
39
0.0000
10
96.4999
20
254.0004
11
137.0753
21
204.0615
0
LINE
8
OHNE_NAMEN
6
CONTINUOUS
62
5
39
0.0000
10
55.9999
20
202.0005
11
96.5754
21
251.9394
0
LINE
8
OHNE_NAMEN
6
CONTINUOUS
62
5
39
0.0000
10
96.4999
20
252.0004
11
137.0753
21
202.0616
0
LINE
8
OHNE_NAMEN
6
CONTINUOUS
62
5
39
0.0000
10
55.9999
20
200.0003
11
96.5754
21
249.9392
0
LINE
8
OHNE_NAMEN
6
CONTINUOUS
62
5
39
0.0000
10
96.4999
20
250.0006
11
137.0753
21
200.0617
0
LINE
8
OHNE_NAMEN
6
CONTINUOUS
62
5
39
0.0000
10
55.9999
20
198.0004
11
96.5754
21
247.9393
0
LINE
8
OHNE_NAMEN
6
CONTINUOUS
62
5
39
0.0000
10
96.4999
20
248.0003
11
137.0753
21
198.0614
0
LINE
8
OHNE_NAMEN
6
CONTINUOUS
62
5
39
0.0000
10
55.9999
20
196.0005
11
96.5754
21
245.9394
0
LINE
8
OHNE_NAMEN
6
CONTINUOUS
62
5
39
0.0000
10
96.4999
20
246.0004
11
137.0753
21
196.0616
0
LINE
8
OHNE_NAMEN
6
CONTINUOUS
62
5
39
0.0000
10
55.9999
20
194.0006
11
96.5754
21
243.9395
0
LINE
8
OHNE_NAMEN
6
CONTINUOUS
62
5
39
0.0000
10
96.4999
20
244.0005
11
137.0753
21
194.0616
0
LINE
8
OHNE_NAMEN
6
CONTINUOUS
62
5
39
0.0000
10
55.9999
20
192.0004
11
96.5754
21
241.9392
0
LINE
8
OHNE_NAMEN
6
CONTINUOUS
62
5
39
0.0000
10
96.4999
20
242.0006
11
137.0753
21
192.0617
0
LINE
8
OHNE_NAMEN
6
CONTINUOUS
62
5
39
0.0000
10
55.9999
20
190.0005
11
96.5754
21
239.9393
0
LINE
8
OHNE_NAMEN
6
CONTINUOUS
62
5
39
0.0000
10
96.4999
20
240.0004
11
137.0753
21
190.0615
0
LINE
8
OHNE_NAMEN
6
CONTINUOUS
62
5
39
0.0000
10
55.9999
20
188.0006
11
96.5754
21
237.9394
0
LINE
8
OHNE_NAMEN
6
CONTINUOUS
62
5
39
0.0000
10
96.4999
20
238.0005
11
137.0753
21
188.0616
0
LINE
8
OHNE_NAMEN
6
CONTINUOUS
62
5
39
0.0000
10
55.9999
20
186.0007
11
96.5754
21
235.9395
0
LINE
8
OHNE_NAMEN
6
CONTINUOUS
62
5
39
0.0000
10
96.4999
20
236.0006
11
137.0753
21
186.0617
0
LINE
8
OHNE_NAMEN
6
CONTINUOUS
62
5
39
0.0000
10
55.9999
20
184.0004
11
96.5754
21
233.9393
0
LINE
8
OHNE_NAMEN
6
CONTINUOUS
62
5
39
0.0000
10
96.4999
20
234.0007
11
137.0753
21
184.0618
0
LINE
8
OHNE_NAMEN
6
CONTINUOUS
62
5
39
0.0000
10
55.9999
20
182.0005
11
96.5754
21
231.9394
0
LINE
8
OHNE_NAMEN
6
CONTINUOUS
62
5
39
0.0000
10
96.4999
20
232.0004
11
137.0753
21
182.0616
0
LINE
8
OHNE_NAMEN
6
CONTINUOUS
62
5
39
0.0000
10
55.9999
20
180.0006
11
96.5754
21
229.9395
0
LINE
8
OHNE_NAMEN
6
CONTINUOUS
62
5
39
0.0000
10
96.4999
20
230.0005
11
137.0753
21
180.0617
0
LINE
8
OHNE_NAMEN
6
CONTINUOUS
62
5
39
0.0000
10
55.9999
20
178.0007
11
96.5754
21
227.9396
0
LINE
8
OHNE_NAMEN
6
CONTINUOUS
62
5
39
0.0000
10
96.4999
20
228.0006
11
137.0753
21
178.0618
0
LINE
8
OHNE_NAMEN
6
CONTINUOUS
62
5
39
0.0000
10
55.9999
20
176.0005
11
96.5754
21
225.9393
0
LINE
8
OHNE_NAMEN
6
CONTINUOUS
62
5
39
0.0000
10
96.4999
20
226.0007
11
137.0753
21
176.0619
0
LINE
8
OHNE_NAMEN
6
CONTINUOUS
62
5
39
0.0000
10
55.9999
20
174.0006
11
96.5754
21
223.9395
0
LINE
8
OHNE_NAMEN
6
CONTINUOUS
62
5
39
0.0000
10
96.4999
20
224.0005
11
137.0753
21
174.0616
0
LINE
8
OHNE_NAMEN
6
CONTINUOUS
62
5
39
0.0000
10
55.9999
20
172.0007
11
96.5754
21
221.9395
0
LINE
8
OHNE_NAMEN
6
CONTINUOUS
62
5
39
0.0000
10
96.4999
20
222.0006
11
137.0753
21
172.0617
0
LINE
8
OHNE_NAMEN
6
CONTINUOUS
62
5
39
0.0000
10
57.5000
20
172.0000
11
96.5754
21
219.9397
0
LINE
8
OHNE_NAMEN
6
CONTINUOUS
62
5
39
0.0000
10
96.4999
20
220.0007
11
135.4998
21
172.0000
0
LINE
8
OHNE_NAMEN
6
CONTINUOUS
62
5
39
0.0000
10
55.9999
20
246.0001
11
57.5000
21
246.0001
0
LINE
8
OHNE_NAMEN
6
CONTINUOUS
62
5
39
0.0000
10
135.4998
20
246.0001
11
136.9998
21
246.0001
0
LINE
8
OHNE_NAMEN
6
CONTINUOUS
62
5
39
0.0000
10
55.9999
20
244.0002
11
57.5000
21
244.0002
0
LINE
8
OHNE_NAMEN
6
CONTINUOUS
62
5
39
0.0000
10
135.4998
20
244.0002
11
136.9998
21
244.0002
0
LINE
8
OHNE_NAMEN
6
CONTINUOUS
62
5
39
0.0000
10
55.9999
20
242.0002
11
57.5000
21
242.0002
0
LINE
8
OHNE_NAMEN
6
CONTINUOUS
62
5
39
0.0000
10
135.4998
20
242.0002
11
136.9998
21
242.0002
0
LINE
8
OHNE_NAMEN
6
CONTINUOUS
62
5
39
0.0000
10
55.9999
20
240.0000
11
57.5000
21
240.0000
0
LINE
8
OHNE_NAMEN
6
CONTINUOUS
62
5
39
0.0000
10
135.4998
20
240.0000
11
136.9998
21
240.0000
0
LINE
8
OHNE_NAMEN
6
CONTINUOUS
62
5
39
0.0000
10
55.9999
20
238.0001
11
57.5000
21
238.0001
0
LINE
8
OHNE_NAMEN
6
CONTINUOUS
62
5
39
0.0000
10
135.4998
20
238.0001
11
136.9998
21
238.0001
0
LINE
8
OHNE_NAMEN
6
CONTINUOUS
62
5
39
0.0000
10
55.9999
20
236.0002
11
57.5000
21
236.0002
0
LINE
8
OHNE_NAMEN
6
CONTINUOUS
62
5
39
0.0000
10
135.4998
20
236.0002
11
136.9998
21
236.0002
0
LINE
8
OHNE_NAMEN
6
CONTINUOUS
62
5
39
0.0000
10
55.9999
20
234.0003
11
57.5000
21
234.0003
0
LINE
8
OHNE_NAMEN
6
CONTINUOUS
62
5
39
0.0000
10
135.4998
20
234.0003
11
136.9998
21
234.0003
0
LINE
8
OHNE_NAMEN
6
CONTINUOUS
62
5
39
0.0000
10
55.9999
20
232.0001
11
57.5000
21
232.0001
0
LINE
8
OHNE_NAMEN
6
CONTINUOUS
62
5
39
0.0000
10
135.4998
20
232.0001
11
136.9998
21
232.0001
0
LINE
8
OHNE_NAMEN
6
CONTINUOUS
62
5
39
0.0000
10
55.9999
20
230.0002
11
57.5000
21
230.0002
0
LINE
8
OHNE_NAMEN
6
CONTINUOUS
62
5
39
0.0000
10
135.4998
20
230.0002
11
136.9998
21
230.0002
0
LINE
8
OHNE_NAMEN
6
CONTINUOUS
62
5
39
0.0000
10
55.9999
20
228.0003
11
57.5000
21
228.0003
0
LINE
8
OHNE_NAMEN
6
CONTINUOUS
62
5
39
0.0000
10
135.4998
20
228.0003
11
136.9998
21
228.0003
0
LINE
8
OHNE_NAMEN
6
CONTINUOUS
62
5
39
0.0000
10
55.9999
20
226.0004
11
57.5000
21
226.0004
0
LINE
8
OHNE_NAMEN
6
CONTINUOUS
62
5
39
0.0000
10
135.4998
20
226.0004
11
136.9998
21
226.0004
0
LINE
8
OHNE_NAMEN
6
CONTINUOUS
62
5
39
0.0000
10
55.9999
20
224.0001
11
57.5000
21
224.0001
0
LINE
8
OHNE_NAMEN
6
CONTINUOUS
62
5
39
0.0000
10
135.4998
20
224.0001
11
136.9998
21
224.0001
0
LINE
8
OHNE_NAMEN
6
CONTINUOUS
62
5
39
0.0000
10
55.9999
20
222.0002
11
57.5000
21
222.0002
0
LINE
8
OHNE_NAMEN
6
CONTINUOUS
62
5
39
0.0000
10
135.4998
20
222.0002
11
136.9998
21
222.0002
0
LINE
8
OHNE_NAMEN
6
CONTINUOUS
62
5
39
0.0000
10
55.9999
20
220.0003
11
57.5000
21
220.0003
0
LINE
8
OHNE_NAMEN
6
CONTINUOUS
62
5
39
0.0000
10
135.4998
20
220.0003
11
136.9998
21
220.0003
0
LINE
8
OHNE_NAMEN
6
CONTINUOUS
62
5
39
0.0000
10
55.9999
20
218.0004
11
57.5000
21
218.0004
0
LINE
8
OHNE_NAMEN
6
CONTINUOUS
62
5
39
0.0000
10
135.4998
20
218.0004
11
136.9998
21
218.0004
0
LINE
8
OHNE_NAMEN
6
CONTINUOUS
62
5
39
0.0000
10
55.9999
20
216.0002
11
57.5000
21
216.0002
0
LINE
8
OHNE_NAMEN
6
CONTINUOUS
62
5
39
0.0000
10
135.4998
20
216.0002
11
136.9998
21
216.0002
0
LINE
8
OHNE_NAMEN
6
CONTINUOUS
62
5
39
0.0000
10
55.9999
20
214.0003
11
57.5000
21
214.0003
0
LINE
8
OHNE_NAMEN
6
CONTINUOUS
62
5
39
0.0000
10
135.4998
20
214.0003
11
136.9998
21
214.0003
0
LINE
8
OHNE_NAMEN
6
CONTINUOUS
62
5
39
0.0000
10
55.9999
20
212.0004
11
57.5000
21
212.0004
0
LINE
8
OHNE_NAMEN
6
CONTINUOUS
62
5
39
0.0000
10
135.4998
20
212.0004
11
136.9998
21
212.0004
0
LINE
8
OHNE_NAMEN
6
CONTINUOUS
62
5
39
0.0000
10
55.9999
20
210.0005
11
57.5000
21
210.0005
0
LINE
8
OHNE_NAMEN
6
CONTINUOUS
62
5
39
0.0000
10
135.4998
20
210.0005
11
136.9998
21
210.0005
0
LINE
8
OHNE_NAMEN
6
CONTINUOUS
62
5
39
0.0000
10
55.9999
20
208.0002
11
57.5000
21
208.0002
0
LINE
8
OHNE_NAMEN
6
CONTINUOUS
62
5
39
0.0000
10
135.4998
20
208.0002
11
136.9998
21
208.0002
0
LINE
8
OHNE_NAMEN
6
CONTINUOUS
62
5
39
0.0000
10
55.9999
20
206.0003
11
57.5000
21
206.0003
0
LINE
8
OHNE_NAMEN
6
CONTINUOUS
62
5
39
0.0000
10
135.4998
20
206.0003
11
136.9998
21
206.0003
0
LINE
8
OHNE_NAMEN
6
CONTINUOUS
62
5
39
0.0000
10
55.9999
20
204.0004
11
57.5000
21
204.0004
0
LINE
8
OHNE_NAMEN
6
CONTINUOUS
62
5
39
0.0000
10
135.4998
20
204.0004
11
136.9998
21
204.0004
0
LINE
8
OHNE_NAMEN
6
CONTINUOUS
62
5
39
0.0000
10
55.9999
20
202.0005
11
57.5000
21
202.0005
0
LINE
8
OHNE_NAMEN
6
CONTINUOUS
62
5
39
0.0000
10
135.4998
20
202.0005
11
136.9998
21
202.0005
0
LINE
8
OHNE_NAMEN
6
CONTINUOUS
62
5
39
0.0000
10
55.9999
20
200.0003
11
57.5000
21
200.0003
0
LINE
8
OHNE_NAMEN
6
CONTINUOUS
62
5
39
0.0000
10
135.4998
20
200.0003
11
136.9998
21
200.0003
0
LINE
8
OHNE_NAMEN
6
CONTINUOUS
62
5
39
0.0000
10
55.9999
20
198.0004
11
57.5000
21
198.0004
0
LINE
8
OHNE_NAMEN
6
CONTINUOUS
62
5
39
0.0000
10
135.4998
20
198.0004
11
136.9998
21
198.0004
0
LINE
8
OHNE_NAMEN
6
CONTINUOUS
62
5
39
0.0000
10
55.9999
20
196.0005
11
57.5000
21
196.0005
0
LINE
8
OHNE_NAMEN
6
CONTINUOUS
62
5
39
0.0000
10
135.4998
20
196.0005
11
136.9998
21
196.0005
0
LINE
8
OHNE_NAMEN
6
CONTINUOUS
62
5
39
0.0000
10
55.9999
20
194.0006
11
57.5000
21
194.0006
0
LINE
8
OHNE_NAMEN
6
CONTINUOUS
62
5
39
0.0000
10
135.4998
20
194.0006
11
136.9998
21
194.0006
0
LINE
8
OHNE_NAMEN
6
CONTINUOUS
62
5
39
0.0000
10
55.9999
20
192.0004
11
57.5000
21
192.0004
0
LINE
8
OHNE_NAMEN
6
CONTINUOUS
62
5
39
0.0000
10
135.4998
20
192.0004
11
136.9998
21
192.0004
0
LINE
8
OHNE_NAMEN
6
CONTINUOUS
62
5
39
0.0000
10
55.9999
20
190.0005
11
57.5000
21
190.0005
0
LINE
8
OHNE_NAMEN
6
CONTINUOUS
62
5
39
0.0000
10
135.4998
20
190.0005
11
136.9998
21
190.0005
0
LINE
8
OHNE_NAMEN
6
CONTINUOUS
62
5
39
0.0000
10
55.9999
20
188.0006
11
57.5000
21
188.0006
0
LINE
8
OHNE_NAMEN
6
CONTINUOUS
62
5
39
0.0000
10
135.4998
20
188.0006
11
136.9998
21
188.0006
0
LINE
8
OHNE_NAMEN
6
CONTINUOUS
62
5
39
0.0000
10
55.9999
20
186.0007
11
57.5000
21
186.0007
0
LINE
8
OHNE_NAMEN
6
CONTINUOUS
62
5
39
0.0000
10
135.4998
20
186.0007
11
136.9998
21
186.0007
0
LINE
8
OHNE_NAMEN
6
CONTINUOUS
62
5
39
0.0000
10
55.9999
20
184.0004
11
57.5000
21
184.0004
0
LINE
8
OHNE_NAMEN
6
CONTINUOUS
62
5
39
0.0000
10
135.4998
20
184.0004
11
136.9998
21
184.0004
0
LINE
8
OHNE_NAMEN
6
CONTINUOUS
62
5
39
0.0000
10
55.9999
20
182.0005
11
57.5000
21
182.0005
0
LINE
8
OHNE_NAMEN
6
CONTINUOUS
62
5
39
0.0000
10
135.4998
20
182.0005
11
136.9998
21
182.0005
0
LINE
8
OHNE_NAMEN
6
CONTINUOUS
62
5
39
0.0000
10
55.9999
20
180.0006
11
57.5000
21
180.0006
0
LINE
8
OHNE_NAMEN
6
CONTINUOUS
62
5
39
0.0000
10
135.4998
20
180.0006
11
136.9998
21
180.0006
0
LINE
8
OHNE_NAMEN
6
CONTINUOUS
62
5
39
0.0000
10
55.9999
20
178.0007
11
57.5000
21
178.0007
0
LINE
8
OHNE_NAMEN
6
CONTINUOUS
62
5
39
0.0000
10
135.4998
20
178.0007
11
136.9998
21
178.0007
0
LINE
8
OHNE_NAMEN
6
CONTINUOUS
62
5
39
0.0000
10
55.9999
20
176.0005
11
57.5000
21
176.0005
0
LINE
8
OHNE_NAMEN
6
CONTINUOUS
62
5
39
0.0000
10
135.4998
20
176.0005
11
136.9998
21
176.0005
0
LINE
8
OHNE_NAMEN
6
CONTINUOUS
62
5
39
0.0000
10
55.9999
20
174.0006
11
57.5000
21
174.0006
0
LINE
8
OHNE_NAMEN
6
CONTINUOUS
62
5
39
0.0000
10
135.4998
20
174.0006
11
136.9998
21
174.0006
0
LINE
8
OHNE_NAMEN
6
CONTINUOUS
62
5
39
0.0000
10
55.9999
20
172.0007
11
57.5000
21
172.0007
0
LINE
8
OHNE_NAMEN
6
CONTINUOUS
62
5
39
0.0000
10
135.4998
20
172.0007
11
136.9998
21
172.0007
0
LINE
8
OHNE_NAMEN
6
CONTINUOUS
62
5
39
0.0000
10
55.9999
20
167.0008
11
96.5754
21
216.9396
0
LINE
8
OHNE_NAMEN
6
CONTINUOUS
62
5
39
0.0000
10
96.4999
20
217.0007
11
137.0753
21
167.0618
0
LINE
8
OHNE_NAMEN
6
CONTINUOUS
62
5
39
0.0000
10
57.5000
20
167.0001
11
93.4999
21
211.4998
0
LINE
8
OHNE_NAMEN
6
CONTINUOUS
62
5
39
0.0000
10
99.4999
20
211.4998
11
135.4998
21
167.0001
0
LINE
8
OHNE_NAMEN
6
CONTINUOUS
62
5
39
0.0000
10
95.5001
20
214.4998
11
97.5000
21
214.4998
0
LINE
8
OHNE_NAMEN
6
CONTINUOUS
62
5
39
0.0000
10
95.5001
20
214.4998
11
95.5001
21
211.4998
0
LINE
8
OHNE_NAMEN
6
CONTINUOUS
62
5
39
0.0000
10
95.5001
20
211.4998
11
93.4999
21
211.4998
0
LINE
8
OHNE_NAMEN
6
CONTINUOUS
62
5
39
0.0000
10
97.5000
20
214.4998
11
97.5000
21
211.4998
0
LINE
8
OHNE_NAMEN
6
CONTINUOUS
62
5
39
0.0000
10
97.5000
20
211.4998
11
99.4999
21
211.4998
0
LINE
8
OHNE_NAMEN
6
CONTINUOUS
62
5
39
0.0000
10
55.9999
20
167.0008
11
57.5000
21
167.0008
0
LINE
8
OHNE_NAMEN
6
CONTINUOUS
62
5
39
0.0000
10
135.5002
20
167.0008
11
136.9998
21
167.0008
0
LINE
8
OHNE_NAMEN
6
CONTINUOUS
62
5
39
0.0000
10
55.9999
20
162.5007
11
96.5754
21
212.4396
0
LINE
8
OHNE_NAMEN
6
CONTINUOUS
62
5
39
0.0000
10
96.4999
20
212.5006
11
137.0753
21
162.5618
0
LINE
8
OHNE_NAMEN
6
CONTINUOUS
62
5
39
0.0000
10
57.5000
20
162.5000
11
93.4999
21
207.0001
0
LINE
8
OHNE_NAMEN
6
CONTINUOUS
62
5
39
0.0000
10
99.4999
20
207.0001
11
135.4998
21
162.5000
0
LINE
8
OHNE_NAMEN
6
CONTINUOUS
62
5
39
0.0000
10
95.5001
20
210.0001
11
97.5000
21
210.0001
0
LINE
8
OHNE_NAMEN
6
CONTINUOUS
62
5
39
0.0000
10
95.5001
20
210.0001
11
95.5001
21
207.0001
0
LINE
8
OHNE_NAMEN
6
CONTINUOUS
62
5
39
0.0000
10
95.5001
20
207.0001
11
93.4999
21
207.0001
0
LINE
8
OHNE_NAMEN
6
CONTINUOUS
62
5
39
0.0000
10
97.5000
20
210.0001
11
97.5000
21
207.0001
0
LINE
8
OHNE_NAMEN
6
CONTINUOUS
62
5
39
0.0000
10
97.5000
20
207.0001
11
99.4999
21
207.0001
0
LINE
8
OHNE_NAMEN
6
CONTINUOUS
62
5
39
0.0000
10
55.9999
20
162.5007
11
57.5000
21
162.5007
0
LINE
8
OHNE_NAMEN
6
CONTINUOUS
62
5
39
0.0000
10
135.5002
20
162.5007
11
136.9998
21
162.5007
0
LINE
8
OHNE_NAMEN
6
CONTINUOUS
62
5
39
0.0000
10
55.9999
20
158.0007
11
96.5754
21
207.9396
0
LINE
8
OHNE_NAMEN
6
CONTINUOUS
62
5
39
0.0000
10
96.4999
20
208.0006
11
137.0753
21
158.0617
0
LINE
8
OHNE_NAMEN
6
CONTINUOUS
62
5
39
0.0000
10
57.5000
20
158.0000
11
93.4999
21
202.5001
0
LINE
8
OHNE_NAMEN
6
CONTINUOUS
62
5
39
0.0000
10
99.4999
20
202.5001
11
135.4998
21
158.0000
0
LINE
8
OHNE_NAMEN
6
CONTINUOUS
62
5
39
0.0000
10
95.5001
20
205.5001
11
97.5000
21
205.5001
0
LINE
8
OHNE_NAMEN
6
CONTINUOUS
62
5
39
0.0000
10
95.5001
20
205.5001
11
95.5001
21
202.5001
0
LINE
8
OHNE_NAMEN
6
CONTINUOUS
62
5
39
0.0000
10
95.5001
20
202.5001
11
93.4999
21
202.5001
0
LINE
8
OHNE_NAMEN
6
CONTINUOUS
62
5
39
0.0000
10
97.5000
20
205.5001
11
97.5000
21
202.5001
0
LINE
8
OHNE_NAMEN
6
CONTINUOUS
62
5
39
0.0000
10
97.5000
20
202.5001
11
99.4999
21
202.5001
0
LINE
8
OHNE_NAMEN
6
CONTINUOUS
62
5
39
0.0000
10
55.9999
20
158.0007
11
57.5000
21
158.0007
0
LINE
8
OHNE_NAMEN
6
CONTINUOUS
62
5
39
0.0000
10
135.5002
20
158.0007
11
136.9998
21
158.0007
0
LINE
8
OHNE_NAMEN
6
CONTINUOUS
62
5
39
0.0000
10
55.9999
20
153.5007
11
96.5754
21
203.4395
0
LINE
8
OHNE_NAMEN
6
CONTINUOUS
62
5
39
0.0000
10
96.4999
20
203.5006
11
137.0753
21
153.5617
0
LINE
8
OHNE_NAMEN
6
CONTINUOUS
62
5
39
0.0000
10
57.5000
20
153.5000
11
93.4999
21
198.0001
0
LINE
8
OHNE_NAMEN
6
CONTINUOUS
62
5
39
0.0000
10
99.4999
20
198.0001
11
135.4998
21
153.5000
0
LINE
8
OHNE_NAMEN
6
CONTINUOUS
62
5
39
0.0000
10
95.5001
20
201.0001
11
97.5000
21
201.0001
0
LINE
8
OHNE_NAMEN
6
CONTINUOUS
62
5
39
0.0000
10
95.5001
20
201.0001
11
95.5001
21
198.0001
0
LINE
8
OHNE_NAMEN
6
CONTINUOUS
62
5
39
0.0000
10
95.5001
20
198.0001
11
93.4999
21
198.0001
0
LINE
8
OHNE_NAMEN
6
CONTINUOUS
62
5
39
0.0000
10
97.5000
20
201.0001
11
97.5000
21
198.0001
0
LINE
8
OHNE_NAMEN
6
CONTINUOUS
62
5
39
0.0000
10
97.5000
20
198.0001
11
99.4999
21
198.0001
0
LINE
8
OHNE_NAMEN
6
CONTINUOUS
62
5
39
0.0000
10
55.9999
20
153.5007
11
57.5000
21
153.5007
0
LINE
8
OHNE_NAMEN
6
CONTINUOUS
62
5
39
0.0000
10
135.5002
20
153.5007
11
136.9998
21
153.5007
0
LINE
8
OHNE_NAMEN
6
CONTINUOUS
62
5
39
0.0000
10
55.9999
20
149.0006
11
96.5754
21
198.9395
0
LINE
8
OHNE_NAMEN
6
CONTINUOUS
62
5
39
0.0000
10
96.4999
20
199.0005
11
137.0753
21
149.0617
0
LINE
8
OHNE_NAMEN
6
CONTINUOUS
62
5
39
0.0000
10
57.5000
20
148.9999
11
93.4999
21
193.5000
0
LINE
8
OHNE_NAMEN
6
CONTINUOUS
62
5
39
0.0000
10
99.4999
20
193.5000
11
135.4998
21
148.9999
0
LINE
8
OHNE_NAMEN
6
CONTINUOUS
62
5
39
0.0000
10
95.5001
20
196.5000
11
97.5000
21
196.5000
0
LINE
8
OHNE_NAMEN
6
CONTINUOUS
62
5
39
0.0000
10
95.5001
20
196.5000
11
95.5001
21
193.5000
0
LINE
8
OHNE_NAMEN
6
CONTINUOUS
62
5
39
0.0000
10
95.5001
20
193.5000
11
93.4999
21
193.5000
0
LINE
8
OHNE_NAMEN
6
CONTINUOUS
62
5
39
0.0000
10
97.5000
20
196.5000
11
97.5000
21
193.5000
0
LINE
8
OHNE_NAMEN
6
CONTINUOUS
62
5
39
0.0000
10
97.5000
20
193.5000
11
99.4999
21
193.5000
0
LINE
8
OHNE_NAMEN
6
CONTINUOUS
62
5
39
0.0000
10
55.9999
20
149.0006
11
57.5000
21
149.0006
0
LINE
8
OHNE_NAMEN
6
CONTINUOUS
62
5
39
0.0000
10
135.5002
20
149.0006
11
136.9998
21
149.0006
0
LINE
8
OHNE_NAMEN
6
CONTINUOUS
62
5
39
0.0000
10
55.9999
20
144.5006
11
96.5754
21
194.4395
0
LINE
8
OHNE_NAMEN
6
CONTINUOUS
62
5
39
0.0000
10
96.4999
20
194.5005
11
137.0753
21
144.5616
0
LINE
8
OHNE_NAMEN
6
CONTINUOUS
62
5
39
0.0000
10
57.5000
20
144.4999
11
93.4999
21
189.0000
0
LINE
8
OHNE_NAMEN
6
CONTINUOUS
62
5
39
0.0000
10
99.4999
20
189.0000
11
135.4998
21
144.4999
0
LINE
8
OHNE_NAMEN
6
CONTINUOUS
62
5
39
0.0000
10
95.5001
20
192.0000
11
97.5000
21
192.0000
0
LINE
8
OHNE_NAMEN
6
CONTINUOUS
62
5
39
0.0000
10
95.5001
20
192.0000
11
95.5001
21
189.0000
0
LINE
8
OHNE_NAMEN
6
CONTINUOUS
62
5
39
0.0000
10
95.5001
20
189.0000
11
93.4999
21
189.0000
0
LINE
8
OHNE_NAMEN
6
CONTINUOUS
62
5
39
0.0000
10
97.5000
20
192.0000
11
97.5000
21
189.0000
0
LINE
8
OHNE_NAMEN
6
CONTINUOUS
62
5
39
0.0000
10
97.5000
20
189.0000
11
99.4999
21
189.0000
0
LINE
8
OHNE_NAMEN
6
CONTINUOUS
62
5
39
0.0000
10
55.9999
20
144.5006
11
57.5000
21
144.5006
0
LINE
8
OHNE_NAMEN
6
CONTINUOUS
62
5
39
0.0000
10
135.5002
20
144.5006
11
136.9998
21
144.5006
0
LINE
8
OHNE_NAMEN
6
CONTINUOUS
62
5
39
0.0000
10
55.9999
20
140.0006
11
96.5754
21
189.9394
0
LINE
8
OHNE_NAMEN
6
CONTINUOUS
62
5
39
0.0000
10
96.4999
20
190.0008
11
137.0753
21
140.0616
0
LINE
8
OHNE_NAMEN
6
CONTINUOUS
62
5
39
0.0000
10
57.5000
20
139.9999
11
93.4999
21
184.5000
0
LINE
8
OHNE_NAMEN
6
CONTINUOUS
62
5
39
0.0000
10
99.4999
20
184.5000
11
135.4998
21
139.9999
0
LINE
8
OHNE_NAMEN
6
CONTINUOUS
62
5
39
0.0000
10
95.5001
20
187.5000
11
97.5000
21
187.5000
0
LINE
8
OHNE_NAMEN
6
CONTINUOUS
62
5
39
0.0000
10
95.5001
20
187.5000
11
95.5001
21
184.5000
0
LINE
8
OHNE_NAMEN
6
CONTINUOUS
62
5
39
0.0000
10
95.5001
20
184.5000
11
93.4999
21
184.5000
0
LINE
8
OHNE_NAMEN
6
CONTINUOUS
62
5
39
0.0000
10
97.5000
20
187.5000
11
97.5000
21
184.5000
0
LINE
8
OHNE_NAMEN
6
CONTINUOUS
62
5
39
0.0000
10
97.5000
20
184.5000
11
99.4999
21
184.5000
0
LINE
8
OHNE_NAMEN
6
CONTINUOUS
62
5
39
0.0000
10
55.9999
20
140.0006
11
57.5000
21
140.0006
0
LINE
8
OHNE_NAMEN
6
CONTINUOUS
62
5
39
0.0000
10
135.5002
20
140.0006
11
136.9998
21
140.0006
0
LINE
8
OHNE_NAMEN
6
CONTINUOUS
62
5
39
0.0000
10
55.9999
20
135.5005
11
96.5754
21
185.4398
0
LINE
8
OHNE_NAMEN
6
CONTINUOUS
62
5
39
0.0000
10
96.4999
20
185.5008
11
137.0753
21
135.5619
0
LINE
8
OHNE_NAMEN
6
CONTINUOUS
62
5
39
0.0000
10
57.5000
20
135.5002
11
93.4999
21
179.9999
0
LINE
8
OHNE_NAMEN
6
CONTINUOUS
62
5
39
0.0000
10
99.4999
20
179.9999
11
135.4998
21
135.5002
0
LINE
8
OHNE_NAMEN
6
CONTINUOUS
62
5
39
0.0000
10
95.5001
20
182.9999
11
97.5000
21
182.9999
0
LINE
8
OHNE_NAMEN
6
CONTINUOUS
62
5
39
0.0000
10
95.5001
20
182.9999
11
95.5001
21
179.9999
0
LINE
8
OHNE_NAMEN
6
CONTINUOUS
62
5
39
0.0000
10
95.5001
20
179.9999
11
93.4999
21
179.9999
0
LINE
8
OHNE_NAMEN
6
CONTINUOUS
62
5
39
0.0000
10
97.5000
20
182.9999
11
97.5000
21
179.9999
0
LINE
8
OHNE_NAMEN
6
CONTINUOUS
62
5
39
0.0000
10
97.5000
20
179.9999
11
99.4999
21
179.9999
0
LINE
8
OHNE_NAMEN
6
CONTINUOUS
62
5
39
0.0000
10
55.9999
20
135.5005
11
57.5000
21
135.5005
0
LINE
8
OHNE_NAMEN
6
CONTINUOUS
62
5
39
0.0000
10
135.5002
20
135.5005
11
136.9998
21
135.5005
0
LINE
8
OHNE_NAMEN
6
CONTINUOUS
62
5
39
0.0000
10
55.9999
20
131.0005
11
96.5754
21
180.9397
0
LINE
8
OHNE_NAMEN
6
CONTINUOUS
62
5
39
0.0000
10
96.4999
20
181.0007
11
137.0753
21
131.0619
0
LINE
8
OHNE_NAMEN
6
CONTINUOUS
62
5
39
0.0000
10
57.5000
20
131.0001
11
93.4999
21
175.4999
0
LINE
8
OHNE_NAMEN
6
CONTINUOUS
62
5
39
0.0000
10
99.4999
20
175.4999
11
135.4998
21
131.0001
0
LINE
8
OHNE_NAMEN
6
CONTINUOUS
62
5
39
0.0000
10
95.5001
20
178.4999
11
97.5000
21
178.4999
0
LINE
8
OHNE_NAMEN
6
CONTINUOUS
62
5
39
0.0000
10
95.5001
20
178.4999
11
95.5001
21
175.4999
0
LINE
8
OHNE_NAMEN
6
CONTINUOUS
62
5
39
0.0000
10
95.5001
20
175.4999
11
93.4999
21
175.4999
0
LINE
8
OHNE_NAMEN
6
CONTINUOUS
62
5
39
0.0000
10
97.5000
20
178.4999
11
97.5000
21
175.4999
0
LINE
8
OHNE_NAMEN
6
CONTINUOUS
62
5
39
0.0000
10
97.5000
20
175.4999
11
99.4999
21
175.4999
0
LINE
8
OHNE_NAMEN
6
CONTINUOUS
62
5
39
0.0000
10
55.9999
20
131.0005
11
57.5000
21
131.0005
0
LINE
8
OHNE_NAMEN
6
CONTINUOUS
62
5
39
0.0000
10
135.5002
20
131.0005
11
136.9998
21
131.0005
0
LINE
8
OHNE_NAMEN
6
CONTINUOUS
62
5
39
0.0000
10
55.9999
20
126.5008
11
96.5754
21
176.4397
0
LINE
8
OHNE_NAMEN
6
CONTINUOUS
62
5
39
0.0000
10
96.4999
20
176.5007
11
137.0753
21
126.5618
0
LINE
8
OHNE_NAMEN
6
CONTINUOUS
62
5
39
0.0000
10
57.5000
20
126.5001
11
93.4999
21
170.9999
0
LINE
8
OHNE_NAMEN
6
CONTINUOUS
62
5
39
0.0000
10
99.4999
20
170.9999
11
135.4998
21
126.5001
0
LINE
8
OHNE_NAMEN
6
CONTINUOUS
62
5
39
0.0000
10
95.5001
20
173.9999
11
97.5000
21
173.9999
0
LINE
8
OHNE_NAMEN
6
CONTINUOUS
62
5
39
0.0000
10
95.5001
20
173.9999
11
95.5001
21
170.9999
0
LINE
8
OHNE_NAMEN
6
CONTINUOUS
62
5
39
0.0000
10
95.5001
20
170.9999
11
93.4999
21
170.9999
0
LINE
8
OHNE_NAMEN
6
CONTINUOUS
62
5
39
0.0000
10
97.5000
20
173.9999
11
97.5000
21
170.9999
0
LINE
8
OHNE_NAMEN
6
CONTINUOUS
62
5
39
0.0000
10
97.5000
20
170.9999
11
99.4999
21
170.9999
0
LINE
8
OHNE_NAMEN
6
CONTINUOUS
62
5
39
0.0000
10
55.9999
20
126.5008
11
57.5000
21
126.5008
0
LINE
8
OHNE_NAMEN
6
CONTINUOUS
62
5
39
0.0000
10
135.5002
20
126.5008
11
136.9998
21
126.5008
0
LINE
8
OHNE_NAMEN
6
CONTINUOUS
62
5
39
0.0000
10
55.9999
20
122.0008
11
96.5754
21
171.9397
0
LINE
8
OHNE_NAMEN
6
CONTINUOUS
62
5
39
0.0000
10
96.4999
20
172.0007
11
137.0753
21
122.0618
0
LINE
8
OHNE_NAMEN
6
CONTINUOUS
62
5
39
0.0000
10
57.5000
20
122.0001
11
93.4999
21
166.5002
0
LINE
8
OHNE_NAMEN
6
CONTINUOUS
62
5
39
0.0000
10
99.4999
20
166.5002
11
135.4998
21
122.0001
0
LINE
8
OHNE_NAMEN
6
CONTINUOUS
62
5
39
0.0000
10
95.5001
20
169.5002
11
97.5000
21
169.5002
0
LINE
8
OHNE_NAMEN
6
CONTINUOUS
62
5
39
0.0000
10
95.5001
20
169.5002
11
95.5001
21
166.5002
0
LINE
8
OHNE_NAMEN
6
CONTINUOUS
62
5
39
0.0000
10
95.5001
20
166.5002
11
93.4999
21
166.5002
0
LINE
8
OHNE_NAMEN
6
CONTINUOUS
62
5
39
0.0000
10
97.5000
20
169.5002
11
97.5000
21
166.5002
0
LINE
8
OHNE_NAMEN
6
CONTINUOUS
62
5
39
0.0000
10
97.5000
20
166.5002
11
99.4999
21
166.5002
0
LINE
8
OHNE_NAMEN
6
CONTINUOUS
62
5
39
0.0000
10
55.9999
20
122.0008
11
57.5000
21
122.0008
0
LINE
8
OHNE_NAMEN
6
CONTINUOUS
62
5
39
0.0000
10
135.5002
20
122.0008
11
136.9998
21
122.0008
0
LINE
8
OHNE_NAMEN
6
CONTINUOUS
62
5
39
0.0000
10
55.9999
20
117.5007
11
96.5754
21
167.4396
0
LINE
8
OHNE_NAMEN
6
CONTINUOUS
62
5
39
0.0000
10
96.4999
20
167.5007
11
137.0753
21
117.5618
0
LINE
8
OHNE_NAMEN
6
CONTINUOUS
62
5
39
0.0000
10
57.5000
20
117.5001
11
93.4999
21
162.0001
0
LINE
8
OHNE_NAMEN
6
CONTINUOUS
62
5
39
0.0000
10
99.4999
20
162.0001
11
135.4998
21
117.5001
0
LINE
8
OHNE_NAMEN
6
CONTINUOUS
62
5
39
0.0000
10
95.5001
20
165.0002
11
97.5000
21
165.0002
0
LINE
8
OHNE_NAMEN
6
CONTINUOUS
62
5
39
0.0000
10
95.5001
20
165.0002
11
95.5001
21
162.0001
0
LINE
8
OHNE_NAMEN
6
CONTINUOUS
62
5
39
0.0000
10
95.5001
20
162.0001
11
93.4999
21
162.0001
0
LINE
8
OHNE_NAMEN
6
CONTINUOUS
62
5
39
0.0000
10
97.5000
20
165.0002
11
97.5000
21
162.0001
0
LINE
8
OHNE_NAMEN
6
CONTINUOUS
62
5
39
0.0000
10
97.5000
20
162.0001
11
99.4999
21
162.0001
0
LINE
8
OHNE_NAMEN
6
CONTINUOUS
62
5
39
0.0000
10
55.9999
20
117.5007
11
57.5000
21
117.5007
0
LINE
8
OHNE_NAMEN
6
CONTINUOUS
62
5
39
0.0000
10
135.5002
20
117.5007
11
136.9998
21
117.5007
0
LINE
8
OHNE_NAMEN
6
CONTINUOUS
62
5
39
0.0000
10
55.9999
20
113.0007
11
96.5754
21
162.9396
0
LINE
8
OHNE_NAMEN
6
CONTINUOUS
62
5
39
0.0000
10
96.4999
20
163.0006
11
137.0753
21
113.0617
0
LINE
8
OHNE_NAMEN
6
CONTINUOUS
62
5
39
0.0000
10
57.5000
20
113.0000
11
93.4999
21
157.5001
0
LINE
8
OHNE_NAMEN
6
CONTINUOUS
62
5
39
0.0000
10
99.4999
20
157.5001
11
135.4998
21
113.0000
0
LINE
8
OHNE_NAMEN
6
CONTINUOUS
62
5
39
0.0000
10
95.5001
20
160.5001
11
97.5000
21
160.5001
0
LINE
8
OHNE_NAMEN
6
CONTINUOUS
62
5
39
0.0000
10
95.5001
20
160.5001
11
95.5001
21
157.5001
0
LINE
8
OHNE_NAMEN
6
CONTINUOUS
62
5
39
0.0000
10
95.5001
20
157.5001
11
93.4999
21
157.5001
0
LINE
8
OHNE_NAMEN
6
CONTINUOUS
62
5
39
0.0000
10
97.5000
20
160.5001
11
97.5000
21
157.5001
0
LINE
8
OHNE_NAMEN
6
CONTINUOUS
62
5
39
0.0000
10
97.5000
20
157.5001
11
99.4999
21
157.5001
0
LINE
8
OHNE_NAMEN
6
CONTINUOUS
62
5
39
0.0000
10
55.9999
20
113.0007
11
57.5000
21
113.0007
0
LINE
8
OHNE_NAMEN
6
CONTINUOUS
62
5
39
0.0000
10
135.5002
20
113.0007
11
136.9998
21
113.0007
0
LINE
8
OHNE_NAMEN
6
CONTINUOUS
62
5
39
0.0000
10
55.9999
20
108.5007
11
96.5754
21
158.4395
0
LINE
8
OHNE_NAMEN
6
CONTINUOUS
62
5
39
0.0000
10
96.4999
20
158.5006
11
137.0753
21
108.5617
0
LINE
8
OHNE_NAMEN
6
CONTINUOUS
62
5
39
0.0000
10
57.5000
20
108.5000
11
93.4999
21
153.0001
0
LINE
8
OHNE_NAMEN
6
CONTINUOUS
62
5
39
0.0000
10
99.4999
20
153.0001
11
135.4998
21
108.5000
0
LINE
8
OHNE_NAMEN
6
CONTINUOUS
62
5
39
0.0000
10
95.5001
20
156.0001
11
97.5000
21
156.0001
0
LINE
8
OHNE_NAMEN
6
CONTINUOUS
62
5
39
0.0000
10
95.5001
20
156.0001
11
95.5001
21
153.0001
0
LINE
8
OHNE_NAMEN
6
CONTINUOUS
62
5
39
0.0000
10
95.5001
20
153.0001
11
93.4999
21
153.0001
0
LINE
8
OHNE_NAMEN
6
CONTINUOUS
62
5
39
0.0000
10
97.5000
20
156.0001
11
97.5000
21
153.0001
0
LINE
8
OHNE_NAMEN
6
CONTINUOUS
62
5
39
0.0000
10
97.5000
20
153.0001
11
99.4999
21
153.0001
0
LINE
8
OHNE_NAMEN
6
CONTINUOUS
62
5
39
0.0000
10
55.9999
20
108.5007
11
57.5000
21
108.5007
0
LINE
8
OHNE_NAMEN
6
CONTINUOUS
62
5
39
0.0000
10
135.5002
20
108.5007
11
136.9998
21
108.5007
0
LINE
8
OHNE_NAMEN
6
CONTINUOUS
62
5
39
0.0000
10
55.9999
20
104.0007
11
96.5754
21
153.9395
0
LINE
8
OHNE_NAMEN
6
CONTINUOUS
62
5
39
0.0000
10
96.4999
20
154.0005
11
137.0753
21
104.0617
0
LINE
8
OHNE_NAMEN
6
CONTINUOUS
62
5
39
0.0000
10
57.5000
20
103.9999
11
93.4999
21
148.5000
0
LINE
8
OHNE_NAMEN
6
CONTINUOUS
62
5
39
0.0000
10
99.4999
20
148.5000
11
135.4998
21
103.9999
0
LINE
8
OHNE_NAMEN
6
CONTINUOUS
62
5
39
0.0000
10
95.5001
20
151.5001
11
97.5000
21
151.5001
0
LINE
8
OHNE_NAMEN
6
CONTINUOUS
62
5
39
0.0000
10
95.5001
20
151.5001
11
95.5001
21
148.5000
0
LINE
8
OHNE_NAMEN
6
CONTINUOUS
62
5
39
0.0000
10
95.5001
20
148.5000
11
93.4999
21
148.5000
0
LINE
8
OHNE_NAMEN
6
CONTINUOUS
62
5
39
0.0000
10
97.5000
20
151.5001
11
97.5000
21
148.5000
0
LINE
8
OHNE_NAMEN
6
CONTINUOUS
62
5
39
0.0000
10
97.5000
20
148.5000
11
99.4999
21
148.5000
0
LINE
8
OHNE_NAMEN
6
CONTINUOUS
62
5
39
0.0000
10
55.9999
20
104.0007
11
57.5000
21
104.0007
0
LINE
8
OHNE_NAMEN
6
CONTINUOUS
62
5
39
0.0000
10
135.5002
20
104.0007
11
136.9998
21
104.0007
0
LINE
8
OHNE_NAMEN
6
CONTINUOUS
62
5
39
0.0000
10
55.9999
20
99.5006
11
96.5754
21
149.4395
0
LINE
8
OHNE_NAMEN
6
CONTINUOUS
62
5
39
0.0000
10
96.4999
20
149.5009
11
137.0753
21
99.5616
0
LINE
8
OHNE_NAMEN
6
CONTINUOUS
62
5
39
0.0000
10
57.5000
20
99.4999
11
93.4999
21
144.0000
0
LINE
8
OHNE_NAMEN
6
CONTINUOUS
62
5
39
0.0000
10
99.4999
20
144.0000
11
135.4998
21
99.4999
0
LINE
8
OHNE_NAMEN
6
CONTINUOUS
62
5
39
0.0000
10
95.5001
20
147.0000
11
97.5000
21
147.0000
0
LINE
8
OHNE_NAMEN
6
CONTINUOUS
62
5
39
0.0000
10
95.5001
20
147.0000
11
95.5001
21
144.0000
0
LINE
8
OHNE_NAMEN
6
CONTINUOUS
62
5
39
0.0000
10
95.5001
20
144.0000
11
93.4999
21
144.0000
0
LINE
8
OHNE_NAMEN
6
CONTINUOUS
62
5
39
0.0000
10
97.5000
20
147.0000
11
97.5000
21
144.0000
0
LINE
8
OHNE_NAMEN
6
CONTINUOUS
62
5
39
0.0000
10
97.5000
20
144.0000
11
99.4999
21
144.0000
0
LINE
8
OHNE_NAMEN
6
CONTINUOUS
62
5
39
0.0000
10
55.9999
20
99.5006
11
57.5000
21
99.5006
0
LINE
8
OHNE_NAMEN
6
CONTINUOUS
62
5
39
0.0000
10
135.5002
20
99.5006
11
136.9998
21
99.5006
0
LINE
8
OHNE_NAMEN
6
CONTINUOUS
62
5
39
0.0000
10
55.9999
20
95.0006
11
96.5754
21
144.9395
0
LINE
8
OHNE_NAMEN
6
CONTINUOUS
62
5
39
0.0000
10
96.4999
20
145.0008
11
137.0753
21
95.0620
0
LINE
8
OHNE_NAMEN
6
CONTINUOUS
62
5
39
0.0000
10
57.5000
20
95.0002
11
93.4999
21
139.5000
0
LINE
8
OHNE_NAMEN
6
CONTINUOUS
62
5
39
0.0000
10
99.4999
20
139.5000
11
135.4998
21
95.0002
0
LINE
8
OHNE_NAMEN
6
CONTINUOUS
62
5
39
0.0000
10
95.5001
20
142.5000
11
97.5000
21
142.5000
0
LINE
8
OHNE_NAMEN
6
CONTINUOUS
62
5
39
0.0000
10
95.5001
20
142.5000
11
95.5001
21
139.5000
0
LINE
8
OHNE_NAMEN
6
CONTINUOUS
62
5
39
0.0000
10
95.5001
20
139.5000
11
93.4999
21
139.5000
0
LINE
8
OHNE_NAMEN
6
CONTINUOUS
62
5
39
0.0000
10
97.5000
20
142.5000
11
97.5000
21
139.5000
0
LINE
8
OHNE_NAMEN
6
CONTINUOUS
62
5
39
0.0000
10
97.5000
20
139.5000
11
99.4999
21
139.5000
0
LINE
8
OHNE_NAMEN
6
CONTINUOUS
62
5
39
0.0000
10
55.9999
20
95.0006
11
57.5000
21
95.0006
0
LINE
8
OHNE_NAMEN
6
CONTINUOUS
62
5
39
0.0000
10
135.5002
20
95.0006
11
136.9998
21
95.0006
0
LINE
8
OHNE_NAMEN
6
CONTINUOUS
62
5
39
0.0000
10
55.9999
20
90.5005
11
96.5754
21
140.4398
0
LINE
8
OHNE_NAMEN
6
CONTINUOUS
62
5
39
0.0000
10
96.4999
20
140.5008
11
137.0753
21
90.5619
0
LINE
8
OHNE_NAMEN
6
CONTINUOUS
62
5
39
0.0000
10
57.5000
20
90.5002
11
93.4999
21
134.9999
0
LINE
8
OHNE_NAMEN
6
CONTINUOUS
62
5
39
0.0000
10
99.4999
20
134.9999
11
135.4998
21
90.5002
0
LINE
8
OHNE_NAMEN
6
CONTINUOUS
62
5
39
0.0000
10
95.5001
20
138.0000
11
97.5000
21
138.0000
0
LINE
8
OHNE_NAMEN
6
CONTINUOUS
62
5
39
0.0000
10
95.5001
20
138.0000
11
95.5001
21
134.9999
0
LINE
8
OHNE_NAMEN
6
CONTINUOUS
62
5
39
0.0000
10
95.5001
20
134.9999
11
93.4999
21
134.9999
0
LINE
8
OHNE_NAMEN
6
CONTINUOUS
62
5
39
0.0000
10
97.5000
20
138.0000
11
97.5000
21
134.9999
0
LINE
8
OHNE_NAMEN
6
CONTINUOUS
62
5
39
0.0000
10
97.5000
20
134.9999
11
99.4999
21
134.9999
0
LINE
8
OHNE_NAMEN
6
CONTINUOUS
62
5
39
0.0000
10
55.9999
20
90.5005
11
57.5000
21
90.5005
0
LINE
8
OHNE_NAMEN
6
CONTINUOUS
62
5
39
0.0000
10
135.5002
20
90.5005
11
136.9998
21
90.5005
0
LINE
8
OHNE_NAMEN
6
CONTINUOUS
62
5
39
0.0000
10
55.9999
20
86.0009
11
96.5754
21
135.9397
0
LINE
8
OHNE_NAMEN
6
CONTINUOUS
62
5
39
0.0000
10
96.4999
20
136.0008
11
137.0753
21
86.0619
0
LINE
8
OHNE_NAMEN
6
CONTINUOUS
62
5
39
0.0000
10
57.5000
20
86.0002
11
93.4999
21
130.4999
0
LINE
8
OHNE_NAMEN
6
CONTINUOUS
62
5
39
0.0000
10
99.4999
20
130.4999
11
135.4998
21
86.0002
0
LINE
8
OHNE_NAMEN
6
CONTINUOUS
62
5
39
0.0000
10
95.5001
20
133.4999
11
97.5000
21
133.4999
0
LINE
8
OHNE_NAMEN
6
CONTINUOUS
62
5
39
0.0000
10
95.5001
20
133.4999
11
95.5001
21
130.4999
0
LINE
8
OHNE_NAMEN
6
CONTINUOUS
62
5
39
0.0000
10
95.5001
20
130.4999
11
93.4999
21
130.4999
0
LINE
8
OHNE_NAMEN
6
CONTINUOUS
62
5
39
0.0000
10
97.5000
20
133.4999
11
97.5000
21
130.4999
0
LINE
8
OHNE_NAMEN
6
CONTINUOUS
62
5
39
0.0000
10
97.5000
20
130.4999
11
99.4999
21
130.4999
0
LINE
8
OHNE_NAMEN
6
CONTINUOUS
62
5
39
0.0000
10
55.9999
20
86.0009
11
57.5000
21
86.0009
0
LINE
8
OHNE_NAMEN
6
CONTINUOUS
62
5
39
0.0000
10
135.5002
20
86.0005
11
136.9998
21
86.0005
0
LINE
8
OHNE_NAMEN
6
CONTINUOUS
62
5
39
0.0000
10
55.9999
20
81.5008
11
96.5754
21
131.4397
0
LINE
8
OHNE_NAMEN
6
CONTINUOUS
62
5
39
0.0000
10
96.4999
20
131.5007
11
137.0753
21
81.5619
0
LINE
8
OHNE_NAMEN
6
CONTINUOUS
62
5
39
0.0000
10
57.5000
20
81.5001
11
93.4999
21
126.0002
0
LINE
8
OHNE_NAMEN
6
CONTINUOUS
62
5
39
0.0000
10
99.4999
20
126.0002
11
135.4998
21
81.5001
0
LINE
8
OHNE_NAMEN
6
CONTINUOUS
62
5
39
0.0000
10
95.5001
20
129.0003
11
97.5000
21
129.0003
0
LINE
8
OHNE_NAMEN
6
CONTINUOUS
62
5
39
0.0000
10
95.5001
20
129.0003
11
95.5001
21
126.0002
0
LINE
8
OHNE_NAMEN
6
CONTINUOUS
62
5
39
0.0000
10
95.5001
20
126.0002
11
93.4999
21
126.0002
0
LINE
8
OHNE_NAMEN
6
CONTINUOUS
62
5
39
0.0000
10
97.5000
20
129.0003
11
97.5000
21
126.0002
0
LINE
8
OHNE_NAMEN
6
CONTINUOUS
62
5
39
0.0000
10
97.5000
20
126.0002
11
99.4999
21
126.0002
0
LINE
8
OHNE_NAMEN
6
CONTINUOUS
62
5
39
0.0000
10
55.9999
20
81.5008
11
57.5000
21
81.5008
0
LINE
8
OHNE_NAMEN
6
CONTINUOUS
62
5
39
0.0000
10
135.4998
20
81.5008
11
136.9998
21
81.5008
0
LINE
8
OHNE_NAMEN
6
CONTINUOUS
62
5
39
0.0000
10
55.9999
20
77.0008
11
96.5754
21
126.9397
0
LINE
8
OHNE_NAMEN
6
CONTINUOUS
62
5
39
0.0000
10
96.4999
20
127.0007
11
137.0753
21
77.0618
0
LINE
8
OHNE_NAMEN
6
CONTINUOUS
62
5
39
0.0000
10
57.5000
20
77.0001
11
93.4999
21
121.5002
0
LINE
8
OHNE_NAMEN
6
CONTINUOUS
62
5
39
0.0000
10
99.4999
20
121.5002
11
135.4998
21
77.0001
0
LINE
8
OHNE_NAMEN
6
CONTINUOUS
62
5
39
0.0000
10
95.5001
20
124.5002
11
97.5000
21
124.5002
0
LINE
8
OHNE_NAMEN
6
CONTINUOUS
62
5
39
0.0000
10
95.5001
20
124.5002
11
95.5001
21
121.5002
0
LINE
8
OHNE_NAMEN
6
CONTINUOUS
62
5
39
0.0000
10
95.5001
20
121.5002
11
93.4999
21
121.5002
0
LINE
8
OHNE_NAMEN
6
CONTINUOUS
62
5
39
0.0000
10
97.5000
20
124.5002
11
97.5000
21
121.5002
0
LINE
8
OHNE_NAMEN
6
CONTINUOUS
62
5
39
0.0000
10
97.5000
20
121.5002
11
99.4999
21
121.5002
0
LINE
8
OHNE_NAMEN
6
CONTINUOUS
62
5
39
0.0000
10
55.9999
20
77.0008
11
57.5000
21
77.0008
0
LINE
8
OHNE_NAMEN
6
CONTINUOUS
62
5
39
0.0000
10
135.5002
20
77.0008
11
136.9998
21
77.0008
0
LINE
8
OHNE_NAMEN
6
CONTINUOUS
62
5
39
0.0000
10
55.9999
20
72.5008
11
96.5754
21
122.4396
0
LINE
8
OHNE_NAMEN
6
CONTINUOUS
62
5
39
0.0000
10
96.4999
20
122.5007
11
137.0753
21
72.5618
0
LINE
8
OHNE_NAMEN
6
CONTINUOUS
62
5
39
0.0000
10
57.5000
20
72.5001
11
93.4999
21
117.0002
0
LINE
8
OHNE_NAMEN
6
CONTINUOUS
62
5
39
0.0000
10
99.4999
20
117.0002
11
135.4998
21
72.5001
0
LINE
8
OHNE_NAMEN
6
CONTINUOUS
62
5
39
0.0000
10
95.5001
20
120.0002
11
97.5000
21
120.0002
0
LINE
8
OHNE_NAMEN
6
CONTINUOUS
62
5
39
0.0000
10
95.5001
20
120.0002
11
95.5001
21
117.0002
0
LINE
8
OHNE_NAMEN
6
CONTINUOUS
62
5
39
0.0000
10
95.5001
20
117.0002
11
93.4999
21
117.0002
0
LINE
8
OHNE_NAMEN
6
CONTINUOUS
62
5
39
0.0000
10
97.5000
20
120.0002
11
97.5000
21
117.0002
0
LINE
8
OHNE_NAMEN
6
CONTINUOUS
62
5
39
0.0000
10
97.5000
20
117.0002
11
99.4999
21
117.0002
0
LINE
8
OHNE_NAMEN
6
CONTINUOUS
62
5
39
0.0000
10
55.9999
20
72.5008
11
57.5000
21
72.5008
0
LINE
8
OHNE_NAMEN
6
CONTINUOUS
62
5
39
0.0000
10
135.5002
20
72.5008
11
136.9998
21
72.5008
0
LINE
8
OHNE_NAMEN
6
CONTINUOUS
62
5
39
0.0000
10
55.9999
20
68.0007
11
96.5754
21
117.9396
0
LINE
8
OHNE_NAMEN
6
CONTINUOUS
62
5
39
0.0000
10
96.4999
20
118.0006
11
137.0753
21
68.0618
0
LINE
8
OHNE_NAMEN
6
CONTINUOUS
62
5
39
0.0000
10
57.5000
20
68.0000
11
93.4999
21
112.5001
0
LINE
8
OHNE_NAMEN
6
CONTINUOUS
62
5
39
0.0000
10
99.4999
20
112.5001
11
135.4998
21
68.0000
0
LINE
8
OHNE_NAMEN
6
CONTINUOUS
62
5
39
0.0000
10
95.5001
20
115.5001
11
97.5000
21
115.5001
0
LINE
8
OHNE_NAMEN
6
CONTINUOUS
62
5
39
0.0000
10
95.5001
20
115.5001
11
95.5001
21
112.5001
0
LINE
8
OHNE_NAMEN
6
CONTINUOUS
62
5
39
0.0000
10
95.5001
20
112.5001
11
93.4999
21
112.5001
0
LINE
8
OHNE_NAMEN
6
CONTINUOUS
62
5
39
0.0000
10
97.5000
20
115.5001
11
97.5000
21
112.5001
0
LINE
8
OHNE_NAMEN
6
CONTINUOUS
62
5
39
0.0000
10
97.5000
20
112.5001
11
99.4999
21
112.5001
0
LINE
8
OHNE_NAMEN
6
CONTINUOUS
62
5
39
0.0000
10
55.9999
20
68.0007
11
57.5000
21
68.0007
0
LINE
8
OHNE_NAMEN
6
CONTINUOUS
62
5
39
0.0000
10
135.5002
20
68.0007
11
136.9998
21
68.0007
0
LINE
8
OHNE_NAMEN
6
CONTINUOUS
62
5
39
0.0000
10
55.9999
20
63.5007
11
96.5754
21
113.4396
0
LINE
8
OHNE_NAMEN
6
CONTINUOUS
62
5
39
0.0000
10
96.4999
20
113.5006
11
137.0753
21
63.5617
0
LINE
8
OHNE_NAMEN
6
CONTINUOUS
62
5
39
0.0000
10
57.5000
20
63.5000
11
93.4999
21
108.0001
0
LINE
8
OHNE_NAMEN
6
CONTINUOUS
62
5
39
0.0000
10
99.4999
20
108.0001
11
135.4998
21
63.5000
0
LINE
8
OHNE_NAMEN
6
CONTINUOUS
62
5
39
0.0000
10
95.5001
20
111.0001
11
97.5000
21
111.0001
0
LINE
8
OHNE_NAMEN
6
CONTINUOUS
62
5
39
0.0000
10
95.5001
20
111.0001
11
95.5001
21
108.0001
0
LINE
8
OHNE_NAMEN
6
CONTINUOUS
62
5
39
0.0000
10
95.5001
20
108.0001
11
93.4999
21
108.0001
0
LINE
8
OHNE_NAMEN
6
CONTINUOUS
62
5
39
0.0000
10
97.5000
20
111.0001
11
97.5000
21
108.0001
0
LINE
8
OHNE_NAMEN
6
CONTINUOUS
62
5
39
0.0000
10
97.5000
20
108.0001
11
99.4999
21
108.0001
0
LINE
8
OHNE_NAMEN
6
CONTINUOUS
62
5
39
0.0000
10
55.9999
20
63.5007
11
57.5000
21
63.5007
0
LINE
8
OHNE_NAMEN
6
CONTINUOUS
62
5
39
0.0000
10
135.5002
20
63.5007
11
136.9998
21
63.5007
0
LINE
8
OHNE_NAMEN
6
CONTINUOUS
62
5
39
0.0000
10
55.9999
20
59.0007
11
96.5754
21
108.9395
0
LINE
8
OHNE_NAMEN
6
CONTINUOUS
62
5
39
0.0000
10
96.4999
20
109.0009
11
137.0753
21
59.0617
0
LINE
8
OHNE_NAMEN
6
CONTINUOUS
62
5
39
0.0000
10
57.5000
20
59.0000
11
93.4999
21
103.5001
0
LINE
8
OHNE_NAMEN
6
CONTINUOUS
62
5
39
0.0000
10
99.4999
20
103.5001
11
135.4998
21
59.0000
0
LINE
8
OHNE_NAMEN
6
CONTINUOUS
62
5
39
0.0000
10
95.5001
20
106.5001
11
97.5000
21
106.5001
0
LINE
8
OHNE_NAMEN
6
CONTINUOUS
62
5
39
0.0000
10
95.5001
20
106.5001
11
95.5001
21
103.5001
0
LINE
8
OHNE_NAMEN
6
CONTINUOUS
62
5
39
0.0000
10
95.5001
20
103.5001
11
93.4999
21
103.5001
0
LINE
8
OHNE_NAMEN
6
CONTINUOUS
62
5
39
0.0000
10
97.5000
20
106.5001
11
97.5000
21
103.5001
0
LINE
8
OHNE_NAMEN
6
CONTINUOUS
62
5
39
0.0000
10
97.5000
20
103.5001
11
99.4999
21
103.5001
0
LINE
8
OHNE_NAMEN
6
CONTINUOUS
62
5
39
0.0000
10
55.9999
20
59.0007
11
57.5000
21
59.0007
0
LINE
8
OHNE_NAMEN
6
CONTINUOUS
62
5
39
0.0000
10
135.5002
20
59.0007
11
136.9998
21
59.0007
0
LINE
8
OHNE_NAMEN
6
CONTINUOUS
62
5
39
0.0000
10
55.9999
20
54.5006
11
96.5754
21
104.4395
0
LINE
8
OHNE_NAMEN
6
CONTINUOUS
62
5
39
0.0000
10
96.4999
20
104.5009
11
137.0753
21
54.5620
0
LINE
8
OHNE_NAMEN
6
CONTINUOUS
62
5
39
0.0000
10
57.5000
20
54.5003
11
93.4999
21
99.0000
0
LINE
8
OHNE_NAMEN
6
CONTINUOUS
62
5
39
0.0000
10
99.4999
20
99.0000
11
135.4998
21
54.5003
0
LINE
8
OHNE_NAMEN
6
CONTINUOUS
62
5
39
0.0000
10
95.5001
20
102.0000
11
97.5000
21
102.0000
0
LINE
8
OHNE_NAMEN
6
CONTINUOUS
62
5
39
0.0000
10
95.5001
20
102.0000
11
95.5001
21
99.0000
0
LINE
8
OHNE_NAMEN
6
CONTINUOUS
62
5
39
0.0000
10
95.5001
20
99.0000
11
93.4999
21
99.0000
0
LINE
8
OHNE_NAMEN
6
CONTINUOUS
62
5
39
0.0000
10
97.5000
20
102.0000
11
97.5000
21
99.0000
0
LINE
8
OHNE_NAMEN
6
CONTINUOUS
62
5
39
0.0000
10
97.5000
20
99.0000
11
99.4999
21
99.0000
0
LINE
8
OHNE_NAMEN
6
CONTINUOUS
62
5
39
0.0000
10
55.9999
20
54.5006
11
57.5000
21
54.5006
0
LINE
8
OHNE_NAMEN
6
CONTINUOUS
62
5
39
0.0000
10
135.5002
20
54.5006
11
136.9998
21
54.5006
0
LINE
8
OHNE_NAMEN
6
CONTINUOUS
62
5
39
0.0000
10
55.9999
20
50.0006
11
96.5754
21
99.9398
0
LINE
8
OHNE_NAMEN
6
CONTINUOUS
62
5
39
0.0000
10
96.4999
20
100.0009
11
137.0753
21
50.0620
0
LINE
8
OHNE_NAMEN
6
CONTINUOUS
62
5
39
0.0000
10
57.5000
20
50.0003
11
93.4999
21
94.5000
0
LINE
8
OHNE_NAMEN
6
CONTINUOUS
62
5
39
0.0000
10
99.4999
20
94.5000
11
135.4998
21
50.0003
0
LINE
8
OHNE_NAMEN
6
CONTINUOUS
62
5
39
0.0000
10
95.5001
20
97.5000
11
97.5000
21
97.5000
0
LINE
8
OHNE_NAMEN
6
CONTINUOUS
62
5
39
0.0000
10
95.5001
20
97.5000
11
95.5001
21
94.5000
0
LINE
8
OHNE_NAMEN
6
CONTINUOUS
62
5
39
0.0000
10
95.5001
20
94.5000
11
93.4999
21
94.5000
0
LINE
8
OHNE_NAMEN
6
CONTINUOUS
62
5
39
0.0000
10
97.5000
20
97.5000
11
97.5000
21
94.5000
0
LINE
8
OHNE_NAMEN
6
CONTINUOUS
62
5
39
0.0000
10
97.5000
20
94.5000
11
99.4999
21
94.5000
0
LINE
8
OHNE_NAMEN
6
CONTINUOUS
62
5
39
0.0000
10
55.9999
20
50.0006
11
57.5000
21
50.0006
0
LINE
8
OHNE_NAMEN
6
CONTINUOUS
62
5
39
0.0000
10
135.5002
20
50.0006
11
136.9998
21
50.0006
0
LINE
8
OHNE_NAMEN
6
CONTINUOUS
62
5
39
0.0000
10
55.9999
20
45.5009
11
96.5754
21
95.4398
0
LINE
8
OHNE_NAMEN
6
CONTINUOUS
62
5
39
0.0000
10
96.4999
20
95.5008
11
137.0753
21
45.5620
0
LINE
8
OHNE_NAMEN
6
CONTINUOUS
62
5
39
0.0000
10
57.5000
20
45.5002
11
93.4999
21
90.0000
0
LINE
8
OHNE_NAMEN
6
CONTINUOUS
62
5
39
0.0000
10
99.4999
20
90.0000
11
135.4998
21
45.5002
0
LINE
8
OHNE_NAMEN
6
CONTINUOUS
62
5
39
0.0000
10
95.5001
20
93.0000
11
97.5000
21
93.0000
0
LINE
8
OHNE_NAMEN
6
CONTINUOUS
62
5
39
0.0000
10
95.5001
20
93.0000
11
95.5001
21
90.0000
0
LINE
8
OHNE_NAMEN
6
CONTINUOUS
62
5
39
0.0000
10
95.5001
20
90.0000
11
93.4999
21
90.0000
0
LINE
8
OHNE_NAMEN
6
CONTINUOUS
62
5
39
0.0000
10
97.5000
20
93.0000
11
97.5000
21
90.0000
0
LINE
8
OHNE_NAMEN
6
CONTINUOUS
62
5
39
0.0000
10
97.5000
20
90.0000
11
99.4999
21
90.0000
0
LINE
8
OHNE_NAMEN
6
CONTINUOUS
62
5
39
0.0000
10
55.9999
20
45.5009
11
57.5000
21
45.5009
0
LINE
8
OHNE_NAMEN
6
CONTINUOUS
62
5
39
0.0000
10
135.5002
20
45.5006
11
136.9998
21
45.5006
0
LINE
8
OHNE_NAMEN
6
CONTINUOUS
62
5
39
0.0000
10
55.9999
20
41.0009
11
96.5754
21
90.9398
0
LINE
8
OHNE_NAMEN
6
CONTINUOUS
62
5
39
0.0000
10
96.4999
20
91.0008
11
137.0753
21
41.0619
0
LINE
8
OHNE_NAMEN
6
CONTINUOUS
62
5
39
0.0000
10
57.5000
20
41.0002
11
93.4999
21
85.5003
0
LINE
8
OHNE_NAMEN
6
CONTINUOUS
62
5
39
0.0000
10
99.4999
20
85.5003
11
135.4998
21
41.0002
0
LINE
8
OHNE_NAMEN
6
CONTINUOUS
62
5
39
0.0000
10
95.5001
20
88.5003
11
97.5000
21
88.5003
0
LINE
8
OHNE_NAMEN
6
CONTINUOUS
62
5
39
0.0000
10
95.5001
20
88.5003
11
95.5001
21
85.5003
0
LINE
8
OHNE_NAMEN
6
CONTINUOUS
62
5
39
0.0000
10
95.5001
20
85.5003
11
93.4999
21
85.5003
0
LINE
8
OHNE_NAMEN
6
CONTINUOUS
62
5
39
0.0000
10
97.5000
20
88.5003
11
97.5000
21
85.5003
0
LINE
8
OHNE_NAMEN
6
CONTINUOUS
62
5
39
0.0000
10
97.5000
20
85.5003
11
99.4999
21
85.5003
0
LINE
8
OHNE_NAMEN
6
CONTINUOUS
62
5
39
0.0000
10
55.9999
20
41.0009
11
57.5000
21
41.0009
0
LINE
8
OHNE_NAMEN
6
CONTINUOUS
62
5
39
0.0000
10
135.5002
20
41.0009
11
136.9998
21
41.0009
0
LINE
8
OHNE_NAMEN
6
CONTINUOUS
62
5
39
0.0000
10
55.9999
20
36.5009
11
96.5754
21
86.4397
0
LINE
8
OHNE_NAMEN
6
CONTINUOUS
62
5
39
0.0000
10
96.4999
20
86.5008
11
137.0753
21
36.5619
0
LINE
8
OHNE_NAMEN
6
CONTINUOUS
62
5
39
0.0000
10
57.5000
20
36.5002
11
93.4999
21
81.0002
0
LINE
8
OHNE_NAMEN
6
CONTINUOUS
62
5
39
0.0000
10
99.4999
20
81.0002
11
135.4998
21
36.5002
0
LINE
8
OHNE_NAMEN
6
CONTINUOUS
62
5
39
0.0000
10
95.5001
20
84.0003
11
97.5000
21
84.0003
0
LINE
8
OHNE_NAMEN
6
CONTINUOUS
62
5
39
0.0000
10
95.5001
20
84.0003
11
95.5001
21
81.0002
0
LINE
8
OHNE_NAMEN
6
CONTINUOUS
62
5
39
0.0000
10
95.5001
20
81.0002
11
93.4999
21
81.0002
0
LINE
8
OHNE_NAMEN
6
CONTINUOUS
62
5
39
0.0000
10
97.5000
20
84.0003
11
97.5000
21
81.0002
0
LINE
8
OHNE_NAMEN
6
CONTINUOUS
62
5
39
0.0000
10
97.5000
20
81.0002
11
99.4999
21
81.0002
0
LINE
8
OHNE_NAMEN
6
CONTINUOUS
62
5
39
0.0000
10
55.9999
20
36.5009
11
57.5000
21
36.5009
0
LINE
8
OHNE_NAMEN
6
CONTINUOUS
62
5
39
0.0000
10
135.5002
20
36.5009
11
136.9998
21
36.5009
0
LINE
8
OHNE_NAMEN
6
CONTINUOUS
62
5
39
0.0000
10
55.9999
20
31.5008
11
96.5754
21
81.4398
0
LINE
8
OHNE_NAMEN
6
CONTINUOUS
62
5
39
0.0000
10
96.4999
20
81.5008
11
137.0753
21
31.5619
0
LINE
8
OHNE_NAMEN
6
CONTINUOUS
62
5
39
0.0000
10
57.5000
20
31.5002
11
93.4999
21
76.0003
0
LINE
8
OHNE_NAMEN
6
CONTINUOUS
62
5
39
0.0000
10
99.4999
20
76.0003
11
135.5002
21
31.5002
0
LINE
8
OHNE_NAMEN
6
CONTINUOUS
62
5
39
0.0000
10
95.5001
20
79.0000
11
97.5000
21
79.0000
0
LINE
8
OHNE_NAMEN
6
CONTINUOUS
62
5
39
0.0000
10
95.5001
20
79.0000
11
95.5001
21
76.0003
0
LINE
8
OHNE_NAMEN
6
CONTINUOUS
62
5
39
0.0000
10
95.5001
20
76.0003
11
93.4999
21
76.0003
0
LINE
8
OHNE_NAMEN
6
CONTINUOUS
62
5
39
0.0000
10
97.5000
20
79.0000
11
97.5000
21
76.0003
0
LINE
8
OHNE_NAMEN
6
CONTINUOUS
62
5
39
0.0000
10
97.5000
20
76.0003
11
99.4999
21
76.0003
0
LINE
8
OHNE_NAMEN
6
CONTINUOUS
62
5
39
0.0000
10
55.9999
20
31.5008
11
57.5000
21
31.5008
0
LINE
8
OHNE_NAMEN
6
CONTINUOUS
62
5
39
0.0000
10
135.5002
20
31.5008
11
136.9998
21
31.5008
0
LINE
8
OHNE_NAMEN
6
CONTINUOUS
62
5
39
0.0000
10
55.9999
20
27.0008
11
96.5754
21
76.9398
0
LINE
8
OHNE_NAMEN
6
CONTINUOUS
62
5
39
0.0000
10
96.4999
20
77.0008
11
137.0753
21
27.0619
0
LINE
8
OHNE_NAMEN
6
CONTINUOUS
62
5
39
0.0000
10
57.5000
20
27.0002
11
93.4999
21
71.5003
0
LINE
8
OHNE_NAMEN
6
CONTINUOUS
62
5
39
0.0000
10
99.4999
20
71.5003
11
135.5002
21
27.0002
0
LINE
8
OHNE_NAMEN
6
CONTINUOUS
62
5
39
0.0000
10
95.5001
20
74.5003
11
97.5000
21
74.5003
0
LINE
8
OHNE_NAMEN
6
CONTINUOUS
62
5
39
0.0000
10
95.5001
20
74.5003
11
95.5001
21
71.5003
0
LINE
8
OHNE_NAMEN
6
CONTINUOUS
62
5
39
0.0000
10
95.5001
20
71.5003
11
93.4999
21
71.5003
0
LINE
8
OHNE_NAMEN
6
CONTINUOUS
62
5
39
0.0000
10
97.5000
20
74.5003
11
97.5000
21
71.5003
0
LINE
8
OHNE_NAMEN
6
CONTINUOUS
62
5
39
0.0000
10
97.5000
20
71.5003
11
99.4999
21
71.5003
0
LINE
8
OHNE_NAMEN
6
CONTINUOUS
62
5
39
0.0000
10
55.9999
20
27.0008
11
57.5000
21
27.0008
0
LINE
8
OHNE_NAMEN
6
CONTINUOUS
62
5
39
0.0000
10
135.5002
20
27.0008
11
137.0002
21
27.0008
0
LINE
8
OHNE_NAMEN
6
CONTINUOUS
62
5
39
0.0000
10
55.9999
20
22.5008
11
96.5754
21
72.4397
0
LINE
8
OHNE_NAMEN
6
CONTINUOUS
62
5
39
0.0000
10
96.4999
20
72.5008
11
137.0753
21
22.5619
0
LINE
8
OHNE_NAMEN
6
CONTINUOUS
62
5
39
0.0000
10
57.5000
20
22.5002
11
93.4999
21
67.0003
0
LINE
8
OHNE_NAMEN
6
CONTINUOUS
62
5
39
0.0000
10
99.4999
20
67.0003
11
135.5002
21
22.5002
0
LINE
8
OHNE_NAMEN
6
CONTINUOUS
62
5
39
0.0000
10
95.5001
20
70.0003
11
97.5000
21
70.0003
0
LINE
8
OHNE_NAMEN
6
CONTINUOUS
62
5
39
0.0000
10
95.5001
20
70.0003
11
95.5001
21
67.0003
0
LINE
8
OHNE_NAMEN
6
CONTINUOUS
62
5
39
0.0000
10
95.5001
20
67.0003
11
93.4999
21
67.0003
0
LINE
8
OHNE_NAMEN
6
CONTINUOUS
62
5
39
0.0000
10
97.5000
20
70.0003
11
97.5000
21
67.0003
0
LINE
8
OHNE_NAMEN
6
CONTINUOUS
62
5
39
0.0000
10
97.5000
20
67.0003
11
99.4999
21
67.0003
0
LINE
8
OHNE_NAMEN
6
CONTINUOUS
62
5
39
0.0000
10
55.9999
20
22.5008
11
57.5000
21
22.5008
0
LINE
8
OHNE_NAMEN
6
CONTINUOUS
62
5
39
0.0000
10
135.5002
20
22.5008
11
137.0002
21
22.5008
0
LINE
8
OHNE_NAMEN
6
CONTINUOUS
62
5
39
0.0000
10
55.9999
20
18.0008
11
96.5754
21
67.9397
0
LINE
8
OHNE_NAMEN
6
CONTINUOUS
62
5
39
0.0000
10
96.4999
20
68.0007
11
137.0753
21
18.0619
0
LINE
8
OHNE_NAMEN
6
CONTINUOUS
62
5
39
0.0000
10
57.5000
20
18.0002
11
93.4999
21
62.5002
0
LINE
8
OHNE_NAMEN
6
CONTINUOUS
62
5
39
0.0000
10
99.4999
20
62.5002
11
135.5002
21
18.0002
0
LINE
8
OHNE_NAMEN
6
CONTINUOUS
62
5
39
0.0000
10
95.5001
20
65.5003
11
97.5000
21
65.5003
0
LINE
8
OHNE_NAMEN
6
CONTINUOUS
62
5
39
0.0000
10
95.5001
20
65.5003
11
95.5001
21
62.5002
0
LINE
8
OHNE_NAMEN
6
CONTINUOUS
62
5
39
0.0000
10
95.5001
20
62.5002
11
93.4999
21
62.5002
0
LINE
8
OHNE_NAMEN
6
CONTINUOUS
62
5
39
0.0000
10
97.5000
20
65.5003
11
97.5000
21
62.5002
0
LINE
8
OHNE_NAMEN
6
CONTINUOUS
62
5
39
0.0000
10
97.5000
20
62.5002
11
99.4999
21
62.5002
0
LINE
8
OHNE_NAMEN
6
CONTINUOUS
62
5
39
0.0000
10
55.9999
20
18.0008
11
57.5000
21
18.0008
0
LINE
8
OHNE_NAMEN
6
CONTINUOUS
62
5
39
0.0000
10
135.5002
20
18.0008
11
137.0002
21
18.0008
0
LINE
8
OHNE_NAMEN
6
CONTINUOUS
62
5
39
0.0000
10
55.9999
20
13.5008
11
96.5754
21
63.4397
0
LINE
8
OHNE_NAMEN
6
CONTINUOUS
62
5
39
0.0000
10
96.4999
20
63.5007
11
137.0753
21
13.5619
0
LINE
8
OHNE_NAMEN
6
CONTINUOUS
62
5
39
0.0000
10
57.5000
20
13.5002
11
93.5002
21
58.0002
0
LINE
8
OHNE_NAMEN
6
CONTINUOUS
62
5
39
0.0000
10
99.4999
20
58.0002
11
135.5002
21
13.5002
0
LINE
8
OHNE_NAMEN
6
CONTINUOUS
62
5
39
0.0000
10
95.5001
20
61.0002
11
97.5000
21
61.0002
0
LINE
8
OHNE_NAMEN
6
CONTINUOUS
62
5
39
0.0000
10
95.5001
20
61.0002
11
95.5001
21
58.0002
0
LINE
8
OHNE_NAMEN
6
CONTINUOUS
62
5
39
0.0000
10
95.5001
20
58.0002
11
93.5002
21
58.0002
0
LINE
8
OHNE_NAMEN
6
CONTINUOUS
62
5
39
0.0000
10
97.5000
20
61.0002
11
97.5000
21
58.0002
0
LINE
8
OHNE_NAMEN
6
CONTINUOUS
62
5
39
0.0000
10
97.5000
20
58.0002
11
99.4999
21
58.0002
0
LINE
8
OHNE_NAMEN
6
CONTINUOUS
62
5
39
0.0000
10
55.9999
20
13.5008
11
57.5000
21
13.5008
0
LINE
8
OHNE_NAMEN
6
CONTINUOUS
62
5
39
0.0000
10
135.5002
20
13.5008
11
137.0002
21
13.5008
0
LINE
8
OHNE_NAMEN
6
CONTINUOUS
62
5
39
0.0000
10
139.0001
20
246.0008
11
179.5755
21
295.9396
0
LINE
8
OHNE_NAMEN
6
CONTINUOUS
62
5
39
0.0000
10
179.5000
20
296.0007
11
220.0755
21
246.0618
0
LINE
8
OHNE_NAMEN
6
CONTINUOUS
62
5
39
0.0000
10
140.5001
20
246.0001
11
176.5000
21
290.5002
0
LINE
8
OHNE_NAMEN
6
CONTINUOUS
62
5
39
0.0000
10
182.5001
20
290.5002
11
218.5000
21
246.0001
0
LINE
8
OHNE_NAMEN
6
CONTINUOUS
62
5
39
0.0000
10
178.4999
20
293.5002
11
180.5001
21
293.5002
0
LINE
8
OHNE_NAMEN
6
CONTINUOUS
62
5
39
0.0000
10
178.4999
20
293.5002
11
178.4999
21
290.5002
0
LINE
8
OHNE_NAMEN
6
CONTINUOUS
62
5
39
0.0000
10
178.4999
20
290.5002
11
176.5000
21
290.5002
0
LINE
8
OHNE_NAMEN
6
CONTINUOUS
62
5
39
0.0000
10
180.5001
20
293.5002
11
180.5001
21
290.5002
0
LINE
8
OHNE_NAMEN
6
CONTINUOUS
62
5
39
0.0000
10
180.5001
20
290.5002
11
182.5001
21
290.5002
0
LINE
8
OHNE_NAMEN
6
CONTINUOUS
62
5
39
0.0000
10
139.0001
20
246.0008
11
140.5001
21
246.0008
0
LINE
8
OHNE_NAMEN
6
CONTINUOUS
62
5
39
0.0000
10
218.5000
20
246.0008
11
220.0000
21
246.0008
0
LINE
8
OHNE_NAMEN
6
CONTINUOUS
62
5
39
0.0000
10
139.0001
20
241.5007
11
179.5755
21
291.4396
0
LINE
8
OHNE_NAMEN
6
CONTINUOUS
62
5
39
0.0000
10
179.5000
20
291.5010
11
220.0755
21
241.5618
0
LINE
8
OHNE_NAMEN
6
CONTINUOUS
62
5
39
0.0000
10
140.5001
20
241.5000
11
176.5000
21
286.0001
0
LINE
8
OHNE_NAMEN
6
CONTINUOUS
62
5
39
0.0000
10
182.5001
20
286.0001
11
218.5000
21
241.5000
0
LINE
8
OHNE_NAMEN
6
CONTINUOUS
62
5
39
0.0000
10
178.4999
20
289.0001
11
180.5001
21
289.0001
0
LINE
8
OHNE_NAMEN
6
CONTINUOUS
62
5
39
0.0000
10
178.4999
20
289.0001
11
178.4999
21
286.0001
0
LINE
8
OHNE_NAMEN
6
CONTINUOUS
62
5
39
0.0000
10
178.4999
20
286.0001
11
176.5000
21
286.0001
0
LINE
8
OHNE_NAMEN
6
CONTINUOUS
62
5
39
0.0000
10
180.5001
20
289.0001
11
180.5001
21
286.0001
0
LINE
8
OHNE_NAMEN
6
CONTINUOUS
62
5
39
0.0000
10
180.5001
20
286.0001
11
182.5001
21
286.0001
0
LINE
8
OHNE_NAMEN
6
CONTINUOUS
62
5
39
0.0000
10
139.0001
20
241.5007
11
140.5001
21
241.5007
0
LINE
8
OHNE_NAMEN
6
CONTINUOUS
62
5
39
0.0000
10
218.5000
20
241.5007
11
220.0000
21
241.5007
0
LINE
8
OHNE_NAMEN
6
CONTINUOUS
62
5
39
0.0000
10
139.0001
20
237.0007
11
179.5755
21
286.9399
0
LINE
8
OHNE_NAMEN
6
CONTINUOUS
62
5
39
0.0000
10
179.5000
20
287.0009
11
220.0755
21
237.0621
0
LINE
8
OHNE_NAMEN
6
CONTINUOUS
62
5
39
0.0000
10
140.5001
20
237.0004
11
176.5000
21
281.5001
0
LINE
8
OHNE_NAMEN
6
CONTINUOUS
62
5
39
0.0000
10
182.5001
20
281.5001
11
218.5000
21
237.0004
0
LINE
8
OHNE_NAMEN
6
CONTINUOUS
62
5
39
0.0000
10
178.4999
20
284.5001
11
180.5001
21
284.5001
0
LINE
8
OHNE_NAMEN
6
CONTINUOUS
62
5
39
0.0000
10
178.4999
20
284.5001
11
178.4999
21
281.5001
0
LINE
8
OHNE_NAMEN
6
CONTINUOUS
62
5
39
0.0000
10
178.4999
20
281.5001
11
176.5000
21
281.5001
0
LINE
8
OHNE_NAMEN
6
CONTINUOUS
62
5
39
0.0000
10
180.5001
20
284.5001
11
180.5001
21
281.5001
0
LINE
8
OHNE_NAMEN
6
CONTINUOUS
62
5
39
0.0000
10
180.5001
20
281.5001
11
182.5001
21
281.5001
0
LINE
8
OHNE_NAMEN
6
CONTINUOUS
62
5
39
0.0000
10
139.0001
20
237.0007
11
140.5001
21
237.0007
0
LINE
8
OHNE_NAMEN
6
CONTINUOUS
62
5
39
0.0000
10
218.5000
20
237.0007
11
220.0000
21
237.0007
0
LINE
8
OHNE_NAMEN
6
CONTINUOUS
62
5
39
0.0000
10
139.0001
20
232.5007
11
179.5755
21
282.4399
0
LINE
8
OHNE_NAMEN
6
CONTINUOUS
62
5
39
0.0000
10
179.5000
20
282.5009
11
220.0755
21
232.5620
0
LINE
8
OHNE_NAMEN
6
CONTINUOUS
62
5
39
0.0000
10
140.5001
20
232.5003
11
176.5000
21
277.0001
0
LINE
8
OHNE_NAMEN
6
CONTINUOUS
62
5
39
0.0000
10
182.5001
20
277.0001
11
218.5000
21
232.5003
0
LINE
8
OHNE_NAMEN
6
CONTINUOUS
62
5
39
0.0000
10
178.5003
20
280.0001
11
180.5001
21
280.0001
0
LINE
8
OHNE_NAMEN
6
CONTINUOUS
62
5
39
0.0000
10
178.5003
20
280.0001
11
178.5003
21
277.0001
0
LINE
8
OHNE_NAMEN
6
CONTINUOUS
62
5
39
0.0000
10
178.5003
20
277.0001
11
176.5000
21
277.0001
0
LINE
8
OHNE_NAMEN
6
CONTINUOUS
62
5
39
0.0000
10
180.5001
20
280.0001
11
180.5001
21
277.0001
0
LINE
8
OHNE_NAMEN
6
CONTINUOUS
62
5
39
0.0000
10
180.5001
20
277.0001
11
182.5001
21
277.0001
0
LINE
8
OHNE_NAMEN
6
CONTINUOUS
62
5
39
0.0000
10
139.0001
20
232.5007
11
140.5001
21
232.5007
0
LINE
8
OHNE_NAMEN
6
CONTINUOUS
62
5
39
0.0000
10
218.5000
20
232.5007
11
220.0000
21
232.5007
0
LINE
8
OHNE_NAMEN
6
CONTINUOUS
62
5
39
0.0000
10
139.0001
20
228.0010
11
179.5755
21
277.9399
0
LINE
8
OHNE_NAMEN
6
CONTINUOUS
62
5
39
0.0000
10
179.5000
20
278.0009
11
220.0755
21
228.0620
0
LINE
8
OHNE_NAMEN
6
CONTINUOUS
62
5
39
0.0000
10
140.5001
20
228.0003
11
176.5000
21
272.5004
0
LINE
8
OHNE_NAMEN
6
CONTINUOUS
62
5
39
0.0000
10
182.5001
20
272.5004
11
218.5000
21
228.0003
0
LINE
8
OHNE_NAMEN
6
CONTINUOUS
62
5
39
0.0000
10
178.5003
20
275.5004
11
180.5001
21
275.5004
0
LINE
8
OHNE_NAMEN
6
CONTINUOUS
62
5
39
0.0000
10
178.5003
20
275.5004
11
178.5003
21
272.5004
0
LINE
8
OHNE_NAMEN
6
CONTINUOUS
62
5
39
0.0000
10
178.5003
20
272.5004
11
176.5000
21
272.5004
0
LINE
8
OHNE_NAMEN
6
CONTINUOUS
62
5
39
0.0000
10
180.5001
20
275.5004
11
180.5001
21
272.5004
0
LINE
8
OHNE_NAMEN
6
CONTINUOUS
62
5
39
0.0000
10
180.5001
20
272.5004
11
182.5001
21
272.5004
0
LINE
8
OHNE_NAMEN
6
CONTINUOUS
62
5
39
0.0000
10
139.0001
20
228.0010
11
140.5001
21
228.0010
0
LINE
8
OHNE_NAMEN
6
CONTINUOUS
62
5
39
0.0000
10
218.5000
20
228.0010
11
220.0000
21
228.0010
0
LINE
8
OHNE_NAMEN
6
CONTINUOUS
62
5
39
0.0000
10
139.0001
20
223.5009
11
179.5755
21
273.4398
0
LINE
8
OHNE_NAMEN
6
CONTINUOUS
62
5
39
0.0000
10
179.5000
20
273.5008
11
220.0755
21
223.5620
0
LINE
8
OHNE_NAMEN
6
CONTINUOUS
62
5
39
0.0000
10
140.5001
20
223.5002
11
176.5000
21
268.0003
0
LINE
8
OHNE_NAMEN
6
CONTINUOUS
62
5
39
0.0000
10
182.5001
20
268.0003
11
218.5000
21
223.5002
0
LINE
8
OHNE_NAMEN
6
CONTINUOUS
62
5
39
0.0000
10
178.5003
20
271.0004
11
180.5001
21
271.0004
0
LINE
8
OHNE_NAMEN
6
CONTINUOUS
62
5
39
0.0000
10
178.5003
20
271.0004
11
178.5003
21
268.0003
0
LINE
8
OHNE_NAMEN
6
CONTINUOUS
62
5
39
0.0000
10
178.5003
20
268.0003
11
176.5000
21
268.0003
0
LINE
8
OHNE_NAMEN
6
CONTINUOUS
62
5
39
0.0000
10
180.5001
20
271.0004
11
180.5001
21
268.0003
0
LINE
8
OHNE_NAMEN
6
CONTINUOUS
62
5
39
0.0000
10
180.5001
20
268.0003
11
182.5001
21
268.0003
0
LINE
8
OHNE_NAMEN
6
CONTINUOUS
62
5
39
0.0000
10
139.0001
20
223.5009
11
140.5001
21
223.5009
0
LINE
8
OHNE_NAMEN
6
CONTINUOUS
62
5
39
0.0000
10
218.5000
20
223.5009
11
220.0000
21
223.5009
0
LINE
8
OHNE_NAMEN
6
CONTINUOUS
62
5
39
0.0000
10
4.5000
20
97.9999
11
6.5000
21
97.9999
0
LINE
8
OHNE_NAMEN
6
CONTINUOUS
62
5
39
0.0000
10
6.5000
20
97.9999
11
6.5000
21
66.5000
0
TEXT
8
OHNE_NAMEN
6
CONTINUOUS
62
7
10
23.5000
20
209.8062
40
2.8222
1
HG1i
50
0.0000
51
0.0000
7
STANDARD
0
ENDSEC
0
EOF
