0
SECTION
2
HEADER
9
$ANGBASE
50
0.0
9
$ANGDIR
70
0
9
$AUNITS
70
0
9
$AUPREC
70
4
9
$ATTMODE
70
1
9
$EXTMIN
10
16.0000
20
42.0000
30
0.0000
9
$EXTMAX
10
320.0005
20
232.0001
30
0.0000
9
$ENDCAPS
280
1
9
$FILLMODE
70
1
9
$INSBASE
10
0.0000
20
0.0000
30
0.0000
9
$LIMMIN
10
0.0000
20
0.0000
9
$LIMMAX
10
320.0005
20
232.0001
9
$JOINSTYLE
280
1
9
$LUPREC
70
4
9
$MEASUREMENT
70
0
9
$SPLFRAME
70
1
0
ENDSEC
0
SECTION
2
TABLES
0
TABLE
2
LTYPE
70
1
0
LTYPE
2
CONTINUOUS
70
64
3
CONTINUOUS
72
65
73
0
40
0.0000
0
ENDTAB
0
TABLE
2
LAYER
70
1
0
LAYER
2
OHNE_NAMEN
70
64
62
1
6
CONTINUOUS
0
ENDTAB
0
ENDSEC
0
SECTION
2
BLOCKS
0
ENDSEC
0
SECTION
2
ENTITIES
0
ARC
8
OHNE_NAMEN
6
CONTINUOUS
62
1
39
0.0000
10
135.5002
20
205.0002
40
3.6400
50
344.0522
51
344.0522
0
LINE
8
OHNE_NAMEN
6
CONTINUOUS
62
5
39
0.0000
10
102.0000
20
200.0000
11
102.0000
21
181.0000
0
POLYLINE
8
OHNE_NAMEN
6
CONTINUOUS
62
1
66
1
10
0.0000
20
0.0000
70
0
40
0.0000
41
0.0000
0
VERTEX
8
OHNE_NAMEN
6
CONTINUOUS
62
1
10
113.4999
20
179.0001
0
VERTEX
8
OHNE_NAMEN
6
CONTINUOUS
62
1
10
114.0937
20
179.5939
0
SEQEND
8
OHNE_NAMEN
6
CONTINUOUS
62
1
0
POLYLINE
8
OHNE_NAMEN
6
CONTINUOUS
62
1
66
1
10
0.0000
20
0.0000
70
0
40
0.0000
41
0.0000
0
VERTEX
8
OHNE_NAMEN
6
CONTINUOUS
62
1
10
114.0937
20
179.5939
0
VERTEX
8
OHNE_NAMEN
6
CONTINUOUS
62
1
10
114.6952
20
180.1505
0
SEQEND
8
OHNE_NAMEN
6
CONTINUOUS
62
1
0
POLYLINE
8
OHNE_NAMEN
6
CONTINUOUS
62
1
66
1
10
0.0000
20
0.0000
70
0
40
0.0000
41
0.0000
0
VERTEX
8
OHNE_NAMEN
6
CONTINUOUS
62
1
10
114.6952
20
180.1505
0
VERTEX
8
OHNE_NAMEN
6
CONTINUOUS
62
1
10
115.3016
20
180.6724
0
SEQEND
8
OHNE_NAMEN
6
CONTINUOUS
62
1
0
POLYLINE
8
OHNE_NAMEN
6
CONTINUOUS
62
1
66
1
10
0.0000
20
0.0000
70
0
40
0.0000
41
0.0000
0
VERTEX
8
OHNE_NAMEN
6
CONTINUOUS
62
1
10
115.3016
20
180.6724
0
VERTEX
8
OHNE_NAMEN
6
CONTINUOUS
62
1
10
115.9079
20
181.1942
0
SEQEND
8
OHNE_NAMEN
6
CONTINUOUS
62
1
0
POLYLINE
8
OHNE_NAMEN
6
CONTINUOUS
62
1
66
1
10
0.0000
20
0.0000
70
0
40
0.0000
41
0.0000
0
VERTEX
8
OHNE_NAMEN
6
CONTINUOUS
62
1
10
115.9079
20
181.1942
0
VERTEX
8
OHNE_NAMEN
6
CONTINUOUS
62
1
10
116.5190
20
181.6813
0
SEQEND
8
OHNE_NAMEN
6
CONTINUOUS
62
1
0
POLYLINE
8
OHNE_NAMEN
6
CONTINUOUS
62
1
66
1
10
0.0000
20
0.0000
70
0
40
0.0000
41
0.0000
0
VERTEX
8
OHNE_NAMEN
6
CONTINUOUS
62
1
10
116.5190
20
181.6813
0
VERTEX
8
OHNE_NAMEN
6
CONTINUOUS
62
1
10
117.1318
20
182.1359
0
SEQEND
8
OHNE_NAMEN
6
CONTINUOUS
62
1
0
POLYLINE
8
OHNE_NAMEN
6
CONTINUOUS
62
1
66
1
10
0.0000
20
0.0000
70
0
40
0.0000
41
0.0000
0
VERTEX
8
OHNE_NAMEN
6
CONTINUOUS
62
1
10
117.1318
20
182.1359
0
VERTEX
8
OHNE_NAMEN
6
CONTINUOUS
62
1
10
117.7446
20
182.5904
0
SEQEND
8
OHNE_NAMEN
6
CONTINUOUS
62
1
0
POLYLINE
8
OHNE_NAMEN
6
CONTINUOUS
62
1
66
1
10
0.0000
20
0.0000
70
0
40
0.0000
41
0.0000
0
VERTEX
8
OHNE_NAMEN
6
CONTINUOUS
62
1
10
117.7446
20
182.5904
0
VERTEX
8
OHNE_NAMEN
6
CONTINUOUS
62
1
10
118.3591
20
183.0126
0
SEQEND
8
OHNE_NAMEN
6
CONTINUOUS
62
1
0
POLYLINE
8
OHNE_NAMEN
6
CONTINUOUS
62
1
66
1
10
0.0000
20
0.0000
70
0
40
0.0000
41
0.0000
0
VERTEX
8
OHNE_NAMEN
6
CONTINUOUS
62
1
10
118.3591
20
183.0126
0
VERTEX
8
OHNE_NAMEN
6
CONTINUOUS
62
1
10
118.9723
20
183.4045
0
SEQEND
8
OHNE_NAMEN
6
CONTINUOUS
62
1
0
POLYLINE
8
OHNE_NAMEN
6
CONTINUOUS
62
1
66
1
10
0.0000
20
0.0000
70
0
40
0.0000
41
0.0000
0
VERTEX
8
OHNE_NAMEN
6
CONTINUOUS
62
1
10
118.9723
20
183.4045
0
VERTEX
8
OHNE_NAMEN
6
CONTINUOUS
62
1
10
119.5855
20
183.7965
0
SEQEND
8
OHNE_NAMEN
6
CONTINUOUS
62
1
0
POLYLINE
8
OHNE_NAMEN
6
CONTINUOUS
62
1
66
1
10
0.0000
20
0.0000
70
0
40
0.0000
41
0.0000
0
VERTEX
8
OHNE_NAMEN
6
CONTINUOUS
62
1
10
119.5855
20
183.7965
0
VERTEX
8
OHNE_NAMEN
6
CONTINUOUS
62
1
10
120.1973
20
184.1583
0
SEQEND
8
OHNE_NAMEN
6
CONTINUOUS
62
1
0
POLYLINE
8
OHNE_NAMEN
6
CONTINUOUS
62
1
66
1
10
0.0000
20
0.0000
70
0
40
0.0000
41
0.0000
0
VERTEX
8
OHNE_NAMEN
6
CONTINUOUS
62
1
10
120.1973
20
184.1583
0
VERTEX
8
OHNE_NAMEN
6
CONTINUOUS
62
1
10
120.8047
20
184.4923
0
SEQEND
8
OHNE_NAMEN
6
CONTINUOUS
62
1
0
POLYLINE
8
OHNE_NAMEN
6
CONTINUOUS
62
1
66
1
10
0.0000
20
0.0000
70
0
40
0.0000
41
0.0000
0
VERTEX
8
OHNE_NAMEN
6
CONTINUOUS
62
1
10
120.8047
20
184.4923
0
VERTEX
8
OHNE_NAMEN
6
CONTINUOUS
62
1
10
121.4122
20
184.8262
0
SEQEND
8
OHNE_NAMEN
6
CONTINUOUS
62
1
0
POLYLINE
8
OHNE_NAMEN
6
CONTINUOUS
62
1
66
1
10
0.0000
20
0.0000
70
0
40
0.0000
41
0.0000
0
VERTEX
8
OHNE_NAMEN
6
CONTINUOUS
62
1
10
121.4122
20
184.8262
0
VERTEX
8
OHNE_NAMEN
6
CONTINUOUS
62
1
10
122.0152
20
185.1324
0
SEQEND
8
OHNE_NAMEN
6
CONTINUOUS
62
1
0
POLYLINE
8
OHNE_NAMEN
6
CONTINUOUS
62
1
66
1
10
0.0000
20
0.0000
70
0
40
0.0000
41
0.0000
0
VERTEX
8
OHNE_NAMEN
6
CONTINUOUS
62
1
10
122.0152
20
185.1324
0
VERTEX
8
OHNE_NAMEN
6
CONTINUOUS
62
1
10
122.6108
20
185.4130
0
SEQEND
8
OHNE_NAMEN
6
CONTINUOUS
62
1
0
POLYLINE
8
OHNE_NAMEN
6
CONTINUOUS
62
1
66
1
10
0.0000
20
0.0000
70
0
40
0.0000
41
0.0000
0
VERTEX
8
OHNE_NAMEN
6
CONTINUOUS
62
1
10
122.6108
20
185.4130
0
VERTEX
8
OHNE_NAMEN
6
CONTINUOUS
62
1
10
123.2064
20
185.6936
0
SEQEND
8
OHNE_NAMEN
6
CONTINUOUS
62
1
0
POLYLINE
8
OHNE_NAMEN
6
CONTINUOUS
62
1
66
1
10
0.0000
20
0.0000
70
0
40
0.0000
41
0.0000
0
VERTEX
8
OHNE_NAMEN
6
CONTINUOUS
62
1
10
123.2064
20
185.6936
0
VERTEX
8
OHNE_NAMEN
6
CONTINUOUS
62
1
10
123.7945
20
185.9487
0
SEQEND
8
OHNE_NAMEN
6
CONTINUOUS
62
1
0
POLYLINE
8
OHNE_NAMEN
6
CONTINUOUS
62
1
66
1
10
0.0000
20
0.0000
70
0
40
0.0000
41
0.0000
0
VERTEX
8
OHNE_NAMEN
6
CONTINUOUS
62
1
10
123.7945
20
185.9487
0
VERTEX
8
OHNE_NAMEN
6
CONTINUOUS
62
1
10
124.3722
20
186.1807
0
SEQEND
8
OHNE_NAMEN
6
CONTINUOUS
62
1
0
POLYLINE
8
OHNE_NAMEN
6
CONTINUOUS
62
1
66
1
10
0.0000
20
0.0000
70
0
40
0.0000
41
0.0000
0
VERTEX
8
OHNE_NAMEN
6
CONTINUOUS
62
1
10
124.3722
20
186.1807
0
VERTEX
8
OHNE_NAMEN
6
CONTINUOUS
62
1
10
124.9498
20
186.4126
0
SEQEND
8
OHNE_NAMEN
6
CONTINUOUS
62
1
0
POLYLINE
8
OHNE_NAMEN
6
CONTINUOUS
62
1
66
1
10
0.0000
20
0.0000
70
0
40
0.0000
41
0.0000
0
VERTEX
8
OHNE_NAMEN
6
CONTINUOUS
62
1
10
124.9498
20
186.4126
0
VERTEX
8
OHNE_NAMEN
6
CONTINUOUS
62
1
10
125.5169
20
186.6213
0
SEQEND
8
OHNE_NAMEN
6
CONTINUOUS
62
1
0
POLYLINE
8
OHNE_NAMEN
6
CONTINUOUS
62
1
66
1
10
0.0000
20
0.0000
70
0
40
0.0000
41
0.0000
0
VERTEX
8
OHNE_NAMEN
6
CONTINUOUS
62
1
10
125.5169
20
186.6213
0
VERTEX
8
OHNE_NAMEN
6
CONTINUOUS
62
1
10
126.0705
20
186.8092
0
SEQEND
8
OHNE_NAMEN
6
CONTINUOUS
62
1
0
POLYLINE
8
OHNE_NAMEN
6
CONTINUOUS
62
1
66
1
10
0.0000
20
0.0000
70
0
40
0.0000
41
0.0000
0
VERTEX
8
OHNE_NAMEN
6
CONTINUOUS
62
1
10
126.0705
20
186.8092
0
VERTEX
8
OHNE_NAMEN
6
CONTINUOUS
62
1
10
126.6241
20
186.9970
0
SEQEND
8
OHNE_NAMEN
6
CONTINUOUS
62
1
0
POLYLINE
8
OHNE_NAMEN
6
CONTINUOUS
62
1
66
1
10
0.0000
20
0.0000
70
0
40
0.0000
41
0.0000
0
VERTEX
8
OHNE_NAMEN
6
CONTINUOUS
62
1
10
126.6241
20
186.9970
0
VERTEX
8
OHNE_NAMEN
6
CONTINUOUS
62
1
10
127.1642
20
187.1640
0
SEQEND
8
OHNE_NAMEN
6
CONTINUOUS
62
1
0
POLYLINE
8
OHNE_NAMEN
6
CONTINUOUS
62
1
66
1
10
0.0000
20
0.0000
70
0
40
0.0000
41
0.0000
0
VERTEX
8
OHNE_NAMEN
6
CONTINUOUS
62
1
10
127.1642
20
187.1640
0
VERTEX
8
OHNE_NAMEN
6
CONTINUOUS
62
1
10
127.6876
20
187.3124
0
SEQEND
8
OHNE_NAMEN
6
CONTINUOUS
62
1
0
POLYLINE
8
OHNE_NAMEN
6
CONTINUOUS
62
1
66
1
10
0.0000
20
0.0000
70
0
40
0.0000
41
0.0000
0
VERTEX
8
OHNE_NAMEN
6
CONTINUOUS
62
1
10
127.6876
20
187.3124
0
VERTEX
8
OHNE_NAMEN
6
CONTINUOUS
62
1
10
128.2110
20
187.4609
0
SEQEND
8
OHNE_NAMEN
6
CONTINUOUS
62
1
0
POLYLINE
8
OHNE_NAMEN
6
CONTINUOUS
62
1
66
1
10
0.0000
20
0.0000
70
0
40
0.0000
41
0.0000
0
VERTEX
8
OHNE_NAMEN
6
CONTINUOUS
62
1
10
128.2110
20
187.4609
0
VERTEX
8
OHNE_NAMEN
6
CONTINUOUS
62
1
10
128.7179
20
187.5907
0
SEQEND
8
OHNE_NAMEN
6
CONTINUOUS
62
1
0
POLYLINE
8
OHNE_NAMEN
6
CONTINUOUS
62
1
66
1
10
0.0000
20
0.0000
70
0
40
0.0000
41
0.0000
0
VERTEX
8
OHNE_NAMEN
6
CONTINUOUS
62
1
10
128.7179
20
187.5907
0
VERTEX
8
OHNE_NAMEN
6
CONTINUOUS
62
1
10
129.2051
20
187.7044
0
SEQEND
8
OHNE_NAMEN
6
CONTINUOUS
62
1
0
POLYLINE
8
OHNE_NAMEN
6
CONTINUOUS
62
1
66
1
10
0.0000
20
0.0000
70
0
40
0.0000
41
0.0000
0
VERTEX
8
OHNE_NAMEN
6
CONTINUOUS
62
1
10
129.2051
20
187.7044
0
VERTEX
8
OHNE_NAMEN
6
CONTINUOUS
62
1
10
129.6922
20
187.8180
0
SEQEND
8
OHNE_NAMEN
6
CONTINUOUS
62
1
0
POLYLINE
8
OHNE_NAMEN
6
CONTINUOUS
62
1
66
1
10
0.0000
20
0.0000
70
0
40
0.0000
41
0.0000
0
VERTEX
8
OHNE_NAMEN
6
CONTINUOUS
62
1
10
129.6922
20
187.8180
0
VERTEX
8
OHNE_NAMEN
6
CONTINUOUS
62
1
10
130.1598
20
187.9154
0
SEQEND
8
OHNE_NAMEN
6
CONTINUOUS
62
1
0
POLYLINE
8
OHNE_NAMEN
6
CONTINUOUS
62
1
66
1
10
0.0000
20
0.0000
70
0
40
0.0000
41
0.0000
0
VERTEX
8
OHNE_NAMEN
6
CONTINUOUS
62
1
10
130.1598
20
187.9154
0
VERTEX
8
OHNE_NAMEN
6
CONTINUOUS
62
1
10
130.6046
20
187.9989
0
SEQEND
8
OHNE_NAMEN
6
CONTINUOUS
62
1
0
POLYLINE
8
OHNE_NAMEN
6
CONTINUOUS
62
1
66
1
10
0.0000
20
0.0000
70
0
40
0.0000
41
0.0000
0
VERTEX
8
OHNE_NAMEN
6
CONTINUOUS
62
1
10
130.6046
20
187.9989
0
VERTEX
8
OHNE_NAMEN
6
CONTINUOUS
62
1
10
131.0494
20
188.0824
0
SEQEND
8
OHNE_NAMEN
6
CONTINUOUS
62
1
0
POLYLINE
8
OHNE_NAMEN
6
CONTINUOUS
62
1
66
1
10
0.0000
20
0.0000
70
0
40
0.0000
41
0.0000
0
VERTEX
8
OHNE_NAMEN
6
CONTINUOUS
62
1
10
131.0494
20
188.0824
0
VERTEX
8
OHNE_NAMEN
6
CONTINUOUS
62
1
10
131.4715
20
188.1520
0
SEQEND
8
OHNE_NAMEN
6
CONTINUOUS
62
1
0
POLYLINE
8
OHNE_NAMEN
6
CONTINUOUS
62
1
66
1
10
0.0000
20
0.0000
70
0
40
0.0000
41
0.0000
0
VERTEX
8
OHNE_NAMEN
6
CONTINUOUS
62
1
10
131.4715
20
188.1520
0
VERTEX
8
OHNE_NAMEN
6
CONTINUOUS
62
1
10
131.8679
20
188.2099
0
SEQEND
8
OHNE_NAMEN
6
CONTINUOUS
62
1
0
POLYLINE
8
OHNE_NAMEN
6
CONTINUOUS
62
1
66
1
10
0.0000
20
0.0000
70
0
40
0.0000
41
0.0000
0
VERTEX
8
OHNE_NAMEN
6
CONTINUOUS
62
1
10
131.8679
20
188.2099
0
VERTEX
8
OHNE_NAMEN
6
CONTINUOUS
62
1
10
132.2643
20
188.2679
0
SEQEND
8
OHNE_NAMEN
6
CONTINUOUS
62
1
0
POLYLINE
8
OHNE_NAMEN
6
CONTINUOUS
62
1
66
1
10
0.0000
20
0.0000
70
0
40
0.0000
41
0.0000
0
VERTEX
8
OHNE_NAMEN
6
CONTINUOUS
62
1
10
132.2643
20
188.2679
0
VERTEX
8
OHNE_NAMEN
6
CONTINUOUS
62
1
10
132.6349
20
188.3143
0
SEQEND
8
OHNE_NAMEN
6
CONTINUOUS
62
1
0
POLYLINE
8
OHNE_NAMEN
6
CONTINUOUS
62
1
66
1
10
0.0000
20
0.0000
70
0
40
0.0000
41
0.0000
0
VERTEX
8
OHNE_NAMEN
6
CONTINUOUS
62
1
10
132.6349
20
188.3143
0
VERTEX
8
OHNE_NAMEN
6
CONTINUOUS
62
1
10
132.9767
20
188.3514
0
SEQEND
8
OHNE_NAMEN
6
CONTINUOUS
62
1
0
POLYLINE
8
OHNE_NAMEN
6
CONTINUOUS
62
1
66
1
10
0.0000
20
0.0000
70
0
40
0.0000
41
0.0000
0
VERTEX
8
OHNE_NAMEN
6
CONTINUOUS
62
1
10
132.9767
20
188.3514
0
VERTEX
8
OHNE_NAMEN
6
CONTINUOUS
62
1
10
133.3185
20
188.3885
0
SEQEND
8
OHNE_NAMEN
6
CONTINUOUS
62
1
0
POLYLINE
8
OHNE_NAMEN
6
CONTINUOUS
62
1
66
1
10
0.0000
20
0.0000
70
0
40
0.0000
41
0.0000
0
VERTEX
8
OHNE_NAMEN
6
CONTINUOUS
62
1
10
133.3185
20
188.3885
0
VERTEX
8
OHNE_NAMEN
6
CONTINUOUS
62
1
10
133.6315
20
188.4163
0
SEQEND
8
OHNE_NAMEN
6
CONTINUOUS
62
1
0
POLYLINE
8
OHNE_NAMEN
6
CONTINUOUS
62
1
66
1
10
0.0000
20
0.0000
70
0
40
0.0000
41
0.0000
0
VERTEX
8
OHNE_NAMEN
6
CONTINUOUS
62
1
10
133.6315
20
188.4163
0
VERTEX
8
OHNE_NAMEN
6
CONTINUOUS
62
1
10
133.9126
20
188.4372
0
SEQEND
8
OHNE_NAMEN
6
CONTINUOUS
62
1
0
POLYLINE
8
OHNE_NAMEN
6
CONTINUOUS
62
1
66
1
10
0.0000
20
0.0000
70
0
40
0.0000
41
0.0000
0
VERTEX
8
OHNE_NAMEN
6
CONTINUOUS
62
1
10
133.9126
20
188.4372
0
VERTEX
8
OHNE_NAMEN
6
CONTINUOUS
62
1
10
134.1937
20
188.4580
0
SEQEND
8
OHNE_NAMEN
6
CONTINUOUS
62
1
0
POLYLINE
8
OHNE_NAMEN
6
CONTINUOUS
62
1
66
1
10
0.0000
20
0.0000
70
0
40
0.0000
41
0.0000
0
VERTEX
8
OHNE_NAMEN
6
CONTINUOUS
62
1
10
134.1937
20
188.4580
0
VERTEX
8
OHNE_NAMEN
6
CONTINUOUS
62
1
10
134.4430
20
188.4720
0
SEQEND
8
OHNE_NAMEN
6
CONTINUOUS
62
1
0
POLYLINE
8
OHNE_NAMEN
6
CONTINUOUS
62
1
66
1
10
0.0000
20
0.0000
70
0
40
0.0000
41
0.0000
0
VERTEX
8
OHNE_NAMEN
6
CONTINUOUS
62
1
10
134.4430
20
188.4720
0
VERTEX
8
OHNE_NAMEN
6
CONTINUOUS
62
1
10
134.6574
20
188.4812
0
SEQEND
8
OHNE_NAMEN
6
CONTINUOUS
62
1
0
POLYLINE
8
OHNE_NAMEN
6
CONTINUOUS
62
1
66
1
10
0.0000
20
0.0000
70
0
40
0.0000
41
0.0000
0
VERTEX
8
OHNE_NAMEN
6
CONTINUOUS
62
1
10
134.6574
20
188.4812
0
VERTEX
8
OHNE_NAMEN
6
CONTINUOUS
62
1
10
134.8717
20
188.4905
0
SEQEND
8
OHNE_NAMEN
6
CONTINUOUS
62
1
0
POLYLINE
8
OHNE_NAMEN
6
CONTINUOUS
62
1
66
1
10
0.0000
20
0.0000
70
0
40
0.0000
41
0.0000
0
VERTEX
8
OHNE_NAMEN
6
CONTINUOUS
62
1
10
134.8717
20
188.4905
0
VERTEX
8
OHNE_NAMEN
6
CONTINUOUS
62
1
10
135.0512
20
188.4951
0
SEQEND
8
OHNE_NAMEN
6
CONTINUOUS
62
1
0
POLYLINE
8
OHNE_NAMEN
6
CONTINUOUS
62
1
66
1
10
0.0000
20
0.0000
70
0
40
0.0000
41
0.0000
0
VERTEX
8
OHNE_NAMEN
6
CONTINUOUS
62
1
10
135.0512
20
188.4951
0
VERTEX
8
OHNE_NAMEN
6
CONTINUOUS
62
1
10
135.1927
20
188.4975
0
SEQEND
8
OHNE_NAMEN
6
CONTINUOUS
62
1
0
POLYLINE
8
OHNE_NAMEN
6
CONTINUOUS
62
1
66
1
10
0.0000
20
0.0000
70
0
40
0.0000
41
0.0000
0
VERTEX
8
OHNE_NAMEN
6
CONTINUOUS
62
1
10
135.1927
20
188.4975
0
VERTEX
8
OHNE_NAMEN
6
CONTINUOUS
62
1
10
135.3341
20
188.4998
0
SEQEND
8
OHNE_NAMEN
6
CONTINUOUS
62
1
0
POLYLINE
8
OHNE_NAMEN
6
CONTINUOUS
62
1
66
1
10
0.0000
20
0.0000
70
0
40
0.0000
41
0.0000
0
VERTEX
8
OHNE_NAMEN
6
CONTINUOUS
62
1
10
135.3341
20
188.4998
0
VERTEX
8
OHNE_NAMEN
6
CONTINUOUS
62
1
10
135.4377
20
188.4998
0
SEQEND
8
OHNE_NAMEN
6
CONTINUOUS
62
1
0
POLYLINE
8
OHNE_NAMEN
6
CONTINUOUS
62
1
66
1
10
0.0000
20
0.0000
70
0
40
0.0000
41
0.0000
0
VERTEX
8
OHNE_NAMEN
6
CONTINUOUS
62
1
10
135.4377
20
188.4998
0
VERTEX
8
OHNE_NAMEN
6
CONTINUOUS
62
1
10
135.5002
20
188.4998
0
SEQEND
8
OHNE_NAMEN
6
CONTINUOUS
62
1
0
POLYLINE
8
OHNE_NAMEN
6
CONTINUOUS
62
1
66
1
10
0.0000
20
0.0000
70
0
40
0.0000
41
0.0000
0
VERTEX
8
OHNE_NAMEN
6
CONTINUOUS
62
1
10
157.5001
20
179.0001
0
VERTEX
8
OHNE_NAMEN
6
CONTINUOUS
62
1
10
156.9063
20
179.5939
0
SEQEND
8
OHNE_NAMEN
6
CONTINUOUS
62
1
0
POLYLINE
8
OHNE_NAMEN
6
CONTINUOUS
62
1
66
1
10
0.0000
20
0.0000
70
0
40
0.0000
41
0.0000
0
VERTEX
8
OHNE_NAMEN
6
CONTINUOUS
62
1
10
156.9063
20
179.5939
0
VERTEX
8
OHNE_NAMEN
6
CONTINUOUS
62
1
10
156.3048
20
180.1505
0
SEQEND
8
OHNE_NAMEN
6
CONTINUOUS
62
1
0
POLYLINE
8
OHNE_NAMEN
6
CONTINUOUS
62
1
66
1
10
0.0000
20
0.0000
70
0
40
0.0000
41
0.0000
0
VERTEX
8
OHNE_NAMEN
6
CONTINUOUS
62
1
10
156.3048
20
180.1505
0
VERTEX
8
OHNE_NAMEN
6
CONTINUOUS
62
1
10
155.6984
20
180.6724
0
SEQEND
8
OHNE_NAMEN
6
CONTINUOUS
62
1
0
POLYLINE
8
OHNE_NAMEN
6
CONTINUOUS
62
1
66
1
10
0.0000
20
0.0000
70
0
40
0.0000
41
0.0000
0
VERTEX
8
OHNE_NAMEN
6
CONTINUOUS
62
1
10
155.6984
20
180.6724
0
VERTEX
8
OHNE_NAMEN
6
CONTINUOUS
62
1
10
155.0921
20
181.1942
0
SEQEND
8
OHNE_NAMEN
6
CONTINUOUS
62
1
0
POLYLINE
8
OHNE_NAMEN
6
CONTINUOUS
62
1
66
1
10
0.0000
20
0.0000
70
0
40
0.0000
41
0.0000
0
VERTEX
8
OHNE_NAMEN
6
CONTINUOUS
62
1
10
155.0921
20
181.1942
0
VERTEX
8
OHNE_NAMEN
6
CONTINUOUS
62
1
10
154.4810
20
181.6813
0
SEQEND
8
OHNE_NAMEN
6
CONTINUOUS
62
1
0
POLYLINE
8
OHNE_NAMEN
6
CONTINUOUS
62
1
66
1
10
0.0000
20
0.0000
70
0
40
0.0000
41
0.0000
0
VERTEX
8
OHNE_NAMEN
6
CONTINUOUS
62
1
10
154.4810
20
181.6813
0
VERTEX
8
OHNE_NAMEN
6
CONTINUOUS
62
1
10
153.8682
20
182.1359
0
SEQEND
8
OHNE_NAMEN
6
CONTINUOUS
62
1
0
POLYLINE
8
OHNE_NAMEN
6
CONTINUOUS
62
1
66
1
10
0.0000
20
0.0000
70
0
40
0.0000
41
0.0000
0
VERTEX
8
OHNE_NAMEN
6
CONTINUOUS
62
1
10
153.8682
20
182.1359
0
VERTEX
8
OHNE_NAMEN
6
CONTINUOUS
62
1
10
153.2554
20
182.5904
0
SEQEND
8
OHNE_NAMEN
6
CONTINUOUS
62
1
0
POLYLINE
8
OHNE_NAMEN
6
CONTINUOUS
62
1
66
1
10
0.0000
20
0.0000
70
0
40
0.0000
41
0.0000
0
VERTEX
8
OHNE_NAMEN
6
CONTINUOUS
62
1
10
153.2554
20
182.5904
0
VERTEX
8
OHNE_NAMEN
6
CONTINUOUS
62
1
10
152.6409
20
183.0126
0
SEQEND
8
OHNE_NAMEN
6
CONTINUOUS
62
1
0
POLYLINE
8
OHNE_NAMEN
6
CONTINUOUS
62
1
66
1
10
0.0000
20
0.0000
70
0
40
0.0000
41
0.0000
0
VERTEX
8
OHNE_NAMEN
6
CONTINUOUS
62
1
10
152.6409
20
183.0126
0
VERTEX
8
OHNE_NAMEN
6
CONTINUOUS
62
1
10
152.0277
20
183.4045
0
SEQEND
8
OHNE_NAMEN
6
CONTINUOUS
62
1
0
POLYLINE
8
OHNE_NAMEN
6
CONTINUOUS
62
1
66
1
10
0.0000
20
0.0000
70
0
40
0.0000
41
0.0000
0
VERTEX
8
OHNE_NAMEN
6
CONTINUOUS
62
1
10
152.0277
20
183.4045
0
VERTEX
8
OHNE_NAMEN
6
CONTINUOUS
62
1
10
151.4146
20
183.7965
0
SEQEND
8
OHNE_NAMEN
6
CONTINUOUS
62
1
0
POLYLINE
8
OHNE_NAMEN
6
CONTINUOUS
62
1
66
1
10
0.0000
20
0.0000
70
0
40
0.0000
41
0.0000
0
VERTEX
8
OHNE_NAMEN
6
CONTINUOUS
62
1
10
151.4146
20
183.7965
0
VERTEX
8
OHNE_NAMEN
6
CONTINUOUS
62
1
10
150.8027
20
184.1583
0
SEQEND
8
OHNE_NAMEN
6
CONTINUOUS
62
1
0
POLYLINE
8
OHNE_NAMEN
6
CONTINUOUS
62
1
66
1
10
0.0000
20
0.0000
70
0
40
0.0000
41
0.0000
0
VERTEX
8
OHNE_NAMEN
6
CONTINUOUS
62
1
10
150.8027
20
184.1583
0
VERTEX
8
OHNE_NAMEN
6
CONTINUOUS
62
1
10
150.1953
20
184.4923
0
SEQEND
8
OHNE_NAMEN
6
CONTINUOUS
62
1
0
POLYLINE
8
OHNE_NAMEN
6
CONTINUOUS
62
1
66
1
10
0.0000
20
0.0000
70
0
40
0.0000
41
0.0000
0
VERTEX
8
OHNE_NAMEN
6
CONTINUOUS
62
1
10
150.1953
20
184.4923
0
VERTEX
8
OHNE_NAMEN
6
CONTINUOUS
62
1
10
149.5879
20
184.8262
0
SEQEND
8
OHNE_NAMEN
6
CONTINUOUS
62
1
0
POLYLINE
8
OHNE_NAMEN
6
CONTINUOUS
62
1
66
1
10
0.0000
20
0.0000
70
0
40
0.0000
41
0.0000
0
VERTEX
8
OHNE_NAMEN
6
CONTINUOUS
62
1
10
149.5879
20
184.8262
0
VERTEX
8
OHNE_NAMEN
6
CONTINUOUS
62
1
10
148.9849
20
185.1324
0
SEQEND
8
OHNE_NAMEN
6
CONTINUOUS
62
1
0
POLYLINE
8
OHNE_NAMEN
6
CONTINUOUS
62
1
66
1
10
0.0000
20
0.0000
70
0
40
0.0000
41
0.0000
0
VERTEX
8
OHNE_NAMEN
6
CONTINUOUS
62
1
10
148.9849
20
185.1324
0
VERTEX
8
OHNE_NAMEN
6
CONTINUOUS
62
1
10
148.3893
20
185.4130
0
SEQEND
8
OHNE_NAMEN
6
CONTINUOUS
62
1
0
POLYLINE
8
OHNE_NAMEN
6
CONTINUOUS
62
1
66
1
10
0.0000
20
0.0000
70
0
40
0.0000
41
0.0000
0
VERTEX
8
OHNE_NAMEN
6
CONTINUOUS
62
1
10
148.3893
20
185.4130
0
VERTEX
8
OHNE_NAMEN
6
CONTINUOUS
62
1
10
147.7937
20
185.6936
0
SEQEND
8
OHNE_NAMEN
6
CONTINUOUS
62
1
0
POLYLINE
8
OHNE_NAMEN
6
CONTINUOUS
62
1
66
1
10
0.0000
20
0.0000
70
0
40
0.0000
41
0.0000
0
VERTEX
8
OHNE_NAMEN
6
CONTINUOUS
62
1
10
147.7937
20
185.6936
0
VERTEX
8
OHNE_NAMEN
6
CONTINUOUS
62
1
10
147.2056
20
185.9487
0
SEQEND
8
OHNE_NAMEN
6
CONTINUOUS
62
1
0
POLYLINE
8
OHNE_NAMEN
6
CONTINUOUS
62
1
66
1
10
0.0000
20
0.0000
70
0
40
0.0000
41
0.0000
0
VERTEX
8
OHNE_NAMEN
6
CONTINUOUS
62
1
10
147.2056
20
185.9487
0
VERTEX
8
OHNE_NAMEN
6
CONTINUOUS
62
1
10
146.6280
20
186.1807
0
SEQEND
8
OHNE_NAMEN
6
CONTINUOUS
62
1
0
POLYLINE
8
OHNE_NAMEN
6
CONTINUOUS
62
1
66
1
10
0.0000
20
0.0000
70
0
40
0.0000
41
0.0000
0
VERTEX
8
OHNE_NAMEN
6
CONTINUOUS
62
1
10
146.6280
20
186.1807
0
VERTEX
8
OHNE_NAMEN
6
CONTINUOUS
62
1
10
146.0503
20
186.4126
0
SEQEND
8
OHNE_NAMEN
6
CONTINUOUS
62
1
0
POLYLINE
8
OHNE_NAMEN
6
CONTINUOUS
62
1
66
1
10
0.0000
20
0.0000
70
0
40
0.0000
41
0.0000
0
VERTEX
8
OHNE_NAMEN
6
CONTINUOUS
62
1
10
146.0503
20
186.4126
0
VERTEX
8
OHNE_NAMEN
6
CONTINUOUS
62
1
10
145.4832
20
186.6213
0
SEQEND
8
OHNE_NAMEN
6
CONTINUOUS
62
1
0
POLYLINE
8
OHNE_NAMEN
6
CONTINUOUS
62
1
66
1
10
0.0000
20
0.0000
70
0
40
0.0000
41
0.0000
0
VERTEX
8
OHNE_NAMEN
6
CONTINUOUS
62
1
10
145.4832
20
186.6213
0
VERTEX
8
OHNE_NAMEN
6
CONTINUOUS
62
1
10
144.9296
20
186.8092
0
SEQEND
8
OHNE_NAMEN
6
CONTINUOUS
62
1
0
POLYLINE
8
OHNE_NAMEN
6
CONTINUOUS
62
1
66
1
10
0.0000
20
0.0000
70
0
40
0.0000
41
0.0000
0
VERTEX
8
OHNE_NAMEN
6
CONTINUOUS
62
1
10
144.9296
20
186.8092
0
VERTEX
8
OHNE_NAMEN
6
CONTINUOUS
62
1
10
144.3760
20
186.9970
0
SEQEND
8
OHNE_NAMEN
6
CONTINUOUS
62
1
0
POLYLINE
8
OHNE_NAMEN
6
CONTINUOUS
62
1
66
1
10
0.0000
20
0.0000
70
0
40
0.0000
41
0.0000
0
VERTEX
8
OHNE_NAMEN
6
CONTINUOUS
62
1
10
144.3760
20
186.9970
0
VERTEX
8
OHNE_NAMEN
6
CONTINUOUS
62
1
10
143.8360
20
187.1640
0
SEQEND
8
OHNE_NAMEN
6
CONTINUOUS
62
1
0
POLYLINE
8
OHNE_NAMEN
6
CONTINUOUS
62
1
66
1
10
0.0000
20
0.0000
70
0
40
0.0000
41
0.0000
0
VERTEX
8
OHNE_NAMEN
6
CONTINUOUS
62
1
10
143.8360
20
187.1640
0
VERTEX
8
OHNE_NAMEN
6
CONTINUOUS
62
1
10
143.3126
20
187.3124
0
SEQEND
8
OHNE_NAMEN
6
CONTINUOUS
62
1
0
POLYLINE
8
OHNE_NAMEN
6
CONTINUOUS
62
1
66
1
10
0.0000
20
0.0000
70
0
40
0.0000
41
0.0000
0
VERTEX
8
OHNE_NAMEN
6
CONTINUOUS
62
1
10
143.3126
20
187.3124
0
VERTEX
8
OHNE_NAMEN
6
CONTINUOUS
62
1
10
142.7891
20
187.4609
0
SEQEND
8
OHNE_NAMEN
6
CONTINUOUS
62
1
0
POLYLINE
8
OHNE_NAMEN
6
CONTINUOUS
62
1
66
1
10
0.0000
20
0.0000
70
0
40
0.0000
41
0.0000
0
VERTEX
8
OHNE_NAMEN
6
CONTINUOUS
62
1
10
142.7891
20
187.4609
0
VERTEX
8
OHNE_NAMEN
6
CONTINUOUS
62
1
10
142.2823
20
187.5907
0
SEQEND
8
OHNE_NAMEN
6
CONTINUOUS
62
1
0
POLYLINE
8
OHNE_NAMEN
6
CONTINUOUS
62
1
66
1
10
0.0000
20
0.0000
70
0
40
0.0000
41
0.0000
0
VERTEX
8
OHNE_NAMEN
6
CONTINUOUS
62
1
10
142.2823
20
187.5907
0
VERTEX
8
OHNE_NAMEN
6
CONTINUOUS
62
1
10
141.7952
20
187.7044
0
SEQEND
8
OHNE_NAMEN
6
CONTINUOUS
62
1
0
POLYLINE
8
OHNE_NAMEN
6
CONTINUOUS
62
1
66
1
10
0.0000
20
0.0000
70
0
40
0.0000
41
0.0000
0
VERTEX
8
OHNE_NAMEN
6
CONTINUOUS
62
1
10
141.7952
20
187.7044
0
VERTEX
8
OHNE_NAMEN
6
CONTINUOUS
62
1
10
141.3080
20
187.8180
0
SEQEND
8
OHNE_NAMEN
6
CONTINUOUS
62
1
0
POLYLINE
8
OHNE_NAMEN
6
CONTINUOUS
62
1
66
1
10
0.0000
20
0.0000
70
0
40
0.0000
41
0.0000
0
VERTEX
8
OHNE_NAMEN
6
CONTINUOUS
62
1
10
141.3080
20
187.8180
0
VERTEX
8
OHNE_NAMEN
6
CONTINUOUS
62
1
10
140.8405
20
187.9154
0
SEQEND
8
OHNE_NAMEN
6
CONTINUOUS
62
1
0
POLYLINE
8
OHNE_NAMEN
6
CONTINUOUS
62
1
66
1
10
0.0000
20
0.0000
70
0
40
0.0000
41
0.0000
0
VERTEX
8
OHNE_NAMEN
6
CONTINUOUS
62
1
10
140.8405
20
187.9154
0
VERTEX
8
OHNE_NAMEN
6
CONTINUOUS
62
1
10
140.3956
20
187.9989
0
SEQEND
8
OHNE_NAMEN
6
CONTINUOUS
62
1
0
POLYLINE
8
OHNE_NAMEN
6
CONTINUOUS
62
1
66
1
10
0.0000
20
0.0000
70
0
40
0.0000
41
0.0000
0
VERTEX
8
OHNE_NAMEN
6
CONTINUOUS
62
1
10
140.3956
20
187.9989
0
VERTEX
8
OHNE_NAMEN
6
CONTINUOUS
62
1
10
139.9508
20
188.0824
0
SEQEND
8
OHNE_NAMEN
6
CONTINUOUS
62
1
0
POLYLINE
8
OHNE_NAMEN
6
CONTINUOUS
62
1
66
1
10
0.0000
20
0.0000
70
0
40
0.0000
41
0.0000
0
VERTEX
8
OHNE_NAMEN
6
CONTINUOUS
62
1
10
139.9508
20
188.0824
0
VERTEX
8
OHNE_NAMEN
6
CONTINUOUS
62
1
10
139.5287
20
188.1520
0
SEQEND
8
OHNE_NAMEN
6
CONTINUOUS
62
1
0
POLYLINE
8
OHNE_NAMEN
6
CONTINUOUS
62
1
66
1
10
0.0000
20
0.0000
70
0
40
0.0000
41
0.0000
0
VERTEX
8
OHNE_NAMEN
6
CONTINUOUS
62
1
10
139.5287
20
188.1520
0
VERTEX
8
OHNE_NAMEN
6
CONTINUOUS
62
1
10
139.1324
20
188.2099
0
SEQEND
8
OHNE_NAMEN
6
CONTINUOUS
62
1
0
POLYLINE
8
OHNE_NAMEN
6
CONTINUOUS
62
1
66
1
10
0.0000
20
0.0000
70
0
40
0.0000
41
0.0000
0
VERTEX
8
OHNE_NAMEN
6
CONTINUOUS
62
1
10
139.1324
20
188.2099
0
VERTEX
8
OHNE_NAMEN
6
CONTINUOUS
62
1
10
138.7360
20
188.2679
0
SEQEND
8
OHNE_NAMEN
6
CONTINUOUS
62
1
0
POLYLINE
8
OHNE_NAMEN
6
CONTINUOUS
62
1
66
1
10
0.0000
20
0.0000
70
0
40
0.0000
41
0.0000
0
VERTEX
8
OHNE_NAMEN
6
CONTINUOUS
62
1
10
138.7360
20
188.2679
0
VERTEX
8
OHNE_NAMEN
6
CONTINUOUS
62
1
10
138.3654
20
188.3143
0
SEQEND
8
OHNE_NAMEN
6
CONTINUOUS
62
1
0
POLYLINE
8
OHNE_NAMEN
6
CONTINUOUS
62
1
66
1
10
0.0000
20
0.0000
70
0
40
0.0000
41
0.0000
0
VERTEX
8
OHNE_NAMEN
6
CONTINUOUS
62
1
10
138.3654
20
188.3143
0
VERTEX
8
OHNE_NAMEN
6
CONTINUOUS
62
1
10
138.0236
20
188.3514
0
SEQEND
8
OHNE_NAMEN
6
CONTINUOUS
62
1
0
POLYLINE
8
OHNE_NAMEN
6
CONTINUOUS
62
1
66
1
10
0.0000
20
0.0000
70
0
40
0.0000
41
0.0000
0
VERTEX
8
OHNE_NAMEN
6
CONTINUOUS
62
1
10
138.0236
20
188.3514
0
VERTEX
8
OHNE_NAMEN
6
CONTINUOUS
62
1
10
137.6818
20
188.3885
0
SEQEND
8
OHNE_NAMEN
6
CONTINUOUS
62
1
0
POLYLINE
8
OHNE_NAMEN
6
CONTINUOUS
62
1
66
1
10
0.0000
20
0.0000
70
0
40
0.0000
41
0.0000
0
VERTEX
8
OHNE_NAMEN
6
CONTINUOUS
62
1
10
137.6818
20
188.3885
0
VERTEX
8
OHNE_NAMEN
6
CONTINUOUS
62
1
10
137.3689
20
188.4163
0
SEQEND
8
OHNE_NAMEN
6
CONTINUOUS
62
1
0
POLYLINE
8
OHNE_NAMEN
6
CONTINUOUS
62
1
66
1
10
0.0000
20
0.0000
70
0
40
0.0000
41
0.0000
0
VERTEX
8
OHNE_NAMEN
6
CONTINUOUS
62
1
10
137.3689
20
188.4163
0
VERTEX
8
OHNE_NAMEN
6
CONTINUOUS
62
1
10
137.0877
20
188.4372
0
SEQEND
8
OHNE_NAMEN
6
CONTINUOUS
62
1
0
POLYLINE
8
OHNE_NAMEN
6
CONTINUOUS
62
1
66
1
10
0.0000
20
0.0000
70
0
40
0.0000
41
0.0000
0
VERTEX
8
OHNE_NAMEN
6
CONTINUOUS
62
1
10
137.0877
20
188.4372
0
VERTEX
8
OHNE_NAMEN
6
CONTINUOUS
62
1
10
136.8066
20
188.4580
0
SEQEND
8
OHNE_NAMEN
6
CONTINUOUS
62
1
0
POLYLINE
8
OHNE_NAMEN
6
CONTINUOUS
62
1
66
1
10
0.0000
20
0.0000
70
0
40
0.0000
41
0.0000
0
VERTEX
8
OHNE_NAMEN
6
CONTINUOUS
62
1
10
136.8066
20
188.4580
0
VERTEX
8
OHNE_NAMEN
6
CONTINUOUS
62
1
10
136.5573
20
188.4720
0
SEQEND
8
OHNE_NAMEN
6
CONTINUOUS
62
1
0
POLYLINE
8
OHNE_NAMEN
6
CONTINUOUS
62
1
66
1
10
0.0000
20
0.0000
70
0
40
0.0000
41
0.0000
0
VERTEX
8
OHNE_NAMEN
6
CONTINUOUS
62
1
10
136.5573
20
188.4720
0
VERTEX
8
OHNE_NAMEN
6
CONTINUOUS
62
1
10
136.3430
20
188.4812
0
SEQEND
8
OHNE_NAMEN
6
CONTINUOUS
62
1
0
POLYLINE
8
OHNE_NAMEN
6
CONTINUOUS
62
1
66
1
10
0.0000
20
0.0000
70
0
40
0.0000
41
0.0000
0
VERTEX
8
OHNE_NAMEN
6
CONTINUOUS
62
1
10
136.3430
20
188.4812
0
VERTEX
8
OHNE_NAMEN
6
CONTINUOUS
62
1
10
136.1286
20
188.4905
0
SEQEND
8
OHNE_NAMEN
6
CONTINUOUS
62
1
0
POLYLINE
8
OHNE_NAMEN
6
CONTINUOUS
62
1
66
1
10
0.0000
20
0.0000
70
0
40
0.0000
41
0.0000
0
VERTEX
8
OHNE_NAMEN
6
CONTINUOUS
62
1
10
136.1286
20
188.4905
0
VERTEX
8
OHNE_NAMEN
6
CONTINUOUS
62
1
10
135.9492
20
188.4951
0
SEQEND
8
OHNE_NAMEN
6
CONTINUOUS
62
1
0
POLYLINE
8
OHNE_NAMEN
6
CONTINUOUS
62
1
66
1
10
0.0000
20
0.0000
70
0
40
0.0000
41
0.0000
0
VERTEX
8
OHNE_NAMEN
6
CONTINUOUS
62
1
10
135.9492
20
188.4951
0
VERTEX
8
OHNE_NAMEN
6
CONTINUOUS
62
1
10
135.8077
20
188.4975
0
SEQEND
8
OHNE_NAMEN
6
CONTINUOUS
62
1
0
POLYLINE
8
OHNE_NAMEN
6
CONTINUOUS
62
1
66
1
10
0.0000
20
0.0000
70
0
40
0.0000
41
0.0000
0
VERTEX
8
OHNE_NAMEN
6
CONTINUOUS
62
1
10
135.8077
20
188.4975
0
VERTEX
8
OHNE_NAMEN
6
CONTINUOUS
62
1
10
135.6662
20
188.4998
0
SEQEND
8
OHNE_NAMEN
6
CONTINUOUS
62
1
0
POLYLINE
8
OHNE_NAMEN
6
CONTINUOUS
62
1
66
1
10
0.0000
20
0.0000
70
0
40
0.0000
41
0.0000
0
VERTEX
8
OHNE_NAMEN
6
CONTINUOUS
62
1
10
135.6662
20
188.4998
0
VERTEX
8
OHNE_NAMEN
6
CONTINUOUS
62
1
10
135.5627
20
188.4998
0
SEQEND
8
OHNE_NAMEN
6
CONTINUOUS
62
1
0
POLYLINE
8
OHNE_NAMEN
6
CONTINUOUS
62
1
66
1
10
0.0000
20
0.0000
70
0
40
0.0000
41
0.0000
0
VERTEX
8
OHNE_NAMEN
6
CONTINUOUS
62
1
10
135.5627
20
188.4998
0
VERTEX
8
OHNE_NAMEN
6
CONTINUOUS
62
1
10
135.5002
20
188.4998
0
SEQEND
8
OHNE_NAMEN
6
CONTINUOUS
62
1
0
LINE
8
OHNE_NAMEN
6
CONTINUOUS
62
7
39
0.1528
10
113.0000
20
162.9999
11
113.0000
21
138.0000
0
LINE
8
OHNE_NAMEN
6
CONTINUOUS
62
7
39
0.1528
10
113.0000
20
138.0000
11
158.0003
21
138.0000
0
LINE
8
OHNE_NAMEN
6
CONTINUOUS
62
7
39
0.1528
10
158.0003
20
138.0000
11
158.0000
21
162.9999
0
LINE
8
OHNE_NAMEN
6
CONTINUOUS
62
1
39
0.0000
10
113.0000
20
162.9999
11
158.0000
21
162.9999
0
LINE
8
OHNE_NAMEN
6
CONTINUOUS
62
1
39
0.0000
10
265.0000
20
136.9998
11
265.0000
21
190.9999
0
LINE
8
OHNE_NAMEN
6
CONTINUOUS
62
1
39
0.1528
10
265.0000
20
136.9998
11
308.0000
21
136.9998
0
LINE
8
OHNE_NAMEN
6
CONTINUOUS
62
5
39
0.0000
10
102.0000
20
125.9999
11
124.0000
21
125.9999
0
LINE
8
OHNE_NAMEN
6
CONTINUOUS
62
5
39
0.0000
10
147.0000
20
125.9999
11
169.0000
21
125.9999
0
LINE
8
OHNE_NAMEN
6
CONTINUOUS
62
5
39
0.0000
10
124.0000
20
125.9999
11
124.0000
21
127.9998
0
LINE
8
OHNE_NAMEN
6
CONTINUOUS
62
5
39
0.0000
10
124.0000
20
128.0001
11
147.0000
21
128.0001
0
LINE
8
OHNE_NAMEN
6
CONTINUOUS
62
5
39
0.0000
10
147.0000
20
128.0001
11
147.0000
21
125.9999
0
LINE
8
OHNE_NAMEN
6
CONTINUOUS
62
7
39
0.0000
10
113.0000
20
162.0001
11
158.0003
21
162.0001
0
LINE
8
OHNE_NAMEN
6
CONTINUOUS
62
7
39
0.1528
10
113.0000
20
161.0000
11
158.0003
21
161.0000
0
LINE
8
OHNE_NAMEN
6
CONTINUOUS
62
7
39
0.1528
10
113.0000
20
159.9999
11
158.0003
21
159.9999
0
LINE
8
OHNE_NAMEN
6
CONTINUOUS
62
7
39
0.1528
10
113.0000
20
159.0001
11
158.0003
21
159.0001
0
LINE
8
OHNE_NAMEN
6
CONTINUOUS
62
7
39
0.1528
10
113.0000
20
158.0000
11
158.0003
21
158.0000
0
LINE
8
OHNE_NAMEN
6
CONTINUOUS
62
7
39
0.1528
10
113.0000
20
139.0001
11
158.0003
21
139.0001
0
LINE
8
OHNE_NAMEN
6
CONTINUOUS
62
7
39
0.1528
10
113.0000
20
139.9999
11
158.0003
21
139.9999
0
LINE
8
OHNE_NAMEN
6
CONTINUOUS
62
7
39
0.1528
10
113.0000
20
141.0000
11
158.0003
21
141.0000
0
LINE
8
OHNE_NAMEN
6
CONTINUOUS
62
7
39
0.1528
10
113.0000
20
142.0001
11
158.0003
21
142.0001
0
LINE
8
OHNE_NAMEN
6
CONTINUOUS
62
7
39
0.1528
10
115.0003
20
158.0000
11
115.0003
21
142.0001
0
LINE
8
OHNE_NAMEN
6
CONTINUOUS
62
7
39
0.1528
10
156.0001
20
158.0000
11
156.0001
21
142.0001
0
LINE
8
OHNE_NAMEN
6
CONTINUOUS
62
7
39
0.1528
10
113.0000
20
157.0002
11
115.0003
21
157.0002
0
LINE
8
OHNE_NAMEN
6
CONTINUOUS
62
7
39
0.1528
10
113.0000
20
156.0001
11
115.0003
21
156.0001
0
LINE
8
OHNE_NAMEN
6
CONTINUOUS
62
7
39
0.1528
10
113.0000
20
155.0000
11
115.0003
21
155.0000
0
LINE
8
OHNE_NAMEN
6
CONTINUOUS
62
7
39
0.1528
10
113.0000
20
154.0002
11
115.0003
21
154.0002
0
LINE
8
OHNE_NAMEN
6
CONTINUOUS
62
7
39
0.1528
10
113.0000
20
153.0001
11
115.0003
21
153.0001
0
LINE
8
OHNE_NAMEN
6
CONTINUOUS
62
7
39
0.1528
10
113.0000
20
151.9999
11
115.0003
21
151.9999
0
LINE
8
OHNE_NAMEN
6
CONTINUOUS
62
7
39
0.1528
10
113.0000
20
150.9998
11
115.0003
21
150.9998
0
LINE
8
OHNE_NAMEN
6
CONTINUOUS
62
7
39
0.1528
10
113.0000
20
150.0000
11
115.0003
21
150.0000
0
LINE
8
OHNE_NAMEN
6
CONTINUOUS
62
7
39
0.1528
10
113.0000
20
148.9999
11
115.0003
21
148.9999
0
LINE
8
OHNE_NAMEN
6
CONTINUOUS
62
7
39
0.1528
10
113.0000
20
148.0002
11
115.0003
21
148.0002
0
LINE
8
OHNE_NAMEN
6
CONTINUOUS
62
7
39
0.1528
10
113.0000
20
147.0000
11
115.0003
21
147.0000
0
LINE
8
OHNE_NAMEN
6
CONTINUOUS
62
7
39
0.1528
10
113.0000
20
145.9999
11
115.0003
21
145.9999
0
LINE
8
OHNE_NAMEN
6
CONTINUOUS
62
7
39
0.1528
10
113.0000
20
145.0001
11
115.0003
21
145.0001
0
LINE
8
OHNE_NAMEN
6
CONTINUOUS
62
7
39
0.1528
10
113.0000
20
144.0000
11
115.0003
21
144.0000
0
LINE
8
OHNE_NAMEN
6
CONTINUOUS
62
7
39
0.1528
10
113.0000
20
142.9999
11
115.0003
21
142.9999
0
LINE
8
OHNE_NAMEN
6
CONTINUOUS
62
7
39
0.1528
10
156.0001
20
157.0002
11
158.0003
21
157.0002
0
LINE
8
OHNE_NAMEN
6
CONTINUOUS
62
7
39
0.1528
10
156.0001
20
156.0001
11
158.0003
21
156.0001
0
LINE
8
OHNE_NAMEN
6
CONTINUOUS
62
7
39
0.1528
10
156.0001
20
155.0000
11
158.0003
21
155.0000
0
LINE
8
OHNE_NAMEN
6
CONTINUOUS
62
7
39
0.1528
10
156.0001
20
154.0002
11
158.0003
21
154.0002
0
LINE
8
OHNE_NAMEN
6
CONTINUOUS
62
7
39
0.1528
10
156.0001
20
153.0001
11
158.0003
21
153.0001
0
LINE
8
OHNE_NAMEN
6
CONTINUOUS
62
7
39
0.1528
10
156.0001
20
151.9999
11
158.0003
21
151.9999
0
LINE
8
OHNE_NAMEN
6
CONTINUOUS
62
7
39
0.1528
10
156.0001
20
150.9998
11
158.0003
21
150.9998
0
LINE
8
OHNE_NAMEN
6
CONTINUOUS
62
7
39
0.1528
10
156.0001
20
150.0000
11
158.0003
21
150.0000
0
LINE
8
OHNE_NAMEN
6
CONTINUOUS
62
7
39
0.1528
10
156.0001
20
148.9999
11
158.0003
21
148.9999
0
LINE
8
OHNE_NAMEN
6
CONTINUOUS
62
7
39
0.1528
10
156.0001
20
148.0002
11
158.0003
21
148.0002
0
LINE
8
OHNE_NAMEN
6
CONTINUOUS
62
7
39
0.1528
10
156.0001
20
147.0000
11
158.0003
21
147.0000
0
LINE
8
OHNE_NAMEN
6
CONTINUOUS
62
7
39
0.1528
10
156.0001
20
145.9999
11
158.0003
21
145.9999
0
LINE
8
OHNE_NAMEN
6
CONTINUOUS
62
7
39
0.1528
10
156.0001
20
145.0001
11
158.0003
21
145.0001
0
LINE
8
OHNE_NAMEN
6
CONTINUOUS
62
7
39
0.1528
10
156.0001
20
144.0000
11
158.0003
21
144.0000
0
LINE
8
OHNE_NAMEN
6
CONTINUOUS
62
7
39
0.1528
10
156.0001
20
142.9999
11
158.0003
21
142.9999
0
LINE
8
OHNE_NAMEN
6
CONTINUOUS
62
7
39
0.1528
10
116.0000
20
157.0002
11
116.0000
21
142.9999
0
LINE
8
OHNE_NAMEN
6
CONTINUOUS
62
7
39
0.1528
10
116.0000
20
142.9999
11
155.0003
21
142.9999
0
LINE
8
OHNE_NAMEN
6
CONTINUOUS
62
7
39
0.1528
10
155.0003
20
142.9999
11
155.0003
21
157.0002
0
LINE
8
OHNE_NAMEN
6
CONTINUOUS
62
7
39
0.1528
10
155.0003
20
157.0002
11
116.0000
21
157.0002
0
LINE
8
OHNE_NAMEN
6
CONTINUOUS
62
7
39
0.1528
10
115.0003
20
144.0000
11
116.0000
21
144.0000
0
LINE
8
OHNE_NAMEN
6
CONTINUOUS
62
7
39
0.1528
10
115.0003
20
145.9999
11
116.0000
21
145.9999
0
LINE
8
OHNE_NAMEN
6
CONTINUOUS
62
7
39
0.1528
10
115.0003
20
148.0002
11
116.0000
21
148.0002
0
LINE
8
OHNE_NAMEN
6
CONTINUOUS
62
7
39
0.1528
10
115.0003
20
150.0000
11
116.0000
21
150.0000
0
LINE
8
OHNE_NAMEN
6
CONTINUOUS
62
7
39
0.1528
10
115.0003
20
151.9999
11
116.0000
21
151.9999
0
LINE
8
OHNE_NAMEN
6
CONTINUOUS
62
7
39
0.1528
10
115.0003
20
154.0002
11
116.0000
21
154.0002
0
LINE
8
OHNE_NAMEN
6
CONTINUOUS
62
7
39
0.1528
10
115.0003
20
156.0001
11
116.0000
21
156.0001
0
LINE
8
OHNE_NAMEN
6
CONTINUOUS
62
7
39
0.1528
10
116.0000
20
158.0000
11
116.0000
21
157.0002
0
LINE
8
OHNE_NAMEN
6
CONTINUOUS
62
7
39
0.1528
10
116.0000
20
142.9999
11
116.0000
21
142.0001
0
LINE
8
OHNE_NAMEN
6
CONTINUOUS
62
7
39
0.1528
10
155.0003
20
144.0000
11
156.0001
21
144.0000
0
LINE
8
OHNE_NAMEN
6
CONTINUOUS
62
7
39
0.1528
10
155.0003
20
145.9999
11
156.0001
21
145.9999
0
LINE
8
OHNE_NAMEN
6
CONTINUOUS
62
7
39
0.1528
10
155.0003
20
148.0002
11
156.0001
21
148.0002
0
LINE
8
OHNE_NAMEN
6
CONTINUOUS
62
7
39
0.1528
10
155.0003
20
150.0000
11
156.0001
21
150.0000
0
LINE
8
OHNE_NAMEN
6
CONTINUOUS
62
7
39
0.1528
10
155.0003
20
151.9999
11
156.0001
21
151.9999
0
LINE
8
OHNE_NAMEN
6
CONTINUOUS
62
7
39
0.1528
10
155.0003
20
154.0002
11
156.0001
21
154.0002
0
LINE
8
OHNE_NAMEN
6
CONTINUOUS
62
7
39
0.1528
10
155.0003
20
156.0001
11
156.0001
21
156.0001
0
LINE
8
OHNE_NAMEN
6
CONTINUOUS
62
7
39
0.1528
10
118.0003
20
158.0000
11
118.0003
21
157.0002
0
LINE
8
OHNE_NAMEN
6
CONTINUOUS
62
7
39
0.1528
10
120.0002
20
158.0000
11
120.0002
21
157.0002
0
LINE
8
OHNE_NAMEN
6
CONTINUOUS
62
7
39
0.1528
10
122.0001
20
158.0000
11
122.0001
21
157.0002
0
LINE
8
OHNE_NAMEN
6
CONTINUOUS
62
7
39
0.1528
10
124.0000
20
158.0000
11
124.0000
21
157.0002
0
LINE
8
OHNE_NAMEN
6
CONTINUOUS
62
7
39
0.1528
10
126.0002
20
158.0000
11
126.0002
21
157.0002
0
LINE
8
OHNE_NAMEN
6
CONTINUOUS
62
7
39
0.1528
10
128.0001
20
158.0000
11
128.0001
21
157.0002
0
LINE
8
OHNE_NAMEN
6
CONTINUOUS
62
7
39
0.1528
10
130.0004
20
158.0000
11
130.0004
21
157.0002
0
LINE
8
OHNE_NAMEN
6
CONTINUOUS
62
7
39
0.1528
10
132.0003
20
158.0000
11
132.0003
21
157.0002
0
LINE
8
OHNE_NAMEN
6
CONTINUOUS
62
7
39
0.1528
10
134.0002
20
158.0000
11
134.0002
21
157.0002
0
LINE
8
OHNE_NAMEN
6
CONTINUOUS
62
7
39
0.1528
10
137.0002
20
158.0000
11
137.0002
21
157.0002
0
LINE
8
OHNE_NAMEN
6
CONTINUOUS
62
7
39
0.1528
10
139.0001
20
158.0000
11
139.0001
21
157.0002
0
LINE
8
OHNE_NAMEN
6
CONTINUOUS
62
7
39
0.1528
10
141.0003
20
158.0000
11
141.0003
21
156.9999
0
LINE
8
OHNE_NAMEN
6
CONTINUOUS
62
7
39
0.1528
10
143.0002
20
158.0000
11
143.0002
21
156.9999
0
LINE
8
OHNE_NAMEN
6
CONTINUOUS
62
7
39
0.1528
10
145.0001
20
158.0000
11
145.0001
21
156.9999
0
LINE
8
OHNE_NAMEN
6
CONTINUOUS
62
7
39
0.1528
10
147.0004
20
158.0000
11
147.0004
21
156.9999
0
LINE
8
OHNE_NAMEN
6
CONTINUOUS
62
7
39
0.1528
10
149.0003
20
158.0000
11
149.0003
21
156.9999
0
LINE
8
OHNE_NAMEN
6
CONTINUOUS
62
7
39
0.1528
10
151.0002
20
158.0000
11
151.0002
21
156.9999
0
LINE
8
OHNE_NAMEN
6
CONTINUOUS
62
7
39
0.1528
10
153.0001
20
158.0000
11
153.0001
21
156.9999
0
LINE
8
OHNE_NAMEN
6
CONTINUOUS
62
7
39
0.1528
10
155.0003
20
158.0000
11
155.0003
21
156.9999
0
LINE
8
OHNE_NAMEN
6
CONTINUOUS
62
7
39
0.1528
10
136.0001
20
158.0000
11
136.0001
21
157.0002
0
LINE
8
OHNE_NAMEN
6
CONTINUOUS
62
7
39
0.1528
10
118.0003
20
142.9999
11
118.0003
21
142.0001
0
LINE
8
OHNE_NAMEN
6
CONTINUOUS
62
7
39
0.1528
10
120.0002
20
142.9999
11
120.0002
21
142.0001
0
LINE
8
OHNE_NAMEN
6
CONTINUOUS
62
7
39
0.1528
10
122.0001
20
142.9999
11
122.0001
21
142.0001
0
LINE
8
OHNE_NAMEN
6
CONTINUOUS
62
7
39
0.1528
10
124.0000
20
142.9999
11
124.0000
21
142.0001
0
LINE
8
OHNE_NAMEN
6
CONTINUOUS
62
7
39
0.1528
10
126.0002
20
142.9999
11
126.0002
21
142.0001
0
LINE
8
OHNE_NAMEN
6
CONTINUOUS
62
7
39
0.1528
10
128.0001
20
142.9999
11
128.0001
21
142.0001
0
LINE
8
OHNE_NAMEN
6
CONTINUOUS
62
7
39
0.1528
10
130.0004
20
142.9999
11
130.0004
21
142.0001
0
LINE
8
OHNE_NAMEN
6
CONTINUOUS
62
7
39
0.1528
10
132.0003
20
142.9999
11
132.0003
21
142.0001
0
LINE
8
OHNE_NAMEN
6
CONTINUOUS
62
7
39
0.1528
10
134.0002
20
142.9999
11
134.0002
21
142.0001
0
LINE
8
OHNE_NAMEN
6
CONTINUOUS
62
7
39
0.1528
10
137.0002
20
142.9999
11
137.0002
21
142.0001
0
LINE
8
OHNE_NAMEN
6
CONTINUOUS
62
7
39
0.1528
10
139.0001
20
142.9999
11
139.0001
21
142.0001
0
LINE
8
OHNE_NAMEN
6
CONTINUOUS
62
7
39
0.1528
10
141.0003
20
142.9999
11
141.0003
21
142.0001
0
LINE
8
OHNE_NAMEN
6
CONTINUOUS
62
7
39
0.1528
10
143.0002
20
142.9999
11
143.0002
21
142.0001
0
LINE
8
OHNE_NAMEN
6
CONTINUOUS
62
7
39
0.1528
10
145.0001
20
142.9999
11
145.0001
21
142.0001
0
LINE
8
OHNE_NAMEN
6
CONTINUOUS
62
7
39
0.1528
10
147.0004
20
142.9999
11
147.0004
21
142.0001
0
LINE
8
OHNE_NAMEN
6
CONTINUOUS
62
7
39
0.1528
10
149.0003
20
142.9999
11
149.0003
21
142.0001
0
LINE
8
OHNE_NAMEN
6
CONTINUOUS
62
7
39
0.1528
10
151.0002
20
142.9999
11
151.0002
21
142.0001
0
LINE
8
OHNE_NAMEN
6
CONTINUOUS
62
7
39
0.1528
10
153.0001
20
142.9999
11
153.0001
21
142.0001
0
LINE
8
OHNE_NAMEN
6
CONTINUOUS
62
7
39
0.1528
10
136.0001
20
142.9999
11
136.0001
21
142.0001
0
LINE
8
OHNE_NAMEN
6
CONTINUOUS
62
7
39
0.1528
10
117.0002
20
156.0001
11
117.0002
21
144.0000
0
LINE
8
OHNE_NAMEN
6
CONTINUOUS
62
7
39
0.1528
10
117.0002
20
144.0000
11
154.0002
21
144.0000
0
LINE
8
OHNE_NAMEN
6
CONTINUOUS
62
7
39
0.1528
10
154.0002
20
144.0000
11
154.0002
21
156.0001
0
LINE
8
OHNE_NAMEN
6
CONTINUOUS
62
7
39
0.1528
10
154.0002
20
156.0001
11
117.0002
21
156.0001
0
LINE
8
OHNE_NAMEN
6
CONTINUOUS
62
7
39
0.1528
10
116.0000
20
155.0000
11
117.0002
21
155.0000
0
LINE
8
OHNE_NAMEN
6
CONTINUOUS
62
7
39
0.1528
10
116.0000
20
153.0001
11
117.0002
21
153.0001
0
LINE
8
OHNE_NAMEN
6
CONTINUOUS
62
7
39
0.1528
10
116.0000
20
150.9998
11
117.0002
21
150.9998
0
LINE
8
OHNE_NAMEN
6
CONTINUOUS
62
7
39
0.1528
10
116.0000
20
148.9999
11
117.0002
21
148.9999
0
LINE
8
OHNE_NAMEN
6
CONTINUOUS
62
7
39
0.1528
10
116.0000
20
147.0000
11
117.0002
21
147.0000
0
LINE
8
OHNE_NAMEN
6
CONTINUOUS
62
7
39
0.1528
10
116.0000
20
145.0001
11
117.0002
21
145.0001
0
LINE
8
OHNE_NAMEN
6
CONTINUOUS
62
7
39
0.1528
10
154.0002
20
155.0000
11
155.0003
21
155.0000
0
LINE
8
OHNE_NAMEN
6
CONTINUOUS
62
7
39
0.1528
10
154.0002
20
153.0001
11
155.0003
21
153.0001
0
LINE
8
OHNE_NAMEN
6
CONTINUOUS
62
7
39
0.1528
10
154.0002
20
150.9998
11
155.0003
21
150.9998
0
LINE
8
OHNE_NAMEN
6
CONTINUOUS
62
7
39
0.1528
10
154.0002
20
148.9999
11
155.0003
21
148.9999
0
LINE
8
OHNE_NAMEN
6
CONTINUOUS
62
7
39
0.1528
10
154.0002
20
147.0000
11
155.0003
21
147.0000
0
LINE
8
OHNE_NAMEN
6
CONTINUOUS
62
7
39
0.1528
10
154.0002
20
145.0001
11
155.0003
21
145.0001
0
LINE
8
OHNE_NAMEN
6
CONTINUOUS
62
7
39
0.1528
10
119.0001
20
157.0002
11
119.0001
21
156.0001
0
LINE
8
OHNE_NAMEN
6
CONTINUOUS
62
7
39
0.1528
10
121.0003
20
157.0002
11
121.0003
21
156.0001
0
LINE
8
OHNE_NAMEN
6
CONTINUOUS
62
7
39
0.1528
10
123.0002
20
157.0002
11
123.0002
21
156.0001
0
LINE
8
OHNE_NAMEN
6
CONTINUOUS
62
7
39
0.1528
10
125.0001
20
157.0002
11
125.0001
21
156.0001
0
LINE
8
OHNE_NAMEN
6
CONTINUOUS
62
7
39
0.1528
10
127.0004
20
157.0002
11
127.0004
21
156.0001
0
LINE
8
OHNE_NAMEN
6
CONTINUOUS
62
7
39
0.1528
10
129.0003
20
157.0002
11
129.0003
21
156.0001
0
LINE
8
OHNE_NAMEN
6
CONTINUOUS
62
7
39
0.1528
10
131.0001
20
157.0002
11
131.0001
21
156.0001
0
LINE
8
OHNE_NAMEN
6
CONTINUOUS
62
7
39
0.1528
10
133.0000
20
156.9999
11
133.0000
21
156.0001
0
LINE
8
OHNE_NAMEN
6
CONTINUOUS
62
7
39
0.1528
10
135.0003
20
156.9999
11
135.0003
21
156.0001
0
LINE
8
OHNE_NAMEN
6
CONTINUOUS
62
7
39
0.1528
10
138.0003
20
157.0002
11
138.0003
21
156.0001
0
LINE
8
OHNE_NAMEN
6
CONTINUOUS
62
7
39
0.1528
10
140.0002
20
157.0002
11
140.0002
21
156.0001
0
LINE
8
OHNE_NAMEN
6
CONTINUOUS
62
7
39
0.1528
10
142.0001
20
157.0002
11
142.0001
21
156.0001
0
LINE
8
OHNE_NAMEN
6
CONTINUOUS
62
7
39
0.1528
10
144.0004
20
156.9999
11
144.0004
21
156.0001
0
LINE
8
OHNE_NAMEN
6
CONTINUOUS
62
7
39
0.1528
10
146.0003
20
156.9999
11
146.0003
21
156.0001
0
LINE
8
OHNE_NAMEN
6
CONTINUOUS
62
7
39
0.1528
10
148.0002
20
156.9999
11
148.0002
21
156.0001
0
LINE
8
OHNE_NAMEN
6
CONTINUOUS
62
7
39
0.1528
10
150.0000
20
156.9999
11
150.0000
21
156.0001
0
LINE
8
OHNE_NAMEN
6
CONTINUOUS
62
7
39
0.1528
10
152.0003
20
156.9999
11
152.0003
21
156.0001
0
LINE
8
OHNE_NAMEN
6
CONTINUOUS
62
7
39
0.1528
10
154.0002
20
156.9999
11
154.0002
21
156.0001
0
LINE
8
OHNE_NAMEN
6
CONTINUOUS
62
7
39
0.1528
10
117.0002
20
157.0002
11
117.0002
21
156.0001
0
LINE
8
OHNE_NAMEN
6
CONTINUOUS
62
7
39
0.1528
10
136.5003
20
157.0002
11
136.5003
21
156.0001
0
LINE
8
OHNE_NAMEN
6
CONTINUOUS
62
7
39
0.1528
10
119.0001
20
144.0000
11
119.0001
21
142.9999
0
LINE
8
OHNE_NAMEN
6
CONTINUOUS
62
7
39
0.1528
10
121.0003
20
144.0000
11
121.0003
21
142.9999
0
LINE
8
OHNE_NAMEN
6
CONTINUOUS
62
7
39
0.1528
10
123.0002
20
144.0000
11
123.0002
21
142.9999
0
LINE
8
OHNE_NAMEN
6
CONTINUOUS
62
7
39
0.1528
10
125.0001
20
144.0000
11
125.0001
21
142.9999
0
LINE
8
OHNE_NAMEN
6
CONTINUOUS
62
7
39
0.1528
10
127.0004
20
144.0000
11
127.0004
21
142.9999
0
LINE
8
OHNE_NAMEN
6
CONTINUOUS
62
7
39
0.1528
10
129.0003
20
144.0000
11
129.0003
21
142.9999
0
LINE
8
OHNE_NAMEN
6
CONTINUOUS
62
7
39
0.1528
10
131.0001
20
144.0000
11
131.0001
21
142.9999
0
LINE
8
OHNE_NAMEN
6
CONTINUOUS
62
7
39
0.1528
10
133.0000
20
144.0000
11
133.0000
21
142.9999
0
LINE
8
OHNE_NAMEN
6
CONTINUOUS
62
7
39
0.1528
10
135.0003
20
144.0000
11
135.0003
21
142.9999
0
LINE
8
OHNE_NAMEN
6
CONTINUOUS
62
7
39
0.1528
10
138.0003
20
144.0000
11
138.0003
21
142.9999
0
LINE
8
OHNE_NAMEN
6
CONTINUOUS
62
7
39
0.1528
10
140.0002
20
144.0000
11
140.0002
21
142.9999
0
LINE
8
OHNE_NAMEN
6
CONTINUOUS
62
7
39
0.1528
10
142.0001
20
144.0000
11
142.0001
21
142.9999
0
LINE
8
OHNE_NAMEN
6
CONTINUOUS
62
7
39
0.1528
10
144.0004
20
144.0000
11
144.0004
21
142.9999
0
LINE
8
OHNE_NAMEN
6
CONTINUOUS
62
7
39
0.1528
10
146.0003
20
144.0000
11
146.0003
21
142.9999
0
LINE
8
OHNE_NAMEN
6
CONTINUOUS
62
7
39
0.1528
10
148.0002
20
144.0000
11
148.0002
21
142.9999
0
LINE
8
OHNE_NAMEN
6
CONTINUOUS
62
7
39
0.1528
10
150.0000
20
144.0000
11
150.0000
21
142.9999
0
LINE
8
OHNE_NAMEN
6
CONTINUOUS
62
7
39
0.1528
10
152.0003
20
144.0000
11
152.0003
21
142.9999
0
LINE
8
OHNE_NAMEN
6
CONTINUOUS
62
7
39
0.1528
10
154.0002
20
144.0000
11
154.0002
21
142.9999
0
LINE
8
OHNE_NAMEN
6
CONTINUOUS
62
7
39
0.1528
10
117.0002
20
144.0000
11
117.0002
21
142.9999
0
LINE
8
OHNE_NAMEN
6
CONTINUOUS
62
7
39
0.1528
10
136.5003
20
144.0000
11
136.5003
21
142.9999
0
LINE
8
OHNE_NAMEN
6
CONTINUOUS
62
7
39
0.1528
10
118.0003
20
155.0000
11
118.0003
21
145.0001
0
LINE
8
OHNE_NAMEN
6
CONTINUOUS
62
7
39
0.1528
10
118.0003
20
145.0001
11
153.0001
21
145.0001
0
LINE
8
OHNE_NAMEN
6
CONTINUOUS
62
7
39
0.1528
10
153.0001
20
145.0001
11
153.0001
21
155.0000
0
LINE
8
OHNE_NAMEN
6
CONTINUOUS
62
7
39
0.1528
10
153.0001
20
155.0000
11
118.0003
21
155.0000
0
LINE
8
OHNE_NAMEN
6
CONTINUOUS
62
7
39
0.1528
10
117.0002
20
145.9999
11
118.0003
21
145.9999
0
LINE
8
OHNE_NAMEN
6
CONTINUOUS
62
7
39
0.1528
10
117.0002
20
148.0002
11
118.0003
21
148.0002
0
LINE
8
OHNE_NAMEN
6
CONTINUOUS
62
7
39
0.1528
10
117.0002
20
150.0000
11
118.0003
21
150.0000
0
LINE
8
OHNE_NAMEN
6
CONTINUOUS
62
7
39
0.1528
10
117.0002
20
151.9999
11
118.0003
21
151.9999
0
LINE
8
OHNE_NAMEN
6
CONTINUOUS
62
7
39
0.1528
10
117.0002
20
154.0002
11
118.0003
21
154.0002
0
LINE
8
OHNE_NAMEN
6
CONTINUOUS
62
7
39
0.1528
10
118.0003
20
155.0000
11
118.0003
21
156.0001
0
LINE
8
OHNE_NAMEN
6
CONTINUOUS
62
7
39
0.1528
10
120.0002
20
156.0001
11
120.0002
21
155.0000
0
LINE
8
OHNE_NAMEN
6
CONTINUOUS
62
7
39
0.1528
10
122.0001
20
156.0001
11
122.0001
21
155.0000
0
LINE
8
OHNE_NAMEN
6
CONTINUOUS
62
7
39
0.1528
10
124.0000
20
156.0001
11
124.0000
21
155.0000
0
LINE
8
OHNE_NAMEN
6
CONTINUOUS
62
7
39
0.1528
10
126.0002
20
156.0001
11
126.0002
21
155.0000
0
LINE
8
OHNE_NAMEN
6
CONTINUOUS
62
7
39
0.1528
10
128.0001
20
156.0001
11
128.0001
21
155.0000
0
LINE
8
OHNE_NAMEN
6
CONTINUOUS
62
7
39
0.1528
10
130.0004
20
156.0001
11
130.0004
21
155.0000
0
LINE
8
OHNE_NAMEN
6
CONTINUOUS
62
7
39
0.1528
10
132.0003
20
156.0001
11
132.0003
21
155.0000
0
LINE
8
OHNE_NAMEN
6
CONTINUOUS
62
7
39
0.1528
10
134.0002
20
156.0001
11
134.0002
21
155.0000
0
LINE
8
OHNE_NAMEN
6
CONTINUOUS
62
7
39
0.1528
10
136.0001
20
156.0001
11
136.0001
21
155.0000
0
LINE
8
OHNE_NAMEN
6
CONTINUOUS
62
7
39
0.1528
10
137.0002
20
156.0001
11
137.0002
21
155.0000
0
LINE
8
OHNE_NAMEN
6
CONTINUOUS
62
7
39
0.1528
10
139.0001
20
156.0001
11
139.0001
21
155.0000
0
LINE
8
OHNE_NAMEN
6
CONTINUOUS
62
7
39
0.1528
10
141.0003
20
156.0001
11
141.0003
21
155.0000
0
LINE
8
OHNE_NAMEN
6
CONTINUOUS
62
7
39
0.1528
10
143.0002
20
156.0001
11
143.0002
21
155.0000
0
LINE
8
OHNE_NAMEN
6
CONTINUOUS
62
7
39
0.1528
10
145.0001
20
156.0001
11
145.0001
21
155.0000
0
LINE
8
OHNE_NAMEN
6
CONTINUOUS
62
7
39
0.1528
10
147.0000
20
156.0001
11
147.0000
21
155.0000
0
LINE
8
OHNE_NAMEN
6
CONTINUOUS
62
7
39
0.1528
10
149.0003
20
156.0001
11
149.0003
21
155.0000
0
LINE
8
OHNE_NAMEN
6
CONTINUOUS
62
7
39
0.1528
10
151.0002
20
156.0001
11
151.0002
21
155.0000
0
LINE
8
OHNE_NAMEN
6
CONTINUOUS
62
7
39
0.1528
10
153.0001
20
156.0001
11
153.0001
21
155.0000
0
LINE
8
OHNE_NAMEN
6
CONTINUOUS
62
7
39
0.1528
10
118.0003
20
144.0000
11
118.0003
21
145.0001
0
LINE
8
OHNE_NAMEN
6
CONTINUOUS
62
7
39
0.1528
10
120.0002
20
145.0001
11
120.0002
21
144.0000
0
LINE
8
OHNE_NAMEN
6
CONTINUOUS
62
7
39
0.1528
10
122.0001
20
145.0001
11
122.0001
21
144.0000
0
LINE
8
OHNE_NAMEN
6
CONTINUOUS
62
7
39
0.1528
10
124.0000
20
145.0001
11
124.0000
21
144.0000
0
LINE
8
OHNE_NAMEN
6
CONTINUOUS
62
7
39
0.1528
10
126.0002
20
145.0001
11
126.0002
21
144.0000
0
LINE
8
OHNE_NAMEN
6
CONTINUOUS
62
7
39
0.1528
10
128.0001
20
145.0001
11
128.0001
21
144.0000
0
LINE
8
OHNE_NAMEN
6
CONTINUOUS
62
7
39
0.1528
10
130.0004
20
145.0001
11
130.0004
21
144.0000
0
LINE
8
OHNE_NAMEN
6
CONTINUOUS
62
7
39
0.1528
10
132.0003
20
145.0001
11
132.0003
21
144.0000
0
LINE
8
OHNE_NAMEN
6
CONTINUOUS
62
7
39
0.1528
10
134.0002
20
145.0001
11
134.0002
21
144.0000
0
LINE
8
OHNE_NAMEN
6
CONTINUOUS
62
7
39
0.1528
10
136.0001
20
145.0001
11
136.0001
21
144.0000
0
LINE
8
OHNE_NAMEN
6
CONTINUOUS
62
7
39
0.1528
10
137.0002
20
145.0001
11
137.0002
21
144.0000
0
LINE
8
OHNE_NAMEN
6
CONTINUOUS
62
7
39
0.1528
10
139.0001
20
145.0001
11
139.0001
21
144.0000
0
LINE
8
OHNE_NAMEN
6
CONTINUOUS
62
7
39
0.1528
10
141.0003
20
145.0001
11
141.0003
21
144.0000
0
LINE
8
OHNE_NAMEN
6
CONTINUOUS
62
7
39
0.1528
10
143.0002
20
145.0001
11
143.0002
21
144.0000
0
LINE
8
OHNE_NAMEN
6
CONTINUOUS
62
7
39
0.1528
10
145.0001
20
145.0001
11
145.0001
21
144.0000
0
LINE
8
OHNE_NAMEN
6
CONTINUOUS
62
7
39
0.1528
10
147.0004
20
145.0001
11
147.0004
21
144.0000
0
LINE
8
OHNE_NAMEN
6
CONTINUOUS
62
7
39
0.1528
10
149.0003
20
145.0001
11
149.0003
21
144.0000
0
LINE
8
OHNE_NAMEN
6
CONTINUOUS
62
7
39
0.1528
10
151.0002
20
145.0001
11
151.0002
21
144.0000
0
LINE
8
OHNE_NAMEN
6
CONTINUOUS
62
7
39
0.1528
10
153.0001
20
145.0001
11
153.0001
21
144.0000
0
LINE
8
OHNE_NAMEN
6
CONTINUOUS
62
7
39
0.1528
10
153.0001
20
154.0002
11
154.0002
21
154.0002
0
LINE
8
OHNE_NAMEN
6
CONTINUOUS
62
7
39
0.1528
10
153.0001
20
151.9999
11
154.0002
21
151.9999
0
LINE
8
OHNE_NAMEN
6
CONTINUOUS
62
7
39
0.1528
10
153.0001
20
150.0000
11
154.0002
21
150.0000
0
LINE
8
OHNE_NAMEN
6
CONTINUOUS
62
7
39
0.1528
10
153.0001
20
148.0002
11
154.0002
21
148.0002
0
LINE
8
OHNE_NAMEN
6
CONTINUOUS
62
7
39
0.1528
10
153.0001
20
145.9999
11
154.0002
21
145.9999
0
LINE
8
OHNE_NAMEN
6
CONTINUOUS
62
7
39
0.1528
10
115.0003
20
142.0001
11
115.0003
21
141.0000
0
LINE
8
OHNE_NAMEN
6
CONTINUOUS
62
7
39
0.1528
10
117.0002
20
142.0001
11
117.0002
21
141.0000
0
LINE
8
OHNE_NAMEN
6
CONTINUOUS
62
7
39
0.1528
10
119.0001
20
142.0001
11
119.0001
21
141.0000
0
LINE
8
OHNE_NAMEN
6
CONTINUOUS
62
7
39
0.1528
10
121.0003
20
142.0001
11
121.0003
21
141.0000
0
LINE
8
OHNE_NAMEN
6
CONTINUOUS
62
7
39
0.1528
10
123.0002
20
142.0001
11
123.0002
21
141.0000
0
LINE
8
OHNE_NAMEN
6
CONTINUOUS
62
7
39
0.1528
10
125.0001
20
142.0001
11
125.0001
21
141.0000
0
LINE
8
OHNE_NAMEN
6
CONTINUOUS
62
7
39
0.1528
10
127.0004
20
142.0001
11
127.0004
21
141.0000
0
LINE
8
OHNE_NAMEN
6
CONTINUOUS
62
7
39
0.1528
10
129.0003
20
142.0001
11
129.0003
21
141.0000
0
LINE
8
OHNE_NAMEN
6
CONTINUOUS
62
7
39
0.1528
10
131.0001
20
142.0001
11
131.0001
21
141.0000
0
LINE
8
OHNE_NAMEN
6
CONTINUOUS
62
7
39
0.1528
10
133.0000
20
142.0001
11
133.0000
21
141.0000
0
LINE
8
OHNE_NAMEN
6
CONTINUOUS
62
7
39
0.1528
10
135.0003
20
142.0001
11
135.0003
21
141.0000
0
LINE
8
OHNE_NAMEN
6
CONTINUOUS
62
7
39
0.1528
10
136.5003
20
142.0001
11
136.5003
21
141.0000
0
LINE
8
OHNE_NAMEN
6
CONTINUOUS
62
7
39
0.1528
10
138.0003
20
142.0001
11
138.0003
21
141.0000
0
LINE
8
OHNE_NAMEN
6
CONTINUOUS
62
7
39
0.1528
10
140.0002
20
142.0001
11
140.0002
21
141.0000
0
LINE
8
OHNE_NAMEN
6
CONTINUOUS
62
7
39
0.1528
10
142.0001
20
142.0001
11
142.0001
21
141.0000
0
LINE
8
OHNE_NAMEN
6
CONTINUOUS
62
7
39
0.1528
10
144.0004
20
142.0001
11
144.0004
21
141.0000
0
LINE
8
OHNE_NAMEN
6
CONTINUOUS
62
7
39
0.1528
10
146.0003
20
142.0001
11
146.0003
21
141.0000
0
LINE
8
OHNE_NAMEN
6
CONTINUOUS
62
7
39
0.1528
10
148.0002
20
142.0001
11
148.0002
21
141.0000
0
LINE
8
OHNE_NAMEN
6
CONTINUOUS
62
7
39
0.1528
10
114.0001
20
141.0000
11
114.0001
21
139.9999
0
LINE
8
OHNE_NAMEN
6
CONTINUOUS
62
7
39
0.1528
10
116.0000
20
141.0000
11
116.0000
21
139.9999
0
LINE
8
OHNE_NAMEN
6
CONTINUOUS
62
7
39
0.1528
10
118.0003
20
141.0000
11
118.0003
21
139.9999
0
LINE
8
OHNE_NAMEN
6
CONTINUOUS
62
7
39
0.1528
10
120.0002
20
141.0000
11
120.0002
21
139.9999
0
LINE
8
OHNE_NAMEN
6
CONTINUOUS
62
7
39
0.1528
10
122.0001
20
141.0000
11
122.0001
21
139.9999
0
LINE
8
OHNE_NAMEN
6
CONTINUOUS
62
7
39
0.1528
10
124.0003
20
141.0000
11
124.0003
21
139.9999
0
LINE
8
OHNE_NAMEN
6
CONTINUOUS
62
7
39
0.1528
10
126.0002
20
141.0000
11
126.0002
21
139.9999
0
LINE
8
OHNE_NAMEN
6
CONTINUOUS
62
7
39
0.1528
10
128.0001
20
141.0000
11
128.0001
21
139.9999
0
LINE
8
OHNE_NAMEN
6
CONTINUOUS
62
7
39
0.1528
10
130.0004
20
141.0000
11
130.0004
21
139.9999
0
LINE
8
OHNE_NAMEN
6
CONTINUOUS
62
7
39
0.1528
10
115.0003
20
139.9999
11
115.0003
21
139.0001
0
LINE
8
OHNE_NAMEN
6
CONTINUOUS
62
7
39
0.1528
10
117.0002
20
139.9999
11
117.0002
21
139.0001
0
LINE
8
OHNE_NAMEN
6
CONTINUOUS
62
7
39
0.1528
10
119.0001
20
139.9999
11
119.0001
21
139.0001
0
LINE
8
OHNE_NAMEN
6
CONTINUOUS
62
7
39
0.1528
10
121.0003
20
139.9999
11
121.0003
21
139.0001
0
LINE
8
OHNE_NAMEN
6
CONTINUOUS
62
7
39
0.1528
10
123.0002
20
139.9999
11
123.0002
21
139.0001
0
LINE
8
OHNE_NAMEN
6
CONTINUOUS
62
7
39
0.1528
10
125.0001
20
139.9999
11
125.0001
21
139.0001
0
LINE
8
OHNE_NAMEN
6
CONTINUOUS
62
7
39
0.1528
10
127.0004
20
139.9999
11
127.0004
21
139.0001
0
LINE
8
OHNE_NAMEN
6
CONTINUOUS
62
7
39
0.1528
10
129.0003
20
139.9999
11
129.0003
21
139.0001
0
LINE
8
OHNE_NAMEN
6
CONTINUOUS
62
7
39
0.1528
10
131.0001
20
139.9999
11
131.0001
21
139.0001
0
LINE
8
OHNE_NAMEN
6
CONTINUOUS
62
7
39
0.1528
10
114.0001
20
139.0001
11
114.0001
21
138.0000
0
LINE
8
OHNE_NAMEN
6
CONTINUOUS
62
7
39
0.1528
10
116.0000
20
139.0001
11
116.0000
21
138.0000
0
LINE
8
OHNE_NAMEN
6
CONTINUOUS
62
7
39
0.1528
10
118.0003
20
139.0001
11
118.0003
21
138.0000
0
LINE
8
OHNE_NAMEN
6
CONTINUOUS
62
7
39
0.1528
10
120.0002
20
139.0001
11
120.0002
21
138.0000
0
LINE
8
OHNE_NAMEN
6
CONTINUOUS
62
7
39
0.1528
10
122.0001
20
139.0001
11
122.0001
21
138.0000
0
LINE
8
OHNE_NAMEN
6
CONTINUOUS
62
7
39
0.1528
10
124.0003
20
139.0001
11
124.0003
21
138.0000
0
LINE
8
OHNE_NAMEN
6
CONTINUOUS
62
7
39
0.1528
10
126.0002
20
139.0001
11
126.0002
21
138.0000
0
LINE
8
OHNE_NAMEN
6
CONTINUOUS
62
7
39
0.1528
10
128.0001
20
139.0001
11
128.0001
21
138.0000
0
LINE
8
OHNE_NAMEN
6
CONTINUOUS
62
7
39
0.1528
10
130.0004
20
139.0001
11
130.0004
21
138.0000
0
LINE
8
OHNE_NAMEN
6
CONTINUOUS
62
7
39
0.1528
10
132.0003
20
141.0000
11
132.0003
21
139.9999
0
LINE
8
OHNE_NAMEN
6
CONTINUOUS
62
7
39
0.1528
10
134.0002
20
141.0000
11
134.0002
21
139.9999
0
LINE
8
OHNE_NAMEN
6
CONTINUOUS
62
7
39
0.1528
10
136.0001
20
141.0000
11
136.0001
21
139.9999
0
LINE
8
OHNE_NAMEN
6
CONTINUOUS
62
7
39
0.1528
10
137.0002
20
141.0000
11
137.0002
21
139.9999
0
LINE
8
OHNE_NAMEN
6
CONTINUOUS
62
7
39
0.1528
10
139.0001
20
141.0000
11
139.0001
21
139.9999
0
LINE
8
OHNE_NAMEN
6
CONTINUOUS
62
7
39
0.1528
10
141.0003
20
141.0000
11
141.0003
21
139.9999
0
LINE
8
OHNE_NAMEN
6
CONTINUOUS
62
7
39
0.1528
10
143.0002
20
141.0000
11
143.0002
21
139.9999
0
LINE
8
OHNE_NAMEN
6
CONTINUOUS
62
7
39
0.1528
10
145.0001
20
141.0000
11
145.0001
21
139.9999
0
LINE
8
OHNE_NAMEN
6
CONTINUOUS
62
7
39
0.1528
10
147.0004
20
141.0000
11
147.0004
21
139.9999
0
LINE
8
OHNE_NAMEN
6
CONTINUOUS
62
7
39
0.1528
10
133.0000
20
139.9999
11
133.0000
21
139.0001
0
LINE
8
OHNE_NAMEN
6
CONTINUOUS
62
7
39
0.1528
10
135.0003
20
139.9999
11
135.0003
21
139.0001
0
LINE
8
OHNE_NAMEN
6
CONTINUOUS
62
7
39
0.1528
10
136.5003
20
139.9999
11
136.5003
21
139.0001
0
LINE
8
OHNE_NAMEN
6
CONTINUOUS
62
7
39
0.1528
10
138.0003
20
139.9999
11
138.0003
21
139.0001
0
LINE
8
OHNE_NAMEN
6
CONTINUOUS
62
7
39
0.1528
10
140.0002
20
139.9999
11
140.0002
21
139.0001
0
LINE
8
OHNE_NAMEN
6
CONTINUOUS
62
7
39
0.1528
10
142.0001
20
139.9999
11
142.0001
21
139.0001
0
LINE
8
OHNE_NAMEN
6
CONTINUOUS
62
7
39
0.1528
10
144.0004
20
139.9999
11
144.0004
21
139.0001
0
LINE
8
OHNE_NAMEN
6
CONTINUOUS
62
7
39
0.1528
10
146.0003
20
139.9999
11
146.0003
21
139.0001
0
LINE
8
OHNE_NAMEN
6
CONTINUOUS
62
7
39
0.1528
10
148.0002
20
139.9999
11
148.0002
21
139.0001
0
LINE
8
OHNE_NAMEN
6
CONTINUOUS
62
7
39
0.1528
10
132.0003
20
139.0001
11
132.0003
21
138.0000
0
LINE
8
OHNE_NAMEN
6
CONTINUOUS
62
7
39
0.1528
10
134.0002
20
139.0001
11
134.0002
21
138.0000
0
LINE
8
OHNE_NAMEN
6
CONTINUOUS
62
7
39
0.1528
10
136.0001
20
139.0001
11
136.0001
21
138.0000
0
LINE
8
OHNE_NAMEN
6
CONTINUOUS
62
7
39
0.1528
10
137.0002
20
139.0001
11
137.0002
21
138.0000
0
LINE
8
OHNE_NAMEN
6
CONTINUOUS
62
7
39
0.1528
10
139.0001
20
139.0001
11
139.0001
21
138.0000
0
LINE
8
OHNE_NAMEN
6
CONTINUOUS
62
7
39
0.1528
10
141.0003
20
139.0001
11
141.0003
21
138.0000
0
LINE
8
OHNE_NAMEN
6
CONTINUOUS
62
7
39
0.1528
10
143.0002
20
139.0001
11
143.0002
21
138.0000
0
LINE
8
OHNE_NAMEN
6
CONTINUOUS
62
7
39
0.1528
10
145.0001
20
139.0001
11
145.0001
21
138.0000
0
LINE
8
OHNE_NAMEN
6
CONTINUOUS
62
7
39
0.1528
10
147.0004
20
139.0001
11
147.0004
21
138.0000
0
LINE
8
OHNE_NAMEN
6
CONTINUOUS
62
7
39
0.1528
10
155.0003
20
142.9999
11
155.0003
21
142.0001
0
LINE
8
OHNE_NAMEN
6
CONTINUOUS
62
7
39
0.1528
10
150.0000
20
142.0001
11
150.0000
21
141.0000
0
LINE
8
OHNE_NAMEN
6
CONTINUOUS
62
7
39
0.1528
10
149.0003
20
141.0000
11
149.0003
21
139.9999
0
LINE
8
OHNE_NAMEN
6
CONTINUOUS
62
7
39
0.1528
10
152.0003
20
142.0001
11
152.0003
21
141.0000
0
LINE
8
OHNE_NAMEN
6
CONTINUOUS
62
7
39
0.1528
10
151.0002
20
141.0000
11
151.0002
21
139.9999
0
LINE
8
OHNE_NAMEN
6
CONTINUOUS
62
7
39
0.1528
10
150.0000
20
139.9999
11
150.0000
21
139.0001
0
LINE
8
OHNE_NAMEN
6
CONTINUOUS
62
7
39
0.1528
10
149.0003
20
139.0001
11
149.0003
21
138.0000
0
LINE
8
OHNE_NAMEN
6
CONTINUOUS
62
7
39
0.1528
10
154.0002
20
142.0001
11
154.0002
21
141.0000
0
LINE
8
OHNE_NAMEN
6
CONTINUOUS
62
7
39
0.1528
10
153.0001
20
141.0000
11
153.0001
21
139.9999
0
LINE
8
OHNE_NAMEN
6
CONTINUOUS
62
7
39
0.1528
10
152.0003
20
139.9999
11
152.0003
21
139.0001
0
LINE
8
OHNE_NAMEN
6
CONTINUOUS
62
7
39
0.1528
10
151.0002
20
139.0001
11
151.0002
21
138.0000
0
LINE
8
OHNE_NAMEN
6
CONTINUOUS
62
7
39
0.1528
10
156.0001
20
142.0001
11
156.0001
21
141.0000
0
LINE
8
OHNE_NAMEN
6
CONTINUOUS
62
7
39
0.1528
10
155.0003
20
141.0000
11
155.0003
21
139.9999
0
LINE
8
OHNE_NAMEN
6
CONTINUOUS
62
7
39
0.1528
10
154.0002
20
139.9999
11
154.0002
21
139.0001
0
LINE
8
OHNE_NAMEN
6
CONTINUOUS
62
7
39
0.1528
10
153.0001
20
139.0001
11
153.0001
21
138.0000
0
LINE
8
OHNE_NAMEN
6
CONTINUOUS
62
7
39
0.1528
10
157.0002
20
141.0000
11
157.0002
21
139.9999
0
LINE
8
OHNE_NAMEN
6
CONTINUOUS
62
7
39
0.1528
10
156.0001
20
139.9999
11
156.0001
21
139.0001
0
LINE
8
OHNE_NAMEN
6
CONTINUOUS
62
7
39
0.1528
10
155.0003
20
139.0001
11
155.0003
21
138.0000
0
LINE
8
OHNE_NAMEN
6
CONTINUOUS
62
7
39
0.1528
10
157.0002
20
139.0001
11
157.0002
21
138.0000
0
LINE
8
OHNE_NAMEN
6
CONTINUOUS
62
7
39
0.1528
10
114.0001
20
159.9999
11
114.0001
21
159.0001
0
LINE
8
OHNE_NAMEN
6
CONTINUOUS
62
7
39
0.1528
10
116.0000
20
159.9999
11
116.0000
21
159.0001
0
LINE
8
OHNE_NAMEN
6
CONTINUOUS
62
7
39
0.1528
10
118.0003
20
159.9999
11
118.0003
21
159.0001
0
LINE
8
OHNE_NAMEN
6
CONTINUOUS
62
7
39
0.1528
10
120.0002
20
159.9999
11
120.0002
21
159.0001
0
LINE
8
OHNE_NAMEN
6
CONTINUOUS
62
7
39
0.1528
10
122.0001
20
159.9999
11
122.0001
21
159.0001
0
LINE
8
OHNE_NAMEN
6
CONTINUOUS
62
7
39
0.1528
10
124.0003
20
159.9999
11
124.0003
21
159.0001
0
LINE
8
OHNE_NAMEN
6
CONTINUOUS
62
7
39
0.1528
10
126.0002
20
159.9999
11
126.0002
21
159.0001
0
LINE
8
OHNE_NAMEN
6
CONTINUOUS
62
7
39
0.1528
10
128.0001
20
159.9999
11
128.0001
21
159.0001
0
LINE
8
OHNE_NAMEN
6
CONTINUOUS
62
7
39
0.1528
10
130.0004
20
159.9999
11
130.0004
21
159.0001
0
LINE
8
OHNE_NAMEN
6
CONTINUOUS
62
7
39
0.1528
10
115.0003
20
159.0001
11
115.0003
21
158.0000
0
LINE
8
OHNE_NAMEN
6
CONTINUOUS
62
7
39
0.1528
10
117.0002
20
159.0001
11
117.0002
21
158.0000
0
LINE
8
OHNE_NAMEN
6
CONTINUOUS
62
7
39
0.1528
10
119.0001
20
159.0001
11
119.0001
21
158.0000
0
LINE
8
OHNE_NAMEN
6
CONTINUOUS
62
7
39
0.1528
10
121.0003
20
159.0001
11
121.0003
21
158.0000
0
LINE
8
OHNE_NAMEN
6
CONTINUOUS
62
7
39
0.1528
10
123.0002
20
159.0001
11
123.0002
21
158.0000
0
LINE
8
OHNE_NAMEN
6
CONTINUOUS
62
7
39
0.1528
10
125.0001
20
159.0001
11
125.0001
21
158.0000
0
LINE
8
OHNE_NAMEN
6
CONTINUOUS
62
7
39
0.1528
10
127.0004
20
159.0001
11
127.0004
21
158.0000
0
LINE
8
OHNE_NAMEN
6
CONTINUOUS
62
7
39
0.1528
10
129.0003
20
159.0001
11
129.0003
21
158.0000
0
LINE
8
OHNE_NAMEN
6
CONTINUOUS
62
7
39
0.1528
10
131.0001
20
159.0001
11
131.0001
21
158.0000
0
LINE
8
OHNE_NAMEN
6
CONTINUOUS
62
7
39
0.1528
10
132.0003
20
159.9999
11
132.0003
21
159.0001
0
LINE
8
OHNE_NAMEN
6
CONTINUOUS
62
7
39
0.1528
10
134.0002
20
159.9999
11
134.0002
21
159.0001
0
LINE
8
OHNE_NAMEN
6
CONTINUOUS
62
7
39
0.1528
10
136.0001
20
159.9999
11
136.0001
21
159.0001
0
LINE
8
OHNE_NAMEN
6
CONTINUOUS
62
7
39
0.1528
10
137.0002
20
159.9999
11
137.0002
21
159.0001
0
LINE
8
OHNE_NAMEN
6
CONTINUOUS
62
7
39
0.1528
10
139.0001
20
159.9999
11
139.0001
21
159.0001
0
LINE
8
OHNE_NAMEN
6
CONTINUOUS
62
7
39
0.1528
10
141.0003
20
159.9999
11
141.0003
21
159.0001
0
LINE
8
OHNE_NAMEN
6
CONTINUOUS
62
7
39
0.1528
10
143.0002
20
159.9999
11
143.0002
21
159.0001
0
LINE
8
OHNE_NAMEN
6
CONTINUOUS
62
7
39
0.1528
10
145.0001
20
159.9999
11
145.0001
21
159.0001
0
LINE
8
OHNE_NAMEN
6
CONTINUOUS
62
7
39
0.1528
10
147.0004
20
159.9999
11
147.0004
21
159.0001
0
LINE
8
OHNE_NAMEN
6
CONTINUOUS
62
7
39
0.1528
10
133.0000
20
159.0001
11
133.0000
21
158.0000
0
LINE
8
OHNE_NAMEN
6
CONTINUOUS
62
7
39
0.1528
10
135.0003
20
159.0001
11
135.0003
21
158.0000
0
LINE
8
OHNE_NAMEN
6
CONTINUOUS
62
7
39
0.1528
10
136.5003
20
159.0001
11
136.5003
21
158.0000
0
LINE
8
OHNE_NAMEN
6
CONTINUOUS
62
7
39
0.1528
10
138.0003
20
159.0001
11
138.0003
21
158.0000
0
LINE
8
OHNE_NAMEN
6
CONTINUOUS
62
7
39
0.1528
10
140.0002
20
159.0001
11
140.0002
21
158.0000
0
LINE
8
OHNE_NAMEN
6
CONTINUOUS
62
7
39
0.1528
10
142.0001
20
159.0001
11
142.0001
21
158.0000
0
LINE
8
OHNE_NAMEN
6
CONTINUOUS
62
7
39
0.1528
10
144.0004
20
159.0001
11
144.0004
21
158.0000
0
LINE
8
OHNE_NAMEN
6
CONTINUOUS
62
7
39
0.1528
10
146.0003
20
159.0001
11
146.0003
21
158.0000
0
LINE
8
OHNE_NAMEN
6
CONTINUOUS
62
7
39
0.1528
10
148.0002
20
159.0001
11
148.0002
21
158.0000
0
LINE
8
OHNE_NAMEN
6
CONTINUOUS
62
7
39
0.1528
10
149.0003
20
159.9999
11
149.0003
21
159.0001
0
LINE
8
OHNE_NAMEN
6
CONTINUOUS
62
7
39
0.1528
10
151.0002
20
159.9999
11
151.0002
21
159.0001
0
LINE
8
OHNE_NAMEN
6
CONTINUOUS
62
7
39
0.1528
10
150.0000
20
159.0001
11
150.0000
21
158.0000
0
LINE
8
OHNE_NAMEN
6
CONTINUOUS
62
7
39
0.1528
10
153.0001
20
159.9999
11
153.0001
21
159.0001
0
LINE
8
OHNE_NAMEN
6
CONTINUOUS
62
7
39
0.1528
10
152.0003
20
159.0001
11
152.0003
21
158.0000
0
LINE
8
OHNE_NAMEN
6
CONTINUOUS
62
7
39
0.1528
10
155.0003
20
159.9999
11
155.0003
21
159.0001
0
LINE
8
OHNE_NAMEN
6
CONTINUOUS
62
7
39
0.1528
10
154.0002
20
159.0001
11
154.0002
21
158.0000
0
LINE
8
OHNE_NAMEN
6
CONTINUOUS
62
7
39
0.1528
10
157.0002
20
159.9999
11
157.0002
21
159.0001
0
LINE
8
OHNE_NAMEN
6
CONTINUOUS
62
7
39
0.1528
10
156.0001
20
159.0001
11
156.0001
21
158.0000
0
LINE
8
OHNE_NAMEN
6
CONTINUOUS
62
7
39
0.1528
10
114.0001
20
162.0001
11
114.0001
21
161.0000
0
LINE
8
OHNE_NAMEN
6
CONTINUOUS
62
7
39
0.1528
10
116.0000
20
162.0001
11
116.0000
21
161.0000
0
LINE
8
OHNE_NAMEN
6
CONTINUOUS
62
7
39
0.1528
10
118.0003
20
162.0001
11
118.0003
21
161.0000
0
LINE
8
OHNE_NAMEN
6
CONTINUOUS
62
7
39
0.1528
10
120.0002
20
162.0001
11
120.0002
21
161.0000
0
LINE
8
OHNE_NAMEN
6
CONTINUOUS
62
7
39
0.1528
10
122.0001
20
162.0001
11
122.0001
21
161.0000
0
LINE
8
OHNE_NAMEN
6
CONTINUOUS
62
7
39
0.1528
10
124.0003
20
162.0001
11
124.0003
21
161.0000
0
LINE
8
OHNE_NAMEN
6
CONTINUOUS
62
7
39
0.1528
10
126.0002
20
162.0001
11
126.0002
21
161.0000
0
LINE
8
OHNE_NAMEN
6
CONTINUOUS
62
7
39
0.1528
10
128.0001
20
162.0001
11
128.0001
21
161.0000
0
LINE
8
OHNE_NAMEN
6
CONTINUOUS
62
7
39
0.1528
10
130.0004
20
162.0001
11
130.0004
21
161.0000
0
LINE
8
OHNE_NAMEN
6
CONTINUOUS
62
7
39
0.1528
10
115.0003
20
161.0000
11
115.0003
21
159.9999
0
LINE
8
OHNE_NAMEN
6
CONTINUOUS
62
7
39
0.1528
10
117.0002
20
161.0000
11
117.0002
21
159.9999
0
LINE
8
OHNE_NAMEN
6
CONTINUOUS
62
7
39
0.1528
10
119.0001
20
161.0000
11
119.0001
21
159.9999
0
LINE
8
OHNE_NAMEN
6
CONTINUOUS
62
7
39
0.1528
10
121.0003
20
161.0000
11
121.0003
21
159.9999
0
LINE
8
OHNE_NAMEN
6
CONTINUOUS
62
7
39
0.1528
10
123.0002
20
161.0000
11
123.0002
21
159.9999
0
LINE
8
OHNE_NAMEN
6
CONTINUOUS
62
7
39
0.1528
10
125.0001
20
161.0000
11
125.0001
21
159.9999
0
LINE
8
OHNE_NAMEN
6
CONTINUOUS
62
7
39
0.1528
10
127.0004
20
161.0000
11
127.0004
21
159.9999
0
LINE
8
OHNE_NAMEN
6
CONTINUOUS
62
7
39
0.1528
10
129.0003
20
161.0000
11
129.0003
21
159.9999
0
LINE
8
OHNE_NAMEN
6
CONTINUOUS
62
7
39
0.1528
10
131.0001
20
161.0000
11
131.0001
21
159.9999
0
LINE
8
OHNE_NAMEN
6
CONTINUOUS
62
7
39
0.1528
10
132.0003
20
162.0001
11
132.0003
21
161.0000
0
LINE
8
OHNE_NAMEN
6
CONTINUOUS
62
7
39
0.1528
10
134.0002
20
162.0001
11
134.0002
21
161.0000
0
LINE
8
OHNE_NAMEN
6
CONTINUOUS
62
7
39
0.1528
10
136.0001
20
162.0001
11
136.0001
21
161.0000
0
LINE
8
OHNE_NAMEN
6
CONTINUOUS
62
7
39
0.1528
10
137.0002
20
162.0001
11
137.0002
21
161.0000
0
LINE
8
OHNE_NAMEN
6
CONTINUOUS
62
7
39
0.1528
10
139.0001
20
162.0001
11
139.0001
21
161.0000
0
LINE
8
OHNE_NAMEN
6
CONTINUOUS
62
7
39
0.1528
10
141.0003
20
162.0001
11
141.0003
21
161.0000
0
LINE
8
OHNE_NAMEN
6
CONTINUOUS
62
7
39
0.1528
10
143.0002
20
162.0001
11
143.0002
21
161.0000
0
LINE
8
OHNE_NAMEN
6
CONTINUOUS
62
7
39
0.1528
10
145.0001
20
162.0001
11
145.0001
21
161.0000
0
LINE
8
OHNE_NAMEN
6
CONTINUOUS
62
7
39
0.1528
10
147.0004
20
162.0001
11
147.0004
21
161.0000
0
LINE
8
OHNE_NAMEN
6
CONTINUOUS
62
7
39
0.1528
10
133.0000
20
161.0000
11
133.0000
21
159.9999
0
LINE
8
OHNE_NAMEN
6
CONTINUOUS
62
7
39
0.1528
10
135.0003
20
161.0000
11
135.0003
21
159.9999
0
LINE
8
OHNE_NAMEN
6
CONTINUOUS
62
7
39
0.1528
10
136.5003
20
161.0000
11
136.5003
21
159.9999
0
LINE
8
OHNE_NAMEN
6
CONTINUOUS
62
7
39
0.1528
10
138.0003
20
161.0000
11
138.0003
21
159.9999
0
LINE
8
OHNE_NAMEN
6
CONTINUOUS
62
7
39
0.1528
10
140.0002
20
161.0000
11
140.0002
21
159.9999
0
LINE
8
OHNE_NAMEN
6
CONTINUOUS
62
7
39
0.1528
10
142.0001
20
161.0000
11
142.0001
21
159.9999
0
LINE
8
OHNE_NAMEN
6
CONTINUOUS
62
7
39
0.1528
10
144.0004
20
161.0000
11
144.0004
21
159.9999
0
LINE
8
OHNE_NAMEN
6
CONTINUOUS
62
7
39
0.1528
10
146.0003
20
161.0000
11
146.0003
21
159.9999
0
LINE
8
OHNE_NAMEN
6
CONTINUOUS
62
7
39
0.1528
10
148.0002
20
161.0000
11
148.0002
21
159.9999
0
LINE
8
OHNE_NAMEN
6
CONTINUOUS
62
7
39
0.1528
10
149.0003
20
162.0001
11
149.0003
21
161.0000
0
LINE
8
OHNE_NAMEN
6
CONTINUOUS
62
7
39
0.1528
10
151.0002
20
162.0001
11
151.0002
21
161.0000
0
LINE
8
OHNE_NAMEN
6
CONTINUOUS
62
7
39
0.1528
10
150.0000
20
161.0000
11
150.0000
21
159.9999
0
LINE
8
OHNE_NAMEN
6
CONTINUOUS
62
7
39
0.1528
10
153.0001
20
162.0001
11
153.0001
21
161.0000
0
LINE
8
OHNE_NAMEN
6
CONTINUOUS
62
7
39
0.1528
10
152.0003
20
161.0000
11
152.0003
21
159.9999
0
LINE
8
OHNE_NAMEN
6
CONTINUOUS
62
7
39
0.1528
10
155.0003
20
162.0001
11
155.0003
21
161.0000
0
LINE
8
OHNE_NAMEN
6
CONTINUOUS
62
7
39
0.1528
10
154.0002
20
161.0000
11
154.0002
21
159.9999
0
LINE
8
OHNE_NAMEN
6
CONTINUOUS
62
7
39
0.1528
10
157.0002
20
162.0001
11
157.0002
21
161.0000
0
LINE
8
OHNE_NAMEN
6
CONTINUOUS
62
7
39
0.1528
10
156.0001
20
161.0000
11
156.0001
21
159.9999
0
LINE
8
OHNE_NAMEN
6
CONTINUOUS
62
1
39
0.0000
10
115.0003
20
162.9999
11
115.0003
21
162.5000
0
LINE
8
OHNE_NAMEN
6
CONTINUOUS
62
1
39
0.0000
10
117.0002
20
162.9999
11
117.0002
21
162.5000
0
LINE
8
OHNE_NAMEN
6
CONTINUOUS
62
1
39
0.0000
10
119.0001
20
162.9999
11
119.0001
21
162.5000
0
LINE
8
OHNE_NAMEN
6
CONTINUOUS
62
1
39
0.0000
10
121.0003
20
162.9999
11
121.0003
21
162.5000
0
LINE
8
OHNE_NAMEN
6
CONTINUOUS
62
1
39
0.0000
10
123.0002
20
162.9999
11
123.0002
21
162.5000
0
LINE
8
OHNE_NAMEN
6
CONTINUOUS
62
1
39
0.0000
10
125.0001
20
162.9999
11
125.0001
21
162.5000
0
LINE
8
OHNE_NAMEN
6
CONTINUOUS
62
1
39
0.0000
10
127.0000
20
162.9999
11
127.0000
21
162.5000
0
LINE
8
OHNE_NAMEN
6
CONTINUOUS
62
1
39
0.0000
10
129.0003
20
162.9999
11
129.0003
21
162.5000
0
LINE
8
OHNE_NAMEN
6
CONTINUOUS
62
1
39
0.0000
10
131.0001
20
162.9999
11
131.0001
21
162.5000
0
LINE
8
OHNE_NAMEN
6
CONTINUOUS
62
1
39
0.0000
10
133.0000
20
162.9999
11
133.0000
21
162.5000
0
LINE
8
OHNE_NAMEN
6
CONTINUOUS
62
1
39
0.0000
10
135.0003
20
162.9999
11
135.0003
21
162.5000
0
LINE
8
OHNE_NAMEN
6
CONTINUOUS
62
1
39
0.0000
10
138.0003
20
162.9999
11
138.0003
21
162.5000
0
LINE
8
OHNE_NAMEN
6
CONTINUOUS
62
1
39
0.0000
10
140.0002
20
162.9999
11
140.0002
21
162.5000
0
LINE
8
OHNE_NAMEN
6
CONTINUOUS
62
1
39
0.0000
10
142.0001
20
162.9999
11
142.0001
21
162.5000
0
LINE
8
OHNE_NAMEN
6
CONTINUOUS
62
1
39
0.0000
10
144.0004
20
162.9999
11
144.0004
21
162.5000
0
LINE
8
OHNE_NAMEN
6
CONTINUOUS
62
1
39
0.0000
10
146.0003
20
162.9999
11
146.0003
21
162.5000
0
LINE
8
OHNE_NAMEN
6
CONTINUOUS
62
1
39
0.0000
10
148.0002
20
162.9999
11
148.0002
21
162.5000
0
LINE
8
OHNE_NAMEN
6
CONTINUOUS
62
1
39
0.0000
10
150.0000
20
162.9999
11
150.0000
21
162.5000
0
LINE
8
OHNE_NAMEN
6
CONTINUOUS
62
1
39
0.0000
10
152.0003
20
162.9999
11
152.0003
21
162.5000
0
LINE
8
OHNE_NAMEN
6
CONTINUOUS
62
1
39
0.0000
10
154.0002
20
162.9999
11
154.0002
21
162.5000
0
LINE
8
OHNE_NAMEN
6
CONTINUOUS
62
1
39
0.0000
10
156.0001
20
162.9999
11
156.0001
21
162.5000
0
LINE
8
OHNE_NAMEN
6
CONTINUOUS
62
1
39
0.0000
10
136.5003
20
162.9999
11
136.5003
21
162.5000
0
LINE
8
OHNE_NAMEN
6
CONTINUOUS
62
7
39
0.0000
10
119.0001
20
155.0003
11
119.0001
21
145.0005
0
LINE
8
OHNE_NAMEN
6
CONTINUOUS
62
7
39
0.0000
10
151.9999
20
155.0003
11
151.9999
21
145.0005
0
LINE
8
OHNE_NAMEN
6
CONTINUOUS
62
7
39
0.0000
10
119.0001
20
154.0005
11
151.9999
21
154.0005
0
LINE
8
OHNE_NAMEN
6
CONTINUOUS
62
7
39
0.0000
10
119.0001
20
146.0003
11
151.9999
21
146.0003
0
LINE
8
OHNE_NAMEN
6
CONTINUOUS
62
7
39
0.0000
10
120.0002
20
154.0005
11
120.0002
21
146.0003
0
LINE
8
OHNE_NAMEN
6
CONTINUOUS
62
7
39
0.0000
10
151.0002
20
154.0005
11
151.0002
21
146.0003
0
LINE
8
OHNE_NAMEN
6
CONTINUOUS
62
7
39
0.0000
10
120.0002
20
147.0004
11
151.0002
21
147.0004
0
LINE
8
OHNE_NAMEN
6
CONTINUOUS
62
7
39
0.0000
10
120.0002
20
153.0004
11
151.0002
21
153.0004
0
LINE
8
OHNE_NAMEN
6
CONTINUOUS
62
7
39
0.0000
10
121.0000
20
153.0004
11
121.0000
21
147.0004
0
LINE
8
OHNE_NAMEN
6
CONTINUOUS
62
7
39
0.0000
10
150.0000
20
153.0004
11
150.0000
21
147.0004
0
LINE
8
OHNE_NAMEN
6
CONTINUOUS
62
7
39
0.0000
10
121.0000
20
148.0005
11
150.0000
21
148.0005
0
LINE
8
OHNE_NAMEN
6
CONTINUOUS
62
7
39
0.0000
10
121.0000
20
152.0003
11
150.0000
21
152.0003
0
LINE
8
OHNE_NAMEN
6
CONTINUOUS
62
7
39
0.0000
10
122.0001
20
152.0003
11
122.0001
21
148.0005
0
LINE
8
OHNE_NAMEN
6
CONTINUOUS
62
7
39
0.0000
10
148.9999
20
152.0003
11
148.9999
21
148.0005
0
LINE
8
OHNE_NAMEN
6
CONTINUOUS
62
7
39
0.0000
10
122.0001
20
149.0003
11
148.9999
21
149.0003
0
LINE
8
OHNE_NAMEN
6
CONTINUOUS
62
7
39
0.0000
10
122.0001
20
151.0005
11
148.9999
21
151.0005
0
LINE
8
OHNE_NAMEN
6
CONTINUOUS
62
7
39
0.0000
10
148.0002
20
151.0005
11
148.0002
21
149.0003
0
LINE
8
OHNE_NAMEN
6
CONTINUOUS
62
7
39
0.0000
10
123.0002
20
151.0005
11
123.0002
21
149.0003
0
LINE
8
OHNE_NAMEN
6
CONTINUOUS
62
7
39
0.0000
10
121.0000
20
155.0003
11
121.0000
21
154.0005
0
LINE
8
OHNE_NAMEN
6
CONTINUOUS
62
7
39
0.0000
10
123.0002
20
155.0003
11
123.0002
21
154.0005
0
LINE
8
OHNE_NAMEN
6
CONTINUOUS
62
7
39
0.0000
10
125.0001
20
155.0003
11
125.0001
21
154.0005
0
LINE
8
OHNE_NAMEN
6
CONTINUOUS
62
7
39
0.0000
10
127.0000
20
155.0003
11
127.0000
21
154.0005
0
LINE
8
OHNE_NAMEN
6
CONTINUOUS
62
7
39
0.0000
10
128.9999
20
155.0003
11
128.9999
21
154.0005
0
LINE
8
OHNE_NAMEN
6
CONTINUOUS
62
7
39
0.0000
10
131.0001
20
155.0003
11
131.0001
21
154.0005
0
LINE
8
OHNE_NAMEN
6
CONTINUOUS
62
7
39
0.0000
10
133.0000
20
155.0003
11
133.0000
21
154.0005
0
LINE
8
OHNE_NAMEN
6
CONTINUOUS
62
7
39
0.0000
10
134.9999
20
155.0003
11
134.9999
21
154.0005
0
LINE
8
OHNE_NAMEN
6
CONTINUOUS
62
7
39
0.0000
10
138.0000
20
155.0003
11
138.0000
21
154.0005
0
LINE
8
OHNE_NAMEN
6
CONTINUOUS
62
7
39
0.0000
10
140.0002
20
155.0003
11
140.0002
21
154.0005
0
LINE
8
OHNE_NAMEN
6
CONTINUOUS
62
7
39
0.0000
10
142.0001
20
155.0003
11
142.0001
21
154.0005
0
LINE
8
OHNE_NAMEN
6
CONTINUOUS
62
7
39
0.0000
10
144.0000
20
155.0003
11
144.0000
21
154.0005
0
LINE
8
OHNE_NAMEN
6
CONTINUOUS
62
7
39
0.0000
10
145.9999
20
155.0003
11
145.9999
21
154.0005
0
LINE
8
OHNE_NAMEN
6
CONTINUOUS
62
7
39
0.0000
10
148.0002
20
155.0003
11
148.0002
21
154.0005
0
LINE
8
OHNE_NAMEN
6
CONTINUOUS
62
7
39
0.0000
10
136.4999
20
155.0003
11
136.4999
21
154.0005
0
LINE
8
OHNE_NAMEN
6
CONTINUOUS
62
7
39
0.0000
10
150.0000
20
155.0003
11
150.0000
21
154.0005
0
LINE
8
OHNE_NAMEN
6
CONTINUOUS
62
7
39
0.0000
10
122.0001
20
154.0005
11
122.0001
21
153.0004
0
LINE
8
OHNE_NAMEN
6
CONTINUOUS
62
7
39
0.0000
10
124.0000
20
154.0005
11
124.0000
21
153.0004
0
LINE
8
OHNE_NAMEN
6
CONTINUOUS
62
7
39
0.0000
10
125.9999
20
154.0005
11
125.9999
21
153.0004
0
LINE
8
OHNE_NAMEN
6
CONTINUOUS
62
7
39
0.0000
10
128.0001
20
154.0005
11
128.0001
21
153.0004
0
LINE
8
OHNE_NAMEN
6
CONTINUOUS
62
7
39
0.0000
10
130.0000
20
154.0005
11
130.0000
21
153.0004
0
LINE
8
OHNE_NAMEN
6
CONTINUOUS
62
7
39
0.0000
10
131.9999
20
154.0005
11
131.9999
21
153.0004
0
LINE
8
OHNE_NAMEN
6
CONTINUOUS
62
7
39
0.0000
10
134.0002
20
154.0005
11
134.0002
21
153.0004
0
LINE
8
OHNE_NAMEN
6
CONTINUOUS
62
7
39
0.0000
10
123.0002
20
153.0004
11
123.0002
21
152.0003
0
LINE
8
OHNE_NAMEN
6
CONTINUOUS
62
7
39
0.0000
10
125.0001
20
153.0004
11
125.0001
21
152.0003
0
LINE
8
OHNE_NAMEN
6
CONTINUOUS
62
7
39
0.0000
10
127.0000
20
153.0004
11
127.0000
21
152.0003
0
LINE
8
OHNE_NAMEN
6
CONTINUOUS
62
7
39
0.0000
10
128.9999
20
153.0004
11
128.9999
21
152.0003
0
LINE
8
OHNE_NAMEN
6
CONTINUOUS
62
7
39
0.0000
10
131.0001
20
153.0004
11
131.0001
21
152.0003
0
LINE
8
OHNE_NAMEN
6
CONTINUOUS
62
7
39
0.0000
10
133.0000
20
153.0004
11
133.0000
21
152.0003
0
LINE
8
OHNE_NAMEN
6
CONTINUOUS
62
7
39
0.0000
10
134.9999
20
153.0004
11
134.9999
21
152.0003
0
LINE
8
OHNE_NAMEN
6
CONTINUOUS
62
7
39
0.0000
10
124.0000
20
152.0003
11
124.0000
21
151.0005
0
LINE
8
OHNE_NAMEN
6
CONTINUOUS
62
7
39
0.0000
10
125.9999
20
152.0003
11
125.9999
21
151.0005
0
LINE
8
OHNE_NAMEN
6
CONTINUOUS
62
7
39
0.0000
10
128.0001
20
152.0003
11
128.0001
21
151.0005
0
LINE
8
OHNE_NAMEN
6
CONTINUOUS
62
7
39
0.0000
10
130.0000
20
152.0003
11
130.0000
21
151.0005
0
LINE
8
OHNE_NAMEN
6
CONTINUOUS
62
7
39
0.0000
10
131.9999
20
152.0003
11
131.9999
21
151.0005
0
LINE
8
OHNE_NAMEN
6
CONTINUOUS
62
7
39
0.0000
10
134.0002
20
152.0003
11
134.0002
21
151.0005
0
LINE
8
OHNE_NAMEN
6
CONTINUOUS
62
7
39
0.0000
10
135.5002
20
152.0003
11
135.5002
21
151.0005
0
LINE
8
OHNE_NAMEN
6
CONTINUOUS
62
7
39
0.0000
10
137.0002
20
154.0005
11
137.0002
21
153.0004
0
LINE
8
OHNE_NAMEN
6
CONTINUOUS
62
7
39
0.0000
10
139.0001
20
154.0005
11
139.0001
21
153.0004
0
LINE
8
OHNE_NAMEN
6
CONTINUOUS
62
7
39
0.0000
10
141.0000
20
154.0005
11
141.0000
21
153.0004
0
LINE
8
OHNE_NAMEN
6
CONTINUOUS
62
7
39
0.0000
10
142.9999
20
154.0005
11
142.9999
21
153.0004
0
LINE
8
OHNE_NAMEN
6
CONTINUOUS
62
7
39
0.0000
10
145.0001
20
154.0005
11
145.0001
21
153.0004
0
LINE
8
OHNE_NAMEN
6
CONTINUOUS
62
7
39
0.0000
10
147.0000
20
154.0005
11
147.0000
21
153.0004
0
LINE
8
OHNE_NAMEN
6
CONTINUOUS
62
7
39
0.0000
10
148.9999
20
154.0005
11
148.9999
21
153.0004
0
LINE
8
OHNE_NAMEN
6
CONTINUOUS
62
7
39
0.0000
10
136.0001
20
154.0005
11
136.0001
21
153.0004
0
LINE
8
OHNE_NAMEN
6
CONTINUOUS
62
7
39
0.0000
10
136.4999
20
153.0004
11
136.4999
21
152.0003
0
LINE
8
OHNE_NAMEN
6
CONTINUOUS
62
7
39
0.0000
10
138.0000
20
153.0004
11
138.0000
21
152.0003
0
LINE
8
OHNE_NAMEN
6
CONTINUOUS
62
7
39
0.0000
10
137.5001
20
152.0003
11
137.5001
21
151.0005
0
LINE
8
OHNE_NAMEN
6
CONTINUOUS
62
7
39
0.0000
10
139.0001
20
152.0003
11
139.0001
21
151.0005
0
LINE
8
OHNE_NAMEN
6
CONTINUOUS
62
7
39
0.0000
10
140.0002
20
153.0004
11
140.0002
21
152.0003
0
LINE
8
OHNE_NAMEN
6
CONTINUOUS
62
7
39
0.0000
10
142.0001
20
153.0004
11
142.0001
21
152.0003
0
LINE
8
OHNE_NAMEN
6
CONTINUOUS
62
7
39
0.0000
10
141.0000
20
152.0003
11
141.0000
21
151.0005
0
LINE
8
OHNE_NAMEN
6
CONTINUOUS
62
7
39
0.0000
10
144.0000
20
153.0004
11
144.0000
21
152.0003
0
LINE
8
OHNE_NAMEN
6
CONTINUOUS
62
7
39
0.0000
10
142.9999
20
152.0003
11
142.9999
21
151.0005
0
LINE
8
OHNE_NAMEN
6
CONTINUOUS
62
7
39
0.0000
10
145.0001
20
152.0003
11
145.0001
21
151.0005
0
LINE
8
OHNE_NAMEN
6
CONTINUOUS
62
7
39
0.0000
10
147.0000
20
152.0003
11
147.0000
21
151.0005
0
LINE
8
OHNE_NAMEN
6
CONTINUOUS
62
7
39
0.0000
10
145.9999
20
153.0004
11
145.9999
21
152.0003
0
LINE
8
OHNE_NAMEN
6
CONTINUOUS
62
7
39
0.0000
10
148.0002
20
153.0004
11
148.0002
21
152.0003
0
LINE
8
OHNE_NAMEN
6
CONTINUOUS
62
7
39
0.0000
10
121.0000
20
146.0003
11
121.0000
21
145.0005
0
LINE
8
OHNE_NAMEN
6
CONTINUOUS
62
7
39
0.0000
10
123.0002
20
146.0003
11
123.0002
21
145.0005
0
LINE
8
OHNE_NAMEN
6
CONTINUOUS
62
7
39
0.0000
10
125.0001
20
146.0003
11
125.0001
21
145.0005
0
LINE
8
OHNE_NAMEN
6
CONTINUOUS
62
7
39
0.0000
10
127.0000
20
146.0003
11
127.0000
21
145.0005
0
LINE
8
OHNE_NAMEN
6
CONTINUOUS
62
7
39
0.0000
10
128.9999
20
146.0003
11
128.9999
21
145.0005
0
LINE
8
OHNE_NAMEN
6
CONTINUOUS
62
7
39
0.0000
10
131.0001
20
146.0003
11
131.0001
21
145.0005
0
LINE
8
OHNE_NAMEN
6
CONTINUOUS
62
7
39
0.0000
10
133.0000
20
146.0003
11
133.0000
21
145.0005
0
LINE
8
OHNE_NAMEN
6
CONTINUOUS
62
7
39
0.0000
10
134.9999
20
146.0003
11
134.9999
21
145.0005
0
LINE
8
OHNE_NAMEN
6
CONTINUOUS
62
7
39
0.0000
10
138.0000
20
146.0003
11
138.0000
21
145.0005
0
LINE
8
OHNE_NAMEN
6
CONTINUOUS
62
7
39
0.0000
10
140.0002
20
146.0003
11
140.0002
21
145.0005
0
LINE
8
OHNE_NAMEN
6
CONTINUOUS
62
7
39
0.0000
10
142.0001
20
146.0003
11
142.0001
21
145.0005
0
LINE
8
OHNE_NAMEN
6
CONTINUOUS
62
7
39
0.0000
10
144.0000
20
146.0003
11
144.0000
21
145.0005
0
LINE
8
OHNE_NAMEN
6
CONTINUOUS
62
7
39
0.0000
10
145.9999
20
146.0003
11
145.9999
21
145.0005
0
LINE
8
OHNE_NAMEN
6
CONTINUOUS
62
7
39
0.0000
10
148.0002
20
146.0003
11
148.0002
21
145.0005
0
LINE
8
OHNE_NAMEN
6
CONTINUOUS
62
7
39
0.0000
10
136.4999
20
146.0003
11
136.4999
21
145.0005
0
LINE
8
OHNE_NAMEN
6
CONTINUOUS
62
7
39
0.0000
10
150.0000
20
146.0003
11
150.0000
21
145.0005
0
LINE
8
OHNE_NAMEN
6
CONTINUOUS
62
7
39
0.0000
10
122.0001
20
147.0004
11
122.0001
21
146.0003
0
LINE
8
OHNE_NAMEN
6
CONTINUOUS
62
7
39
0.0000
10
124.0000
20
147.0004
11
124.0000
21
146.0003
0
LINE
8
OHNE_NAMEN
6
CONTINUOUS
62
7
39
0.0000
10
125.9999
20
147.0004
11
125.9999
21
146.0003
0
LINE
8
OHNE_NAMEN
6
CONTINUOUS
62
7
39
0.0000
10
128.0001
20
147.0004
11
128.0001
21
146.0003
0
LINE
8
OHNE_NAMEN
6
CONTINUOUS
62
7
39
0.0000
10
130.0000
20
147.0004
11
130.0000
21
146.0003
0
LINE
8
OHNE_NAMEN
6
CONTINUOUS
62
7
39
0.0000
10
131.9999
20
147.0004
11
131.9999
21
146.0003
0
LINE
8
OHNE_NAMEN
6
CONTINUOUS
62
7
39
0.0000
10
134.0002
20
147.0004
11
134.0002
21
146.0003
0
LINE
8
OHNE_NAMEN
6
CONTINUOUS
62
7
39
0.0000
10
137.0002
20
147.0004
11
137.0002
21
146.0003
0
LINE
8
OHNE_NAMEN
6
CONTINUOUS
62
7
39
0.0000
10
139.0001
20
147.0004
11
139.0001
21
146.0003
0
LINE
8
OHNE_NAMEN
6
CONTINUOUS
62
7
39
0.0000
10
141.0000
20
147.0004
11
141.0000
21
146.0003
0
LINE
8
OHNE_NAMEN
6
CONTINUOUS
62
7
39
0.0000
10
142.9999
20
147.0004
11
142.9999
21
146.0003
0
LINE
8
OHNE_NAMEN
6
CONTINUOUS
62
7
39
0.0000
10
145.0001
20
147.0004
11
145.0001
21
146.0003
0
LINE
8
OHNE_NAMEN
6
CONTINUOUS
62
7
39
0.0000
10
147.0000
20
147.0004
11
147.0000
21
146.0003
0
LINE
8
OHNE_NAMEN
6
CONTINUOUS
62
7
39
0.0000
10
148.9999
20
147.0004
11
148.9999
21
146.0003
0
LINE
8
OHNE_NAMEN
6
CONTINUOUS
62
7
39
0.0000
10
136.0001
20
147.0004
11
136.0001
21
146.0003
0
LINE
8
OHNE_NAMEN
6
CONTINUOUS
62
7
39
0.0000
10
123.0002
20
148.0005
11
123.0002
21
147.0004
0
LINE
8
OHNE_NAMEN
6
CONTINUOUS
62
7
39
0.0000
10
125.0001
20
148.0005
11
125.0001
21
147.0004
0
LINE
8
OHNE_NAMEN
6
CONTINUOUS
62
7
39
0.0000
10
127.0000
20
148.0005
11
127.0000
21
147.0004
0
LINE
8
OHNE_NAMEN
6
CONTINUOUS
62
7
39
0.0000
10
128.9999
20
148.0005
11
128.9999
21
147.0004
0
LINE
8
OHNE_NAMEN
6
CONTINUOUS
62
7
39
0.0000
10
131.0001
20
148.0005
11
131.0001
21
147.0004
0
LINE
8
OHNE_NAMEN
6
CONTINUOUS
62
7
39
0.0000
10
133.0000
20
148.0005
11
133.0000
21
147.0004
0
LINE
8
OHNE_NAMEN
6
CONTINUOUS
62
7
39
0.0000
10
134.9999
20
148.0005
11
134.9999
21
147.0004
0
LINE
8
OHNE_NAMEN
6
CONTINUOUS
62
7
39
0.0000
10
136.4999
20
148.0005
11
136.4999
21
147.0004
0
LINE
8
OHNE_NAMEN
6
CONTINUOUS
62
7
39
0.0000
10
138.0000
20
148.0005
11
138.0000
21
147.0004
0
LINE
8
OHNE_NAMEN
6
CONTINUOUS
62
7
39
0.0000
10
140.0002
20
148.0005
11
140.0002
21
147.0004
0
LINE
8
OHNE_NAMEN
6
CONTINUOUS
62
7
39
0.0000
10
142.0001
20
148.0005
11
142.0001
21
147.0004
0
LINE
8
OHNE_NAMEN
6
CONTINUOUS
62
7
39
0.0000
10
144.0000
20
148.0005
11
144.0000
21
147.0004
0
LINE
8
OHNE_NAMEN
6
CONTINUOUS
62
7
39
0.0000
10
145.9999
20
148.0005
11
145.9999
21
147.0004
0
LINE
8
OHNE_NAMEN
6
CONTINUOUS
62
7
39
0.0000
10
148.0002
20
148.0005
11
148.0002
21
147.0004
0
LINE
8
OHNE_NAMEN
6
CONTINUOUS
62
7
39
0.0000
10
124.0000
20
149.0003
11
124.0000
21
148.0005
0
LINE
8
OHNE_NAMEN
6
CONTINUOUS
62
7
39
0.0000
10
125.9999
20
149.0003
11
125.9999
21
148.0005
0
LINE
8
OHNE_NAMEN
6
CONTINUOUS
62
7
39
0.0000
10
128.0001
20
149.0003
11
128.0001
21
148.0005
0
LINE
8
OHNE_NAMEN
6
CONTINUOUS
62
7
39
0.0000
10
130.0000
20
149.0003
11
130.0000
21
148.0005
0
LINE
8
OHNE_NAMEN
6
CONTINUOUS
62
7
39
0.0000
10
131.9999
20
149.0003
11
131.9999
21
148.0005
0
LINE
8
OHNE_NAMEN
6
CONTINUOUS
62
7
39
0.0000
10
134.0002
20
149.0003
11
134.0002
21
148.0005
0
LINE
8
OHNE_NAMEN
6
CONTINUOUS
62
7
39
0.0000
10
135.5002
20
149.0003
11
135.5002
21
148.0005
0
LINE
8
OHNE_NAMEN
6
CONTINUOUS
62
7
39
0.0000
10
137.5001
20
149.0003
11
137.5001
21
148.0005
0
LINE
8
OHNE_NAMEN
6
CONTINUOUS
62
7
39
0.0000
10
139.0001
20
149.0003
11
139.0001
21
148.0005
0
LINE
8
OHNE_NAMEN
6
CONTINUOUS
62
7
39
0.0000
10
141.0000
20
149.0003
11
141.0000
21
148.0005
0
LINE
8
OHNE_NAMEN
6
CONTINUOUS
62
7
39
0.0000
10
142.9999
20
149.0003
11
142.9999
21
148.0005
0
LINE
8
OHNE_NAMEN
6
CONTINUOUS
62
7
39
0.0000
10
145.0001
20
149.0003
11
145.0001
21
148.0005
0
LINE
8
OHNE_NAMEN
6
CONTINUOUS
62
7
39
0.0000
10
147.0000
20
149.0003
11
147.0000
21
148.0005
0
LINE
8
OHNE_NAMEN
6
CONTINUOUS
62
7
39
0.0000
10
117.9999
20
153.0004
11
119.0001
21
153.0004
0
LINE
8
OHNE_NAMEN
6
CONTINUOUS
62
7
39
0.0000
10
117.9999
20
151.0005
11
119.0001
21
151.0005
0
LINE
8
OHNE_NAMEN
6
CONTINUOUS
62
7
39
0.0000
10
117.9999
20
149.0003
11
119.0001
21
149.0003
0
LINE
8
OHNE_NAMEN
6
CONTINUOUS
62
7
39
0.0000
10
117.9999
20
147.0004
11
119.0001
21
147.0004
0
LINE
8
OHNE_NAMEN
6
CONTINUOUS
62
7
39
0.0000
10
119.0001
20
148.0005
11
120.0002
21
148.0005
0
LINE
8
OHNE_NAMEN
6
CONTINUOUS
62
7
39
0.0000
10
119.0001
20
150.0004
11
120.0002
21
150.0004
0
LINE
8
OHNE_NAMEN
6
CONTINUOUS
62
7
39
0.0000
10
119.0001
20
152.0003
11
120.0002
21
152.0003
0
LINE
8
OHNE_NAMEN
6
CONTINUOUS
62
7
39
0.0000
10
120.0002
20
151.0005
11
121.0000
21
151.0005
0
LINE
8
OHNE_NAMEN
6
CONTINUOUS
62
7
39
0.0000
10
120.0002
20
149.0003
11
121.0000
21
149.0003
0
LINE
8
OHNE_NAMEN
6
CONTINUOUS
62
7
39
0.0000
10
121.0000
20
150.0004
11
122.0001
21
150.0004
0
LINE
8
OHNE_NAMEN
6
CONTINUOUS
62
7
39
0.0000
10
151.9999
20
153.0004
11
153.0001
21
153.0004
0
LINE
8
OHNE_NAMEN
6
CONTINUOUS
62
7
39
0.0000
10
151.9999
20
151.0005
11
153.0001
21
151.0005
0
LINE
8
OHNE_NAMEN
6
CONTINUOUS
62
7
39
0.0000
10
151.9999
20
149.0003
11
153.0001
21
149.0003
0
LINE
8
OHNE_NAMEN
6
CONTINUOUS
62
7
39
0.0000
10
151.9999
20
147.0004
11
153.0001
21
147.0004
0
LINE
8
OHNE_NAMEN
6
CONTINUOUS
62
7
39
0.0000
10
151.0002
20
148.0005
11
151.9999
21
148.0005
0
LINE
8
OHNE_NAMEN
6
CONTINUOUS
62
7
39
0.0000
10
151.0002
20
150.0004
11
151.9999
21
150.0004
0
LINE
8
OHNE_NAMEN
6
CONTINUOUS
62
7
39
0.0000
10
151.0002
20
152.0003
11
151.9999
21
152.0003
0
LINE
8
OHNE_NAMEN
6
CONTINUOUS
62
7
39
0.0000
10
150.0000
20
151.0005
11
151.0002
21
151.0005
0
LINE
8
OHNE_NAMEN
6
CONTINUOUS
62
7
39
0.0000
10
150.0000
20
149.0003
11
151.0002
21
149.0003
0
LINE
8
OHNE_NAMEN
6
CONTINUOUS
62
7
39
0.0000
10
124.0000
20
151.0005
11
124.0000
21
149.0003
0
LINE
8
OHNE_NAMEN
6
CONTINUOUS
62
7
39
0.0000
10
125.0001
20
151.0005
11
125.0001
21
149.0003
0
LINE
8
OHNE_NAMEN
6
CONTINUOUS
62
7
39
0.0000
10
125.9999
20
151.0005
11
125.9999
21
149.0003
0
LINE
8
OHNE_NAMEN
6
CONTINUOUS
62
7
39
0.0000
10
127.0000
20
151.0005
11
127.0000
21
149.0003
0
LINE
8
OHNE_NAMEN
6
CONTINUOUS
62
7
39
0.0000
10
128.0001
20
151.0005
11
128.0001
21
149.0003
0
LINE
8
OHNE_NAMEN
6
CONTINUOUS
62
7
39
0.0000
10
128.9999
20
151.0005
11
128.9999
21
149.0003
0
LINE
8
OHNE_NAMEN
6
CONTINUOUS
62
7
39
0.0000
10
130.0000
20
151.0005
11
130.0000
21
149.0003
0
LINE
8
OHNE_NAMEN
6
CONTINUOUS
62
7
39
0.0000
10
131.0001
20
151.0005
11
131.0001
21
149.0003
0
LINE
8
OHNE_NAMEN
6
CONTINUOUS
62
7
39
0.0000
10
131.9999
20
151.0005
11
131.9999
21
149.0003
0
LINE
8
OHNE_NAMEN
6
CONTINUOUS
62
7
39
0.0000
10
133.0000
20
151.0005
11
133.0000
21
149.0003
0
LINE
8
OHNE_NAMEN
6
CONTINUOUS
62
7
39
0.0000
10
134.0002
20
151.0005
11
134.0002
21
149.0003
0
LINE
8
OHNE_NAMEN
6
CONTINUOUS
62
7
39
0.0000
10
134.9999
20
151.0005
11
134.9999
21
149.0003
0
LINE
8
OHNE_NAMEN
6
CONTINUOUS
62
7
39
0.0000
10
138.0000
20
151.0005
11
138.0000
21
149.0003
0
LINE
8
OHNE_NAMEN
6
CONTINUOUS
62
7
39
0.0000
10
139.0001
20
151.0005
11
139.0001
21
149.0003
0
LINE
8
OHNE_NAMEN
6
CONTINUOUS
62
7
39
0.0000
10
140.0002
20
151.0005
11
140.0002
21
149.0003
0
LINE
8
OHNE_NAMEN
6
CONTINUOUS
62
7
39
0.0000
10
141.0000
20
151.0005
11
141.0000
21
149.0003
0
LINE
8
OHNE_NAMEN
6
CONTINUOUS
62
7
39
0.0000
10
142.0001
20
151.0005
11
142.0001
21
149.0003
0
LINE
8
OHNE_NAMEN
6
CONTINUOUS
62
7
39
0.0000
10
142.9999
20
151.0005
11
142.9999
21
149.0003
0
LINE
8
OHNE_NAMEN
6
CONTINUOUS
62
7
39
0.0000
10
144.0000
20
151.0005
11
144.0000
21
149.0003
0
LINE
8
OHNE_NAMEN
6
CONTINUOUS
62
7
39
0.0000
10
145.0001
20
151.0005
11
145.0001
21
149.0003
0
LINE
8
OHNE_NAMEN
6
CONTINUOUS
62
7
39
0.0000
10
145.9999
20
151.0005
11
145.9999
21
149.0003
0
LINE
8
OHNE_NAMEN
6
CONTINUOUS
62
7
39
0.0000
10
147.0000
20
151.0005
11
147.0000
21
149.0003
0
LINE
8
OHNE_NAMEN
6
CONTINUOUS
62
7
39
0.0000
10
136.0001
20
151.0005
11
136.0001
21
149.0003
0
LINE
8
OHNE_NAMEN
6
CONTINUOUS
62
7
39
0.0000
10
137.0002
20
151.0005
11
137.0002
21
149.0003
0
LINE
8
OHNE_NAMEN
6
CONTINUOUS
62
1
39
0.0000
10
113.4999
20
163.0006
11
113.4999
21
179.0001
0
LINE
8
OHNE_NAMEN
6
CONTINUOUS
62
1
39
0.0000
10
157.5001
20
163.0006
11
157.5001
21
179.0001
0
LINE
8
OHNE_NAMEN
6
CONTINUOUS
62
1
39
0.0000
10
113.4999
20
164.0004
11
113.0000
21
164.0004
0
LINE
8
OHNE_NAMEN
6
CONTINUOUS
62
1
39
0.0000
10
113.4999
20
165.0005
11
113.0000
21
165.0005
0
LINE
8
OHNE_NAMEN
6
CONTINUOUS
62
1
39
0.0000
10
113.4999
20
166.0003
11
113.0000
21
166.0003
0
LINE
8
OHNE_NAMEN
6
CONTINUOUS
62
1
39
0.0000
10
113.4999
20
167.0004
11
113.0000
21
167.0004
0
LINE
8
OHNE_NAMEN
6
CONTINUOUS
62
1
39
0.0000
10
113.4999
20
168.0002
11
113.0000
21
168.0002
0
LINE
8
OHNE_NAMEN
6
CONTINUOUS
62
1
39
0.0000
10
113.4999
20
169.0003
11
113.0000
21
169.0003
0
LINE
8
OHNE_NAMEN
6
CONTINUOUS
62
1
39
0.0000
10
113.4999
20
170.0001
11
113.0000
21
170.0001
0
LINE
8
OHNE_NAMEN
6
CONTINUOUS
62
1
39
0.0000
10
113.4999
20
171.0002
11
113.0000
21
171.0002
0
LINE
8
OHNE_NAMEN
6
CONTINUOUS
62
1
39
0.0000
10
113.4999
20
172.0007
11
113.0000
21
172.0007
0
LINE
8
OHNE_NAMEN
6
CONTINUOUS
62
1
39
0.0000
10
113.4999
20
173.0001
11
113.0000
21
173.0001
0
LINE
8
OHNE_NAMEN
6
CONTINUOUS
62
1
39
0.0000
10
113.4999
20
174.0006
11
113.0000
21
174.0006
0
LINE
8
OHNE_NAMEN
6
CONTINUOUS
62
1
39
0.0000
10
113.4999
20
175.0000
11
113.0000
21
175.0000
0
LINE
8
OHNE_NAMEN
6
CONTINUOUS
62
1
39
0.0000
10
113.4999
20
176.0005
11
113.0000
21
176.0005
0
LINE
8
OHNE_NAMEN
6
CONTINUOUS
62
1
39
0.0000
10
113.4999
20
177.0006
11
113.0000
21
177.0006
0
LINE
8
OHNE_NAMEN
6
CONTINUOUS
62
1
39
0.0000
10
113.4999
20
178.0004
11
113.0000
21
178.0004
0
LINE
8
OHNE_NAMEN
6
CONTINUOUS
62
1
39
0.0000
10
113.4999
20
179.0005
11
113.0000
21
179.0005
0
LINE
8
OHNE_NAMEN
6
CONTINUOUS
62
1
39
0.0000
10
158.0000
20
164.0004
11
157.5001
21
164.0004
0
LINE
8
OHNE_NAMEN
6
CONTINUOUS
62
1
39
0.0000
10
158.0000
20
165.0005
11
157.5001
21
165.0005
0
LINE
8
OHNE_NAMEN
6
CONTINUOUS
62
1
39
0.0000
10
158.0000
20
166.0003
11
157.5001
21
166.0003
0
LINE
8
OHNE_NAMEN
6
CONTINUOUS
62
1
39
0.0000
10
158.0000
20
167.0004
11
157.5001
21
167.0004
0
LINE
8
OHNE_NAMEN
6
CONTINUOUS
62
1
39
0.0000
10
158.0000
20
168.0002
11
157.5001
21
168.0002
0
LINE
8
OHNE_NAMEN
6
CONTINUOUS
62
1
39
0.0000
10
158.0000
20
169.0003
11
157.5001
21
169.0003
0
LINE
8
OHNE_NAMEN
6
CONTINUOUS
62
1
39
0.0000
10
158.0000
20
170.0001
11
157.5001
21
170.0001
0
LINE
8
OHNE_NAMEN
6
CONTINUOUS
62
1
39
0.0000
10
158.0000
20
171.0002
11
157.5001
21
171.0002
0
LINE
8
OHNE_NAMEN
6
CONTINUOUS
62
1
39
0.0000
10
158.0000
20
172.0007
11
157.5001
21
172.0007
0
LINE
8
OHNE_NAMEN
6
CONTINUOUS
62
1
39
0.0000
10
158.0000
20
173.0001
11
157.5001
21
173.0001
0
LINE
8
OHNE_NAMEN
6
CONTINUOUS
62
1
39
0.0000
10
158.0000
20
174.0006
11
157.5001
21
174.0006
0
LINE
8
OHNE_NAMEN
6
CONTINUOUS
62
1
39
0.0000
10
158.0000
20
175.0000
11
157.5001
21
175.0000
0
LINE
8
OHNE_NAMEN
6
CONTINUOUS
62
1
39
0.0000
10
158.0000
20
176.0005
11
157.5001
21
176.0005
0
LINE
8
OHNE_NAMEN
6
CONTINUOUS
62
1
39
0.0000
10
158.0000
20
177.0006
11
157.5001
21
177.0006
0
LINE
8
OHNE_NAMEN
6
CONTINUOUS
62
1
39
0.0000
10
158.0000
20
178.0004
11
157.5001
21
178.0004
0
LINE
8
OHNE_NAMEN
6
CONTINUOUS
62
1
39
0.0000
10
158.0000
20
179.0005
11
157.5001
21
179.0005
0
LINE
8
OHNE_NAMEN
6
CONTINUOUS
62
7
39
0.0000
10
115.0003
20
162.5000
11
115.0003
21
161.9998
0
LINE
8
OHNE_NAMEN
6
CONTINUOUS
62
7
39
0.0000
10
117.0002
20
162.5000
11
117.0002
21
161.9998
0
LINE
8
OHNE_NAMEN
6
CONTINUOUS
62
7
39
0.0000
10
119.0001
20
162.5000
11
119.0001
21
161.9998
0
LINE
8
OHNE_NAMEN
6
CONTINUOUS
62
7
39
0.0000
10
121.0003
20
162.5000
11
121.0003
21
161.9998
0
LINE
8
OHNE_NAMEN
6
CONTINUOUS
62
7
39
0.0000
10
123.0002
20
162.5000
11
123.0002
21
161.9998
0
LINE
8
OHNE_NAMEN
6
CONTINUOUS
62
7
39
0.0000
10
125.0001
20
162.5000
11
125.0001
21
161.9998
0
LINE
8
OHNE_NAMEN
6
CONTINUOUS
62
7
39
0.0000
10
127.0000
20
162.5000
11
127.0000
21
161.9998
0
LINE
8
OHNE_NAMEN
6
CONTINUOUS
62
7
39
0.0000
10
129.0003
20
162.5000
11
129.0003
21
161.9998
0
LINE
8
OHNE_NAMEN
6
CONTINUOUS
62
7
39
0.0000
10
131.0001
20
162.5000
11
131.0001
21
161.9998
0
LINE
8
OHNE_NAMEN
6
CONTINUOUS
62
7
39
0.0000
10
133.0000
20
162.5000
11
133.0000
21
161.9998
0
LINE
8
OHNE_NAMEN
6
CONTINUOUS
62
7
39
0.0000
10
135.0003
20
162.5000
11
135.0003
21
161.9998
0
LINE
8
OHNE_NAMEN
6
CONTINUOUS
62
7
39
0.0000
10
138.0003
20
162.5000
11
138.0003
21
161.9998
0
LINE
8
OHNE_NAMEN
6
CONTINUOUS
62
7
39
0.0000
10
140.0002
20
162.5000
11
140.0002
21
161.9998
0
LINE
8
OHNE_NAMEN
6
CONTINUOUS
62
7
39
0.0000
10
142.0001
20
162.5000
11
142.0001
21
161.9998
0
LINE
8
OHNE_NAMEN
6
CONTINUOUS
62
7
39
0.0000
10
144.0004
20
162.5000
11
144.0004
21
161.9998
0
LINE
8
OHNE_NAMEN
6
CONTINUOUS
62
7
39
0.0000
10
146.0003
20
162.5000
11
146.0003
21
161.9998
0
LINE
8
OHNE_NAMEN
6
CONTINUOUS
62
7
39
0.0000
10
148.0002
20
162.5000
11
148.0002
21
161.9998
0
LINE
8
OHNE_NAMEN
6
CONTINUOUS
62
7
39
0.0000
10
150.0000
20
162.5000
11
150.0000
21
161.9998
0
LINE
8
OHNE_NAMEN
6
CONTINUOUS
62
7
39
0.0000
10
152.0003
20
162.5000
11
152.0003
21
161.9998
0
LINE
8
OHNE_NAMEN
6
CONTINUOUS
62
7
39
0.0000
10
154.0002
20
162.5000
11
154.0002
21
161.9998
0
LINE
8
OHNE_NAMEN
6
CONTINUOUS
62
7
39
0.0000
10
156.0001
20
162.5000
11
156.0001
21
161.9998
0
LINE
8
OHNE_NAMEN
6
CONTINUOUS
62
7
39
0.0000
10
136.5003
20
162.5000
11
136.5003
21
161.9998
0
LINE
8
OHNE_NAMEN
6
CONTINUOUS
62
7
39
0.1528
10
114.0005
20
179.5004
11
110.0003
21
181.5003
0
LINE
8
OHNE_NAMEN
6
CONTINUOUS
62
7
39
0.1528
10
115.1251
20
180.4998
11
111.9999
21
183.4998
0
LINE
8
OHNE_NAMEN
6
CONTINUOUS
62
7
39
0.1528
10
112.8751
20
184.2498
11
115.7499
21
181.0000
0
LINE
8
OHNE_NAMEN
6
CONTINUOUS
62
7
39
0.1528
10
113.6251
20
184.9998
11
116.2502
21
181.6248
0
LINE
8
OHNE_NAMEN
6
CONTINUOUS
62
7
39
0.1528
10
114.3751
20
185.5001
11
117.0002
21
182.1251
0
LINE
8
OHNE_NAMEN
6
CONTINUOUS
62
7
39
0.1528
10
114.9999
20
186.1249
11
117.6249
21
182.6249
0
LINE
8
OHNE_NAMEN
6
CONTINUOUS
62
7
39
0.1528
10
115.7499
20
186.6251
11
118.2501
21
182.9999
0
LINE
8
OHNE_NAMEN
6
CONTINUOUS
62
7
39
0.1528
10
116.4999
20
187.1250
11
119.0001
21
183.3749
0
LINE
8
OHNE_NAMEN
6
CONTINUOUS
62
7
39
0.1528
10
117.2499
20
187.5000
11
119.6252
21
183.8748
0
LINE
8
OHNE_NAMEN
6
CONTINUOUS
62
7
39
0.1528
10
117.9999
20
187.9999
11
120.3748
21
184.2498
0
LINE
8
OHNE_NAMEN
6
CONTINUOUS
62
7
39
0.1528
10
118.8752
20
188.3749
11
121.1248
21
184.7501
0
LINE
8
OHNE_NAMEN
6
CONTINUOUS
62
7
39
0.1528
10
119.6252
20
188.8751
11
121.8748
21
185.1251
0
LINE
8
OHNE_NAMEN
6
CONTINUOUS
62
7
39
0.1528
10
120.6249
20
189.3750
11
122.6249
21
185.5001
0
LINE
8
OHNE_NAMEN
6
CONTINUOUS
62
7
39
0.1528
10
121.4998
20
189.7500
11
123.3749
21
185.8751
0
LINE
8
OHNE_NAMEN
6
CONTINUOUS
62
7
39
0.1528
10
122.5000
20
190.1250
11
124.1249
21
186.1249
0
LINE
8
OHNE_NAMEN
6
CONTINUOUS
62
7
39
0.1528
10
123.2500
20
190.5000
11
124.8749
21
186.4999
0
LINE
8
OHNE_NAMEN
6
CONTINUOUS
62
7
39
0.1528
10
124.1249
20
190.8750
11
125.6249
21
186.7500
0
LINE
8
OHNE_NAMEN
6
CONTINUOUS
62
7
39
0.1528
10
125.1250
20
190.9999
11
126.3749
21
187.0001
0
LINE
8
OHNE_NAMEN
6
CONTINUOUS
62
7
39
0.1528
10
125.9999
20
191.2500
11
127.2498
21
187.2499
0
LINE
8
OHNE_NAMEN
6
CONTINUOUS
62
7
39
0.1528
10
126.7499
20
191.6250
11
127.9998
21
187.5000
0
LINE
8
OHNE_NAMEN
6
CONTINUOUS
62
7
39
0.1528
10
127.6248
20
191.7499
11
128.7498
21
187.7501
0
LINE
8
OHNE_NAMEN
6
CONTINUOUS
62
7
39
0.1528
10
128.5000
20
192.0000
11
129.6250
21
187.8750
0
LINE
8
OHNE_NAMEN
6
CONTINUOUS
62
7
39
0.1528
10
129.3749
20
192.1249
11
130.3747
21
187.9999
0
LINE
8
OHNE_NAMEN
6
CONTINUOUS
62
7
39
0.1528
10
130.3747
20
192.2498
11
131.1247
21
188.2500
0
LINE
8
OHNE_NAMEN
6
CONTINUOUS
62
7
39
0.1528
10
131.2499
20
192.3750
11
131.9999
21
188.2500
0
LINE
8
OHNE_NAMEN
6
CONTINUOUS
62
7
39
0.1528
10
132.1248
20
192.3750
11
132.7499
21
188.3749
0
LINE
8
OHNE_NAMEN
6
CONTINUOUS
62
7
39
0.1528
10
132.9997
20
192.3750
11
133.4999
21
188.3749
0
LINE
8
OHNE_NAMEN
6
CONTINUOUS
62
7
39
0.1528
10
134.5001
20
188.5001
11
134.0002
21
192.5002
0
LINE
8
OHNE_NAMEN
6
CONTINUOUS
62
7
39
0.1528
10
136.5003
20
188.5001
11
137.0002
21
192.5002
0
LINE
8
OHNE_NAMEN
6
CONTINUOUS
62
7
39
0.1528
10
138.0000
20
192.2498
11
137.4997
21
188.2500
0
LINE
8
OHNE_NAMEN
6
CONTINUOUS
62
7
39
0.1528
10
138.8749
20
192.2498
11
138.2497
21
188.2500
0
LINE
8
OHNE_NAMEN
6
CONTINUOUS
62
7
39
0.1528
10
139.7497
20
192.2498
11
138.9997
21
188.1251
0
LINE
8
OHNE_NAMEN
6
CONTINUOUS
62
7
39
0.1528
10
140.6250
20
192.1249
11
139.8750
21
188.1251
0
LINE
8
OHNE_NAMEN
6
CONTINUOUS
62
7
39
0.1528
10
141.6248
20
192.0000
11
140.6250
21
187.8750
0
LINE
8
OHNE_NAMEN
6
CONTINUOUS
62
7
39
0.1528
10
142.5000
20
191.8748
11
141.3750
21
187.7501
0
LINE
8
OHNE_NAMEN
6
CONTINUOUS
62
7
39
0.1528
10
143.3749
20
191.6250
11
142.2499
21
187.6249
0
LINE
8
OHNE_NAMEN
6
CONTINUOUS
62
7
39
0.1528
10
144.2498
20
191.4998
11
142.9999
21
187.3751
0
LINE
8
OHNE_NAMEN
6
CONTINUOUS
62
7
39
0.1528
10
145.0562
20
191.2888
11
143.7862
21
187.2671
0
LINE
8
OHNE_NAMEN
6
CONTINUOUS
62
7
39
0.1528
10
145.9382
20
191.0066
11
144.6248
21
186.8749
0
LINE
8
OHNE_NAMEN
6
CONTINUOUS
62
7
39
0.1528
10
146.8748
20
190.7498
11
145.3748
21
186.6251
0
LINE
8
OHNE_NAMEN
6
CONTINUOUS
62
7
39
0.1528
10
147.9998
20
190.3748
11
146.3749
21
186.3750
0
LINE
8
OHNE_NAMEN
6
CONTINUOUS
62
7
39
0.1528
10
148.8662
20
189.9835
11
147.1249
21
186.0000
0
LINE
8
OHNE_NAMEN
6
CONTINUOUS
62
7
39
0.1528
10
149.7499
20
189.6251
11
147.8749
21
185.7498
0
LINE
8
OHNE_NAMEN
6
CONTINUOUS
62
7
39
0.1528
10
150.6248
20
189.2501
11
148.6249
21
185.3748
0
LINE
8
OHNE_NAMEN
6
CONTINUOUS
62
7
39
0.1528
10
151.6249
20
188.7499
11
149.3749
21
184.9998
0
LINE
8
OHNE_NAMEN
6
CONTINUOUS
62
7
39
0.1528
10
152.3749
20
188.2500
11
150.1249
21
184.6248
0
LINE
8
OHNE_NAMEN
6
CONTINUOUS
62
7
39
0.1528
10
153.2498
20
187.8750
11
150.8749
21
184.1250
0
LINE
8
OHNE_NAMEN
6
CONTINUOUS
62
7
39
0.1528
10
153.9999
20
187.3751
11
151.6249
21
183.7500
0
LINE
8
OHNE_NAMEN
6
CONTINUOUS
62
7
39
0.1528
10
154.7499
20
187.0001
11
152.2497
21
183.2501
0
LINE
8
OHNE_NAMEN
6
CONTINUOUS
62
7
39
0.1528
10
155.4999
20
186.3750
11
152.9997
21
182.7498
0
LINE
8
OHNE_NAMEN
6
CONTINUOUS
62
7
39
0.1528
10
156.2499
20
185.8751
11
153.6248
21
182.3748
0
LINE
8
OHNE_NAMEN
6
CONTINUOUS
62
7
39
0.1528
10
156.8750
20
185.2499
11
154.2500
21
181.8749
0
LINE
8
OHNE_NAMEN
6
CONTINUOUS
62
7
39
0.1528
10
157.6250
20
184.7501
11
155.0000
21
181.3750
0
LINE
8
OHNE_NAMEN
6
CONTINUOUS
62
7
39
0.1528
10
158.3750
20
184.0001
11
155.4999
21
180.7499
0
LINE
8
OHNE_NAMEN
6
CONTINUOUS
62
7
39
0.1528
10
156.1250
20
180.2500
11
159.2499
21
183.2501
0
LINE
8
OHNE_NAMEN
6
CONTINUOUS
62
7
39
0.1528
10
157.0002
20
179.5004
11
161.0000
21
181.5003
0
LINE
8
OHNE_NAMEN
6
CONTINUOUS
62
5
39
0.0000
10
18.0000
20
200.0000
11
18.0000
21
181.0000
0
LINE
8
OHNE_NAMEN
6
CONTINUOUS
62
5
39
0.0000
10
18.0000
20
145.0001
11
18.0000
21
125.9999
0
LINE
8
OHNE_NAMEN
6
CONTINUOUS
62
5
39
0.0000
10
18.0000
20
181.0000
11
16.0000
21
181.0000
0
LINE
8
OHNE_NAMEN
6
CONTINUOUS
62
5
39
0.0000
10
16.0000
20
181.0000
11
16.0000
21
145.0001
0
LINE
8
OHNE_NAMEN
6
CONTINUOUS
62
5
39
0.0000
10
16.0000
20
145.0001
11
18.0000
21
145.0001
0
LINE
8
OHNE_NAMEN
6
CONTINUOUS
62
1
39
0.0000
10
124.0000
20
200.0000
11
124.0000
21
198.0001
0
LINE
8
OHNE_NAMEN
6
CONTINUOUS
62
1
39
0.0000
10
124.0000
20
198.0001
11
147.0000
21
198.0001
0
LINE
8
OHNE_NAMEN
6
CONTINUOUS
62
1
39
0.0000
10
147.0000
20
197.9997
11
147.0000
21
200.0000
0
LINE
8
OHNE_NAMEN
6
CONTINUOUS
62
1
39
0.0000
10
124.0000
20
200.0000
11
147.0000
21
200.0000
0
LINE
8
OHNE_NAMEN
6
CONTINUOUS
62
1
39
0.0000
10
308.0000
20
136.9998
11
308.0000
21
190.9999
0
LINE
8
OHNE_NAMEN
6
CONTINUOUS
62
1
39
0.0000
10
275.0002
20
200.0000
11
298.0002
21
200.0000
0
LINE
8
OHNE_NAMEN
6
CONTINUOUS
62
1
39
0.0000
10
275.0002
20
200.0000
11
275.0002
21
198.0001
0
LINE
8
OHNE_NAMEN
6
CONTINUOUS
62
1
39
0.0000
10
275.0002
20
197.9997
11
298.0002
21
197.9997
0
LINE
8
OHNE_NAMEN
6
CONTINUOUS
62
1
39
0.0000
10
298.0002
20
197.9997
11
298.0002
21
200.0000
0
LINE
8
OHNE_NAMEN
6
CONTINUOUS
62
1
39
0.0000
10
265.0000
20
190.9999
11
308.0000
21
190.9999
0
LINE
8
OHNE_NAMEN
6
CONTINUOUS
62
1
39
0.0000
10
117.0002
20
111.5000
11
153.9999
21
111.5000
0
LINE
8
OHNE_NAMEN
6
CONTINUOUS
62
1
39
0.0000
10
153.9999
20
111.5000
11
153.9999
21
58.5001
0
LINE
8
OHNE_NAMEN
6
CONTINUOUS
62
1
39
0.0000
10
153.9999
20
58.5001
11
116.9998
21
58.5001
0
LINE
8
OHNE_NAMEN
6
CONTINUOUS
62
1
39
0.0000
10
117.0002
20
58.5001
11
117.0002
21
111.5000
0
LINE
8
OHNE_NAMEN
6
CONTINUOUS
62
5
39
0.0000
10
167.0004
20
126.0002
11
167.0001
21
104.0003
0
LINE
8
OHNE_NAMEN
6
CONTINUOUS
62
5
39
0.0000
10
167.0004
20
66.0001
11
167.0001
21
44.0002
0
LINE
8
OHNE_NAMEN
6
CONTINUOUS
62
5
39
0.0000
10
167.0001
20
66.0001
11
169.0003
21
66.0001
0
LINE
8
OHNE_NAMEN
6
CONTINUOUS
62
5
39
0.0000
10
167.0001
20
104.0003
11
169.0003
21
104.0003
0
LINE
8
OHNE_NAMEN
6
CONTINUOUS
62
5
39
0.0000
10
169.0003
20
66.0001
11
169.0003
21
104.0003
0
LINE
8
OHNE_NAMEN
6
CONTINUOUS
62
5
39
0.0000
10
104.0007
20
126.0006
11
104.0007
21
104.0007
0
LINE
8
OHNE_NAMEN
6
CONTINUOUS
62
5
39
0.0000
10
104.0007
20
66.0005
11
104.0007
21
44.0006
0
LINE
8
OHNE_NAMEN
6
CONTINUOUS
62
5
39
0.0000
10
104.0007
20
66.0005
11
102.0007
21
66.0005
0
LINE
8
OHNE_NAMEN
6
CONTINUOUS
62
5
39
0.0000
10
104.0007
20
104.0007
11
102.0007
21
104.0007
0
LINE
8
OHNE_NAMEN
6
CONTINUOUS
62
5
39
0.0000
10
102.0007
20
66.0005
11
102.0000
21
103.9999
0
LINE
8
OHNE_NAMEN
6
CONTINUOUS
62
5
39
0.0000
10
103.9999
20
43.9999
11
124.0000
21
43.9999
0
LINE
8
OHNE_NAMEN
6
CONTINUOUS
62
5
39
0.0000
10
124.0000
20
42.0000
11
124.0000
21
43.9999
0
LINE
8
OHNE_NAMEN
6
CONTINUOUS
62
5
39
0.0000
10
124.0000
20
42.0000
11
147.0000
21
42.0000
0
LINE
8
OHNE_NAMEN
6
CONTINUOUS
62
5
39
0.0000
10
147.0000
20
43.9999
11
147.0000
21
42.0000
0
LINE
8
OHNE_NAMEN
6
CONTINUOUS
62
5
39
0.0000
10
147.0000
20
43.9999
11
167.0001
21
43.9999
0
LINE
8
OHNE_NAMEN
6
CONTINUOUS
62
5
39
0.0000
10
253.0009
20
144.9998
11
253.0009
21
125.9995
0
LINE
8
OHNE_NAMEN
6
CONTINUOUS
62
5
39
0.0000
10
253.0009
20
180.9997
11
255.0008
21
180.9997
0
LINE
8
OHNE_NAMEN
6
CONTINUOUS
62
5
39
0.0000
10
255.0008
20
180.9997
11
255.0001
21
145.0001
0
LINE
8
OHNE_NAMEN
6
CONTINUOUS
62
5
39
0.0000
10
255.0008
20
144.9998
11
253.0009
21
144.9998
0
LINE
8
OHNE_NAMEN
6
CONTINUOUS
62
1
39
0.0000
10
196.0005
20
138.0000
11
196.0005
21
176.9999
0
LINE
8
OHNE_NAMEN
6
CONTINUOUS
62
1
39
0.0000
10
226.0011
20
176.9999
11
226.0004
21
138.0000
0
LINE
8
OHNE_NAMEN
6
CONTINUOUS
62
1
39
0.0000
10
226.0011
20
138.0000
11
196.0016
21
138.0000
0
LINE
8
OHNE_NAMEN
6
CONTINUOUS
62
1
39
0.0000
10
209.9970
20
183.0229
11
208.8212
21
182.9756
0
LINE
8
OHNE_NAMEN
6
CONTINUOUS
62
1
39
0.0000
10
208.8212
20
182.9756
11
207.6690
21
182.8818
0
LINE
8
OHNE_NAMEN
6
CONTINUOUS
62
1
39
0.0000
10
207.6690
20
182.8818
11
206.6572
21
182.7639
0
LINE
8
OHNE_NAMEN
6
CONTINUOUS
62
1
39
0.0000
10
206.6572
20
182.7639
11
205.5050
21
182.5759
0
LINE
8
OHNE_NAMEN
6
CONTINUOUS
62
1
39
0.0000
10
205.5050
20
182.5759
11
204.5642
21
182.3642
0
LINE
8
OHNE_NAMEN
6
CONTINUOUS
62
1
39
0.0000
10
204.5642
20
182.3642
11
203.5768
21
182.0820
0
LINE
8
OHNE_NAMEN
6
CONTINUOUS
62
1
39
0.0000
10
203.5768
20
182.0820
11
202.2828
21
181.6118
0
LINE
8
OHNE_NAMEN
6
CONTINUOUS
62
1
39
0.0000
10
202.2828
20
181.6118
11
201.3426
21
181.1648
0
LINE
8
OHNE_NAMEN
6
CONTINUOUS
62
1
39
0.0000
10
201.3426
20
181.1648
11
200.4018
21
180.6945
0
LINE
8
OHNE_NAMEN
6
CONTINUOUS
62
1
39
0.0000
10
200.4018
20
180.6945
11
199.4842
21
180.1534
0
LINE
8
OHNE_NAMEN
6
CONTINUOUS
62
1
39
0.0000
10
199.4842
20
180.1534
11
198.6611
21
179.5656
0
LINE
8
OHNE_NAMEN
6
CONTINUOUS
62
1
39
0.0000
10
198.6611
20
179.5656
11
197.7912
21
178.8365
0
LINE
8
OHNE_NAMEN
6
CONTINUOUS
62
1
39
0.0000
10
197.7912
20
178.8365
11
197.0384
21
178.1545
0
LINE
8
OHNE_NAMEN
6
CONTINUOUS
62
1
39
0.0000
10
197.0384
20
178.1545
11
196.0033
21
177.0256
0
LINE
8
OHNE_NAMEN
6
CONTINUOUS
62
1
39
0.0000
10
209.9970
20
183.0229
11
211.9725
21
183.0229
0
LINE
8
OHNE_NAMEN
6
CONTINUOUS
62
1
39
0.0000
10
211.9725
20
183.0229
11
212.9843
21
182.9756
0
LINE
8
OHNE_NAMEN
6
CONTINUOUS
62
1
39
0.0000
10
212.9843
20
182.9756
11
214.1364
21
182.8818
0
LINE
8
OHNE_NAMEN
6
CONTINUOUS
62
1
39
0.0000
10
214.1364
20
182.8818
11
215.1475
21
182.7876
0
LINE
8
OHNE_NAMEN
6
CONTINUOUS
62
1
39
0.0000
10
215.1475
20
182.7876
11
216.2768
21
182.5995
0
LINE
8
OHNE_NAMEN
6
CONTINUOUS
62
1
39
0.0000
10
216.2768
20
182.5995
11
217.2405
21
182.4111
0
LINE
8
OHNE_NAMEN
6
CONTINUOUS
62
1
39
0.0000
10
217.2405
20
182.4111
11
218.2051
21
182.1526
0
LINE
8
OHNE_NAMEN
6
CONTINUOUS
62
1
39
0.0000
10
218.2051
20
182.1526
11
219.4750
21
181.6823
0
LINE
8
OHNE_NAMEN
6
CONTINUOUS
62
1
39
0.0000
10
219.4750
20
181.6823
11
220.4392
21
181.2590
0
LINE
8
OHNE_NAMEN
6
CONTINUOUS
62
1
39
0.0000
10
220.4392
20
181.2590
11
221.4033
21
180.8120
0
LINE
8
OHNE_NAMEN
6
CONTINUOUS
62
1
39
0.0000
10
221.4033
20
180.8120
11
222.2973
21
180.2712
0
LINE
8
OHNE_NAMEN
6
CONTINUOUS
62
1
39
0.0000
10
222.2973
20
180.2712
11
223.1912
21
179.6831
0
LINE
8
OHNE_NAMEN
6
CONTINUOUS
62
1
39
0.0000
10
223.1912
20
179.6831
11
224.1081
21
178.9307
0
LINE
8
OHNE_NAMEN
6
CONTINUOUS
62
1
39
0.0000
10
224.1081
20
178.9307
11
224.9311
21
178.2015
0
LINE
8
OHNE_NAMEN
6
CONTINUOUS
62
1
39
0.0000
10
224.9311
20
178.1898
11
226.0134
21
176.9904
0
LINE
8
OHNE_NAMEN
6
CONTINUOUS
62
1
39
0.1528
10
196.0005
20
171.9996
11
195.5006
21
171.9996
0
LINE
8
OHNE_NAMEN
6
CONTINUOUS
62
1
39
0.1528
10
196.0005
20
170.9999
11
195.5006
21
170.9999
0
LINE
8
OHNE_NAMEN
6
CONTINUOUS
62
1
39
0.1528
10
196.0005
20
169.9997
11
195.5006
21
169.9997
0
LINE
8
OHNE_NAMEN
6
CONTINUOUS
62
1
39
0.1528
10
196.0005
20
169.0000
11
195.5006
21
169.0000
0
LINE
8
OHNE_NAMEN
6
CONTINUOUS
62
1
39
0.1528
10
196.0005
20
167.9998
11
195.5006
21
167.9998
0
LINE
8
OHNE_NAMEN
6
CONTINUOUS
62
1
39
0.1528
10
196.0005
20
166.9997
11
195.5006
21
166.9997
0
LINE
8
OHNE_NAMEN
6
CONTINUOUS
62
1
39
0.1528
10
196.0005
20
162.9999
11
195.5006
21
162.9999
0
LINE
8
OHNE_NAMEN
6
CONTINUOUS
62
1
39
0.1528
10
196.0005
20
161.9998
11
195.5006
21
161.9998
0
LINE
8
OHNE_NAMEN
6
CONTINUOUS
62
1
39
0.1528
10
196.0005
20
160.9997
11
195.5006
21
160.9997
0
LINE
8
OHNE_NAMEN
6
CONTINUOUS
62
1
39
0.1528
10
196.0005
20
159.9999
11
195.5006
21
159.9999
0
LINE
8
OHNE_NAMEN
6
CONTINUOUS
62
1
39
0.1528
10
196.0005
20
158.9998
11
195.5006
21
158.9998
0
LINE
8
OHNE_NAMEN
6
CONTINUOUS
62
1
39
0.1528
10
196.0005
20
157.9996
11
195.5006
21
157.9996
0
LINE
8
OHNE_NAMEN
6
CONTINUOUS
62
1
39
0.1528
10
196.0005
20
153.9999
11
195.5006
21
153.9999
0
LINE
8
OHNE_NAMEN
6
CONTINUOUS
62
1
39
0.1528
10
196.0005
20
152.9997
11
195.5006
21
152.9997
0
LINE
8
OHNE_NAMEN
6
CONTINUOUS
62
1
39
0.1528
10
196.0005
20
151.9999
11
195.5006
21
151.9999
0
LINE
8
OHNE_NAMEN
6
CONTINUOUS
62
1
39
0.1528
10
196.0005
20
150.9998
11
195.5006
21
150.9998
0
LINE
8
OHNE_NAMEN
6
CONTINUOUS
62
1
39
0.1528
10
196.0005
20
149.9997
11
195.5006
21
149.9997
0
LINE
8
OHNE_NAMEN
6
CONTINUOUS
62
1
39
0.1528
10
196.0005
20
148.9999
11
195.5006
21
148.9999
0
LINE
8
OHNE_NAMEN
6
CONTINUOUS
62
1
39
0.1528
10
196.0005
20
144.9998
11
195.5006
21
144.9998
0
LINE
8
OHNE_NAMEN
6
CONTINUOUS
62
1
39
0.1528
10
196.0005
20
143.9996
11
195.5006
21
143.9996
0
LINE
8
OHNE_NAMEN
6
CONTINUOUS
62
1
39
0.1528
10
196.0005
20
142.9999
11
195.5006
21
142.9999
0
LINE
8
OHNE_NAMEN
6
CONTINUOUS
62
1
39
0.1528
10
196.0005
20
141.9998
11
195.5006
21
141.9998
0
LINE
8
OHNE_NAMEN
6
CONTINUOUS
62
1
39
0.1528
10
196.0005
20
140.9996
11
195.5006
21
140.9996
0
LINE
8
OHNE_NAMEN
6
CONTINUOUS
62
1
39
0.1528
10
196.0005
20
139.9999
11
195.5006
21
139.9999
0
LINE
8
OHNE_NAMEN
6
CONTINUOUS
62
1
39
0.1528
10
226.5006
20
171.9996
11
226.0004
21
171.9996
0
LINE
8
OHNE_NAMEN
6
CONTINUOUS
62
1
39
0.1528
10
226.5006
20
170.9999
11
226.0004
21
170.9999
0
LINE
8
OHNE_NAMEN
6
CONTINUOUS
62
1
39
0.1528
10
226.5006
20
169.9997
11
226.0004
21
169.9997
0
LINE
8
OHNE_NAMEN
6
CONTINUOUS
62
1
39
0.1528
10
226.5006
20
169.0000
11
226.0004
21
169.0000
0
LINE
8
OHNE_NAMEN
6
CONTINUOUS
62
1
39
0.1528
10
226.5006
20
167.9998
11
226.0004
21
167.9998
0
LINE
8
OHNE_NAMEN
6
CONTINUOUS
62
1
39
0.1528
10
226.5006
20
166.9997
11
226.0004
21
166.9997
0
LINE
8
OHNE_NAMEN
6
CONTINUOUS
62
1
39
0.1528
10
226.5006
20
162.9999
11
226.0004
21
162.9999
0
LINE
8
OHNE_NAMEN
6
CONTINUOUS
62
1
39
0.1528
10
226.5006
20
161.9998
11
226.0004
21
161.9998
0
LINE
8
OHNE_NAMEN
6
CONTINUOUS
62
1
39
0.1528
10
226.5006
20
160.9997
11
226.0004
21
160.9997
0
LINE
8
OHNE_NAMEN
6
CONTINUOUS
62
1
39
0.1528
10
226.5006
20
159.9999
11
226.0004
21
159.9999
0
LINE
8
OHNE_NAMEN
6
CONTINUOUS
62
1
39
0.1528
10
226.5006
20
158.9998
11
226.0004
21
158.9998
0
LINE
8
OHNE_NAMEN
6
CONTINUOUS
62
1
39
0.1528
10
226.5006
20
157.9996
11
226.0004
21
157.9996
0
LINE
8
OHNE_NAMEN
6
CONTINUOUS
62
1
39
0.1528
10
226.5006
20
153.9999
11
226.0004
21
153.9999
0
LINE
8
OHNE_NAMEN
6
CONTINUOUS
62
1
39
0.1528
10
226.5006
20
152.9997
11
226.0004
21
152.9997
0
LINE
8
OHNE_NAMEN
6
CONTINUOUS
62
1
39
0.1528
10
226.5006
20
151.9999
11
226.0004
21
151.9999
0
LINE
8
OHNE_NAMEN
6
CONTINUOUS
62
1
39
0.1528
10
226.5006
20
150.9998
11
226.0004
21
150.9998
0
LINE
8
OHNE_NAMEN
6
CONTINUOUS
62
1
39
0.1528
10
226.5006
20
149.9997
11
226.0004
21
149.9997
0
LINE
8
OHNE_NAMEN
6
CONTINUOUS
62
1
39
0.1528
10
226.5006
20
148.9999
11
226.0004
21
148.9999
0
LINE
8
OHNE_NAMEN
6
CONTINUOUS
62
1
39
0.1528
10
226.5006
20
144.9998
11
226.0004
21
144.9998
0
LINE
8
OHNE_NAMEN
6
CONTINUOUS
62
1
39
0.1528
10
226.5006
20
143.9996
11
226.0004
21
143.9996
0
LINE
8
OHNE_NAMEN
6
CONTINUOUS
62
1
39
0.1528
10
226.5006
20
142.9999
11
226.0004
21
142.9999
0
LINE
8
OHNE_NAMEN
6
CONTINUOUS
62
1
39
0.1528
10
226.5006
20
141.9998
11
226.0004
21
141.9998
0
LINE
8
OHNE_NAMEN
6
CONTINUOUS
62
1
39
0.1528
10
226.5006
20
140.9996
11
226.0004
21
140.9996
0
LINE
8
OHNE_NAMEN
6
CONTINUOUS
62
1
39
0.1528
10
226.5006
20
139.9999
11
226.0004
21
139.9999
0
LINE
8
OHNE_NAMEN
6
CONTINUOUS
62
7
39
0.1528
10
226.0011
20
176.9999
11
230.0012
21
179.9999
0
LINE
8
OHNE_NAMEN
6
CONTINUOUS
62
7
39
0.1528
10
196.0016
20
176.9999
11
192.0014
21
179.9999
0
POLYLINE
8
OHNE_NAMEN
6
CONTINUOUS
62
7
66
1
10
0.0000
20
0.0000
70
0
40
0.1528
41
0.1528
0
VERTEX
8
OHNE_NAMEN
6
CONTINUOUS
62
7
10
230.0012
20
179.9999
0
VERTEX
8
OHNE_NAMEN
6
CONTINUOUS
62
7
10
229.6262
20
180.5624
0
SEQEND
8
OHNE_NAMEN
6
CONTINUOUS
62
7
0
POLYLINE
8
OHNE_NAMEN
6
CONTINUOUS
62
7
66
1
10
0.0000
20
0.0000
70
0
40
0.1528
41
0.1528
0
VERTEX
8
OHNE_NAMEN
6
CONTINUOUS
62
7
10
229.6262
20
180.5624
0
VERTEX
8
OHNE_NAMEN
6
CONTINUOUS
62
7
10
229.2238
20
181.0858
0
SEQEND
8
OHNE_NAMEN
6
CONTINUOUS
62
7
0
POLYLINE
8
OHNE_NAMEN
6
CONTINUOUS
62
7
66
1
10
0.0000
20
0.0000
70
0
40
0.1528
41
0.1528
0
VERTEX
8
OHNE_NAMEN
6
CONTINUOUS
62
7
10
229.2238
20
181.0858
0
VERTEX
8
OHNE_NAMEN
6
CONTINUOUS
62
7
10
228.7990
20
181.5729
0
SEQEND
8
OHNE_NAMEN
6
CONTINUOUS
62
7
0
POLYLINE
8
OHNE_NAMEN
6
CONTINUOUS
62
7
66
1
10
0.0000
20
0.0000
70
0
40
0.1528
41
0.1528
0
VERTEX
8
OHNE_NAMEN
6
CONTINUOUS
62
7
10
228.7990
20
181.5729
0
VERTEX
8
OHNE_NAMEN
6
CONTINUOUS
62
7
10
228.3743
20
182.0599
0
SEQEND
8
OHNE_NAMEN
6
CONTINUOUS
62
7
0
POLYLINE
8
OHNE_NAMEN
6
CONTINUOUS
62
7
66
1
10
0.0000
20
0.0000
70
0
40
0.1528
41
0.1528
0
VERTEX
8
OHNE_NAMEN
6
CONTINUOUS
62
7
10
228.3743
20
182.0599
0
VERTEX
8
OHNE_NAMEN
6
CONTINUOUS
62
7
10
227.9270
20
182.5106
0
SEQEND
8
OHNE_NAMEN
6
CONTINUOUS
62
7
0
POLYLINE
8
OHNE_NAMEN
6
CONTINUOUS
62
7
66
1
10
0.0000
20
0.0000
70
0
40
0.1528
41
0.1528
0
VERTEX
8
OHNE_NAMEN
6
CONTINUOUS
62
7
10
227.9270
20
182.5106
0
VERTEX
8
OHNE_NAMEN
6
CONTINUOUS
62
7
10
227.4621
20
182.9276
0
SEQEND
8
OHNE_NAMEN
6
CONTINUOUS
62
7
0
POLYLINE
8
OHNE_NAMEN
6
CONTINUOUS
62
7
66
1
10
0.0000
20
0.0000
70
0
40
0.1528
41
0.1528
0
VERTEX
8
OHNE_NAMEN
6
CONTINUOUS
62
7
10
227.4621
20
182.9276
0
VERTEX
8
OHNE_NAMEN
6
CONTINUOUS
62
7
10
226.9973
20
183.3446
0
SEQEND
8
OHNE_NAMEN
6
CONTINUOUS
62
7
0
POLYLINE
8
OHNE_NAMEN
6
CONTINUOUS
62
7
66
1
10
0.0000
20
0.0000
70
0
40
0.1528
41
0.1528
0
VERTEX
8
OHNE_NAMEN
6
CONTINUOUS
62
7
10
226.9973
20
183.3446
0
VERTEX
8
OHNE_NAMEN
6
CONTINUOUS
62
7
10
226.5149
20
183.7279
0
SEQEND
8
OHNE_NAMEN
6
CONTINUOUS
62
7
0
POLYLINE
8
OHNE_NAMEN
6
CONTINUOUS
62
7
66
1
10
0.0000
20
0.0000
70
0
40
0.1528
41
0.1528
0
VERTEX
8
OHNE_NAMEN
6
CONTINUOUS
62
7
10
226.5149
20
183.7279
0
VERTEX
8
OHNE_NAMEN
6
CONTINUOUS
62
7
10
226.0197
20
184.0801
0
SEQEND
8
OHNE_NAMEN
6
CONTINUOUS
62
7
0
POLYLINE
8
OHNE_NAMEN
6
CONTINUOUS
62
7
66
1
10
0.0000
20
0.0000
70
0
40
0.1528
41
0.1528
0
VERTEX
8
OHNE_NAMEN
6
CONTINUOUS
62
7
10
226.0197
20
184.0801
0
VERTEX
8
OHNE_NAMEN
6
CONTINUOUS
62
7
10
225.5246
20
184.4324
0
SEQEND
8
OHNE_NAMEN
6
CONTINUOUS
62
7
0
POLYLINE
8
OHNE_NAMEN
6
CONTINUOUS
62
7
66
1
10
0.0000
20
0.0000
70
0
40
0.1528
41
0.1528
0
VERTEX
8
OHNE_NAMEN
6
CONTINUOUS
62
7
10
225.5246
20
184.4324
0
VERTEX
8
OHNE_NAMEN
6
CONTINUOUS
62
7
10
225.0168
20
184.7537
0
SEQEND
8
OHNE_NAMEN
6
CONTINUOUS
62
7
0
POLYLINE
8
OHNE_NAMEN
6
CONTINUOUS
62
7
66
1
10
0.0000
20
0.0000
70
0
40
0.1528
41
0.1528
0
VERTEX
8
OHNE_NAMEN
6
CONTINUOUS
62
7
10
225.0168
20
184.7537
0
VERTEX
8
OHNE_NAMEN
6
CONTINUOUS
62
7
10
224.5012
20
185.0467
0
SEQEND
8
OHNE_NAMEN
6
CONTINUOUS
62
7
0
POLYLINE
8
OHNE_NAMEN
6
CONTINUOUS
62
7
66
1
10
0.0000
20
0.0000
70
0
40
0.1528
41
0.1528
0
VERTEX
8
OHNE_NAMEN
6
CONTINUOUS
62
7
10
224.5012
20
185.0467
0
VERTEX
8
OHNE_NAMEN
6
CONTINUOUS
62
7
10
223.9855
20
185.3396
0
SEQEND
8
OHNE_NAMEN
6
CONTINUOUS
62
7
0
POLYLINE
8
OHNE_NAMEN
6
CONTINUOUS
62
7
66
1
10
0.0000
20
0.0000
70
0
40
0.1528
41
0.1528
0
VERTEX
8
OHNE_NAMEN
6
CONTINUOUS
62
7
10
223.9855
20
185.3396
0
VERTEX
8
OHNE_NAMEN
6
CONTINUOUS
62
7
10
223.4621
20
185.6043
0
SEQEND
8
OHNE_NAMEN
6
CONTINUOUS
62
7
0
POLYLINE
8
OHNE_NAMEN
6
CONTINUOUS
62
7
66
1
10
0.0000
20
0.0000
70
0
40
0.1528
41
0.1528
0
VERTEX
8
OHNE_NAMEN
6
CONTINUOUS
62
7
10
223.4621
20
185.6043
0
VERTEX
8
OHNE_NAMEN
6
CONTINUOUS
62
7
10
222.9357
20
185.8433
0
SEQEND
8
OHNE_NAMEN
6
CONTINUOUS
62
7
0
POLYLINE
8
OHNE_NAMEN
6
CONTINUOUS
62
7
66
1
10
0.0000
20
0.0000
70
0
40
0.1528
41
0.1528
0
VERTEX
8
OHNE_NAMEN
6
CONTINUOUS
62
7
10
222.9357
20
185.8433
0
VERTEX
8
OHNE_NAMEN
6
CONTINUOUS
62
7
10
222.4093
20
186.0823
0
SEQEND
8
OHNE_NAMEN
6
CONTINUOUS
62
7
0
POLYLINE
8
OHNE_NAMEN
6
CONTINUOUS
62
7
66
1
10
0.0000
20
0.0000
70
0
40
0.1528
41
0.1528
0
VERTEX
8
OHNE_NAMEN
6
CONTINUOUS
62
7
10
222.4093
20
186.0823
0
VERTEX
8
OHNE_NAMEN
6
CONTINUOUS
62
7
10
221.8800
20
186.2957
0
SEQEND
8
OHNE_NAMEN
6
CONTINUOUS
62
7
0
POLYLINE
8
OHNE_NAMEN
6
CONTINUOUS
62
7
66
1
10
0.0000
20
0.0000
70
0
40
0.1528
41
0.1528
0
VERTEX
8
OHNE_NAMEN
6
CONTINUOUS
62
7
10
221.8800
20
186.2957
0
VERTEX
8
OHNE_NAMEN
6
CONTINUOUS
62
7
10
221.3527
20
186.4861
0
SEQEND
8
OHNE_NAMEN
6
CONTINUOUS
62
7
0
POLYLINE
8
OHNE_NAMEN
6
CONTINUOUS
62
7
66
1
10
0.0000
20
0.0000
70
0
40
0.1528
41
0.1528
0
VERTEX
8
OHNE_NAMEN
6
CONTINUOUS
62
7
10
221.3527
20
186.4861
0
VERTEX
8
OHNE_NAMEN
6
CONTINUOUS
62
7
10
220.8253
20
186.6765
0
SEQEND
8
OHNE_NAMEN
6
CONTINUOUS
62
7
0
POLYLINE
8
OHNE_NAMEN
6
CONTINUOUS
62
7
66
1
10
0.0000
20
0.0000
70
0
40
0.1528
41
0.1528
0
VERTEX
8
OHNE_NAMEN
6
CONTINUOUS
62
7
10
220.8253
20
186.6765
0
VERTEX
8
OHNE_NAMEN
6
CONTINUOUS
62
7
10
220.2999
20
186.8440
0
SEQEND
8
OHNE_NAMEN
6
CONTINUOUS
62
7
0
POLYLINE
8
OHNE_NAMEN
6
CONTINUOUS
62
7
66
1
10
0.0000
20
0.0000
70
0
40
0.1528
41
0.1528
0
VERTEX
8
OHNE_NAMEN
6
CONTINUOUS
62
7
10
220.2999
20
186.8440
0
VERTEX
8
OHNE_NAMEN
6
CONTINUOUS
62
7
10
219.7814
20
186.9912
0
SEQEND
8
OHNE_NAMEN
6
CONTINUOUS
62
7
0
POLYLINE
8
OHNE_NAMEN
6
CONTINUOUS
62
7
66
1
10
0.0000
20
0.0000
70
0
40
0.1528
41
0.1528
0
VERTEX
8
OHNE_NAMEN
6
CONTINUOUS
62
7
10
219.7814
20
186.9912
0
VERTEX
8
OHNE_NAMEN
6
CONTINUOUS
62
7
10
219.2628
20
187.1384
0
SEQEND
8
OHNE_NAMEN
6
CONTINUOUS
62
7
0
POLYLINE
8
OHNE_NAMEN
6
CONTINUOUS
62
7
66
1
10
0.0000
20
0.0000
70
0
40
0.1528
41
0.1528
0
VERTEX
8
OHNE_NAMEN
6
CONTINUOUS
62
7
10
219.2628
20
187.1384
0
VERTEX
8
OHNE_NAMEN
6
CONTINUOUS
62
7
10
218.7511
20
187.2654
0
SEQEND
8
OHNE_NAMEN
6
CONTINUOUS
62
7
0
POLYLINE
8
OHNE_NAMEN
6
CONTINUOUS
62
7
66
1
10
0.0000
20
0.0000
70
0
40
0.1528
41
0.1528
0
VERTEX
8
OHNE_NAMEN
6
CONTINUOUS
62
7
10
218.7511
20
187.2654
0
VERTEX
8
OHNE_NAMEN
6
CONTINUOUS
62
7
10
218.2511
20
187.3748
0
SEQEND
8
OHNE_NAMEN
6
CONTINUOUS
62
7
0
POLYLINE
8
OHNE_NAMEN
6
CONTINUOUS
62
7
66
1
10
0.0000
20
0.0000
70
0
40
0.1528
41
0.1528
0
VERTEX
8
OHNE_NAMEN
6
CONTINUOUS
62
7
10
218.2511
20
187.3748
0
VERTEX
8
OHNE_NAMEN
6
CONTINUOUS
62
7
10
217.7510
20
187.4842
0
SEQEND
8
OHNE_NAMEN
6
CONTINUOUS
62
7
0
POLYLINE
8
OHNE_NAMEN
6
CONTINUOUS
62
7
66
1
10
0.0000
20
0.0000
70
0
40
0.1528
41
0.1528
0
VERTEX
8
OHNE_NAMEN
6
CONTINUOUS
62
7
10
217.7510
20
187.4842
0
VERTEX
8
OHNE_NAMEN
6
CONTINUOUS
62
7
10
217.2627
20
187.5760
0
SEQEND
8
OHNE_NAMEN
6
CONTINUOUS
62
7
0
POLYLINE
8
OHNE_NAMEN
6
CONTINUOUS
62
7
66
1
10
0.0000
20
0.0000
70
0
40
0.1528
41
0.1528
0
VERTEX
8
OHNE_NAMEN
6
CONTINUOUS
62
7
10
217.2627
20
187.5760
0
VERTEX
8
OHNE_NAMEN
6
CONTINUOUS
62
7
10
216.7911
20
187.6529
0
SEQEND
8
OHNE_NAMEN
6
CONTINUOUS
62
7
0
POLYLINE
8
OHNE_NAMEN
6
CONTINUOUS
62
7
66
1
10
0.0000
20
0.0000
70
0
40
0.1528
41
0.1528
0
VERTEX
8
OHNE_NAMEN
6
CONTINUOUS
62
7
10
216.7911
20
187.6529
0
VERTEX
8
OHNE_NAMEN
6
CONTINUOUS
62
7
10
216.3194
20
187.7298
0
SEQEND
8
OHNE_NAMEN
6
CONTINUOUS
62
7
0
POLYLINE
8
OHNE_NAMEN
6
CONTINUOUS
62
7
66
1
10
0.0000
20
0.0000
70
0
40
0.1528
41
0.1528
0
VERTEX
8
OHNE_NAMEN
6
CONTINUOUS
62
7
10
216.3194
20
187.7298
0
VERTEX
8
OHNE_NAMEN
6
CONTINUOUS
62
7
10
215.8643
20
187.7918
0
SEQEND
8
OHNE_NAMEN
6
CONTINUOUS
62
7
0
POLYLINE
8
OHNE_NAMEN
6
CONTINUOUS
62
7
66
1
10
0.0000
20
0.0000
70
0
40
0.1528
41
0.1528
0
VERTEX
8
OHNE_NAMEN
6
CONTINUOUS
62
7
10
215.8643
20
187.7918
0
VERTEX
8
OHNE_NAMEN
6
CONTINUOUS
62
7
10
215.4307
20
187.8416
0
SEQEND
8
OHNE_NAMEN
6
CONTINUOUS
62
7
0
POLYLINE
8
OHNE_NAMEN
6
CONTINUOUS
62
7
66
1
10
0.0000
20
0.0000
70
0
40
0.1528
41
0.1528
0
VERTEX
8
OHNE_NAMEN
6
CONTINUOUS
62
7
10
215.4307
20
187.8416
0
VERTEX
8
OHNE_NAMEN
6
CONTINUOUS
62
7
10
214.9971
20
187.8914
0
SEQEND
8
OHNE_NAMEN
6
CONTINUOUS
62
7
0
POLYLINE
8
OHNE_NAMEN
6
CONTINUOUS
62
7
66
1
10
0.0000
20
0.0000
70
0
40
0.1528
41
0.1528
0
VERTEX
8
OHNE_NAMEN
6
CONTINUOUS
62
7
10
214.9971
20
187.8914
0
VERTEX
8
OHNE_NAMEN
6
CONTINUOUS
62
7
10
214.5850
20
187.9290
0
SEQEND
8
OHNE_NAMEN
6
CONTINUOUS
62
7
0
POLYLINE
8
OHNE_NAMEN
6
CONTINUOUS
62
7
66
1
10
0.0000
20
0.0000
70
0
40
0.1528
41
0.1528
0
VERTEX
8
OHNE_NAMEN
6
CONTINUOUS
62
7
10
214.5850
20
187.9290
0
VERTEX
8
OHNE_NAMEN
6
CONTINUOUS
62
7
10
214.1992
20
187.9571
0
SEQEND
8
OHNE_NAMEN
6
CONTINUOUS
62
7
0
POLYLINE
8
OHNE_NAMEN
6
CONTINUOUS
62
7
66
1
10
0.0000
20
0.0000
70
0
40
0.1528
41
0.1528
0
VERTEX
8
OHNE_NAMEN
6
CONTINUOUS
62
7
10
214.1992
20
187.9571
0
VERTEX
8
OHNE_NAMEN
6
CONTINUOUS
62
7
10
213.8135
20
187.9852
0
SEQEND
8
OHNE_NAMEN
6
CONTINUOUS
62
7
0
POLYLINE
8
OHNE_NAMEN
6
CONTINUOUS
62
7
66
1
10
0.0000
20
0.0000
70
0
40
0.1528
41
0.1528
0
VERTEX
8
OHNE_NAMEN
6
CONTINUOUS
62
7
10
213.8135
20
187.9852
0
VERTEX
8
OHNE_NAMEN
6
CONTINUOUS
62
7
10
213.4541
20
188.0038
0
SEQEND
8
OHNE_NAMEN
6
CONTINUOUS
62
7
0
POLYLINE
8
OHNE_NAMEN
6
CONTINUOUS
62
7
66
1
10
0.0000
20
0.0000
70
0
40
0.1528
41
0.1528
0
VERTEX
8
OHNE_NAMEN
6
CONTINUOUS
62
7
10
213.4541
20
188.0038
0
VERTEX
8
OHNE_NAMEN
6
CONTINUOUS
62
7
10
213.1260
20
188.0155
0
SEQEND
8
OHNE_NAMEN
6
CONTINUOUS
62
7
0
POLYLINE
8
OHNE_NAMEN
6
CONTINUOUS
62
7
66
1
10
0.0000
20
0.0000
70
0
40
0.1528
41
0.1528
0
VERTEX
8
OHNE_NAMEN
6
CONTINUOUS
62
7
10
213.1260
20
188.0155
0
VERTEX
8
OHNE_NAMEN
6
CONTINUOUS
62
7
10
212.7979
20
188.0272
0
SEQEND
8
OHNE_NAMEN
6
CONTINUOUS
62
7
0
POLYLINE
8
OHNE_NAMEN
6
CONTINUOUS
62
7
66
1
10
0.0000
20
0.0000
70
0
40
0.1528
41
0.1528
0
VERTEX
8
OHNE_NAMEN
6
CONTINUOUS
62
7
10
212.7979
20
188.0272
0
VERTEX
8
OHNE_NAMEN
6
CONTINUOUS
62
7
10
212.5010
20
188.0321
0
SEQEND
8
OHNE_NAMEN
6
CONTINUOUS
62
7
0
POLYLINE
8
OHNE_NAMEN
6
CONTINUOUS
62
7
66
1
10
0.0000
20
0.0000
70
0
40
0.1528
41
0.1528
0
VERTEX
8
OHNE_NAMEN
6
CONTINUOUS
62
7
10
212.5010
20
188.0321
0
VERTEX
8
OHNE_NAMEN
6
CONTINUOUS
62
7
10
212.2402
20
188.0328
0
SEQEND
8
OHNE_NAMEN
6
CONTINUOUS
62
7
0
POLYLINE
8
OHNE_NAMEN
6
CONTINUOUS
62
7
66
1
10
0.0000
20
0.0000
70
0
40
0.1528
41
0.1528
0
VERTEX
8
OHNE_NAMEN
6
CONTINUOUS
62
7
10
212.2402
20
188.0328
0
VERTEX
8
OHNE_NAMEN
6
CONTINUOUS
62
7
10
211.9795
20
188.0335
0
SEQEND
8
OHNE_NAMEN
6
CONTINUOUS
62
7
0
POLYLINE
8
OHNE_NAMEN
6
CONTINUOUS
62
7
66
1
10
0.0000
20
0.0000
70
0
40
0.1528
41
0.1528
0
VERTEX
8
OHNE_NAMEN
6
CONTINUOUS
62
7
10
211.9795
20
188.0335
0
VERTEX
8
OHNE_NAMEN
6
CONTINUOUS
62
7
10
211.7549
20
188.0301
0
SEQEND
8
OHNE_NAMEN
6
CONTINUOUS
62
7
0
POLYLINE
8
OHNE_NAMEN
6
CONTINUOUS
62
7
66
1
10
0.0000
20
0.0000
70
0
40
0.1528
41
0.1528
0
VERTEX
8
OHNE_NAMEN
6
CONTINUOUS
62
7
10
211.7549
20
188.0301
0
VERTEX
8
OHNE_NAMEN
6
CONTINUOUS
62
7
10
211.5713
20
188.0253
0
SEQEND
8
OHNE_NAMEN
6
CONTINUOUS
62
7
0
POLYLINE
8
OHNE_NAMEN
6
CONTINUOUS
62
7
66
1
10
0.0000
20
0.0000
70
0
40
0.1528
41
0.1528
0
VERTEX
8
OHNE_NAMEN
6
CONTINUOUS
62
7
10
211.5713
20
188.0253
0
VERTEX
8
OHNE_NAMEN
6
CONTINUOUS
62
7
10
211.3877
20
188.0204
0
SEQEND
8
OHNE_NAMEN
6
CONTINUOUS
62
7
0
POLYLINE
8
OHNE_NAMEN
6
CONTINUOUS
62
7
66
1
10
0.0000
20
0.0000
70
0
40
0.1528
41
0.1528
0
VERTEX
8
OHNE_NAMEN
6
CONTINUOUS
62
7
10
211.3877
20
188.0204
0
VERTEX
8
OHNE_NAMEN
6
CONTINUOUS
62
7
10
211.2451
20
188.0140
0
SEQEND
8
OHNE_NAMEN
6
CONTINUOUS
62
7
0
POLYLINE
8
OHNE_NAMEN
6
CONTINUOUS
62
7
66
1
10
0.0000
20
0.0000
70
0
40
0.1528
41
0.1528
0
VERTEX
8
OHNE_NAMEN
6
CONTINUOUS
62
7
10
211.2451
20
188.0140
0
VERTEX
8
OHNE_NAMEN
6
CONTINUOUS
62
7
10
211.1484
20
188.0089
0
SEQEND
8
OHNE_NAMEN
6
CONTINUOUS
62
7
0
POLYLINE
8
OHNE_NAMEN
6
CONTINUOUS
62
7
66
1
10
0.0000
20
0.0000
70
0
40
0.1528
41
0.1528
0
VERTEX
8
OHNE_NAMEN
6
CONTINUOUS
62
7
10
211.1484
20
188.0089
0
VERTEX
8
OHNE_NAMEN
6
CONTINUOUS
62
7
10
211.0518
20
188.0038
0
SEQEND
8
OHNE_NAMEN
6
CONTINUOUS
62
7
0
POLYLINE
8
OHNE_NAMEN
6
CONTINUOUS
62
7
66
1
10
0.0000
20
0.0000
70
0
40
0.1528
41
0.1528
0
VERTEX
8
OHNE_NAMEN
6
CONTINUOUS
62
7
10
211.0518
20
188.0038
0
VERTEX
8
OHNE_NAMEN
6
CONTINUOUS
62
7
10
211.0010
20
187.9999
0
SEQEND
8
OHNE_NAMEN
6
CONTINUOUS
62
7
0
POLYLINE
8
OHNE_NAMEN
6
CONTINUOUS
62
7
66
1
10
0.0000
20
0.0000
70
0
40
0.1528
41
0.1528
0
VERTEX
8
OHNE_NAMEN
6
CONTINUOUS
62
7
10
211.0010
20
187.9999
0
VERTEX
8
OHNE_NAMEN
6
CONTINUOUS
62
7
10
211.0010
20
187.9999
0
SEQEND
8
OHNE_NAMEN
6
CONTINUOUS
62
7
0
POLYLINE
8
OHNE_NAMEN
6
CONTINUOUS
62
7
66
1
10
0.0000
20
0.0000
70
0
40
0.1528
41
0.1528
0
VERTEX
8
OHNE_NAMEN
6
CONTINUOUS
62
7
10
192.0716
20
180.0680
0
VERTEX
8
OHNE_NAMEN
6
CONTINUOUS
62
7
10
192.4466
20
180.6305
0
SEQEND
8
OHNE_NAMEN
6
CONTINUOUS
62
7
0
POLYLINE
8
OHNE_NAMEN
6
CONTINUOUS
62
7
66
1
10
0.0000
20
0.0000
70
0
40
0.1528
41
0.1528
0
VERTEX
8
OHNE_NAMEN
6
CONTINUOUS
62
7
10
192.4466
20
180.6305
0
VERTEX
8
OHNE_NAMEN
6
CONTINUOUS
62
7
10
192.8487
20
181.1537
0
SEQEND
8
OHNE_NAMEN
6
CONTINUOUS
62
7
0
POLYLINE
8
OHNE_NAMEN
6
CONTINUOUS
62
7
66
1
10
0.0000
20
0.0000
70
0
40
0.1528
41
0.1528
0
VERTEX
8
OHNE_NAMEN
6
CONTINUOUS
62
7
10
192.8487
20
181.1537
0
VERTEX
8
OHNE_NAMEN
6
CONTINUOUS
62
7
10
193.2730
20
181.6402
0
SEQEND
8
OHNE_NAMEN
6
CONTINUOUS
62
7
0
POLYLINE
8
OHNE_NAMEN
6
CONTINUOUS
62
7
66
1
10
0.0000
20
0.0000
70
0
40
0.1528
41
0.1528
0
VERTEX
8
OHNE_NAMEN
6
CONTINUOUS
62
7
10
193.2730
20
181.6402
0
VERTEX
8
OHNE_NAMEN
6
CONTINUOUS
62
7
10
193.6973
20
182.1268
0
SEQEND
8
OHNE_NAMEN
6
CONTINUOUS
62
7
0
POLYLINE
8
OHNE_NAMEN
6
CONTINUOUS
62
7
66
1
10
0.0000
20
0.0000
70
0
40
0.1528
41
0.1528
0
VERTEX
8
OHNE_NAMEN
6
CONTINUOUS
62
7
10
193.6973
20
182.1268
0
VERTEX
8
OHNE_NAMEN
6
CONTINUOUS
62
7
10
194.1439
20
182.5768
0
SEQEND
8
OHNE_NAMEN
6
CONTINUOUS
62
7
0
POLYLINE
8
OHNE_NAMEN
6
CONTINUOUS
62
7
66
1
10
0.0000
20
0.0000
70
0
40
0.1528
41
0.1528
0
VERTEX
8
OHNE_NAMEN
6
CONTINUOUS
62
7
10
194.1439
20
182.5768
0
VERTEX
8
OHNE_NAMEN
6
CONTINUOUS
62
7
10
194.6078
20
182.9928
0
SEQEND
8
OHNE_NAMEN
6
CONTINUOUS
62
7
0
POLYLINE
8
OHNE_NAMEN
6
CONTINUOUS
62
7
66
1
10
0.0000
20
0.0000
70
0
40
0.1528
41
0.1528
0
VERTEX
8
OHNE_NAMEN
6
CONTINUOUS
62
7
10
194.6078
20
182.9928
0
VERTEX
8
OHNE_NAMEN
6
CONTINUOUS
62
7
10
195.0717
20
183.4089
0
SEQEND
8
OHNE_NAMEN
6
CONTINUOUS
62
7
0
POLYLINE
8
OHNE_NAMEN
6
CONTINUOUS
62
7
66
1
10
0.0000
20
0.0000
70
0
40
0.1528
41
0.1528
0
VERTEX
8
OHNE_NAMEN
6
CONTINUOUS
62
7
10
195.0717
20
183.4089
0
VERTEX
8
OHNE_NAMEN
6
CONTINUOUS
62
7
10
195.5529
20
183.7911
0
SEQEND
8
OHNE_NAMEN
6
CONTINUOUS
62
7
0
POLYLINE
8
OHNE_NAMEN
6
CONTINUOUS
62
7
66
1
10
0.0000
20
0.0000
70
0
40
0.1528
41
0.1528
0
VERTEX
8
OHNE_NAMEN
6
CONTINUOUS
62
7
10
195.5529
20
183.7911
0
VERTEX
8
OHNE_NAMEN
6
CONTINUOUS
62
7
10
196.0467
20
184.1420
0
SEQEND
8
OHNE_NAMEN
6
CONTINUOUS
62
7
0
POLYLINE
8
OHNE_NAMEN
6
CONTINUOUS
62
7
66
1
10
0.0000
20
0.0000
70
0
40
0.1528
41
0.1528
0
VERTEX
8
OHNE_NAMEN
6
CONTINUOUS
62
7
10
196.0467
20
184.1420
0
VERTEX
8
OHNE_NAMEN
6
CONTINUOUS
62
7
10
196.5405
20
184.4930
0
SEQEND
8
OHNE_NAMEN
6
CONTINUOUS
62
7
0
POLYLINE
8
OHNE_NAMEN
6
CONTINUOUS
62
7
66
1
10
0.0000
20
0.0000
70
0
40
0.1528
41
0.1528
0
VERTEX
8
OHNE_NAMEN
6
CONTINUOUS
62
7
10
196.5405
20
184.4930
0
VERTEX
8
OHNE_NAMEN
6
CONTINUOUS
62
7
10
197.0468
20
184.8129
0
SEQEND
8
OHNE_NAMEN
6
CONTINUOUS
62
7
0
POLYLINE
8
OHNE_NAMEN
6
CONTINUOUS
62
7
66
1
10
0.0000
20
0.0000
70
0
40
0.1528
41
0.1528
0
VERTEX
8
OHNE_NAMEN
6
CONTINUOUS
62
7
10
197.0468
20
184.8129
0
VERTEX
8
OHNE_NAMEN
6
CONTINUOUS
62
7
10
197.5608
20
185.1043
0
SEQEND
8
OHNE_NAMEN
6
CONTINUOUS
62
7
0
POLYLINE
8
OHNE_NAMEN
6
CONTINUOUS
62
7
66
1
10
0.0000
20
0.0000
70
0
40
0.1528
41
0.1528
0
VERTEX
8
OHNE_NAMEN
6
CONTINUOUS
62
7
10
197.5608
20
185.1043
0
VERTEX
8
OHNE_NAMEN
6
CONTINUOUS
62
7
10
198.0747
20
185.3957
0
SEQEND
8
OHNE_NAMEN
6
CONTINUOUS
62
7
0
POLYLINE
8
OHNE_NAMEN
6
CONTINUOUS
62
7
66
1
10
0.0000
20
0.0000
70
0
40
0.1528
41
0.1528
0
VERTEX
8
OHNE_NAMEN
6
CONTINUOUS
62
7
10
198.0747
20
185.3957
0
VERTEX
8
OHNE_NAMEN
6
CONTINUOUS
62
7
10
198.5964
20
185.6586
0
SEQEND
8
OHNE_NAMEN
6
CONTINUOUS
62
7
0
POLYLINE
8
OHNE_NAMEN
6
CONTINUOUS
62
7
66
1
10
0.0000
20
0.0000
70
0
40
0.1528
41
0.1528
0
VERTEX
8
OHNE_NAMEN
6
CONTINUOUS
62
7
10
198.5964
20
185.6586
0
VERTEX
8
OHNE_NAMEN
6
CONTINUOUS
62
7
10
199.1208
20
185.8958
0
SEQEND
8
OHNE_NAMEN
6
CONTINUOUS
62
7
0
POLYLINE
8
OHNE_NAMEN
6
CONTINUOUS
62
7
66
1
10
0.0000
20
0.0000
70
0
40
0.1528
41
0.1528
0
VERTEX
8
OHNE_NAMEN
6
CONTINUOUS
62
7
10
199.1208
20
185.8958
0
VERTEX
8
OHNE_NAMEN
6
CONTINUOUS
62
7
10
199.6453
20
186.1329
0
SEQEND
8
OHNE_NAMEN
6
CONTINUOUS
62
7
0
POLYLINE
8
OHNE_NAMEN
6
CONTINUOUS
62
7
66
1
10
0.0000
20
0.0000
70
0
40
0.1528
41
0.1528
0
VERTEX
8
OHNE_NAMEN
6
CONTINUOUS
62
7
10
199.6453
20
186.1329
0
VERTEX
8
OHNE_NAMEN
6
CONTINUOUS
62
7
10
200.1726
20
186.3444
0
SEQEND
8
OHNE_NAMEN
6
CONTINUOUS
62
7
0
POLYLINE
8
OHNE_NAMEN
6
CONTINUOUS
62
7
66
1
10
0.0000
20
0.0000
70
0
40
0.1528
41
0.1528
0
VERTEX
8
OHNE_NAMEN
6
CONTINUOUS
62
7
10
200.1726
20
186.3444
0
VERTEX
8
OHNE_NAMEN
6
CONTINUOUS
62
7
10
200.6979
20
186.5328
0
SEQEND
8
OHNE_NAMEN
6
CONTINUOUS
62
7
0
POLYLINE
8
OHNE_NAMEN
6
CONTINUOUS
62
7
66
1
10
0.0000
20
0.0000
70
0
40
0.1528
41
0.1528
0
VERTEX
8
OHNE_NAMEN
6
CONTINUOUS
62
7
10
200.6979
20
186.5328
0
VERTEX
8
OHNE_NAMEN
6
CONTINUOUS
62
7
10
201.2231
20
186.7212
0
SEQEND
8
OHNE_NAMEN
6
CONTINUOUS
62
7
0
POLYLINE
8
OHNE_NAMEN
6
CONTINUOUS
62
7
66
1
10
0.0000
20
0.0000
70
0
40
0.1528
41
0.1528
0
VERTEX
8
OHNE_NAMEN
6
CONTINUOUS
62
7
10
201.2231
20
186.7212
0
VERTEX
8
OHNE_NAMEN
6
CONTINUOUS
62
7
10
201.7464
20
186.8867
0
SEQEND
8
OHNE_NAMEN
6
CONTINUOUS
62
7
0
POLYLINE
8
OHNE_NAMEN
6
CONTINUOUS
62
7
66
1
10
0.0000
20
0.0000
70
0
40
0.1528
41
0.1528
0
VERTEX
8
OHNE_NAMEN
6
CONTINUOUS
62
7
10
201.7464
20
186.8867
0
VERTEX
8
OHNE_NAMEN
6
CONTINUOUS
62
7
10
202.2628
20
187.0318
0
SEQEND
8
OHNE_NAMEN
6
CONTINUOUS
62
7
0
POLYLINE
8
OHNE_NAMEN
6
CONTINUOUS
62
7
66
1
10
0.0000
20
0.0000
70
0
40
0.1528
41
0.1528
0
VERTEX
8
OHNE_NAMEN
6
CONTINUOUS
62
7
10
202.2628
20
187.0318
0
VERTEX
8
OHNE_NAMEN
6
CONTINUOUS
62
7
10
202.7792
20
187.1769
0
SEQEND
8
OHNE_NAMEN
6
CONTINUOUS
62
7
0
POLYLINE
8
OHNE_NAMEN
6
CONTINUOUS
62
7
66
1
10
0.0000
20
0.0000
70
0
40
0.1528
41
0.1528
0
VERTEX
8
OHNE_NAMEN
6
CONTINUOUS
62
7
10
202.7792
20
187.1769
0
VERTEX
8
OHNE_NAMEN
6
CONTINUOUS
62
7
10
203.2887
20
187.3017
0
SEQEND
8
OHNE_NAMEN
6
CONTINUOUS
62
7
0
POLYLINE
8
OHNE_NAMEN
6
CONTINUOUS
62
7
66
1
10
0.0000
20
0.0000
70
0
40
0.1528
41
0.1528
0
VERTEX
8
OHNE_NAMEN
6
CONTINUOUS
62
7
10
203.2887
20
187.3017
0
VERTEX
8
OHNE_NAMEN
6
CONTINUOUS
62
7
10
203.7864
20
187.4090
0
SEQEND
8
OHNE_NAMEN
6
CONTINUOUS
62
7
0
POLYLINE
8
OHNE_NAMEN
6
CONTINUOUS
62
7
66
1
10
0.0000
20
0.0000
70
0
40
0.1528
41
0.1528
0
VERTEX
8
OHNE_NAMEN
6
CONTINUOUS
62
7
10
203.7864
20
187.4090
0
VERTEX
8
OHNE_NAMEN
6
CONTINUOUS
62
7
10
204.2842
20
187.5162
0
SEQEND
8
OHNE_NAMEN
6
CONTINUOUS
62
7
0
POLYLINE
8
OHNE_NAMEN
6
CONTINUOUS
62
7
66
1
10
0.0000
20
0.0000
70
0
40
0.1528
41
0.1528
0
VERTEX
8
OHNE_NAMEN
6
CONTINUOUS
62
7
10
204.2842
20
187.5162
0
VERTEX
8
OHNE_NAMEN
6
CONTINUOUS
62
7
10
204.7703
20
187.6059
0
SEQEND
8
OHNE_NAMEN
6
CONTINUOUS
62
7
0
POLYLINE
8
OHNE_NAMEN
6
CONTINUOUS
62
7
66
1
10
0.0000
20
0.0000
70
0
40
0.1528
41
0.1528
0
VERTEX
8
OHNE_NAMEN
6
CONTINUOUS
62
7
10
204.7703
20
187.6059
0
VERTEX
8
OHNE_NAMEN
6
CONTINUOUS
62
7
10
205.2398
20
187.6807
0
SEQEND
8
OHNE_NAMEN
6
CONTINUOUS
62
7
0
POLYLINE
8
OHNE_NAMEN
6
CONTINUOUS
62
7
66
1
10
0.0000
20
0.0000
70
0
40
0.1528
41
0.1528
0
VERTEX
8
OHNE_NAMEN
6
CONTINUOUS
62
7
10
205.2398
20
187.6807
0
VERTEX
8
OHNE_NAMEN
6
CONTINUOUS
62
7
10
205.7093
20
187.7555
0
SEQEND
8
OHNE_NAMEN
6
CONTINUOUS
62
7
0
POLYLINE
8
OHNE_NAMEN
6
CONTINUOUS
62
7
66
1
10
0.0000
20
0.0000
70
0
40
0.1528
41
0.1528
0
VERTEX
8
OHNE_NAMEN
6
CONTINUOUS
62
7
10
205.7093
20
187.7555
0
VERTEX
8
OHNE_NAMEN
6
CONTINUOUS
62
7
10
206.1622
20
187.8154
0
SEQEND
8
OHNE_NAMEN
6
CONTINUOUS
62
7
0
POLYLINE
8
OHNE_NAMEN
6
CONTINUOUS
62
7
66
1
10
0.0000
20
0.0000
70
0
40
0.1528
41
0.1528
0
VERTEX
8
OHNE_NAMEN
6
CONTINUOUS
62
7
10
206.1622
20
187.8154
0
VERTEX
8
OHNE_NAMEN
6
CONTINUOUS
62
7
10
206.5937
20
187.8633
0
SEQEND
8
OHNE_NAMEN
6
CONTINUOUS
62
7
0
POLYLINE
8
OHNE_NAMEN
6
CONTINUOUS
62
7
66
1
10
0.0000
20
0.0000
70
0
40
0.1528
41
0.1528
0
VERTEX
8
OHNE_NAMEN
6
CONTINUOUS
62
7
10
206.5937
20
187.8633
0
VERTEX
8
OHNE_NAMEN
6
CONTINUOUS
62
7
10
207.0252
20
187.9111
0
SEQEND
8
OHNE_NAMEN
6
CONTINUOUS
62
7
0
POLYLINE
8
OHNE_NAMEN
6
CONTINUOUS
62
7
66
1
10
0.0000
20
0.0000
70
0
40
0.1528
41
0.1528
0
VERTEX
8
OHNE_NAMEN
6
CONTINUOUS
62
7
10
207.0252
20
187.9111
0
VERTEX
8
OHNE_NAMEN
6
CONTINUOUS
62
7
10
207.4354
20
187.9467
0
SEQEND
8
OHNE_NAMEN
6
CONTINUOUS
62
7
0
POLYLINE
8
OHNE_NAMEN
6
CONTINUOUS
62
7
66
1
10
0.0000
20
0.0000
70
0
40
0.1528
41
0.1528
0
VERTEX
8
OHNE_NAMEN
6
CONTINUOUS
62
7
10
207.4354
20
187.9467
0
VERTEX
8
OHNE_NAMEN
6
CONTINUOUS
62
7
10
207.8192
20
187.9730
0
SEQEND
8
OHNE_NAMEN
6
CONTINUOUS
62
7
0
POLYLINE
8
OHNE_NAMEN
6
CONTINUOUS
62
7
66
1
10
0.0000
20
0.0000
70
0
40
0.1528
41
0.1528
0
VERTEX
8
OHNE_NAMEN
6
CONTINUOUS
62
7
10
207.8192
20
187.9730
0
VERTEX
8
OHNE_NAMEN
6
CONTINUOUS
62
7
10
208.2030
20
187.9992
0
SEQEND
8
OHNE_NAMEN
6
CONTINUOUS
62
7
0
POLYLINE
8
OHNE_NAMEN
6
CONTINUOUS
62
7
66
1
10
0.0000
20
0.0000
70
0
40
0.1528
41
0.1528
0
VERTEX
8
OHNE_NAMEN
6
CONTINUOUS
62
7
10
208.2030
20
187.9992
0
VERTEX
8
OHNE_NAMEN
6
CONTINUOUS
62
7
10
208.5606
20
188.0160
0
SEQEND
8
OHNE_NAMEN
6
CONTINUOUS
62
7
0
POLYLINE
8
OHNE_NAMEN
6
CONTINUOUS
62
7
66
1
10
0.0000
20
0.0000
70
0
40
0.1528
41
0.1528
0
VERTEX
8
OHNE_NAMEN
6
CONTINUOUS
62
7
10
208.5606
20
188.0160
0
VERTEX
8
OHNE_NAMEN
6
CONTINUOUS
62
7
10
208.8871
20
188.0262
0
SEQEND
8
OHNE_NAMEN
6
CONTINUOUS
62
7
0
POLYLINE
8
OHNE_NAMEN
6
CONTINUOUS
62
7
66
1
10
0.0000
20
0.0000
70
0
40
0.1528
41
0.1528
0
VERTEX
8
OHNE_NAMEN
6
CONTINUOUS
62
7
10
208.8871
20
188.0262
0
VERTEX
8
OHNE_NAMEN
6
CONTINUOUS
62
7
10
209.2135
20
188.0363
0
SEQEND
8
OHNE_NAMEN
6
CONTINUOUS
62
7
0
POLYLINE
8
OHNE_NAMEN
6
CONTINUOUS
62
7
66
1
10
0.0000
20
0.0000
70
0
40
0.1528
41
0.1528
0
VERTEX
8
OHNE_NAMEN
6
CONTINUOUS
62
7
10
209.2135
20
188.0363
0
VERTEX
8
OHNE_NAMEN
6
CONTINUOUS
62
7
10
209.5088
20
188.0397
0
SEQEND
8
OHNE_NAMEN
6
CONTINUOUS
62
7
0
POLYLINE
8
OHNE_NAMEN
6
CONTINUOUS
62
7
66
1
10
0.0000
20
0.0000
70
0
40
0.1528
41
0.1528
0
VERTEX
8
OHNE_NAMEN
6
CONTINUOUS
62
7
10
209.5088
20
188.0397
0
VERTEX
8
OHNE_NAMEN
6
CONTINUOUS
62
7
10
209.7682
20
188.0391
0
SEQEND
8
OHNE_NAMEN
6
CONTINUOUS
62
7
0
POLYLINE
8
OHNE_NAMEN
6
CONTINUOUS
62
7
66
1
10
0.0000
20
0.0000
70
0
40
0.1528
41
0.1528
0
VERTEX
8
OHNE_NAMEN
6
CONTINUOUS
62
7
10
209.7682
20
188.0391
0
VERTEX
8
OHNE_NAMEN
6
CONTINUOUS
62
7
10
210.0276
20
188.0386
0
SEQEND
8
OHNE_NAMEN
6
CONTINUOUS
62
7
0
POLYLINE
8
OHNE_NAMEN
6
CONTINUOUS
62
7
66
1
10
0.0000
20
0.0000
70
0
40
0.1528
41
0.1528
0
VERTEX
8
OHNE_NAMEN
6
CONTINUOUS
62
7
10
210.0276
20
188.0386
0
VERTEX
8
OHNE_NAMEN
6
CONTINUOUS
62
7
10
210.2511
20
188.0340
0
SEQEND
8
OHNE_NAMEN
6
CONTINUOUS
62
7
0
POLYLINE
8
OHNE_NAMEN
6
CONTINUOUS
62
7
66
1
10
0.0000
20
0.0000
70
0
40
0.1528
41
0.1528
0
VERTEX
8
OHNE_NAMEN
6
CONTINUOUS
62
7
10
210.2511
20
188.0340
0
VERTEX
8
OHNE_NAMEN
6
CONTINUOUS
62
7
10
210.4337
20
188.0282
0
SEQEND
8
OHNE_NAMEN
6
CONTINUOUS
62
7
0
POLYLINE
8
OHNE_NAMEN
6
CONTINUOUS
62
7
66
1
10
0.0000
20
0.0000
70
0
40
0.1528
41
0.1528
0
VERTEX
8
OHNE_NAMEN
6
CONTINUOUS
62
7
10
210.4337
20
188.0282
0
VERTEX
8
OHNE_NAMEN
6
CONTINUOUS
62
7
10
210.6163
20
188.0224
0
SEQEND
8
OHNE_NAMEN
6
CONTINUOUS
62
7
0
POLYLINE
8
OHNE_NAMEN
6
CONTINUOUS
62
7
66
1
10
0.0000
20
0.0000
70
0
40
0.1528
41
0.1528
0
VERTEX
8
OHNE_NAMEN
6
CONTINUOUS
62
7
10
210.6163
20
188.0224
0
VERTEX
8
OHNE_NAMEN
6
CONTINUOUS
62
7
10
210.7581
20
188.0153
0
SEQEND
8
OHNE_NAMEN
6
CONTINUOUS
62
7
0
POLYLINE
8
OHNE_NAMEN
6
CONTINUOUS
62
7
66
1
10
0.0000
20
0.0000
70
0
40
0.1528
41
0.1528
0
VERTEX
8
OHNE_NAMEN
6
CONTINUOUS
62
7
10
210.7581
20
188.0153
0
VERTEX
8
OHNE_NAMEN
6
CONTINUOUS
62
7
10
210.8543
20
188.0097
0
SEQEND
8
OHNE_NAMEN
6
CONTINUOUS
62
7
0
POLYLINE
8
OHNE_NAMEN
6
CONTINUOUS
62
7
66
1
10
0.0000
20
0.0000
70
0
40
0.1528
41
0.1528
0
VERTEX
8
OHNE_NAMEN
6
CONTINUOUS
62
7
10
210.8543
20
188.0097
0
VERTEX
8
OHNE_NAMEN
6
CONTINUOUS
62
7
10
210.9505
20
188.0040
0
SEQEND
8
OHNE_NAMEN
6
CONTINUOUS
62
7
0
POLYLINE
8
OHNE_NAMEN
6
CONTINUOUS
62
7
66
1
10
0.0000
20
0.0000
70
0
40
0.1528
41
0.1528
0
VERTEX
8
OHNE_NAMEN
6
CONTINUOUS
62
7
10
210.9505
20
188.0040
0
VERTEX
8
OHNE_NAMEN
6
CONTINUOUS
62
7
10
211.0010
20
187.9999
0
SEQEND
8
OHNE_NAMEN
6
CONTINUOUS
62
7
0
POLYLINE
8
OHNE_NAMEN
6
CONTINUOUS
62
7
66
1
10
0.0000
20
0.0000
70
0
40
0.1528
41
0.1528
0
VERTEX
8
OHNE_NAMEN
6
CONTINUOUS
62
7
10
211.0010
20
187.9999
0
VERTEX
8
OHNE_NAMEN
6
CONTINUOUS
62
7
10
211.0010
20
187.9999
0
SEQEND
8
OHNE_NAMEN
6
CONTINUOUS
62
7
0
LINE
8
OHNE_NAMEN
6
CONTINUOUS
62
7
39
0.1528
10
210.0012
20
182.9999
11
209.5010
21
187.9999
0
LINE
8
OHNE_NAMEN
6
CONTINUOUS
62
7
39
0.1528
10
212.0014
20
182.9999
11
212.5013
21
187.9999
0
LINE
8
OHNE_NAMEN
6
CONTINUOUS
62
7
39
0.1528
10
225.0009
20
178.2498
11
228.0013
21
182.2499
0
LINE
8
OHNE_NAMEN
6
CONTINUOUS
62
7
39
0.1528
10
197.0250
20
178.1662
11
193.8150
21
182.1526
0
LINE
8
OHNE_NAMEN
6
CONTINUOUS
62
7
39
0.1528
10
219.4969
20
181.6940
11
221.5081
21
186.3859
0
LINE
8
OHNE_NAMEN
6
CONTINUOUS
62
7
39
0.1528
10
218.1916
20
182.1526
11
219.2500
21
187.0915
0
LINE
8
OHNE_NAMEN
6
CONTINUOUS
62
7
39
0.1528
10
227.1875
20
183.1404
11
224.1539
21
178.9423
0
LINE
8
OHNE_NAMEN
6
CONTINUOUS
62
7
39
0.1528
10
226.1997
20
183.9165
11
223.2011
21
179.6479
0
LINE
8
OHNE_NAMEN
6
CONTINUOUS
62
7
39
0.1528
10
225.0708
20
184.6926
11
222.3191
21
180.2829
0
LINE
8
OHNE_NAMEN
6
CONTINUOUS
62
7
39
0.1528
10
223.9066
20
185.3276
11
221.4019
21
180.8120
0
LINE
8
OHNE_NAMEN
6
CONTINUOUS
62
7
39
0.1528
10
222.7777
20
185.8567
11
220.4498
21
181.2706
0
LINE
8
OHNE_NAMEN
6
CONTINUOUS
62
7
39
0.1528
10
194.5908
20
183.0698
11
197.7658
21
178.8717
0
LINE
8
OHNE_NAMEN
6
CONTINUOUS
62
7
39
0.1528
10
195.5789
20
183.8459
11
198.6478
21
179.5773
0
LINE
8
OHNE_NAMEN
6
CONTINUOUS
62
7
39
0.1528
10
196.7075
20
184.6220
11
199.4944
21
180.1770
0
LINE
8
OHNE_NAMEN
6
CONTINUOUS
62
7
39
0.1528
10
197.8720
20
185.2570
11
200.3764
21
180.7415
0
LINE
8
OHNE_NAMEN
6
CONTINUOUS
62
7
39
0.1528
10
199.0005
20
185.7862
11
201.3289
21
181.2001
0
LINE
8
OHNE_NAMEN
6
CONTINUOUS
62
7
39
0.1528
10
202.2817
20
181.6234
11
200.2705
21
186.3153
0
LINE
8
OHNE_NAMEN
6
CONTINUOUS
62
7
39
0.1528
10
203.5866
20
182.0820
11
202.5283
21
187.0209
0
LINE
8
OHNE_NAMEN
6
CONTINUOUS
62
7
39
0.1528
10
203.5514
20
187.4089
11
204.5748
21
182.2937
0
LINE
8
OHNE_NAMEN
6
CONTINUOUS
62
7
39
0.1528
10
204.6802
20
187.6206
11
205.5269
21
182.5406
0
LINE
8
OHNE_NAMEN
6
CONTINUOUS
62
7
39
0.1528
10
205.9150
20
187.7617
11
206.6558
21
182.7170
0
LINE
8
OHNE_NAMEN
6
CONTINUOUS
62
7
39
0.1528
10
207.0791
20
187.9028
11
207.6789
21
182.8934
0
LINE
8
OHNE_NAMEN
6
CONTINUOUS
62
7
39
0.1528
10
208.3491
20
188.0087
11
208.8430
21
182.9992
0
LINE
8
OHNE_NAMEN
6
CONTINUOUS
62
7
39
0.1528
10
213.4644
20
188.0440
11
212.9705
21
183.0345
0
LINE
8
OHNE_NAMEN
6
CONTINUOUS
62
7
39
0.1528
10
214.7344
20
187.9381
11
214.1347
21
182.9287
0
LINE
8
OHNE_NAMEN
6
CONTINUOUS
62
7
39
0.1528
10
215.8986
20
187.7970
11
215.1581
21
182.7523
0
LINE
8
OHNE_NAMEN
6
CONTINUOUS
62
7
39
0.1528
10
217.1333
20
187.6559
11
216.2866
21
182.5759
0
LINE
8
OHNE_NAMEN
6
CONTINUOUS
62
7
39
0.1528
10
218.2622
20
187.4442
11
217.2391
21
182.3290
0
LINE
8
OHNE_NAMEN
6
CONTINUOUS
62
5
39
0.0000
10
168.9036
20
125.9995
11
194.0010
21
125.9995
0
LINE
8
OHNE_NAMEN
6
CONTINUOUS
62
5
39
0.0000
10
232.0015
20
125.9999
11
253.0009
21
125.9995
0
LINE
8
OHNE_NAMEN
6
CONTINUOUS
62
5
39
0.0000
10
232.0015
20
125.9995
11
232.0015
21
127.9998
0
LINE
8
OHNE_NAMEN
6
CONTINUOUS
62
5
39
0.0000
10
194.0010
20
125.9995
11
194.0010
21
127.9998
0
LINE
8
OHNE_NAMEN
6
CONTINUOUS
62
5
39
0.0000
10
232.0015
20
127.9998
11
194.0010
21
127.9998
0
LINE
8
OHNE_NAMEN
6
CONTINUOUS
62
5
39
0.0000
10
168.9036
20
199.9996
11
194.0010
21
199.9996
0
LINE
8
OHNE_NAMEN
6
CONTINUOUS
62
5
39
0.0000
10
232.0015
20
199.9996
11
252.9999
21
200.0000
0
LINE
8
OHNE_NAMEN
6
CONTINUOUS
62
5
39
0.0000
10
232.0015
20
199.9996
11
232.0015
21
197.9997
0
LINE
8
OHNE_NAMEN
6
CONTINUOUS
62
5
39
0.0000
10
194.0010
20
199.9996
11
194.0010
21
197.9997
0
LINE
8
OHNE_NAMEN
6
CONTINUOUS
62
5
39
0.0000
10
232.0015
20
197.9997
11
194.0010
21
197.9997
0
LINE
8
OHNE_NAMEN
6
CONTINUOUS
62
5
39
0.0000
10
253.0009
20
199.9996
11
253.0009
21
180.9993
0
LINE
8
OHNE_NAMEN
6
CONTINUOUS
62
5
39
0.0000
10
252.9999
20
200.0000
11
255.0005
21
200.0003
0
LINE
8
OHNE_NAMEN
6
CONTINUOUS
62
5
39
0.0000
10
255.0001
20
200.0000
11
286.5004
21
232.0001
0
LINE
8
OHNE_NAMEN
6
CONTINUOUS
62
5
39
0.0000
10
318.0006
20
200.0000
11
286.5004
21
232.0001
0
LINE
8
OHNE_NAMEN
6
CONTINUOUS
62
5
39
0.0000
10
320.0001
20
200.0000
11
320.0001
21
181.0000
0
LINE
8
OHNE_NAMEN
6
CONTINUOUS
62
5
39
0.0000
10
320.0001
20
145.0001
11
320.0001
21
125.9999
0
LINE
8
OHNE_NAMEN
6
CONTINUOUS
62
5
39
0.0000
10
320.0001
20
181.0000
11
318.0002
21
181.0000
0
LINE
8
OHNE_NAMEN
6
CONTINUOUS
62
5
39
0.0000
10
318.0002
20
181.0000
11
317.9999
21
145.0001
0
LINE
8
OHNE_NAMEN
6
CONTINUOUS
62
5
39
0.0000
10
318.0002
20
145.0001
11
320.0001
21
145.0001
0
LINE
8
OHNE_NAMEN
6
CONTINUOUS
62
5
39
0.0000
10
252.9999
20
125.9999
11
275.0002
21
125.9999
0
LINE
8
OHNE_NAMEN
6
CONTINUOUS
62
5
39
0.0000
10
298.0002
20
125.9999
11
320.0001
21
125.9999
0
LINE
8
OHNE_NAMEN
6
CONTINUOUS
62
5
39
0.0000
10
275.0002
20
125.9999
11
275.0002
21
127.9998
0
LINE
8
OHNE_NAMEN
6
CONTINUOUS
62
5
39
0.0000
10
275.0002
20
128.0001
11
298.0002
21
128.0001
0
LINE
8
OHNE_NAMEN
6
CONTINUOUS
62
5
39
0.0000
10
298.0002
20
128.0001
11
298.0002
21
125.9999
0
LINE
8
OHNE_NAMEN
6
CONTINUOUS
62
5
39
0.0000
10
318.0002
20
200.0000
11
320.0001
21
200.0000
0
LINE
8
OHNE_NAMEN
6
CONTINUOUS
62
1
39
0.0000
10
45.0010
20
138.0000
11
45.0010
21
176.9999
0
LINE
8
OHNE_NAMEN
6
CONTINUOUS
62
1
39
0.0000
10
75.0016
20
176.9999
11
75.0009
21
138.0000
0
LINE
8
OHNE_NAMEN
6
CONTINUOUS
62
1
39
0.0000
10
75.0016
20
138.0000
11
45.0017
21
138.0000
0
LINE
8
OHNE_NAMEN
6
CONTINUOUS
62
1
39
0.0000
10
58.9975
20
183.0229
11
57.8217
21
182.9756
0
LINE
8
OHNE_NAMEN
6
CONTINUOUS
62
1
39
0.0000
10
57.8217
20
182.9756
11
56.6692
21
182.8818
0
LINE
8
OHNE_NAMEN
6
CONTINUOUS
62
1
39
0.0000
10
56.6692
20
182.8818
11
55.6578
21
182.7639
0
LINE
8
OHNE_NAMEN
6
CONTINUOUS
62
1
39
0.0000
10
55.6578
20
182.7639
11
54.5056
21
182.5759
0
LINE
8
OHNE_NAMEN
6
CONTINUOUS
62
1
39
0.0000
10
54.5056
20
182.5759
11
53.5647
21
182.3642
0
LINE
8
OHNE_NAMEN
6
CONTINUOUS
62
1
39
0.0000
10
53.5647
20
182.3642
11
52.5769
21
182.0820
0
LINE
8
OHNE_NAMEN
6
CONTINUOUS
62
1
39
0.0000
10
52.5769
20
182.0820
11
51.2833
21
181.6118
0
LINE
8
OHNE_NAMEN
6
CONTINUOUS
62
1
39
0.0000
10
51.2833
20
181.6118
11
50.3428
21
181.1648
0
LINE
8
OHNE_NAMEN
6
CONTINUOUS
62
1
39
0.0000
10
50.3428
20
181.1648
11
49.4019
21
180.6945
0
LINE
8
OHNE_NAMEN
6
CONTINUOUS
62
1
39
0.0000
10
49.4019
20
180.6945
11
48.4847
21
180.1534
0
LINE
8
OHNE_NAMEN
6
CONTINUOUS
62
1
39
0.0000
10
48.4847
20
180.1534
11
47.6617
21
179.5656
0
LINE
8
OHNE_NAMEN
6
CONTINUOUS
62
1
39
0.0000
10
47.6617
20
179.5656
11
46.7914
21
178.8365
0
LINE
8
OHNE_NAMEN
6
CONTINUOUS
62
1
39
0.0000
10
46.7914
20
178.8365
11
46.0389
21
178.1545
0
LINE
8
OHNE_NAMEN
6
CONTINUOUS
62
1
39
0.0000
10
46.0389
20
178.1545
11
45.0039
21
177.0256
0
LINE
8
OHNE_NAMEN
6
CONTINUOUS
62
1
39
0.0000
10
58.9975
20
183.0229
11
60.9731
21
183.0229
0
LINE
8
OHNE_NAMEN
6
CONTINUOUS
62
1
39
0.0000
10
60.9731
20
183.0229
11
61.9845
21
182.9756
0
LINE
8
OHNE_NAMEN
6
CONTINUOUS
62
1
39
0.0000
10
61.9845
20
182.9756
11
63.1366
21
182.8818
0
LINE
8
OHNE_NAMEN
6
CONTINUOUS
62
1
39
0.0000
10
63.1366
20
182.8818
11
64.1481
21
182.7876
0
LINE
8
OHNE_NAMEN
6
CONTINUOUS
62
1
39
0.0000
10
64.1481
20
182.7876
11
65.2769
21
182.5995
0
LINE
8
OHNE_NAMEN
6
CONTINUOUS
62
1
39
0.0000
10
65.2769
20
182.5995
11
66.2411
21
182.4111
0
LINE
8
OHNE_NAMEN
6
CONTINUOUS
62
1
39
0.0000
10
66.2411
20
182.4111
11
67.2056
21
182.1526
0
LINE
8
OHNE_NAMEN
6
CONTINUOUS
62
1
39
0.0000
10
67.2056
20
182.1526
11
68.4756
21
181.6823
0
LINE
8
OHNE_NAMEN
6
CONTINUOUS
62
1
39
0.0000
10
68.4756
20
181.6823
11
69.4397
21
181.2590
0
LINE
8
OHNE_NAMEN
6
CONTINUOUS
62
1
39
0.0000
10
69.4397
20
181.2590
11
70.4039
21
180.8120
0
LINE
8
OHNE_NAMEN
6
CONTINUOUS
62
1
39
0.0000
10
70.4039
20
180.8120
11
71.2978
21
180.2712
0
LINE
8
OHNE_NAMEN
6
CONTINUOUS
62
1
39
0.0000
10
71.2978
20
180.2712
11
72.1914
21
179.6831
0
LINE
8
OHNE_NAMEN
6
CONTINUOUS
62
1
39
0.0000
10
72.1914
20
179.6831
11
73.1086
21
178.9307
0
LINE
8
OHNE_NAMEN
6
CONTINUOUS
62
1
39
0.0000
10
73.1086
20
178.9307
11
73.9316
21
178.2015
0
LINE
8
OHNE_NAMEN
6
CONTINUOUS
62
1
39
0.0000
10
73.9316
20
178.1898
11
75.0136
21
176.9904
0
LINE
8
OHNE_NAMEN
6
CONTINUOUS
62
1
39
0.1528
10
45.0010
20
171.9996
11
44.5011
21
171.9996
0
LINE
8
OHNE_NAMEN
6
CONTINUOUS
62
1
39
0.1528
10
45.0010
20
170.9999
11
44.5011
21
170.9999
0
LINE
8
OHNE_NAMEN
6
CONTINUOUS
62
1
39
0.1528
10
45.0010
20
169.9997
11
44.5011
21
169.9997
0
LINE
8
OHNE_NAMEN
6
CONTINUOUS
62
1
39
0.1528
10
45.0010
20
169.0000
11
44.5011
21
169.0000
0
LINE
8
OHNE_NAMEN
6
CONTINUOUS
62
1
39
0.1528
10
45.0010
20
167.9998
11
44.5011
21
167.9998
0
LINE
8
OHNE_NAMEN
6
CONTINUOUS
62
1
39
0.1528
10
45.0010
20
166.9997
11
44.5011
21
166.9997
0
LINE
8
OHNE_NAMEN
6
CONTINUOUS
62
1
39
0.1528
10
45.0010
20
162.9999
11
44.5011
21
162.9999
0
LINE
8
OHNE_NAMEN
6
CONTINUOUS
62
1
39
0.1528
10
45.0010
20
161.9998
11
44.5011
21
161.9998
0
LINE
8
OHNE_NAMEN
6
CONTINUOUS
62
1
39
0.1528
10
45.0010
20
160.9997
11
44.5011
21
160.9997
0
LINE
8
OHNE_NAMEN
6
CONTINUOUS
62
1
39
0.1528
10
45.0010
20
159.9999
11
44.5011
21
159.9999
0
LINE
8
OHNE_NAMEN
6
CONTINUOUS
62
1
39
0.1528
10
45.0010
20
158.9998
11
44.5011
21
158.9998
0
LINE
8
OHNE_NAMEN
6
CONTINUOUS
62
1
39
0.1528
10
45.0010
20
157.9996
11
44.5011
21
157.9996
0
LINE
8
OHNE_NAMEN
6
CONTINUOUS
62
1
39
0.1528
10
45.0010
20
153.9999
11
44.5011
21
153.9999
0
LINE
8
OHNE_NAMEN
6
CONTINUOUS
62
1
39
0.1528
10
45.0010
20
152.9997
11
44.5011
21
152.9997
0
LINE
8
OHNE_NAMEN
6
CONTINUOUS
62
1
39
0.1528
10
45.0010
20
151.9999
11
44.5011
21
151.9999
0
LINE
8
OHNE_NAMEN
6
CONTINUOUS
62
1
39
0.1528
10
45.0010
20
150.9998
11
44.5011
21
150.9998
0
LINE
8
OHNE_NAMEN
6
CONTINUOUS
62
1
39
0.1528
10
45.0010
20
149.9997
11
44.5011
21
149.9997
0
LINE
8
OHNE_NAMEN
6
CONTINUOUS
62
1
39
0.1528
10
45.0010
20
148.9999
11
44.5011
21
148.9999
0
LINE
8
OHNE_NAMEN
6
CONTINUOUS
62
1
39
0.1528
10
45.0010
20
144.9998
11
44.5011
21
144.9998
0
LINE
8
OHNE_NAMEN
6
CONTINUOUS
62
1
39
0.1528
10
45.0010
20
143.9996
11
44.5011
21
143.9996
0
LINE
8
OHNE_NAMEN
6
CONTINUOUS
62
1
39
0.1528
10
45.0010
20
142.9999
11
44.5011
21
142.9999
0
LINE
8
OHNE_NAMEN
6
CONTINUOUS
62
1
39
0.1528
10
45.0010
20
141.9998
11
44.5011
21
141.9998
0
LINE
8
OHNE_NAMEN
6
CONTINUOUS
62
1
39
0.1528
10
45.0010
20
140.9996
11
44.5011
21
140.9996
0
LINE
8
OHNE_NAMEN
6
CONTINUOUS
62
1
39
0.1528
10
45.0010
20
139.9999
11
44.5011
21
139.9999
0
LINE
8
OHNE_NAMEN
6
CONTINUOUS
62
1
39
0.1528
10
75.5011
20
171.9996
11
75.0009
21
171.9996
0
LINE
8
OHNE_NAMEN
6
CONTINUOUS
62
1
39
0.1528
10
75.5011
20
170.9999
11
75.0009
21
170.9999
0
LINE
8
OHNE_NAMEN
6
CONTINUOUS
62
1
39
0.1528
10
75.5011
20
169.9997
11
75.0009
21
169.9997
0
LINE
8
OHNE_NAMEN
6
CONTINUOUS
62
1
39
0.1528
10
75.5011
20
169.0000
11
75.0009
21
169.0000
0
LINE
8
OHNE_NAMEN
6
CONTINUOUS
62
1
39
0.1528
10
75.5011
20
167.9998
11
75.0009
21
167.9998
0
LINE
8
OHNE_NAMEN
6
CONTINUOUS
62
1
39
0.1528
10
75.5011
20
166.9997
11
75.0009
21
166.9997
0
LINE
8
OHNE_NAMEN
6
CONTINUOUS
62
1
39
0.1528
10
75.5011
20
162.9999
11
75.0009
21
162.9999
0
LINE
8
OHNE_NAMEN
6
CONTINUOUS
62
1
39
0.1528
10
75.5011
20
161.9998
11
75.0009
21
161.9998
0
LINE
8
OHNE_NAMEN
6
CONTINUOUS
62
1
39
0.1528
10
75.5011
20
160.9997
11
75.0009
21
160.9997
0
LINE
8
OHNE_NAMEN
6
CONTINUOUS
62
1
39
0.1528
10
75.5011
20
159.9999
11
75.0009
21
159.9999
0
LINE
8
OHNE_NAMEN
6
CONTINUOUS
62
1
39
0.1528
10
75.5011
20
158.9998
11
75.0009
21
158.9998
0
LINE
8
OHNE_NAMEN
6
CONTINUOUS
62
1
39
0.1528
10
75.5011
20
157.9996
11
75.0009
21
157.9996
0
LINE
8
OHNE_NAMEN
6
CONTINUOUS
62
1
39
0.1528
10
75.5011
20
153.9999
11
75.0009
21
153.9999
0
LINE
8
OHNE_NAMEN
6
CONTINUOUS
62
1
39
0.1528
10
75.5011
20
152.9997
11
75.0009
21
152.9997
0
LINE
8
OHNE_NAMEN
6
CONTINUOUS
62
1
39
0.1528
10
75.5011
20
151.9999
11
75.0009
21
151.9999
0
LINE
8
OHNE_NAMEN
6
CONTINUOUS
62
1
39
0.1528
10
75.5011
20
150.9998
11
75.0009
21
150.9998
0
LINE
8
OHNE_NAMEN
6
CONTINUOUS
62
1
39
0.1528
10
75.5011
20
149.9997
11
75.0009
21
149.9997
0
LINE
8
OHNE_NAMEN
6
CONTINUOUS
62
1
39
0.1528
10
75.5011
20
148.9999
11
75.0009
21
148.9999
0
LINE
8
OHNE_NAMEN
6
CONTINUOUS
62
1
39
0.1528
10
75.5011
20
144.9998
11
75.0009
21
144.9998
0
LINE
8
OHNE_NAMEN
6
CONTINUOUS
62
1
39
0.1528
10
75.5011
20
143.9996
11
75.0009
21
143.9996
0
LINE
8
OHNE_NAMEN
6
CONTINUOUS
62
1
39
0.1528
10
75.5011
20
142.9999
11
75.0009
21
142.9999
0
LINE
8
OHNE_NAMEN
6
CONTINUOUS
62
1
39
0.1528
10
75.5011
20
141.9998
11
75.0009
21
141.9998
0
LINE
8
OHNE_NAMEN
6
CONTINUOUS
62
1
39
0.1528
10
75.5011
20
140.9996
11
75.0009
21
140.9996
0
LINE
8
OHNE_NAMEN
6
CONTINUOUS
62
1
39
0.1528
10
75.5011
20
139.9999
11
75.0009
21
139.9999
0
LINE
8
OHNE_NAMEN
6
CONTINUOUS
62
7
39
0.1528
10
75.0016
20
176.9999
11
79.0018
21
179.9999
0
LINE
8
OHNE_NAMEN
6
CONTINUOUS
62
7
39
0.1528
10
45.0017
20
176.9999
11
41.0016
21
179.9999
0
POLYLINE
8
OHNE_NAMEN
6
CONTINUOUS
62
7
66
1
10
0.0000
20
0.0000
70
0
40
0.1528
41
0.1528
0
VERTEX
8
OHNE_NAMEN
6
CONTINUOUS
62
7
10
79.0018
20
179.9999
0
VERTEX
8
OHNE_NAMEN
6
CONTINUOUS
62
7
10
78.6268
20
180.5624
0
SEQEND
8
OHNE_NAMEN
6
CONTINUOUS
62
7
0
POLYLINE
8
OHNE_NAMEN
6
CONTINUOUS
62
7
66
1
10
0.0000
20
0.0000
70
0
40
0.1528
41
0.1528
0
VERTEX
8
OHNE_NAMEN
6
CONTINUOUS
62
7
10
78.6268
20
180.5624
0
VERTEX
8
OHNE_NAMEN
6
CONTINUOUS
62
7
10
78.2244
20
181.0858
0
SEQEND
8
OHNE_NAMEN
6
CONTINUOUS
62
7
0
POLYLINE
8
OHNE_NAMEN
6
CONTINUOUS
62
7
66
1
10
0.0000
20
0.0000
70
0
40
0.1528
41
0.1528
0
VERTEX
8
OHNE_NAMEN
6
CONTINUOUS
62
7
10
78.2244
20
181.0858
0
VERTEX
8
OHNE_NAMEN
6
CONTINUOUS
62
7
10
77.7996
20
181.5729
0
SEQEND
8
OHNE_NAMEN
6
CONTINUOUS
62
7
0
POLYLINE
8
OHNE_NAMEN
6
CONTINUOUS
62
7
66
1
10
0.0000
20
0.0000
70
0
40
0.1528
41
0.1528
0
VERTEX
8
OHNE_NAMEN
6
CONTINUOUS
62
7
10
77.7996
20
181.5729
0
VERTEX
8
OHNE_NAMEN
6
CONTINUOUS
62
7
10
77.3748
20
182.0599
0
SEQEND
8
OHNE_NAMEN
6
CONTINUOUS
62
7
0
POLYLINE
8
OHNE_NAMEN
6
CONTINUOUS
62
7
66
1
10
0.0000
20
0.0000
70
0
40
0.1528
41
0.1528
0
VERTEX
8
OHNE_NAMEN
6
CONTINUOUS
62
7
10
77.3748
20
182.0599
0
VERTEX
8
OHNE_NAMEN
6
CONTINUOUS
62
7
10
76.9275
20
182.5106
0
SEQEND
8
OHNE_NAMEN
6
CONTINUOUS
62
7
0
POLYLINE
8
OHNE_NAMEN
6
CONTINUOUS
62
7
66
1
10
0.0000
20
0.0000
70
0
40
0.1528
41
0.1528
0
VERTEX
8
OHNE_NAMEN
6
CONTINUOUS
62
7
10
76.9275
20
182.5106
0
VERTEX
8
OHNE_NAMEN
6
CONTINUOUS
62
7
10
76.4627
20
182.9276
0
SEQEND
8
OHNE_NAMEN
6
CONTINUOUS
62
7
0
POLYLINE
8
OHNE_NAMEN
6
CONTINUOUS
62
7
66
1
10
0.0000
20
0.0000
70
0
40
0.1528
41
0.1528
0
VERTEX
8
OHNE_NAMEN
6
CONTINUOUS
62
7
10
76.4627
20
182.9276
0
VERTEX
8
OHNE_NAMEN
6
CONTINUOUS
62
7
10
75.9978
20
183.3446
0
SEQEND
8
OHNE_NAMEN
6
CONTINUOUS
62
7
0
POLYLINE
8
OHNE_NAMEN
6
CONTINUOUS
62
7
66
1
10
0.0000
20
0.0000
70
0
40
0.1528
41
0.1528
0
VERTEX
8
OHNE_NAMEN
6
CONTINUOUS
62
7
10
75.9978
20
183.3446
0
VERTEX
8
OHNE_NAMEN
6
CONTINUOUS
62
7
10
75.5154
20
183.7279
0
SEQEND
8
OHNE_NAMEN
6
CONTINUOUS
62
7
0
POLYLINE
8
OHNE_NAMEN
6
CONTINUOUS
62
7
66
1
10
0.0000
20
0.0000
70
0
40
0.1528
41
0.1528
0
VERTEX
8
OHNE_NAMEN
6
CONTINUOUS
62
7
10
75.5154
20
183.7279
0
VERTEX
8
OHNE_NAMEN
6
CONTINUOUS
62
7
10
75.0203
20
184.0801
0
SEQEND
8
OHNE_NAMEN
6
CONTINUOUS
62
7
0
POLYLINE
8
OHNE_NAMEN
6
CONTINUOUS
62
7
66
1
10
0.0000
20
0.0000
70
0
40
0.1528
41
0.1528
0
VERTEX
8
OHNE_NAMEN
6
CONTINUOUS
62
7
10
75.0203
20
184.0801
0
VERTEX
8
OHNE_NAMEN
6
CONTINUOUS
62
7
10
74.5252
20
184.4324
0
SEQEND
8
OHNE_NAMEN
6
CONTINUOUS
62
7
0
POLYLINE
8
OHNE_NAMEN
6
CONTINUOUS
62
7
66
1
10
0.0000
20
0.0000
70
0
40
0.1528
41
0.1528
0
VERTEX
8
OHNE_NAMEN
6
CONTINUOUS
62
7
10
74.5252
20
184.4324
0
VERTEX
8
OHNE_NAMEN
6
CONTINUOUS
62
7
10
74.0173
20
184.7537
0
SEQEND
8
OHNE_NAMEN
6
CONTINUOUS
62
7
0
POLYLINE
8
OHNE_NAMEN
6
CONTINUOUS
62
7
66
1
10
0.0000
20
0.0000
70
0
40
0.1528
41
0.1528
0
VERTEX
8
OHNE_NAMEN
6
CONTINUOUS
62
7
10
74.0173
20
184.7537
0
VERTEX
8
OHNE_NAMEN
6
CONTINUOUS
62
7
10
73.5017
20
185.0467
0
SEQEND
8
OHNE_NAMEN
6
CONTINUOUS
62
7
0
POLYLINE
8
OHNE_NAMEN
6
CONTINUOUS
62
7
66
1
10
0.0000
20
0.0000
70
0
40
0.1528
41
0.1528
0
VERTEX
8
OHNE_NAMEN
6
CONTINUOUS
62
7
10
73.5017
20
185.0467
0
VERTEX
8
OHNE_NAMEN
6
CONTINUOUS
62
7
10
72.9861
20
185.3396
0
SEQEND
8
OHNE_NAMEN
6
CONTINUOUS
62
7
0
POLYLINE
8
OHNE_NAMEN
6
CONTINUOUS
62
7
66
1
10
0.0000
20
0.0000
70
0
40
0.1528
41
0.1528
0
VERTEX
8
OHNE_NAMEN
6
CONTINUOUS
62
7
10
72.9861
20
185.3396
0
VERTEX
8
OHNE_NAMEN
6
CONTINUOUS
62
7
10
72.4626
20
185.6043
0
SEQEND
8
OHNE_NAMEN
6
CONTINUOUS
62
7
0
POLYLINE
8
OHNE_NAMEN
6
CONTINUOUS
62
7
66
1
10
0.0000
20
0.0000
70
0
40
0.1528
41
0.1528
0
VERTEX
8
OHNE_NAMEN
6
CONTINUOUS
62
7
10
72.4626
20
185.6043
0
VERTEX
8
OHNE_NAMEN
6
CONTINUOUS
62
7
10
71.9363
20
185.8433
0
SEQEND
8
OHNE_NAMEN
6
CONTINUOUS
62
7
0
POLYLINE
8
OHNE_NAMEN
6
CONTINUOUS
62
7
66
1
10
0.0000
20
0.0000
70
0
40
0.1528
41
0.1528
0
VERTEX
8
OHNE_NAMEN
6
CONTINUOUS
62
7
10
71.9363
20
185.8433
0
VERTEX
8
OHNE_NAMEN
6
CONTINUOUS
62
7
10
71.4099
20
186.0823
0
SEQEND
8
OHNE_NAMEN
6
CONTINUOUS
62
7
0
POLYLINE
8
OHNE_NAMEN
6
CONTINUOUS
62
7
66
1
10
0.0000
20
0.0000
70
0
40
0.1528
41
0.1528
0
VERTEX
8
OHNE_NAMEN
6
CONTINUOUS
62
7
10
71.4099
20
186.0823
0
VERTEX
8
OHNE_NAMEN
6
CONTINUOUS
62
7
10
70.8806
20
186.2957
0
SEQEND
8
OHNE_NAMEN
6
CONTINUOUS
62
7
0
POLYLINE
8
OHNE_NAMEN
6
CONTINUOUS
62
7
66
1
10
0.0000
20
0.0000
70
0
40
0.1528
41
0.1528
0
VERTEX
8
OHNE_NAMEN
6
CONTINUOUS
62
7
10
70.8806
20
186.2957
0
VERTEX
8
OHNE_NAMEN
6
CONTINUOUS
62
7
10
70.3532
20
186.4861
0
SEQEND
8
OHNE_NAMEN
6
CONTINUOUS
62
7
0
POLYLINE
8
OHNE_NAMEN
6
CONTINUOUS
62
7
66
1
10
0.0000
20
0.0000
70
0
40
0.1528
41
0.1528
0
VERTEX
8
OHNE_NAMEN
6
CONTINUOUS
62
7
10
70.3532
20
186.4861
0
VERTEX
8
OHNE_NAMEN
6
CONTINUOUS
62
7
10
69.8259
20
186.6765
0
SEQEND
8
OHNE_NAMEN
6
CONTINUOUS
62
7
0
POLYLINE
8
OHNE_NAMEN
6
CONTINUOUS
62
7
66
1
10
0.0000
20
0.0000
70
0
40
0.1528
41
0.1528
0
VERTEX
8
OHNE_NAMEN
6
CONTINUOUS
62
7
10
69.8259
20
186.6765
0
VERTEX
8
OHNE_NAMEN
6
CONTINUOUS
62
7
10
69.3005
20
186.8440
0
SEQEND
8
OHNE_NAMEN
6
CONTINUOUS
62
7
0
POLYLINE
8
OHNE_NAMEN
6
CONTINUOUS
62
7
66
1
10
0.0000
20
0.0000
70
0
40
0.1528
41
0.1528
0
VERTEX
8
OHNE_NAMEN
6
CONTINUOUS
62
7
10
69.3005
20
186.8440
0
VERTEX
8
OHNE_NAMEN
6
CONTINUOUS
62
7
10
68.7819
20
186.9912
0
SEQEND
8
OHNE_NAMEN
6
CONTINUOUS
62
7
0
POLYLINE
8
OHNE_NAMEN
6
CONTINUOUS
62
7
66
1
10
0.0000
20
0.0000
70
0
40
0.1528
41
0.1528
0
VERTEX
8
OHNE_NAMEN
6
CONTINUOUS
62
7
10
68.7819
20
186.9912
0
VERTEX
8
OHNE_NAMEN
6
CONTINUOUS
62
7
10
68.2633
20
187.1384
0
SEQEND
8
OHNE_NAMEN
6
CONTINUOUS
62
7
0
POLYLINE
8
OHNE_NAMEN
6
CONTINUOUS
62
7
66
1
10
0.0000
20
0.0000
70
0
40
0.1528
41
0.1528
0
VERTEX
8
OHNE_NAMEN
6
CONTINUOUS
62
7
10
68.2633
20
187.1384
0
VERTEX
8
OHNE_NAMEN
6
CONTINUOUS
62
7
10
67.7516
20
187.2654
0
SEQEND
8
OHNE_NAMEN
6
CONTINUOUS
62
7
0
POLYLINE
8
OHNE_NAMEN
6
CONTINUOUS
62
7
66
1
10
0.0000
20
0.0000
70
0
40
0.1528
41
0.1528
0
VERTEX
8
OHNE_NAMEN
6
CONTINUOUS
62
7
10
67.7516
20
187.2654
0
VERTEX
8
OHNE_NAMEN
6
CONTINUOUS
62
7
10
67.2516
20
187.3748
0
SEQEND
8
OHNE_NAMEN
6
CONTINUOUS
62
7
0
POLYLINE
8
OHNE_NAMEN
6
CONTINUOUS
62
7
66
1
10
0.0000
20
0.0000
70
0
40
0.1528
41
0.1528
0
VERTEX
8
OHNE_NAMEN
6
CONTINUOUS
62
7
10
67.2516
20
187.3748
0
VERTEX
8
OHNE_NAMEN
6
CONTINUOUS
62
7
10
66.7516
20
187.4842
0
SEQEND
8
OHNE_NAMEN
6
CONTINUOUS
62
7
0
POLYLINE
8
OHNE_NAMEN
6
CONTINUOUS
62
7
66
1
10
0.0000
20
0.0000
70
0
40
0.1528
41
0.1528
0
VERTEX
8
OHNE_NAMEN
6
CONTINUOUS
62
7
10
66.7516
20
187.4842
0
VERTEX
8
OHNE_NAMEN
6
CONTINUOUS
62
7
10
66.2633
20
187.5760
0
SEQEND
8
OHNE_NAMEN
6
CONTINUOUS
62
7
0
POLYLINE
8
OHNE_NAMEN
6
CONTINUOUS
62
7
66
1
10
0.0000
20
0.0000
70
0
40
0.1528
41
0.1528
0
VERTEX
8
OHNE_NAMEN
6
CONTINUOUS
62
7
10
66.2633
20
187.5760
0
VERTEX
8
OHNE_NAMEN
6
CONTINUOUS
62
7
10
65.7916
20
187.6529
0
SEQEND
8
OHNE_NAMEN
6
CONTINUOUS
62
7
0
POLYLINE
8
OHNE_NAMEN
6
CONTINUOUS
62
7
66
1
10
0.0000
20
0.0000
70
0
40
0.1528
41
0.1528
0
VERTEX
8
OHNE_NAMEN
6
CONTINUOUS
62
7
10
65.7916
20
187.6529
0
VERTEX
8
OHNE_NAMEN
6
CONTINUOUS
62
7
10
65.3199
20
187.7298
0
SEQEND
8
OHNE_NAMEN
6
CONTINUOUS
62
7
0
POLYLINE
8
OHNE_NAMEN
6
CONTINUOUS
62
7
66
1
10
0.0000
20
0.0000
70
0
40
0.1528
41
0.1528
0
VERTEX
8
OHNE_NAMEN
6
CONTINUOUS
62
7
10
65.3199
20
187.7298
0
VERTEX
8
OHNE_NAMEN
6
CONTINUOUS
62
7
10
64.8649
20
187.7918
0
SEQEND
8
OHNE_NAMEN
6
CONTINUOUS
62
7
0
POLYLINE
8
OHNE_NAMEN
6
CONTINUOUS
62
7
66
1
10
0.0000
20
0.0000
70
0
40
0.1528
41
0.1528
0
VERTEX
8
OHNE_NAMEN
6
CONTINUOUS
62
7
10
64.8649
20
187.7918
0
VERTEX
8
OHNE_NAMEN
6
CONTINUOUS
62
7
10
64.4313
20
187.8416
0
SEQEND
8
OHNE_NAMEN
6
CONTINUOUS
62
7
0
POLYLINE
8
OHNE_NAMEN
6
CONTINUOUS
62
7
66
1
10
0.0000
20
0.0000
70
0
40
0.1528
41
0.1528
0
VERTEX
8
OHNE_NAMEN
6
CONTINUOUS
62
7
10
64.4313
20
187.8416
0
VERTEX
8
OHNE_NAMEN
6
CONTINUOUS
62
7
10
63.9977
20
187.8914
0
SEQEND
8
OHNE_NAMEN
6
CONTINUOUS
62
7
0
POLYLINE
8
OHNE_NAMEN
6
CONTINUOUS
62
7
66
1
10
0.0000
20
0.0000
70
0
40
0.1528
41
0.1528
0
VERTEX
8
OHNE_NAMEN
6
CONTINUOUS
62
7
10
63.9977
20
187.8914
0
VERTEX
8
OHNE_NAMEN
6
CONTINUOUS
62
7
10
63.5855
20
187.9290
0
SEQEND
8
OHNE_NAMEN
6
CONTINUOUS
62
7
0
POLYLINE
8
OHNE_NAMEN
6
CONTINUOUS
62
7
66
1
10
0.0000
20
0.0000
70
0
40
0.1528
41
0.1528
0
VERTEX
8
OHNE_NAMEN
6
CONTINUOUS
62
7
10
63.5855
20
187.9290
0
VERTEX
8
OHNE_NAMEN
6
CONTINUOUS
62
7
10
63.1998
20
187.9571
0
SEQEND
8
OHNE_NAMEN
6
CONTINUOUS
62
7
0
POLYLINE
8
OHNE_NAMEN
6
CONTINUOUS
62
7
66
1
10
0.0000
20
0.0000
70
0
40
0.1528
41
0.1528
0
VERTEX
8
OHNE_NAMEN
6
CONTINUOUS
62
7
10
63.1998
20
187.9571
0
VERTEX
8
OHNE_NAMEN
6
CONTINUOUS
62
7
10
62.8140
20
187.9852
0
SEQEND
8
OHNE_NAMEN
6
CONTINUOUS
62
7
0
POLYLINE
8
OHNE_NAMEN
6
CONTINUOUS
62
7
66
1
10
0.0000
20
0.0000
70
0
40
0.1528
41
0.1528
0
VERTEX
8
OHNE_NAMEN
6
CONTINUOUS
62
7
10
62.8140
20
187.9852
0
VERTEX
8
OHNE_NAMEN
6
CONTINUOUS
62
7
10
62.4547
20
188.0038
0
SEQEND
8
OHNE_NAMEN
6
CONTINUOUS
62
7
0
POLYLINE
8
OHNE_NAMEN
6
CONTINUOUS
62
7
66
1
10
0.0000
20
0.0000
70
0
40
0.1528
41
0.1528
0
VERTEX
8
OHNE_NAMEN
6
CONTINUOUS
62
7
10
62.4547
20
188.0038
0
VERTEX
8
OHNE_NAMEN
6
CONTINUOUS
62
7
10
62.1265
20
188.0155
0
SEQEND
8
OHNE_NAMEN
6
CONTINUOUS
62
7
0
POLYLINE
8
OHNE_NAMEN
6
CONTINUOUS
62
7
66
1
10
0.0000
20
0.0000
70
0
40
0.1528
41
0.1528
0
VERTEX
8
OHNE_NAMEN
6
CONTINUOUS
62
7
10
62.1265
20
188.0155
0
VERTEX
8
OHNE_NAMEN
6
CONTINUOUS
62
7
10
61.7984
20
188.0272
0
SEQEND
8
OHNE_NAMEN
6
CONTINUOUS
62
7
0
POLYLINE
8
OHNE_NAMEN
6
CONTINUOUS
62
7
66
1
10
0.0000
20
0.0000
70
0
40
0.1528
41
0.1528
0
VERTEX
8
OHNE_NAMEN
6
CONTINUOUS
62
7
10
61.7984
20
188.0272
0
VERTEX
8
OHNE_NAMEN
6
CONTINUOUS
62
7
10
61.5015
20
188.0321
0
SEQEND
8
OHNE_NAMEN
6
CONTINUOUS
62
7
0
POLYLINE
8
OHNE_NAMEN
6
CONTINUOUS
62
7
66
1
10
0.0000
20
0.0000
70
0
40
0.1528
41
0.1528
0
VERTEX
8
OHNE_NAMEN
6
CONTINUOUS
62
7
10
61.5015
20
188.0321
0
VERTEX
8
OHNE_NAMEN
6
CONTINUOUS
62
7
10
61.2408
20
188.0328
0
SEQEND
8
OHNE_NAMEN
6
CONTINUOUS
62
7
0
POLYLINE
8
OHNE_NAMEN
6
CONTINUOUS
62
7
66
1
10
0.0000
20
0.0000
70
0
40
0.1528
41
0.1528
0
VERTEX
8
OHNE_NAMEN
6
CONTINUOUS
62
7
10
61.2408
20
188.0328
0
VERTEX
8
OHNE_NAMEN
6
CONTINUOUS
62
7
10
60.9800
20
188.0335
0
SEQEND
8
OHNE_NAMEN
6
CONTINUOUS
62
7
0
POLYLINE
8
OHNE_NAMEN
6
CONTINUOUS
62
7
66
1
10
0.0000
20
0.0000
70
0
40
0.1528
41
0.1528
0
VERTEX
8
OHNE_NAMEN
6
CONTINUOUS
62
7
10
60.9800
20
188.0335
0
VERTEX
8
OHNE_NAMEN
6
CONTINUOUS
62
7
10
60.7554
20
188.0301
0
SEQEND
8
OHNE_NAMEN
6
CONTINUOUS
62
7
0
POLYLINE
8
OHNE_NAMEN
6
CONTINUOUS
62
7
66
1
10
0.0000
20
0.0000
70
0
40
0.1528
41
0.1528
0
VERTEX
8
OHNE_NAMEN
6
CONTINUOUS
62
7
10
60.7554
20
188.0301
0
VERTEX
8
OHNE_NAMEN
6
CONTINUOUS
62
7
10
60.5718
20
188.0253
0
SEQEND
8
OHNE_NAMEN
6
CONTINUOUS
62
7
0
POLYLINE
8
OHNE_NAMEN
6
CONTINUOUS
62
7
66
1
10
0.0000
20
0.0000
70
0
40
0.1528
41
0.1528
0
VERTEX
8
OHNE_NAMEN
6
CONTINUOUS
62
7
10
60.5718
20
188.0253
0
VERTEX
8
OHNE_NAMEN
6
CONTINUOUS
62
7
10
60.3882
20
188.0204
0
SEQEND
8
OHNE_NAMEN
6
CONTINUOUS
62
7
0
POLYLINE
8
OHNE_NAMEN
6
CONTINUOUS
62
7
66
1
10
0.0000
20
0.0000
70
0
40
0.1528
41
0.1528
0
VERTEX
8
OHNE_NAMEN
6
CONTINUOUS
62
7
10
60.3882
20
188.0204
0
VERTEX
8
OHNE_NAMEN
6
CONTINUOUS
62
7
10
60.2456
20
188.0140
0
SEQEND
8
OHNE_NAMEN
6
CONTINUOUS
62
7
0
POLYLINE
8
OHNE_NAMEN
6
CONTINUOUS
62
7
66
1
10
0.0000
20
0.0000
70
0
40
0.1528
41
0.1528
0
VERTEX
8
OHNE_NAMEN
6
CONTINUOUS
62
7
10
60.2456
20
188.0140
0
VERTEX
8
OHNE_NAMEN
6
CONTINUOUS
62
7
10
60.1490
20
188.0089
0
SEQEND
8
OHNE_NAMEN
6
CONTINUOUS
62
7
0
POLYLINE
8
OHNE_NAMEN
6
CONTINUOUS
62
7
66
1
10
0.0000
20
0.0000
70
0
40
0.1528
41
0.1528
0
VERTEX
8
OHNE_NAMEN
6
CONTINUOUS
62
7
10
60.1490
20
188.0089
0
VERTEX
8
OHNE_NAMEN
6
CONTINUOUS
62
7
10
60.0523
20
188.0038
0
SEQEND
8
OHNE_NAMEN
6
CONTINUOUS
62
7
0
POLYLINE
8
OHNE_NAMEN
6
CONTINUOUS
62
7
66
1
10
0.0000
20
0.0000
70
0
40
0.1528
41
0.1528
0
VERTEX
8
OHNE_NAMEN
6
CONTINUOUS
62
7
10
60.0523
20
188.0038
0
VERTEX
8
OHNE_NAMEN
6
CONTINUOUS
62
7
10
60.0015
20
187.9999
0
SEQEND
8
OHNE_NAMEN
6
CONTINUOUS
62
7
0
POLYLINE
8
OHNE_NAMEN
6
CONTINUOUS
62
7
66
1
10
0.0000
20
0.0000
70
0
40
0.1528
41
0.1528
0
VERTEX
8
OHNE_NAMEN
6
CONTINUOUS
62
7
10
60.0015
20
187.9999
0
VERTEX
8
OHNE_NAMEN
6
CONTINUOUS
62
7
10
60.0015
20
187.9999
0
SEQEND
8
OHNE_NAMEN
6
CONTINUOUS
62
7
0
POLYLINE
8
OHNE_NAMEN
6
CONTINUOUS
62
7
66
1
10
0.0000
20
0.0000
70
0
40
0.1528
41
0.1528
0
VERTEX
8
OHNE_NAMEN
6
CONTINUOUS
62
7
10
41.0722
20
180.0680
0
VERTEX
8
OHNE_NAMEN
6
CONTINUOUS
62
7
10
41.4472
20
180.6305
0
SEQEND
8
OHNE_NAMEN
6
CONTINUOUS
62
7
0
POLYLINE
8
OHNE_NAMEN
6
CONTINUOUS
62
7
66
1
10
0.0000
20
0.0000
70
0
40
0.1528
41
0.1528
0
VERTEX
8
OHNE_NAMEN
6
CONTINUOUS
62
7
10
41.4472
20
180.6305
0
VERTEX
8
OHNE_NAMEN
6
CONTINUOUS
62
7
10
41.8492
20
181.1537
0
SEQEND
8
OHNE_NAMEN
6
CONTINUOUS
62
7
0
POLYLINE
8
OHNE_NAMEN
6
CONTINUOUS
62
7
66
1
10
0.0000
20
0.0000
70
0
40
0.1528
41
0.1528
0
VERTEX
8
OHNE_NAMEN
6
CONTINUOUS
62
7
10
41.8492
20
181.1537
0
VERTEX
8
OHNE_NAMEN
6
CONTINUOUS
62
7
10
42.2735
20
181.6402
0
SEQEND
8
OHNE_NAMEN
6
CONTINUOUS
62
7
0
POLYLINE
8
OHNE_NAMEN
6
CONTINUOUS
62
7
66
1
10
0.0000
20
0.0000
70
0
40
0.1528
41
0.1528
0
VERTEX
8
OHNE_NAMEN
6
CONTINUOUS
62
7
10
42.2735
20
181.6402
0
VERTEX
8
OHNE_NAMEN
6
CONTINUOUS
62
7
10
42.6978
20
182.1268
0
SEQEND
8
OHNE_NAMEN
6
CONTINUOUS
62
7
0
POLYLINE
8
OHNE_NAMEN
6
CONTINUOUS
62
7
66
1
10
0.0000
20
0.0000
70
0
40
0.1528
41
0.1528
0
VERTEX
8
OHNE_NAMEN
6
CONTINUOUS
62
7
10
42.6978
20
182.1268
0
VERTEX
8
OHNE_NAMEN
6
CONTINUOUS
62
7
10
43.1443
20
182.5768
0
SEQEND
8
OHNE_NAMEN
6
CONTINUOUS
62
7
0
POLYLINE
8
OHNE_NAMEN
6
CONTINUOUS
62
7
66
1
10
0.0000
20
0.0000
70
0
40
0.1528
41
0.1528
0
VERTEX
8
OHNE_NAMEN
6
CONTINUOUS
62
7
10
43.1443
20
182.5768
0
VERTEX
8
OHNE_NAMEN
6
CONTINUOUS
62
7
10
43.6082
20
182.9928
0
SEQEND
8
OHNE_NAMEN
6
CONTINUOUS
62
7
0
POLYLINE
8
OHNE_NAMEN
6
CONTINUOUS
62
7
66
1
10
0.0000
20
0.0000
70
0
40
0.1528
41
0.1528
0
VERTEX
8
OHNE_NAMEN
6
CONTINUOUS
62
7
10
43.6082
20
182.9928
0
VERTEX
8
OHNE_NAMEN
6
CONTINUOUS
62
7
10
44.0721
20
183.4089
0
SEQEND
8
OHNE_NAMEN
6
CONTINUOUS
62
7
0
POLYLINE
8
OHNE_NAMEN
6
CONTINUOUS
62
7
66
1
10
0.0000
20
0.0000
70
0
40
0.1528
41
0.1528
0
VERTEX
8
OHNE_NAMEN
6
CONTINUOUS
62
7
10
44.0721
20
183.4089
0
VERTEX
8
OHNE_NAMEN
6
CONTINUOUS
62
7
10
44.5533
20
183.7911
0
SEQEND
8
OHNE_NAMEN
6
CONTINUOUS
62
7
0
POLYLINE
8
OHNE_NAMEN
6
CONTINUOUS
62
7
66
1
10
0.0000
20
0.0000
70
0
40
0.1528
41
0.1528
0
VERTEX
8
OHNE_NAMEN
6
CONTINUOUS
62
7
10
44.5533
20
183.7911
0
VERTEX
8
OHNE_NAMEN
6
CONTINUOUS
62
7
10
45.0471
20
184.1420
0
SEQEND
8
OHNE_NAMEN
6
CONTINUOUS
62
7
0
POLYLINE
8
OHNE_NAMEN
6
CONTINUOUS
62
7
66
1
10
0.0000
20
0.0000
70
0
40
0.1528
41
0.1528
0
VERTEX
8
OHNE_NAMEN
6
CONTINUOUS
62
7
10
45.0471
20
184.1420
0
VERTEX
8
OHNE_NAMEN
6
CONTINUOUS
62
7
10
45.5409
20
184.4930
0
SEQEND
8
OHNE_NAMEN
6
CONTINUOUS
62
7
0
POLYLINE
8
OHNE_NAMEN
6
CONTINUOUS
62
7
66
1
10
0.0000
20
0.0000
70
0
40
0.1528
41
0.1528
0
VERTEX
8
OHNE_NAMEN
6
CONTINUOUS
62
7
10
45.5409
20
184.4930
0
VERTEX
8
OHNE_NAMEN
6
CONTINUOUS
62
7
10
46.0472
20
184.8129
0
SEQEND
8
OHNE_NAMEN
6
CONTINUOUS
62
7
0
POLYLINE
8
OHNE_NAMEN
6
CONTINUOUS
62
7
66
1
10
0.0000
20
0.0000
70
0
40
0.1528
41
0.1528
0
VERTEX
8
OHNE_NAMEN
6
CONTINUOUS
62
7
10
46.0472
20
184.8129
0
VERTEX
8
OHNE_NAMEN
6
CONTINUOUS
62
7
10
46.5611
20
185.1043
0
SEQEND
8
OHNE_NAMEN
6
CONTINUOUS
62
7
0
POLYLINE
8
OHNE_NAMEN
6
CONTINUOUS
62
7
66
1
10
0.0000
20
0.0000
70
0
40
0.1528
41
0.1528
0
VERTEX
8
OHNE_NAMEN
6
CONTINUOUS
62
7
10
46.5611
20
185.1043
0
VERTEX
8
OHNE_NAMEN
6
CONTINUOUS
62
7
10
47.0751
20
185.3957
0
SEQEND
8
OHNE_NAMEN
6
CONTINUOUS
62
7
0
POLYLINE
8
OHNE_NAMEN
6
CONTINUOUS
62
7
66
1
10
0.0000
20
0.0000
70
0
40
0.1528
41
0.1528
0
VERTEX
8
OHNE_NAMEN
6
CONTINUOUS
62
7
10
47.0751
20
185.3957
0
VERTEX
8
OHNE_NAMEN
6
CONTINUOUS
62
7
10
47.5968
20
185.6586
0
SEQEND
8
OHNE_NAMEN
6
CONTINUOUS
62
7
0
POLYLINE
8
OHNE_NAMEN
6
CONTINUOUS
62
7
66
1
10
0.0000
20
0.0000
70
0
40
0.1528
41
0.1528
0
VERTEX
8
OHNE_NAMEN
6
CONTINUOUS
62
7
10
47.5968
20
185.6586
0
VERTEX
8
OHNE_NAMEN
6
CONTINUOUS
62
7
10
48.1212
20
185.8958
0
SEQEND
8
OHNE_NAMEN
6
CONTINUOUS
62
7
0
POLYLINE
8
OHNE_NAMEN
6
CONTINUOUS
62
7
66
1
10
0.0000
20
0.0000
70
0
40
0.1528
41
0.1528
0
VERTEX
8
OHNE_NAMEN
6
CONTINUOUS
62
7
10
48.1212
20
185.8958
0
VERTEX
8
OHNE_NAMEN
6
CONTINUOUS
62
7
10
48.6457
20
186.1329
0
SEQEND
8
OHNE_NAMEN
6
CONTINUOUS
62
7
0
POLYLINE
8
OHNE_NAMEN
6
CONTINUOUS
62
7
66
1
10
0.0000
20
0.0000
70
0
40
0.1528
41
0.1528
0
VERTEX
8
OHNE_NAMEN
6
CONTINUOUS
62
7
10
48.6457
20
186.1329
0
VERTEX
8
OHNE_NAMEN
6
CONTINUOUS
62
7
10
49.1730
20
186.3444
0
SEQEND
8
OHNE_NAMEN
6
CONTINUOUS
62
7
0
POLYLINE
8
OHNE_NAMEN
6
CONTINUOUS
62
7
66
1
10
0.0000
20
0.0000
70
0
40
0.1528
41
0.1528
0
VERTEX
8
OHNE_NAMEN
6
CONTINUOUS
62
7
10
49.1730
20
186.3444
0
VERTEX
8
OHNE_NAMEN
6
CONTINUOUS
62
7
10
49.6983
20
186.5328
0
SEQEND
8
OHNE_NAMEN
6
CONTINUOUS
62
7
0
POLYLINE
8
OHNE_NAMEN
6
CONTINUOUS
62
7
66
1
10
0.0000
20
0.0000
70
0
40
0.1528
41
0.1528
0
VERTEX
8
OHNE_NAMEN
6
CONTINUOUS
62
7
10
49.6983
20
186.5328
0
VERTEX
8
OHNE_NAMEN
6
CONTINUOUS
62
7
10
50.2235
20
186.7212
0
SEQEND
8
OHNE_NAMEN
6
CONTINUOUS
62
7
0
POLYLINE
8
OHNE_NAMEN
6
CONTINUOUS
62
7
66
1
10
0.0000
20
0.0000
70
0
40
0.1528
41
0.1528
0
VERTEX
8
OHNE_NAMEN
6
CONTINUOUS
62
7
10
50.2235
20
186.7212
0
VERTEX
8
OHNE_NAMEN
6
CONTINUOUS
62
7
10
50.7468
20
186.8867
0
SEQEND
8
OHNE_NAMEN
6
CONTINUOUS
62
7
0
POLYLINE
8
OHNE_NAMEN
6
CONTINUOUS
62
7
66
1
10
0.0000
20
0.0000
70
0
40
0.1528
41
0.1528
0
VERTEX
8
OHNE_NAMEN
6
CONTINUOUS
62
7
10
50.7468
20
186.8867
0
VERTEX
8
OHNE_NAMEN
6
CONTINUOUS
62
7
10
51.2632
20
187.0318
0
SEQEND
8
OHNE_NAMEN
6
CONTINUOUS
62
7
0
POLYLINE
8
OHNE_NAMEN
6
CONTINUOUS
62
7
66
1
10
0.0000
20
0.0000
70
0
40
0.1528
41
0.1528
0
VERTEX
8
OHNE_NAMEN
6
CONTINUOUS
62
7
10
51.2632
20
187.0318
0
VERTEX
8
OHNE_NAMEN
6
CONTINUOUS
62
7
10
51.7795
20
187.1769
0
SEQEND
8
OHNE_NAMEN
6
CONTINUOUS
62
7
0
POLYLINE
8
OHNE_NAMEN
6
CONTINUOUS
62
7
66
1
10
0.0000
20
0.0000
70
0
40
0.1528
41
0.1528
0
VERTEX
8
OHNE_NAMEN
6
CONTINUOUS
62
7
10
51.7795
20
187.1769
0
VERTEX
8
OHNE_NAMEN
6
CONTINUOUS
62
7
10
52.2891
20
187.3017
0
SEQEND
8
OHNE_NAMEN
6
CONTINUOUS
62
7
0
POLYLINE
8
OHNE_NAMEN
6
CONTINUOUS
62
7
66
1
10
0.0000
20
0.0000
70
0
40
0.1528
41
0.1528
0
VERTEX
8
OHNE_NAMEN
6
CONTINUOUS
62
7
10
52.2891
20
187.3017
0
VERTEX
8
OHNE_NAMEN
6
CONTINUOUS
62
7
10
52.7868
20
187.4090
0
SEQEND
8
OHNE_NAMEN
6
CONTINUOUS
62
7
0
POLYLINE
8
OHNE_NAMEN
6
CONTINUOUS
62
7
66
1
10
0.0000
20
0.0000
70
0
40
0.1528
41
0.1528
0
VERTEX
8
OHNE_NAMEN
6
CONTINUOUS
62
7
10
52.7868
20
187.4090
0
VERTEX
8
OHNE_NAMEN
6
CONTINUOUS
62
7
10
53.2846
20
187.5162
0
SEQEND
8
OHNE_NAMEN
6
CONTINUOUS
62
7
0
POLYLINE
8
OHNE_NAMEN
6
CONTINUOUS
62
7
66
1
10
0.0000
20
0.0000
70
0
40
0.1528
41
0.1528
0
VERTEX
8
OHNE_NAMEN
6
CONTINUOUS
62
7
10
53.2846
20
187.5162
0
VERTEX
8
OHNE_NAMEN
6
CONTINUOUS
62
7
10
53.7707
20
187.6059
0
SEQEND
8
OHNE_NAMEN
6
CONTINUOUS
62
7
0
POLYLINE
8
OHNE_NAMEN
6
CONTINUOUS
62
7
66
1
10
0.0000
20
0.0000
70
0
40
0.1528
41
0.1528
0
VERTEX
8
OHNE_NAMEN
6
CONTINUOUS
62
7
10
53.7707
20
187.6059
0
VERTEX
8
OHNE_NAMEN
6
CONTINUOUS
62
7
10
54.2402
20
187.6807
0
SEQEND
8
OHNE_NAMEN
6
CONTINUOUS
62
7
0
POLYLINE
8
OHNE_NAMEN
6
CONTINUOUS
62
7
66
1
10
0.0000
20
0.0000
70
0
40
0.1528
41
0.1528
0
VERTEX
8
OHNE_NAMEN
6
CONTINUOUS
62
7
10
54.2402
20
187.6807
0
VERTEX
8
OHNE_NAMEN
6
CONTINUOUS
62
7
10
54.7097
20
187.7555
0
SEQEND
8
OHNE_NAMEN
6
CONTINUOUS
62
7
0
POLYLINE
8
OHNE_NAMEN
6
CONTINUOUS
62
7
66
1
10
0.0000
20
0.0000
70
0
40
0.1528
41
0.1528
0
VERTEX
8
OHNE_NAMEN
6
CONTINUOUS
62
7
10
54.7097
20
187.7555
0
VERTEX
8
OHNE_NAMEN
6
CONTINUOUS
62
7
10
55.1627
20
187.8154
0
SEQEND
8
OHNE_NAMEN
6
CONTINUOUS
62
7
0
POLYLINE
8
OHNE_NAMEN
6
CONTINUOUS
62
7
66
1
10
0.0000
20
0.0000
70
0
40
0.1528
41
0.1528
0
VERTEX
8
OHNE_NAMEN
6
CONTINUOUS
62
7
10
55.1627
20
187.8154
0
VERTEX
8
OHNE_NAMEN
6
CONTINUOUS
62
7
10
55.5942
20
187.8633
0
SEQEND
8
OHNE_NAMEN
6
CONTINUOUS
62
7
0
POLYLINE
8
OHNE_NAMEN
6
CONTINUOUS
62
7
66
1
10
0.0000
20
0.0000
70
0
40
0.1528
41
0.1528
0
VERTEX
8
OHNE_NAMEN
6
CONTINUOUS
62
7
10
55.5942
20
187.8633
0
VERTEX
8
OHNE_NAMEN
6
CONTINUOUS
62
7
10
56.0257
20
187.9111
0
SEQEND
8
OHNE_NAMEN
6
CONTINUOUS
62
7
0
POLYLINE
8
OHNE_NAMEN
6
CONTINUOUS
62
7
66
1
10
0.0000
20
0.0000
70
0
40
0.1528
41
0.1528
0
VERTEX
8
OHNE_NAMEN
6
CONTINUOUS
62
7
10
56.0257
20
187.9111
0
VERTEX
8
OHNE_NAMEN
6
CONTINUOUS
62
7
10
56.4358
20
187.9467
0
SEQEND
8
OHNE_NAMEN
6
CONTINUOUS
62
7
0
POLYLINE
8
OHNE_NAMEN
6
CONTINUOUS
62
7
66
1
10
0.0000
20
0.0000
70
0
40
0.1528
41
0.1528
0
VERTEX
8
OHNE_NAMEN
6
CONTINUOUS
62
7
10
56.4358
20
187.9467
0
VERTEX
8
OHNE_NAMEN
6
CONTINUOUS
62
7
10
56.8197
20
187.9730
0
SEQEND
8
OHNE_NAMEN
6
CONTINUOUS
62
7
0
POLYLINE
8
OHNE_NAMEN
6
CONTINUOUS
62
7
66
1
10
0.0000
20
0.0000
70
0
40
0.1528
41
0.1528
0
VERTEX
8
OHNE_NAMEN
6
CONTINUOUS
62
7
10
56.8197
20
187.9730
0
VERTEX
8
OHNE_NAMEN
6
CONTINUOUS
62
7
10
57.2035
20
187.9992
0
SEQEND
8
OHNE_NAMEN
6
CONTINUOUS
62
7
0
POLYLINE
8
OHNE_NAMEN
6
CONTINUOUS
62
7
66
1
10
0.0000
20
0.0000
70
0
40
0.1528
41
0.1528
0
VERTEX
8
OHNE_NAMEN
6
CONTINUOUS
62
7
10
57.2035
20
187.9992
0
VERTEX
8
OHNE_NAMEN
6
CONTINUOUS
62
7
10
57.5611
20
188.0160
0
SEQEND
8
OHNE_NAMEN
6
CONTINUOUS
62
7
0
POLYLINE
8
OHNE_NAMEN
6
CONTINUOUS
62
7
66
1
10
0.0000
20
0.0000
70
0
40
0.1528
41
0.1528
0
VERTEX
8
OHNE_NAMEN
6
CONTINUOUS
62
7
10
57.5611
20
188.0160
0
VERTEX
8
OHNE_NAMEN
6
CONTINUOUS
62
7
10
57.8875
20
188.0262
0
SEQEND
8
OHNE_NAMEN
6
CONTINUOUS
62
7
0
POLYLINE
8
OHNE_NAMEN
6
CONTINUOUS
62
7
66
1
10
0.0000
20
0.0000
70
0
40
0.1528
41
0.1528
0
VERTEX
8
OHNE_NAMEN
6
CONTINUOUS
62
7
10
57.8875
20
188.0262
0
VERTEX
8
OHNE_NAMEN
6
CONTINUOUS
62
7
10
58.2140
20
188.0363
0
SEQEND
8
OHNE_NAMEN
6
CONTINUOUS
62
7
0
POLYLINE
8
OHNE_NAMEN
6
CONTINUOUS
62
7
66
1
10
0.0000
20
0.0000
70
0
40
0.1528
41
0.1528
0
VERTEX
8
OHNE_NAMEN
6
CONTINUOUS
62
7
10
58.2140
20
188.0363
0
VERTEX
8
OHNE_NAMEN
6
CONTINUOUS
62
7
10
58.5094
20
188.0397
0
SEQEND
8
OHNE_NAMEN
6
CONTINUOUS
62
7
0
POLYLINE
8
OHNE_NAMEN
6
CONTINUOUS
62
7
66
1
10
0.0000
20
0.0000
70
0
40
0.1528
41
0.1528
0
VERTEX
8
OHNE_NAMEN
6
CONTINUOUS
62
7
10
58.5094
20
188.0397
0
VERTEX
8
OHNE_NAMEN
6
CONTINUOUS
62
7
10
58.7688
20
188.0391
0
SEQEND
8
OHNE_NAMEN
6
CONTINUOUS
62
7
0
POLYLINE
8
OHNE_NAMEN
6
CONTINUOUS
62
7
66
1
10
0.0000
20
0.0000
70
0
40
0.1528
41
0.1528
0
VERTEX
8
OHNE_NAMEN
6
CONTINUOUS
62
7
10
58.7688
20
188.0391
0
VERTEX
8
OHNE_NAMEN
6
CONTINUOUS
62
7
10
59.0282
20
188.0386
0
SEQEND
8
OHNE_NAMEN
6
CONTINUOUS
62
7
0
POLYLINE
8
OHNE_NAMEN
6
CONTINUOUS
62
7
66
1
10
0.0000
20
0.0000
70
0
40
0.1528
41
0.1528
0
VERTEX
8
OHNE_NAMEN
6
CONTINUOUS
62
7
10
59.0282
20
188.0386
0
VERTEX
8
OHNE_NAMEN
6
CONTINUOUS
62
7
10
59.2516
20
188.0340
0
SEQEND
8
OHNE_NAMEN
6
CONTINUOUS
62
7
0
POLYLINE
8
OHNE_NAMEN
6
CONTINUOUS
62
7
66
1
10
0.0000
20
0.0000
70
0
40
0.1528
41
0.1528
0
VERTEX
8
OHNE_NAMEN
6
CONTINUOUS
62
7
10
59.2516
20
188.0340
0
VERTEX
8
OHNE_NAMEN
6
CONTINUOUS
62
7
10
59.4342
20
188.0282
0
SEQEND
8
OHNE_NAMEN
6
CONTINUOUS
62
7
0
POLYLINE
8
OHNE_NAMEN
6
CONTINUOUS
62
7
66
1
10
0.0000
20
0.0000
70
0
40
0.1528
41
0.1528
0
VERTEX
8
OHNE_NAMEN
6
CONTINUOUS
62
7
10
59.4342
20
188.0282
0
VERTEX
8
OHNE_NAMEN
6
CONTINUOUS
62
7
10
59.6169
20
188.0224
0
SEQEND
8
OHNE_NAMEN
6
CONTINUOUS
62
7
0
POLYLINE
8
OHNE_NAMEN
6
CONTINUOUS
62
7
66
1
10
0.0000
20
0.0000
70
0
40
0.1528
41
0.1528
0
VERTEX
8
OHNE_NAMEN
6
CONTINUOUS
62
7
10
59.6169
20
188.0224
0
VERTEX
8
OHNE_NAMEN
6
CONTINUOUS
62
7
10
59.7587
20
188.0153
0
SEQEND
8
OHNE_NAMEN
6
CONTINUOUS
62
7
0
POLYLINE
8
OHNE_NAMEN
6
CONTINUOUS
62
7
66
1
10
0.0000
20
0.0000
70
0
40
0.1528
41
0.1528
0
VERTEX
8
OHNE_NAMEN
6
CONTINUOUS
62
7
10
59.7587
20
188.0153
0
VERTEX
8
OHNE_NAMEN
6
CONTINUOUS
62
7
10
59.8548
20
188.0097
0
SEQEND
8
OHNE_NAMEN
6
CONTINUOUS
62
7
0
POLYLINE
8
OHNE_NAMEN
6
CONTINUOUS
62
7
66
1
10
0.0000
20
0.0000
70
0
40
0.1528
41
0.1528
0
VERTEX
8
OHNE_NAMEN
6
CONTINUOUS
62
7
10
59.8548
20
188.0097
0
VERTEX
8
OHNE_NAMEN
6
CONTINUOUS
62
7
10
59.9510
20
188.0040
0
SEQEND
8
OHNE_NAMEN
6
CONTINUOUS
62
7
0
POLYLINE
8
OHNE_NAMEN
6
CONTINUOUS
62
7
66
1
10
0.0000
20
0.0000
70
0
40
0.1528
41
0.1528
0
VERTEX
8
OHNE_NAMEN
6
CONTINUOUS
62
7
10
59.9510
20
188.0040
0
VERTEX
8
OHNE_NAMEN
6
CONTINUOUS
62
7
10
60.0015
20
187.9999
0
SEQEND
8
OHNE_NAMEN
6
CONTINUOUS
62
7
0
POLYLINE
8
OHNE_NAMEN
6
CONTINUOUS
62
7
66
1
10
0.0000
20
0.0000
70
0
40
0.1528
41
0.1528
0
VERTEX
8
OHNE_NAMEN
6
CONTINUOUS
62
7
10
60.0015
20
187.9999
0
VERTEX
8
OHNE_NAMEN
6
CONTINUOUS
62
7
10
60.0015
20
187.9999
0
SEQEND
8
OHNE_NAMEN
6
CONTINUOUS
62
7
0
LINE
8
OHNE_NAMEN
6
CONTINUOUS
62
7
39
0.1528
10
59.0017
20
182.9999
11
58.5015
21
187.9999
0
LINE
8
OHNE_NAMEN
6
CONTINUOUS
62
7
39
0.1528
10
61.0016
20
182.9999
11
61.5015
21
187.9999
0
LINE
8
OHNE_NAMEN
6
CONTINUOUS
62
7
39
0.1528
10
74.0015
20
178.2498
11
77.0015
21
182.2499
0
LINE
8
OHNE_NAMEN
6
CONTINUOUS
62
7
39
0.1528
10
46.0255
20
178.1662
11
42.8152
21
182.1526
0
LINE
8
OHNE_NAMEN
6
CONTINUOUS
62
7
39
0.1528
10
68.4975
20
181.6940
11
70.5083
21
186.3859
0
LINE
8
OHNE_NAMEN
6
CONTINUOUS
62
7
39
0.1528
10
67.1922
20
182.1526
11
68.2505
21
187.0915
0
LINE
8
OHNE_NAMEN
6
CONTINUOUS
62
7
39
0.1528
10
76.1880
20
183.1404
11
73.1541
21
178.9423
0
LINE
8
OHNE_NAMEN
6
CONTINUOUS
62
7
39
0.1528
10
75.2002
20
183.9165
11
72.2016
21
179.6479
0
LINE
8
OHNE_NAMEN
6
CONTINUOUS
62
7
39
0.1528
10
74.0713
20
184.6926
11
71.3197
21
180.2829
0
LINE
8
OHNE_NAMEN
6
CONTINUOUS
62
7
39
0.1528
10
72.9072
20
185.3276
11
70.4024
21
180.8120
0
LINE
8
OHNE_NAMEN
6
CONTINUOUS
62
7
39
0.1528
10
71.7783
20
185.8567
11
69.4500
21
181.2706
0
LINE
8
OHNE_NAMEN
6
CONTINUOUS
62
7
39
0.1528
10
43.5913
20
183.0698
11
46.7663
21
178.8717
0
LINE
8
OHNE_NAMEN
6
CONTINUOUS
62
7
39
0.1528
10
44.5791
20
183.8459
11
47.6483
21
179.5773
0
LINE
8
OHNE_NAMEN
6
CONTINUOUS
62
7
39
0.1528
10
45.7080
20
184.6220
11
48.4950
21
180.1770
0
LINE
8
OHNE_NAMEN
6
CONTINUOUS
62
7
39
0.1528
10
46.8722
20
185.2570
11
49.3769
21
180.7415
0
LINE
8
OHNE_NAMEN
6
CONTINUOUS
62
7
39
0.1528
10
48.0011
20
185.7862
11
50.3294
21
181.2001
0
LINE
8
OHNE_NAMEN
6
CONTINUOUS
62
7
39
0.1528
10
51.2819
20
181.6234
11
49.2711
21
186.3153
0
LINE
8
OHNE_NAMEN
6
CONTINUOUS
62
7
39
0.1528
10
52.5872
20
182.0820
11
51.5288
21
187.0209
0
LINE
8
OHNE_NAMEN
6
CONTINUOUS
62
7
39
0.1528
10
52.5519
20
187.4089
11
53.5749
21
182.2937
0
LINE
8
OHNE_NAMEN
6
CONTINUOUS
62
7
39
0.1528
10
53.6808
20
187.6206
11
54.5274
21
182.5406
0
LINE
8
OHNE_NAMEN
6
CONTINUOUS
62
7
39
0.1528
10
54.9155
20
187.7617
11
55.6563
21
182.7170
0
LINE
8
OHNE_NAMEN
6
CONTINUOUS
62
7
39
0.1528
10
56.0797
20
187.9028
11
56.6794
21
182.8934
0
LINE
8
OHNE_NAMEN
6
CONTINUOUS
62
7
39
0.1528
10
57.3497
20
188.0087
11
57.8436
21
182.9992
0
LINE
8
OHNE_NAMEN
6
CONTINUOUS
62
7
39
0.1528
10
62.4649
20
188.0440
11
61.9711
21
183.0345
0
LINE
8
OHNE_NAMEN
6
CONTINUOUS
62
7
39
0.1528
10
63.7350
20
187.9381
11
63.1352
21
182.9287
0
LINE
8
OHNE_NAMEN
6
CONTINUOUS
62
7
39
0.1528
10
64.8991
20
187.7970
11
64.1583
21
182.7523
0
LINE
8
OHNE_NAMEN
6
CONTINUOUS
62
7
39
0.1528
10
66.1338
20
187.6559
11
65.2872
21
182.5759
0
LINE
8
OHNE_NAMEN
6
CONTINUOUS
62
7
39
0.1528
10
67.2627
20
187.4442
11
66.2397
21
182.3290
0
LINE
8
OHNE_NAMEN
6
CONTINUOUS
62
5
39
0.0000
10
17.9040
20
125.9995
11
43.0015
21
125.9995
0
LINE
8
OHNE_NAMEN
6
CONTINUOUS
62
5
39
0.0000
10
81.0017
20
125.9999
11
102.0015
21
125.9995
0
LINE
8
OHNE_NAMEN
6
CONTINUOUS
62
5
39
0.0000
10
81.0017
20
125.9995
11
81.0017
21
127.9998
0
LINE
8
OHNE_NAMEN
6
CONTINUOUS
62
5
39
0.0000
10
43.0015
20
125.9995
11
43.0015
21
127.9998
0
LINE
8
OHNE_NAMEN
6
CONTINUOUS
62
5
39
0.0000
10
81.0017
20
127.9998
11
43.0015
21
127.9998
0
LINE
8
OHNE_NAMEN
6
CONTINUOUS
62
5
39
0.0000
10
17.9040
20
199.9996
11
43.0015
21
199.9996
0
LINE
8
OHNE_NAMEN
6
CONTINUOUS
62
5
39
0.0000
10
81.0017
20
199.9996
11
102.0000
21
200.0000
0
LINE
8
OHNE_NAMEN
6
CONTINUOUS
62
5
39
0.0000
10
81.0017
20
199.9996
11
81.0017
21
197.9997
0
LINE
8
OHNE_NAMEN
6
CONTINUOUS
62
5
39
0.0000
10
43.0015
20
199.9996
11
43.0015
21
197.9997
0
LINE
8
OHNE_NAMEN
6
CONTINUOUS
62
5
39
0.0000
10
81.0017
20
197.9997
11
43.0015
21
197.9997
0
LINE
8
OHNE_NAMEN
6
CONTINUOUS
62
5
39
0.0000
10
102.0011
20
144.9998
11
102.0011
21
125.9995
0
LINE
8
OHNE_NAMEN
6
CONTINUOUS
62
5
39
0.0000
10
102.0011
20
180.9997
11
104.0010
21
180.9997
0
LINE
8
OHNE_NAMEN
6
CONTINUOUS
62
5
39
0.0000
10
104.0010
20
180.9997
11
103.9999
21
145.0001
0
LINE
8
OHNE_NAMEN
6
CONTINUOUS
62
5
39
0.0000
10
104.0010
20
144.9998
11
102.0011
21
144.9998
0
LINE
8
OHNE_NAMEN
6
CONTINUOUS
62
5
39
0.0000
10
102.0000
20
200.0000
11
104.0003
21
200.0003
0
LINE
8
OHNE_NAMEN
6
CONTINUOUS
62
5
39
0.0000
10
103.9999
20
200.0000
11
135.5002
21
232.0001
0
LINE
8
OHNE_NAMEN
6
CONTINUOUS
62
5
39
0.0000
10
167.0004
20
200.0000
11
135.5002
21
232.0001
0
LINE
8
OHNE_NAMEN
6
CONTINUOUS
62
5
39
0.0000
10
169.0003
20
200.0000
11
169.0003
21
181.0000
0
LINE
8
OHNE_NAMEN
6
CONTINUOUS
62
5
39
0.0000
10
169.0003
20
145.0001
11
169.0003
21
125.9999
0
LINE
8
OHNE_NAMEN
6
CONTINUOUS
62
5
39
0.0000
10
169.0003
20
181.0000
11
167.0004
21
181.0000
0
LINE
8
OHNE_NAMEN
6
CONTINUOUS
62
5
39
0.0000
10
167.0004
20
181.0000
11
167.0001
21
145.0001
0
LINE
8
OHNE_NAMEN
6
CONTINUOUS
62
5
39
0.0000
10
167.0004
20
145.0001
11
169.0003
21
145.0001
0
LINE
8
OHNE_NAMEN
6
CONTINUOUS
62
5
39
0.0000
10
167.0001
20
200.0000
11
169.0000
21
200.0000
0
LINE
8
OHNE_NAMEN
6
CONTINUOUS
62
1
39
0.0000
10
268.0000
20
111.5000
11
305.0000
21
111.5000
0
LINE
8
OHNE_NAMEN
6
CONTINUOUS
62
1
39
0.0000
10
304.9996
20
111.5000
11
304.9996
21
58.5001
0
LINE
8
OHNE_NAMEN
6
CONTINUOUS
62
1
39
0.0000
10
304.9996
20
58.5001
11
268.0000
21
58.5001
0
LINE
8
OHNE_NAMEN
6
CONTINUOUS
62
1
39
0.0000
10
268.0000
20
58.5001
11
268.0000
21
111.5000
0
LINE
8
OHNE_NAMEN
6
CONTINUOUS
62
5
39
0.0000
10
318.0006
20
126.0002
11
318.0002
21
104.0003
0
LINE
8
OHNE_NAMEN
6
CONTINUOUS
62
5
39
0.0000
10
318.0006
20
66.0001
11
318.0002
21
44.0002
0
LINE
8
OHNE_NAMEN
6
CONTINUOUS
62
5
39
0.0000
10
318.0002
20
66.0001
11
320.0005
21
66.0001
0
LINE
8
OHNE_NAMEN
6
CONTINUOUS
62
5
39
0.0000
10
318.0002
20
104.0003
11
320.0005
21
104.0003
0
LINE
8
OHNE_NAMEN
6
CONTINUOUS
62
5
39
0.0000
10
320.0005
20
66.0001
11
320.0005
21
104.0003
0
LINE
8
OHNE_NAMEN
6
CONTINUOUS
62
5
39
0.0000
10
255.0005
20
126.0006
11
255.0005
21
104.0007
0
LINE
8
OHNE_NAMEN
6
CONTINUOUS
62
5
39
0.0000
10
255.0005
20
66.0005
11
255.0005
21
44.0006
0
LINE
8
OHNE_NAMEN
6
CONTINUOUS
62
5
39
0.0000
10
255.0005
20
66.0005
11
253.0006
21
66.0005
0
LINE
8
OHNE_NAMEN
6
CONTINUOUS
62
5
39
0.0000
10
255.0005
20
104.0007
11
253.0006
21
104.0007
0
LINE
8
OHNE_NAMEN
6
CONTINUOUS
62
5
39
0.0000
10
253.0006
20
66.0005
11
252.9999
21
103.9999
0
LINE
8
OHNE_NAMEN
6
CONTINUOUS
62
5
39
0.0000
10
255.0001
20
43.9999
11
275.0002
21
43.9999
0
LINE
8
OHNE_NAMEN
6
CONTINUOUS
62
5
39
0.0000
10
275.0002
20
42.0000
11
275.0002
21
43.9999
0
LINE
8
OHNE_NAMEN
6
CONTINUOUS
62
5
39
0.0000
10
275.0002
20
42.0000
11
298.0002
21
42.0000
0
LINE
8
OHNE_NAMEN
6
CONTINUOUS
62
5
39
0.0000
10
298.0002
20
43.9999
11
298.0002
21
42.0000
0
LINE
8
OHNE_NAMEN
6
CONTINUOUS
62
5
39
0.0000
10
298.0002
20
43.9999
11
317.9999
21
43.9999
0
ENDSEC
0
EOF
