0
SECTION
2
HEADER
9
$ANGBASE
50
0.0
9
$ANGDIR
70
0
9
$AUNITS
70
0
9
$AUPREC
70
4
9
$ATTMODE
70
1
9
$EXTMIN
10
6.4770
20
12.5000
30
0.0000
9
$EXTMAX
10
456.9989
20
297.0234
30
0.0000
9
$ENDCAPS
280
1
9
$FILLMODE
70
1
9
$INSBASE
10
0.0000
20
0.0000
30
0.0000
9
$LIMMIN
10
0.0000
20
0.0000
9
$LIMMAX
10
456.9989
20
297.0234
9
$JOINSTYLE
280
1
9
$LUPREC
70
4
9
$MEASUREMENT
70
0
9
$SPLFRAME
70
1
0
ENDSEC
0
SECTION
2
TABLES
0
TABLE
2
LTYPE
70
1
0
LTYPE
2
CONTINUOUS
70
64
3
CONTINUOUS
72
65
73
0
40
0.0000
0
ENDTAB
0
TABLE
2
LAYER
70
1
0
LAYER
2
OHNE_NAMEN
70
64
62
5
6
CONTINUOUS
0
ENDTAB
0
ENDSEC
0
SECTION
2
BLOCKS
0
ENDSEC
0
SECTION
2
ENTITIES
0
LINE
8
OHNE_NAMEN
6
CONTINUOUS
62
5
39
0.0000
10
9.0001
20
88.0495
11
9.0001
21
121.0497
0
LINE
8
OHNE_NAMEN
6
CONTINUOUS
62
5
39
0.0000
10
9.0001
20
154.0496
11
9.0001
21
187.0495
0
LINE
8
OHNE_NAMEN
6
CONTINUOUS
62
5
39
0.0000
10
9.0000
20
121.0493
11
7.0000
21
121.0493
0
LINE
8
OHNE_NAMEN
6
CONTINUOUS
62
5
39
0.0000
10
7.0000
20
121.0493
11
7.0000
21
154.0496
0
LINE
8
OHNE_NAMEN
6
CONTINUOUS
62
5
39
0.0000
10
7.0000
20
154.0496
11
9.0000
21
154.0496
0
LINE
8
OHNE_NAMEN
6
CONTINUOUS
62
5
39
0.0000
10
257.0473
20
187.0470
11
177.0472
21
187.0470
0
LINE
8
OHNE_NAMEN
6
CONTINUOUS
62
5
39
0.0000
10
177.0472
20
189.0469
11
177.0472
21
187.0470
0
LINE
8
OHNE_NAMEN
6
CONTINUOUS
62
5
39
0.0000
10
89.0471
20
189.0469
11
177.0472
21
189.0469
0
LINE
8
OHNE_NAMEN
6
CONTINUOUS
62
5
39
0.0000
10
89.0471
20
189.0469
11
89.0471
21
187.0470
0
LINE
8
OHNE_NAMEN
6
CONTINUOUS
62
5
39
0.0000
10
89.0471
20
187.0470
11
9.0470
21
187.0470
0
LINE
8
OHNE_NAMEN
6
CONTINUOUS
62
5
39
0.0000
10
9.0470
20
88.0473
11
89.0471
21
88.0473
0
LINE
8
OHNE_NAMEN
6
CONTINUOUS
62
5
39
0.0000
10
89.0471
20
86.0471
11
89.0471
21
88.0473
0
LINE
8
OHNE_NAMEN
6
CONTINUOUS
62
5
39
0.0000
10
177.0472
20
86.0471
11
89.0471
21
86.0471
0
LINE
8
OHNE_NAMEN
6
CONTINUOUS
62
5
39
0.0000
10
177.0472
20
86.0471
11
177.0472
21
88.0473
0
LINE
8
OHNE_NAMEN
6
CONTINUOUS
62
5
39
0.0000
10
177.0472
20
88.0473
11
257.0473
21
88.0473
0
LINE
8
OHNE_NAMEN
6
CONTINUOUS
62
5
39
0.0000
10
257.0000
20
187.0498
11
257.0000
21
154.0499
0
LINE
8
OHNE_NAMEN
6
CONTINUOUS
62
5
39
0.0000
10
257.0000
20
121.0500
11
257.0000
21
88.0498
0
LINE
8
OHNE_NAMEN
6
CONTINUOUS
62
5
39
0.0000
10
257.0004
20
154.0499
11
259.0003
21
154.0499
0
LINE
8
OHNE_NAMEN
6
CONTINUOUS
62
5
39
0.0000
10
259.0003
20
154.0499
11
259.0003
21
121.0500
0
LINE
8
OHNE_NAMEN
6
CONTINUOUS
62
5
39
0.0000
10
259.0003
20
121.0500
11
257.0004
21
121.0500
0
LINE
8
OHNE_NAMEN
6
CONTINUOUS
62
5
39
0.0000
10
258.5244
20
229.0230
11
256.5245
21
229.0230
0
LINE
8
OHNE_NAMEN
6
CONTINUOUS
62
5
39
0.0000
10
258.5244
20
209.0229
11
258.5244
21
229.0230
0
LINE
8
OHNE_NAMEN
6
CONTINUOUS
62
5
39
0.0000
10
256.5245
20
262.0232
11
258.5244
21
262.0232
0
LINE
8
OHNE_NAMEN
6
CONTINUOUS
62
5
39
0.0000
10
258.5244
20
262.0232
11
258.5244
21
282.0232
0
LINE
8
OHNE_NAMEN
6
CONTINUOUS
62
5
39
0.0000
10
258.5244
20
209.0233
11
256.5245
21
209.0233
0
LINE
8
OHNE_NAMEN
6
CONTINUOUS
62
5
39
0.0000
10
258.5244
20
282.0232
11
256.5245
21
282.0232
0
LINE
8
OHNE_NAMEN
6
CONTINUOUS
62
5
39
0.0000
10
256.5245
20
196.0231
11
256.5245
21
209.0229
0
LINE
8
OHNE_NAMEN
6
CONTINUOUS
62
5
39
0.0000
10
256.5245
20
229.0230
11
256.5245
21
262.0232
0
LINE
8
OHNE_NAMEN
6
CONTINUOUS
62
5
39
0.0000
10
256.5245
20
282.0232
11
256.5245
21
295.0231
0
LINE
8
OHNE_NAMEN
6
CONTINUOUS
62
5
39
0.0000
10
8.4772
20
196.0259
11
8.4772
21
229.0262
0
LINE
8
OHNE_NAMEN
6
CONTINUOUS
62
5
39
0.0000
10
8.4772
20
262.0260
11
8.4772
21
295.0259
0
LINE
8
OHNE_NAMEN
6
CONTINUOUS
62
5
39
0.0000
10
8.4770
20
229.0258
11
6.4770
21
229.0258
0
LINE
8
OHNE_NAMEN
6
CONTINUOUS
62
5
39
0.0000
10
6.4770
20
229.0258
11
6.4770
21
262.0257
0
LINE
8
OHNE_NAMEN
6
CONTINUOUS
62
5
39
0.0000
10
6.4770
20
262.0257
11
8.4770
21
262.0257
0
LINE
8
OHNE_NAMEN
6
CONTINUOUS
62
5
39
0.0000
10
256.5241
20
295.0231
11
176.5240
21
295.0231
0
LINE
8
OHNE_NAMEN
6
CONTINUOUS
62
5
39
0.0000
10
176.5244
20
297.0234
11
176.5244
21
295.0235
0
LINE
8
OHNE_NAMEN
6
CONTINUOUS
62
5
39
0.0000
10
88.5243
20
297.0234
11
176.5244
21
297.0234
0
LINE
8
OHNE_NAMEN
6
CONTINUOUS
62
5
39
0.0000
10
88.5243
20
297.0234
11
88.5243
21
295.0235
0
LINE
8
OHNE_NAMEN
6
CONTINUOUS
62
5
39
0.0000
10
88.5243
20
295.0231
11
8.5240
21
295.0231
0
LINE
8
OHNE_NAMEN
6
CONTINUOUS
62
5
39
0.0000
10
8.5240
20
196.0238
11
88.5239
21
196.0238
0
LINE
8
OHNE_NAMEN
6
CONTINUOUS
62
5
39
0.0000
10
88.5239
20
194.0235
11
88.5239
21
196.0234
0
LINE
8
OHNE_NAMEN
6
CONTINUOUS
62
5
39
0.0000
10
176.5240
20
194.0235
11
88.5239
21
194.0235
0
LINE
8
OHNE_NAMEN
6
CONTINUOUS
62
5
39
0.0000
10
176.5240
20
194.0235
11
176.5240
21
196.0234
0
LINE
8
OHNE_NAMEN
6
CONTINUOUS
62
5
39
0.0000
10
176.5240
20
196.0238
11
256.5241
21
196.0238
0
LINE
8
OHNE_NAMEN
6
CONTINUOUS
62
1
39
0.0000
10
19.0472
20
97.5466
11
19.0472
21
177.5467
0
LINE
8
OHNE_NAMEN
6
CONTINUOUS
62
1
39
0.0000
10
19.0472
20
97.5466
11
247.0474
21
97.5159
0
LINE
8
OHNE_NAMEN
6
CONTINUOUS
62
1
39
0.0000
10
19.0472
20
177.5467
11
247.0474
21
177.5157
0
LINE
8
OHNE_NAMEN
6
CONTINUOUS
62
1
39
0.0000
10
247.0474
20
177.5467
11
247.0474
21
97.5466
0
LINE
8
OHNE_NAMEN
6
CONTINUOUS
62
1
39
0.0000
10
60.5000
20
229.0000
11
58.5001
21
229.0000
0
LINE
8
OHNE_NAMEN
6
CONTINUOUS
62
1
39
0.0000
10
60.5000
20
209.0000
11
60.5000
21
229.0000
0
LINE
8
OHNE_NAMEN
6
CONTINUOUS
62
1
39
0.0000
10
58.5001
20
261.9999
11
60.5000
21
261.9999
0
LINE
8
OHNE_NAMEN
6
CONTINUOUS
62
1
39
0.0000
10
60.5000
20
262.0003
11
60.5000
21
282.0000
0
LINE
8
OHNE_NAMEN
6
CONTINUOUS
62
1
39
0.0000
10
60.5000
20
209.0000
11
58.5001
21
209.0000
0
LINE
8
OHNE_NAMEN
6
CONTINUOUS
62
1
39
0.0000
10
60.5000
20
282.0000
11
58.5001
21
282.0000
0
LINE
8
OHNE_NAMEN
6
CONTINUOUS
62
1
39
0.0000
10
58.5001
20
261.9999
11
58.5001
21
282.0000
0
LINE
8
OHNE_NAMEN
6
CONTINUOUS
62
1
39
0.0000
10
58.5001
20
229.0000
11
58.5001
21
209.0000
0
LINE
8
OHNE_NAMEN
6
CONTINUOUS
62
1
39
0.0000
10
204.5007
20
261.9999
11
206.5006
21
261.9999
0
LINE
8
OHNE_NAMEN
6
CONTINUOUS
62
1
39
0.0000
10
204.5007
20
282.0000
11
204.5007
21
261.9999
0
LINE
8
OHNE_NAMEN
6
CONTINUOUS
62
1
39
0.0000
10
206.5006
20
229.0000
11
204.5007
21
229.0000
0
LINE
8
OHNE_NAMEN
6
CONTINUOUS
62
1
39
0.0000
10
204.5007
20
228.9997
11
204.5007
21
209.0000
0
LINE
8
OHNE_NAMEN
6
CONTINUOUS
62
1
39
0.0000
10
204.5007
20
282.0000
11
206.5006
21
282.0000
0
LINE
8
OHNE_NAMEN
6
CONTINUOUS
62
1
39
0.0000
10
204.5007
20
209.0000
11
206.5006
21
209.0000
0
LINE
8
OHNE_NAMEN
6
CONTINUOUS
62
1
39
0.0000
10
206.5006
20
228.9997
11
206.5006
21
208.9997
0
LINE
8
OHNE_NAMEN
6
CONTINUOUS
62
1
39
0.0000
10
206.5006
20
261.9999
11
206.5006
21
282.0000
0
LINE
8
OHNE_NAMEN
6
CONTINUOUS
62
1
39
0.0000
10
135.4998
20
229.0000
11
133.4999
21
229.0000
0
LINE
8
OHNE_NAMEN
6
CONTINUOUS
62
1
39
0.0000
10
135.4998
20
209.0000
11
135.4998
21
229.0000
0
LINE
8
OHNE_NAMEN
6
CONTINUOUS
62
1
39
0.0000
10
133.4999
20
261.9999
11
135.4998
21
261.9999
0
LINE
8
OHNE_NAMEN
6
CONTINUOUS
62
1
39
0.0000
10
135.4998
20
262.0003
11
135.4998
21
282.0000
0
LINE
8
OHNE_NAMEN
6
CONTINUOUS
62
1
39
0.0000
10
135.4998
20
209.0000
11
133.4999
21
209.0000
0
LINE
8
OHNE_NAMEN
6
CONTINUOUS
62
1
39
0.0000
10
135.4998
20
282.0000
11
133.4999
21
282.0000
0
LINE
8
OHNE_NAMEN
6
CONTINUOUS
62
1
39
0.0000
10
133.4999
20
282.0000
11
133.4999
21
261.9999
0
LINE
8
OHNE_NAMEN
6
CONTINUOUS
62
1
39
0.0000
10
133.4999
20
209.0000
11
133.4999
21
229.0000
0
LINE
8
OHNE_NAMEN
6
CONTINUOUS
62
5
39
0.0000
10
211.0006
20
175.4999
11
164.5010
21
109.9996
0
LINE
8
OHNE_NAMEN
6
CONTINUOUS
62
5
39
0.0000
10
162.5007
20
109.9996
11
116.0007
21
175.4999
0
LINE
8
OHNE_NAMEN
6
CONTINUOUS
62
5
39
0.0000
10
180.0006
20
177.4998
11
180.0006
21
175.4999
0
LINE
8
OHNE_NAMEN
6
CONTINUOUS
62
5
39
0.0000
10
147.0007
20
175.4999
11
147.0007
21
177.4998
0
LINE
8
OHNE_NAMEN
6
CONTINUOUS
62
5
39
0.0000
10
200.0007
20
177.4998
11
200.0007
21
175.4999
0
LINE
8
OHNE_NAMEN
6
CONTINUOUS
62
5
39
0.0000
10
127.0007
20
177.4998
11
127.0007
21
175.4999
0
LINE
8
OHNE_NAMEN
6
CONTINUOUS
62
5
39
0.0000
10
116.0004
20
175.4999
11
127.0007
21
175.4999
0
LINE
8
OHNE_NAMEN
6
CONTINUOUS
62
5
39
0.0000
10
147.0004
20
175.4999
11
180.0006
21
175.4999
0
LINE
8
OHNE_NAMEN
6
CONTINUOUS
62
5
39
0.0000
10
211.0006
20
175.4999
11
200.0007
21
175.4999
0
LINE
8
OHNE_NAMEN
6
CONTINUOUS
62
5
39
0.0000
10
164.5010
20
109.9996
11
164.5010
21
146.4998
0
LINE
8
OHNE_NAMEN
6
CONTINUOUS
62
5
39
0.0000
10
164.5010
20
146.4998
11
162.5007
21
146.4998
0
LINE
8
OHNE_NAMEN
6
CONTINUOUS
62
5
39
0.0000
10
162.5007
20
146.4998
11
162.5007
21
109.9996
0
LINE
8
OHNE_NAMEN
6
CONTINUOUS
62
5
39
0.0000
10
114.0008
20
175.4999
11
67.5009
21
109.9996
0
LINE
8
OHNE_NAMEN
6
CONTINUOUS
62
5
39
0.0000
10
65.5010
20
109.9996
11
19.0008
21
175.4999
0
LINE
8
OHNE_NAMEN
6
CONTINUOUS
62
5
39
0.0000
10
83.0008
20
177.4998
11
83.0008
21
175.4999
0
LINE
8
OHNE_NAMEN
6
CONTINUOUS
62
5
39
0.0000
10
50.0010
20
175.4999
11
50.0010
21
177.4998
0
LINE
8
OHNE_NAMEN
6
CONTINUOUS
62
5
39
0.0000
10
103.0009
20
177.4998
11
103.0009
21
175.4999
0
LINE
8
OHNE_NAMEN
6
CONTINUOUS
62
5
39
0.0000
10
30.0008
20
177.4998
11
30.0008
21
175.4999
0
LINE
8
OHNE_NAMEN
6
CONTINUOUS
62
5
39
0.0000
10
19.0005
20
175.4999
11
30.0006
21
175.4999
0
LINE
8
OHNE_NAMEN
6
CONTINUOUS
62
5
39
0.0000
10
50.0006
20
175.4999
11
83.0005
21
175.4999
0
LINE
8
OHNE_NAMEN
6
CONTINUOUS
62
5
39
0.0000
10
114.0005
20
175.4999
11
103.0005
21
175.4999
0
LINE
8
OHNE_NAMEN
6
CONTINUOUS
62
5
39
0.0000
10
67.5009
20
109.9996
11
67.5009
21
146.4998
0
LINE
8
OHNE_NAMEN
6
CONTINUOUS
62
5
39
0.0000
10
67.5009
20
146.4998
11
65.5010
21
146.4998
0
LINE
8
OHNE_NAMEN
6
CONTINUOUS
62
5
39
0.0000
10
65.5010
20
146.4998
11
65.5010
21
109.9996
0
LINE
8
OHNE_NAMEN
6
CONTINUOUS
62
5
39
0.0000
10
272.9999
20
81.5001
11
271.0000
21
81.5001
0
LINE
8
OHNE_NAMEN
6
CONTINUOUS
62
5
39
0.0000
10
272.9999
20
81.5001
11
272.9999
21
76.4999
0
LINE
8
OHNE_NAMEN
6
CONTINUOUS
62
5
39
0.0000
10
21.0000
20
81.5001
11
21.0000
21
76.5002
0
LINE
8
OHNE_NAMEN
6
CONTINUOUS
62
5
39
0.0000
10
63.0001
20
14.5000
11
23.0000
21
14.5000
0
LINE
8
OHNE_NAMEN
6
CONTINUOUS
62
5
39
0.0000
10
74.9999
20
43.5000
11
73.0000
21
43.5000
0
LINE
8
OHNE_NAMEN
6
CONTINUOUS
62
5
39
0.0000
10
74.9999
20
43.5000
11
74.9999
21
14.5000
0
LINE
8
OHNE_NAMEN
6
CONTINUOUS
62
5
39
0.0000
10
73.0000
20
43.5000
11
73.0000
21
12.5000
0
LINE
8
OHNE_NAMEN
6
CONTINUOUS
62
5
39
0.0000
10
148.0002
20
43.5000
11
148.0002
21
14.5000
0
LINE
8
OHNE_NAMEN
6
CONTINUOUS
62
5
39
0.0000
10
150.0000
20
43.5000
11
148.0002
21
43.5000
0
LINE
8
OHNE_NAMEN
6
CONTINUOUS
62
5
39
0.0000
10
150.0000
20
43.5000
11
150.0000
21
14.5000
0
LINE
8
OHNE_NAMEN
6
CONTINUOUS
62
5
39
0.0000
10
218.9999
20
43.5000
11
218.9999
21
14.5000
0
LINE
8
OHNE_NAMEN
6
CONTINUOUS
62
5
39
0.0000
10
221.0001
20
43.5000
11
218.9999
21
43.5000
0
LINE
8
OHNE_NAMEN
6
CONTINUOUS
62
5
39
0.0000
10
221.0001
20
43.5000
11
221.0001
21
12.5000
0
LINE
8
OHNE_NAMEN
6
CONTINUOUS
62
5
39
0.0000
10
21.0000
20
76.5002
11
23.0000
21
76.5002
0
LINE
8
OHNE_NAMEN
6
CONTINUOUS
62
5
39
0.0000
10
23.0000
20
76.5002
11
23.0000
21
14.5000
0
LINE
8
OHNE_NAMEN
6
CONTINUOUS
62
5
39
0.0000
10
272.9999
20
76.5002
11
230.9999
21
76.5002
0
LINE
8
OHNE_NAMEN
6
CONTINUOUS
62
5
39
0.0000
10
221.0001
20
12.5000
11
230.9999
21
12.5000
0
LINE
8
OHNE_NAMEN
6
CONTINUOUS
62
5
39
0.0000
10
230.9999
20
12.5000
11
230.9999
21
76.5002
0
LINE
8
OHNE_NAMEN
6
CONTINUOUS
62
5
39
0.0000
10
150.0000
20
14.5000
11
218.9999
21
14.5000
0
LINE
8
OHNE_NAMEN
6
CONTINUOUS
62
5
39
0.0000
10
74.9999
20
14.5000
11
148.0002
21
14.5000
0
LINE
8
OHNE_NAMEN
6
CONTINUOUS
62
5
39
0.0000
10
98.5005
20
108.0001
11
98.5005
21
110.0000
0
LINE
8
OHNE_NAMEN
6
CONTINUOUS
62
5
39
0.0000
10
78.5005
20
108.0001
11
98.5005
21
108.0001
0
LINE
8
OHNE_NAMEN
6
CONTINUOUS
62
5
39
0.0000
10
131.5004
20
110.0000
11
131.5004
21
108.0001
0
LINE
8
OHNE_NAMEN
6
CONTINUOUS
62
5
39
0.0000
10
131.5007
20
108.0001
11
151.5004
21
108.0001
0
LINE
8
OHNE_NAMEN
6
CONTINUOUS
62
5
39
0.0000
10
78.5005
20
108.0001
11
78.5005
21
110.0000
0
LINE
8
OHNE_NAMEN
6
CONTINUOUS
62
5
39
0.0000
10
151.5004
20
108.0001
11
151.5004
21
110.0000
0
LINE
8
OHNE_NAMEN
6
CONTINUOUS
62
5
39
0.0000
10
162.5007
20
110.0000
11
151.5008
21
110.0000
0
LINE
8
OHNE_NAMEN
6
CONTINUOUS
62
5
39
0.0000
10
131.5007
20
110.0000
11
98.5005
21
110.0000
0
LINE
8
OHNE_NAMEN
6
CONTINUOUS
62
5
39
0.0000
10
67.5005
20
110.0000
11
78.5005
21
110.0000
0
LINE
8
OHNE_NAMEN
6
CONTINUOUS
62
5
39
0.0000
10
114.0005
20
175.4999
11
114.0005
21
139.0001
0
LINE
8
OHNE_NAMEN
6
CONTINUOUS
62
5
39
0.0000
10
114.0005
20
139.0001
11
116.0004
21
139.0001
0
LINE
8
OHNE_NAMEN
6
CONTINUOUS
62
5
39
0.0000
10
116.0004
20
139.0001
11
116.0004
21
175.4999
0
LINE
8
OHNE_NAMEN
6
CONTINUOUS
62
1
39
0.0000
10
221.5007
20
219.5001
11
221.5007
21
217.5002
0
LINE
8
OHNE_NAMEN
6
CONTINUOUS
62
1
39
0.0000
10
221.5011
20
217.5002
11
241.5007
21
217.5002
0
LINE
8
OHNE_NAMEN
6
CONTINUOUS
62
1
39
0.0000
10
241.5007
20
217.5002
11
241.5007
21
219.5001
0
LINE
8
OHNE_NAMEN
6
CONTINUOUS
62
1
39
0.0000
10
221.5011
20
219.4997
11
241.5000
21
219.5001
0
LINE
8
OHNE_NAMEN
6
CONTINUOUS
62
1
39
0.0000
10
221.5007
20
272.5000
11
221.5007
21
270.5001
0
LINE
8
OHNE_NAMEN
6
CONTINUOUS
62
1
39
0.0000
10
221.5011
20
270.5001
11
241.5007
21
270.5001
0
LINE
8
OHNE_NAMEN
6
CONTINUOUS
62
1
39
0.0000
10
241.5007
20
270.5001
11
241.5007
21
272.5000
0
LINE
8
OHNE_NAMEN
6
CONTINUOUS
62
1
39
0.0000
10
221.5011
20
272.5000
11
241.5000
21
272.5000
0
LINE
8
OHNE_NAMEN
6
CONTINUOUS
62
1
39
0.0000
10
23.5002
20
220.0000
11
23.5002
21
218.0001
0
LINE
8
OHNE_NAMEN
6
CONTINUOUS
62
1
39
0.0000
10
43.5003
20
220.0000
11
23.5002
21
220.0000
0
LINE
8
OHNE_NAMEN
6
CONTINUOUS
62
1
39
0.0000
10
23.5001
20
218.0001
11
43.5000
21
218.0001
0
LINE
8
OHNE_NAMEN
6
CONTINUOUS
62
1
39
0.0000
10
43.5003
20
220.0000
11
43.5003
21
218.0001
0
LINE
8
OHNE_NAMEN
6
CONTINUOUS
62
1
39
0.0000
10
43.5003
20
272.9999
11
23.5002
21
272.9999
0
LINE
8
OHNE_NAMEN
6
CONTINUOUS
62
1
39
0.0000
10
23.5001
20
271.0000
11
43.5000
21
271.0000
0
LINE
8
OHNE_NAMEN
6
CONTINUOUS
62
1
39
0.0000
10
43.5003
20
272.9999
11
43.5003
21
271.0000
0
LINE
8
OHNE_NAMEN
6
CONTINUOUS
62
1
39
0.0000
10
23.5002
20
272.9999
11
23.5002
21
271.0000
0
LINE
8
OHNE_NAMEN
6
CONTINUOUS
62
1
39
0.0000
10
60.5003
20
24.0000
11
33.5004
21
24.0000
0
LINE
8
OHNE_NAMEN
6
CONTINUOUS
62
1
39
0.0000
10
33.5004
20
24.0000
11
33.5004
21
74.0001
0
LINE
8
OHNE_NAMEN
6
CONTINUOUS
62
1
39
0.0000
10
60.5003
20
74.0001
11
33.5004
21
74.0001
0
LINE
8
OHNE_NAMEN
6
CONTINUOUS
62
1
39
0.0000
10
60.5003
20
24.0000
11
60.5003
21
38.9999
0
LINE
8
OHNE_NAMEN
6
CONTINUOUS
62
1
39
0.0000
10
60.5003
20
38.9999
11
62.5002
21
38.9999
0
LINE
8
OHNE_NAMEN
6
CONTINUOUS
62
1
39
0.0000
10
62.5002
20
38.9999
11
62.5002
21
59.0000
0
LINE
8
OHNE_NAMEN
6
CONTINUOUS
62
1
39
0.0000
10
62.5002
20
59.0000
11
60.5003
21
59.0000
0
LINE
8
OHNE_NAMEN
6
CONTINUOUS
62
1
39
0.0000
10
60.5003
20
59.0000
11
60.5003
21
74.0001
0
LINE
8
OHNE_NAMEN
6
CONTINUOUS
62
1
39
0.0000
10
182.5015
20
24.5004
11
155.5013
21
24.5004
0
LINE
8
OHNE_NAMEN
6
CONTINUOUS
62
1
39
0.0000
10
155.5013
20
24.5004
11
155.5013
21
74.5003
0
LINE
8
OHNE_NAMEN
6
CONTINUOUS
62
1
39
0.0000
10
182.5015
20
74.5003
11
155.5013
21
74.5003
0
LINE
8
OHNE_NAMEN
6
CONTINUOUS
62
1
39
0.0000
10
182.5015
20
59.5006
11
182.5015
21
74.5003
0
LINE
8
OHNE_NAMEN
6
CONTINUOUS
62
1
39
0.0000
10
184.5014
20
59.5006
11
182.5015
21
59.5006
0
LINE
8
OHNE_NAMEN
6
CONTINUOUS
62
1
39
0.0000
10
184.5014
20
39.5005
11
184.5014
21
59.5006
0
LINE
8
OHNE_NAMEN
6
CONTINUOUS
62
1
39
0.0000
10
182.5015
20
39.5005
11
184.5014
21
39.5005
0
LINE
8
OHNE_NAMEN
6
CONTINUOUS
62
1
39
0.0000
10
182.5015
20
24.5004
11
182.5015
21
39.5005
0
LINE
8
OHNE_NAMEN
6
CONTINUOUS
62
1
39
0.0000
10
186.5012
20
24.4997
11
213.5015
21
24.4997
0
LINE
8
OHNE_NAMEN
6
CONTINUOUS
62
1
39
0.0000
10
213.5015
20
24.4997
11
213.5015
21
74.4996
0
LINE
8
OHNE_NAMEN
6
CONTINUOUS
62
1
39
0.0000
10
186.5012
20
74.4996
11
213.5015
21
74.4996
0
LINE
8
OHNE_NAMEN
6
CONTINUOUS
62
1
39
0.0000
10
186.5012
20
59.4999
11
186.5012
21
74.4996
0
LINE
8
OHNE_NAMEN
6
CONTINUOUS
62
1
39
0.0000
10
184.5014
20
59.4999
11
186.5012
21
59.4999
0
LINE
8
OHNE_NAMEN
6
CONTINUOUS
62
1
39
0.0000
10
186.5012
20
39.4998
11
184.5014
21
39.4998
0
LINE
8
OHNE_NAMEN
6
CONTINUOUS
62
1
39
0.0000
10
186.5012
20
24.4997
11
186.5012
21
39.4998
0
LINE
8
OHNE_NAMEN
6
CONTINUOUS
62
1
39
0.0000
10
108.5014
20
24.0004
11
81.5015
21
24.0004
0
LINE
8
OHNE_NAMEN
6
CONTINUOUS
62
1
39
0.0000
10
81.5015
20
24.0004
11
81.5015
21
74.0004
0
LINE
8
OHNE_NAMEN
6
CONTINUOUS
62
1
39
0.0000
10
108.5014
20
74.0004
11
81.5015
21
74.0004
0
LINE
8
OHNE_NAMEN
6
CONTINUOUS
62
1
39
0.0000
10
108.5014
20
59.0003
11
108.5014
21
74.0004
0
LINE
8
OHNE_NAMEN
6
CONTINUOUS
62
1
39
0.0000
10
110.5013
20
59.0003
11
108.5014
21
59.0003
0
LINE
8
OHNE_NAMEN
6
CONTINUOUS
62
1
39
0.0000
10
110.5013
20
39.0003
11
110.5013
21
59.0003
0
LINE
8
OHNE_NAMEN
6
CONTINUOUS
62
1
39
0.0000
10
108.5014
20
39.0003
11
110.5013
21
39.0003
0
LINE
8
OHNE_NAMEN
6
CONTINUOUS
62
1
39
0.0000
10
108.5014
20
24.0004
11
108.5014
21
39.0003
0
LINE
8
OHNE_NAMEN
6
CONTINUOUS
62
1
39
0.0000
10
112.5015
20
23.9997
11
139.5014
21
23.9997
0
LINE
8
OHNE_NAMEN
6
CONTINUOUS
62
1
39
0.0000
10
139.5014
20
23.9997
11
139.5014
21
73.9997
0
LINE
8
OHNE_NAMEN
6
CONTINUOUS
62
1
39
0.0000
10
112.5015
20
73.9997
11
139.5014
21
73.9997
0
LINE
8
OHNE_NAMEN
6
CONTINUOUS
62
1
39
0.0000
10
112.5015
20
58.9996
11
112.5015
21
73.9997
0
LINE
8
OHNE_NAMEN
6
CONTINUOUS
62
1
39
0.0000
10
110.5013
20
58.9996
11
112.5015
21
58.9996
0
LINE
8
OHNE_NAMEN
6
CONTINUOUS
62
1
39
0.0000
10
112.5015
20
38.9996
11
110.5013
21
38.9996
0
LINE
8
OHNE_NAMEN
6
CONTINUOUS
62
1
39
0.0000
10
112.5015
20
23.9997
11
112.5015
21
38.9996
0
LINE
8
OHNE_NAMEN
6
CONTINUOUS
62
1
39
0.0000
10
206.4999
20
246.4999
11
206.4999
21
244.5000
0
LINE
8
OHNE_NAMEN
6
CONTINUOUS
62
1
39
0.0000
10
206.4999
20
244.5000
11
216.5001
21
244.5000
0
LINE
8
OHNE_NAMEN
6
CONTINUOUS
62
1
39
0.0000
10
216.5001
20
244.5000
11
216.5001
21
246.4999
0
LINE
8
OHNE_NAMEN
6
CONTINUOUS
62
1
39
0.0000
10
216.5001
20
246.4999
11
206.4999
21
246.4999
0
LINE
8
OHNE_NAMEN
6
CONTINUOUS
62
1
39
0.0000
10
48.4999
20
246.4999
11
48.4999
21
244.5000
0
LINE
8
OHNE_NAMEN
6
CONTINUOUS
62
1
39
0.0000
10
48.4999
20
244.5000
11
58.5001
21
244.5000
0
LINE
8
OHNE_NAMEN
6
CONTINUOUS
62
1
39
0.0000
10
58.5001
20
244.5000
11
58.5001
21
246.4999
0
LINE
8
OHNE_NAMEN
6
CONTINUOUS
62
1
39
0.0000
10
58.5001
20
246.4999
11
48.4999
21
246.4999
0
LINE
8
OHNE_NAMEN
6
CONTINUOUS
62
5
39
0.0000
10
63.0001
20
14.5000
11
63.0001
21
12.5000
0
LINE
8
OHNE_NAMEN
6
CONTINUOUS
62
5
39
0.0000
10
63.0001
20
12.5000
11
73.0000
21
12.5000
0
LINE
8
OHNE_NAMEN
6
CONTINUOUS
62
5
39
0.1528
10
21.0000
20
81.5001
11
24.9793
21
81.4962
0
LINE
8
OHNE_NAMEN
6
CONTINUOUS
62
5
39
0.1528
10
26.9793
20
81.4966
11
30.9794
21
81.4966
0
LINE
8
OHNE_NAMEN
6
CONTINUOUS
62
5
39
0.1528
10
32.9793
20
81.4966
11
36.9796
21
81.4966
0
LINE
8
OHNE_NAMEN
6
CONTINUOUS
62
5
39
0.1528
10
38.9795
20
81.4966
11
42.9796
21
81.4966
0
LINE
8
OHNE_NAMEN
6
CONTINUOUS
62
5
39
0.1528
10
44.9795
20
81.4966
11
48.9797
21
81.4966
0
LINE
8
OHNE_NAMEN
6
CONTINUOUS
62
5
39
0.1528
10
50.9796
20
81.4966
11
54.9797
21
81.4966
0
LINE
8
OHNE_NAMEN
6
CONTINUOUS
62
5
39
0.1528
10
56.9796
20
81.4966
11
60.9798
21
81.4966
0
LINE
8
OHNE_NAMEN
6
CONTINUOUS
62
5
39
0.1528
10
62.9796
20
81.4966
11
66.9798
21
81.4966
0
LINE
8
OHNE_NAMEN
6
CONTINUOUS
62
5
39
0.1528
10
68.9797
20
81.4966
11
72.9798
21
81.4966
0
LINE
8
OHNE_NAMEN
6
CONTINUOUS
62
5
39
0.1528
10
74.9794
20
81.4966
11
78.9795
21
81.4966
0
LINE
8
OHNE_NAMEN
6
CONTINUOUS
62
5
39
0.1528
10
80.9794
20
81.4966
11
84.9796
21
81.4966
0
LINE
8
OHNE_NAMEN
6
CONTINUOUS
62
5
39
0.1528
10
86.9795
20
81.4966
11
90.9796
21
81.4966
0
LINE
8
OHNE_NAMEN
6
CONTINUOUS
62
5
39
0.1528
10
92.9795
20
81.4966
11
96.9797
21
81.4966
0
LINE
8
OHNE_NAMEN
6
CONTINUOUS
62
5
39
0.1528
10
98.9796
20
81.4966
11
102.9797
21
81.4966
0
LINE
8
OHNE_NAMEN
6
CONTINUOUS
62
5
39
0.1528
10
104.9796
20
81.4966
11
108.9798
21
81.4966
0
LINE
8
OHNE_NAMEN
6
CONTINUOUS
62
5
39
0.1528
10
110.9797
20
81.4966
11
114.9798
21
81.4966
0
LINE
8
OHNE_NAMEN
6
CONTINUOUS
62
5
39
0.1528
10
116.9797
20
81.4966
11
120.9798
21
81.4966
0
LINE
8
OHNE_NAMEN
6
CONTINUOUS
62
5
39
0.1528
10
122.9794
20
81.4966
11
126.9795
21
81.4966
0
LINE
8
OHNE_NAMEN
6
CONTINUOUS
62
5
39
0.1528
10
128.9791
20
81.4966
11
132.9792
21
81.4966
0
LINE
8
OHNE_NAMEN
6
CONTINUOUS
62
5
39
0.1528
10
134.9791
20
81.4966
11
138.9793
21
81.4966
0
LINE
8
OHNE_NAMEN
6
CONTINUOUS
62
5
39
0.1528
10
140.9792
20
81.4966
11
144.9793
21
81.4966
0
LINE
8
OHNE_NAMEN
6
CONTINUOUS
62
5
39
0.1528
10
146.9792
20
81.4966
11
150.9794
21
81.4966
0
LINE
8
OHNE_NAMEN
6
CONTINUOUS
62
5
39
0.1528
10
152.9793
20
81.4966
11
156.9794
21
81.4966
0
LINE
8
OHNE_NAMEN
6
CONTINUOUS
62
5
39
0.1528
10
158.9793
20
81.4966
11
162.9795
21
81.4966
0
LINE
8
OHNE_NAMEN
6
CONTINUOUS
62
5
39
0.1528
10
164.9793
20
81.4966
11
168.9795
21
81.4966
0
LINE
8
OHNE_NAMEN
6
CONTINUOUS
62
5
39
0.1528
10
170.9794
20
81.4966
11
174.9795
21
81.4966
0
LINE
8
OHNE_NAMEN
6
CONTINUOUS
62
5
39
0.1528
10
176.9791
20
81.4966
11
180.9792
21
81.4966
0
LINE
8
OHNE_NAMEN
6
CONTINUOUS
62
5
39
0.1528
10
182.9791
20
81.4966
11
186.9793
21
81.4966
0
LINE
8
OHNE_NAMEN
6
CONTINUOUS
62
5
39
0.1528
10
188.9792
20
81.4966
11
192.9793
21
81.4966
0
LINE
8
OHNE_NAMEN
6
CONTINUOUS
62
5
39
0.1528
10
194.9792
20
81.4966
11
198.9794
21
81.4966
0
LINE
8
OHNE_NAMEN
6
CONTINUOUS
62
5
39
0.1528
10
200.9793
20
81.4966
11
204.9794
21
81.4966
0
LINE
8
OHNE_NAMEN
6
CONTINUOUS
62
5
39
0.1528
10
206.9793
20
81.4966
11
210.9795
21
81.4966
0
LINE
8
OHNE_NAMEN
6
CONTINUOUS
62
5
39
0.1528
10
212.9794
20
81.4966
11
216.9795
21
81.4966
0
LINE
8
OHNE_NAMEN
6
CONTINUOUS
62
5
39
0.1528
10
218.9794
20
81.4966
11
222.9795
21
81.4966
0
LINE
8
OHNE_NAMEN
6
CONTINUOUS
62
5
39
0.1528
10
224.9791
20
81.4966
11
228.9792
21
81.4966
0
LINE
8
OHNE_NAMEN
6
CONTINUOUS
62
5
39
0.1528
10
230.9791
20
81.4966
11
234.9793
21
81.4966
0
LINE
8
OHNE_NAMEN
6
CONTINUOUS
62
5
39
0.1528
10
236.9792
20
81.4966
11
240.9793
21
81.4966
0
LINE
8
OHNE_NAMEN
6
CONTINUOUS
62
5
39
0.1528
10
242.9792
20
81.4966
11
246.9794
21
81.4966
0
LINE
8
OHNE_NAMEN
6
CONTINUOUS
62
5
39
0.1528
10
248.9793
20
81.4966
11
252.9794
21
81.4966
0
LINE
8
OHNE_NAMEN
6
CONTINUOUS
62
5
39
0.1528
10
254.9793
20
81.4966
11
258.9794
21
81.4966
0
LINE
8
OHNE_NAMEN
6
CONTINUOUS
62
5
39
0.1528
10
260.9794
20
81.4966
11
264.9795
21
81.4966
0
LINE
8
OHNE_NAMEN
6
CONTINUOUS
62
5
39
0.1528
10
266.9794
20
81.4966
11
268.9793
21
81.4966
0
LINE
8
OHNE_NAMEN
6
CONTINUOUS
62
5
39
0.0000
10
25.0000
20
81.5001
11
25.0000
21
79.4999
0
LINE
8
OHNE_NAMEN
6
CONTINUOUS
62
5
39
0.0000
10
25.0000
20
79.4999
11
27.0000
21
79.4999
0
LINE
8
OHNE_NAMEN
6
CONTINUOUS
62
5
39
0.0000
10
27.0000
20
79.4999
11
27.0000
21
81.5001
0
LINE
8
OHNE_NAMEN
6
CONTINUOUS
62
5
39
0.0000
10
31.0000
20
81.5001
11
31.0000
21
79.4999
0
LINE
8
OHNE_NAMEN
6
CONTINUOUS
62
5
39
0.0000
10
31.0000
20
79.4999
11
33.0000
21
79.4999
0
LINE
8
OHNE_NAMEN
6
CONTINUOUS
62
5
39
0.0000
10
33.0000
20
79.4999
11
33.0000
21
81.5001
0
LINE
8
OHNE_NAMEN
6
CONTINUOUS
62
5
39
0.0000
10
37.0000
20
81.5001
11
37.0000
21
79.4999
0
LINE
8
OHNE_NAMEN
6
CONTINUOUS
62
5
39
0.0000
10
37.0000
20
79.4999
11
38.9999
21
79.4999
0
LINE
8
OHNE_NAMEN
6
CONTINUOUS
62
5
39
0.0000
10
38.9999
20
79.4999
11
38.9999
21
81.5001
0
LINE
8
OHNE_NAMEN
6
CONTINUOUS
62
5
39
0.0000
10
43.0001
20
81.5001
11
43.0001
21
79.4999
0
LINE
8
OHNE_NAMEN
6
CONTINUOUS
62
5
39
0.0000
10
43.0001
20
79.4999
11
45.0000
21
79.4999
0
LINE
8
OHNE_NAMEN
6
CONTINUOUS
62
5
39
0.0000
10
45.0000
20
79.4999
11
45.0000
21
81.5001
0
LINE
8
OHNE_NAMEN
6
CONTINUOUS
62
5
39
0.0000
10
49.0001
20
81.5001
11
49.0001
21
79.4999
0
LINE
8
OHNE_NAMEN
6
CONTINUOUS
62
5
39
0.0000
10
49.0001
20
79.4999
11
51.0000
21
79.4999
0
LINE
8
OHNE_NAMEN
6
CONTINUOUS
62
5
39
0.0000
10
51.0000
20
79.4999
11
51.0000
21
81.5001
0
LINE
8
OHNE_NAMEN
6
CONTINUOUS
62
5
39
0.0000
10
55.0002
20
81.5001
11
55.0002
21
79.4999
0
LINE
8
OHNE_NAMEN
6
CONTINUOUS
62
5
39
0.0000
10
55.0002
20
79.4999
11
57.0001
21
79.4999
0
LINE
8
OHNE_NAMEN
6
CONTINUOUS
62
5
39
0.0000
10
57.0001
20
79.4999
11
57.0001
21
81.5001
0
LINE
8
OHNE_NAMEN
6
CONTINUOUS
62
5
39
0.0000
10
60.9999
20
81.5001
11
60.9999
21
79.4999
0
LINE
8
OHNE_NAMEN
6
CONTINUOUS
62
5
39
0.0000
10
60.9999
20
79.4999
11
63.0001
21
79.4999
0
LINE
8
OHNE_NAMEN
6
CONTINUOUS
62
5
39
0.0000
10
63.0001
20
79.4999
11
63.0001
21
81.5001
0
LINE
8
OHNE_NAMEN
6
CONTINUOUS
62
5
39
0.0000
10
66.9999
20
81.5001
11
66.9999
21
79.4999
0
LINE
8
OHNE_NAMEN
6
CONTINUOUS
62
5
39
0.0000
10
66.9999
20
79.4999
11
69.0002
21
79.4999
0
LINE
8
OHNE_NAMEN
6
CONTINUOUS
62
5
39
0.0000
10
69.0002
20
79.4999
11
69.0002
21
81.5001
0
LINE
8
OHNE_NAMEN
6
CONTINUOUS
62
5
39
0.0000
10
73.0000
20
81.5001
11
73.0000
21
79.4999
0
LINE
8
OHNE_NAMEN
6
CONTINUOUS
62
5
39
0.0000
10
73.0000
20
79.4999
11
74.9999
21
79.4999
0
LINE
8
OHNE_NAMEN
6
CONTINUOUS
62
5
39
0.0000
10
74.9999
20
79.4999
11
74.9999
21
81.5001
0
LINE
8
OHNE_NAMEN
6
CONTINUOUS
62
5
39
0.0000
10
79.0000
20
81.5001
11
79.0000
21
79.4999
0
LINE
8
OHNE_NAMEN
6
CONTINUOUS
62
5
39
0.0000
10
79.0000
20
79.4999
11
80.9999
21
79.4999
0
LINE
8
OHNE_NAMEN
6
CONTINUOUS
62
5
39
0.0000
10
80.9999
20
79.4999
11
80.9999
21
81.5001
0
LINE
8
OHNE_NAMEN
6
CONTINUOUS
62
5
39
0.0000
10
85.0000
20
81.5001
11
85.0000
21
79.4999
0
LINE
8
OHNE_NAMEN
6
CONTINUOUS
62
5
39
0.0000
10
85.0000
20
79.4999
11
86.9999
21
79.4999
0
LINE
8
OHNE_NAMEN
6
CONTINUOUS
62
5
39
0.0000
10
86.9999
20
79.4999
11
86.9999
21
81.5001
0
LINE
8
OHNE_NAMEN
6
CONTINUOUS
62
5
39
0.0000
10
91.0001
20
81.4998
11
91.0001
21
79.4999
0
LINE
8
OHNE_NAMEN
6
CONTINUOUS
62
5
39
0.0000
10
91.0001
20
79.4999
11
93.0000
21
79.4999
0
LINE
8
OHNE_NAMEN
6
CONTINUOUS
62
5
39
0.0000
10
93.0000
20
79.4999
11
93.0000
21
81.4998
0
LINE
8
OHNE_NAMEN
6
CONTINUOUS
62
5
39
0.0000
10
97.0001
20
81.4998
11
97.0001
21
79.4999
0
LINE
8
OHNE_NAMEN
6
CONTINUOUS
62
5
39
0.0000
10
97.0001
20
79.4999
11
99.0000
21
79.4999
0
LINE
8
OHNE_NAMEN
6
CONTINUOUS
62
5
39
0.0000
10
99.0000
20
79.4999
11
99.0000
21
81.4998
0
LINE
8
OHNE_NAMEN
6
CONTINUOUS
62
5
39
0.0000
10
103.0002
20
81.4998
11
103.0002
21
79.4999
0
LINE
8
OHNE_NAMEN
6
CONTINUOUS
62
5
39
0.0000
10
103.0002
20
79.4999
11
105.0001
21
79.4999
0
LINE
8
OHNE_NAMEN
6
CONTINUOUS
62
5
39
0.0000
10
105.0001
20
79.4999
11
105.0001
21
81.4998
0
LINE
8
OHNE_NAMEN
6
CONTINUOUS
62
5
39
0.0000
10
108.9999
20
81.4998
11
108.9999
21
79.4999
0
LINE
8
OHNE_NAMEN
6
CONTINUOUS
62
5
39
0.0000
10
108.9999
20
79.4999
11
111.0001
21
79.4999
0
LINE
8
OHNE_NAMEN
6
CONTINUOUS
62
5
39
0.0000
10
111.0001
20
79.4999
11
111.0001
21
81.4998
0
LINE
8
OHNE_NAMEN
6
CONTINUOUS
62
5
39
0.0000
10
114.9999
20
81.4998
11
114.9999
21
79.4999
0
LINE
8
OHNE_NAMEN
6
CONTINUOUS
62
5
39
0.0000
10
114.9999
20
79.4999
11
117.0002
21
79.4999
0
LINE
8
OHNE_NAMEN
6
CONTINUOUS
62
5
39
0.0000
10
117.0002
20
79.4999
11
117.0002
21
81.4998
0
LINE
8
OHNE_NAMEN
6
CONTINUOUS
62
5
39
0.0000
10
121.0000
20
81.4998
11
121.0000
21
79.4999
0
LINE
8
OHNE_NAMEN
6
CONTINUOUS
62
5
39
0.0000
10
121.0000
20
79.4999
11
122.9999
21
79.4999
0
LINE
8
OHNE_NAMEN
6
CONTINUOUS
62
5
39
0.0000
10
122.9999
20
79.4999
11
122.9999
21
81.4998
0
LINE
8
OHNE_NAMEN
6
CONTINUOUS
62
5
39
0.0000
10
127.0000
20
81.4998
11
127.0000
21
79.4999
0
LINE
8
OHNE_NAMEN
6
CONTINUOUS
62
5
39
0.0000
10
127.0000
20
79.4999
11
128.9999
21
79.4999
0
LINE
8
OHNE_NAMEN
6
CONTINUOUS
62
5
39
0.0000
10
128.9999
20
79.4999
11
128.9999
21
81.4998
0
LINE
8
OHNE_NAMEN
6
CONTINUOUS
62
5
39
0.0000
10
133.0000
20
81.4998
11
133.0000
21
79.4999
0
LINE
8
OHNE_NAMEN
6
CONTINUOUS
62
5
39
0.0000
10
133.0000
20
79.4999
11
134.9999
21
79.4999
0
LINE
8
OHNE_NAMEN
6
CONTINUOUS
62
5
39
0.0000
10
134.9999
20
79.4999
11
134.9999
21
81.4998
0
LINE
8
OHNE_NAMEN
6
CONTINUOUS
62
5
39
0.0000
10
139.0001
20
81.4998
11
139.0001
21
79.4999
0
LINE
8
OHNE_NAMEN
6
CONTINUOUS
62
5
39
0.0000
10
139.0001
20
79.4999
11
141.0000
21
79.4999
0
LINE
8
OHNE_NAMEN
6
CONTINUOUS
62
5
39
0.0000
10
141.0000
20
79.4999
11
141.0000
21
81.4998
0
LINE
8
OHNE_NAMEN
6
CONTINUOUS
62
5
39
0.0000
10
145.0001
20
81.4998
11
145.0001
21
79.4999
0
LINE
8
OHNE_NAMEN
6
CONTINUOUS
62
5
39
0.0000
10
145.0001
20
79.4999
11
147.0000
21
79.4999
0
LINE
8
OHNE_NAMEN
6
CONTINUOUS
62
5
39
0.0000
10
147.0000
20
79.4999
11
147.0000
21
81.4998
0
LINE
8
OHNE_NAMEN
6
CONTINUOUS
62
5
39
0.0000
10
151.0002
20
81.4998
11
151.0002
21
79.4999
0
LINE
8
OHNE_NAMEN
6
CONTINUOUS
62
5
39
0.0000
10
151.0002
20
79.4999
11
153.0001
21
79.4999
0
LINE
8
OHNE_NAMEN
6
CONTINUOUS
62
5
39
0.0000
10
153.0001
20
79.4999
11
153.0001
21
81.4998
0
LINE
8
OHNE_NAMEN
6
CONTINUOUS
62
5
39
0.0000
10
156.9999
20
81.4998
11
156.9999
21
79.4999
0
LINE
8
OHNE_NAMEN
6
CONTINUOUS
62
5
39
0.0000
10
156.9999
20
79.4999
11
159.0001
21
79.4999
0
LINE
8
OHNE_NAMEN
6
CONTINUOUS
62
5
39
0.0000
10
159.0001
20
79.4999
11
159.0001
21
81.4998
0
LINE
8
OHNE_NAMEN
6
CONTINUOUS
62
5
39
0.0000
10
162.9999
20
81.4998
11
162.9999
21
79.4999
0
LINE
8
OHNE_NAMEN
6
CONTINUOUS
62
5
39
0.0000
10
162.9999
20
79.4999
11
165.0002
21
79.4999
0
LINE
8
OHNE_NAMEN
6
CONTINUOUS
62
5
39
0.0000
10
165.0002
20
79.4999
11
165.0002
21
81.4998
0
LINE
8
OHNE_NAMEN
6
CONTINUOUS
62
5
39
0.0000
10
169.0000
20
81.4998
11
169.0000
21
79.4999
0
LINE
8
OHNE_NAMEN
6
CONTINUOUS
62
5
39
0.0000
10
169.0000
20
79.4999
11
170.9999
21
79.4999
0
LINE
8
OHNE_NAMEN
6
CONTINUOUS
62
5
39
0.0000
10
170.9999
20
79.4999
11
170.9999
21
81.4998
0
LINE
8
OHNE_NAMEN
6
CONTINUOUS
62
5
39
0.0000
10
175.0000
20
81.4998
11
175.0000
21
79.4999
0
LINE
8
OHNE_NAMEN
6
CONTINUOUS
62
5
39
0.0000
10
175.0000
20
79.4999
11
176.9999
21
79.4999
0
LINE
8
OHNE_NAMEN
6
CONTINUOUS
62
5
39
0.0000
10
176.9999
20
79.4999
11
176.9999
21
81.4998
0
LINE
8
OHNE_NAMEN
6
CONTINUOUS
62
5
39
0.0000
10
181.0000
20
81.4998
11
181.0000
21
79.4999
0
LINE
8
OHNE_NAMEN
6
CONTINUOUS
62
5
39
0.0000
10
181.0000
20
79.4999
11
182.9999
21
79.4999
0
LINE
8
OHNE_NAMEN
6
CONTINUOUS
62
5
39
0.0000
10
182.9999
20
79.4999
11
182.9999
21
81.4998
0
LINE
8
OHNE_NAMEN
6
CONTINUOUS
62
5
39
0.0000
10
187.0001
20
81.4998
11
187.0001
21
79.4999
0
LINE
8
OHNE_NAMEN
6
CONTINUOUS
62
5
39
0.0000
10
187.0001
20
79.4999
11
189.0000
21
79.4999
0
LINE
8
OHNE_NAMEN
6
CONTINUOUS
62
5
39
0.0000
10
189.0000
20
79.4999
11
189.0000
21
81.4998
0
LINE
8
OHNE_NAMEN
6
CONTINUOUS
62
5
39
0.0000
10
193.0001
20
81.4998
11
193.0001
21
79.4999
0
LINE
8
OHNE_NAMEN
6
CONTINUOUS
62
5
39
0.0000
10
193.0001
20
79.4999
11
195.0000
21
79.4999
0
LINE
8
OHNE_NAMEN
6
CONTINUOUS
62
5
39
0.0000
10
195.0000
20
79.4999
11
195.0000
21
81.4998
0
LINE
8
OHNE_NAMEN
6
CONTINUOUS
62
5
39
0.0000
10
199.0002
20
81.4998
11
199.0002
21
79.4999
0
LINE
8
OHNE_NAMEN
6
CONTINUOUS
62
5
39
0.0000
10
199.0002
20
79.4999
11
201.0001
21
79.4999
0
LINE
8
OHNE_NAMEN
6
CONTINUOUS
62
5
39
0.0000
10
201.0001
20
79.4999
11
201.0001
21
81.4998
0
LINE
8
OHNE_NAMEN
6
CONTINUOUS
62
5
39
0.0000
10
204.9999
20
81.4998
11
204.9999
21
79.4999
0
LINE
8
OHNE_NAMEN
6
CONTINUOUS
62
5
39
0.0000
10
204.9999
20
79.4999
11
207.0001
21
79.4999
0
LINE
8
OHNE_NAMEN
6
CONTINUOUS
62
5
39
0.0000
10
207.0001
20
79.4999
11
207.0001
21
81.4998
0
LINE
8
OHNE_NAMEN
6
CONTINUOUS
62
5
39
0.0000
10
210.9999
20
81.4998
11
210.9999
21
79.4999
0
LINE
8
OHNE_NAMEN
6
CONTINUOUS
62
5
39
0.0000
10
210.9999
20
79.4999
11
213.0002
21
79.4999
0
LINE
8
OHNE_NAMEN
6
CONTINUOUS
62
5
39
0.0000
10
213.0002
20
79.4999
11
213.0002
21
81.4998
0
LINE
8
OHNE_NAMEN
6
CONTINUOUS
62
5
39
0.0000
10
216.9999
20
81.4998
11
216.9999
21
79.4999
0
LINE
8
OHNE_NAMEN
6
CONTINUOUS
62
5
39
0.0000
10
216.9999
20
79.4999
11
218.9999
21
79.4999
0
LINE
8
OHNE_NAMEN
6
CONTINUOUS
62
5
39
0.0000
10
218.9999
20
79.4999
11
218.9999
21
81.4998
0
LINE
8
OHNE_NAMEN
6
CONTINUOUS
62
5
39
0.0000
10
223.0000
20
81.4998
11
223.0000
21
79.4999
0
LINE
8
OHNE_NAMEN
6
CONTINUOUS
62
5
39
0.0000
10
223.0000
20
79.4999
11
224.9999
21
79.4999
0
LINE
8
OHNE_NAMEN
6
CONTINUOUS
62
5
39
0.0000
10
224.9999
20
79.4999
11
224.9999
21
81.4998
0
LINE
8
OHNE_NAMEN
6
CONTINUOUS
62
5
39
0.0000
10
229.0000
20
81.4998
11
229.0000
21
79.4999
0
LINE
8
OHNE_NAMEN
6
CONTINUOUS
62
5
39
0.0000
10
229.0000
20
79.4999
11
230.9999
21
79.4999
0
LINE
8
OHNE_NAMEN
6
CONTINUOUS
62
5
39
0.0000
10
230.9999
20
79.4999
11
230.9999
21
81.4998
0
LINE
8
OHNE_NAMEN
6
CONTINUOUS
62
5
39
0.0000
10
235.0001
20
81.4998
11
235.0001
21
79.4999
0
LINE
8
OHNE_NAMEN
6
CONTINUOUS
62
5
39
0.0000
10
235.0001
20
79.4999
11
237.0000
21
79.4999
0
LINE
8
OHNE_NAMEN
6
CONTINUOUS
62
5
39
0.0000
10
237.0000
20
79.4999
11
237.0000
21
81.4998
0
LINE
8
OHNE_NAMEN
6
CONTINUOUS
62
5
39
0.0000
10
241.0001
20
81.4998
11
241.0001
21
79.4999
0
LINE
8
OHNE_NAMEN
6
CONTINUOUS
62
5
39
0.0000
10
241.0001
20
79.4999
11
243.0000
21
79.4999
0
LINE
8
OHNE_NAMEN
6
CONTINUOUS
62
5
39
0.0000
10
243.0000
20
79.4999
11
243.0000
21
81.4998
0
LINE
8
OHNE_NAMEN
6
CONTINUOUS
62
5
39
0.0000
10
247.0002
20
81.4998
11
247.0002
21
79.4999
0
LINE
8
OHNE_NAMEN
6
CONTINUOUS
62
5
39
0.0000
10
247.0002
20
79.4999
11
249.0001
21
79.4999
0
LINE
8
OHNE_NAMEN
6
CONTINUOUS
62
5
39
0.0000
10
249.0001
20
79.4999
11
249.0001
21
81.4998
0
LINE
8
OHNE_NAMEN
6
CONTINUOUS
62
5
39
0.0000
10
252.9999
20
81.4998
11
252.9999
21
79.4999
0
LINE
8
OHNE_NAMEN
6
CONTINUOUS
62
5
39
0.0000
10
252.9999
20
79.4999
11
255.0001
21
79.4999
0
LINE
8
OHNE_NAMEN
6
CONTINUOUS
62
5
39
0.0000
10
255.0001
20
79.4999
11
255.0001
21
81.4998
0
LINE
8
OHNE_NAMEN
6
CONTINUOUS
62
5
39
0.0000
10
258.9999
20
81.4998
11
258.9999
21
79.4999
0
LINE
8
OHNE_NAMEN
6
CONTINUOUS
62
5
39
0.0000
10
258.9999
20
79.4999
11
261.0002
21
79.4999
0
LINE
8
OHNE_NAMEN
6
CONTINUOUS
62
5
39
0.0000
10
261.0002
20
79.4999
11
261.0002
21
81.4998
0
LINE
8
OHNE_NAMEN
6
CONTINUOUS
62
5
39
0.0000
10
265.0000
20
81.4998
11
265.0000
21
79.4999
0
LINE
8
OHNE_NAMEN
6
CONTINUOUS
62
5
39
0.0000
10
265.0000
20
79.4999
11
266.9998
21
79.4999
0
LINE
8
OHNE_NAMEN
6
CONTINUOUS
62
5
39
0.0000
10
266.9998
20
79.4999
11
266.9998
21
81.4998
0
LINE
8
OHNE_NAMEN
6
CONTINUOUS
62
5
39
0.0000
10
269.0001
20
81.4998
11
269.0001
21
79.4999
0
LINE
8
OHNE_NAMEN
6
CONTINUOUS
62
5
39
0.0000
10
269.0001
20
79.4999
11
271.0000
21
79.4999
0
LINE
8
OHNE_NAMEN
6
CONTINUOUS
62
5
39
0.0000
10
271.0000
20
79.4999
11
271.0000
21
81.4998
0
LINE
8
OHNE_NAMEN
6
CONTINUOUS
62
5
39
0.0000
10
312.5001
20
296.5002
11
265.0010
21
229.4996
0
LINE
8
OHNE_NAMEN
6
CONTINUOUS
62
5
39
0.0000
10
359.9991
20
229.4996
11
312.5001
21
296.5002
0
LINE
8
OHNE_NAMEN
6
CONTINUOUS
62
5
39
0.0000
10
311.5003
20
291.0004
11
309.9999
21
291.0001
0
LINE
8
OHNE_NAMEN
6
CONTINUOUS
62
5
39
0.0000
10
266.5000
20
229.4999
11
309.9999
21
291.0001
0
LINE
8
OHNE_NAMEN
6
CONTINUOUS
62
5
39
0.0000
10
311.5003
20
294.0004
11
311.5003
21
291.0004
0
LINE
8
OHNE_NAMEN
6
CONTINUOUS
62
5
39
0.0000
10
311.5003
20
294.0004
11
313.5002
21
294.0004
0
LINE
8
OHNE_NAMEN
6
CONTINUOUS
62
5
39
0.0000
10
313.5002
20
294.0004
11
313.5002
21
291.0004
0
LINE
8
OHNE_NAMEN
6
CONTINUOUS
62
5
39
0.0000
10
313.5002
20
291.0004
11
314.9999
21
291.0001
0
LINE
8
OHNE_NAMEN
6
CONTINUOUS
62
5
39
0.0000
10
314.9999
20
291.0001
11
358.4998
21
229.4999
0
LINE
8
OHNE_NAMEN
6
CONTINUOUS
62
5
39
0.0000
10
265.0000
20
229.4999
11
266.5000
21
229.4999
0
LINE
8
OHNE_NAMEN
6
CONTINUOUS
62
5
39
0.0000
10
359.9991
20
229.4999
11
358.4998
21
229.4999
0
LINE
8
OHNE_NAMEN
6
CONTINUOUS
62
5
39
0.0000
10
312.5001
20
292.0002
11
265.0010
21
224.9996
0
LINE
8
OHNE_NAMEN
6
CONTINUOUS
62
5
39
0.0000
10
359.9991
20
224.9996
11
312.5001
21
292.0002
0
LINE
8
OHNE_NAMEN
6
CONTINUOUS
62
5
39
0.0000
10
311.5003
20
286.5004
11
309.9999
21
286.5000
0
LINE
8
OHNE_NAMEN
6
CONTINUOUS
62
5
39
0.0000
10
266.5000
20
224.9999
11
309.9999
21
286.5000
0
LINE
8
OHNE_NAMEN
6
CONTINUOUS
62
5
39
0.0000
10
311.5003
20
289.5004
11
311.5003
21
286.5004
0
LINE
8
OHNE_NAMEN
6
CONTINUOUS
62
5
39
0.0000
10
311.5003
20
289.5004
11
313.5002
21
289.5004
0
LINE
8
OHNE_NAMEN
6
CONTINUOUS
62
5
39
0.0000
10
313.5002
20
289.5004
11
313.5002
21
286.5004
0
LINE
8
OHNE_NAMEN
6
CONTINUOUS
62
5
39
0.0000
10
313.5002
20
286.5004
11
314.9999
21
286.5000
0
LINE
8
OHNE_NAMEN
6
CONTINUOUS
62
5
39
0.0000
10
314.9999
20
286.5000
11
358.4998
21
224.9999
0
LINE
8
OHNE_NAMEN
6
CONTINUOUS
62
5
39
0.0000
10
265.0000
20
224.9999
11
266.5000
21
224.9999
0
LINE
8
OHNE_NAMEN
6
CONTINUOUS
62
5
39
0.0000
10
359.9991
20
224.9999
11
358.4998
21
224.9999
0
LINE
8
OHNE_NAMEN
6
CONTINUOUS
62
5
39
0.0000
10
312.5001
20
287.5001
11
265.0007
21
220.4999
0
LINE
8
OHNE_NAMEN
6
CONTINUOUS
62
5
39
0.0000
10
359.9991
20
220.4999
11
312.5001
21
287.5001
0
LINE
8
OHNE_NAMEN
6
CONTINUOUS
62
5
39
0.0000
10
311.5003
20
282.0003
11
309.9999
21
282.0000
0
LINE
8
OHNE_NAMEN
6
CONTINUOUS
62
5
39
0.0000
10
266.5000
20
220.5002
11
309.9999
21
282.0000
0
LINE
8
OHNE_NAMEN
6
CONTINUOUS
62
5
39
0.0000
10
311.5003
20
285.0004
11
311.5003
21
282.0003
0
LINE
8
OHNE_NAMEN
6
CONTINUOUS
62
5
39
0.0000
10
311.5003
20
285.0004
11
313.5002
21
285.0004
0
LINE
8
OHNE_NAMEN
6
CONTINUOUS
62
5
39
0.0000
10
313.5002
20
285.0004
11
313.5002
21
282.0003
0
LINE
8
OHNE_NAMEN
6
CONTINUOUS
62
5
39
0.0000
10
313.5002
20
282.0003
11
314.9999
21
282.0000
0
LINE
8
OHNE_NAMEN
6
CONTINUOUS
62
5
39
0.0000
10
314.9999
20
282.0000
11
358.4998
21
220.5002
0
LINE
8
OHNE_NAMEN
6
CONTINUOUS
62
5
39
0.0000
10
265.0000
20
220.5002
11
266.5000
21
220.5002
0
LINE
8
OHNE_NAMEN
6
CONTINUOUS
62
5
39
0.0000
10
359.9991
20
220.5002
11
358.4998
21
220.5002
0
LINE
8
OHNE_NAMEN
6
CONTINUOUS
62
5
39
0.0000
10
312.5001
20
283.0001
11
265.0007
21
215.9998
0
LINE
8
OHNE_NAMEN
6
CONTINUOUS
62
5
39
0.0000
10
359.9991
20
215.9998
11
312.5001
21
283.0001
0
LINE
8
OHNE_NAMEN
6
CONTINUOUS
62
5
39
0.0000
10
311.5003
20
277.5003
11
309.9999
21
277.4999
0
LINE
8
OHNE_NAMEN
6
CONTINUOUS
62
5
39
0.0000
10
266.5000
20
216.0002
11
309.9999
21
277.4999
0
LINE
8
OHNE_NAMEN
6
CONTINUOUS
62
5
39
0.0000
10
311.5003
20
280.5003
11
311.5003
21
277.5003
0
LINE
8
OHNE_NAMEN
6
CONTINUOUS
62
5
39
0.0000
10
311.5003
20
280.5003
11
313.5002
21
280.5003
0
LINE
8
OHNE_NAMEN
6
CONTINUOUS
62
5
39
0.0000
10
313.5002
20
280.5003
11
313.5002
21
277.5003
0
LINE
8
OHNE_NAMEN
6
CONTINUOUS
62
5
39
0.0000
10
313.5002
20
277.5003
11
314.9999
21
277.4999
0
LINE
8
OHNE_NAMEN
6
CONTINUOUS
62
5
39
0.0000
10
314.9999
20
277.4999
11
358.4998
21
216.0002
0
LINE
8
OHNE_NAMEN
6
CONTINUOUS
62
5
39
0.0000
10
265.0000
20
216.0002
11
266.5000
21
216.0002
0
LINE
8
OHNE_NAMEN
6
CONTINUOUS
62
5
39
0.0000
10
359.9991
20
216.0002
11
358.4998
21
216.0002
0
LINE
8
OHNE_NAMEN
6
CONTINUOUS
62
5
39
0.0000
10
312.5001
20
278.5001
11
265.0007
21
211.4998
0
LINE
8
OHNE_NAMEN
6
CONTINUOUS
62
5
39
0.0000
10
359.9991
20
211.4998
11
312.5001
21
278.5001
0
LINE
8
OHNE_NAMEN
6
CONTINUOUS
62
5
39
0.0000
10
311.5003
20
273.0002
11
309.9999
21
273.0002
0
LINE
8
OHNE_NAMEN
6
CONTINUOUS
62
5
39
0.0000
10
266.5000
20
211.5002
11
309.9999
21
273.0002
0
LINE
8
OHNE_NAMEN
6
CONTINUOUS
62
5
39
0.0000
10
311.5003
20
276.0003
11
311.5003
21
273.0002
0
LINE
8
OHNE_NAMEN
6
CONTINUOUS
62
5
39
0.0000
10
311.5003
20
276.0003
11
313.5002
21
276.0003
0
LINE
8
OHNE_NAMEN
6
CONTINUOUS
62
5
39
0.0000
10
313.5002
20
276.0003
11
313.5002
21
273.0002
0
LINE
8
OHNE_NAMEN
6
CONTINUOUS
62
5
39
0.0000
10
313.5002
20
273.0002
11
314.9999
21
273.0002
0
LINE
8
OHNE_NAMEN
6
CONTINUOUS
62
5
39
0.0000
10
314.9999
20
273.0002
11
358.4998
21
211.5002
0
LINE
8
OHNE_NAMEN
6
CONTINUOUS
62
5
39
0.0000
10
265.0000
20
211.5002
11
266.5000
21
211.5002
0
LINE
8
OHNE_NAMEN
6
CONTINUOUS
62
5
39
0.0000
10
359.9991
20
211.5002
11
358.4998
21
211.5002
0
LINE
8
OHNE_NAMEN
6
CONTINUOUS
62
5
39
0.0000
10
312.5001
20
274.0000
11
265.0007
21
206.9998
0
LINE
8
OHNE_NAMEN
6
CONTINUOUS
62
5
39
0.0000
10
359.9991
20
206.9998
11
312.5001
21
274.0000
0
LINE
8
OHNE_NAMEN
6
CONTINUOUS
62
5
39
0.0000
10
311.5003
20
268.5002
11
309.9999
21
268.5002
0
LINE
8
OHNE_NAMEN
6
CONTINUOUS
62
5
39
0.0000
10
266.5000
20
207.0001
11
309.9999
21
268.5002
0
LINE
8
OHNE_NAMEN
6
CONTINUOUS
62
5
39
0.0000
10
311.5003
20
271.5002
11
311.5003
21
268.5002
0
LINE
8
OHNE_NAMEN
6
CONTINUOUS
62
5
39
0.0000
10
311.5003
20
271.5002
11
313.5002
21
271.5002
0
LINE
8
OHNE_NAMEN
6
CONTINUOUS
62
5
39
0.0000
10
313.5002
20
271.5002
11
313.5002
21
268.5002
0
LINE
8
OHNE_NAMEN
6
CONTINUOUS
62
5
39
0.0000
10
313.5002
20
268.5002
11
314.9999
21
268.5002
0
LINE
8
OHNE_NAMEN
6
CONTINUOUS
62
5
39
0.0000
10
314.9999
20
268.5002
11
358.4998
21
207.0001
0
LINE
8
OHNE_NAMEN
6
CONTINUOUS
62
5
39
0.0000
10
265.0000
20
207.0001
11
266.5000
21
207.0001
0
LINE
8
OHNE_NAMEN
6
CONTINUOUS
62
5
39
0.0000
10
359.9991
20
207.0001
11
358.4998
21
207.0001
0
LINE
8
OHNE_NAMEN
6
CONTINUOUS
62
5
39
0.0000
10
312.4997
20
269.5000
11
265.0007
21
202.4997
0
LINE
8
OHNE_NAMEN
6
CONTINUOUS
62
5
39
0.0000
10
359.9991
20
202.4997
11
312.4997
21
269.5000
0
LINE
8
OHNE_NAMEN
6
CONTINUOUS
62
5
39
0.0000
10
311.5003
20
264.0005
11
309.9999
21
264.0002
0
LINE
8
OHNE_NAMEN
6
CONTINUOUS
62
5
39
0.0000
10
266.5000
20
202.5001
11
309.9999
21
264.0002
0
LINE
8
OHNE_NAMEN
6
CONTINUOUS
62
5
39
0.0000
10
311.5003
20
267.0006
11
311.5003
21
264.0005
0
LINE
8
OHNE_NAMEN
6
CONTINUOUS
62
5
39
0.0000
10
311.5003
20
267.0006
11
313.4999
21
267.0006
0
LINE
8
OHNE_NAMEN
6
CONTINUOUS
62
5
39
0.0000
10
313.4999
20
267.0006
11
313.4999
21
264.0005
0
LINE
8
OHNE_NAMEN
6
CONTINUOUS
62
5
39
0.0000
10
313.4999
20
264.0005
11
314.9999
21
264.0002
0
LINE
8
OHNE_NAMEN
6
CONTINUOUS
62
5
39
0.0000
10
314.9999
20
264.0002
11
358.4998
21
202.5001
0
LINE
8
OHNE_NAMEN
6
CONTINUOUS
62
5
39
0.0000
10
265.0000
20
202.5001
11
266.5000
21
202.5001
0
LINE
8
OHNE_NAMEN
6
CONTINUOUS
62
5
39
0.0000
10
359.9991
20
202.5001
11
358.4998
21
202.5001
0
LINE
8
OHNE_NAMEN
6
CONTINUOUS
62
5
39
0.0000
10
312.4997
20
265.0003
11
265.0007
21
197.9997
0
LINE
8
OHNE_NAMEN
6
CONTINUOUS
62
5
39
0.0000
10
359.9991
20
197.9997
11
312.4997
21
265.0003
0
LINE
8
OHNE_NAMEN
6
CONTINUOUS
62
5
39
0.0000
10
311.4999
20
259.5005
11
309.9999
21
259.5002
0
LINE
8
OHNE_NAMEN
6
CONTINUOUS
62
5
39
0.0000
10
266.5000
20
198.0001
11
309.9999
21
259.5002
0
LINE
8
OHNE_NAMEN
6
CONTINUOUS
62
5
39
0.0000
10
311.4999
20
262.5005
11
311.4999
21
259.5005
0
LINE
8
OHNE_NAMEN
6
CONTINUOUS
62
5
39
0.0000
10
311.4999
20
262.5005
11
313.4999
21
262.5005
0
LINE
8
OHNE_NAMEN
6
CONTINUOUS
62
5
39
0.0000
10
313.4999
20
262.5005
11
313.4999
21
259.5005
0
LINE
8
OHNE_NAMEN
6
CONTINUOUS
62
5
39
0.0000
10
313.4999
20
259.5005
11
314.9999
21
259.5002
0
LINE
8
OHNE_NAMEN
6
CONTINUOUS
62
5
39
0.0000
10
314.9999
20
259.5002
11
358.4998
21
198.0001
0
LINE
8
OHNE_NAMEN
6
CONTINUOUS
62
5
39
0.0000
10
265.0000
20
198.0001
11
266.5000
21
198.0001
0
LINE
8
OHNE_NAMEN
6
CONTINUOUS
62
5
39
0.0000
10
359.9991
20
198.0001
11
358.4998
21
198.0001
0
LINE
8
OHNE_NAMEN
6
CONTINUOUS
62
5
39
0.0000
10
312.4997
20
260.5003
11
265.0007
21
193.4997
0
LINE
8
OHNE_NAMEN
6
CONTINUOUS
62
5
39
0.0000
10
359.9991
20
193.4997
11
312.4997
21
260.5003
0
LINE
8
OHNE_NAMEN
6
CONTINUOUS
62
5
39
0.0000
10
311.4999
20
255.0005
11
309.9999
21
255.0001
0
LINE
8
OHNE_NAMEN
6
CONTINUOUS
62
5
39
0.0000
10
266.5000
20
193.5000
11
309.9999
21
255.0001
0
LINE
8
OHNE_NAMEN
6
CONTINUOUS
62
5
39
0.0000
10
311.4999
20
258.0005
11
311.4999
21
255.0005
0
LINE
8
OHNE_NAMEN
6
CONTINUOUS
62
5
39
0.0000
10
311.4999
20
258.0005
11
313.4999
21
258.0005
0
LINE
8
OHNE_NAMEN
6
CONTINUOUS
62
5
39
0.0000
10
313.4999
20
258.0005
11
313.4999
21
255.0005
0
LINE
8
OHNE_NAMEN
6
CONTINUOUS
62
5
39
0.0000
10
313.4999
20
255.0005
11
314.9999
21
255.0001
0
LINE
8
OHNE_NAMEN
6
CONTINUOUS
62
5
39
0.0000
10
314.9999
20
255.0001
11
358.4998
21
193.5000
0
LINE
8
OHNE_NAMEN
6
CONTINUOUS
62
5
39
0.0000
10
265.0000
20
193.5000
11
266.5000
21
193.5000
0
LINE
8
OHNE_NAMEN
6
CONTINUOUS
62
5
39
0.0000
10
359.9991
20
193.5000
11
358.4998
21
193.5000
0
LINE
8
OHNE_NAMEN
6
CONTINUOUS
62
5
39
0.0000
10
312.4997
20
256.0002
11
265.0007
21
188.9996
0
LINE
8
OHNE_NAMEN
6
CONTINUOUS
62
5
39
0.0000
10
359.9991
20
188.9996
11
312.4997
21
256.0002
0
LINE
8
OHNE_NAMEN
6
CONTINUOUS
62
5
39
0.0000
10
311.4999
20
250.5004
11
309.9999
21
250.5001
0
LINE
8
OHNE_NAMEN
6
CONTINUOUS
62
5
39
0.0000
10
266.5000
20
189.0004
11
309.9999
21
250.5001
0
LINE
8
OHNE_NAMEN
6
CONTINUOUS
62
5
39
0.0000
10
311.4999
20
253.5005
11
311.4999
21
250.5004
0
LINE
8
OHNE_NAMEN
6
CONTINUOUS
62
5
39
0.0000
10
311.4999
20
253.5005
11
313.4999
21
253.5005
0
LINE
8
OHNE_NAMEN
6
CONTINUOUS
62
5
39
0.0000
10
313.4999
20
253.5005
11
313.4999
21
250.5004
0
LINE
8
OHNE_NAMEN
6
CONTINUOUS
62
5
39
0.0000
10
313.4999
20
250.5004
11
314.9999
21
250.5001
0
LINE
8
OHNE_NAMEN
6
CONTINUOUS
62
5
39
0.0000
10
314.9999
20
250.5001
11
358.4998
21
189.0004
0
LINE
8
OHNE_NAMEN
6
CONTINUOUS
62
5
39
0.0000
10
265.0000
20
189.0004
11
266.5000
21
189.0004
0
LINE
8
OHNE_NAMEN
6
CONTINUOUS
62
5
39
0.0000
10
359.9991
20
189.0004
11
358.4998
21
189.0004
0
LINE
8
OHNE_NAMEN
6
CONTINUOUS
62
5
39
0.0000
10
312.4997
20
251.5002
11
265.0007
21
184.5000
0
LINE
8
OHNE_NAMEN
6
CONTINUOUS
62
5
39
0.0000
10
359.9991
20
184.5000
11
312.4997
21
251.5002
0
LINE
8
OHNE_NAMEN
6
CONTINUOUS
62
5
39
0.0000
10
311.4999
20
246.0004
11
309.9999
21
246.0001
0
LINE
8
OHNE_NAMEN
6
CONTINUOUS
62
5
39
0.0000
10
266.5000
20
184.5003
11
309.9999
21
246.0001
0
LINE
8
OHNE_NAMEN
6
CONTINUOUS
62
5
39
0.0000
10
311.4999
20
249.0004
11
311.4999
21
246.0004
0
LINE
8
OHNE_NAMEN
6
CONTINUOUS
62
5
39
0.0000
10
311.4999
20
249.0004
11
313.4999
21
249.0004
0
LINE
8
OHNE_NAMEN
6
CONTINUOUS
62
5
39
0.0000
10
313.4999
20
249.0004
11
313.4999
21
246.0004
0
LINE
8
OHNE_NAMEN
6
CONTINUOUS
62
5
39
0.0000
10
313.4999
20
246.0004
11
314.9999
21
246.0001
0
LINE
8
OHNE_NAMEN
6
CONTINUOUS
62
5
39
0.0000
10
314.9999
20
246.0001
11
358.4998
21
184.5003
0
LINE
8
OHNE_NAMEN
6
CONTINUOUS
62
5
39
0.0000
10
265.0000
20
184.5003
11
266.5000
21
184.5003
0
LINE
8
OHNE_NAMEN
6
CONTINUOUS
62
5
39
0.0000
10
359.9991
20
184.5003
11
358.4998
21
184.5003
0
LINE
8
OHNE_NAMEN
6
CONTINUOUS
62
5
39
0.0000
10
312.4997
20
247.0002
11
265.0007
21
179.9999
0
LINE
8
OHNE_NAMEN
6
CONTINUOUS
62
5
39
0.0000
10
359.9991
20
179.9999
11
312.4997
21
247.0002
0
LINE
8
OHNE_NAMEN
6
CONTINUOUS
62
5
39
0.0000
10
311.4999
20
241.5004
11
309.9999
21
241.5004
0
LINE
8
OHNE_NAMEN
6
CONTINUOUS
62
5
39
0.0000
10
266.4996
20
180.0003
11
309.9999
21
241.5004
0
LINE
8
OHNE_NAMEN
6
CONTINUOUS
62
5
39
0.0000
10
311.4999
20
244.5004
11
311.4999
21
241.5004
0
LINE
8
OHNE_NAMEN
6
CONTINUOUS
62
5
39
0.0000
10
311.4999
20
244.5004
11
313.4999
21
244.5004
0
LINE
8
OHNE_NAMEN
6
CONTINUOUS
62
5
39
0.0000
10
313.4999
20
244.5004
11
313.4999
21
241.5004
0
LINE
8
OHNE_NAMEN
6
CONTINUOUS
62
5
39
0.0000
10
313.4999
20
241.5004
11
314.9999
21
241.5004
0
LINE
8
OHNE_NAMEN
6
CONTINUOUS
62
5
39
0.0000
10
314.9999
20
241.5004
11
358.4998
21
180.0003
0
LINE
8
OHNE_NAMEN
6
CONTINUOUS
62
5
39
0.0000
10
265.0000
20
180.0003
11
266.4996
21
180.0003
0
LINE
8
OHNE_NAMEN
6
CONTINUOUS
62
5
39
0.0000
10
359.9991
20
180.0003
11
358.4998
21
180.0003
0
LINE
8
OHNE_NAMEN
6
CONTINUOUS
62
5
39
0.0000
10
312.4997
20
242.5001
11
265.0007
21
175.4999
0
LINE
8
OHNE_NAMEN
6
CONTINUOUS
62
5
39
0.0000
10
359.9991
20
175.4999
11
312.4997
21
242.5001
0
LINE
8
OHNE_NAMEN
6
CONTINUOUS
62
5
39
0.0000
10
311.4999
20
237.0004
11
309.9999
21
237.0004
0
LINE
8
OHNE_NAMEN
6
CONTINUOUS
62
5
39
0.0000
10
266.4996
20
175.5002
11
309.9999
21
237.0004
0
LINE
8
OHNE_NAMEN
6
CONTINUOUS
62
5
39
0.0000
10
311.4999
20
240.0004
11
311.4999
21
237.0004
0
LINE
8
OHNE_NAMEN
6
CONTINUOUS
62
5
39
0.0000
10
311.4999
20
240.0004
11
313.4999
21
240.0004
0
LINE
8
OHNE_NAMEN
6
CONTINUOUS
62
5
39
0.0000
10
313.4999
20
240.0004
11
313.4999
21
237.0004
0
LINE
8
OHNE_NAMEN
6
CONTINUOUS
62
5
39
0.0000
10
313.4999
20
237.0004
11
314.9999
21
237.0004
0
LINE
8
OHNE_NAMEN
6
CONTINUOUS
62
5
39
0.0000
10
314.9999
20
237.0004
11
358.4998
21
175.5002
0
LINE
8
OHNE_NAMEN
6
CONTINUOUS
62
5
39
0.0000
10
264.9996
20
175.5002
11
266.4996
21
175.5002
0
LINE
8
OHNE_NAMEN
6
CONTINUOUS
62
5
39
0.0000
10
359.9991
20
175.5002
11
358.4998
21
175.5002
0
LINE
8
OHNE_NAMEN
6
CONTINUOUS
62
5
39
0.0000
10
312.4997
20
238.0001
11
265.0007
21
170.9999
0
LINE
8
OHNE_NAMEN
6
CONTINUOUS
62
5
39
0.0000
10
359.9991
20
170.9999
11
312.4997
21
238.0001
0
LINE
8
OHNE_NAMEN
6
CONTINUOUS
62
5
39
0.0000
10
311.4999
20
232.5007
11
309.9996
21
232.5003
0
LINE
8
OHNE_NAMEN
6
CONTINUOUS
62
5
39
0.0000
10
266.4996
20
171.0002
11
309.9996
21
232.5003
0
LINE
8
OHNE_NAMEN
6
CONTINUOUS
62
5
39
0.0000
10
311.4999
20
235.5007
11
311.4999
21
232.5007
0
LINE
8
OHNE_NAMEN
6
CONTINUOUS
62
5
39
0.0000
10
311.4999
20
235.5007
11
313.4999
21
235.5007
0
LINE
8
OHNE_NAMEN
6
CONTINUOUS
62
5
39
0.0000
10
313.4999
20
235.5007
11
313.4999
21
232.5007
0
LINE
8
OHNE_NAMEN
6
CONTINUOUS
62
5
39
0.0000
10
313.4999
20
232.5007
11
314.9999
21
232.5003
0
LINE
8
OHNE_NAMEN
6
CONTINUOUS
62
5
39
0.0000
10
314.9999
20
232.5003
11
358.4998
21
171.0002
0
LINE
8
OHNE_NAMEN
6
CONTINUOUS
62
5
39
0.0000
10
264.9996
20
171.0002
11
266.4996
21
171.0002
0
LINE
8
OHNE_NAMEN
6
CONTINUOUS
62
5
39
0.0000
10
359.9991
20
171.0002
11
358.4998
21
171.0002
0
LINE
8
OHNE_NAMEN
6
CONTINUOUS
62
5
39
0.0000
10
312.4997
20
233.5004
11
265.0007
21
166.4998
0
LINE
8
OHNE_NAMEN
6
CONTINUOUS
62
5
39
0.0000
10
359.9991
20
166.4998
11
312.4997
21
233.5004
0
LINE
8
OHNE_NAMEN
6
CONTINUOUS
62
5
39
0.0000
10
311.4999
20
228.0006
11
309.9996
21
228.0003
0
LINE
8
OHNE_NAMEN
6
CONTINUOUS
62
5
39
0.0000
10
266.4996
20
166.5002
11
309.9996
21
228.0003
0
LINE
8
OHNE_NAMEN
6
CONTINUOUS
62
5
39
0.0000
10
311.4999
20
231.0007
11
311.4999
21
228.0006
0
LINE
8
OHNE_NAMEN
6
CONTINUOUS
62
5
39
0.0000
10
311.4999
20
231.0007
11
313.4999
21
231.0007
0
LINE
8
OHNE_NAMEN
6
CONTINUOUS
62
5
39
0.0000
10
313.4999
20
231.0007
11
313.4999
21
228.0006
0
LINE
8
OHNE_NAMEN
6
CONTINUOUS
62
5
39
0.0000
10
313.4999
20
228.0006
11
314.9999
21
228.0003
0
LINE
8
OHNE_NAMEN
6
CONTINUOUS
62
5
39
0.0000
10
314.9999
20
228.0003
11
358.4998
21
166.5002
0
LINE
8
OHNE_NAMEN
6
CONTINUOUS
62
5
39
0.0000
10
264.9996
20
166.5002
11
266.4996
21
166.5002
0
LINE
8
OHNE_NAMEN
6
CONTINUOUS
62
5
39
0.0000
10
359.9991
20
166.5002
11
358.4998
21
166.5002
0
LINE
8
OHNE_NAMEN
6
CONTINUOUS
62
5
39
0.0000
10
312.4997
20
229.0004
11
265.0007
21
161.9998
0
LINE
8
OHNE_NAMEN
6
CONTINUOUS
62
5
39
0.0000
10
359.9991
20
161.9998
11
312.4997
21
229.0004
0
LINE
8
OHNE_NAMEN
6
CONTINUOUS
62
5
39
0.0000
10
311.4999
20
223.5006
11
309.9996
21
223.5002
0
LINE
8
OHNE_NAMEN
6
CONTINUOUS
62
5
39
0.0000
10
266.4996
20
162.0001
11
309.9996
21
223.5002
0
LINE
8
OHNE_NAMEN
6
CONTINUOUS
62
5
39
0.0000
10
311.4999
20
226.5006
11
311.4999
21
223.5006
0
LINE
8
OHNE_NAMEN
6
CONTINUOUS
62
5
39
0.0000
10
311.4999
20
226.5006
11
313.4999
21
226.5006
0
LINE
8
OHNE_NAMEN
6
CONTINUOUS
62
5
39
0.0000
10
313.4999
20
226.5006
11
313.4999
21
223.5006
0
LINE
8
OHNE_NAMEN
6
CONTINUOUS
62
5
39
0.0000
10
313.4999
20
223.5006
11
314.9999
21
223.5002
0
LINE
8
OHNE_NAMEN
6
CONTINUOUS
62
5
39
0.0000
10
314.9999
20
223.5002
11
358.4998
21
162.0001
0
LINE
8
OHNE_NAMEN
6
CONTINUOUS
62
5
39
0.0000
10
264.9996
20
162.0001
11
266.4996
21
162.0001
0
LINE
8
OHNE_NAMEN
6
CONTINUOUS
62
5
39
0.0000
10
359.9991
20
162.0001
11
358.4998
21
162.0001
0
LINE
8
OHNE_NAMEN
6
CONTINUOUS
62
5
39
0.0000
10
312.4997
20
224.5004
11
265.0007
21
157.4998
0
LINE
8
OHNE_NAMEN
6
CONTINUOUS
62
5
39
0.0000
10
359.9991
20
157.4998
11
312.4997
21
224.5004
0
LINE
8
OHNE_NAMEN
6
CONTINUOUS
62
5
39
0.0000
10
311.4999
20
219.0006
11
309.9996
21
219.0002
0
LINE
8
OHNE_NAMEN
6
CONTINUOUS
62
5
39
0.0000
10
266.4996
20
157.5005
11
309.9996
21
219.0002
0
LINE
8
OHNE_NAMEN
6
CONTINUOUS
62
5
39
0.0000
10
311.4999
20
222.0006
11
311.4999
21
219.0006
0
LINE
8
OHNE_NAMEN
6
CONTINUOUS
62
5
39
0.0000
10
311.4999
20
222.0006
11
313.4999
21
222.0006
0
LINE
8
OHNE_NAMEN
6
CONTINUOUS
62
5
39
0.0000
10
313.4999
20
222.0006
11
313.4999
21
219.0006
0
LINE
8
OHNE_NAMEN
6
CONTINUOUS
62
5
39
0.0000
10
313.4999
20
219.0006
11
314.9995
21
219.0002
0
LINE
8
OHNE_NAMEN
6
CONTINUOUS
62
5
39
0.0000
10
314.9995
20
219.0002
11
358.4998
21
157.5005
0
LINE
8
OHNE_NAMEN
6
CONTINUOUS
62
5
39
0.0000
10
264.9996
20
157.5005
11
266.4996
21
157.5005
0
LINE
8
OHNE_NAMEN
6
CONTINUOUS
62
5
39
0.0000
10
359.9991
20
157.5005
11
358.4998
21
157.5005
0
LINE
8
OHNE_NAMEN
6
CONTINUOUS
62
5
39
0.0000
10
312.4997
20
220.0003
11
265.0007
21
153.0001
0
LINE
8
OHNE_NAMEN
6
CONTINUOUS
62
5
39
0.0000
10
359.9991
20
153.0001
11
312.4997
21
220.0003
0
LINE
8
OHNE_NAMEN
6
CONTINUOUS
62
5
39
0.0000
10
311.4999
20
214.5005
11
309.9996
21
214.5002
0
LINE
8
OHNE_NAMEN
6
CONTINUOUS
62
5
39
0.0000
10
266.4996
20
153.0004
11
309.9996
21
214.5002
0
LINE
8
OHNE_NAMEN
6
CONTINUOUS
62
5
39
0.0000
10
311.4999
20
217.5005
11
311.4999
21
214.5005
0
LINE
8
OHNE_NAMEN
6
CONTINUOUS
62
5
39
0.0000
10
311.4999
20
217.5005
11
313.4999
21
217.5005
0
LINE
8
OHNE_NAMEN
6
CONTINUOUS
62
5
39
0.0000
10
313.4999
20
217.5005
11
313.4999
21
214.5005
0
LINE
8
OHNE_NAMEN
6
CONTINUOUS
62
5
39
0.0000
10
313.4999
20
214.5005
11
314.9995
21
214.5002
0
LINE
8
OHNE_NAMEN
6
CONTINUOUS
62
5
39
0.0000
10
314.9995
20
214.5002
11
358.4998
21
153.0004
0
LINE
8
OHNE_NAMEN
6
CONTINUOUS
62
5
39
0.0000
10
264.9996
20
153.0004
11
266.4996
21
153.0004
0
LINE
8
OHNE_NAMEN
6
CONTINUOUS
62
5
39
0.0000
10
359.9991
20
153.0004
11
358.4998
21
153.0004
0
LINE
8
OHNE_NAMEN
6
CONTINUOUS
62
5
39
0.0000
10
312.4997
20
215.5003
11
265.0003
21
148.5000
0
LINE
8
OHNE_NAMEN
6
CONTINUOUS
62
5
39
0.0000
10
359.9991
20
148.5000
11
312.4997
21
215.5003
0
LINE
8
OHNE_NAMEN
6
CONTINUOUS
62
5
39
0.0000
10
311.4999
20
210.0005
11
309.9996
21
210.0001
0
LINE
8
OHNE_NAMEN
6
CONTINUOUS
62
5
39
0.0000
10
266.4996
20
148.5004
11
309.9996
21
210.0001
0
LINE
8
OHNE_NAMEN
6
CONTINUOUS
62
5
39
0.0000
10
311.4999
20
213.0005
11
311.4999
21
210.0005
0
LINE
8
OHNE_NAMEN
6
CONTINUOUS
62
5
39
0.0000
10
311.4999
20
213.0005
11
313.4999
21
213.0005
0
LINE
8
OHNE_NAMEN
6
CONTINUOUS
62
5
39
0.0000
10
313.4999
20
213.0005
11
313.4999
21
210.0005
0
LINE
8
OHNE_NAMEN
6
CONTINUOUS
62
5
39
0.0000
10
313.4999
20
210.0005
11
314.9995
21
210.0001
0
LINE
8
OHNE_NAMEN
6
CONTINUOUS
62
5
39
0.0000
10
314.9995
20
210.0001
11
358.4998
21
148.5004
0
LINE
8
OHNE_NAMEN
6
CONTINUOUS
62
5
39
0.0000
10
264.9996
20
148.5004
11
266.4996
21
148.5004
0
LINE
8
OHNE_NAMEN
6
CONTINUOUS
62
5
39
0.0000
10
359.9991
20
148.5004
11
358.4998
21
148.5004
0
LINE
8
OHNE_NAMEN
6
CONTINUOUS
62
5
39
0.0000
10
312.4997
20
211.0003
11
265.0003
21
144.0000
0
LINE
8
OHNE_NAMEN
6
CONTINUOUS
62
5
39
0.0000
10
359.9991
20
144.0000
11
312.4997
21
211.0003
0
LINE
8
OHNE_NAMEN
6
CONTINUOUS
62
5
39
0.0000
10
311.4999
20
205.5005
11
309.9996
21
205.5005
0
LINE
8
OHNE_NAMEN
6
CONTINUOUS
62
5
39
0.0000
10
266.4996
20
144.0004
11
309.9996
21
205.5005
0
LINE
8
OHNE_NAMEN
6
CONTINUOUS
62
5
39
0.0000
10
311.4999
20
208.5005
11
311.4999
21
205.5005
0
LINE
8
OHNE_NAMEN
6
CONTINUOUS
62
5
39
0.0000
10
311.4999
20
208.5005
11
313.4999
21
208.5005
0
LINE
8
OHNE_NAMEN
6
CONTINUOUS
62
5
39
0.0000
10
313.4999
20
208.5005
11
313.4999
21
205.5005
0
LINE
8
OHNE_NAMEN
6
CONTINUOUS
62
5
39
0.0000
10
313.4999
20
205.5005
11
314.9995
21
205.5005
0
LINE
8
OHNE_NAMEN
6
CONTINUOUS
62
5
39
0.0000
10
314.9995
20
205.5005
11
358.4998
21
144.0004
0
LINE
8
OHNE_NAMEN
6
CONTINUOUS
62
5
39
0.0000
10
264.9996
20
144.0004
11
266.4996
21
144.0004
0
LINE
8
OHNE_NAMEN
6
CONTINUOUS
62
5
39
0.0000
10
359.9991
20
144.0004
11
358.4998
21
144.0004
0
LINE
8
OHNE_NAMEN
6
CONTINUOUS
62
5
39
0.0000
10
312.4997
20
206.5002
11
265.0003
21
139.5000
0
LINE
8
OHNE_NAMEN
6
CONTINUOUS
62
5
39
0.0000
10
359.9991
20
139.5000
11
312.4997
21
206.5002
0
LINE
8
OHNE_NAMEN
6
CONTINUOUS
62
5
39
0.0000
10
311.4999
20
201.0008
11
309.9996
21
201.0004
0
LINE
8
OHNE_NAMEN
6
CONTINUOUS
62
5
39
0.0000
10
266.4996
20
139.5003
11
309.9996
21
201.0004
0
LINE
8
OHNE_NAMEN
6
CONTINUOUS
62
5
39
0.0000
10
311.4999
20
204.0008
11
311.4999
21
201.0008
0
LINE
8
OHNE_NAMEN
6
CONTINUOUS
62
5
39
0.0000
10
311.4999
20
204.0008
11
313.4999
21
204.0008
0
LINE
8
OHNE_NAMEN
6
CONTINUOUS
62
5
39
0.0000
10
313.4999
20
204.0008
11
313.4999
21
201.0008
0
LINE
8
OHNE_NAMEN
6
CONTINUOUS
62
5
39
0.0000
10
313.4999
20
201.0008
11
314.9995
21
201.0004
0
LINE
8
OHNE_NAMEN
6
CONTINUOUS
62
5
39
0.0000
10
314.9995
20
201.0004
11
358.4998
21
139.5003
0
LINE
8
OHNE_NAMEN
6
CONTINUOUS
62
5
39
0.0000
10
264.9996
20
139.5003
11
266.4996
21
139.5003
0
LINE
8
OHNE_NAMEN
6
CONTINUOUS
62
5
39
0.0000
10
359.9991
20
139.5003
11
358.4998
21
139.5003
0
LINE
8
OHNE_NAMEN
6
CONTINUOUS
62
5
39
0.0000
10
312.4997
20
202.0002
11
265.0003
21
134.9999
0
LINE
8
OHNE_NAMEN
6
CONTINUOUS
62
5
39
0.0000
10
359.9991
20
134.9999
11
312.4997
21
202.0002
0
LINE
8
OHNE_NAMEN
6
CONTINUOUS
62
5
39
0.0000
10
311.4999
20
196.5007
11
309.9996
21
196.5004
0
LINE
8
OHNE_NAMEN
6
CONTINUOUS
62
5
39
0.0000
10
266.4996
20
135.0003
11
309.9996
21
196.5004
0
LINE
8
OHNE_NAMEN
6
CONTINUOUS
62
5
39
0.0000
10
311.4999
20
199.5008
11
311.4999
21
196.5007
0
LINE
8
OHNE_NAMEN
6
CONTINUOUS
62
5
39
0.0000
10
311.4999
20
199.5008
11
313.4999
21
199.5008
0
LINE
8
OHNE_NAMEN
6
CONTINUOUS
62
5
39
0.0000
10
313.4999
20
199.5008
11
313.4999
21
196.5007
0
LINE
8
OHNE_NAMEN
6
CONTINUOUS
62
5
39
0.0000
10
313.4999
20
196.5007
11
314.9995
21
196.5004
0
LINE
8
OHNE_NAMEN
6
CONTINUOUS
62
5
39
0.0000
10
314.9995
20
196.5004
11
358.4998
21
135.0003
0
LINE
8
OHNE_NAMEN
6
CONTINUOUS
62
5
39
0.0000
10
264.9996
20
135.0003
11
266.4996
21
135.0003
0
LINE
8
OHNE_NAMEN
6
CONTINUOUS
62
5
39
0.0000
10
359.9991
20
135.0003
11
358.4998
21
135.0003
0
LINE
8
OHNE_NAMEN
6
CONTINUOUS
62
5
39
0.0000
10
312.4997
20
197.5005
11
265.0003
21
130.4999
0
LINE
8
OHNE_NAMEN
6
CONTINUOUS
62
5
39
0.0000
10
359.9991
20
130.4999
11
312.4997
21
197.5005
0
LINE
8
OHNE_NAMEN
6
CONTINUOUS
62
5
39
0.0000
10
311.4999
20
192.0007
11
309.9996
21
192.0004
0
LINE
8
OHNE_NAMEN
6
CONTINUOUS
62
5
39
0.0000
10
266.4996
20
130.5003
11
309.9996
21
192.0004
0
LINE
8
OHNE_NAMEN
6
CONTINUOUS
62
5
39
0.0000
10
311.4999
20
195.0007
11
311.4999
21
192.0007
0
LINE
8
OHNE_NAMEN
6
CONTINUOUS
62
5
39
0.0000
10
311.4999
20
195.0007
11
313.4999
21
195.0007
0
LINE
8
OHNE_NAMEN
6
CONTINUOUS
62
5
39
0.0000
10
313.4999
20
195.0007
11
313.4999
21
192.0007
0
LINE
8
OHNE_NAMEN
6
CONTINUOUS
62
5
39
0.0000
10
313.4999
20
192.0007
11
314.9995
21
192.0004
0
LINE
8
OHNE_NAMEN
6
CONTINUOUS
62
5
39
0.0000
10
314.9995
20
192.0004
11
358.4998
21
130.5003
0
LINE
8
OHNE_NAMEN
6
CONTINUOUS
62
5
39
0.0000
10
264.9996
20
130.5003
11
266.4996
21
130.5003
0
LINE
8
OHNE_NAMEN
6
CONTINUOUS
62
5
39
0.0000
10
359.9991
20
130.5003
11
358.4998
21
130.5003
0
LINE
8
OHNE_NAMEN
6
CONTINUOUS
62
5
39
0.0000
10
312.4994
20
193.0005
11
265.0003
21
125.9999
0
LINE
8
OHNE_NAMEN
6
CONTINUOUS
62
5
39
0.0000
10
359.9991
20
125.9999
11
312.4994
21
193.0005
0
LINE
8
OHNE_NAMEN
6
CONTINUOUS
62
5
39
0.0000
10
311.4999
20
187.5007
11
309.9996
21
187.5003
0
LINE
8
OHNE_NAMEN
6
CONTINUOUS
62
5
39
0.0000
10
266.4996
20
126.0006
11
309.9996
21
187.5003
0
LINE
8
OHNE_NAMEN
6
CONTINUOUS
62
5
39
0.0000
10
311.4999
20
190.5007
11
311.4999
21
187.5007
0
LINE
8
OHNE_NAMEN
6
CONTINUOUS
62
5
39
0.0000
10
311.4999
20
190.5007
11
313.4995
21
190.5007
0
LINE
8
OHNE_NAMEN
6
CONTINUOUS
62
5
39
0.0000
10
313.4995
20
190.5007
11
313.4995
21
187.5007
0
LINE
8
OHNE_NAMEN
6
CONTINUOUS
62
5
39
0.0000
10
313.4995
20
187.5007
11
314.9995
21
187.5003
0
LINE
8
OHNE_NAMEN
6
CONTINUOUS
62
5
39
0.0000
10
314.9995
20
187.5003
11
358.4998
21
126.0006
0
LINE
8
OHNE_NAMEN
6
CONTINUOUS
62
5
39
0.0000
10
264.9996
20
126.0006
11
266.4996
21
126.0006
0
LINE
8
OHNE_NAMEN
6
CONTINUOUS
62
5
39
0.0000
10
359.9991
20
126.0006
11
358.4998
21
126.0006
0
LINE
8
OHNE_NAMEN
6
CONTINUOUS
62
5
39
0.0000
10
312.4994
20
188.5004
11
265.0003
21
121.5002
0
LINE
8
OHNE_NAMEN
6
CONTINUOUS
62
5
39
0.0000
10
359.9991
20
121.5002
11
312.4994
21
188.5004
0
LINE
8
OHNE_NAMEN
6
CONTINUOUS
62
5
39
0.0000
10
311.4996
20
183.0007
11
309.9996
21
183.0003
0
LINE
8
OHNE_NAMEN
6
CONTINUOUS
62
5
39
0.0000
10
266.4996
20
121.5005
11
309.9996
21
183.0003
0
LINE
8
OHNE_NAMEN
6
CONTINUOUS
62
5
39
0.0000
10
311.4996
20
186.0007
11
311.4996
21
183.0007
0
LINE
8
OHNE_NAMEN
6
CONTINUOUS
62
5
39
0.0000
10
311.4996
20
186.0007
11
313.4995
21
186.0007
0
LINE
8
OHNE_NAMEN
6
CONTINUOUS
62
5
39
0.0000
10
313.4995
20
186.0007
11
313.4995
21
183.0007
0
LINE
8
OHNE_NAMEN
6
CONTINUOUS
62
5
39
0.0000
10
313.4995
20
183.0007
11
314.9995
21
183.0003
0
LINE
8
OHNE_NAMEN
6
CONTINUOUS
62
5
39
0.0000
10
314.9995
20
183.0003
11
358.4998
21
121.5005
0
LINE
8
OHNE_NAMEN
6
CONTINUOUS
62
5
39
0.0000
10
264.9996
20
121.5005
11
266.4996
21
121.5005
0
LINE
8
OHNE_NAMEN
6
CONTINUOUS
62
5
39
0.0000
10
359.9991
20
121.5005
11
358.4998
21
121.5005
0
LINE
8
OHNE_NAMEN
6
CONTINUOUS
62
5
39
0.0000
10
312.4994
20
184.0004
11
265.0003
21
117.0002
0
LINE
8
OHNE_NAMEN
6
CONTINUOUS
62
5
39
0.0000
10
359.9991
20
117.0002
11
312.4994
21
184.0004
0
LINE
8
OHNE_NAMEN
6
CONTINUOUS
62
5
39
0.0000
10
311.4996
20
178.5006
11
309.9996
21
178.5003
0
LINE
8
OHNE_NAMEN
6
CONTINUOUS
62
5
39
0.0000
10
266.4996
20
117.0005
11
309.9996
21
178.5003
0
LINE
8
OHNE_NAMEN
6
CONTINUOUS
62
5
39
0.0000
10
311.4996
20
181.5006
11
311.4996
21
178.5006
0
LINE
8
OHNE_NAMEN
6
CONTINUOUS
62
5
39
0.0000
10
311.4996
20
181.5006
11
313.4995
21
181.5006
0
LINE
8
OHNE_NAMEN
6
CONTINUOUS
62
5
39
0.0000
10
313.4995
20
181.5006
11
313.4995
21
178.5006
0
LINE
8
OHNE_NAMEN
6
CONTINUOUS
62
5
39
0.0000
10
313.4995
20
178.5006
11
314.9995
21
178.5003
0
LINE
8
OHNE_NAMEN
6
CONTINUOUS
62
5
39
0.0000
10
314.9995
20
178.5003
11
358.4998
21
117.0005
0
LINE
8
OHNE_NAMEN
6
CONTINUOUS
62
5
39
0.0000
10
264.9996
20
117.0005
11
266.4996
21
117.0005
0
LINE
8
OHNE_NAMEN
6
CONTINUOUS
62
5
39
0.0000
10
359.9991
20
117.0005
11
358.4998
21
117.0005
0
LINE
8
OHNE_NAMEN
6
CONTINUOUS
62
5
39
0.0000
10
312.4994
20
179.5004
11
265.0003
21
112.5001
0
LINE
8
OHNE_NAMEN
6
CONTINUOUS
62
5
39
0.0000
10
359.9991
20
112.5001
11
312.4994
21
179.5004
0
LINE
8
OHNE_NAMEN
6
CONTINUOUS
62
5
39
0.0000
10
311.4996
20
174.0006
11
309.9996
21
174.0006
0
LINE
8
OHNE_NAMEN
6
CONTINUOUS
62
5
39
0.0000
10
266.4996
20
112.5005
11
309.9996
21
174.0006
0
LINE
8
OHNE_NAMEN
6
CONTINUOUS
62
5
39
0.0000
10
311.4996
20
177.0006
11
311.4996
21
174.0006
0
LINE
8
OHNE_NAMEN
6
CONTINUOUS
62
5
39
0.0000
10
311.4996
20
177.0006
11
313.4995
21
177.0006
0
LINE
8
OHNE_NAMEN
6
CONTINUOUS
62
5
39
0.0000
10
313.4995
20
177.0006
11
313.4995
21
174.0006
0
LINE
8
OHNE_NAMEN
6
CONTINUOUS
62
5
39
0.0000
10
313.4995
20
174.0006
11
314.9995
21
174.0006
0
LINE
8
OHNE_NAMEN
6
CONTINUOUS
62
5
39
0.0000
10
314.9995
20
174.0006
11
358.4998
21
112.5005
0
LINE
8
OHNE_NAMEN
6
CONTINUOUS
62
5
39
0.0000
10
264.9996
20
112.5005
11
266.4996
21
112.5005
0
LINE
8
OHNE_NAMEN
6
CONTINUOUS
62
5
39
0.0000
10
359.9991
20
112.5005
11
358.4998
21
112.5005
0
LINE
8
OHNE_NAMEN
6
CONTINUOUS
62
5
39
0.0000
10
312.4994
20
175.0004
11
265.0003
21
108.0001
0
LINE
8
OHNE_NAMEN
6
CONTINUOUS
62
5
39
0.0000
10
359.9991
20
108.0001
11
312.4994
21
175.0004
0
LINE
8
OHNE_NAMEN
6
CONTINUOUS
62
5
39
0.0000
10
311.4996
20
169.5009
11
309.9996
21
169.5005
0
LINE
8
OHNE_NAMEN
6
CONTINUOUS
62
5
39
0.0000
10
266.4996
20
108.0004
11
309.9996
21
169.5005
0
LINE
8
OHNE_NAMEN
6
CONTINUOUS
62
5
39
0.0000
10
311.4996
20
172.5009
11
311.4996
21
169.5009
0
LINE
8
OHNE_NAMEN
6
CONTINUOUS
62
5
39
0.0000
10
311.4996
20
172.5009
11
313.4995
21
172.5009
0
LINE
8
OHNE_NAMEN
6
CONTINUOUS
62
5
39
0.0000
10
313.4995
20
172.5009
11
313.4995
21
169.5009
0
LINE
8
OHNE_NAMEN
6
CONTINUOUS
62
5
39
0.0000
10
313.4995
20
169.5009
11
314.9995
21
169.5005
0
LINE
8
OHNE_NAMEN
6
CONTINUOUS
62
5
39
0.0000
10
314.9995
20
169.5005
11
358.4998
21
108.0004
0
LINE
8
OHNE_NAMEN
6
CONTINUOUS
62
5
39
0.0000
10
264.9996
20
108.0004
11
266.4996
21
108.0004
0
LINE
8
OHNE_NAMEN
6
CONTINUOUS
62
5
39
0.0000
10
359.9991
20
108.0004
11
358.4998
21
108.0004
0
LINE
8
OHNE_NAMEN
6
CONTINUOUS
62
5
39
0.0000
10
312.4994
20
170.5003
11
265.0003
21
103.5001
0
LINE
8
OHNE_NAMEN
6
CONTINUOUS
62
5
39
0.0000
10
359.9991
20
103.5001
11
312.4994
21
170.5003
0
LINE
8
OHNE_NAMEN
6
CONTINUOUS
62
5
39
0.0000
10
311.4996
20
165.0009
11
309.9996
21
165.0005
0
LINE
8
OHNE_NAMEN
6
CONTINUOUS
62
5
39
0.0000
10
266.4993
20
103.5004
11
309.9996
21
165.0005
0
LINE
8
OHNE_NAMEN
6
CONTINUOUS
62
5
39
0.0000
10
311.4996
20
168.0009
11
311.4996
21
165.0009
0
LINE
8
OHNE_NAMEN
6
CONTINUOUS
62
5
39
0.0000
10
311.4996
20
168.0009
11
313.4995
21
168.0009
0
LINE
8
OHNE_NAMEN
6
CONTINUOUS
62
5
39
0.0000
10
313.4995
20
168.0009
11
313.4995
21
165.0009
0
LINE
8
OHNE_NAMEN
6
CONTINUOUS
62
5
39
0.0000
10
313.4995
20
165.0009
11
314.9995
21
165.0005
0
LINE
8
OHNE_NAMEN
6
CONTINUOUS
62
5
39
0.0000
10
314.9995
20
165.0005
11
358.4998
21
103.5004
0
LINE
8
OHNE_NAMEN
6
CONTINUOUS
62
5
39
0.0000
10
264.9996
20
103.5004
11
266.4993
21
103.5004
0
LINE
8
OHNE_NAMEN
6
CONTINUOUS
62
5
39
0.0000
10
359.9991
20
103.5004
11
358.4998
21
103.5004
0
LINE
8
OHNE_NAMEN
6
CONTINUOUS
62
5
39
0.0000
10
409.5009
20
296.5005
11
361.9994
21
229.5003
0
LINE
8
OHNE_NAMEN
6
CONTINUOUS
62
5
39
0.0000
10
456.9989
20
229.5003
11
409.5009
21
296.5005
0
LINE
8
OHNE_NAMEN
6
CONTINUOUS
62
5
39
0.0000
10
408.4990
20
291.0007
11
406.9997
21
291.0004
0
LINE
8
OHNE_NAMEN
6
CONTINUOUS
62
5
39
0.0000
10
363.4987
20
229.5006
11
406.9997
21
291.0004
0
LINE
8
OHNE_NAMEN
6
CONTINUOUS
62
5
39
0.0000
10
408.4990
20
294.0008
11
408.4990
21
291.0007
0
LINE
8
OHNE_NAMEN
6
CONTINUOUS
62
5
39
0.0000
10
408.4990
20
294.0008
11
410.4993
21
294.0008
0
LINE
8
OHNE_NAMEN
6
CONTINUOUS
62
5
39
0.0000
10
410.4993
20
294.0008
11
410.4993
21
291.0007
0
LINE
8
OHNE_NAMEN
6
CONTINUOUS
62
5
39
0.0000
10
410.4993
20
291.0007
11
411.9986
21
291.0004
0
LINE
8
OHNE_NAMEN
6
CONTINUOUS
62
5
39
0.0000
10
411.9986
20
291.0004
11
455.4996
21
229.5006
0
LINE
8
OHNE_NAMEN
6
CONTINUOUS
62
5
39
0.0000
10
361.9994
20
229.5006
11
363.4987
21
229.5006
0
LINE
8
OHNE_NAMEN
6
CONTINUOUS
62
5
39
0.0000
10
456.9989
20
229.5006
11
455.4996
21
229.5006
0
LINE
8
OHNE_NAMEN
6
CONTINUOUS
62
5
39
0.0000
10
409.5009
20
292.5004
11
361.9994
21
225.5001
0
LINE
8
OHNE_NAMEN
6
CONTINUOUS
62
5
39
0.0000
10
456.9989
20
225.5001
11
409.5009
21
292.5004
0
LINE
8
OHNE_NAMEN
6
CONTINUOUS
62
5
39
0.0000
10
408.4990
20
287.0009
11
406.9997
21
287.0006
0
LINE
8
OHNE_NAMEN
6
CONTINUOUS
62
5
39
0.0000
10
363.4987
20
225.5005
11
406.9997
21
287.0006
0
LINE
8
OHNE_NAMEN
6
CONTINUOUS
62
5
39
0.0000
10
408.4990
20
290.0010
11
408.4990
21
287.0009
0
LINE
8
OHNE_NAMEN
6
CONTINUOUS
62
5
39
0.0000
10
408.4990
20
290.0010
11
410.4993
21
290.0010
0
LINE
8
OHNE_NAMEN
6
CONTINUOUS
62
5
39
0.0000
10
410.4993
20
290.0010
11
410.4993
21
287.0009
0
LINE
8
OHNE_NAMEN
6
CONTINUOUS
62
5
39
0.0000
10
410.4993
20
287.0009
11
411.9986
21
287.0006
0
LINE
8
OHNE_NAMEN
6
CONTINUOUS
62
5
39
0.0000
10
411.9986
20
287.0006
11
455.4996
21
225.5005
0
LINE
8
OHNE_NAMEN
6
CONTINUOUS
62
5
39
0.0000
10
361.9994
20
225.5005
11
363.4987
21
225.5005
0
LINE
8
OHNE_NAMEN
6
CONTINUOUS
62
5
39
0.0000
10
456.9989
20
225.5005
11
455.4996
21
225.5005
0
LINE
8
OHNE_NAMEN
6
CONTINUOUS
62
5
39
0.0000
10
409.5009
20
288.5006
11
361.9994
21
221.5000
0
LINE
8
OHNE_NAMEN
6
CONTINUOUS
62
5
39
0.0000
10
456.9989
20
221.5000
11
409.5009
21
288.5006
0
LINE
8
OHNE_NAMEN
6
CONTINUOUS
62
5
39
0.0000
10
408.4990
20
283.0008
11
406.9997
21
283.0004
0
LINE
8
OHNE_NAMEN
6
CONTINUOUS
62
5
39
0.0000
10
363.4987
20
221.5003
11
406.9997
21
283.0004
0
LINE
8
OHNE_NAMEN
6
CONTINUOUS
62
5
39
0.0000
10
408.4990
20
286.0008
11
408.4990
21
283.0008
0
LINE
8
OHNE_NAMEN
6
CONTINUOUS
62
5
39
0.0000
10
408.4990
20
286.0008
11
410.4993
21
286.0008
0
LINE
8
OHNE_NAMEN
6
CONTINUOUS
62
5
39
0.0000
10
410.4993
20
286.0008
11
410.4993
21
283.0008
0
LINE
8
OHNE_NAMEN
6
CONTINUOUS
62
5
39
0.0000
10
410.4993
20
283.0008
11
411.9986
21
283.0004
0
LINE
8
OHNE_NAMEN
6
CONTINUOUS
62
5
39
0.0000
10
411.9986
20
283.0004
11
455.4996
21
221.5003
0
LINE
8
OHNE_NAMEN
6
CONTINUOUS
62
5
39
0.0000
10
361.9994
20
221.5003
11
363.4987
21
221.5003
0
LINE
8
OHNE_NAMEN
6
CONTINUOUS
62
5
39
0.0000
10
456.9989
20
221.5003
11
455.4996
21
221.5003
0
LINE
8
OHNE_NAMEN
6
CONTINUOUS
62
5
39
0.0000
10
409.5009
20
284.5005
11
361.9994
21
217.5002
0
LINE
8
OHNE_NAMEN
6
CONTINUOUS
62
5
39
0.0000
10
456.9989
20
217.5002
11
409.5009
21
284.5005
0
LINE
8
OHNE_NAMEN
6
CONTINUOUS
62
5
39
0.0000
10
408.4990
20
279.0007
11
406.9997
21
279.0007
0
LINE
8
OHNE_NAMEN
6
CONTINUOUS
62
5
39
0.0000
10
363.4987
20
217.5005
11
406.9997
21
279.0007
0
LINE
8
OHNE_NAMEN
6
CONTINUOUS
62
5
39
0.0000
10
408.4990
20
282.0007
11
408.4990
21
279.0007
0
LINE
8
OHNE_NAMEN
6
CONTINUOUS
62
5
39
0.0000
10
408.4990
20
282.0007
11
410.4993
21
282.0007
0
LINE
8
OHNE_NAMEN
6
CONTINUOUS
62
5
39
0.0000
10
410.4993
20
282.0007
11
410.4993
21
279.0007
0
LINE
8
OHNE_NAMEN
6
CONTINUOUS
62
5
39
0.0000
10
410.4993
20
279.0007
11
411.9986
21
279.0007
0
LINE
8
OHNE_NAMEN
6
CONTINUOUS
62
5
39
0.0000
10
411.9986
20
279.0007
11
455.4996
21
217.5005
0
LINE
8
OHNE_NAMEN
6
CONTINUOUS
62
5
39
0.0000
10
361.9994
20
217.5005
11
363.4987
21
217.5005
0
LINE
8
OHNE_NAMEN
6
CONTINUOUS
62
5
39
0.0000
10
456.9989
20
217.5005
11
455.4996
21
217.5005
0
LINE
8
OHNE_NAMEN
6
CONTINUOUS
62
5
39
0.0000
10
409.5009
20
280.5007
11
361.9994
21
213.5001
0
LINE
8
OHNE_NAMEN
6
CONTINUOUS
62
5
39
0.0000
10
456.9989
20
213.5001
11
409.5009
21
280.5007
0
LINE
8
OHNE_NAMEN
6
CONTINUOUS
62
5
39
0.0000
10
408.4990
20
275.0009
11
406.9997
21
275.0005
0
LINE
8
OHNE_NAMEN
6
CONTINUOUS
62
5
39
0.0000
10
363.4987
20
213.5004
11
406.9997
21
275.0005
0
LINE
8
OHNE_NAMEN
6
CONTINUOUS
62
5
39
0.0000
10
408.4990
20
278.0009
11
408.4990
21
275.0009
0
LINE
8
OHNE_NAMEN
6
CONTINUOUS
62
5
39
0.0000
10
408.4990
20
278.0009
11
410.4993
21
278.0009
0
LINE
8
OHNE_NAMEN
6
CONTINUOUS
62
5
39
0.0000
10
410.4993
20
278.0009
11
410.4993
21
275.0009
0
LINE
8
OHNE_NAMEN
6
CONTINUOUS
62
5
39
0.0000
10
410.4993
20
275.0009
11
411.9986
21
275.0005
0
LINE
8
OHNE_NAMEN
6
CONTINUOUS
62
5
39
0.0000
10
411.9986
20
275.0005
11
455.4996
21
213.5004
0
LINE
8
OHNE_NAMEN
6
CONTINUOUS
62
5
39
0.0000
10
361.9994
20
213.5004
11
363.4987
21
213.5004
0
LINE
8
OHNE_NAMEN
6
CONTINUOUS
62
5
39
0.0000
10
456.9989
20
213.5004
11
455.4996
21
213.5004
0
LINE
8
OHNE_NAMEN
6
CONTINUOUS
62
5
39
0.0000
10
409.5009
20
276.5005
11
361.9994
21
209.5003
0
LINE
8
OHNE_NAMEN
6
CONTINUOUS
62
5
39
0.0000
10
456.9989
20
209.5003
11
409.5009
21
276.5005
0
LINE
8
OHNE_NAMEN
6
CONTINUOUS
62
5
39
0.0000
10
408.4990
20
271.0007
11
406.9997
21
271.0004
0
LINE
8
OHNE_NAMEN
6
CONTINUOUS
62
5
39
0.0000
10
363.4987
20
209.5006
11
406.9997
21
271.0004
0
LINE
8
OHNE_NAMEN
6
CONTINUOUS
62
5
39
0.0000
10
408.4990
20
274.0007
11
408.4990
21
271.0007
0
LINE
8
OHNE_NAMEN
6
CONTINUOUS
62
5
39
0.0000
10
408.4990
20
274.0007
11
410.4993
21
274.0007
0
LINE
8
OHNE_NAMEN
6
CONTINUOUS
62
5
39
0.0000
10
410.4993
20
274.0007
11
410.4993
21
271.0007
0
LINE
8
OHNE_NAMEN
6
CONTINUOUS
62
5
39
0.0000
10
410.4993
20
271.0007
11
411.9986
21
271.0004
0
LINE
8
OHNE_NAMEN
6
CONTINUOUS
62
5
39
0.0000
10
411.9986
20
271.0004
11
455.4996
21
209.5006
0
LINE
8
OHNE_NAMEN
6
CONTINUOUS
62
5
39
0.0000
10
361.9994
20
209.5006
11
363.4987
21
209.5006
0
LINE
8
OHNE_NAMEN
6
CONTINUOUS
62
5
39
0.0000
10
456.9989
20
209.5006
11
455.4996
21
209.5006
0
LINE
8
OHNE_NAMEN
6
CONTINUOUS
62
5
39
0.0000
10
409.5009
20
272.5007
11
361.9994
21
205.5001
0
LINE
8
OHNE_NAMEN
6
CONTINUOUS
62
5
39
0.0000
10
456.9989
20
205.5001
11
409.5009
21
272.5007
0
LINE
8
OHNE_NAMEN
6
CONTINUOUS
62
5
39
0.0000
10
408.4990
20
267.0009
11
406.9997
21
267.0006
0
LINE
8
OHNE_NAMEN
6
CONTINUOUS
62
5
39
0.0000
10
363.4987
20
205.5005
11
406.9997
21
267.0006
0
LINE
8
OHNE_NAMEN
6
CONTINUOUS
62
5
39
0.0000
10
408.4990
20
270.0009
11
408.4990
21
267.0009
0
LINE
8
OHNE_NAMEN
6
CONTINUOUS
62
5
39
0.0000
10
408.4990
20
270.0009
11
410.4993
21
270.0009
0
LINE
8
OHNE_NAMEN
6
CONTINUOUS
62
5
39
0.0000
10
410.4993
20
270.0009
11
410.4993
21
267.0009
0
LINE
8
OHNE_NAMEN
6
CONTINUOUS
62
5
39
0.0000
10
410.4993
20
267.0009
11
411.9986
21
267.0006
0
LINE
8
OHNE_NAMEN
6
CONTINUOUS
62
5
39
0.0000
10
411.9986
20
267.0006
11
455.4996
21
205.5005
0
LINE
8
OHNE_NAMEN
6
CONTINUOUS
62
5
39
0.0000
10
361.9994
20
205.5005
11
363.4987
21
205.5005
0
LINE
8
OHNE_NAMEN
6
CONTINUOUS
62
5
39
0.0000
10
456.9989
20
205.5005
11
455.4996
21
205.5005
0
LINE
8
OHNE_NAMEN
6
CONTINUOUS
62
5
39
0.0000
10
409.5009
20
268.5006
11
361.9994
21
201.5003
0
LINE
8
OHNE_NAMEN
6
CONTINUOUS
62
5
39
0.0000
10
456.9989
20
201.5003
11
409.5009
21
268.5006
0
LINE
8
OHNE_NAMEN
6
CONTINUOUS
62
5
39
0.0000
10
408.4990
20
263.0008
11
406.9997
21
263.0004
0
LINE
8
OHNE_NAMEN
6
CONTINUOUS
62
5
39
0.0000
10
363.4987
20
201.5007
11
406.9997
21
263.0004
0
LINE
8
OHNE_NAMEN
6
CONTINUOUS
62
5
39
0.0000
10
408.4990
20
266.0008
11
408.4990
21
263.0008
0
LINE
8
OHNE_NAMEN
6
CONTINUOUS
62
5
39
0.0000
10
408.4990
20
266.0008
11
410.4993
21
266.0008
0
LINE
8
OHNE_NAMEN
6
CONTINUOUS
62
5
39
0.0000
10
410.4993
20
266.0008
11
410.4993
21
263.0008
0
LINE
8
OHNE_NAMEN
6
CONTINUOUS
62
5
39
0.0000
10
410.4993
20
263.0008
11
411.9986
21
263.0004
0
LINE
8
OHNE_NAMEN
6
CONTINUOUS
62
5
39
0.0000
10
411.9986
20
263.0004
11
455.4996
21
201.5007
0
LINE
8
OHNE_NAMEN
6
CONTINUOUS
62
5
39
0.0000
10
361.9994
20
201.5007
11
363.4987
21
201.5007
0
LINE
8
OHNE_NAMEN
6
CONTINUOUS
62
5
39
0.0000
10
456.9989
20
201.5007
11
455.4996
21
201.5007
0
LINE
8
OHNE_NAMEN
6
CONTINUOUS
62
5
39
0.0000
10
409.5009
20
264.5004
11
361.9994
21
197.5002
0
LINE
8
OHNE_NAMEN
6
CONTINUOUS
62
5
39
0.0000
10
456.9989
20
197.5002
11
409.5009
21
264.5004
0
LINE
8
OHNE_NAMEN
6
CONTINUOUS
62
5
39
0.0000
10
408.4990
20
259.0010
11
406.9997
21
259.0006
0
LINE
8
OHNE_NAMEN
6
CONTINUOUS
62
5
39
0.0000
10
363.4987
20
197.5005
11
406.9997
21
259.0006
0
LINE
8
OHNE_NAMEN
6
CONTINUOUS
62
5
39
0.0000
10
408.4990
20
262.0010
11
408.4990
21
259.0010
0
LINE
8
OHNE_NAMEN
6
CONTINUOUS
62
5
39
0.0000
10
408.4990
20
262.0010
11
410.4993
21
262.0010
0
LINE
8
OHNE_NAMEN
6
CONTINUOUS
62
5
39
0.0000
10
410.4993
20
262.0010
11
410.4993
21
259.0010
0
LINE
8
OHNE_NAMEN
6
CONTINUOUS
62
5
39
0.0000
10
410.4993
20
259.0010
11
411.9986
21
259.0006
0
LINE
8
OHNE_NAMEN
6
CONTINUOUS
62
5
39
0.0000
10
411.9986
20
259.0006
11
455.4996
21
197.5005
0
LINE
8
OHNE_NAMEN
6
CONTINUOUS
62
5
39
0.0000
10
361.9994
20
197.5005
11
363.4987
21
197.5005
0
LINE
8
OHNE_NAMEN
6
CONTINUOUS
62
5
39
0.0000
10
456.9989
20
197.5005
11
455.4996
21
197.5005
0
LINE
8
OHNE_NAMEN
6
CONTINUOUS
62
5
39
0.0000
10
409.5009
20
260.5006
11
361.9994
21
193.5004
0
LINE
8
OHNE_NAMEN
6
CONTINUOUS
62
5
39
0.0000
10
456.9989
20
193.5004
11
409.5009
21
260.5006
0
LINE
8
OHNE_NAMEN
6
CONTINUOUS
62
5
39
0.0000
10
408.4990
20
255.0008
11
406.9997
21
255.0005
0
LINE
8
OHNE_NAMEN
6
CONTINUOUS
62
5
39
0.0000
10
363.4987
20
193.5007
11
406.9997
21
255.0005
0
LINE
8
OHNE_NAMEN
6
CONTINUOUS
62
5
39
0.0000
10
408.4990
20
258.0008
11
408.4990
21
255.0008
0
LINE
8
OHNE_NAMEN
6
CONTINUOUS
62
5
39
0.0000
10
408.4990
20
258.0008
11
410.4993
21
258.0008
0
LINE
8
OHNE_NAMEN
6
CONTINUOUS
62
5
39
0.0000
10
410.4993
20
258.0008
11
410.4993
21
255.0008
0
LINE
8
OHNE_NAMEN
6
CONTINUOUS
62
5
39
0.0000
10
410.4993
20
255.0008
11
411.9986
21
255.0005
0
LINE
8
OHNE_NAMEN
6
CONTINUOUS
62
5
39
0.0000
10
411.9986
20
255.0005
11
455.4996
21
193.5007
0
LINE
8
OHNE_NAMEN
6
CONTINUOUS
62
5
39
0.0000
10
361.9994
20
193.5007
11
363.4987
21
193.5007
0
LINE
8
OHNE_NAMEN
6
CONTINUOUS
62
5
39
0.0000
10
456.9989
20
193.5007
11
455.4996
21
193.5007
0
LINE
8
OHNE_NAMEN
6
CONTINUOUS
62
5
39
0.0000
10
409.5009
20
256.5005
11
361.9994
21
189.5002
0
LINE
8
OHNE_NAMEN
6
CONTINUOUS
62
5
39
0.0000
10
456.9989
20
189.5002
11
409.5009
21
256.5005
0
LINE
8
OHNE_NAMEN
6
CONTINUOUS
62
5
39
0.0000
10
408.4990
20
251.0007
11
406.9997
21
251.0007
0
LINE
8
OHNE_NAMEN
6
CONTINUOUS
62
5
39
0.0000
10
363.4987
20
189.5006
11
406.9997
21
251.0007
0
LINE
8
OHNE_NAMEN
6
CONTINUOUS
62
5
39
0.0000
10
408.4990
20
254.0011
11
408.4990
21
251.0007
0
LINE
8
OHNE_NAMEN
6
CONTINUOUS
62
5
39
0.0000
10
408.4990
20
254.0011
11
410.4993
21
254.0011
0
LINE
8
OHNE_NAMEN
6
CONTINUOUS
62
5
39
0.0000
10
410.4993
20
254.0011
11
410.4993
21
251.0007
0
LINE
8
OHNE_NAMEN
6
CONTINUOUS
62
5
39
0.0000
10
410.4993
20
251.0007
11
411.9986
21
251.0007
0
LINE
8
OHNE_NAMEN
6
CONTINUOUS
62
5
39
0.0000
10
411.9986
20
251.0007
11
455.4996
21
189.5006
0
LINE
8
OHNE_NAMEN
6
CONTINUOUS
62
5
39
0.0000
10
361.9994
20
189.5006
11
363.4987
21
189.5006
0
LINE
8
OHNE_NAMEN
6
CONTINUOUS
62
5
39
0.0000
10
456.9989
20
189.5006
11
455.4996
21
189.5006
0
LINE
8
OHNE_NAMEN
6
CONTINUOUS
62
5
39
0.0000
10
409.5009
20
252.5007
11
361.9994
21
185.5001
0
LINE
8
OHNE_NAMEN
6
CONTINUOUS
62
5
39
0.0000
10
456.9989
20
185.5001
11
409.5009
21
252.5007
0
LINE
8
OHNE_NAMEN
6
CONTINUOUS
62
5
39
0.0000
10
408.4990
20
247.0009
11
406.9997
21
247.0005
0
LINE
8
OHNE_NAMEN
6
CONTINUOUS
62
5
39
0.0000
10
363.4987
20
185.5004
11
406.9997
21
247.0005
0
LINE
8
OHNE_NAMEN
6
CONTINUOUS
62
5
39
0.0000
10
408.4990
20
250.0009
11
408.4990
21
247.0009
0
LINE
8
OHNE_NAMEN
6
CONTINUOUS
62
5
39
0.0000
10
408.4990
20
250.0009
11
410.4993
21
250.0009
0
LINE
8
OHNE_NAMEN
6
CONTINUOUS
62
5
39
0.0000
10
410.4993
20
250.0009
11
410.4993
21
247.0009
0
LINE
8
OHNE_NAMEN
6
CONTINUOUS
62
5
39
0.0000
10
410.4993
20
247.0009
11
411.9986
21
247.0005
0
LINE
8
OHNE_NAMEN
6
CONTINUOUS
62
5
39
0.0000
10
411.9986
20
247.0005
11
455.4996
21
185.5004
0
LINE
8
OHNE_NAMEN
6
CONTINUOUS
62
5
39
0.0000
10
361.9994
20
185.5004
11
363.4987
21
185.5004
0
LINE
8
OHNE_NAMEN
6
CONTINUOUS
62
5
39
0.0000
10
456.9989
20
185.5004
11
455.4996
21
185.5004
0
LINE
8
OHNE_NAMEN
6
CONTINUOUS
62
5
39
0.0000
10
409.5009
20
248.5005
11
361.9994
21
181.5003
0
LINE
8
OHNE_NAMEN
6
CONTINUOUS
62
5
39
0.0000
10
456.9989
20
181.5003
11
409.5009
21
248.5005
0
LINE
8
OHNE_NAMEN
6
CONTINUOUS
62
5
39
0.0000
10
408.4990
20
243.0007
11
406.9997
21
243.0007
0
LINE
8
OHNE_NAMEN
6
CONTINUOUS
62
5
39
0.0000
10
363.4987
20
181.5006
11
406.9997
21
243.0007
0
LINE
8
OHNE_NAMEN
6
CONTINUOUS
62
5
39
0.0000
10
408.4990
20
246.0008
11
408.4990
21
243.0007
0
LINE
8
OHNE_NAMEN
6
CONTINUOUS
62
5
39
0.0000
10
408.4990
20
246.0008
11
410.4993
21
246.0008
0
LINE
8
OHNE_NAMEN
6
CONTINUOUS
62
5
39
0.0000
10
410.4993
20
246.0008
11
410.4993
21
243.0007
0
LINE
8
OHNE_NAMEN
6
CONTINUOUS
62
5
39
0.0000
10
410.4993
20
243.0007
11
411.9986
21
243.0007
0
LINE
8
OHNE_NAMEN
6
CONTINUOUS
62
5
39
0.0000
10
411.9986
20
243.0007
11
455.4996
21
181.5006
0
LINE
8
OHNE_NAMEN
6
CONTINUOUS
62
5
39
0.0000
10
361.9994
20
181.5006
11
363.4987
21
181.5006
0
LINE
8
OHNE_NAMEN
6
CONTINUOUS
62
5
39
0.0000
10
456.9989
20
181.5006
11
455.4996
21
181.5006
0
LINE
8
OHNE_NAMEN
6
CONTINUOUS
62
5
39
0.0000
10
409.5009
20
244.5008
11
361.9994
21
177.5001
0
LINE
8
OHNE_NAMEN
6
CONTINUOUS
62
5
39
0.0000
10
456.9989
20
177.5001
11
409.5009
21
244.5008
0
LINE
8
OHNE_NAMEN
6
CONTINUOUS
62
5
39
0.0000
10
408.4990
20
239.0009
11
406.9997
21
239.0006
0
LINE
8
OHNE_NAMEN
6
CONTINUOUS
62
5
39
0.0000
10
363.4987
20
177.5005
11
406.9997
21
239.0006
0
LINE
8
OHNE_NAMEN
6
CONTINUOUS
62
5
39
0.0000
10
408.4990
20
242.0010
11
408.4990
21
239.0009
0
LINE
8
OHNE_NAMEN
6
CONTINUOUS
62
5
39
0.0000
10
408.4990
20
242.0010
11
410.4993
21
242.0010
0
LINE
8
OHNE_NAMEN
6
CONTINUOUS
62
5
39
0.0000
10
410.4993
20
242.0010
11
410.4993
21
239.0009
0
LINE
8
OHNE_NAMEN
6
CONTINUOUS
62
5
39
0.0000
10
410.4993
20
239.0009
11
411.9986
21
239.0006
0
LINE
8
OHNE_NAMEN
6
CONTINUOUS
62
5
39
0.0000
10
411.9986
20
239.0006
11
455.4996
21
177.5005
0
LINE
8
OHNE_NAMEN
6
CONTINUOUS
62
5
39
0.0000
10
361.9994
20
177.5005
11
363.4987
21
177.5005
0
LINE
8
OHNE_NAMEN
6
CONTINUOUS
62
5
39
0.0000
10
456.9989
20
177.5005
11
455.4996
21
177.5005
0
LINE
8
OHNE_NAMEN
6
CONTINUOUS
62
5
39
0.0000
10
409.5009
20
240.5006
11
361.9994
21
173.5004
0
LINE
8
OHNE_NAMEN
6
CONTINUOUS
62
5
39
0.0000
10
456.9989
20
173.5004
11
409.5009
21
240.5006
0
LINE
8
OHNE_NAMEN
6
CONTINUOUS
62
5
39
0.0000
10
408.4990
20
235.0008
11
406.9997
21
235.0004
0
LINE
8
OHNE_NAMEN
6
CONTINUOUS
62
5
39
0.0000
10
363.4987
20
173.5007
11
406.9997
21
235.0004
0
LINE
8
OHNE_NAMEN
6
CONTINUOUS
62
5
39
0.0000
10
408.4990
20
238.0008
11
408.4990
21
235.0008
0
LINE
8
OHNE_NAMEN
6
CONTINUOUS
62
5
39
0.0000
10
408.4990
20
238.0008
11
410.4993
21
238.0008
0
LINE
8
OHNE_NAMEN
6
CONTINUOUS
62
5
39
0.0000
10
410.4993
20
238.0008
11
410.4993
21
235.0008
0
LINE
8
OHNE_NAMEN
6
CONTINUOUS
62
5
39
0.0000
10
410.4993
20
235.0008
11
411.9986
21
235.0004
0
LINE
8
OHNE_NAMEN
6
CONTINUOUS
62
5
39
0.0000
10
411.9986
20
235.0004
11
455.4996
21
173.5007
0
LINE
8
OHNE_NAMEN
6
CONTINUOUS
62
5
39
0.0000
10
361.9994
20
173.5007
11
363.4987
21
173.5007
0
LINE
8
OHNE_NAMEN
6
CONTINUOUS
62
5
39
0.0000
10
456.9989
20
173.5007
11
455.4996
21
173.5007
0
LINE
8
OHNE_NAMEN
6
CONTINUOUS
62
5
39
0.0000
10
409.5009
20
236.5005
11
361.9994
21
169.5002
0
LINE
8
OHNE_NAMEN
6
CONTINUOUS
62
5
39
0.0000
10
456.9989
20
169.5002
11
409.5009
21
236.5005
0
LINE
8
OHNE_NAMEN
6
CONTINUOUS
62
5
39
0.0000
10
408.4990
20
231.0010
11
406.9997
21
231.0007
0
LINE
8
OHNE_NAMEN
6
CONTINUOUS
62
5
39
0.0000
10
363.4987
20
169.5005
11
406.9997
21
231.0007
0
LINE
8
OHNE_NAMEN
6
CONTINUOUS
62
5
39
0.0000
10
408.4990
20
234.0010
11
408.4990
21
231.0010
0
LINE
8
OHNE_NAMEN
6
CONTINUOUS
62
5
39
0.0000
10
408.4990
20
234.0010
11
410.4993
21
234.0010
0
LINE
8
OHNE_NAMEN
6
CONTINUOUS
62
5
39
0.0000
10
410.4993
20
234.0010
11
410.4993
21
231.0010
0
LINE
8
OHNE_NAMEN
6
CONTINUOUS
62
5
39
0.0000
10
410.4993
20
231.0010
11
411.9986
21
231.0007
0
LINE
8
OHNE_NAMEN
6
CONTINUOUS
62
5
39
0.0000
10
411.9986
20
231.0007
11
455.4996
21
169.5005
0
LINE
8
OHNE_NAMEN
6
CONTINUOUS
62
5
39
0.0000
10
361.9994
20
169.5005
11
363.4987
21
169.5005
0
LINE
8
OHNE_NAMEN
6
CONTINUOUS
62
5
39
0.0000
10
456.9989
20
169.5005
11
455.4996
21
169.5005
0
ENDSEC
0
EOF
