0
SECTION
2
HEADER
9
$ANGBASE
50
0.0
9
$ANGDIR
70
0
9
$AUNITS
70
0
9
$AUPREC
70
4
9
$ATTMODE
70
1
9
$EXTMIN
10
11.0000
20
46.9999
30
0.0000
9
$EXTMAX
10
192.0000
20
164.0000
30
0.0000
9
$ENDCAPS
280
1
9
$FILLMODE
70
1
9
$INSBASE
10
0.0000
20
0.0000
30
0.0000
9
$LIMMIN
10
0.0000
20
0.0000
9
$LIMMAX
10
192.0000
20
164.0000
9
$JOINSTYLE
280
1
9
$LUPREC
70
4
9
$MEASUREMENT
70
0
9
$SPLFRAME
70
1
0
ENDSEC
0
SECTION
2
TABLES
0
TABLE
2
LTYPE
70
1
0
LTYPE
2
CONTINUOUS
70
64
3
CONTINUOUS
72
65
73
0
40
0.0000
0
ENDTAB
0
TABLE
2
LAYER
70
1
0
LAYER
2
OHNE_NAMEN
70
64
62
5
6
CONTINUOUS
0
ENDTAB
0
ENDSEC
0
SECTION
2
BLOCKS
0
ENDSEC
0
SECTION
2
ENTITIES
0
LINE
8
OHNE_NAMEN
6
CONTINUOUS
62
5
39
0.0000
10
14.0000
20
49.0001
11
11.0000
21
49.0001
0
LINE
8
OHNE_NAMEN
6
CONTINUOUS
62
5
39
0.0000
10
11.0000
20
49.0001
11
11.0000
21
55.0002
0
LINE
8
OHNE_NAMEN
6
CONTINUOUS
62
5
39
0.0000
10
11.0000
20
55.0002
11
14.0000
21
55.0002
0
LINE
8
OHNE_NAMEN
6
CONTINUOUS
62
5
39
0.0000
10
14.0000
20
55.0002
11
14.0000
21
60.9999
0
LINE
8
OHNE_NAMEN
6
CONTINUOUS
62
5
39
0.0000
10
14.0000
20
60.9999
11
11.0000
21
60.9999
0
LINE
8
OHNE_NAMEN
6
CONTINUOUS
62
5
39
0.0000
10
11.0000
20
60.9999
11
11.0000
21
66.9999
0
LINE
8
OHNE_NAMEN
6
CONTINUOUS
62
5
39
0.0000
10
11.0000
20
66.9999
11
14.0000
21
66.9999
0
LINE
8
OHNE_NAMEN
6
CONTINUOUS
62
5
39
0.0000
10
14.0000
20
66.9999
11
14.0000
21
73.0000
0
LINE
8
OHNE_NAMEN
6
CONTINUOUS
62
5
39
0.0000
10
14.0000
20
73.0000
11
11.0000
21
73.0000
0
LINE
8
OHNE_NAMEN
6
CONTINUOUS
62
5
39
0.0000
10
11.0000
20
73.0000
11
11.0000
21
79.0000
0
LINE
8
OHNE_NAMEN
6
CONTINUOUS
62
5
39
0.0000
10
11.0000
20
79.0000
11
14.0000
21
79.0000
0
LINE
8
OHNE_NAMEN
6
CONTINUOUS
62
5
39
0.0000
10
14.0000
20
79.0000
11
14.0000
21
85.0000
0
LINE
8
OHNE_NAMEN
6
CONTINUOUS
62
5
39
0.0000
10
14.0000
20
85.0000
11
11.0000
21
85.0000
0
LINE
8
OHNE_NAMEN
6
CONTINUOUS
62
5
39
0.0000
10
11.0000
20
85.0000
11
11.0000
21
91.0001
0
LINE
8
OHNE_NAMEN
6
CONTINUOUS
62
5
39
0.0000
10
11.0000
20
91.0001
11
14.0000
21
91.0001
0
LINE
8
OHNE_NAMEN
6
CONTINUOUS
62
5
39
0.0000
10
14.0000
20
91.0001
11
14.0000
21
97.0001
0
LINE
8
OHNE_NAMEN
6
CONTINUOUS
62
5
39
0.0000
10
14.0000
20
97.0001
11
11.0000
21
97.0001
0
LINE
8
OHNE_NAMEN
6
CONTINUOUS
62
5
39
0.0000
10
11.0000
20
97.0001
11
11.0000
21
103.0002
0
LINE
8
OHNE_NAMEN
6
CONTINUOUS
62
5
39
0.0000
10
11.0000
20
103.0002
11
14.0000
21
103.0002
0
LINE
8
OHNE_NAMEN
6
CONTINUOUS
62
5
39
0.0000
10
14.0000
20
103.0002
11
14.0000
21
109.0002
0
LINE
8
OHNE_NAMEN
6
CONTINUOUS
62
5
39
0.0000
10
14.0000
20
109.0002
11
11.0000
21
109.0002
0
LINE
8
OHNE_NAMEN
6
CONTINUOUS
62
5
39
0.0000
10
11.0000
20
109.0002
11
11.0000
21
114.9999
0
LINE
8
OHNE_NAMEN
6
CONTINUOUS
62
5
39
0.0000
10
11.0000
20
114.9999
11
14.0000
21
114.9999
0
LINE
8
OHNE_NAMEN
6
CONTINUOUS
62
5
39
0.0000
10
14.0000
20
114.9999
11
14.0000
21
121.0000
0
LINE
8
OHNE_NAMEN
6
CONTINUOUS
62
5
39
0.0000
10
14.0000
20
121.0000
11
11.0000
21
121.0000
0
LINE
8
OHNE_NAMEN
6
CONTINUOUS
62
5
39
0.0000
10
11.0000
20
121.0000
11
11.0000
21
127.0000
0
LINE
8
OHNE_NAMEN
6
CONTINUOUS
62
5
39
0.0000
10
11.0000
20
127.0000
11
14.0000
21
127.0000
0
LINE
8
OHNE_NAMEN
6
CONTINUOUS
62
5
39
0.0000
10
14.0000
20
127.0000
11
14.0000
21
133.0000
0
LINE
8
OHNE_NAMEN
6
CONTINUOUS
62
5
39
0.0000
10
14.0000
20
133.0000
11
11.0000
21
133.0000
0
LINE
8
OHNE_NAMEN
6
CONTINUOUS
62
5
39
0.0000
10
11.0000
20
133.0000
11
11.0000
21
139.0001
0
LINE
8
OHNE_NAMEN
6
CONTINUOUS
62
5
39
0.0000
10
11.0000
20
139.0001
11
14.0000
21
139.0001
0
LINE
8
OHNE_NAMEN
6
CONTINUOUS
62
5
39
0.0000
10
14.0000
20
139.0001
11
14.0000
21
145.0001
0
LINE
8
OHNE_NAMEN
6
CONTINUOUS
62
5
39
0.0000
10
14.0000
20
145.0001
11
11.0000
21
145.0001
0
LINE
8
OHNE_NAMEN
6
CONTINUOUS
62
5
39
0.0000
10
11.0000
20
145.0001
11
11.0000
21
151.0002
0
LINE
8
OHNE_NAMEN
6
CONTINUOUS
62
5
39
0.0000
10
11.0000
20
151.0002
11
14.0000
21
151.0002
0
LINE
8
OHNE_NAMEN
6
CONTINUOUS
62
5
39
0.0000
10
14.0000
20
151.0002
11
14.0000
21
157.0002
0
LINE
8
OHNE_NAMEN
6
CONTINUOUS
62
5
39
0.0000
10
14.0000
20
157.0002
11
11.0000
21
157.0002
0
LINE
8
OHNE_NAMEN
6
CONTINUOUS
62
5
39
0.0000
10
11.0000
20
157.0002
11
11.0000
21
164.0000
0
LINE
8
OHNE_NAMEN
6
CONTINUOUS
62
5
39
0.0000
10
11.0000
20
164.0000
11
14.0000
21
164.0000
0
LINE
8
OHNE_NAMEN
6
CONTINUOUS
62
5
39
0.0000
10
14.0000
20
46.9999
11
14.0000
21
49.0001
0
LINE
8
OHNE_NAMEN
6
CONTINUOUS
62
1
39
0.0000
10
99.9998
20
70.0003
11
83.9999
21
70.0003
0
LINE
8
OHNE_NAMEN
6
CONTINUOUS
62
1
39
0.0000
10
125.0001
20
70.0003
11
108.9999
21
70.0003
0
LINE
8
OHNE_NAMEN
6
CONTINUOUS
62
1
39
0.0000
10
85.9998
20
127.0004
11
97.9999
21
127.0004
0
LINE
8
OHNE_NAMEN
6
CONTINUOUS
62
1
39
0.0000
10
110.9998
20
127.0004
11
122.9999
21
127.0004
0
LINE
8
OHNE_NAMEN
6
CONTINUOUS
62
5
39
0.0000
10
14.0000
20
47.0002
11
76.9997
21
47.0002
0
LINE
8
OHNE_NAMEN
6
CONTINUOUS
62
5
39
0.0000
10
77.0001
20
164.0000
11
13.0000
21
164.0000
0
LINE
8
OHNE_NAMEN
6
CONTINUOUS
62
5
39
0.0000
10
77.0001
20
164.0000
11
131.9999
21
164.0000
0
LINE
8
OHNE_NAMEN
6
CONTINUOUS
62
5
39
0.0000
10
77.0001
20
46.9999
11
131.9999
21
46.9999
0
LINE
8
OHNE_NAMEN
6
CONTINUOUS
62
1
39
0.0000
10
85.9882
20
127.0702
11
97.9879
21
127.0702
0
POLYLINE
8
OHNE_NAMEN
6
CONTINUOUS
62
7
66
1
10
0.0000
20
0.0000
70
0
40
0.0000
41
0.0000
0
VERTEX
8
OHNE_NAMEN
6
CONTINUOUS
62
7
10
85.9882
20
148.0704
0
VERTEX
8
OHNE_NAMEN
6
CONTINUOUS
62
7
10
86.3632
20
148.3205
0
SEQEND
8
OHNE_NAMEN
6
CONTINUOUS
62
7
0
POLYLINE
8
OHNE_NAMEN
6
CONTINUOUS
62
7
66
1
10
0.0000
20
0.0000
70
0
40
0.0000
41
0.0000
0
VERTEX
8
OHNE_NAMEN
6
CONTINUOUS
62
7
10
86.3632
20
148.3205
0
VERTEX
8
OHNE_NAMEN
6
CONTINUOUS
62
7
10
86.7227
20
148.5396
0
SEQEND
8
OHNE_NAMEN
6
CONTINUOUS
62
7
0
POLYLINE
8
OHNE_NAMEN
6
CONTINUOUS
62
7
66
1
10
0.0000
20
0.0000
70
0
40
0.0000
41
0.0000
0
VERTEX
8
OHNE_NAMEN
6
CONTINUOUS
62
7
10
86.7227
20
148.5396
0
VERTEX
8
OHNE_NAMEN
6
CONTINUOUS
62
7
10
87.0663
20
148.7318
0
SEQEND
8
OHNE_NAMEN
6
CONTINUOUS
62
7
0
POLYLINE
8
OHNE_NAMEN
6
CONTINUOUS
62
7
66
1
10
0.0000
20
0.0000
70
0
40
0.0000
41
0.0000
0
VERTEX
8
OHNE_NAMEN
6
CONTINUOUS
62
7
10
87.0663
20
148.7318
0
VERTEX
8
OHNE_NAMEN
6
CONTINUOUS
62
7
10
87.4102
20
148.9244
0
SEQEND
8
OHNE_NAMEN
6
CONTINUOUS
62
7
0
POLYLINE
8
OHNE_NAMEN
6
CONTINUOUS
62
7
66
1
10
0.0000
20
0.0000
70
0
40
0.0000
41
0.0000
0
VERTEX
8
OHNE_NAMEN
6
CONTINUOUS
62
7
10
87.4102
20
148.9244
0
VERTEX
8
OHNE_NAMEN
6
CONTINUOUS
62
7
10
87.7383
20
149.0899
0
SEQEND
8
OHNE_NAMEN
6
CONTINUOUS
62
7
0
POLYLINE
8
OHNE_NAMEN
6
CONTINUOUS
62
7
66
1
10
0.0000
20
0.0000
70
0
40
0.0000
41
0.0000
0
VERTEX
8
OHNE_NAMEN
6
CONTINUOUS
62
7
10
87.7383
20
149.0899
0
VERTEX
8
OHNE_NAMEN
6
CONTINUOUS
62
7
10
88.0512
20
149.2321
0
SEQEND
8
OHNE_NAMEN
6
CONTINUOUS
62
7
0
POLYLINE
8
OHNE_NAMEN
6
CONTINUOUS
62
7
66
1
10
0.0000
20
0.0000
70
0
40
0.0000
41
0.0000
0
VERTEX
8
OHNE_NAMEN
6
CONTINUOUS
62
7
10
88.0512
20
149.2321
0
VERTEX
8
OHNE_NAMEN
6
CONTINUOUS
62
7
10
88.3638
20
149.3742
0
SEQEND
8
OHNE_NAMEN
6
CONTINUOUS
62
7
0
POLYLINE
8
OHNE_NAMEN
6
CONTINUOUS
62
7
66
1
10
0.0000
20
0.0000
70
0
40
0.0000
41
0.0000
0
VERTEX
8
OHNE_NAMEN
6
CONTINUOUS
62
7
10
88.3638
20
149.3742
0
VERTEX
8
OHNE_NAMEN
6
CONTINUOUS
62
7
10
88.6608
20
149.4931
0
SEQEND
8
OHNE_NAMEN
6
CONTINUOUS
62
7
0
POLYLINE
8
OHNE_NAMEN
6
CONTINUOUS
62
7
66
1
10
0.0000
20
0.0000
70
0
40
0.0000
41
0.0000
0
VERTEX
8
OHNE_NAMEN
6
CONTINUOUS
62
7
10
88.6608
20
149.4931
0
VERTEX
8
OHNE_NAMEN
6
CONTINUOUS
62
7
10
88.9423
20
149.5929
0
SEQEND
8
OHNE_NAMEN
6
CONTINUOUS
62
7
0
POLYLINE
8
OHNE_NAMEN
6
CONTINUOUS
62
7
66
1
10
0.0000
20
0.0000
70
0
40
0.0000
41
0.0000
0
VERTEX
8
OHNE_NAMEN
6
CONTINUOUS
62
7
10
88.9423
20
149.5929
0
VERTEX
8
OHNE_NAMEN
6
CONTINUOUS
62
7
10
89.2238
20
149.6928
0
SEQEND
8
OHNE_NAMEN
6
CONTINUOUS
62
7
0
POLYLINE
8
OHNE_NAMEN
6
CONTINUOUS
62
7
66
1
10
0.0000
20
0.0000
70
0
40
0.0000
41
0.0000
0
VERTEX
8
OHNE_NAMEN
6
CONTINUOUS
62
7
10
89.2238
20
149.6928
0
VERTEX
8
OHNE_NAMEN
6
CONTINUOUS
62
7
10
89.4898
20
149.7729
0
SEQEND
8
OHNE_NAMEN
6
CONTINUOUS
62
7
0
POLYLINE
8
OHNE_NAMEN
6
CONTINUOUS
62
7
66
1
10
0.0000
20
0.0000
70
0
40
0.0000
41
0.0000
0
VERTEX
8
OHNE_NAMEN
6
CONTINUOUS
62
7
10
89.4898
20
149.7729
0
VERTEX
8
OHNE_NAMEN
6
CONTINUOUS
62
7
10
89.7400
20
149.8374
0
SEQEND
8
OHNE_NAMEN
6
CONTINUOUS
62
7
0
POLYLINE
8
OHNE_NAMEN
6
CONTINUOUS
62
7
66
1
10
0.0000
20
0.0000
70
0
40
0.0000
41
0.0000
0
VERTEX
8
OHNE_NAMEN
6
CONTINUOUS
62
7
10
89.7400
20
149.8374
0
VERTEX
8
OHNE_NAMEN
6
CONTINUOUS
62
7
10
89.9901
20
149.9020
0
SEQEND
8
OHNE_NAMEN
6
CONTINUOUS
62
7
0
POLYLINE
8
OHNE_NAMEN
6
CONTINUOUS
62
7
66
1
10
0.0000
20
0.0000
70
0
40
0.0000
41
0.0000
0
VERTEX
8
OHNE_NAMEN
6
CONTINUOUS
62
7
10
89.9901
20
149.9020
0
VERTEX
8
OHNE_NAMEN
6
CONTINUOUS
62
7
10
90.2247
20
149.9514
0
SEQEND
8
OHNE_NAMEN
6
CONTINUOUS
62
7
0
POLYLINE
8
OHNE_NAMEN
6
CONTINUOUS
62
7
66
1
10
0.0000
20
0.0000
70
0
40
0.0000
41
0.0000
0
VERTEX
8
OHNE_NAMEN
6
CONTINUOUS
62
7
10
90.2247
20
149.9514
0
VERTEX
8
OHNE_NAMEN
6
CONTINUOUS
62
7
10
90.4438
20
149.9881
0
SEQEND
8
OHNE_NAMEN
6
CONTINUOUS
62
7
0
POLYLINE
8
OHNE_NAMEN
6
CONTINUOUS
62
7
66
1
10
0.0000
20
0.0000
70
0
40
0.0000
41
0.0000
0
VERTEX
8
OHNE_NAMEN
6
CONTINUOUS
62
7
10
90.4438
20
149.9881
0
VERTEX
8
OHNE_NAMEN
6
CONTINUOUS
62
7
10
90.6625
20
150.0258
0
SEQEND
8
OHNE_NAMEN
6
CONTINUOUS
62
7
0
POLYLINE
8
OHNE_NAMEN
6
CONTINUOUS
62
7
66
1
10
0.0000
20
0.0000
70
0
40
0.0000
41
0.0000
0
VERTEX
8
OHNE_NAMEN
6
CONTINUOUS
62
7
10
90.6625
20
150.0258
0
VERTEX
8
OHNE_NAMEN
6
CONTINUOUS
62
7
10
90.8660
20
150.0505
0
SEQEND
8
OHNE_NAMEN
6
CONTINUOUS
62
7
0
POLYLINE
8
OHNE_NAMEN
6
CONTINUOUS
62
7
66
1
10
0.0000
20
0.0000
70
0
40
0.0000
41
0.0000
0
VERTEX
8
OHNE_NAMEN
6
CONTINUOUS
62
7
10
90.8660
20
150.0505
0
VERTEX
8
OHNE_NAMEN
6
CONTINUOUS
62
7
10
91.0537
20
150.0678
0
SEQEND
8
OHNE_NAMEN
6
CONTINUOUS
62
7
0
POLYLINE
8
OHNE_NAMEN
6
CONTINUOUS
62
7
66
1
10
0.0000
20
0.0000
70
0
40
0.0000
41
0.0000
0
VERTEX
8
OHNE_NAMEN
6
CONTINUOUS
62
7
10
91.0537
20
150.0678
0
VERTEX
8
OHNE_NAMEN
6
CONTINUOUS
62
7
10
91.2414
20
150.0851
0
SEQEND
8
OHNE_NAMEN
6
CONTINUOUS
62
7
0
POLYLINE
8
OHNE_NAMEN
6
CONTINUOUS
62
7
66
1
10
0.0000
20
0.0000
70
0
40
0.0000
41
0.0000
0
VERTEX
8
OHNE_NAMEN
6
CONTINUOUS
62
7
10
91.2414
20
150.0851
0
VERTEX
8
OHNE_NAMEN
6
CONTINUOUS
62
7
10
91.4132
20
150.0942
0
SEQEND
8
OHNE_NAMEN
6
CONTINUOUS
62
7
0
POLYLINE
8
OHNE_NAMEN
6
CONTINUOUS
62
7
66
1
10
0.0000
20
0.0000
70
0
40
0.0000
41
0.0000
0
VERTEX
8
OHNE_NAMEN
6
CONTINUOUS
62
7
10
91.4132
20
150.0942
0
VERTEX
8
OHNE_NAMEN
6
CONTINUOUS
62
7
10
91.5695
20
150.0992
0
SEQEND
8
OHNE_NAMEN
6
CONTINUOUS
62
7
0
POLYLINE
8
OHNE_NAMEN
6
CONTINUOUS
62
7
66
1
10
0.0000
20
0.0000
70
0
40
0.0000
41
0.0000
0
VERTEX
8
OHNE_NAMEN
6
CONTINUOUS
62
7
10
91.5695
20
150.0992
0
VERTEX
8
OHNE_NAMEN
6
CONTINUOUS
62
7
10
91.7261
20
150.1041
0
SEQEND
8
OHNE_NAMEN
6
CONTINUOUS
62
7
0
POLYLINE
8
OHNE_NAMEN
6
CONTINUOUS
62
7
66
1
10
0.0000
20
0.0000
70
0
40
0.0000
41
0.0000
0
VERTEX
8
OHNE_NAMEN
6
CONTINUOUS
62
7
10
91.7261
20
150.1041
0
VERTEX
8
OHNE_NAMEN
6
CONTINUOUS
62
7
10
91.8665
20
150.1045
0
SEQEND
8
OHNE_NAMEN
6
CONTINUOUS
62
7
0
POLYLINE
8
OHNE_NAMEN
6
CONTINUOUS
62
7
66
1
10
0.0000
20
0.0000
70
0
40
0.0000
41
0.0000
0
VERTEX
8
OHNE_NAMEN
6
CONTINUOUS
62
7
10
91.8665
20
150.1045
0
VERTEX
8
OHNE_NAMEN
6
CONTINUOUS
62
7
10
91.9917
20
150.1045
0
SEQEND
8
OHNE_NAMEN
6
CONTINUOUS
62
7
0
POLYLINE
8
OHNE_NAMEN
6
CONTINUOUS
62
7
66
1
10
0.0000
20
0.0000
70
0
40
0.0000
41
0.0000
0
VERTEX
8
OHNE_NAMEN
6
CONTINUOUS
62
7
10
97.9879
20
148.0704
0
VERTEX
8
OHNE_NAMEN
6
CONTINUOUS
62
7
10
97.6129
20
148.3205
0
SEQEND
8
OHNE_NAMEN
6
CONTINUOUS
62
7
0
POLYLINE
8
OHNE_NAMEN
6
CONTINUOUS
62
7
66
1
10
0.0000
20
0.0000
70
0
40
0.0000
41
0.0000
0
VERTEX
8
OHNE_NAMEN
6
CONTINUOUS
62
7
10
97.6129
20
148.3205
0
VERTEX
8
OHNE_NAMEN
6
CONTINUOUS
62
7
10
97.2538
20
148.5392
0
SEQEND
8
OHNE_NAMEN
6
CONTINUOUS
62
7
0
POLYLINE
8
OHNE_NAMEN
6
CONTINUOUS
62
7
66
1
10
0.0000
20
0.0000
70
0
40
0.0000
41
0.0000
0
VERTEX
8
OHNE_NAMEN
6
CONTINUOUS
62
7
10
97.2538
20
148.5392
0
VERTEX
8
OHNE_NAMEN
6
CONTINUOUS
62
7
10
96.9098
20
148.7304
0
SEQEND
8
OHNE_NAMEN
6
CONTINUOUS
62
7
0
POLYLINE
8
OHNE_NAMEN
6
CONTINUOUS
62
7
66
1
10
0.0000
20
0.0000
70
0
40
0.0000
41
0.0000
0
VERTEX
8
OHNE_NAMEN
6
CONTINUOUS
62
7
10
96.9098
20
148.7304
0
VERTEX
8
OHNE_NAMEN
6
CONTINUOUS
62
7
10
96.5662
20
148.9220
0
SEQEND
8
OHNE_NAMEN
6
CONTINUOUS
62
7
0
POLYLINE
8
OHNE_NAMEN
6
CONTINUOUS
62
7
66
1
10
0.0000
20
0.0000
70
0
40
0.0000
41
0.0000
0
VERTEX
8
OHNE_NAMEN
6
CONTINUOUS
62
7
10
96.5662
20
148.9220
0
VERTEX
8
OHNE_NAMEN
6
CONTINUOUS
62
7
10
96.2381
20
149.0860
0
SEQEND
8
OHNE_NAMEN
6
CONTINUOUS
62
7
0
POLYLINE
8
OHNE_NAMEN
6
CONTINUOUS
62
7
66
1
10
0.0000
20
0.0000
70
0
40
0.0000
41
0.0000
0
VERTEX
8
OHNE_NAMEN
6
CONTINUOUS
62
7
10
96.2381
20
149.0860
0
VERTEX
8
OHNE_NAMEN
6
CONTINUOUS
62
7
10
95.9256
20
149.2264
0
SEQEND
8
OHNE_NAMEN
6
CONTINUOUS
62
7
0
POLYLINE
8
OHNE_NAMEN
6
CONTINUOUS
62
7
66
1
10
0.0000
20
0.0000
70
0
40
0.0000
41
0.0000
0
VERTEX
8
OHNE_NAMEN
6
CONTINUOUS
62
7
10
95.9256
20
149.2264
0
VERTEX
8
OHNE_NAMEN
6
CONTINUOUS
62
7
10
95.6130
20
149.3675
0
SEQEND
8
OHNE_NAMEN
6
CONTINUOUS
62
7
0
POLYLINE
8
OHNE_NAMEN
6
CONTINUOUS
62
7
66
1
10
0.0000
20
0.0000
70
0
40
0.0000
41
0.0000
0
VERTEX
8
OHNE_NAMEN
6
CONTINUOUS
62
7
10
95.6130
20
149.3675
0
VERTEX
8
OHNE_NAMEN
6
CONTINUOUS
62
7
10
95.3163
20
149.4846
0
SEQEND
8
OHNE_NAMEN
6
CONTINUOUS
62
7
0
POLYLINE
8
OHNE_NAMEN
6
CONTINUOUS
62
7
66
1
10
0.0000
20
0.0000
70
0
40
0.0000
41
0.0000
0
VERTEX
8
OHNE_NAMEN
6
CONTINUOUS
62
7
10
95.3163
20
149.4846
0
VERTEX
8
OHNE_NAMEN
6
CONTINUOUS
62
7
10
95.0348
20
149.5820
0
SEQEND
8
OHNE_NAMEN
6
CONTINUOUS
62
7
0
POLYLINE
8
OHNE_NAMEN
6
CONTINUOUS
62
7
66
1
10
0.0000
20
0.0000
70
0
40
0.0000
41
0.0000
0
VERTEX
8
OHNE_NAMEN
6
CONTINUOUS
62
7
10
95.0348
20
149.5820
0
VERTEX
8
OHNE_NAMEN
6
CONTINUOUS
62
7
10
94.7536
20
149.6797
0
SEQEND
8
OHNE_NAMEN
6
CONTINUOUS
62
7
0
POLYLINE
8
OHNE_NAMEN
6
CONTINUOUS
62
7
66
1
10
0.0000
20
0.0000
70
0
40
0.0000
41
0.0000
0
VERTEX
8
OHNE_NAMEN
6
CONTINUOUS
62
7
10
94.7536
20
149.6797
0
VERTEX
8
OHNE_NAMEN
6
CONTINUOUS
62
7
10
94.4880
20
149.7577
0
SEQEND
8
OHNE_NAMEN
6
CONTINUOUS
62
7
0
POLYLINE
8
OHNE_NAMEN
6
CONTINUOUS
62
7
66
1
10
0.0000
20
0.0000
70
0
40
0.0000
41
0.0000
0
VERTEX
8
OHNE_NAMEN
6
CONTINUOUS
62
7
10
94.4880
20
149.7577
0
VERTEX
8
OHNE_NAMEN
6
CONTINUOUS
62
7
10
94.2379
20
149.8205
0
SEQEND
8
OHNE_NAMEN
6
CONTINUOUS
62
7
0
POLYLINE
8
OHNE_NAMEN
6
CONTINUOUS
62
7
66
1
10
0.0000
20
0.0000
70
0
40
0.0000
41
0.0000
0
VERTEX
8
OHNE_NAMEN
6
CONTINUOUS
62
7
10
94.2379
20
149.8205
0
VERTEX
8
OHNE_NAMEN
6
CONTINUOUS
62
7
10
93.9881
20
149.8829
0
SEQEND
8
OHNE_NAMEN
6
CONTINUOUS
62
7
0
POLYLINE
8
OHNE_NAMEN
6
CONTINUOUS
62
7
66
1
10
0.0000
20
0.0000
70
0
40
0.0000
41
0.0000
0
VERTEX
8
OHNE_NAMEN
6
CONTINUOUS
62
7
10
93.9881
20
149.8829
0
VERTEX
8
OHNE_NAMEN
6
CONTINUOUS
62
7
10
93.7535
20
149.9302
0
SEQEND
8
OHNE_NAMEN
6
CONTINUOUS
62
7
0
POLYLINE
8
OHNE_NAMEN
6
CONTINUOUS
62
7
66
1
10
0.0000
20
0.0000
70
0
40
0.0000
41
0.0000
0
VERTEX
8
OHNE_NAMEN
6
CONTINUOUS
62
7
10
93.7535
20
149.9302
0
VERTEX
8
OHNE_NAMEN
6
CONTINUOUS
62
7
10
93.5348
20
149.9651
0
SEQEND
8
OHNE_NAMEN
6
CONTINUOUS
62
7
0
POLYLINE
8
OHNE_NAMEN
6
CONTINUOUS
62
7
66
1
10
0.0000
20
0.0000
70
0
40
0.0000
41
0.0000
0
VERTEX
8
OHNE_NAMEN
6
CONTINUOUS
62
7
10
93.5348
20
149.9651
0
VERTEX
8
OHNE_NAMEN
6
CONTINUOUS
62
7
10
93.3161
20
150.0000
0
SEQEND
8
OHNE_NAMEN
6
CONTINUOUS
62
7
0
POLYLINE
8
OHNE_NAMEN
6
CONTINUOUS
62
7
66
1
10
0.0000
20
0.0000
70
0
40
0.0000
41
0.0000
0
VERTEX
8
OHNE_NAMEN
6
CONTINUOUS
62
7
10
93.3161
20
150.0000
0
VERTEX
8
OHNE_NAMEN
6
CONTINUOUS
62
7
10
93.1132
20
150.0233
0
SEQEND
8
OHNE_NAMEN
6
CONTINUOUS
62
7
0
POLYLINE
8
OHNE_NAMEN
6
CONTINUOUS
62
7
66
1
10
0.0000
20
0.0000
70
0
40
0.0000
41
0.0000
0
VERTEX
8
OHNE_NAMEN
6
CONTINUOUS
62
7
10
93.1132
20
150.0233
0
VERTEX
8
OHNE_NAMEN
6
CONTINUOUS
62
7
10
92.9256
20
150.0396
0
SEQEND
8
OHNE_NAMEN
6
CONTINUOUS
62
7
0
POLYLINE
8
OHNE_NAMEN
6
CONTINUOUS
62
7
66
1
10
0.0000
20
0.0000
70
0
40
0.0000
41
0.0000
0
VERTEX
8
OHNE_NAMEN
6
CONTINUOUS
62
7
10
92.9256
20
150.0396
0
VERTEX
8
OHNE_NAMEN
6
CONTINUOUS
62
7
10
92.7382
20
150.0547
0
SEQEND
8
OHNE_NAMEN
6
CONTINUOUS
62
7
0
POLYLINE
8
OHNE_NAMEN
6
CONTINUOUS
62
7
66
1
10
0.0000
20
0.0000
70
0
40
0.0000
41
0.0000
0
VERTEX
8
OHNE_NAMEN
6
CONTINUOUS
62
7
10
92.7382
20
150.0547
0
VERTEX
8
OHNE_NAMEN
6
CONTINUOUS
62
7
10
92.5661
20
150.0625
0
SEQEND
8
OHNE_NAMEN
6
CONTINUOUS
62
7
0
POLYLINE
8
OHNE_NAMEN
6
CONTINUOUS
62
7
66
1
10
0.0000
20
0.0000
70
0
40
0.0000
41
0.0000
0
VERTEX
8
OHNE_NAMEN
6
CONTINUOUS
62
7
10
92.5661
20
150.0625
0
VERTEX
8
OHNE_NAMEN
6
CONTINUOUS
62
7
10
92.4098
20
150.0664
0
SEQEND
8
OHNE_NAMEN
6
CONTINUOUS
62
7
0
POLYLINE
8
OHNE_NAMEN
6
CONTINUOUS
62
7
66
1
10
0.0000
20
0.0000
70
0
40
0.0000
41
0.0000
0
VERTEX
8
OHNE_NAMEN
6
CONTINUOUS
62
7
10
92.4098
20
150.0664
0
VERTEX
8
OHNE_NAMEN
6
CONTINUOUS
62
7
10
92.2539
20
150.0703
0
SEQEND
8
OHNE_NAMEN
6
CONTINUOUS
62
7
0
POLYLINE
8
OHNE_NAMEN
6
CONTINUOUS
62
7
66
1
10
0.0000
20
0.0000
70
0
40
0.0000
41
0.0000
0
VERTEX
8
OHNE_NAMEN
6
CONTINUOUS
62
7
10
92.2539
20
150.0703
0
VERTEX
8
OHNE_NAMEN
6
CONTINUOUS
62
7
10
92.1131
20
150.0703
0
SEQEND
8
OHNE_NAMEN
6
CONTINUOUS
62
7
0
POLYLINE
8
OHNE_NAMEN
6
CONTINUOUS
62
7
66
1
10
0.0000
20
0.0000
70
0
40
0.0000
41
0.0000
0
VERTEX
8
OHNE_NAMEN
6
CONTINUOUS
62
7
10
92.1131
20
150.0703
0
VERTEX
8
OHNE_NAMEN
6
CONTINUOUS
62
7
10
91.9882
20
150.0703
0
SEQEND
8
OHNE_NAMEN
6
CONTINUOUS
62
7
0
LINE
8
OHNE_NAMEN
6
CONTINUOUS
62
1
39
0.0000
10
92.5089
20
150.0808
11
91.5091
21
150.0886
0
LINE
8
OHNE_NAMEN
6
CONTINUOUS
62
7
39
0.0000
10
97.9265
20
125.0294
11
85.9264
21
125.0294
0
LINE
8
OHNE_NAMEN
6
CONTINUOUS
62
7
39
0.0000
10
97.9265
20
125.0294
11
97.9265
21
119.0293
0
LINE
8
OHNE_NAMEN
6
CONTINUOUS
62
7
39
0.0000
10
97.9265
20
119.0293
11
85.9264
21
119.0293
0
LINE
8
OHNE_NAMEN
6
CONTINUOUS
62
7
39
0.0000
10
85.9264
20
119.0293
11
85.9264
21
125.0294
0
LINE
8
OHNE_NAMEN
6
CONTINUOUS
62
1
39
0.0000
10
85.9998
20
127.0000
11
85.9264
21
148.0294
0
LINE
8
OHNE_NAMEN
6
CONTINUOUS
62
1
39
0.0000
10
97.9999
20
127.0000
11
97.9265
21
148.0294
0
LINE
8
OHNE_NAMEN
6
CONTINUOUS
62
7
39
0.1528
10
87.0172
20
119.0293
11
87.0172
21
120.0295
0
LINE
8
OHNE_NAMEN
6
CONTINUOUS
62
7
39
0.1528
10
89.0171
20
119.0293
11
89.0171
21
120.0295
0
LINE
8
OHNE_NAMEN
6
CONTINUOUS
62
7
39
0.1528
10
91.0174
20
119.0293
11
91.0174
21
120.0295
0
LINE
8
OHNE_NAMEN
6
CONTINUOUS
62
7
39
0.1528
10
93.0173
20
119.0293
11
93.0173
21
120.0295
0
LINE
8
OHNE_NAMEN
6
CONTINUOUS
62
7
39
0.1528
10
95.0172
20
119.0293
11
95.0172
21
120.0295
0
LINE
8
OHNE_NAMEN
6
CONTINUOUS
62
7
39
0.1528
10
97.0174
20
119.0293
11
97.0174
21
120.0295
0
LINE
8
OHNE_NAMEN
6
CONTINUOUS
62
7
39
0.1528
10
87.0172
20
121.0296
11
87.0172
21
122.0294
0
LINE
8
OHNE_NAMEN
6
CONTINUOUS
62
7
39
0.1528
10
89.0171
20
121.0296
11
89.0171
21
122.0294
0
LINE
8
OHNE_NAMEN
6
CONTINUOUS
62
7
39
0.1528
10
91.0174
20
121.0296
11
91.0174
21
122.0294
0
LINE
8
OHNE_NAMEN
6
CONTINUOUS
62
7
39
0.1528
10
93.0173
20
121.0296
11
93.0173
21
122.0294
0
LINE
8
OHNE_NAMEN
6
CONTINUOUS
62
7
39
0.1528
10
95.0172
20
121.0296
11
95.0172
21
122.0294
0
LINE
8
OHNE_NAMEN
6
CONTINUOUS
62
7
39
0.1528
10
97.0174
20
121.0296
11
97.0174
21
122.0294
0
LINE
8
OHNE_NAMEN
6
CONTINUOUS
62
7
39
0.1528
10
87.0172
20
123.0295
11
87.0172
21
124.0293
0
LINE
8
OHNE_NAMEN
6
CONTINUOUS
62
7
39
0.1528
10
89.0171
20
123.0295
11
89.0171
21
124.0293
0
LINE
8
OHNE_NAMEN
6
CONTINUOUS
62
7
39
0.1528
10
91.0174
20
123.0295
11
91.0174
21
124.0293
0
LINE
8
OHNE_NAMEN
6
CONTINUOUS
62
7
39
0.1528
10
93.0173
20
123.0295
11
93.0173
21
124.0293
0
LINE
8
OHNE_NAMEN
6
CONTINUOUS
62
7
39
0.1528
10
95.0172
20
123.0295
11
95.0172
21
124.0293
0
LINE
8
OHNE_NAMEN
6
CONTINUOUS
62
7
39
0.1528
10
97.0174
20
123.0295
11
97.0174
21
124.0293
0
LINE
8
OHNE_NAMEN
6
CONTINUOUS
62
7
39
0.1528
10
88.0173
20
120.0295
11
88.0173
21
121.0296
0
LINE
8
OHNE_NAMEN
6
CONTINUOUS
62
7
39
0.1528
10
90.0172
20
120.0295
11
90.0172
21
121.0296
0
LINE
8
OHNE_NAMEN
6
CONTINUOUS
62
7
39
0.1528
10
92.0175
20
120.0295
11
92.0175
21
121.0296
0
LINE
8
OHNE_NAMEN
6
CONTINUOUS
62
7
39
0.1528
10
94.0174
20
120.0295
11
94.0174
21
121.0296
0
LINE
8
OHNE_NAMEN
6
CONTINUOUS
62
7
39
0.1528
10
96.0173
20
120.0295
11
96.0173
21
121.0296
0
LINE
8
OHNE_NAMEN
6
CONTINUOUS
62
7
39
0.1528
10
88.0173
20
122.0294
11
88.0173
21
123.0295
0
LINE
8
OHNE_NAMEN
6
CONTINUOUS
62
7
39
0.1528
10
90.0172
20
122.0294
11
90.0172
21
123.0295
0
LINE
8
OHNE_NAMEN
6
CONTINUOUS
62
7
39
0.1528
10
92.0175
20
122.0294
11
92.0175
21
123.0295
0
LINE
8
OHNE_NAMEN
6
CONTINUOUS
62
7
39
0.1528
10
94.0174
20
122.0294
11
94.0174
21
123.0295
0
LINE
8
OHNE_NAMEN
6
CONTINUOUS
62
7
39
0.1528
10
96.0173
20
122.0294
11
96.0173
21
123.0295
0
LINE
8
OHNE_NAMEN
6
CONTINUOUS
62
7
39
0.1528
10
88.0173
20
124.0293
11
88.0173
21
125.0294
0
LINE
8
OHNE_NAMEN
6
CONTINUOUS
62
7
39
0.1528
10
90.0172
20
124.0293
11
90.0172
21
125.0294
0
LINE
8
OHNE_NAMEN
6
CONTINUOUS
62
7
39
0.1528
10
92.0175
20
124.0293
11
92.0175
21
125.0294
0
LINE
8
OHNE_NAMEN
6
CONTINUOUS
62
7
39
0.1528
10
94.0174
20
124.0293
11
94.0174
21
125.0294
0
LINE
8
OHNE_NAMEN
6
CONTINUOUS
62
7
39
0.1528
10
96.0173
20
124.0293
11
96.0173
21
125.0294
0
LINE
8
OHNE_NAMEN
6
CONTINUOUS
62
7
39
0.1528
10
85.9998
20
123.9996
11
97.9999
21
123.9996
0
LINE
8
OHNE_NAMEN
6
CONTINUOUS
62
7
39
0.1528
10
85.9998
20
122.0001
11
97.9999
21
122.0001
0
LINE
8
OHNE_NAMEN
6
CONTINUOUS
62
7
39
0.1528
10
85.9998
20
122.9995
11
97.9999
21
122.9995
0
LINE
8
OHNE_NAMEN
6
CONTINUOUS
62
7
39
0.1528
10
85.9998
20
120.9996
11
97.9999
21
120.9996
0
LINE
8
OHNE_NAMEN
6
CONTINUOUS
62
7
39
0.1528
10
85.9998
20
120.0002
11
97.9999
21
120.0002
0
LINE
8
OHNE_NAMEN
6
CONTINUOUS
62
1
39
0.1528
10
85.9998
20
143.9996
11
85.4999
21
143.9996
0
LINE
8
OHNE_NAMEN
6
CONTINUOUS
62
1
39
0.1528
10
85.9998
20
142.9995
11
85.4999
21
142.9995
0
LINE
8
OHNE_NAMEN
6
CONTINUOUS
62
1
39
0.1528
10
85.9998
20
139.0001
11
85.4999
21
139.0001
0
LINE
8
OHNE_NAMEN
6
CONTINUOUS
62
1
39
0.1528
10
85.9998
20
137.9996
11
85.4999
21
137.9996
0
LINE
8
OHNE_NAMEN
6
CONTINUOUS
62
1
39
0.1528
10
85.9998
20
136.9995
11
85.4999
21
136.9995
0
LINE
8
OHNE_NAMEN
6
CONTINUOUS
62
1
39
0.1528
10
85.9998
20
135.9997
11
85.4999
21
135.9997
0
LINE
8
OHNE_NAMEN
6
CONTINUOUS
62
1
39
0.1528
10
85.9998
20
134.9996
11
85.4999
21
134.9996
0
LINE
8
OHNE_NAMEN
6
CONTINUOUS
62
1
39
0.1528
10
85.9998
20
133.9998
11
85.4999
21
133.9998
0
LINE
8
OHNE_NAMEN
6
CONTINUOUS
62
1
39
0.1528
10
85.9998
20
132.9997
11
85.4999
21
132.9997
0
LINE
8
OHNE_NAMEN
6
CONTINUOUS
62
1
39
0.1528
10
85.9998
20
131.9996
11
85.4999
21
131.9996
0
LINE
8
OHNE_NAMEN
6
CONTINUOUS
62
1
39
0.1528
10
85.9998
20
131.0001
11
85.4999
21
131.0001
0
LINE
8
OHNE_NAMEN
6
CONTINUOUS
62
1
39
0.1528
10
85.9998
20
130.0000
11
85.4999
21
130.0000
0
LINE
8
OHNE_NAMEN
6
CONTINUOUS
62
1
39
0.1528
10
85.9998
20
128.9995
11
85.4999
21
128.9995
0
LINE
8
OHNE_NAMEN
6
CONTINUOUS
62
1
39
0.1528
10
98.4998
20
143.9996
11
97.9999
21
143.9996
0
LINE
8
OHNE_NAMEN
6
CONTINUOUS
62
1
39
0.1528
10
98.4998
20
142.9995
11
97.9999
21
142.9995
0
LINE
8
OHNE_NAMEN
6
CONTINUOUS
62
1
39
0.1528
10
98.4998
20
139.0001
11
97.9999
21
139.0001
0
LINE
8
OHNE_NAMEN
6
CONTINUOUS
62
1
39
0.1528
10
98.4998
20
137.9996
11
97.9999
21
137.9996
0
LINE
8
OHNE_NAMEN
6
CONTINUOUS
62
1
39
0.1528
10
98.4998
20
136.9995
11
97.9999
21
136.9995
0
LINE
8
OHNE_NAMEN
6
CONTINUOUS
62
1
39
0.1528
10
98.4998
20
135.9997
11
97.9999
21
135.9997
0
LINE
8
OHNE_NAMEN
6
CONTINUOUS
62
1
39
0.1528
10
98.4998
20
134.9996
11
97.9999
21
134.9996
0
LINE
8
OHNE_NAMEN
6
CONTINUOUS
62
1
39
0.1528
10
98.4998
20
133.9998
11
97.9999
21
133.9998
0
LINE
8
OHNE_NAMEN
6
CONTINUOUS
62
1
39
0.1528
10
98.4998
20
132.9997
11
97.9999
21
132.9997
0
LINE
8
OHNE_NAMEN
6
CONTINUOUS
62
1
39
0.1528
10
98.4998
20
131.9996
11
97.9999
21
131.9996
0
LINE
8
OHNE_NAMEN
6
CONTINUOUS
62
1
39
0.1528
10
98.4998
20
131.0001
11
97.9999
21
131.0001
0
LINE
8
OHNE_NAMEN
6
CONTINUOUS
62
1
39
0.1528
10
98.4998
20
130.0000
11
97.9999
21
130.0000
0
LINE
8
OHNE_NAMEN
6
CONTINUOUS
62
1
39
0.1528
10
98.4998
20
128.9995
11
97.9999
21
128.9995
0
LINE
8
OHNE_NAMEN
6
CONTINUOUS
62
1
39
0.0000
10
110.9885
20
127.0702
11
122.9882
21
127.0702
0
POLYLINE
8
OHNE_NAMEN
6
CONTINUOUS
62
7
66
1
10
0.0000
20
0.0000
70
0
40
0.0000
41
0.0000
0
VERTEX
8
OHNE_NAMEN
6
CONTINUOUS
62
7
10
110.9885
20
148.0704
0
VERTEX
8
OHNE_NAMEN
6
CONTINUOUS
62
7
10
111.3635
20
148.3205
0
SEQEND
8
OHNE_NAMEN
6
CONTINUOUS
62
7
0
POLYLINE
8
OHNE_NAMEN
6
CONTINUOUS
62
7
66
1
10
0.0000
20
0.0000
70
0
40
0.0000
41
0.0000
0
VERTEX
8
OHNE_NAMEN
6
CONTINUOUS
62
7
10
111.3635
20
148.3205
0
VERTEX
8
OHNE_NAMEN
6
CONTINUOUS
62
7
10
111.7230
20
148.5396
0
SEQEND
8
OHNE_NAMEN
6
CONTINUOUS
62
7
0
POLYLINE
8
OHNE_NAMEN
6
CONTINUOUS
62
7
66
1
10
0.0000
20
0.0000
70
0
40
0.0000
41
0.0000
0
VERTEX
8
OHNE_NAMEN
6
CONTINUOUS
62
7
10
111.7230
20
148.5396
0
VERTEX
8
OHNE_NAMEN
6
CONTINUOUS
62
7
10
112.0666
20
148.7318
0
SEQEND
8
OHNE_NAMEN
6
CONTINUOUS
62
7
0
POLYLINE
8
OHNE_NAMEN
6
CONTINUOUS
62
7
66
1
10
0.0000
20
0.0000
70
0
40
0.0000
41
0.0000
0
VERTEX
8
OHNE_NAMEN
6
CONTINUOUS
62
7
10
112.0666
20
148.7318
0
VERTEX
8
OHNE_NAMEN
6
CONTINUOUS
62
7
10
112.4105
20
148.9244
0
SEQEND
8
OHNE_NAMEN
6
CONTINUOUS
62
7
0
POLYLINE
8
OHNE_NAMEN
6
CONTINUOUS
62
7
66
1
10
0.0000
20
0.0000
70
0
40
0.0000
41
0.0000
0
VERTEX
8
OHNE_NAMEN
6
CONTINUOUS
62
7
10
112.4105
20
148.9244
0
VERTEX
8
OHNE_NAMEN
6
CONTINUOUS
62
7
10
112.7386
20
149.0899
0
SEQEND
8
OHNE_NAMEN
6
CONTINUOUS
62
7
0
POLYLINE
8
OHNE_NAMEN
6
CONTINUOUS
62
7
66
1
10
0.0000
20
0.0000
70
0
40
0.0000
41
0.0000
0
VERTEX
8
OHNE_NAMEN
6
CONTINUOUS
62
7
10
112.7386
20
149.0899
0
VERTEX
8
OHNE_NAMEN
6
CONTINUOUS
62
7
10
113.0515
20
149.2321
0
SEQEND
8
OHNE_NAMEN
6
CONTINUOUS
62
7
0
POLYLINE
8
OHNE_NAMEN
6
CONTINUOUS
62
7
66
1
10
0.0000
20
0.0000
70
0
40
0.0000
41
0.0000
0
VERTEX
8
OHNE_NAMEN
6
CONTINUOUS
62
7
10
113.0515
20
149.2321
0
VERTEX
8
OHNE_NAMEN
6
CONTINUOUS
62
7
10
113.3641
20
149.3742
0
SEQEND
8
OHNE_NAMEN
6
CONTINUOUS
62
7
0
POLYLINE
8
OHNE_NAMEN
6
CONTINUOUS
62
7
66
1
10
0.0000
20
0.0000
70
0
40
0.0000
41
0.0000
0
VERTEX
8
OHNE_NAMEN
6
CONTINUOUS
62
7
10
113.3641
20
149.3742
0
VERTEX
8
OHNE_NAMEN
6
CONTINUOUS
62
7
10
113.6611
20
149.4931
0
SEQEND
8
OHNE_NAMEN
6
CONTINUOUS
62
7
0
POLYLINE
8
OHNE_NAMEN
6
CONTINUOUS
62
7
66
1
10
0.0000
20
0.0000
70
0
40
0.0000
41
0.0000
0
VERTEX
8
OHNE_NAMEN
6
CONTINUOUS
62
7
10
113.6611
20
149.4931
0
VERTEX
8
OHNE_NAMEN
6
CONTINUOUS
62
7
10
113.9426
20
149.5929
0
SEQEND
8
OHNE_NAMEN
6
CONTINUOUS
62
7
0
POLYLINE
8
OHNE_NAMEN
6
CONTINUOUS
62
7
66
1
10
0.0000
20
0.0000
70
0
40
0.0000
41
0.0000
0
VERTEX
8
OHNE_NAMEN
6
CONTINUOUS
62
7
10
113.9426
20
149.5929
0
VERTEX
8
OHNE_NAMEN
6
CONTINUOUS
62
7
10
114.2241
20
149.6928
0
SEQEND
8
OHNE_NAMEN
6
CONTINUOUS
62
7
0
POLYLINE
8
OHNE_NAMEN
6
CONTINUOUS
62
7
66
1
10
0.0000
20
0.0000
70
0
40
0.0000
41
0.0000
0
VERTEX
8
OHNE_NAMEN
6
CONTINUOUS
62
7
10
114.2241
20
149.6928
0
VERTEX
8
OHNE_NAMEN
6
CONTINUOUS
62
7
10
114.4901
20
149.7729
0
SEQEND
8
OHNE_NAMEN
6
CONTINUOUS
62
7
0
POLYLINE
8
OHNE_NAMEN
6
CONTINUOUS
62
7
66
1
10
0.0000
20
0.0000
70
0
40
0.0000
41
0.0000
0
VERTEX
8
OHNE_NAMEN
6
CONTINUOUS
62
7
10
114.4901
20
149.7729
0
VERTEX
8
OHNE_NAMEN
6
CONTINUOUS
62
7
10
114.7403
20
149.8374
0
SEQEND
8
OHNE_NAMEN
6
CONTINUOUS
62
7
0
POLYLINE
8
OHNE_NAMEN
6
CONTINUOUS
62
7
66
1
10
0.0000
20
0.0000
70
0
40
0.0000
41
0.0000
0
VERTEX
8
OHNE_NAMEN
6
CONTINUOUS
62
7
10
114.7403
20
149.8374
0
VERTEX
8
OHNE_NAMEN
6
CONTINUOUS
62
7
10
114.9904
20
149.9020
0
SEQEND
8
OHNE_NAMEN
6
CONTINUOUS
62
7
0
POLYLINE
8
OHNE_NAMEN
6
CONTINUOUS
62
7
66
1
10
0.0000
20
0.0000
70
0
40
0.0000
41
0.0000
0
VERTEX
8
OHNE_NAMEN
6
CONTINUOUS
62
7
10
114.9904
20
149.9020
0
VERTEX
8
OHNE_NAMEN
6
CONTINUOUS
62
7
10
115.2250
20
149.9510
0
SEQEND
8
OHNE_NAMEN
6
CONTINUOUS
62
7
0
POLYLINE
8
OHNE_NAMEN
6
CONTINUOUS
62
7
66
1
10
0.0000
20
0.0000
70
0
40
0.0000
41
0.0000
0
VERTEX
8
OHNE_NAMEN
6
CONTINUOUS
62
7
10
115.2250
20
149.9510
0
VERTEX
8
OHNE_NAMEN
6
CONTINUOUS
62
7
10
115.4441
20
149.9881
0
SEQEND
8
OHNE_NAMEN
6
CONTINUOUS
62
7
0
POLYLINE
8
OHNE_NAMEN
6
CONTINUOUS
62
7
66
1
10
0.0000
20
0.0000
70
0
40
0.0000
41
0.0000
0
VERTEX
8
OHNE_NAMEN
6
CONTINUOUS
62
7
10
115.4441
20
149.9881
0
VERTEX
8
OHNE_NAMEN
6
CONTINUOUS
62
7
10
115.6628
20
150.0255
0
SEQEND
8
OHNE_NAMEN
6
CONTINUOUS
62
7
0
POLYLINE
8
OHNE_NAMEN
6
CONTINUOUS
62
7
66
1
10
0.0000
20
0.0000
70
0
40
0.0000
41
0.0000
0
VERTEX
8
OHNE_NAMEN
6
CONTINUOUS
62
7
10
115.6628
20
150.0255
0
VERTEX
8
OHNE_NAMEN
6
CONTINUOUS
62
7
10
115.8663
20
150.0505
0
SEQEND
8
OHNE_NAMEN
6
CONTINUOUS
62
7
0
POLYLINE
8
OHNE_NAMEN
6
CONTINUOUS
62
7
66
1
10
0.0000
20
0.0000
70
0
40
0.0000
41
0.0000
0
VERTEX
8
OHNE_NAMEN
6
CONTINUOUS
62
7
10
115.8663
20
150.0505
0
VERTEX
8
OHNE_NAMEN
6
CONTINUOUS
62
7
10
116.0540
20
150.0678
0
SEQEND
8
OHNE_NAMEN
6
CONTINUOUS
62
7
0
POLYLINE
8
OHNE_NAMEN
6
CONTINUOUS
62
7
66
1
10
0.0000
20
0.0000
70
0
40
0.0000
41
0.0000
0
VERTEX
8
OHNE_NAMEN
6
CONTINUOUS
62
7
10
116.0540
20
150.0678
0
VERTEX
8
OHNE_NAMEN
6
CONTINUOUS
62
7
10
116.2417
20
150.0851
0
SEQEND
8
OHNE_NAMEN
6
CONTINUOUS
62
7
0
POLYLINE
8
OHNE_NAMEN
6
CONTINUOUS
62
7
66
1
10
0.0000
20
0.0000
70
0
40
0.0000
41
0.0000
0
VERTEX
8
OHNE_NAMEN
6
CONTINUOUS
62
7
10
116.2417
20
150.0851
0
VERTEX
8
OHNE_NAMEN
6
CONTINUOUS
62
7
10
116.4135
20
150.0942
0
SEQEND
8
OHNE_NAMEN
6
CONTINUOUS
62
7
0
POLYLINE
8
OHNE_NAMEN
6
CONTINUOUS
62
7
66
1
10
0.0000
20
0.0000
70
0
40
0.0000
41
0.0000
0
VERTEX
8
OHNE_NAMEN
6
CONTINUOUS
62
7
10
116.4135
20
150.0942
0
VERTEX
8
OHNE_NAMEN
6
CONTINUOUS
62
7
10
116.5698
20
150.0992
0
SEQEND
8
OHNE_NAMEN
6
CONTINUOUS
62
7
0
POLYLINE
8
OHNE_NAMEN
6
CONTINUOUS
62
7
66
1
10
0.0000
20
0.0000
70
0
40
0.0000
41
0.0000
0
VERTEX
8
OHNE_NAMEN
6
CONTINUOUS
62
7
10
116.5698
20
150.0992
0
VERTEX
8
OHNE_NAMEN
6
CONTINUOUS
62
7
10
116.7264
20
150.1041
0
SEQEND
8
OHNE_NAMEN
6
CONTINUOUS
62
7
0
POLYLINE
8
OHNE_NAMEN
6
CONTINUOUS
62
7
66
1
10
0.0000
20
0.0000
70
0
40
0.0000
41
0.0000
0
VERTEX
8
OHNE_NAMEN
6
CONTINUOUS
62
7
10
116.7264
20
150.1041
0
VERTEX
8
OHNE_NAMEN
6
CONTINUOUS
62
7
10
116.8668
20
150.1045
0
SEQEND
8
OHNE_NAMEN
6
CONTINUOUS
62
7
0
POLYLINE
8
OHNE_NAMEN
6
CONTINUOUS
62
7
66
1
10
0.0000
20
0.0000
70
0
40
0.0000
41
0.0000
0
VERTEX
8
OHNE_NAMEN
6
CONTINUOUS
62
7
10
116.8668
20
150.1045
0
VERTEX
8
OHNE_NAMEN
6
CONTINUOUS
62
7
10
116.9921
20
150.1045
0
SEQEND
8
OHNE_NAMEN
6
CONTINUOUS
62
7
0
POLYLINE
8
OHNE_NAMEN
6
CONTINUOUS
62
7
66
1
10
0.0000
20
0.0000
70
0
40
0.0000
41
0.0000
0
VERTEX
8
OHNE_NAMEN
6
CONTINUOUS
62
7
10
122.9882
20
148.0704
0
VERTEX
8
OHNE_NAMEN
6
CONTINUOUS
62
7
10
122.6132
20
148.3205
0
SEQEND
8
OHNE_NAMEN
6
CONTINUOUS
62
7
0
POLYLINE
8
OHNE_NAMEN
6
CONTINUOUS
62
7
66
1
10
0.0000
20
0.0000
70
0
40
0.0000
41
0.0000
0
VERTEX
8
OHNE_NAMEN
6
CONTINUOUS
62
7
10
122.6132
20
148.3205
0
VERTEX
8
OHNE_NAMEN
6
CONTINUOUS
62
7
10
122.2541
20
148.5392
0
SEQEND
8
OHNE_NAMEN
6
CONTINUOUS
62
7
0
POLYLINE
8
OHNE_NAMEN
6
CONTINUOUS
62
7
66
1
10
0.0000
20
0.0000
70
0
40
0.0000
41
0.0000
0
VERTEX
8
OHNE_NAMEN
6
CONTINUOUS
62
7
10
122.2541
20
148.5392
0
VERTEX
8
OHNE_NAMEN
6
CONTINUOUS
62
7
10
121.9101
20
148.7304
0
SEQEND
8
OHNE_NAMEN
6
CONTINUOUS
62
7
0
POLYLINE
8
OHNE_NAMEN
6
CONTINUOUS
62
7
66
1
10
0.0000
20
0.0000
70
0
40
0.0000
41
0.0000
0
VERTEX
8
OHNE_NAMEN
6
CONTINUOUS
62
7
10
121.9101
20
148.7304
0
VERTEX
8
OHNE_NAMEN
6
CONTINUOUS
62
7
10
121.5665
20
148.9220
0
SEQEND
8
OHNE_NAMEN
6
CONTINUOUS
62
7
0
POLYLINE
8
OHNE_NAMEN
6
CONTINUOUS
62
7
66
1
10
0.0000
20
0.0000
70
0
40
0.0000
41
0.0000
0
VERTEX
8
OHNE_NAMEN
6
CONTINUOUS
62
7
10
121.5665
20
148.9220
0
VERTEX
8
OHNE_NAMEN
6
CONTINUOUS
62
7
10
121.2384
20
149.0860
0
SEQEND
8
OHNE_NAMEN
6
CONTINUOUS
62
7
0
POLYLINE
8
OHNE_NAMEN
6
CONTINUOUS
62
7
66
1
10
0.0000
20
0.0000
70
0
40
0.0000
41
0.0000
0
VERTEX
8
OHNE_NAMEN
6
CONTINUOUS
62
7
10
121.2384
20
149.0860
0
VERTEX
8
OHNE_NAMEN
6
CONTINUOUS
62
7
10
120.9259
20
149.2264
0
SEQEND
8
OHNE_NAMEN
6
CONTINUOUS
62
7
0
POLYLINE
8
OHNE_NAMEN
6
CONTINUOUS
62
7
66
1
10
0.0000
20
0.0000
70
0
40
0.0000
41
0.0000
0
VERTEX
8
OHNE_NAMEN
6
CONTINUOUS
62
7
10
120.9259
20
149.2264
0
VERTEX
8
OHNE_NAMEN
6
CONTINUOUS
62
7
10
120.6133
20
149.3675
0
SEQEND
8
OHNE_NAMEN
6
CONTINUOUS
62
7
0
POLYLINE
8
OHNE_NAMEN
6
CONTINUOUS
62
7
66
1
10
0.0000
20
0.0000
70
0
40
0.0000
41
0.0000
0
VERTEX
8
OHNE_NAMEN
6
CONTINUOUS
62
7
10
120.6133
20
149.3675
0
VERTEX
8
OHNE_NAMEN
6
CONTINUOUS
62
7
10
120.3166
20
149.4843
0
SEQEND
8
OHNE_NAMEN
6
CONTINUOUS
62
7
0
POLYLINE
8
OHNE_NAMEN
6
CONTINUOUS
62
7
66
1
10
0.0000
20
0.0000
70
0
40
0.0000
41
0.0000
0
VERTEX
8
OHNE_NAMEN
6
CONTINUOUS
62
7
10
120.3166
20
149.4843
0
VERTEX
8
OHNE_NAMEN
6
CONTINUOUS
62
7
10
120.0351
20
149.5820
0
SEQEND
8
OHNE_NAMEN
6
CONTINUOUS
62
7
0
POLYLINE
8
OHNE_NAMEN
6
CONTINUOUS
62
7
66
1
10
0.0000
20
0.0000
70
0
40
0.0000
41
0.0000
0
VERTEX
8
OHNE_NAMEN
6
CONTINUOUS
62
7
10
120.0351
20
149.5820
0
VERTEX
8
OHNE_NAMEN
6
CONTINUOUS
62
7
10
119.7539
20
149.6797
0
SEQEND
8
OHNE_NAMEN
6
CONTINUOUS
62
7
0
POLYLINE
8
OHNE_NAMEN
6
CONTINUOUS
62
7
66
1
10
0.0000
20
0.0000
70
0
40
0.0000
41
0.0000
0
VERTEX
8
OHNE_NAMEN
6
CONTINUOUS
62
7
10
119.7539
20
149.6797
0
VERTEX
8
OHNE_NAMEN
6
CONTINUOUS
62
7
10
119.4883
20
149.7577
0
SEQEND
8
OHNE_NAMEN
6
CONTINUOUS
62
7
0
POLYLINE
8
OHNE_NAMEN
6
CONTINUOUS
62
7
66
1
10
0.0000
20
0.0000
70
0
40
0.0000
41
0.0000
0
VERTEX
8
OHNE_NAMEN
6
CONTINUOUS
62
7
10
119.4883
20
149.7577
0
VERTEX
8
OHNE_NAMEN
6
CONTINUOUS
62
7
10
119.2382
20
149.8205
0
SEQEND
8
OHNE_NAMEN
6
CONTINUOUS
62
7
0
POLYLINE
8
OHNE_NAMEN
6
CONTINUOUS
62
7
66
1
10
0.0000
20
0.0000
70
0
40
0.0000
41
0.0000
0
VERTEX
8
OHNE_NAMEN
6
CONTINUOUS
62
7
10
119.2382
20
149.8205
0
VERTEX
8
OHNE_NAMEN
6
CONTINUOUS
62
7
10
118.9884
20
149.8829
0
SEQEND
8
OHNE_NAMEN
6
CONTINUOUS
62
7
0
POLYLINE
8
OHNE_NAMEN
6
CONTINUOUS
62
7
66
1
10
0.0000
20
0.0000
70
0
40
0.0000
41
0.0000
0
VERTEX
8
OHNE_NAMEN
6
CONTINUOUS
62
7
10
118.9884
20
149.8829
0
VERTEX
8
OHNE_NAMEN
6
CONTINUOUS
62
7
10
118.7538
20
149.9298
0
SEQEND
8
OHNE_NAMEN
6
CONTINUOUS
62
7
0
POLYLINE
8
OHNE_NAMEN
6
CONTINUOUS
62
7
66
1
10
0.0000
20
0.0000
70
0
40
0.0000
41
0.0000
0
VERTEX
8
OHNE_NAMEN
6
CONTINUOUS
62
7
10
118.7538
20
149.9298
0
VERTEX
8
OHNE_NAMEN
6
CONTINUOUS
62
7
10
118.5351
20
149.9648
0
SEQEND
8
OHNE_NAMEN
6
CONTINUOUS
62
7
0
POLYLINE
8
OHNE_NAMEN
6
CONTINUOUS
62
7
66
1
10
0.0000
20
0.0000
70
0
40
0.0000
41
0.0000
0
VERTEX
8
OHNE_NAMEN
6
CONTINUOUS
62
7
10
118.5351
20
149.9648
0
VERTEX
8
OHNE_NAMEN
6
CONTINUOUS
62
7
10
118.3164
20
150.0000
0
SEQEND
8
OHNE_NAMEN
6
CONTINUOUS
62
7
0
POLYLINE
8
OHNE_NAMEN
6
CONTINUOUS
62
7
66
1
10
0.0000
20
0.0000
70
0
40
0.0000
41
0.0000
0
VERTEX
8
OHNE_NAMEN
6
CONTINUOUS
62
7
10
118.3164
20
150.0000
0
VERTEX
8
OHNE_NAMEN
6
CONTINUOUS
62
7
10
118.1135
20
150.0233
0
SEQEND
8
OHNE_NAMEN
6
CONTINUOUS
62
7
0
POLYLINE
8
OHNE_NAMEN
6
CONTINUOUS
62
7
66
1
10
0.0000
20
0.0000
70
0
40
0.0000
41
0.0000
0
VERTEX
8
OHNE_NAMEN
6
CONTINUOUS
62
7
10
118.1135
20
150.0233
0
VERTEX
8
OHNE_NAMEN
6
CONTINUOUS
62
7
10
117.9258
20
150.0392
0
SEQEND
8
OHNE_NAMEN
6
CONTINUOUS
62
7
0
POLYLINE
8
OHNE_NAMEN
6
CONTINUOUS
62
7
66
1
10
0.0000
20
0.0000
70
0
40
0.0000
41
0.0000
0
VERTEX
8
OHNE_NAMEN
6
CONTINUOUS
62
7
10
117.9258
20
150.0392
0
VERTEX
8
OHNE_NAMEN
6
CONTINUOUS
62
7
10
117.7385
20
150.0547
0
SEQEND
8
OHNE_NAMEN
6
CONTINUOUS
62
7
0
POLYLINE
8
OHNE_NAMEN
6
CONTINUOUS
62
7
66
1
10
0.0000
20
0.0000
70
0
40
0.0000
41
0.0000
0
VERTEX
8
OHNE_NAMEN
6
CONTINUOUS
62
7
10
117.7385
20
150.0547
0
VERTEX
8
OHNE_NAMEN
6
CONTINUOUS
62
7
10
117.5664
20
150.0625
0
SEQEND
8
OHNE_NAMEN
6
CONTINUOUS
62
7
0
POLYLINE
8
OHNE_NAMEN
6
CONTINUOUS
62
7
66
1
10
0.0000
20
0.0000
70
0
40
0.0000
41
0.0000
0
VERTEX
8
OHNE_NAMEN
6
CONTINUOUS
62
7
10
117.5664
20
150.0625
0
VERTEX
8
OHNE_NAMEN
6
CONTINUOUS
62
7
10
117.4101
20
150.0664
0
SEQEND
8
OHNE_NAMEN
6
CONTINUOUS
62
7
0
POLYLINE
8
OHNE_NAMEN
6
CONTINUOUS
62
7
66
1
10
0.0000
20
0.0000
70
0
40
0.0000
41
0.0000
0
VERTEX
8
OHNE_NAMEN
6
CONTINUOUS
62
7
10
117.4101
20
150.0664
0
VERTEX
8
OHNE_NAMEN
6
CONTINUOUS
62
7
10
117.2542
20
150.0703
0
SEQEND
8
OHNE_NAMEN
6
CONTINUOUS
62
7
0
POLYLINE
8
OHNE_NAMEN
6
CONTINUOUS
62
7
66
1
10
0.0000
20
0.0000
70
0
40
0.0000
41
0.0000
0
VERTEX
8
OHNE_NAMEN
6
CONTINUOUS
62
7
10
117.2542
20
150.0703
0
VERTEX
8
OHNE_NAMEN
6
CONTINUOUS
62
7
10
117.1134
20
150.0703
0
SEQEND
8
OHNE_NAMEN
6
CONTINUOUS
62
7
0
POLYLINE
8
OHNE_NAMEN
6
CONTINUOUS
62
7
66
1
10
0.0000
20
0.0000
70
0
40
0.0000
41
0.0000
0
VERTEX
8
OHNE_NAMEN
6
CONTINUOUS
62
7
10
117.1134
20
150.0703
0
VERTEX
8
OHNE_NAMEN
6
CONTINUOUS
62
7
10
116.9885
20
150.0703
0
SEQEND
8
OHNE_NAMEN
6
CONTINUOUS
62
7
0
LINE
8
OHNE_NAMEN
6
CONTINUOUS
62
1
39
0.0000
10
117.5092
20
150.0808
11
116.5094
21
150.0886
0
LINE
8
OHNE_NAMEN
6
CONTINUOUS
62
7
39
0.0000
10
122.9268
20
125.0294
11
110.9267
21
125.0294
0
LINE
8
OHNE_NAMEN
6
CONTINUOUS
62
7
39
0.0000
10
122.9268
20
125.0294
11
122.9268
21
119.0293
0
LINE
8
OHNE_NAMEN
6
CONTINUOUS
62
7
39
0.0000
10
122.9268
20
119.0293
11
110.9267
21
119.0293
0
LINE
8
OHNE_NAMEN
6
CONTINUOUS
62
7
39
0.0000
10
110.9267
20
119.0293
11
110.9267
21
125.0294
0
LINE
8
OHNE_NAMEN
6
CONTINUOUS
62
1
39
0.0000
10
111.0001
20
126.9996
11
110.9267
21
148.0294
0
LINE
8
OHNE_NAMEN
6
CONTINUOUS
62
1
39
0.0000
10
123.0002
20
126.9996
11
122.9268
21
148.0294
0
LINE
8
OHNE_NAMEN
6
CONTINUOUS
62
7
39
0.1528
10
112.0175
20
119.0293
11
112.0175
21
120.0295
0
LINE
8
OHNE_NAMEN
6
CONTINUOUS
62
7
39
0.1528
10
114.0174
20
119.0293
11
114.0174
21
120.0295
0
LINE
8
OHNE_NAMEN
6
CONTINUOUS
62
7
39
0.1528
10
116.0177
20
119.0293
11
116.0177
21
120.0295
0
LINE
8
OHNE_NAMEN
6
CONTINUOUS
62
7
39
0.1528
10
118.0176
20
119.0293
11
118.0176
21
120.0295
0
LINE
8
OHNE_NAMEN
6
CONTINUOUS
62
7
39
0.1528
10
120.0175
20
119.0293
11
120.0175
21
120.0295
0
LINE
8
OHNE_NAMEN
6
CONTINUOUS
62
7
39
0.1528
10
122.0177
20
119.0293
11
122.0177
21
120.0295
0
LINE
8
OHNE_NAMEN
6
CONTINUOUS
62
7
39
0.1528
10
112.0175
20
121.0292
11
112.0175
21
122.0294
0
LINE
8
OHNE_NAMEN
6
CONTINUOUS
62
7
39
0.1528
10
114.0174
20
121.0292
11
114.0174
21
122.0294
0
LINE
8
OHNE_NAMEN
6
CONTINUOUS
62
7
39
0.1528
10
116.0177
20
121.0292
11
116.0177
21
122.0294
0
LINE
8
OHNE_NAMEN
6
CONTINUOUS
62
7
39
0.1528
10
118.0176
20
121.0292
11
118.0176
21
122.0294
0
LINE
8
OHNE_NAMEN
6
CONTINUOUS
62
7
39
0.1528
10
120.0175
20
121.0292
11
120.0175
21
122.0294
0
LINE
8
OHNE_NAMEN
6
CONTINUOUS
62
7
39
0.1528
10
122.0177
20
121.0292
11
122.0177
21
122.0294
0
LINE
8
OHNE_NAMEN
6
CONTINUOUS
62
7
39
0.1528
10
112.0175
20
123.0291
11
112.0175
21
124.0293
0
LINE
8
OHNE_NAMEN
6
CONTINUOUS
62
7
39
0.1528
10
114.0174
20
123.0291
11
114.0174
21
124.0293
0
LINE
8
OHNE_NAMEN
6
CONTINUOUS
62
7
39
0.1528
10
116.0177
20
123.0291
11
116.0177
21
124.0293
0
LINE
8
OHNE_NAMEN
6
CONTINUOUS
62
7
39
0.1528
10
118.0176
20
123.0291
11
118.0176
21
124.0293
0
LINE
8
OHNE_NAMEN
6
CONTINUOUS
62
7
39
0.1528
10
120.0175
20
123.0291
11
120.0175
21
124.0293
0
LINE
8
OHNE_NAMEN
6
CONTINUOUS
62
7
39
0.1528
10
122.0177
20
123.0291
11
122.0177
21
124.0293
0
LINE
8
OHNE_NAMEN
6
CONTINUOUS
62
7
39
0.1528
10
113.0176
20
120.0291
11
113.0176
21
121.0292
0
LINE
8
OHNE_NAMEN
6
CONTINUOUS
62
7
39
0.1528
10
115.0176
20
120.0291
11
115.0176
21
121.0292
0
LINE
8
OHNE_NAMEN
6
CONTINUOUS
62
7
39
0.1528
10
117.0178
20
120.0291
11
117.0178
21
121.0292
0
LINE
8
OHNE_NAMEN
6
CONTINUOUS
62
7
39
0.1528
10
119.0177
20
120.0291
11
119.0177
21
121.0292
0
LINE
8
OHNE_NAMEN
6
CONTINUOUS
62
7
39
0.1528
10
121.0176
20
120.0291
11
121.0176
21
121.0292
0
LINE
8
OHNE_NAMEN
6
CONTINUOUS
62
7
39
0.1528
10
113.0176
20
122.0294
11
113.0176
21
123.0295
0
LINE
8
OHNE_NAMEN
6
CONTINUOUS
62
7
39
0.1528
10
115.0176
20
122.0294
11
115.0176
21
123.0295
0
LINE
8
OHNE_NAMEN
6
CONTINUOUS
62
7
39
0.1528
10
117.0178
20
122.0294
11
117.0178
21
123.0295
0
LINE
8
OHNE_NAMEN
6
CONTINUOUS
62
7
39
0.1528
10
119.0177
20
122.0294
11
119.0177
21
123.0295
0
LINE
8
OHNE_NAMEN
6
CONTINUOUS
62
7
39
0.1528
10
121.0176
20
122.0294
11
121.0176
21
123.0295
0
LINE
8
OHNE_NAMEN
6
CONTINUOUS
62
7
39
0.1528
10
113.0176
20
124.0293
11
113.0176
21
125.0294
0
LINE
8
OHNE_NAMEN
6
CONTINUOUS
62
7
39
0.1528
10
115.0176
20
124.0293
11
115.0176
21
125.0294
0
LINE
8
OHNE_NAMEN
6
CONTINUOUS
62
7
39
0.1528
10
117.0178
20
124.0293
11
117.0178
21
125.0294
0
LINE
8
OHNE_NAMEN
6
CONTINUOUS
62
7
39
0.1528
10
119.0177
20
124.0293
11
119.0177
21
125.0294
0
LINE
8
OHNE_NAMEN
6
CONTINUOUS
62
7
39
0.1528
10
121.0176
20
124.0293
11
121.0176
21
125.0294
0
LINE
8
OHNE_NAMEN
6
CONTINUOUS
62
7
39
0.1528
10
111.0001
20
123.9996
11
123.0002
21
123.9996
0
LINE
8
OHNE_NAMEN
6
CONTINUOUS
62
7
39
0.1528
10
111.0001
20
121.9997
11
123.0002
21
121.9997
0
LINE
8
OHNE_NAMEN
6
CONTINUOUS
62
7
39
0.1528
10
111.0001
20
122.9995
11
123.0002
21
122.9995
0
LINE
8
OHNE_NAMEN
6
CONTINUOUS
62
7
39
0.1528
10
111.0001
20
120.9996
11
123.0002
21
120.9996
0
LINE
8
OHNE_NAMEN
6
CONTINUOUS
62
7
39
0.1528
10
111.0001
20
119.9998
11
123.0002
21
119.9998
0
LINE
8
OHNE_NAMEN
6
CONTINUOUS
62
1
39
0.1528
10
111.0001
20
143.9996
11
110.5002
21
143.9996
0
LINE
8
OHNE_NAMEN
6
CONTINUOUS
62
1
39
0.1528
10
111.0001
20
142.9995
11
110.5002
21
142.9995
0
LINE
8
OHNE_NAMEN
6
CONTINUOUS
62
1
39
0.1528
10
111.0001
20
139.0001
11
110.5002
21
139.0001
0
LINE
8
OHNE_NAMEN
6
CONTINUOUS
62
1
39
0.1528
10
111.0001
20
137.9996
11
110.5002
21
137.9996
0
LINE
8
OHNE_NAMEN
6
CONTINUOUS
62
1
39
0.1528
10
111.0001
20
136.9995
11
110.5002
21
136.9995
0
LINE
8
OHNE_NAMEN
6
CONTINUOUS
62
1
39
0.1528
10
111.0001
20
135.9997
11
110.5002
21
135.9997
0
LINE
8
OHNE_NAMEN
6
CONTINUOUS
62
1
39
0.1528
10
111.0001
20
134.9996
11
110.5002
21
134.9996
0
LINE
8
OHNE_NAMEN
6
CONTINUOUS
62
1
39
0.1528
10
111.0001
20
133.9998
11
110.5002
21
133.9998
0
LINE
8
OHNE_NAMEN
6
CONTINUOUS
62
1
39
0.1528
10
111.0001
20
132.9997
11
110.5002
21
132.9997
0
LINE
8
OHNE_NAMEN
6
CONTINUOUS
62
1
39
0.1528
10
111.0001
20
131.9996
11
110.5002
21
131.9996
0
LINE
8
OHNE_NAMEN
6
CONTINUOUS
62
1
39
0.1528
10
111.0001
20
130.9998
11
110.5002
21
130.9998
0
LINE
8
OHNE_NAMEN
6
CONTINUOUS
62
1
39
0.1528
10
111.0001
20
129.9997
11
110.5002
21
129.9997
0
LINE
8
OHNE_NAMEN
6
CONTINUOUS
62
1
39
0.1528
10
111.0001
20
128.9995
11
110.5002
21
128.9995
0
LINE
8
OHNE_NAMEN
6
CONTINUOUS
62
1
39
0.1528
10
123.5001
20
143.9996
11
123.0002
21
143.9996
0
LINE
8
OHNE_NAMEN
6
CONTINUOUS
62
1
39
0.1528
10
123.5001
20
142.9995
11
123.0002
21
142.9995
0
LINE
8
OHNE_NAMEN
6
CONTINUOUS
62
1
39
0.1528
10
123.5001
20
139.0001
11
123.0002
21
139.0001
0
LINE
8
OHNE_NAMEN
6
CONTINUOUS
62
1
39
0.1528
10
123.5001
20
137.9996
11
123.0002
21
137.9996
0
LINE
8
OHNE_NAMEN
6
CONTINUOUS
62
1
39
0.1528
10
123.5001
20
136.9995
11
123.0002
21
136.9995
0
LINE
8
OHNE_NAMEN
6
CONTINUOUS
62
1
39
0.1528
10
123.5001
20
135.9997
11
123.0002
21
135.9997
0
LINE
8
OHNE_NAMEN
6
CONTINUOUS
62
1
39
0.1528
10
123.5001
20
134.9996
11
123.0002
21
134.9996
0
LINE
8
OHNE_NAMEN
6
CONTINUOUS
62
1
39
0.1528
10
123.5001
20
133.9998
11
123.0002
21
133.9998
0
LINE
8
OHNE_NAMEN
6
CONTINUOUS
62
1
39
0.1528
10
123.5001
20
132.9997
11
123.0002
21
132.9997
0
LINE
8
OHNE_NAMEN
6
CONTINUOUS
62
1
39
0.1528
10
123.5001
20
131.9996
11
123.0002
21
131.9996
0
LINE
8
OHNE_NAMEN
6
CONTINUOUS
62
1
39
0.1528
10
123.5001
20
130.9998
11
123.0002
21
130.9998
0
LINE
8
OHNE_NAMEN
6
CONTINUOUS
62
1
39
0.1528
10
123.5001
20
129.9997
11
123.0002
21
129.9997
0
LINE
8
OHNE_NAMEN
6
CONTINUOUS
62
1
39
0.1528
10
123.5001
20
128.9995
11
123.0002
21
128.9995
0
LINE
8
OHNE_NAMEN
6
CONTINUOUS
62
7
39
0.0000
10
83.9999
20
60.9999
11
99.9998
21
60.9999
0
LINE
8
OHNE_NAMEN
6
CONTINUOUS
62
7
39
0.0000
10
83.9999
20
60.9999
11
83.9999
21
63.0001
0
LINE
8
OHNE_NAMEN
6
CONTINUOUS
62
7
39
0.0000
10
99.9998
20
60.9999
11
99.9998
21
63.0001
0
LINE
8
OHNE_NAMEN
6
CONTINUOUS
62
7
39
0.0000
10
99.9998
20
63.0001
11
100.4997
21
63.0001
0
LINE
8
OHNE_NAMEN
6
CONTINUOUS
62
7
39
0.0000
10
100.4997
20
63.0001
11
100.5000
21
68.0000
0
LINE
8
OHNE_NAMEN
6
CONTINUOUS
62
7
39
0.0000
10
83.9999
20
63.0001
11
83.4997
21
63.0001
0
LINE
8
OHNE_NAMEN
6
CONTINUOUS
62
7
39
0.0000
10
83.4997
20
63.0001
11
83.5000
21
68.0000
0
LINE
8
OHNE_NAMEN
6
CONTINUOUS
62
7
39
0.0000
10
83.4997
20
68.0000
11
100.4997
21
68.0000
0
LINE
8
OHNE_NAMEN
6
CONTINUOUS
62
1
39
0.0000
10
83.9999
20
70.0003
11
99.9998
21
70.0003
0
LINE
8
OHNE_NAMEN
6
CONTINUOUS
62
1
39
0.0000
10
83.9999
20
69.9999
11
83.9999
21
98.9997
0
LINE
8
OHNE_NAMEN
6
CONTINUOUS
62
1
39
0.0000
10
99.9998
20
69.9999
11
100.0001
21
98.9997
0
LINE
8
OHNE_NAMEN
6
CONTINUOUS
62
7
39
0.0000
10
99.9913
20
99.0233
11
99.9444
21
99.0469
0
LINE
8
OHNE_NAMEN
6
CONTINUOUS
62
7
39
0.1528
10
83.9488
20
99.0685
11
79.9490
21
102.0681
0
LINE
8
OHNE_NAMEN
6
CONTINUOUS
62
7
39
0.1528
10
99.9490
20
99.0685
11
103.9488
21
102.0681
0
LINE
8
OHNE_NAMEN
6
CONTINUOUS
62
7
39
0.1528
10
91.0989
20
103.0048
11
90.5461
21
107.0984
0
LINE
8
OHNE_NAMEN
6
CONTINUOUS
62
7
39
0.1528
10
92.7746
20
103.0048
11
93.3418
21
107.0427
0
LINE
8
OHNE_NAMEN
6
CONTINUOUS
62
7
39
0.1528
10
84.9489
20
100.0686
11
82.2307
21
104.1453
0
LINE
8
OHNE_NAMEN
6
CONTINUOUS
62
7
39
0.1528
10
99.0011
20
100.1116
11
101.6113
21
104.0620
0
LINE
8
OHNE_NAMEN
6
CONTINUOUS
62
7
39
0.1528
10
85.7366
20
100.8172
11
83.4083
21
104.7686
0
LINE
8
OHNE_NAMEN
6
CONTINUOUS
62
7
39
0.1528
10
86.5127
20
101.3816
11
84.4666
21
105.3327
0
LINE
8
OHNE_NAMEN
6
CONTINUOUS
62
7
39
0.1528
10
87.3594
20
101.9464
11
85.5250
21
105.8270
0
LINE
8
OHNE_NAMEN
6
CONTINUOUS
62
7
39
0.1528
10
88.2766
20
102.2992
11
86.5833
21
106.3205
0
LINE
8
OHNE_NAMEN
6
CONTINUOUS
62
7
39
0.1528
10
87.9239
20
106.6027
11
89.1233
21
102.6520
0
LINE
8
OHNE_NAMEN
6
CONTINUOUS
62
7
39
0.1528
10
89.1233
20
106.8853
11
90.0405
21
102.7927
0
LINE
8
OHNE_NAMEN
6
CONTINUOUS
62
7
39
0.1528
10
93.7447
20
102.8986
11
94.5208
21
106.8853
0
LINE
8
OHNE_NAMEN
6
CONTINUOUS
62
7
39
0.1528
10
98.2602
20
100.8881
11
100.3416
21
104.7686
0
LINE
8
OHNE_NAMEN
6
CONTINUOUS
62
7
39
0.1528
10
97.4136
20
101.4875
11
99.2833
21
105.4033
0
LINE
8
OHNE_NAMEN
6
CONTINUOUS
62
7
39
0.1528
10
96.5316
20
102.0166
11
98.0839
21
106.0034
0
LINE
8
OHNE_NAMEN
6
CONTINUOUS
62
7
39
0.1528
10
96.9197
20
106.3911
11
95.7203
21
102.4047
0
LINE
8
OHNE_NAMEN
6
CONTINUOUS
62
7
39
0.1528
10
95.7203
20
106.7089
11
94.7325
21
102.6869
0
LINE
8
OHNE_NAMEN
6
CONTINUOUS
62
1
39
0.0000
10
84.0257
20
99.0469
11
84.9196
21
100.1053
0
LINE
8
OHNE_NAMEN
6
CONTINUOUS
62
1
39
0.0000
10
84.9432
20
100.1053
11
85.7663
21
100.8578
0
LINE
8
OHNE_NAMEN
6
CONTINUOUS
62
1
39
0.0000
10
85.7426
20
100.8578
11
86.4955
21
101.4222
0
LINE
8
OHNE_NAMEN
6
CONTINUOUS
62
1
39
0.0000
10
86.5188
20
101.4222
11
87.3891
21
101.9401
0
LINE
8
OHNE_NAMEN
6
CONTINUOUS
62
1
39
0.0000
10
91.1049
20
103.0213
11
90.0465
21
102.8333
0
LINE
8
OHNE_NAMEN
6
CONTINUOUS
62
1
39
0.0000
10
90.0112
20
102.8333
11
89.0940
21
102.6216
0
LINE
8
OHNE_NAMEN
6
CONTINUOUS
62
1
39
0.0000
10
89.1057
20
102.6216
11
88.1888
21
102.3041
0
LINE
8
OHNE_NAMEN
6
CONTINUOUS
62
1
39
0.0000
10
88.2357
20
102.3394
11
87.3891
21
101.9401
0
LINE
8
OHNE_NAMEN
6
CONTINUOUS
62
1
39
0.0000
10
91.0816
20
102.9984
11
92.7746
21
103.0213
0
LINE
8
OHNE_NAMEN
6
CONTINUOUS
62
1
39
0.0000
10
92.7746
20
103.0213
11
93.7627
21
102.9275
0
LINE
8
OHNE_NAMEN
6
CONTINUOUS
62
1
39
0.0000
10
93.7627
20
102.9275
11
94.7268
21
102.7158
0
LINE
8
OHNE_NAMEN
6
CONTINUOUS
62
1
39
0.0000
10
94.7268
20
102.7158
11
95.7146
21
102.4336
0
LINE
8
OHNE_NAMEN
6
CONTINUOUS
62
1
39
0.0000
10
95.7146
20
102.4336
11
96.5376
21
102.0336
0
LINE
8
OHNE_NAMEN
6
CONTINUOUS
62
1
39
0.0000
10
96.5376
20
102.0336
11
97.4079
21
101.5164
0
LINE
8
OHNE_NAMEN
6
CONTINUOUS
62
1
39
0.0000
10
97.4079
20
101.5164
11
98.2782
21
100.9047
0
LINE
8
OHNE_NAMEN
6
CONTINUOUS
62
1
39
0.0000
10
98.2782
20
100.9047
11
98.9838
21
100.1286
0
LINE
8
OHNE_NAMEN
6
CONTINUOUS
62
1
39
0.0000
10
98.9838
20
100.1286
11
99.9949
21
99.0702
0
LINE
8
OHNE_NAMEN
6
CONTINUOUS
62
7
39
0.1528
10
84.5174
20
62.0296
11
84.5174
21
63.0298
0
LINE
8
OHNE_NAMEN
6
CONTINUOUS
62
7
39
0.1528
10
86.5173
20
62.0296
11
86.5173
21
63.0298
0
LINE
8
OHNE_NAMEN
6
CONTINUOUS
62
7
39
0.1528
10
88.5176
20
62.0296
11
88.5176
21
63.0298
0
LINE
8
OHNE_NAMEN
6
CONTINUOUS
62
7
39
0.1528
10
90.5175
20
62.0296
11
90.5175
21
63.0298
0
LINE
8
OHNE_NAMEN
6
CONTINUOUS
62
7
39
0.1528
10
92.5174
20
62.0296
11
92.5174
21
63.0298
0
LINE
8
OHNE_NAMEN
6
CONTINUOUS
62
7
39
0.1528
10
94.5176
20
62.0296
11
94.5176
21
63.0298
0
LINE
8
OHNE_NAMEN
6
CONTINUOUS
62
7
39
0.1528
10
84.5174
20
64.0295
11
84.5174
21
65.0296
0
LINE
8
OHNE_NAMEN
6
CONTINUOUS
62
7
39
0.1528
10
86.5173
20
64.0295
11
86.5173
21
65.0296
0
LINE
8
OHNE_NAMEN
6
CONTINUOUS
62
7
39
0.1528
10
88.5176
20
64.0295
11
88.5176
21
65.0296
0
LINE
8
OHNE_NAMEN
6
CONTINUOUS
62
7
39
0.1528
10
90.5175
20
64.0295
11
90.5175
21
65.0296
0
LINE
8
OHNE_NAMEN
6
CONTINUOUS
62
7
39
0.1528
10
92.5174
20
64.0295
11
92.5174
21
65.0296
0
LINE
8
OHNE_NAMEN
6
CONTINUOUS
62
7
39
0.1528
10
94.5176
20
64.0295
11
94.5176
21
65.0296
0
LINE
8
OHNE_NAMEN
6
CONTINUOUS
62
7
39
0.1528
10
84.5174
20
66.0294
11
84.5174
21
67.0295
0
LINE
8
OHNE_NAMEN
6
CONTINUOUS
62
7
39
0.1528
10
86.5173
20
66.0294
11
86.5173
21
67.0295
0
LINE
8
OHNE_NAMEN
6
CONTINUOUS
62
7
39
0.1528
10
88.5176
20
66.0294
11
88.5176
21
67.0295
0
LINE
8
OHNE_NAMEN
6
CONTINUOUS
62
7
39
0.1528
10
90.5175
20
66.0294
11
90.5175
21
67.0295
0
LINE
8
OHNE_NAMEN
6
CONTINUOUS
62
7
39
0.1528
10
92.5174
20
66.0294
11
92.5174
21
67.0295
0
LINE
8
OHNE_NAMEN
6
CONTINUOUS
62
7
39
0.1528
10
94.5176
20
66.0294
11
94.5176
21
67.0295
0
LINE
8
OHNE_NAMEN
6
CONTINUOUS
62
7
39
0.1528
10
85.5172
20
63.0294
11
85.5172
21
64.0299
0
LINE
8
OHNE_NAMEN
6
CONTINUOUS
62
7
39
0.1528
10
87.5171
20
63.0294
11
87.5171
21
64.0299
0
LINE
8
OHNE_NAMEN
6
CONTINUOUS
62
7
39
0.1528
10
89.5174
20
63.0294
11
89.5174
21
64.0299
0
LINE
8
OHNE_NAMEN
6
CONTINUOUS
62
7
39
0.1528
10
91.5173
20
63.0294
11
91.5173
21
64.0299
0
LINE
8
OHNE_NAMEN
6
CONTINUOUS
62
7
39
0.1528
10
93.5172
20
63.0294
11
93.5172
21
64.0299
0
LINE
8
OHNE_NAMEN
6
CONTINUOUS
62
7
39
0.1528
10
85.5172
20
65.0296
11
85.5172
21
66.0298
0
LINE
8
OHNE_NAMEN
6
CONTINUOUS
62
7
39
0.1528
10
87.5171
20
65.0296
11
87.5171
21
66.0298
0
LINE
8
OHNE_NAMEN
6
CONTINUOUS
62
7
39
0.1528
10
89.5174
20
65.0296
11
89.5174
21
66.0298
0
LINE
8
OHNE_NAMEN
6
CONTINUOUS
62
7
39
0.1528
10
91.5173
20
65.0296
11
91.5173
21
66.0298
0
LINE
8
OHNE_NAMEN
6
CONTINUOUS
62
7
39
0.1528
10
93.5172
20
65.0296
11
93.5172
21
66.0298
0
LINE
8
OHNE_NAMEN
6
CONTINUOUS
62
7
39
0.1528
10
85.5172
20
67.0295
11
85.5172
21
68.0297
0
LINE
8
OHNE_NAMEN
6
CONTINUOUS
62
7
39
0.1528
10
87.5171
20
67.0295
11
87.5171
21
68.0297
0
LINE
8
OHNE_NAMEN
6
CONTINUOUS
62
7
39
0.1528
10
89.5174
20
67.0295
11
89.5174
21
68.0297
0
LINE
8
OHNE_NAMEN
6
CONTINUOUS
62
7
39
0.1528
10
91.5173
20
67.0295
11
91.5173
21
68.0297
0
LINE
8
OHNE_NAMEN
6
CONTINUOUS
62
7
39
0.1528
10
93.5172
20
67.0295
11
93.5172
21
68.0297
0
LINE
8
OHNE_NAMEN
6
CONTINUOUS
62
7
39
0.1528
10
83.5000
20
66.9999
11
100.5000
21
66.9999
0
LINE
8
OHNE_NAMEN
6
CONTINUOUS
62
7
39
0.1528
10
83.5000
20
65.0000
11
100.5000
21
65.0000
0
LINE
8
OHNE_NAMEN
6
CONTINUOUS
62
7
39
0.1528
10
83.5000
20
66.0001
11
100.5000
21
66.0001
0
LINE
8
OHNE_NAMEN
6
CONTINUOUS
62
7
39
0.1528
10
83.5000
20
63.9999
11
100.5000
21
63.9999
0
LINE
8
OHNE_NAMEN
6
CONTINUOUS
62
7
39
0.1528
10
83.9999
20
63.0001
11
99.9998
21
63.0001
0
LINE
8
OHNE_NAMEN
6
CONTINUOUS
62
7
39
0.1528
10
83.9999
20
62.0000
11
99.9998
21
62.0000
0
LINE
8
OHNE_NAMEN
6
CONTINUOUS
62
7
39
0.1528
10
95.4998
20
68.0000
11
95.4998
21
66.9999
0
LINE
8
OHNE_NAMEN
6
CONTINUOUS
62
7
39
0.1528
10
95.4998
20
66.0001
11
95.4998
21
65.0000
0
LINE
8
OHNE_NAMEN
6
CONTINUOUS
62
7
39
0.1528
10
95.4998
20
63.9999
11
95.4998
21
63.0001
0
LINE
8
OHNE_NAMEN
6
CONTINUOUS
62
7
39
0.1528
10
97.5000
20
68.0000
11
97.5000
21
66.9999
0
LINE
8
OHNE_NAMEN
6
CONTINUOUS
62
7
39
0.1528
10
97.5000
20
66.0001
11
97.5000
21
65.0000
0
LINE
8
OHNE_NAMEN
6
CONTINUOUS
62
7
39
0.1528
10
97.5000
20
63.9999
11
97.5000
21
63.0001
0
LINE
8
OHNE_NAMEN
6
CONTINUOUS
62
7
39
0.1528
10
97.5000
20
62.0000
11
97.5000
21
60.9999
0
LINE
8
OHNE_NAMEN
6
CONTINUOUS
62
7
39
0.1528
10
96.4999
20
66.9999
11
96.4999
21
66.0001
0
LINE
8
OHNE_NAMEN
6
CONTINUOUS
62
7
39
0.1528
10
96.4999
20
65.0000
11
96.4999
21
63.9999
0
LINE
8
OHNE_NAMEN
6
CONTINUOUS
62
7
39
0.1528
10
96.4999
20
63.0001
11
96.4999
21
62.0000
0
LINE
8
OHNE_NAMEN
6
CONTINUOUS
62
7
39
0.1528
10
95.4998
20
62.0000
11
95.4998
21
60.9999
0
LINE
8
OHNE_NAMEN
6
CONTINUOUS
62
7
39
0.1528
10
99.4999
20
68.0000
11
99.4999
21
66.9999
0
LINE
8
OHNE_NAMEN
6
CONTINUOUS
62
7
39
0.1528
10
98.4998
20
66.9999
11
98.4998
21
66.0001
0
LINE
8
OHNE_NAMEN
6
CONTINUOUS
62
7
39
0.1528
10
99.4999
20
66.0001
11
99.4999
21
65.0000
0
LINE
8
OHNE_NAMEN
6
CONTINUOUS
62
7
39
0.1528
10
98.4998
20
65.0000
11
98.4998
21
63.9999
0
LINE
8
OHNE_NAMEN
6
CONTINUOUS
62
7
39
0.1528
10
99.4999
20
63.9999
11
99.4999
21
63.0001
0
LINE
8
OHNE_NAMEN
6
CONTINUOUS
62
7
39
0.1528
10
98.4998
20
63.0001
11
98.4998
21
62.0000
0
LINE
8
OHNE_NAMEN
6
CONTINUOUS
62
7
39
0.1528
10
93.4999
20
62.0000
11
93.4999
21
60.9999
0
LINE
8
OHNE_NAMEN
6
CONTINUOUS
62
7
39
0.1528
10
91.5000
20
62.0000
11
91.5000
21
60.9999
0
LINE
8
OHNE_NAMEN
6
CONTINUOUS
62
7
39
0.1528
10
89.5001
20
62.0000
11
89.5001
21
60.9999
0
LINE
8
OHNE_NAMEN
6
CONTINUOUS
62
7
39
0.1528
10
87.4998
20
62.0000
11
87.4998
21
60.9999
0
LINE
8
OHNE_NAMEN
6
CONTINUOUS
62
7
39
0.1528
10
85.4999
20
62.0000
11
85.4999
21
60.9999
0
LINE
8
OHNE_NAMEN
6
CONTINUOUS
62
7
39
0.1528
10
99.4999
20
62.0000
11
99.4999
21
60.9999
0
LINE
8
OHNE_NAMEN
6
CONTINUOUS
62
1
39
0.1528
10
83.9999
20
84.9997
11
83.5000
21
84.9997
0
LINE
8
OHNE_NAMEN
6
CONTINUOUS
62
1
39
0.1528
10
83.9999
20
83.9996
11
83.5000
21
83.9996
0
LINE
8
OHNE_NAMEN
6
CONTINUOUS
62
1
39
0.1528
10
83.9999
20
82.9998
11
83.5000
21
82.9998
0
LINE
8
OHNE_NAMEN
6
CONTINUOUS
62
1
39
0.1528
10
83.9999
20
81.9997
11
83.5000
21
81.9997
0
LINE
8
OHNE_NAMEN
6
CONTINUOUS
62
1
39
0.1528
10
83.9999
20
80.9995
11
83.5000
21
80.9995
0
LINE
8
OHNE_NAMEN
6
CONTINUOUS
62
1
39
0.1528
10
83.9999
20
79.9998
11
83.5000
21
79.9998
0
LINE
8
OHNE_NAMEN
6
CONTINUOUS
62
1
39
0.1528
10
83.9999
20
76.0000
11
83.5000
21
76.0000
0
LINE
8
OHNE_NAMEN
6
CONTINUOUS
62
1
39
0.1528
10
83.9999
20
74.9999
11
83.5000
21
74.9999
0
LINE
8
OHNE_NAMEN
6
CONTINUOUS
62
1
39
0.1528
10
83.9999
20
74.0001
11
83.5000
21
74.0001
0
LINE
8
OHNE_NAMEN
6
CONTINUOUS
62
1
39
0.1528
10
83.9999
20
73.0000
11
83.5000
21
73.0000
0
LINE
8
OHNE_NAMEN
6
CONTINUOUS
62
1
39
0.1528
10
83.9999
20
72.0002
11
83.5000
21
72.0002
0
LINE
8
OHNE_NAMEN
6
CONTINUOUS
62
1
39
0.1528
10
83.9999
20
88.9998
11
83.5000
21
88.9998
0
LINE
8
OHNE_NAMEN
6
CONTINUOUS
62
1
39
0.1528
10
83.9999
20
89.9996
11
83.5000
21
89.9996
0
LINE
8
OHNE_NAMEN
6
CONTINUOUS
62
1
39
0.1528
10
83.9999
20
90.9997
11
83.5000
21
90.9997
0
LINE
8
OHNE_NAMEN
6
CONTINUOUS
62
1
39
0.1528
10
83.9999
20
91.9995
11
83.5000
21
91.9995
0
LINE
8
OHNE_NAMEN
6
CONTINUOUS
62
1
39
0.1528
10
83.9999
20
92.9996
11
83.5000
21
92.9996
0
LINE
8
OHNE_NAMEN
6
CONTINUOUS
62
1
39
0.1528
10
83.9999
20
93.9997
11
83.5000
21
93.9997
0
LINE
8
OHNE_NAMEN
6
CONTINUOUS
62
1
39
0.1528
10
100.5000
20
84.9997
11
99.9998
21
84.9997
0
LINE
8
OHNE_NAMEN
6
CONTINUOUS
62
1
39
0.1528
10
100.5000
20
83.9996
11
99.9998
21
83.9996
0
LINE
8
OHNE_NAMEN
6
CONTINUOUS
62
1
39
0.1528
10
100.5000
20
82.9998
11
99.9998
21
82.9998
0
LINE
8
OHNE_NAMEN
6
CONTINUOUS
62
1
39
0.1528
10
100.5000
20
81.9997
11
99.9998
21
81.9997
0
LINE
8
OHNE_NAMEN
6
CONTINUOUS
62
1
39
0.1528
10
100.5000
20
80.9995
11
99.9998
21
80.9995
0
LINE
8
OHNE_NAMEN
6
CONTINUOUS
62
1
39
0.1528
10
100.5000
20
79.9998
11
99.9998
21
79.9998
0
LINE
8
OHNE_NAMEN
6
CONTINUOUS
62
1
39
0.1528
10
100.5000
20
76.0000
11
99.9998
21
76.0000
0
LINE
8
OHNE_NAMEN
6
CONTINUOUS
62
1
39
0.1528
10
100.5000
20
74.9999
11
99.9998
21
74.9999
0
LINE
8
OHNE_NAMEN
6
CONTINUOUS
62
1
39
0.1528
10
100.5000
20
74.0001
11
99.9998
21
74.0001
0
LINE
8
OHNE_NAMEN
6
CONTINUOUS
62
1
39
0.1528
10
100.5000
20
73.0000
11
99.9998
21
73.0000
0
LINE
8
OHNE_NAMEN
6
CONTINUOUS
62
1
39
0.1528
10
100.5000
20
72.0002
11
99.9998
21
72.0002
0
LINE
8
OHNE_NAMEN
6
CONTINUOUS
62
1
39
0.1528
10
100.5000
20
88.9998
11
99.9998
21
88.9998
0
LINE
8
OHNE_NAMEN
6
CONTINUOUS
62
1
39
0.1528
10
100.5000
20
89.9996
11
99.9998
21
89.9996
0
LINE
8
OHNE_NAMEN
6
CONTINUOUS
62
1
39
0.1528
10
100.5000
20
90.9997
11
99.9998
21
90.9997
0
LINE
8
OHNE_NAMEN
6
CONTINUOUS
62
1
39
0.1528
10
100.5000
20
91.9995
11
99.9998
21
91.9995
0
LINE
8
OHNE_NAMEN
6
CONTINUOUS
62
1
39
0.1528
10
100.5000
20
92.9996
11
99.9998
21
92.9996
0
LINE
8
OHNE_NAMEN
6
CONTINUOUS
62
1
39
0.1528
10
100.5000
20
93.9997
11
99.9998
21
93.9997
0
LINE
8
OHNE_NAMEN
6
CONTINUOUS
62
7
39
0.0000
10
108.9999
20
60.9999
11
124.9997
21
60.9999
0
LINE
8
OHNE_NAMEN
6
CONTINUOUS
62
7
39
0.0000
10
108.9999
20
60.9999
11
108.9999
21
63.0001
0
LINE
8
OHNE_NAMEN
6
CONTINUOUS
62
7
39
0.0000
10
124.9997
20
60.9999
11
124.9997
21
63.0001
0
LINE
8
OHNE_NAMEN
6
CONTINUOUS
62
7
39
0.0000
10
124.9997
20
63.0001
11
125.4996
21
63.0001
0
LINE
8
OHNE_NAMEN
6
CONTINUOUS
62
7
39
0.0000
10
125.4996
20
63.0001
11
125.5000
21
68.0000
0
LINE
8
OHNE_NAMEN
6
CONTINUOUS
62
7
39
0.0000
10
108.9999
20
63.0001
11
108.4996
21
63.0001
0
LINE
8
OHNE_NAMEN
6
CONTINUOUS
62
7
39
0.0000
10
108.4996
20
63.0001
11
108.5000
21
68.0000
0
LINE
8
OHNE_NAMEN
6
CONTINUOUS
62
7
39
0.0000
10
108.4996
20
68.0000
11
125.4996
21
68.0000
0
LINE
8
OHNE_NAMEN
6
CONTINUOUS
62
1
39
0.0000
10
108.9999
20
70.0003
11
124.9997
21
70.0003
0
LINE
8
OHNE_NAMEN
6
CONTINUOUS
62
1
39
0.0000
10
108.9999
20
69.9999
11
108.9999
21
98.9997
0
LINE
8
OHNE_NAMEN
6
CONTINUOUS
62
1
39
0.0000
10
124.9997
20
69.9999
11
125.0001
21
98.9997
0
LINE
8
OHNE_NAMEN
6
CONTINUOUS
62
7
39
0.0000
10
124.9913
20
99.0233
11
124.9444
21
99.0469
0
LINE
8
OHNE_NAMEN
6
CONTINUOUS
62
7
39
0.1528
10
108.9487
20
99.0685
11
104.9489
21
102.0681
0
LINE
8
OHNE_NAMEN
6
CONTINUOUS
62
7
39
0.1528
10
124.9489
20
99.0685
11
128.9487
21
102.0681
0
LINE
8
OHNE_NAMEN
6
CONTINUOUS
62
7
39
0.1528
10
116.0988
20
103.0048
11
115.5460
21
107.0984
0
LINE
8
OHNE_NAMEN
6
CONTINUOUS
62
7
39
0.1528
10
117.7745
20
103.0048
11
118.3418
21
107.0427
0
LINE
8
OHNE_NAMEN
6
CONTINUOUS
62
7
39
0.1528
10
109.9488
20
100.0686
11
107.2307
21
104.1453
0
LINE
8
OHNE_NAMEN
6
CONTINUOUS
62
7
39
0.1528
10
124.0010
20
100.1116
11
126.6112
21
104.0620
0
LINE
8
OHNE_NAMEN
6
CONTINUOUS
62
7
39
0.1528
10
110.7366
20
100.8172
11
108.4083
21
104.7686
0
LINE
8
OHNE_NAMEN
6
CONTINUOUS
62
7
39
0.1528
10
111.5127
20
101.3816
11
109.4666
21
105.3327
0
LINE
8
OHNE_NAMEN
6
CONTINUOUS
62
7
39
0.1528
10
112.3594
20
101.9464
11
110.5249
21
105.8270
0
LINE
8
OHNE_NAMEN
6
CONTINUOUS
62
7
39
0.1528
10
113.2766
20
102.2992
11
111.5833
21
106.3205
0
LINE
8
OHNE_NAMEN
6
CONTINUOUS
62
7
39
0.1528
10
112.9238
20
106.6027
11
114.1233
21
102.6520
0
LINE
8
OHNE_NAMEN
6
CONTINUOUS
62
7
39
0.1528
10
114.1233
20
106.8853
11
115.0405
21
102.7927
0
LINE
8
OHNE_NAMEN
6
CONTINUOUS
62
7
39
0.1528
10
118.7446
20
102.8986
11
119.5208
21
106.8853
0
LINE
8
OHNE_NAMEN
6
CONTINUOUS
62
7
39
0.1528
10
123.2602
20
100.8881
11
125.3416
21
104.7686
0
LINE
8
OHNE_NAMEN
6
CONTINUOUS
62
7
39
0.1528
10
122.4135
20
101.4875
11
124.2833
21
105.4033
0
LINE
8
OHNE_NAMEN
6
CONTINUOUS
62
7
39
0.1528
10
121.5316
20
102.0166
11
123.0838
21
106.0034
0
LINE
8
OHNE_NAMEN
6
CONTINUOUS
62
7
39
0.1528
10
121.9197
20
106.3911
11
120.7202
21
102.4047
0
LINE
8
OHNE_NAMEN
6
CONTINUOUS
62
7
39
0.1528
10
120.7202
20
106.7089
11
119.7324
21
102.6869
0
LINE
8
OHNE_NAMEN
6
CONTINUOUS
62
1
39
0.0000
10
109.0256
20
99.0469
11
109.9196
21
100.1053
0
LINE
8
OHNE_NAMEN
6
CONTINUOUS
62
1
39
0.0000
10
109.9432
20
100.1053
11
110.7662
21
100.8578
0
LINE
8
OHNE_NAMEN
6
CONTINUOUS
62
1
39
0.0000
10
110.7426
20
100.8578
11
111.4954
21
101.4222
0
LINE
8
OHNE_NAMEN
6
CONTINUOUS
62
1
39
0.0000
10
111.5187
20
101.4222
11
112.3890
21
101.9397
0
LINE
8
OHNE_NAMEN
6
CONTINUOUS
62
1
39
0.0000
10
116.1048
20
103.0213
11
115.0465
21
102.8333
0
LINE
8
OHNE_NAMEN
6
CONTINUOUS
62
1
39
0.0000
10
115.0112
20
102.8333
11
114.0940
21
102.6216
0
LINE
8
OHNE_NAMEN
6
CONTINUOUS
62
1
39
0.0000
10
114.1056
20
102.6216
11
113.1887
21
102.3041
0
LINE
8
OHNE_NAMEN
6
CONTINUOUS
62
1
39
0.0000
10
113.2357
20
102.3394
11
112.3890
21
101.9397
0
LINE
8
OHNE_NAMEN
6
CONTINUOUS
62
1
39
0.0000
10
116.0815
20
102.9981
11
117.7745
21
103.0213
0
LINE
8
OHNE_NAMEN
6
CONTINUOUS
62
1
39
0.0000
10
117.7745
20
103.0213
11
118.7626
21
102.9275
0
LINE
8
OHNE_NAMEN
6
CONTINUOUS
62
1
39
0.0000
10
118.7626
20
102.9275
11
119.7268
21
102.7158
0
LINE
8
OHNE_NAMEN
6
CONTINUOUS
62
1
39
0.0000
10
119.7268
20
102.7158
11
120.7146
21
102.4336
0
LINE
8
OHNE_NAMEN
6
CONTINUOUS
62
1
39
0.0000
10
120.7146
20
102.4336
11
121.5376
21
102.0336
0
LINE
8
OHNE_NAMEN
6
CONTINUOUS
62
1
39
0.0000
10
121.5376
20
102.0336
11
122.4079
21
101.5164
0
LINE
8
OHNE_NAMEN
6
CONTINUOUS
62
1
39
0.0000
10
122.4079
20
101.5164
11
123.2782
21
100.9047
0
LINE
8
OHNE_NAMEN
6
CONTINUOUS
62
1
39
0.0000
10
123.2782
20
100.9047
11
123.9838
21
100.1286
0
LINE
8
OHNE_NAMEN
6
CONTINUOUS
62
1
39
0.0000
10
123.9838
20
100.1286
11
124.9948
21
99.0702
0
LINE
8
OHNE_NAMEN
6
CONTINUOUS
62
7
39
0.1528
10
109.5174
20
62.0296
11
109.5174
21
63.0298
0
LINE
8
OHNE_NAMEN
6
CONTINUOUS
62
7
39
0.1528
10
111.5173
20
62.0296
11
111.5173
21
63.0298
0
LINE
8
OHNE_NAMEN
6
CONTINUOUS
62
7
39
0.1528
10
113.5175
20
62.0296
11
113.5175
21
63.0298
0
LINE
8
OHNE_NAMEN
6
CONTINUOUS
62
7
39
0.1528
10
115.5174
20
62.0296
11
115.5174
21
63.0298
0
LINE
8
OHNE_NAMEN
6
CONTINUOUS
62
7
39
0.1528
10
117.5173
20
62.0296
11
117.5173
21
63.0298
0
LINE
8
OHNE_NAMEN
6
CONTINUOUS
62
7
39
0.1528
10
119.5176
20
62.0296
11
119.5176
21
63.0298
0
LINE
8
OHNE_NAMEN
6
CONTINUOUS
62
7
39
0.1528
10
109.5174
20
64.0295
11
109.5174
21
65.0296
0
LINE
8
OHNE_NAMEN
6
CONTINUOUS
62
7
39
0.1528
10
111.5173
20
64.0295
11
111.5173
21
65.0296
0
LINE
8
OHNE_NAMEN
6
CONTINUOUS
62
7
39
0.1528
10
113.5175
20
64.0295
11
113.5175
21
65.0296
0
LINE
8
OHNE_NAMEN
6
CONTINUOUS
62
7
39
0.1528
10
115.5174
20
64.0295
11
115.5174
21
65.0296
0
LINE
8
OHNE_NAMEN
6
CONTINUOUS
62
7
39
0.1528
10
117.5173
20
64.0295
11
117.5173
21
65.0296
0
LINE
8
OHNE_NAMEN
6
CONTINUOUS
62
7
39
0.1528
10
119.5176
20
64.0295
11
119.5176
21
65.0296
0
LINE
8
OHNE_NAMEN
6
CONTINUOUS
62
7
39
0.1528
10
109.5174
20
66.0294
11
109.5174
21
67.0295
0
LINE
8
OHNE_NAMEN
6
CONTINUOUS
62
7
39
0.1528
10
111.5173
20
66.0294
11
111.5173
21
67.0295
0
LINE
8
OHNE_NAMEN
6
CONTINUOUS
62
7
39
0.1528
10
113.5175
20
66.0294
11
113.5175
21
67.0295
0
LINE
8
OHNE_NAMEN
6
CONTINUOUS
62
7
39
0.1528
10
115.5174
20
66.0294
11
115.5174
21
67.0295
0
LINE
8
OHNE_NAMEN
6
CONTINUOUS
62
7
39
0.1528
10
117.5173
20
66.0294
11
117.5173
21
67.0295
0
LINE
8
OHNE_NAMEN
6
CONTINUOUS
62
7
39
0.1528
10
119.5176
20
66.0294
11
119.5176
21
67.0295
0
LINE
8
OHNE_NAMEN
6
CONTINUOUS
62
7
39
0.1528
10
110.5172
20
63.0294
11
110.5172
21
64.0299
0
LINE
8
OHNE_NAMEN
6
CONTINUOUS
62
7
39
0.1528
10
112.5171
20
63.0294
11
112.5171
21
64.0299
0
LINE
8
OHNE_NAMEN
6
CONTINUOUS
62
7
39
0.1528
10
114.5173
20
63.0294
11
114.5173
21
64.0299
0
LINE
8
OHNE_NAMEN
6
CONTINUOUS
62
7
39
0.1528
10
116.5172
20
63.0294
11
116.5172
21
64.0299
0
LINE
8
OHNE_NAMEN
6
CONTINUOUS
62
7
39
0.1528
10
118.5171
20
63.0294
11
118.5171
21
64.0299
0
LINE
8
OHNE_NAMEN
6
CONTINUOUS
62
7
39
0.1528
10
110.5172
20
65.0296
11
110.5172
21
66.0298
0
LINE
8
OHNE_NAMEN
6
CONTINUOUS
62
7
39
0.1528
10
112.5171
20
65.0296
11
112.5171
21
66.0298
0
LINE
8
OHNE_NAMEN
6
CONTINUOUS
62
7
39
0.1528
10
114.5173
20
65.0296
11
114.5173
21
66.0298
0
LINE
8
OHNE_NAMEN
6
CONTINUOUS
62
7
39
0.1528
10
116.5172
20
65.0296
11
116.5172
21
66.0298
0
LINE
8
OHNE_NAMEN
6
CONTINUOUS
62
7
39
0.1528
10
118.5171
20
65.0296
11
118.5171
21
66.0298
0
LINE
8
OHNE_NAMEN
6
CONTINUOUS
62
7
39
0.1528
10
110.5172
20
67.0295
11
110.5172
21
68.0297
0
LINE
8
OHNE_NAMEN
6
CONTINUOUS
62
7
39
0.1528
10
112.5171
20
67.0295
11
112.5171
21
68.0297
0
LINE
8
OHNE_NAMEN
6
CONTINUOUS
62
7
39
0.1528
10
114.5173
20
67.0295
11
114.5173
21
68.0297
0
LINE
8
OHNE_NAMEN
6
CONTINUOUS
62
7
39
0.1528
10
116.5172
20
67.0295
11
116.5172
21
68.0297
0
LINE
8
OHNE_NAMEN
6
CONTINUOUS
62
7
39
0.1528
10
118.5171
20
67.0295
11
118.5171
21
68.0297
0
LINE
8
OHNE_NAMEN
6
CONTINUOUS
62
7
39
0.1528
10
108.5000
20
66.9999
11
125.5000
21
66.9999
0
LINE
8
OHNE_NAMEN
6
CONTINUOUS
62
7
39
0.1528
10
108.5000
20
65.0000
11
125.5000
21
65.0000
0
LINE
8
OHNE_NAMEN
6
CONTINUOUS
62
7
39
0.1528
10
108.5000
20
66.0001
11
125.5000
21
66.0001
0
LINE
8
OHNE_NAMEN
6
CONTINUOUS
62
7
39
0.1528
10
108.5000
20
63.9999
11
125.5000
21
63.9999
0
LINE
8
OHNE_NAMEN
6
CONTINUOUS
62
7
39
0.1528
10
108.9999
20
63.0001
11
124.9997
21
63.0001
0
LINE
8
OHNE_NAMEN
6
CONTINUOUS
62
7
39
0.1528
10
108.9999
20
62.0000
11
124.9997
21
62.0000
0
LINE
8
OHNE_NAMEN
6
CONTINUOUS
62
7
39
0.1528
10
120.4997
20
68.0000
11
120.4997
21
66.9999
0
LINE
8
OHNE_NAMEN
6
CONTINUOUS
62
7
39
0.1528
10
120.4997
20
66.0001
11
120.4997
21
65.0000
0
LINE
8
OHNE_NAMEN
6
CONTINUOUS
62
7
39
0.1528
10
120.4997
20
63.9999
11
120.4997
21
63.0001
0
LINE
8
OHNE_NAMEN
6
CONTINUOUS
62
7
39
0.1528
10
122.5000
20
68.0000
11
122.5000
21
66.9999
0
LINE
8
OHNE_NAMEN
6
CONTINUOUS
62
7
39
0.1528
10
122.5000
20
66.0001
11
122.5000
21
65.0000
0
LINE
8
OHNE_NAMEN
6
CONTINUOUS
62
7
39
0.1528
10
122.5000
20
63.9999
11
122.5000
21
63.0001
0
LINE
8
OHNE_NAMEN
6
CONTINUOUS
62
7
39
0.1528
10
122.5000
20
62.0000
11
122.5000
21
60.9999
0
LINE
8
OHNE_NAMEN
6
CONTINUOUS
62
7
39
0.1528
10
121.4998
20
66.9999
11
121.4998
21
66.0001
0
LINE
8
OHNE_NAMEN
6
CONTINUOUS
62
7
39
0.1528
10
121.4998
20
65.0000
11
121.4998
21
63.9999
0
LINE
8
OHNE_NAMEN
6
CONTINUOUS
62
7
39
0.1528
10
121.4998
20
63.0001
11
121.4998
21
62.0000
0
LINE
8
OHNE_NAMEN
6
CONTINUOUS
62
7
39
0.1528
10
120.4997
20
62.0000
11
120.4997
21
60.9999
0
LINE
8
OHNE_NAMEN
6
CONTINUOUS
62
7
39
0.1528
10
124.4999
20
68.0000
11
124.4999
21
66.9999
0
LINE
8
OHNE_NAMEN
6
CONTINUOUS
62
7
39
0.1528
10
123.4997
20
66.9999
11
123.4997
21
66.0001
0
LINE
8
OHNE_NAMEN
6
CONTINUOUS
62
7
39
0.1528
10
124.4999
20
66.0001
11
124.4999
21
65.0000
0
LINE
8
OHNE_NAMEN
6
CONTINUOUS
62
7
39
0.1528
10
123.4997
20
65.0000
11
123.4997
21
63.9999
0
LINE
8
OHNE_NAMEN
6
CONTINUOUS
62
7
39
0.1528
10
124.4999
20
63.9999
11
124.4999
21
63.0001
0
LINE
8
OHNE_NAMEN
6
CONTINUOUS
62
7
39
0.1528
10
123.4997
20
63.0001
11
123.4997
21
62.0000
0
LINE
8
OHNE_NAMEN
6
CONTINUOUS
62
7
39
0.1528
10
118.4998
20
62.0000
11
118.4998
21
60.9999
0
LINE
8
OHNE_NAMEN
6
CONTINUOUS
62
7
39
0.1528
10
116.4999
20
62.0000
11
116.4999
21
60.9999
0
LINE
8
OHNE_NAMEN
6
CONTINUOUS
62
7
39
0.1528
10
114.5000
20
62.0000
11
114.5000
21
60.9999
0
LINE
8
OHNE_NAMEN
6
CONTINUOUS
62
7
39
0.1528
10
112.4998
20
62.0000
11
112.4998
21
60.9999
0
LINE
8
OHNE_NAMEN
6
CONTINUOUS
62
7
39
0.1528
10
110.4999
20
62.0000
11
110.4999
21
60.9999
0
LINE
8
OHNE_NAMEN
6
CONTINUOUS
62
7
39
0.1528
10
124.4999
20
62.0000
11
124.4999
21
60.9999
0
LINE
8
OHNE_NAMEN
6
CONTINUOUS
62
1
39
0.1528
10
108.9999
20
84.9997
11
108.5000
21
84.9997
0
LINE
8
OHNE_NAMEN
6
CONTINUOUS
62
1
39
0.1528
10
108.9999
20
83.9999
11
108.5000
21
83.9999
0
LINE
8
OHNE_NAMEN
6
CONTINUOUS
62
1
39
0.1528
10
108.9999
20
82.9998
11
108.5000
21
82.9998
0
LINE
8
OHNE_NAMEN
6
CONTINUOUS
62
1
39
0.1528
10
108.9999
20
82.0000
11
108.5000
21
82.0000
0
LINE
8
OHNE_NAMEN
6
CONTINUOUS
62
1
39
0.1528
10
108.9999
20
80.9995
11
108.5000
21
80.9995
0
LINE
8
OHNE_NAMEN
6
CONTINUOUS
62
1
39
0.1528
10
108.9999
20
79.9998
11
108.5000
21
79.9998
0
LINE
8
OHNE_NAMEN
6
CONTINUOUS
62
1
39
0.1528
10
108.9999
20
76.0000
11
108.5000
21
76.0000
0
LINE
8
OHNE_NAMEN
6
CONTINUOUS
62
1
39
0.1528
10
108.9999
20
74.9999
11
108.5000
21
74.9999
0
LINE
8
OHNE_NAMEN
6
CONTINUOUS
62
1
39
0.1528
10
108.9999
20
74.0001
11
108.5000
21
74.0001
0
LINE
8
OHNE_NAMEN
6
CONTINUOUS
62
1
39
0.1528
10
108.9999
20
73.0000
11
108.5000
21
73.0000
0
LINE
8
OHNE_NAMEN
6
CONTINUOUS
62
1
39
0.1528
10
108.9999
20
72.0002
11
108.5000
21
72.0002
0
LINE
8
OHNE_NAMEN
6
CONTINUOUS
62
1
39
0.1528
10
108.9999
20
89.0002
11
108.5000
21
89.0002
0
LINE
8
OHNE_NAMEN
6
CONTINUOUS
62
1
39
0.1528
10
108.9999
20
90.0000
11
108.5000
21
90.0000
0
LINE
8
OHNE_NAMEN
6
CONTINUOUS
62
1
39
0.1528
10
108.9999
20
90.9997
11
108.5000
21
90.9997
0
LINE
8
OHNE_NAMEN
6
CONTINUOUS
62
1
39
0.1528
10
108.9999
20
91.9995
11
108.5000
21
91.9995
0
LINE
8
OHNE_NAMEN
6
CONTINUOUS
62
1
39
0.1528
10
108.9999
20
92.9996
11
108.5000
21
92.9996
0
LINE
8
OHNE_NAMEN
6
CONTINUOUS
62
1
39
0.1528
10
108.9999
20
93.9997
11
108.5000
21
93.9997
0
LINE
8
OHNE_NAMEN
6
CONTINUOUS
62
1
39
0.1528
10
125.5000
20
84.9997
11
124.9997
21
84.9997
0
LINE
8
OHNE_NAMEN
6
CONTINUOUS
62
1
39
0.1528
10
125.5000
20
83.9999
11
124.9997
21
83.9999
0
LINE
8
OHNE_NAMEN
6
CONTINUOUS
62
1
39
0.1528
10
125.5000
20
82.9998
11
124.9997
21
82.9998
0
LINE
8
OHNE_NAMEN
6
CONTINUOUS
62
1
39
0.1528
10
125.5000
20
82.0000
11
124.9997
21
82.0000
0
LINE
8
OHNE_NAMEN
6
CONTINUOUS
62
1
39
0.1528
10
125.5000
20
80.9995
11
124.9997
21
80.9995
0
LINE
8
OHNE_NAMEN
6
CONTINUOUS
62
1
39
0.1528
10
125.5000
20
79.9998
11
124.9997
21
79.9998
0
LINE
8
OHNE_NAMEN
6
CONTINUOUS
62
1
39
0.1528
10
125.5000
20
76.0000
11
124.9997
21
76.0000
0
LINE
8
OHNE_NAMEN
6
CONTINUOUS
62
1
39
0.1528
10
125.5000
20
74.9999
11
124.9997
21
74.9999
0
LINE
8
OHNE_NAMEN
6
CONTINUOUS
62
1
39
0.1528
10
125.5000
20
74.0001
11
124.9997
21
74.0001
0
LINE
8
OHNE_NAMEN
6
CONTINUOUS
62
1
39
0.1528
10
125.5000
20
73.0000
11
124.9997
21
73.0000
0
LINE
8
OHNE_NAMEN
6
CONTINUOUS
62
1
39
0.1528
10
125.5000
20
72.0002
11
124.9997
21
72.0002
0
LINE
8
OHNE_NAMEN
6
CONTINUOUS
62
1
39
0.1528
10
125.5000
20
89.0002
11
124.9997
21
89.0002
0
LINE
8
OHNE_NAMEN
6
CONTINUOUS
62
1
39
0.1528
10
125.5000
20
90.0000
11
124.9997
21
90.0000
0
LINE
8
OHNE_NAMEN
6
CONTINUOUS
62
1
39
0.1528
10
125.5000
20
90.9997
11
124.9997
21
90.9997
0
LINE
8
OHNE_NAMEN
6
CONTINUOUS
62
1
39
0.1528
10
125.5000
20
91.9995
11
124.9997
21
91.9995
0
LINE
8
OHNE_NAMEN
6
CONTINUOUS
62
1
39
0.1528
10
125.5000
20
92.9996
11
124.9997
21
92.9996
0
LINE
8
OHNE_NAMEN
6
CONTINUOUS
62
1
39
0.1528
10
125.5000
20
93.9997
11
124.9997
21
93.9997
0
LINE
8
OHNE_NAMEN
6
CONTINUOUS
62
5
39
0.0000
10
131.9999
20
164.0000
11
192.0000
21
164.0000
0
LINE
8
OHNE_NAMEN
6
CONTINUOUS
62
5
39
0.0000
10
131.9999
20
47.0002
11
192.0000
21
47.0002
0
LINE
8
OHNE_NAMEN
6
CONTINUOUS
62
5
39
0.0000
10
131.9999
20
46.9999
11
131.9999
21
86.9996
0
LINE
8
OHNE_NAMEN
6
CONTINUOUS
62
5
39
0.0000
10
131.9999
20
163.9997
11
131.9999
21
124.0000
0
LINE
8
OHNE_NAMEN
6
CONTINUOUS
62
5
39
0.0000
10
131.9999
20
123.9996
11
133.9998
21
123.9996
0
LINE
8
OHNE_NAMEN
6
CONTINUOUS
62
5
39
0.0000
10
133.9998
20
123.9996
11
133.9998
21
86.9999
0
LINE
8
OHNE_NAMEN
6
CONTINUOUS
62
5
39
0.0000
10
133.9998
20
86.9999
11
131.9999
21
86.9999
0
LINE
8
OHNE_NAMEN
6
CONTINUOUS
62
5
39
0.0000
10
77.0004
20
163.9997
11
77.0004
21
124.0000
0
LINE
8
OHNE_NAMEN
6
CONTINUOUS
62
5
39
0.0000
10
77.0004
20
46.9999
11
77.0004
21
86.9996
0
LINE
8
OHNE_NAMEN
6
CONTINUOUS
62
5
39
0.0000
10
77.0004
20
86.9999
11
75.0006
21
86.9999
0
LINE
8
OHNE_NAMEN
6
CONTINUOUS
62
5
39
0.0000
10
75.0006
20
86.9999
11
75.0006
21
123.9996
0
LINE
8
OHNE_NAMEN
6
CONTINUOUS
62
5
39
0.0000
10
75.0006
20
123.9996
11
77.0004
21
123.9996
0
LINE
8
OHNE_NAMEN
6
CONTINUOUS
62
5
39
0.0000
10
192.0000
20
164.0000
11
192.0000
21
46.9999
0
ENDSEC
0
EOF
